%TF.GenerationSoftware,KiCad,Pcbnew,9.0.7*%
%TF.CreationDate,2026-03-10T14:53:20+01:00*%
%TF.ProjectId,MotorKontrollerV1,4d6f746f-724b-46f6-9e74-726f6c6c6572,rev?*%
%TF.SameCoordinates,Original*%
%TF.FileFunction,Copper,L3,Inr*%
%TF.FilePolarity,Positive*%
%FSLAX46Y46*%
G04 Gerber Fmt 4.6, Leading zero omitted, Abs format (unit mm)*
G04 Created by KiCad (PCBNEW 9.0.7) date 2026-03-10 14:53:20*
%MOMM*%
%LPD*%
G01*
G04 APERTURE LIST*
%TA.AperFunction,ComponentPad*%
%ADD10R,2.000000X2.000000*%
%TD*%
%TA.AperFunction,ComponentPad*%
%ADD11C,2.000000*%
%TD*%
%TA.AperFunction,ComponentPad*%
%ADD12O,2.000000X1.200000*%
%TD*%
%TA.AperFunction,ComponentPad*%
%ADD13O,1.800000X1.200000*%
%TD*%
%TA.AperFunction,ComponentPad*%
%ADD14C,0.800000*%
%TD*%
%TA.AperFunction,ComponentPad*%
%ADD15C,6.400000*%
%TD*%
%TA.AperFunction,ViaPad*%
%ADD16C,1.200000*%
%TD*%
%TA.AperFunction,ViaPad*%
%ADD17C,0.600000*%
%TD*%
%TA.AperFunction,ViaPad*%
%ADD18C,0.700000*%
%TD*%
%TA.AperFunction,ViaPad*%
%ADD19C,0.500000*%
%TD*%
%TA.AperFunction,Conductor*%
%ADD20C,0.300000*%
%TD*%
G04 APERTURE END LIST*
D10*
%TO.N,ADC_SOC*%
%TO.C,H13*%
X7540000Y-24790000D03*
D11*
%TO.N,GND*%
X10080000Y-24790000D03*
%TD*%
D12*
%TO.N,GND*%
%TO.C,USBC2*%
X-33087900Y-2208400D03*
D13*
X-37267900Y-2208400D03*
X-37267900Y6451600D03*
D12*
X-33087900Y6451600D03*
%TD*%
D14*
%TO.N,MOUNTING_PIN*%
%TO.C,H7*%
X-36950000Y-34550000D03*
X-36247056Y-32852944D03*
X-36247056Y-36247056D03*
X-34550000Y-32150000D03*
D15*
X-34550000Y-34550000D03*
D14*
X-34550000Y-36950000D03*
X-32852944Y-32852944D03*
X-32852944Y-36247056D03*
X-32150000Y-34550000D03*
%TD*%
%TO.N,MOUNTING_PIN*%
%TO.C,H8*%
X32150000Y-34550000D03*
X32852944Y-32852944D03*
X32852944Y-36247056D03*
X34550000Y-32150000D03*
D15*
X34550000Y-34550000D03*
D14*
X34550000Y-36950000D03*
X36247056Y-32852944D03*
X36247056Y-36247056D03*
X36950000Y-34550000D03*
%TD*%
D10*
%TO.N,PWM_LB*%
%TO.C,H15*%
X4520000Y-13630000D03*
D11*
%TO.N,PWM_HB*%
X1980000Y-13630000D03*
%TD*%
D10*
%TO.N,ENK_SINN*%
%TO.C,H9*%
X-15020000Y-24770000D03*
D11*
%TO.N,ENK_SINP*%
X-12480000Y-24770000D03*
%TD*%
D14*
%TO.N,MOUNTING_PIN*%
%TO.C,H1*%
X-17900000Y-15500000D03*
X-17197056Y-13802944D03*
X-17197056Y-17197056D03*
X-15500000Y-13100000D03*
D15*
X-15500000Y-15500000D03*
D14*
X-15500000Y-17900000D03*
X-13802944Y-13802944D03*
X-13802944Y-17197056D03*
X-13100000Y-15500000D03*
%TD*%
D11*
%TO.N,PHASE A*%
%TO.C,C20*%
X34391600Y381000D03*
%TO.N,PHASE B*%
X34391600Y5461000D03*
%TO.N,PHASE C*%
X34391600Y10541000D03*
%TD*%
D14*
%TO.N,MOUNTING_PIN*%
%TO.C,H6*%
X-36950000Y34550000D03*
X-36247056Y36247056D03*
X-36247056Y32852944D03*
X-34550000Y36950000D03*
D15*
X-34550000Y34550000D03*
D14*
X-34550000Y32150000D03*
X-32852944Y36247056D03*
X-32852944Y32852944D03*
X-32150000Y34550000D03*
%TD*%
%TO.N,MOUNTING_PIN*%
%TO.C,H5*%
X32150000Y34550000D03*
X32852944Y36247056D03*
X32852944Y32852944D03*
X34550000Y36950000D03*
D15*
X34550000Y34550000D03*
D14*
X34550000Y32150000D03*
X36247056Y36247056D03*
X36247056Y32852944D03*
X36950000Y34550000D03*
%TD*%
D10*
%TO.N,PHASE C*%
%TO.C,H18*%
X35980000Y-8400000D03*
D11*
%TO.N,GND*%
X38520000Y-8400000D03*
%TD*%
D12*
%TO.N,GND*%
%TO.C,USBC1*%
X-33062500Y18270000D03*
D13*
X-37242500Y18270000D03*
X-37242500Y26930000D03*
D12*
X-33062500Y26930000D03*
%TD*%
D11*
%TO.N,+VCC_DC*%
%TO.C,P1*%
X-34190000Y-20070000D03*
%TO.N,GND*%
X-34190000Y-25150000D03*
%TD*%
D10*
%TO.N,PHASE A*%
%TO.C,H17*%
X30380000Y-8400000D03*
D11*
%TO.N,PHASE B*%
X32920000Y-8400000D03*
%TD*%
D10*
%TO.N,PWM_LA*%
%TO.C,H16*%
X-840000Y-13640000D03*
D11*
%TO.N,PWM_HA*%
X-3380000Y-13640000D03*
%TD*%
D14*
%TO.N,MOUNTING_PIN*%
%TO.C,H3*%
X13100000Y15500000D03*
X13802944Y17197056D03*
X13802944Y13802944D03*
X15500000Y17900000D03*
D15*
X15500000Y15500000D03*
D14*
X15500000Y13100000D03*
X17197056Y17197056D03*
X17197056Y13802944D03*
X17900000Y15500000D03*
%TD*%
D10*
%TO.N,PWM_LC*%
%TO.C,H14*%
X9870000Y-13640000D03*
D11*
%TO.N,PWM_HC*%
X7330000Y-13640000D03*
%TD*%
D10*
%TO.N,D+_Header*%
%TO.C,H20*%
X-23760000Y15880000D03*
D11*
%TO.N,D-_Header*%
X-23760000Y18420000D03*
%TD*%
D14*
%TO.N,MOUNTING_PIN*%
%TO.C,H4*%
X-17900000Y15500000D03*
X-17197056Y17197056D03*
X-17197056Y13802944D03*
X-15500000Y17900000D03*
D15*
X-15500000Y15500000D03*
D14*
X-15500000Y13100000D03*
X-13802944Y17197056D03*
X-13802944Y13802944D03*
X-13100000Y15500000D03*
%TD*%
D10*
%TO.N,ENK_Vgmr*%
%TO.C,H11*%
X-4020000Y-24750000D03*
D11*
%TO.N,GND*%
X-1480000Y-24750000D03*
%TD*%
D10*
%TO.N,ADC_SOA*%
%TO.C,H12*%
X1980000Y-24750000D03*
D11*
%TO.N,ADC_SOB*%
X4520000Y-24750000D03*
%TD*%
D10*
%TO.N,+3V3*%
%TO.C,H19*%
X38640000Y18060000D03*
D11*
%TO.N,GND*%
X38640000Y15520000D03*
%TD*%
D10*
%TO.N,ENK_COSP*%
%TO.C,H10*%
X-9520000Y-24750000D03*
D11*
%TO.N,ENK_COSN*%
X-6980000Y-24750000D03*
%TD*%
D14*
%TO.N,MOUNTING_PIN*%
%TO.C,H2*%
X13100000Y-15500000D03*
X13802944Y-13802944D03*
X13802944Y-17197056D03*
X15500000Y-13100000D03*
D15*
X15500000Y-15500000D03*
D14*
X15500000Y-17900000D03*
X17197056Y-13802944D03*
X17197056Y-17197056D03*
X17900000Y-15500000D03*
%TD*%
D16*
%TO.N,+VCC*%
X24460200Y-609600D03*
X-20599400Y-24587200D03*
X-16637000Y26100000D03*
X19583400Y24384000D03*
X28600400Y30630000D03*
X-11963400Y-1320800D03*
X28524200Y32740600D03*
D17*
%TO.N,GND*%
X-4241800Y38023800D03*
X9920000Y20970000D03*
X12500000Y22210000D03*
X1701800Y38023800D03*
D18*
X-31900000Y-6750000D03*
D17*
X-838200Y38023800D03*
D16*
X-29083000Y3987800D03*
D18*
X-2794000Y33401000D03*
D17*
X-6223000Y36855400D03*
D18*
X-8509000Y39124000D03*
X2794000Y31750000D03*
D17*
X-14340000Y-8430000D03*
X28500000Y39200000D03*
D16*
X24550000Y-5890000D03*
X29130000Y12880000D03*
D18*
X0Y28956000D03*
D17*
X-5880000Y38100000D03*
D18*
X-35204400Y17322800D03*
X-18950000Y8650000D03*
X30350000Y19150000D03*
D17*
X11190000Y36240000D03*
X6223000Y35128200D03*
D18*
X-14427200Y38074600D03*
D17*
X-17010000Y-7540000D03*
X5105400Y38023800D03*
X16865600Y1066800D03*
X15710000Y-4030000D03*
D16*
X-29057600Y-609600D03*
D18*
X-35204400Y7594600D03*
D17*
X-30500000Y-2900000D03*
X13106400Y-4064000D03*
D18*
X-30581600Y19405600D03*
X8610600Y39124000D03*
D16*
X29020000Y11080000D03*
D18*
X1651000Y34544000D03*
D17*
X-30988000Y23749000D03*
D18*
X-31521400Y26695400D03*
D17*
X-620000Y-4180000D03*
X-21850000Y-7650000D03*
D18*
X17500000Y38000000D03*
D17*
X8480000Y36610000D03*
D18*
X27914600Y28295600D03*
D17*
X-9120000Y33150000D03*
X19456400Y10109200D03*
X5943600Y38023800D03*
D16*
X16400000Y31300000D03*
D18*
X-2794000Y30099000D03*
D17*
X-2780000Y31750000D03*
D16*
X11500000Y-22500000D03*
D17*
X25570000Y6620000D03*
D18*
X2794000Y33401000D03*
X1651000Y28956000D03*
D17*
X15840000Y2440000D03*
D16*
X38550000Y-10600000D03*
D18*
X2794000Y30099000D03*
D17*
X-3403600Y38023800D03*
D18*
X-35204400Y27914600D03*
X-29260800Y31750000D03*
X-22098000Y37592000D03*
X-30911800Y6451600D03*
X0Y34544000D03*
D17*
X0Y38023800D03*
D16*
X-29057600Y1727200D03*
D18*
X-27863800Y12065000D03*
X7010400Y23469600D03*
D16*
X36510000Y15520000D03*
D17*
X-13740000Y34130000D03*
X-1701800Y38023800D03*
X-15850000Y-6010000D03*
X21500000Y39000000D03*
X18200000Y31900000D03*
X2565400Y38023800D03*
X19920000Y14770000D03*
X-1020000Y-8200000D03*
D18*
X-1651000Y34544000D03*
D17*
X2387600Y14224000D03*
X-16000000Y35220000D03*
X3010000Y23110000D03*
X-5105400Y38023800D03*
X-1900000Y-4160000D03*
X30300000Y21600000D03*
D18*
X-7010400Y23495000D03*
D17*
X-16800000Y10900000D03*
X4241800Y38023800D03*
D18*
X-38531800Y-3403600D03*
D17*
X6223000Y35991800D03*
D18*
X-1651000Y28956000D03*
D17*
X-23710000Y-2110000D03*
X23012400Y2184400D03*
X590000Y-6540000D03*
X838200Y38023800D03*
X-2565400Y38023800D03*
D18*
X-31775400Y-3175000D03*
D17*
X11658600Y6375400D03*
X-5220000Y-1400000D03*
X13131800Y-457200D03*
X2387600Y11684000D03*
X13131800Y3048000D03*
X2387600Y9144000D03*
X9980000Y23540000D03*
X-20900000Y-6750000D03*
D16*
X0Y-22500000D03*
D17*
X3403600Y38023800D03*
D16*
X28480000Y-5920000D03*
D17*
X25390000Y4210000D03*
X-10350000Y34120000D03*
D18*
X25501600Y37000000D03*
D17*
X18300000Y29300000D03*
D16*
%TO.N,+VCC_USBCPD*%
X-21971000Y-177800D03*
D18*
X-25755600Y-2336800D03*
D19*
%TO.N,ADC_SOA*%
X6500000Y15250000D03*
%TO.N,ADC_SOB*%
X7400000Y15000000D03*
D17*
%TO.N,ADC_SOC*%
X7500000Y13000000D03*
%TO.N,+AVDD*%
X20904200Y11607800D03*
X23596600Y11607800D03*
D18*
%TO.N,ENK_Vgmr*%
X-2921000Y2794000D03*
D17*
%TO.N,+3V3*%
X-8290000Y34270000D03*
D16*
X-9094400Y36474400D03*
D17*
X-3835400Y1905000D03*
X15722600Y33909000D03*
D16*
X36372800Y30200600D03*
D17*
X13081000Y6350000D03*
D18*
%TO.N,ENK_SINN*%
X-12700000Y9906000D03*
X-9906000Y9906000D03*
%TO.N,ENK_SINP*%
X-7874000Y9652000D03*
X-4318000Y9652000D03*
%TO.N,ENK_COSP*%
X-6350000Y11684000D03*
X-4318000Y11684000D03*
D17*
%TO.N,ENK_COSN*%
X-5334000Y13250000D03*
%TO.N,CC1*%
X-32029400Y-3962400D03*
X-34442400Y-3962400D03*
%TO.N,PWM_LC*%
X5816600Y18389600D03*
X15011400Y8763000D03*
%TO.N,PWM_LA*%
X3429000Y21015400D03*
X14986000Y11182200D03*
%TO.N,PWM_HA*%
X15798800Y11782200D03*
X2870200Y21615400D03*
%TO.N,PWM_HC*%
X5080000Y19024600D03*
X14173200Y9363000D03*
%TO.N,PWM_HB*%
X14154821Y10582200D03*
X3814277Y20314283D03*
%TO.N,CTR_nFAULT*%
X20726400Y13665200D03*
X22740535Y13901335D03*
D19*
%TO.N,MCUSCL*%
X4760000Y15890000D03*
D17*
X457200Y21640800D03*
%TO.N,PWM_LB*%
X13436600Y9963000D03*
X4394200Y19634200D03*
D19*
%TO.N,MCURST*%
X5562600Y15900400D03*
D17*
X1701800Y21605800D03*
D19*
%TO.N,MCUSDA*%
X3910000Y15870000D03*
D17*
X-558800Y21605800D03*
D18*
%TO.N,SIN_N*%
X635000Y4191000D03*
%TO.N,COS_P*%
X1905000Y-4572000D03*
%TO.N,COS_N*%
X635000Y-4699000D03*
%TO.N,SIN_P*%
X1778000Y4826000D03*
%TO.N,MCUD+*%
X-14129000Y22117500D03*
X855358Y23275391D03*
%TO.N,MCUD-*%
X-42094Y23343098D03*
X-14129000Y23067500D03*
D17*
%TO.N,D+_Header*%
X-33700000Y23350000D03*
X-33700000Y22150000D03*
%TD*%
D20*
%TO.N,ENK_Vgmr*%
X-6250000Y411054D02*
X-3867054Y2794000D01*
X-6250000Y-22520000D02*
X-6250000Y411054D01*
X-3867054Y2794000D02*
X-2921000Y2794000D01*
X-4020000Y-24750000D02*
X-6250000Y-22520000D01*
%TO.N,ENK_SINN*%
X-9906000Y-19656000D02*
X-9906000Y9906000D01*
X-15020000Y-24770000D02*
X-9906000Y-19656000D01*
%TO.N,ENK_SINP*%
X-9250000Y8276000D02*
X-7874000Y9652000D01*
X-12480000Y-24770000D02*
X-9250000Y-21540000D01*
X-9250000Y-21540000D02*
X-9250000Y8276000D01*
%TO.N,ENK_COSP*%
X-6350000Y9650000D02*
X-6350000Y11684000D01*
X-8500000Y-23730000D02*
X-8500000Y7500000D01*
X-9520000Y-24750000D02*
X-8500000Y-23730000D01*
X-8500000Y7500000D02*
X-6350000Y9650000D01*
%TO.N,ENK_COSN*%
X-6980000Y-24750000D02*
X-6980000Y8311480D01*
X-5334000Y9957480D02*
X-5334000Y13250000D01*
X-6980000Y8311480D02*
X-5334000Y9957480D01*
%TO.N,PWM_LC*%
X10940000Y7840000D02*
X14088400Y7840000D01*
X9870000Y-13640000D02*
X9870000Y6770000D01*
X9870000Y6770000D02*
X10940000Y7840000D01*
X14088400Y7840000D02*
X15011400Y8763000D01*
%TO.N,PWM_LA*%
X6880000Y7960000D02*
X6880000Y8400000D01*
X6860000Y-5940000D02*
X6860000Y7940000D01*
X12834680Y11233200D02*
X14935000Y11233200D01*
X6880000Y8400000D02*
X9090000Y10610000D01*
X-840000Y-13640000D02*
X6860000Y-5940000D01*
X9090000Y10610000D02*
X12211480Y10610000D01*
X12211480Y10610000D02*
X12834680Y11233200D01*
%TO.N,PWM_HA*%
X6240000Y-4020000D02*
X6240000Y8490000D01*
X6240000Y8490000D02*
X8890000Y11140000D01*
X-3380000Y-13640000D02*
X6240000Y-4020000D01*
X11790000Y11140000D02*
X12483200Y11833200D01*
X12483200Y11833200D02*
X15747800Y11833200D01*
X8890000Y11140000D02*
X11790000Y11140000D01*
%TO.N,PWM_HC*%
X7330000Y-13640000D02*
X9190000Y-11780000D01*
X10080000Y8350000D02*
X13160200Y8350000D01*
X9190000Y-11780000D02*
X9190000Y7460000D01*
X13160200Y8350000D02*
X14173200Y9363000D01*
X9190000Y7460000D02*
X10080000Y8350000D01*
%TO.N,PWM_HB*%
X7590000Y8090000D02*
X9440000Y9940000D01*
X1980000Y-13630000D02*
X7590000Y-8020000D01*
X12250000Y9940000D02*
X12924000Y10614000D01*
X9440000Y9940000D02*
X12250000Y9940000D01*
X12924000Y10614000D02*
X14123021Y10614000D01*
X7590000Y-8020000D02*
X7590000Y8090000D01*
%TO.N,PWM_LB*%
X12643600Y9170000D02*
X13436600Y9963000D01*
X8390000Y7920000D02*
X9640000Y9170000D01*
X9640000Y9170000D02*
X12643600Y9170000D01*
X4520000Y-13630000D02*
X8390000Y-9760000D01*
X8390000Y-9760000D02*
X8390000Y7920000D01*
%TD*%
M02*
