%TF.GenerationSoftware,KiCad,Pcbnew,9.0.7*%
%TF.CreationDate,2026-03-10T14:53:20+01:00*%
%TF.ProjectId,MotorKontrollerV1,4d6f746f-724b-46f6-9e74-726f6c6c6572,rev?*%
%TF.SameCoordinates,Original*%
%TF.FileFunction,Copper,L2,Inr*%
%TF.FilePolarity,Positive*%
%FSLAX46Y46*%
G04 Gerber Fmt 4.6, Leading zero omitted, Abs format (unit mm)*
G04 Created by KiCad (PCBNEW 9.0.7) date 2026-03-10 14:53:20*
%MOMM*%
%LPD*%
G01*
G04 APERTURE LIST*
%TA.AperFunction,ComponentPad*%
%ADD10R,2.000000X2.000000*%
%TD*%
%TA.AperFunction,ComponentPad*%
%ADD11C,2.000000*%
%TD*%
%TA.AperFunction,ComponentPad*%
%ADD12O,2.000000X1.200000*%
%TD*%
%TA.AperFunction,ComponentPad*%
%ADD13O,1.800000X1.200000*%
%TD*%
%TA.AperFunction,ComponentPad*%
%ADD14C,0.800000*%
%TD*%
%TA.AperFunction,ComponentPad*%
%ADD15C,6.400000*%
%TD*%
%TA.AperFunction,ViaPad*%
%ADD16C,1.200000*%
%TD*%
%TA.AperFunction,ViaPad*%
%ADD17C,0.600000*%
%TD*%
%TA.AperFunction,ViaPad*%
%ADD18C,0.700000*%
%TD*%
%TA.AperFunction,ViaPad*%
%ADD19C,0.500000*%
%TD*%
G04 APERTURE END LIST*
D10*
%TO.N,ADC_SOC*%
%TO.C,H13*%
X7540000Y-24790000D03*
D11*
%TO.N,GND*%
X10080000Y-24790000D03*
%TD*%
D12*
%TO.N,GND*%
%TO.C,USBC2*%
X-33087900Y-2208400D03*
D13*
X-37267900Y-2208400D03*
X-37267900Y6451600D03*
D12*
X-33087900Y6451600D03*
%TD*%
D14*
%TO.N,MOUNTING_PIN*%
%TO.C,H7*%
X-36950000Y-34550000D03*
X-36247056Y-32852944D03*
X-36247056Y-36247056D03*
X-34550000Y-32150000D03*
D15*
X-34550000Y-34550000D03*
D14*
X-34550000Y-36950000D03*
X-32852944Y-32852944D03*
X-32852944Y-36247056D03*
X-32150000Y-34550000D03*
%TD*%
%TO.N,MOUNTING_PIN*%
%TO.C,H8*%
X32150000Y-34550000D03*
X32852944Y-32852944D03*
X32852944Y-36247056D03*
X34550000Y-32150000D03*
D15*
X34550000Y-34550000D03*
D14*
X34550000Y-36950000D03*
X36247056Y-32852944D03*
X36247056Y-36247056D03*
X36950000Y-34550000D03*
%TD*%
D10*
%TO.N,PWM_LB*%
%TO.C,H15*%
X4520000Y-13630000D03*
D11*
%TO.N,PWM_HB*%
X1980000Y-13630000D03*
%TD*%
D10*
%TO.N,ENK_SINN*%
%TO.C,H9*%
X-15020000Y-24770000D03*
D11*
%TO.N,ENK_SINP*%
X-12480000Y-24770000D03*
%TD*%
D14*
%TO.N,MOUNTING_PIN*%
%TO.C,H1*%
X-17900000Y-15500000D03*
X-17197056Y-13802944D03*
X-17197056Y-17197056D03*
X-15500000Y-13100000D03*
D15*
X-15500000Y-15500000D03*
D14*
X-15500000Y-17900000D03*
X-13802944Y-13802944D03*
X-13802944Y-17197056D03*
X-13100000Y-15500000D03*
%TD*%
D11*
%TO.N,PHASE A*%
%TO.C,C20*%
X34391600Y381000D03*
%TO.N,PHASE B*%
X34391600Y5461000D03*
%TO.N,PHASE C*%
X34391600Y10541000D03*
%TD*%
D14*
%TO.N,MOUNTING_PIN*%
%TO.C,H6*%
X-36950000Y34550000D03*
X-36247056Y36247056D03*
X-36247056Y32852944D03*
X-34550000Y36950000D03*
D15*
X-34550000Y34550000D03*
D14*
X-34550000Y32150000D03*
X-32852944Y36247056D03*
X-32852944Y32852944D03*
X-32150000Y34550000D03*
%TD*%
%TO.N,MOUNTING_PIN*%
%TO.C,H5*%
X32150000Y34550000D03*
X32852944Y36247056D03*
X32852944Y32852944D03*
X34550000Y36950000D03*
D15*
X34550000Y34550000D03*
D14*
X34550000Y32150000D03*
X36247056Y36247056D03*
X36247056Y32852944D03*
X36950000Y34550000D03*
%TD*%
D10*
%TO.N,PHASE C*%
%TO.C,H18*%
X35980000Y-8400000D03*
D11*
%TO.N,GND*%
X38520000Y-8400000D03*
%TD*%
D12*
%TO.N,GND*%
%TO.C,USBC1*%
X-33062500Y18270000D03*
D13*
X-37242500Y18270000D03*
X-37242500Y26930000D03*
D12*
X-33062500Y26930000D03*
%TD*%
D11*
%TO.N,+VCC_DC*%
%TO.C,P1*%
X-34190000Y-20070000D03*
%TO.N,GND*%
X-34190000Y-25150000D03*
%TD*%
D10*
%TO.N,PHASE A*%
%TO.C,H17*%
X30380000Y-8400000D03*
D11*
%TO.N,PHASE B*%
X32920000Y-8400000D03*
%TD*%
D10*
%TO.N,PWM_LA*%
%TO.C,H16*%
X-840000Y-13640000D03*
D11*
%TO.N,PWM_HA*%
X-3380000Y-13640000D03*
%TD*%
D14*
%TO.N,MOUNTING_PIN*%
%TO.C,H3*%
X13100000Y15500000D03*
X13802944Y17197056D03*
X13802944Y13802944D03*
X15500000Y17900000D03*
D15*
X15500000Y15500000D03*
D14*
X15500000Y13100000D03*
X17197056Y17197056D03*
X17197056Y13802944D03*
X17900000Y15500000D03*
%TD*%
D10*
%TO.N,PWM_LC*%
%TO.C,H14*%
X9870000Y-13640000D03*
D11*
%TO.N,PWM_HC*%
X7330000Y-13640000D03*
%TD*%
D10*
%TO.N,D+_Header*%
%TO.C,H20*%
X-23760000Y15880000D03*
D11*
%TO.N,D-_Header*%
X-23760000Y18420000D03*
%TD*%
D14*
%TO.N,MOUNTING_PIN*%
%TO.C,H4*%
X-17900000Y15500000D03*
X-17197056Y17197056D03*
X-17197056Y13802944D03*
X-15500000Y17900000D03*
D15*
X-15500000Y15500000D03*
D14*
X-15500000Y13100000D03*
X-13802944Y17197056D03*
X-13802944Y13802944D03*
X-13100000Y15500000D03*
%TD*%
D10*
%TO.N,ENK_Vgmr*%
%TO.C,H11*%
X-4020000Y-24750000D03*
D11*
%TO.N,GND*%
X-1480000Y-24750000D03*
%TD*%
D10*
%TO.N,ADC_SOA*%
%TO.C,H12*%
X1980000Y-24750000D03*
D11*
%TO.N,ADC_SOB*%
X4520000Y-24750000D03*
%TD*%
D10*
%TO.N,+3V3*%
%TO.C,H19*%
X38640000Y18060000D03*
D11*
%TO.N,GND*%
X38640000Y15520000D03*
%TD*%
D10*
%TO.N,ENK_COSP*%
%TO.C,H10*%
X-9520000Y-24750000D03*
D11*
%TO.N,ENK_COSN*%
X-6980000Y-24750000D03*
%TD*%
D14*
%TO.N,MOUNTING_PIN*%
%TO.C,H2*%
X13100000Y-15500000D03*
X13802944Y-13802944D03*
X13802944Y-17197056D03*
X15500000Y-13100000D03*
D15*
X15500000Y-15500000D03*
D14*
X15500000Y-17900000D03*
X17197056Y-13802944D03*
X17197056Y-17197056D03*
X17900000Y-15500000D03*
%TD*%
D16*
%TO.N,+VCC*%
X24460200Y-609600D03*
X-20599400Y-24587200D03*
X-16637000Y26100000D03*
X19583400Y24384000D03*
X28600400Y30630000D03*
X-11963400Y-1320800D03*
X28524200Y32740600D03*
D17*
%TO.N,GND*%
X-4241800Y38023800D03*
X9920000Y20970000D03*
X12500000Y22210000D03*
X1701800Y38023800D03*
D18*
X-31900000Y-6750000D03*
D17*
X-838200Y38023800D03*
D16*
X-29083000Y3987800D03*
D18*
X-2794000Y33401000D03*
D17*
X-6223000Y36855400D03*
D18*
X-8509000Y39124000D03*
X2794000Y31750000D03*
D17*
X-14340000Y-8430000D03*
X28500000Y39200000D03*
D16*
X24550000Y-5890000D03*
X29130000Y12880000D03*
D18*
X0Y28956000D03*
D17*
X-5880000Y38100000D03*
D18*
X-35204400Y17322800D03*
X-18950000Y8650000D03*
X30350000Y19150000D03*
D17*
X11190000Y36240000D03*
X6223000Y35128200D03*
D18*
X-14427200Y38074600D03*
D17*
X-17010000Y-7540000D03*
X5105400Y38023800D03*
X16865600Y1066800D03*
X15710000Y-4030000D03*
D16*
X-29057600Y-609600D03*
D18*
X-35204400Y7594600D03*
D17*
X-30500000Y-2900000D03*
X13106400Y-4064000D03*
D18*
X-30581600Y19405600D03*
X8610600Y39124000D03*
D16*
X29020000Y11080000D03*
D18*
X1651000Y34544000D03*
D17*
X-30988000Y23749000D03*
D18*
X-31521400Y26695400D03*
D17*
X-620000Y-4180000D03*
X-21850000Y-7650000D03*
D18*
X17500000Y38000000D03*
D17*
X8480000Y36610000D03*
D18*
X27914600Y28295600D03*
D17*
X-9120000Y33150000D03*
X19456400Y10109200D03*
X5943600Y38023800D03*
D16*
X16400000Y31300000D03*
D18*
X-2794000Y30099000D03*
D17*
X-2780000Y31750000D03*
D16*
X11500000Y-22500000D03*
D17*
X25570000Y6620000D03*
D18*
X2794000Y33401000D03*
X1651000Y28956000D03*
D17*
X15840000Y2440000D03*
D16*
X38550000Y-10600000D03*
D18*
X2794000Y30099000D03*
D17*
X-3403600Y38023800D03*
D18*
X-35204400Y27914600D03*
X-29260800Y31750000D03*
X-22098000Y37592000D03*
X-30911800Y6451600D03*
X0Y34544000D03*
D17*
X0Y38023800D03*
D16*
X-29057600Y1727200D03*
D18*
X-27863800Y12065000D03*
X7010400Y23469600D03*
D16*
X36510000Y15520000D03*
D17*
X-13740000Y34130000D03*
X-1701800Y38023800D03*
X-15850000Y-6010000D03*
X21500000Y39000000D03*
X18200000Y31900000D03*
X2565400Y38023800D03*
X19920000Y14770000D03*
X-1020000Y-8200000D03*
D18*
X-1651000Y34544000D03*
D17*
X2387600Y14224000D03*
X-16000000Y35220000D03*
X3010000Y23110000D03*
X-5105400Y38023800D03*
X-1900000Y-4160000D03*
X30300000Y21600000D03*
D18*
X-7010400Y23495000D03*
D17*
X-16800000Y10900000D03*
X4241800Y38023800D03*
D18*
X-38531800Y-3403600D03*
D17*
X6223000Y35991800D03*
D18*
X-1651000Y28956000D03*
D17*
X-23710000Y-2110000D03*
X23012400Y2184400D03*
X590000Y-6540000D03*
X838200Y38023800D03*
X-2565400Y38023800D03*
D18*
X-31775400Y-3175000D03*
D17*
X11658600Y6375400D03*
X-5220000Y-1400000D03*
X13131800Y-457200D03*
X2387600Y11684000D03*
X13131800Y3048000D03*
X2387600Y9144000D03*
X9980000Y23540000D03*
X-20900000Y-6750000D03*
D16*
X0Y-22500000D03*
D17*
X3403600Y38023800D03*
D16*
X28480000Y-5920000D03*
D17*
X25390000Y4210000D03*
X-10350000Y34120000D03*
D18*
X25501600Y37000000D03*
D17*
X18300000Y29300000D03*
D16*
%TO.N,+VCC_USBCPD*%
X-21971000Y-177800D03*
D18*
X-25755600Y-2336800D03*
D19*
%TO.N,ADC_SOA*%
X6500000Y15250000D03*
%TO.N,ADC_SOB*%
X7400000Y15000000D03*
D17*
%TO.N,ADC_SOC*%
X7500000Y13000000D03*
%TO.N,+AVDD*%
X20904200Y11607800D03*
X23596600Y11607800D03*
D18*
%TO.N,ENK_Vgmr*%
X-2921000Y2794000D03*
D17*
%TO.N,+3V3*%
X-8290000Y34270000D03*
D16*
X-9094400Y36474400D03*
D17*
X-3835400Y1905000D03*
X15722600Y33909000D03*
D16*
X36372800Y30200600D03*
D17*
X13081000Y6350000D03*
D18*
%TO.N,ENK_SINN*%
X-12700000Y9906000D03*
X-9906000Y9906000D03*
%TO.N,ENK_SINP*%
X-7874000Y9652000D03*
X-4318000Y9652000D03*
%TO.N,ENK_COSP*%
X-6350000Y11684000D03*
X-4318000Y11684000D03*
D17*
%TO.N,ENK_COSN*%
X-5334000Y13250000D03*
%TO.N,CC1*%
X-32029400Y-3962400D03*
X-34442400Y-3962400D03*
%TO.N,PWM_LC*%
X5816600Y18389600D03*
X15011400Y8763000D03*
%TO.N,PWM_LA*%
X3429000Y21015400D03*
X14986000Y11182200D03*
%TO.N,PWM_HA*%
X15798800Y11782200D03*
X2870200Y21615400D03*
%TO.N,PWM_HC*%
X5080000Y19024600D03*
X14173200Y9363000D03*
%TO.N,PWM_HB*%
X14154821Y10582200D03*
X3814277Y20314283D03*
%TO.N,CTR_nFAULT*%
X20726400Y13665200D03*
X22740535Y13901335D03*
D19*
%TO.N,MCUSCL*%
X4760000Y15890000D03*
D17*
X457200Y21640800D03*
%TO.N,PWM_LB*%
X13436600Y9963000D03*
X4394200Y19634200D03*
D19*
%TO.N,MCURST*%
X5562600Y15900400D03*
D17*
X1701800Y21605800D03*
D19*
%TO.N,MCUSDA*%
X3910000Y15870000D03*
D17*
X-558800Y21605800D03*
D18*
%TO.N,SIN_N*%
X635000Y4191000D03*
%TO.N,COS_P*%
X1905000Y-4572000D03*
%TO.N,COS_N*%
X635000Y-4699000D03*
%TO.N,SIN_P*%
X1778000Y4826000D03*
%TO.N,MCUD+*%
X-14129000Y22117500D03*
X855358Y23275391D03*
%TO.N,MCUD-*%
X-42094Y23343098D03*
X-14129000Y23067500D03*
D17*
%TO.N,D+_Header*%
X-33700000Y23350000D03*
X-33700000Y22150000D03*
%TD*%
%TA.AperFunction,Conductor*%
%TO.N,GND*%
G36*
X39943039Y39699815D02*
G01*
X39988794Y39647011D01*
X40000000Y39595500D01*
X40000000Y19638502D01*
X39980315Y19571463D01*
X39927511Y19525708D01*
X39858353Y19515764D01*
X39832667Y19522320D01*
X39747482Y19554092D01*
X39747483Y19554092D01*
X39687883Y19560499D01*
X39687881Y19560500D01*
X39687873Y19560500D01*
X39687864Y19560500D01*
X37592129Y19560500D01*
X37592123Y19560499D01*
X37532516Y19554092D01*
X37397671Y19503798D01*
X37397664Y19503794D01*
X37282455Y19417548D01*
X37282452Y19417545D01*
X37196206Y19302336D01*
X37196202Y19302329D01*
X37145908Y19167483D01*
X37139501Y19107884D01*
X37139500Y19107865D01*
X37139500Y17012130D01*
X37139501Y17012124D01*
X37145908Y16952517D01*
X37196202Y16817672D01*
X37196206Y16817665D01*
X37282452Y16702456D01*
X37282455Y16702453D01*
X37397664Y16616207D01*
X37405454Y16611953D01*
X37403725Y16608789D01*
X37445915Y16577266D01*
X37470393Y16511825D01*
X37455604Y16443538D01*
X37447036Y16429979D01*
X37357084Y16306171D01*
X37249897Y16095803D01*
X37176934Y15871248D01*
X37140000Y15638053D01*
X37140000Y15401948D01*
X37176934Y15168753D01*
X37249897Y14944198D01*
X37357087Y14733826D01*
X37417338Y14650896D01*
X37417340Y14650895D01*
X38075388Y15308943D01*
X38080890Y15288409D01*
X38159882Y15151592D01*
X38271592Y15039882D01*
X38408409Y14960890D01*
X38428941Y14955389D01*
X37770893Y14297342D01*
X37853828Y14237086D01*
X38064197Y14129898D01*
X38288752Y14056935D01*
X38288751Y14056935D01*
X38521948Y14020000D01*
X38758052Y14020000D01*
X38991247Y14056935D01*
X39215802Y14129898D01*
X39426163Y14237082D01*
X39426169Y14237086D01*
X39509104Y14297342D01*
X39509105Y14297342D01*
X38851058Y14955389D01*
X38871591Y14960890D01*
X39008408Y15039882D01*
X39120118Y15151592D01*
X39199110Y15288409D01*
X39204611Y15308942D01*
X39862657Y14650896D01*
X39866270Y14651180D01*
X39934647Y14636816D01*
X39984405Y14587765D01*
X40000000Y14527562D01*
X40000000Y-7503460D01*
X39980315Y-7570499D01*
X39927511Y-7616254D01*
X39858353Y-7626198D01*
X39794797Y-7597173D01*
X39775682Y-7576346D01*
X39742658Y-7530894D01*
X39742658Y-7530893D01*
X39084611Y-8188940D01*
X39079110Y-8168409D01*
X39000118Y-8031592D01*
X38888408Y-7919882D01*
X38751591Y-7840890D01*
X38731057Y-7835388D01*
X39389105Y-7177340D01*
X39389104Y-7177338D01*
X39306174Y-7117087D01*
X39095802Y-7009897D01*
X38871247Y-6936934D01*
X38871248Y-6936934D01*
X38638052Y-6900000D01*
X38401948Y-6900000D01*
X38168752Y-6936934D01*
X37944197Y-7009897D01*
X37733829Y-7117084D01*
X37610021Y-7207036D01*
X37544214Y-7230515D01*
X37476161Y-7214689D01*
X37428220Y-7165359D01*
X37428047Y-7165454D01*
X37427706Y-7164830D01*
X37427466Y-7164583D01*
X37426987Y-7163513D01*
X37423793Y-7157664D01*
X37337547Y-7042455D01*
X37337544Y-7042452D01*
X37222335Y-6956206D01*
X37222328Y-6956202D01*
X37087482Y-6905908D01*
X37087483Y-6905908D01*
X37027883Y-6899501D01*
X37027881Y-6899500D01*
X37027873Y-6899500D01*
X37027864Y-6899500D01*
X34932129Y-6899500D01*
X34932123Y-6899501D01*
X34872516Y-6905908D01*
X34737671Y-6956202D01*
X34737664Y-6956206D01*
X34622455Y-7042452D01*
X34622452Y-7042455D01*
X34536206Y-7157664D01*
X34536202Y-7157671D01*
X34485908Y-7292517D01*
X34479501Y-7352116D01*
X34479500Y-7352135D01*
X34479500Y-7639058D01*
X34459815Y-7706097D01*
X34407011Y-7751852D01*
X34337853Y-7761796D01*
X34274297Y-7732771D01*
X34245015Y-7695353D01*
X34216331Y-7639058D01*
X34203343Y-7613567D01*
X34064517Y-7422490D01*
X33897510Y-7255483D01*
X33706433Y-7116657D01*
X33495996Y-7009433D01*
X33271368Y-6936446D01*
X33038097Y-6899500D01*
X33038092Y-6899500D01*
X32801908Y-6899500D01*
X32801903Y-6899500D01*
X32568631Y-6936446D01*
X32344003Y-7009433D01*
X32133563Y-7116659D01*
X32009840Y-7206549D01*
X31944034Y-7230029D01*
X31875980Y-7214203D01*
X31828410Y-7165255D01*
X31828047Y-7165454D01*
X31827334Y-7164148D01*
X31827285Y-7164098D01*
X31827187Y-7163880D01*
X31823793Y-7157664D01*
X31737547Y-7042455D01*
X31737544Y-7042452D01*
X31622335Y-6956206D01*
X31622328Y-6956202D01*
X31487482Y-6905908D01*
X31487483Y-6905908D01*
X31427883Y-6899501D01*
X31427881Y-6899500D01*
X31427873Y-6899500D01*
X31427864Y-6899500D01*
X29332129Y-6899500D01*
X29332123Y-6899501D01*
X29272516Y-6905908D01*
X29137671Y-6956202D01*
X29137664Y-6956206D01*
X29022455Y-7042452D01*
X29022452Y-7042455D01*
X28936206Y-7157664D01*
X28936202Y-7157671D01*
X28885908Y-7292517D01*
X28879501Y-7352116D01*
X28879500Y-7352135D01*
X28879500Y-9447870D01*
X28879501Y-9447876D01*
X28885908Y-9507483D01*
X28936202Y-9642328D01*
X28936206Y-9642335D01*
X29022452Y-9757544D01*
X29022455Y-9757547D01*
X29137664Y-9843793D01*
X29137671Y-9843797D01*
X29272517Y-9894091D01*
X29272516Y-9894091D01*
X29279444Y-9894835D01*
X29332127Y-9900500D01*
X31427872Y-9900499D01*
X31487483Y-9894091D01*
X31622331Y-9843796D01*
X31737546Y-9757546D01*
X31823796Y-9642331D01*
X31823797Y-9642326D01*
X31828047Y-9634546D01*
X31831380Y-9636366D01*
X31862292Y-9594766D01*
X31927669Y-9570116D01*
X31995994Y-9584725D01*
X32009835Y-9593446D01*
X32133567Y-9683343D01*
X32232991Y-9734002D01*
X32344003Y-9790566D01*
X32344005Y-9790566D01*
X32344008Y-9790568D01*
X32464412Y-9829689D01*
X32568631Y-9863553D01*
X32801903Y-9900500D01*
X32801908Y-9900500D01*
X33038097Y-9900500D01*
X33271368Y-9863553D01*
X33272870Y-9863065D01*
X33495992Y-9790568D01*
X33706433Y-9683343D01*
X33897510Y-9544517D01*
X34064517Y-9377510D01*
X34203343Y-9186433D01*
X34245016Y-9104644D01*
X34292989Y-9053850D01*
X34360809Y-9037054D01*
X34426945Y-9059591D01*
X34470397Y-9114305D01*
X34479500Y-9160940D01*
X34479500Y-9447870D01*
X34479501Y-9447876D01*
X34485908Y-9507483D01*
X34536202Y-9642328D01*
X34536206Y-9642335D01*
X34622452Y-9757544D01*
X34622455Y-9757547D01*
X34737664Y-9843793D01*
X34737671Y-9843797D01*
X34872517Y-9894091D01*
X34872516Y-9894091D01*
X34879444Y-9894835D01*
X34932127Y-9900500D01*
X37027872Y-9900499D01*
X37087483Y-9894091D01*
X37222331Y-9843796D01*
X37337546Y-9757546D01*
X37423796Y-9642331D01*
X37423797Y-9642326D01*
X37428047Y-9634546D01*
X37431200Y-9636267D01*
X37462814Y-9594025D01*
X37528275Y-9569599D01*
X37596550Y-9584442D01*
X37610023Y-9592964D01*
X37733828Y-9682914D01*
X37944197Y-9790102D01*
X38168752Y-9863065D01*
X38168751Y-9863065D01*
X38401948Y-9900000D01*
X38638052Y-9900000D01*
X38871247Y-9863065D01*
X39095802Y-9790102D01*
X39306163Y-9682918D01*
X39306169Y-9682914D01*
X39389104Y-9622658D01*
X39389105Y-9622658D01*
X38731058Y-8964611D01*
X38751591Y-8959110D01*
X38888408Y-8880118D01*
X39000118Y-8768408D01*
X39079110Y-8631591D01*
X39084611Y-8611058D01*
X39742658Y-9269105D01*
X39742659Y-9269104D01*
X39775682Y-9223653D01*
X39831012Y-9180987D01*
X39900625Y-9175008D01*
X39962420Y-9207614D01*
X39996777Y-9268452D01*
X40000000Y-9296538D01*
X40000000Y-39795500D01*
X39980315Y-39862539D01*
X39927511Y-39908294D01*
X39876000Y-39919500D01*
X-39876000Y-39919500D01*
X-39943039Y-39899815D01*
X-39988794Y-39847011D01*
X-40000000Y-39795500D01*
X-40000000Y-34368209D01*
X-38250500Y-34368209D01*
X-38250500Y-34731790D01*
X-38214863Y-35093630D01*
X-38143936Y-35450212D01*
X-38143933Y-35450223D01*
X-38038386Y-35798165D01*
X-37899246Y-36134078D01*
X-37899244Y-36134083D01*
X-37727860Y-36454720D01*
X-37727849Y-36454738D01*
X-37525860Y-36757035D01*
X-37525850Y-36757049D01*
X-37295193Y-37038106D01*
X-37038107Y-37295192D01*
X-37038102Y-37295196D01*
X-37038101Y-37295197D01*
X-36757044Y-37525854D01*
X-36454732Y-37727853D01*
X-36454723Y-37727858D01*
X-36454721Y-37727859D01*
X-36134084Y-37899243D01*
X-36134082Y-37899243D01*
X-36134076Y-37899247D01*
X-35798164Y-38038386D01*
X-35450233Y-38143930D01*
X-35450227Y-38143931D01*
X-35450224Y-38143932D01*
X-35450213Y-38143935D01*
X-35093631Y-38214862D01*
X-34731794Y-38250500D01*
X-34731791Y-38250500D01*
X-34368209Y-38250500D01*
X-34368206Y-38250500D01*
X-34006369Y-38214862D01*
X-33936955Y-38201054D01*
X-33649788Y-38143935D01*
X-33649777Y-38143932D01*
X-33649777Y-38143931D01*
X-33649767Y-38143930D01*
X-33301836Y-38038386D01*
X-32965924Y-37899247D01*
X-32645268Y-37727853D01*
X-32342956Y-37525854D01*
X-32061899Y-37295197D01*
X-31804803Y-37038101D01*
X-31574146Y-36757044D01*
X-31372147Y-36454732D01*
X-31200753Y-36134076D01*
X-31061614Y-35798164D01*
X-30956070Y-35450233D01*
X-30956068Y-35450223D01*
X-30956065Y-35450212D01*
X-30885138Y-35093630D01*
X-30849500Y-34731790D01*
X-30849500Y-34368209D01*
X30849500Y-34368209D01*
X30849500Y-34731790D01*
X30885137Y-35093630D01*
X30956064Y-35450212D01*
X30956067Y-35450223D01*
X31061614Y-35798165D01*
X31200754Y-36134078D01*
X31200756Y-36134083D01*
X31372140Y-36454720D01*
X31372151Y-36454738D01*
X31574140Y-36757035D01*
X31574150Y-36757049D01*
X31804807Y-37038106D01*
X32061893Y-37295192D01*
X32061898Y-37295196D01*
X32061899Y-37295197D01*
X32342956Y-37525854D01*
X32645268Y-37727853D01*
X32645277Y-37727858D01*
X32645279Y-37727859D01*
X32965916Y-37899243D01*
X32965918Y-37899243D01*
X32965924Y-37899247D01*
X33301836Y-38038386D01*
X33649767Y-38143930D01*
X33649773Y-38143931D01*
X33649776Y-38143932D01*
X33649787Y-38143935D01*
X34006369Y-38214862D01*
X34368206Y-38250500D01*
X34368209Y-38250500D01*
X34731791Y-38250500D01*
X34731794Y-38250500D01*
X35093631Y-38214862D01*
X35163045Y-38201054D01*
X35450212Y-38143935D01*
X35450223Y-38143932D01*
X35450223Y-38143931D01*
X35450233Y-38143930D01*
X35798164Y-38038386D01*
X36134076Y-37899247D01*
X36454732Y-37727853D01*
X36757044Y-37525854D01*
X37038101Y-37295197D01*
X37295197Y-37038101D01*
X37525854Y-36757044D01*
X37727853Y-36454732D01*
X37899247Y-36134076D01*
X38038386Y-35798164D01*
X38143930Y-35450233D01*
X38143932Y-35450223D01*
X38143935Y-35450212D01*
X38214862Y-35093630D01*
X38250500Y-34731790D01*
X38250500Y-34368209D01*
X38214862Y-34006369D01*
X38143935Y-33649787D01*
X38143932Y-33649776D01*
X38143931Y-33649773D01*
X38143930Y-33649767D01*
X38038386Y-33301836D01*
X37899247Y-32965924D01*
X37727853Y-32645268D01*
X37525854Y-32342956D01*
X37295197Y-32061899D01*
X37295196Y-32061898D01*
X37295192Y-32061893D01*
X37038106Y-31804807D01*
X36757049Y-31574150D01*
X36757048Y-31574149D01*
X36757044Y-31574146D01*
X36454732Y-31372147D01*
X36454727Y-31372144D01*
X36454720Y-31372140D01*
X36134083Y-31200756D01*
X36134078Y-31200754D01*
X35798165Y-31061614D01*
X35450223Y-30956067D01*
X35450212Y-30956064D01*
X35093630Y-30885137D01*
X34821111Y-30858296D01*
X34731794Y-30849500D01*
X34368206Y-30849500D01*
X34285679Y-30857628D01*
X34006369Y-30885137D01*
X33649787Y-30956064D01*
X33649776Y-30956067D01*
X33301834Y-31061614D01*
X32965921Y-31200754D01*
X32965916Y-31200756D01*
X32645279Y-31372140D01*
X32645261Y-31372151D01*
X32342964Y-31574140D01*
X32342950Y-31574150D01*
X32061893Y-31804807D01*
X31804807Y-32061893D01*
X31574150Y-32342950D01*
X31574140Y-32342964D01*
X31372151Y-32645261D01*
X31372140Y-32645279D01*
X31200756Y-32965916D01*
X31200754Y-32965921D01*
X31061614Y-33301834D01*
X30956067Y-33649776D01*
X30956064Y-33649787D01*
X30885137Y-34006369D01*
X30849500Y-34368209D01*
X-30849500Y-34368209D01*
X-30885138Y-34006369D01*
X-30956065Y-33649787D01*
X-30956068Y-33649776D01*
X-30956069Y-33649773D01*
X-30956070Y-33649767D01*
X-31061614Y-33301836D01*
X-31200753Y-32965924D01*
X-31372147Y-32645268D01*
X-31574146Y-32342956D01*
X-31804803Y-32061899D01*
X-31804804Y-32061898D01*
X-31804808Y-32061893D01*
X-32061894Y-31804807D01*
X-32342951Y-31574150D01*
X-32342952Y-31574149D01*
X-32342956Y-31574146D01*
X-32645268Y-31372147D01*
X-32645273Y-31372144D01*
X-32645280Y-31372140D01*
X-32965917Y-31200756D01*
X-32965922Y-31200754D01*
X-33301835Y-31061614D01*
X-33649777Y-30956067D01*
X-33649788Y-30956064D01*
X-34006370Y-30885137D01*
X-34278889Y-30858296D01*
X-34368206Y-30849500D01*
X-34731794Y-30849500D01*
X-34814321Y-30857628D01*
X-35093631Y-30885137D01*
X-35450213Y-30956064D01*
X-35450224Y-30956067D01*
X-35798166Y-31061614D01*
X-36134079Y-31200754D01*
X-36134084Y-31200756D01*
X-36454721Y-31372140D01*
X-36454739Y-31372151D01*
X-36757036Y-31574140D01*
X-36757050Y-31574150D01*
X-37038107Y-31804807D01*
X-37295193Y-32061893D01*
X-37525850Y-32342950D01*
X-37525860Y-32342964D01*
X-37727849Y-32645261D01*
X-37727860Y-32645279D01*
X-37899244Y-32965916D01*
X-37899246Y-32965921D01*
X-38038386Y-33301834D01*
X-38143933Y-33649776D01*
X-38143936Y-33649787D01*
X-38214863Y-34006369D01*
X-38250500Y-34368209D01*
X-40000000Y-34368209D01*
X-40000000Y-25031947D01*
X-35690000Y-25031947D01*
X-35690000Y-25268052D01*
X-35653066Y-25501247D01*
X-35580103Y-25725802D01*
X-35472913Y-25936174D01*
X-35412662Y-26019104D01*
X-35412660Y-26019105D01*
X-34791052Y-25397496D01*
X-34766033Y-25457896D01*
X-34694897Y-25564358D01*
X-34604358Y-25654897D01*
X-34497896Y-25726033D01*
X-34437498Y-25751050D01*
X-35059107Y-26372658D01*
X-34976172Y-26432914D01*
X-34765803Y-26540102D01*
X-34541248Y-26613065D01*
X-34541249Y-26613065D01*
X-34308052Y-26650000D01*
X-34071948Y-26650000D01*
X-33838753Y-26613065D01*
X-33614198Y-26540102D01*
X-33403837Y-26432918D01*
X-33403831Y-26432914D01*
X-33320896Y-26372658D01*
X-33320895Y-26372658D01*
X-33942503Y-25751050D01*
X-33882104Y-25726033D01*
X-33775642Y-25654897D01*
X-33685103Y-25564358D01*
X-33613967Y-25457896D01*
X-33588950Y-25397497D01*
X-32967342Y-26019105D01*
X-32967342Y-26019104D01*
X-32907086Y-25936169D01*
X-32907082Y-25936163D01*
X-32799898Y-25725802D01*
X-32726935Y-25501247D01*
X-32690000Y-25268052D01*
X-32690000Y-25031947D01*
X-32726935Y-24798752D01*
X-32799899Y-24574194D01*
X-32811200Y-24552013D01*
X-32811201Y-24552012D01*
X-32837402Y-24500589D01*
X-21699900Y-24500589D01*
X-21699900Y-24673810D01*
X-21680112Y-24798752D01*
X-21672802Y-24844901D01*
X-21619273Y-25009645D01*
X-21540632Y-25163988D01*
X-21438814Y-25304128D01*
X-21316328Y-25426614D01*
X-21176188Y-25528432D01*
X-21021845Y-25607073D01*
X-20857101Y-25660602D01*
X-20686011Y-25687700D01*
X-20686010Y-25687700D01*
X-20512790Y-25687700D01*
X-20512789Y-25687700D01*
X-20341699Y-25660602D01*
X-20176955Y-25607073D01*
X-20022612Y-25528432D01*
X-19882472Y-25426614D01*
X-19759986Y-25304128D01*
X-19658168Y-25163988D01*
X-19579527Y-25009645D01*
X-19525998Y-24844901D01*
X-19498900Y-24673811D01*
X-19498900Y-24500589D01*
X-19525998Y-24329499D01*
X-19579527Y-24164755D01*
X-19658168Y-24010412D01*
X-19759986Y-23870272D01*
X-19882472Y-23747786D01*
X-19917777Y-23722135D01*
X-16520500Y-23722135D01*
X-16520500Y-25817870D01*
X-16520499Y-25817876D01*
X-16514092Y-25877483D01*
X-16463798Y-26012328D01*
X-16463794Y-26012335D01*
X-16377548Y-26127544D01*
X-16377545Y-26127547D01*
X-16262336Y-26213793D01*
X-16262329Y-26213797D01*
X-16127483Y-26264091D01*
X-16127484Y-26264091D01*
X-16120556Y-26264835D01*
X-16067873Y-26270500D01*
X-13972128Y-26270499D01*
X-13912517Y-26264091D01*
X-13777669Y-26213796D01*
X-13662454Y-26127546D01*
X-13576204Y-26012331D01*
X-13576203Y-26012326D01*
X-13571953Y-26004546D01*
X-13568620Y-26006366D01*
X-13537708Y-25964766D01*
X-13472331Y-25940116D01*
X-13404006Y-25954725D01*
X-13390165Y-25963446D01*
X-13266433Y-26053343D01*
X-13167009Y-26104002D01*
X-13055997Y-26160566D01*
X-13055995Y-26160566D01*
X-13055992Y-26160568D01*
X-12953736Y-26193793D01*
X-12831369Y-26233553D01*
X-12598097Y-26270500D01*
X-12598092Y-26270500D01*
X-12361903Y-26270500D01*
X-12128632Y-26233553D01*
X-11904008Y-26160568D01*
X-11693567Y-26053343D01*
X-11502490Y-25914517D01*
X-11335483Y-25747510D01*
X-11244817Y-25622719D01*
X-11189488Y-25580054D01*
X-11119875Y-25574075D01*
X-11058080Y-25606681D01*
X-11023723Y-25667519D01*
X-11020500Y-25695604D01*
X-11020500Y-25797869D01*
X-11020499Y-25797876D01*
X-11014092Y-25857483D01*
X-10963798Y-25992328D01*
X-10963794Y-25992335D01*
X-10877548Y-26107544D01*
X-10877545Y-26107547D01*
X-10762336Y-26193793D01*
X-10762329Y-26193797D01*
X-10627483Y-26244091D01*
X-10627484Y-26244091D01*
X-10620556Y-26244835D01*
X-10567873Y-26250500D01*
X-8472128Y-26250499D01*
X-8412517Y-26244091D01*
X-8277669Y-26193796D01*
X-8162454Y-26107546D01*
X-8076204Y-25992331D01*
X-8076203Y-25992326D01*
X-8071953Y-25984546D01*
X-8068620Y-25986366D01*
X-8037708Y-25944766D01*
X-7972331Y-25920116D01*
X-7904006Y-25934725D01*
X-7890165Y-25943446D01*
X-7766433Y-26033343D01*
X-7667009Y-26084002D01*
X-7555997Y-26140566D01*
X-7555995Y-26140566D01*
X-7555992Y-26140568D01*
X-7435588Y-26179689D01*
X-7331369Y-26213553D01*
X-7098097Y-26250500D01*
X-7098092Y-26250500D01*
X-6861903Y-26250500D01*
X-6628632Y-26213553D01*
X-6627130Y-26213065D01*
X-6404008Y-26140568D01*
X-6193567Y-26033343D01*
X-6002490Y-25894517D01*
X-5835483Y-25727510D01*
X-5744817Y-25602719D01*
X-5689488Y-25560054D01*
X-5619875Y-25554075D01*
X-5558080Y-25586681D01*
X-5523723Y-25647519D01*
X-5520500Y-25675604D01*
X-5520500Y-25797869D01*
X-5520499Y-25797876D01*
X-5514092Y-25857483D01*
X-5463798Y-25992328D01*
X-5463794Y-25992335D01*
X-5377548Y-26107544D01*
X-5377545Y-26107547D01*
X-5262336Y-26193793D01*
X-5262329Y-26193797D01*
X-5127483Y-26244091D01*
X-5127484Y-26244091D01*
X-5120556Y-26244835D01*
X-5067873Y-26250500D01*
X-2972128Y-26250499D01*
X-2912517Y-26244091D01*
X-2777669Y-26193796D01*
X-2662454Y-26107546D01*
X-2576204Y-25992331D01*
X-2576203Y-25992326D01*
X-2571953Y-25984546D01*
X-2568800Y-25986267D01*
X-2537186Y-25944025D01*
X-2471725Y-25919599D01*
X-2403450Y-25934442D01*
X-2389977Y-25942964D01*
X-2266172Y-26032914D01*
X-2055803Y-26140102D01*
X-1831248Y-26213065D01*
X-1831249Y-26213065D01*
X-1598052Y-26250000D01*
X-1361948Y-26250000D01*
X-1128753Y-26213065D01*
X-904198Y-26140102D01*
X-693837Y-26032918D01*
X-693831Y-26032914D01*
X-610896Y-25972658D01*
X-610895Y-25972658D01*
X-1268942Y-25314611D01*
X-1248409Y-25309110D01*
X-1111592Y-25230118D01*
X-999882Y-25118408D01*
X-920890Y-24981591D01*
X-915389Y-24961058D01*
X-257342Y-25619105D01*
X-257342Y-25619104D01*
X-197086Y-25536169D01*
X-197082Y-25536163D01*
X-89898Y-25325802D01*
X-16935Y-25101247D01*
X20000Y-24868052D01*
X20000Y-24631947D01*
X-16935Y-24398752D01*
X-89898Y-24174197D01*
X-197086Y-23963828D01*
X-257342Y-23880894D01*
X-257342Y-23880893D01*
X-915389Y-24538940D01*
X-920890Y-24518409D01*
X-999882Y-24381592D01*
X-1111592Y-24269882D01*
X-1248409Y-24190890D01*
X-1268943Y-24185388D01*
X-785689Y-23702135D01*
X479500Y-23702135D01*
X479500Y-25797870D01*
X479501Y-25797876D01*
X485908Y-25857483D01*
X536202Y-25992328D01*
X536206Y-25992335D01*
X622452Y-26107544D01*
X622455Y-26107547D01*
X737664Y-26193793D01*
X737671Y-26193797D01*
X872517Y-26244091D01*
X872516Y-26244091D01*
X879444Y-26244835D01*
X932127Y-26250500D01*
X3027872Y-26250499D01*
X3087483Y-26244091D01*
X3222331Y-26193796D01*
X3337546Y-26107546D01*
X3423796Y-25992331D01*
X3423797Y-25992326D01*
X3428047Y-25984546D01*
X3431380Y-25986366D01*
X3462292Y-25944766D01*
X3527669Y-25920116D01*
X3595994Y-25934725D01*
X3609835Y-25943446D01*
X3733567Y-26033343D01*
X3832991Y-26084002D01*
X3944003Y-26140566D01*
X3944005Y-26140566D01*
X3944008Y-26140568D01*
X4064412Y-26179689D01*
X4168631Y-26213553D01*
X4401903Y-26250500D01*
X4401908Y-26250500D01*
X4638097Y-26250500D01*
X4871368Y-26213553D01*
X4872870Y-26213065D01*
X5095992Y-26140568D01*
X5306433Y-26033343D01*
X5497510Y-25894517D01*
X5664517Y-25727510D01*
X5803343Y-25536433D01*
X5805010Y-25533160D01*
X5852977Y-25482361D01*
X5920796Y-25465557D01*
X5986934Y-25488087D01*
X6030391Y-25542797D01*
X6039500Y-25589444D01*
X6039500Y-25837870D01*
X6039501Y-25837876D01*
X6045908Y-25897483D01*
X6096202Y-26032328D01*
X6096206Y-26032335D01*
X6182452Y-26147544D01*
X6182455Y-26147547D01*
X6297664Y-26233793D01*
X6297671Y-26233797D01*
X6432517Y-26284091D01*
X6432516Y-26284091D01*
X6439444Y-26284835D01*
X6492127Y-26290500D01*
X8587872Y-26290499D01*
X8647483Y-26284091D01*
X8782331Y-26233796D01*
X8897546Y-26147546D01*
X8983796Y-26032331D01*
X8983797Y-26032326D01*
X8988047Y-26024546D01*
X8991200Y-26026267D01*
X9022814Y-25984025D01*
X9088275Y-25959599D01*
X9156550Y-25974442D01*
X9170023Y-25982964D01*
X9293828Y-26072914D01*
X9504197Y-26180102D01*
X9728752Y-26253065D01*
X9728751Y-26253065D01*
X9961948Y-26290000D01*
X10198052Y-26290000D01*
X10431247Y-26253065D01*
X10655802Y-26180102D01*
X10866163Y-26072918D01*
X10866169Y-26072914D01*
X10949104Y-26012658D01*
X10949105Y-26012658D01*
X10291058Y-25354611D01*
X10311591Y-25349110D01*
X10448408Y-25270118D01*
X10560118Y-25158408D01*
X10639110Y-25021591D01*
X10644611Y-25001058D01*
X11302658Y-25659105D01*
X11302658Y-25659104D01*
X11362914Y-25576169D01*
X11362918Y-25576163D01*
X11470102Y-25365802D01*
X11543065Y-25141247D01*
X11580000Y-24908052D01*
X11580000Y-24671947D01*
X11543065Y-24438752D01*
X11470102Y-24214197D01*
X11362914Y-24003828D01*
X11302658Y-23920894D01*
X11302658Y-23920893D01*
X10644611Y-24578940D01*
X10639110Y-24558409D01*
X10560118Y-24421592D01*
X10448408Y-24309882D01*
X10311591Y-24230890D01*
X10291057Y-24225388D01*
X10949105Y-23567340D01*
X10949104Y-23567338D01*
X10866174Y-23507087D01*
X10655802Y-23399897D01*
X10431247Y-23326934D01*
X10431248Y-23326934D01*
X10198052Y-23290000D01*
X9961948Y-23290000D01*
X9728752Y-23326934D01*
X9504197Y-23399897D01*
X9293829Y-23507084D01*
X9170021Y-23597036D01*
X9104214Y-23620515D01*
X9036161Y-23604689D01*
X8988220Y-23555359D01*
X8988047Y-23555454D01*
X8987706Y-23554830D01*
X8987466Y-23554583D01*
X8986987Y-23553513D01*
X8983793Y-23547664D01*
X8897547Y-23432455D01*
X8897544Y-23432452D01*
X8782335Y-23346206D01*
X8782328Y-23346202D01*
X8647482Y-23295908D01*
X8647483Y-23295908D01*
X8587883Y-23289501D01*
X8587881Y-23289500D01*
X8587873Y-23289500D01*
X8587864Y-23289500D01*
X6492129Y-23289500D01*
X6492123Y-23289501D01*
X6432516Y-23295908D01*
X6297671Y-23346202D01*
X6297664Y-23346206D01*
X6182455Y-23432452D01*
X6182452Y-23432455D01*
X6096206Y-23547664D01*
X6096202Y-23547671D01*
X6045908Y-23682517D01*
X6039501Y-23742116D01*
X6039500Y-23742135D01*
X6039500Y-23910553D01*
X6019815Y-23977592D01*
X5967011Y-24023347D01*
X5897853Y-24033291D01*
X5834297Y-24004266D01*
X5805018Y-23966852D01*
X5803346Y-23963572D01*
X5803344Y-23963569D01*
X5803343Y-23963567D01*
X5664517Y-23772490D01*
X5497510Y-23605483D01*
X5306433Y-23466657D01*
X5239306Y-23432454D01*
X5095996Y-23359433D01*
X4871368Y-23286446D01*
X4638097Y-23249500D01*
X4638092Y-23249500D01*
X4401908Y-23249500D01*
X4401903Y-23249500D01*
X4168631Y-23286446D01*
X3944003Y-23359433D01*
X3733563Y-23466659D01*
X3609840Y-23556549D01*
X3544034Y-23580029D01*
X3475980Y-23564203D01*
X3428410Y-23515255D01*
X3428047Y-23515454D01*
X3427334Y-23514148D01*
X3427285Y-23514098D01*
X3427187Y-23513880D01*
X3423793Y-23507664D01*
X3337547Y-23392455D01*
X3337544Y-23392452D01*
X3222335Y-23306206D01*
X3222328Y-23306202D01*
X3087482Y-23255908D01*
X3087483Y-23255908D01*
X3027883Y-23249501D01*
X3027881Y-23249500D01*
X3027873Y-23249500D01*
X3027864Y-23249500D01*
X932129Y-23249500D01*
X932123Y-23249501D01*
X872516Y-23255908D01*
X737671Y-23306202D01*
X737664Y-23306206D01*
X622455Y-23392452D01*
X622452Y-23392455D01*
X536206Y-23507664D01*
X536202Y-23507671D01*
X485908Y-23642517D01*
X479501Y-23702116D01*
X479500Y-23702135D01*
X-785689Y-23702135D01*
X-694679Y-23611125D01*
X-610895Y-23527340D01*
X-610896Y-23527338D01*
X-693826Y-23467087D01*
X-904198Y-23359897D01*
X-1128753Y-23286934D01*
X-1128752Y-23286934D01*
X-1361948Y-23250000D01*
X-1598052Y-23250000D01*
X-1831248Y-23286934D01*
X-2055803Y-23359897D01*
X-2266171Y-23467084D01*
X-2389979Y-23557036D01*
X-2455786Y-23580515D01*
X-2523839Y-23564689D01*
X-2571780Y-23515359D01*
X-2571953Y-23515454D01*
X-2572294Y-23514830D01*
X-2572534Y-23514583D01*
X-2573013Y-23513513D01*
X-2576207Y-23507664D01*
X-2662453Y-23392455D01*
X-2662456Y-23392452D01*
X-2777665Y-23306206D01*
X-2777672Y-23306202D01*
X-2912518Y-23255908D01*
X-2912517Y-23255908D01*
X-2972117Y-23249501D01*
X-2972119Y-23249500D01*
X-2972127Y-23249500D01*
X-2972136Y-23249500D01*
X-5067871Y-23249500D01*
X-5067877Y-23249501D01*
X-5127484Y-23255908D01*
X-5262329Y-23306202D01*
X-5262336Y-23306206D01*
X-5377545Y-23392452D01*
X-5377548Y-23392455D01*
X-5463794Y-23507664D01*
X-5463798Y-23507671D01*
X-5514092Y-23642517D01*
X-5520499Y-23702116D01*
X-5520500Y-23702135D01*
X-5520500Y-23824393D01*
X-5540185Y-23891432D01*
X-5592989Y-23937187D01*
X-5662147Y-23947131D01*
X-5725703Y-23918106D01*
X-5744818Y-23897279D01*
X-5797773Y-23824393D01*
X-5835483Y-23772490D01*
X-6002490Y-23605483D01*
X-6193567Y-23466657D01*
X-6260694Y-23432454D01*
X-6404004Y-23359433D01*
X-6628632Y-23286446D01*
X-6861903Y-23249500D01*
X-6861908Y-23249500D01*
X-7098092Y-23249500D01*
X-7098097Y-23249500D01*
X-7331369Y-23286446D01*
X-7555997Y-23359433D01*
X-7766437Y-23466659D01*
X-7890160Y-23556549D01*
X-7955966Y-23580029D01*
X-8024020Y-23564203D01*
X-8071590Y-23515255D01*
X-8071953Y-23515454D01*
X-8072666Y-23514148D01*
X-8072715Y-23514098D01*
X-8072813Y-23513880D01*
X-8076207Y-23507664D01*
X-8162453Y-23392455D01*
X-8162456Y-23392452D01*
X-8277665Y-23306206D01*
X-8277672Y-23306202D01*
X-8412518Y-23255908D01*
X-8412517Y-23255908D01*
X-8472117Y-23249501D01*
X-8472119Y-23249500D01*
X-8472127Y-23249500D01*
X-8472136Y-23249500D01*
X-10567871Y-23249500D01*
X-10567877Y-23249501D01*
X-10627484Y-23255908D01*
X-10762329Y-23306202D01*
X-10762336Y-23306206D01*
X-10877545Y-23392452D01*
X-10877548Y-23392455D01*
X-10963794Y-23507664D01*
X-10963798Y-23507671D01*
X-11014092Y-23642517D01*
X-11020499Y-23702116D01*
X-11020500Y-23702135D01*
X-11020500Y-23844393D01*
X-11040185Y-23911432D01*
X-11092989Y-23957187D01*
X-11162147Y-23967131D01*
X-11225703Y-23938106D01*
X-11244818Y-23917279D01*
X-11312304Y-23824393D01*
X-11335483Y-23792490D01*
X-11502490Y-23625483D01*
X-11693567Y-23486657D01*
X-11732819Y-23466657D01*
X-11904004Y-23379433D01*
X-12128632Y-23306446D01*
X-12361903Y-23269500D01*
X-12361908Y-23269500D01*
X-12598092Y-23269500D01*
X-12598097Y-23269500D01*
X-12831369Y-23306446D01*
X-13055997Y-23379433D01*
X-13266437Y-23486659D01*
X-13390160Y-23576549D01*
X-13455966Y-23600029D01*
X-13524020Y-23584203D01*
X-13571590Y-23535255D01*
X-13571953Y-23535454D01*
X-13572666Y-23534148D01*
X-13572715Y-23534098D01*
X-13572813Y-23533880D01*
X-13576207Y-23527664D01*
X-13662453Y-23412455D01*
X-13662456Y-23412452D01*
X-13777665Y-23326206D01*
X-13777672Y-23326202D01*
X-13912518Y-23275908D01*
X-13912517Y-23275908D01*
X-13972117Y-23269501D01*
X-13972119Y-23269500D01*
X-13972127Y-23269500D01*
X-13972136Y-23269500D01*
X-16067871Y-23269500D01*
X-16067877Y-23269501D01*
X-16127484Y-23275908D01*
X-16262329Y-23326202D01*
X-16262336Y-23326206D01*
X-16377545Y-23412452D01*
X-16377548Y-23412455D01*
X-16463794Y-23527664D01*
X-16463798Y-23527671D01*
X-16514092Y-23662517D01*
X-16520499Y-23722116D01*
X-16520500Y-23722135D01*
X-19917777Y-23722135D01*
X-20022612Y-23645968D01*
X-20029385Y-23642517D01*
X-20176953Y-23567328D01*
X-20176954Y-23567327D01*
X-20176955Y-23567327D01*
X-20341699Y-23513798D01*
X-20341701Y-23513797D01*
X-20341702Y-23513797D01*
X-20473129Y-23492981D01*
X-20512789Y-23486700D01*
X-20686011Y-23486700D01*
X-20725672Y-23492981D01*
X-20857098Y-23513797D01*
X-21021848Y-23567328D01*
X-21176189Y-23645968D01*
X-21232573Y-23686934D01*
X-21316328Y-23747786D01*
X-21316330Y-23747788D01*
X-21316331Y-23747788D01*
X-21438812Y-23870269D01*
X-21438812Y-23870270D01*
X-21438814Y-23870272D01*
X-21475592Y-23920893D01*
X-21540632Y-24010411D01*
X-21619272Y-24164752D01*
X-21619273Y-24164754D01*
X-21619273Y-24164755D01*
X-21622341Y-24174197D01*
X-21672803Y-24329502D01*
X-21699900Y-24500589D01*
X-32837402Y-24500589D01*
X-32907086Y-24363828D01*
X-32967342Y-24280894D01*
X-32967342Y-24280893D01*
X-33588950Y-24902501D01*
X-33613967Y-24842104D01*
X-33685103Y-24735642D01*
X-33775642Y-24645103D01*
X-33882104Y-24573967D01*
X-33942503Y-24548949D01*
X-33320895Y-23927340D01*
X-33320896Y-23927338D01*
X-33403826Y-23867087D01*
X-33614198Y-23759897D01*
X-33838753Y-23686934D01*
X-33838752Y-23686934D01*
X-34071948Y-23650000D01*
X-34308052Y-23650000D01*
X-34541248Y-23686934D01*
X-34765803Y-23759897D01*
X-34976170Y-23867084D01*
X-35059106Y-23927340D01*
X-34437497Y-24548949D01*
X-34497896Y-24573967D01*
X-34604358Y-24645103D01*
X-34694897Y-24735642D01*
X-34766033Y-24842104D01*
X-34791051Y-24902503D01*
X-35412660Y-24280894D01*
X-35472916Y-24363830D01*
X-35580103Y-24574197D01*
X-35653066Y-24798752D01*
X-35690000Y-25031947D01*
X-40000000Y-25031947D01*
X-40000000Y-19951902D01*
X-35690500Y-19951902D01*
X-35690500Y-20188097D01*
X-35653554Y-20421368D01*
X-35580567Y-20645996D01*
X-35473343Y-20856433D01*
X-35334517Y-21047510D01*
X-35167510Y-21214517D01*
X-34976433Y-21353343D01*
X-34877009Y-21404002D01*
X-34765997Y-21460566D01*
X-34765995Y-21460566D01*
X-34765992Y-21460568D01*
X-34645588Y-21499689D01*
X-34541369Y-21533553D01*
X-34308097Y-21570500D01*
X-34308092Y-21570500D01*
X-34071903Y-21570500D01*
X-33838632Y-21533553D01*
X-33614008Y-21460568D01*
X-33403567Y-21353343D01*
X-33212490Y-21214517D01*
X-33045483Y-21047510D01*
X-32906657Y-20856433D01*
X-32799432Y-20645992D01*
X-32726447Y-20421368D01*
X-32689500Y-20188097D01*
X-32689500Y-19951902D01*
X-32726447Y-19718631D01*
X-32799434Y-19494003D01*
X-32906658Y-19283566D01*
X-33045483Y-19092490D01*
X-33212490Y-18925483D01*
X-33403567Y-18786657D01*
X-33614004Y-18679433D01*
X-33838632Y-18606446D01*
X-34071903Y-18569500D01*
X-34071908Y-18569500D01*
X-34308092Y-18569500D01*
X-34308097Y-18569500D01*
X-34541369Y-18606446D01*
X-34765997Y-18679433D01*
X-34976434Y-18786657D01*
X-35085450Y-18865862D01*
X-35167510Y-18925483D01*
X-35167512Y-18925485D01*
X-35167513Y-18925485D01*
X-35334515Y-19092487D01*
X-35334515Y-19092488D01*
X-35334517Y-19092490D01*
X-35387098Y-19164862D01*
X-35473343Y-19283566D01*
X-35580567Y-19494003D01*
X-35653554Y-19718631D01*
X-35690500Y-19951902D01*
X-40000000Y-19951902D01*
X-40000000Y-15318209D01*
X-19200500Y-15318209D01*
X-19200500Y-15681790D01*
X-19164863Y-16043630D01*
X-19093936Y-16400212D01*
X-19093933Y-16400223D01*
X-18988386Y-16748165D01*
X-18849246Y-17084078D01*
X-18849244Y-17084083D01*
X-18677860Y-17404720D01*
X-18677849Y-17404738D01*
X-18475860Y-17707035D01*
X-18475850Y-17707049D01*
X-18245193Y-17988106D01*
X-17988107Y-18245192D01*
X-17988102Y-18245196D01*
X-17988101Y-18245197D01*
X-17707044Y-18475854D01*
X-17404732Y-18677853D01*
X-17404723Y-18677858D01*
X-17404721Y-18677859D01*
X-17084084Y-18849243D01*
X-17084082Y-18849243D01*
X-17084076Y-18849247D01*
X-16748164Y-18988386D01*
X-16400233Y-19093930D01*
X-16400227Y-19093931D01*
X-16400224Y-19093932D01*
X-16400213Y-19093935D01*
X-16043631Y-19164862D01*
X-15681794Y-19200500D01*
X-15681791Y-19200500D01*
X-15318209Y-19200500D01*
X-15318206Y-19200500D01*
X-14956369Y-19164862D01*
X-14886955Y-19151054D01*
X-14599788Y-19093935D01*
X-14599777Y-19093932D01*
X-14599777Y-19093931D01*
X-14599767Y-19093930D01*
X-14251836Y-18988386D01*
X-13915924Y-18849247D01*
X-13595268Y-18677853D01*
X-13292956Y-18475854D01*
X-13011899Y-18245197D01*
X-12754803Y-17988101D01*
X-12524146Y-17707044D01*
X-12322147Y-17404732D01*
X-12150753Y-17084076D01*
X-12011614Y-16748164D01*
X-11906070Y-16400233D01*
X-11906068Y-16400223D01*
X-11906065Y-16400212D01*
X-11835138Y-16043630D01*
X-11799500Y-15681790D01*
X-11799500Y-15318209D01*
X11799500Y-15318209D01*
X11799500Y-15681790D01*
X11835137Y-16043630D01*
X11906064Y-16400212D01*
X11906067Y-16400223D01*
X12011614Y-16748165D01*
X12150754Y-17084078D01*
X12150756Y-17084083D01*
X12322140Y-17404720D01*
X12322151Y-17404738D01*
X12524140Y-17707035D01*
X12524150Y-17707049D01*
X12754807Y-17988106D01*
X13011893Y-18245192D01*
X13011898Y-18245196D01*
X13011899Y-18245197D01*
X13292956Y-18475854D01*
X13595268Y-18677853D01*
X13595277Y-18677858D01*
X13595279Y-18677859D01*
X13915916Y-18849243D01*
X13915918Y-18849243D01*
X13915924Y-18849247D01*
X14251836Y-18988386D01*
X14599767Y-19093930D01*
X14599773Y-19093931D01*
X14599776Y-19093932D01*
X14599787Y-19093935D01*
X14956369Y-19164862D01*
X15318206Y-19200500D01*
X15318209Y-19200500D01*
X15681791Y-19200500D01*
X15681794Y-19200500D01*
X16043631Y-19164862D01*
X16113045Y-19151054D01*
X16400212Y-19093935D01*
X16400223Y-19093932D01*
X16400223Y-19093931D01*
X16400233Y-19093930D01*
X16748164Y-18988386D01*
X17084076Y-18849247D01*
X17404732Y-18677853D01*
X17707044Y-18475854D01*
X17988101Y-18245197D01*
X18245197Y-17988101D01*
X18475854Y-17707044D01*
X18677853Y-17404732D01*
X18849247Y-17084076D01*
X18988386Y-16748164D01*
X19093930Y-16400233D01*
X19093932Y-16400223D01*
X19093935Y-16400212D01*
X19164862Y-16043630D01*
X19200500Y-15681790D01*
X19200500Y-15318209D01*
X19178373Y-15093553D01*
X19164862Y-14956369D01*
X19156304Y-14913343D01*
X19093935Y-14599787D01*
X19093932Y-14599776D01*
X19093931Y-14599773D01*
X19093930Y-14599767D01*
X18988386Y-14251836D01*
X18849247Y-13915924D01*
X18677853Y-13595268D01*
X18475854Y-13292956D01*
X18245197Y-13011899D01*
X18245196Y-13011898D01*
X18245192Y-13011893D01*
X17988106Y-12754807D01*
X17707049Y-12524150D01*
X17707048Y-12524149D01*
X17707044Y-12524146D01*
X17404732Y-12322147D01*
X17404727Y-12322144D01*
X17404720Y-12322140D01*
X17084083Y-12150756D01*
X17084078Y-12150754D01*
X17072381Y-12145909D01*
X16985690Y-12110000D01*
X16748165Y-12011614D01*
X16400223Y-11906067D01*
X16400212Y-11906064D01*
X16043630Y-11835137D01*
X15771111Y-11808296D01*
X15681794Y-11799500D01*
X15318206Y-11799500D01*
X15235679Y-11807628D01*
X14956369Y-11835137D01*
X14599787Y-11906064D01*
X14599776Y-11906067D01*
X14251834Y-12011614D01*
X13915921Y-12150754D01*
X13915916Y-12150756D01*
X13595279Y-12322140D01*
X13595261Y-12322151D01*
X13292964Y-12524140D01*
X13292950Y-12524150D01*
X13011893Y-12754807D01*
X12754807Y-13011893D01*
X12524150Y-13292950D01*
X12524140Y-13292964D01*
X12322151Y-13595261D01*
X12322140Y-13595279D01*
X12150756Y-13915916D01*
X12150754Y-13915921D01*
X12011614Y-14251834D01*
X11906067Y-14599776D01*
X11906064Y-14599787D01*
X11835137Y-14956369D01*
X11799500Y-15318209D01*
X-11799500Y-15318209D01*
X-11821627Y-15093553D01*
X-11835138Y-14956369D01*
X-11843696Y-14913343D01*
X-11906065Y-14599787D01*
X-11906068Y-14599776D01*
X-11906069Y-14599773D01*
X-11906070Y-14599767D01*
X-12011614Y-14251836D01*
X-12150753Y-13915924D01*
X-12322147Y-13595268D01*
X-12371169Y-13521902D01*
X-4880500Y-13521902D01*
X-4880500Y-13758097D01*
X-4843554Y-13991368D01*
X-4770567Y-14215996D01*
X-4668438Y-14416433D01*
X-4663343Y-14426433D01*
X-4524517Y-14617510D01*
X-4357510Y-14784517D01*
X-4166433Y-14923343D01*
X-4067009Y-14974002D01*
X-3955997Y-15030566D01*
X-3955995Y-15030566D01*
X-3955992Y-15030568D01*
X-3835588Y-15069689D01*
X-3731369Y-15103553D01*
X-3498097Y-15140500D01*
X-3498092Y-15140500D01*
X-3261903Y-15140500D01*
X-3028632Y-15103553D01*
X-2804008Y-15030568D01*
X-2593567Y-14923343D01*
X-2469839Y-14833448D01*
X-2404036Y-14809970D01*
X-2335982Y-14825795D01*
X-2288411Y-14874744D01*
X-2288047Y-14874546D01*
X-2287335Y-14875851D01*
X-2287287Y-14875900D01*
X-2287193Y-14876111D01*
X-2283794Y-14882335D01*
X-2197548Y-14997544D01*
X-2197545Y-14997547D01*
X-2082336Y-15083793D01*
X-2082329Y-15083797D01*
X-1947483Y-15134091D01*
X-1947484Y-15134091D01*
X-1940556Y-15134835D01*
X-1887873Y-15140500D01*
X207872Y-15140499D01*
X267483Y-15134091D01*
X402331Y-15083796D01*
X517546Y-14997546D01*
X603796Y-14882331D01*
X654091Y-14747483D01*
X657583Y-14715002D01*
X684318Y-14650456D01*
X741709Y-14610607D01*
X811534Y-14608111D01*
X868552Y-14640579D01*
X1002490Y-14774517D01*
X1193567Y-14913343D01*
X1278010Y-14956369D01*
X1404003Y-15020566D01*
X1404005Y-15020566D01*
X1404008Y-15020568D01*
X1524412Y-15059689D01*
X1628631Y-15093553D01*
X1861903Y-15130500D01*
X1861908Y-15130500D01*
X2098097Y-15130500D01*
X2331368Y-15093553D01*
X2555992Y-15020568D01*
X2766433Y-14913343D01*
X2890161Y-14823448D01*
X2955964Y-14799970D01*
X3024018Y-14815795D01*
X3071589Y-14864744D01*
X3071953Y-14864546D01*
X3072665Y-14865851D01*
X3072713Y-14865900D01*
X3072807Y-14866111D01*
X3076206Y-14872335D01*
X3162452Y-14987544D01*
X3162455Y-14987547D01*
X3277664Y-15073793D01*
X3277671Y-15073797D01*
X3412517Y-15124091D01*
X3412516Y-15124091D01*
X3419444Y-15124835D01*
X3472127Y-15130500D01*
X5567872Y-15130499D01*
X5627483Y-15124091D01*
X5762331Y-15073796D01*
X5877546Y-14987546D01*
X5963796Y-14872331D01*
X6014091Y-14737483D01*
X6014670Y-14732097D01*
X6041403Y-14667547D01*
X6098793Y-14627696D01*
X6168618Y-14625198D01*
X6225640Y-14657667D01*
X6352490Y-14784517D01*
X6543567Y-14923343D01*
X6642991Y-14974002D01*
X6754003Y-15030566D01*
X6754005Y-15030566D01*
X6754008Y-15030568D01*
X6874412Y-15069689D01*
X6978631Y-15103553D01*
X7211903Y-15140500D01*
X7211908Y-15140500D01*
X7448097Y-15140500D01*
X7681368Y-15103553D01*
X7905992Y-15030568D01*
X8116433Y-14923343D01*
X8240161Y-14833448D01*
X8305964Y-14809970D01*
X8374018Y-14825795D01*
X8421589Y-14874744D01*
X8421953Y-14874546D01*
X8422665Y-14875851D01*
X8422713Y-14875900D01*
X8422807Y-14876111D01*
X8426206Y-14882335D01*
X8512452Y-14997544D01*
X8512455Y-14997547D01*
X8627664Y-15083793D01*
X8627671Y-15083797D01*
X8762517Y-15134091D01*
X8762516Y-15134091D01*
X8769444Y-15134835D01*
X8822127Y-15140500D01*
X10917872Y-15140499D01*
X10977483Y-15134091D01*
X11112331Y-15083796D01*
X11227546Y-14997546D01*
X11313796Y-14882331D01*
X11364091Y-14747483D01*
X11370500Y-14687873D01*
X11370499Y-12592128D01*
X11364091Y-12532517D01*
X11360970Y-12524150D01*
X11313797Y-12397671D01*
X11313793Y-12397664D01*
X11227547Y-12282455D01*
X11227544Y-12282452D01*
X11112335Y-12196206D01*
X11112328Y-12196202D01*
X10977482Y-12145908D01*
X10977483Y-12145908D01*
X10917883Y-12139501D01*
X10917881Y-12139500D01*
X10917873Y-12139500D01*
X10917864Y-12139500D01*
X8822129Y-12139500D01*
X8822123Y-12139501D01*
X8762516Y-12145908D01*
X8627671Y-12196202D01*
X8627664Y-12196206D01*
X8512455Y-12282452D01*
X8512452Y-12282455D01*
X8426206Y-12397664D01*
X8421953Y-12405454D01*
X8418707Y-12403682D01*
X8387125Y-12445669D01*
X8321605Y-12469935D01*
X8253366Y-12454926D01*
X8240158Y-12446549D01*
X8226394Y-12436549D01*
X8116433Y-12356657D01*
X8096807Y-12346657D01*
X7905996Y-12249433D01*
X7681368Y-12176446D01*
X7448097Y-12139500D01*
X7448092Y-12139500D01*
X7211908Y-12139500D01*
X7211903Y-12139500D01*
X6978631Y-12176446D01*
X6754003Y-12249433D01*
X6543566Y-12356657D01*
X6352491Y-12495482D01*
X6227582Y-12620391D01*
X6166259Y-12653875D01*
X6096567Y-12648891D01*
X6040634Y-12607019D01*
X6016611Y-12545961D01*
X6014091Y-12522516D01*
X5963797Y-12387671D01*
X5963793Y-12387664D01*
X5877547Y-12272455D01*
X5877544Y-12272452D01*
X5762335Y-12186206D01*
X5762328Y-12186202D01*
X5627482Y-12135908D01*
X5627483Y-12135908D01*
X5567883Y-12129501D01*
X5567881Y-12129500D01*
X5567873Y-12129500D01*
X5567864Y-12129500D01*
X3472129Y-12129500D01*
X3472123Y-12129501D01*
X3412516Y-12135908D01*
X3277671Y-12186202D01*
X3277664Y-12186206D01*
X3162455Y-12272452D01*
X3162452Y-12272455D01*
X3076206Y-12387664D01*
X3071953Y-12395454D01*
X3068707Y-12393682D01*
X3037125Y-12435669D01*
X2971605Y-12459935D01*
X2903366Y-12444926D01*
X2890158Y-12436549D01*
X2836647Y-12397671D01*
X2766433Y-12346657D01*
X2555996Y-12239433D01*
X2331368Y-12166446D01*
X2098097Y-12129500D01*
X2098092Y-12129500D01*
X1861908Y-12129500D01*
X1861903Y-12129500D01*
X1628631Y-12166446D01*
X1404003Y-12239433D01*
X1193566Y-12346657D01*
X1002491Y-12485482D01*
X866611Y-12621362D01*
X805288Y-12654846D01*
X735596Y-12649862D01*
X679663Y-12607990D01*
X655640Y-12546929D01*
X654091Y-12532517D01*
X603797Y-12397671D01*
X603793Y-12397664D01*
X517547Y-12282455D01*
X517544Y-12282452D01*
X402335Y-12196206D01*
X402328Y-12196202D01*
X267482Y-12145908D01*
X267483Y-12145908D01*
X207883Y-12139501D01*
X207881Y-12139500D01*
X207873Y-12139500D01*
X207864Y-12139500D01*
X-1887871Y-12139500D01*
X-1887877Y-12139501D01*
X-1947484Y-12145908D01*
X-2082329Y-12196202D01*
X-2082336Y-12196206D01*
X-2197545Y-12282452D01*
X-2197548Y-12282455D01*
X-2283794Y-12397664D01*
X-2288047Y-12405454D01*
X-2291293Y-12403682D01*
X-2322875Y-12445669D01*
X-2388395Y-12469935D01*
X-2456634Y-12454926D01*
X-2469842Y-12446549D01*
X-2483606Y-12436549D01*
X-2593567Y-12356657D01*
X-2613193Y-12346657D01*
X-2804004Y-12249433D01*
X-3028632Y-12176446D01*
X-3261903Y-12139500D01*
X-3261908Y-12139500D01*
X-3498092Y-12139500D01*
X-3498097Y-12139500D01*
X-3731369Y-12176446D01*
X-3955997Y-12249433D01*
X-4166434Y-12356657D01*
X-4233596Y-12405454D01*
X-4357510Y-12495483D01*
X-4357512Y-12495485D01*
X-4357513Y-12495485D01*
X-4524515Y-12662487D01*
X-4524515Y-12662488D01*
X-4524517Y-12662490D01*
X-4584138Y-12744550D01*
X-4663343Y-12853566D01*
X-4770567Y-13064003D01*
X-4843554Y-13288631D01*
X-4880500Y-13521902D01*
X-12371169Y-13521902D01*
X-12524146Y-13292956D01*
X-12754803Y-13011899D01*
X-12754804Y-13011898D01*
X-12754808Y-13011893D01*
X-13011894Y-12754807D01*
X-13292951Y-12524150D01*
X-13292952Y-12524149D01*
X-13292956Y-12524146D01*
X-13595268Y-12322147D01*
X-13595273Y-12322144D01*
X-13595280Y-12322140D01*
X-13915917Y-12150756D01*
X-13915922Y-12150754D01*
X-13927619Y-12145909D01*
X-14014310Y-12110000D01*
X-14251835Y-12011614D01*
X-14599777Y-11906067D01*
X-14599788Y-11906064D01*
X-14956370Y-11835137D01*
X-15228889Y-11808296D01*
X-15318206Y-11799500D01*
X-15681794Y-11799500D01*
X-15764321Y-11807628D01*
X-16043631Y-11835137D01*
X-16400213Y-11906064D01*
X-16400224Y-11906067D01*
X-16748166Y-12011614D01*
X-17084079Y-12150754D01*
X-17084084Y-12150756D01*
X-17404721Y-12322140D01*
X-17404739Y-12322151D01*
X-17707036Y-12524140D01*
X-17707050Y-12524150D01*
X-17988107Y-12754807D01*
X-18245193Y-13011893D01*
X-18475850Y-13292950D01*
X-18475860Y-13292964D01*
X-18677849Y-13595261D01*
X-18677860Y-13595279D01*
X-18849244Y-13915916D01*
X-18849246Y-13915921D01*
X-18988386Y-14251834D01*
X-19093933Y-14599776D01*
X-19093936Y-14599787D01*
X-19164863Y-14956369D01*
X-19200500Y-15318209D01*
X-40000000Y-15318209D01*
X-40000000Y-3883553D01*
X-35242900Y-3883553D01*
X-35242900Y-4041246D01*
X-35212139Y-4195889D01*
X-35212136Y-4195901D01*
X-35151798Y-4341572D01*
X-35151791Y-4341585D01*
X-35064190Y-4472688D01*
X-35064187Y-4472692D01*
X-34952693Y-4584186D01*
X-34952689Y-4584189D01*
X-34821586Y-4671790D01*
X-34821573Y-4671797D01*
X-34675902Y-4732135D01*
X-34675897Y-4732137D01*
X-34521247Y-4762899D01*
X-34521244Y-4762900D01*
X-34521242Y-4762900D01*
X-34363556Y-4762900D01*
X-34363555Y-4762899D01*
X-34208903Y-4732137D01*
X-34063221Y-4671794D01*
X-33932111Y-4584189D01*
X-33820611Y-4472689D01*
X-33733006Y-4341579D01*
X-33725693Y-4323925D01*
X-33672665Y-4195901D01*
X-33672663Y-4195897D01*
X-33641900Y-4041242D01*
X-33641900Y-3883558D01*
X-33641900Y-3883555D01*
X-33641901Y-3883553D01*
X-33654882Y-3818295D01*
X-33672663Y-3728903D01*
X-33675729Y-3721500D01*
X-33733003Y-3583227D01*
X-33733010Y-3583214D01*
X-33799635Y-3483503D01*
X-33820513Y-3416825D01*
X-33802029Y-3349445D01*
X-33750050Y-3302755D01*
X-33681080Y-3291579D01*
X-33677134Y-3292139D01*
X-33574470Y-3308400D01*
X-33337900Y-3308400D01*
X-33337900Y-2608399D01*
X-32837900Y-2608399D01*
X-32837900Y-3308400D01*
X-32787153Y-3308400D01*
X-32720114Y-3328085D01*
X-32674359Y-3380889D01*
X-32664415Y-3450047D01*
X-32684051Y-3501291D01*
X-32738791Y-3583214D01*
X-32738798Y-3583227D01*
X-32799136Y-3728898D01*
X-32799139Y-3728910D01*
X-32829900Y-3883553D01*
X-32829900Y-4041246D01*
X-32799139Y-4195889D01*
X-32799136Y-4195901D01*
X-32738798Y-4341572D01*
X-32738791Y-4341585D01*
X-32651190Y-4472688D01*
X-32651187Y-4472692D01*
X-32539693Y-4584186D01*
X-32539689Y-4584189D01*
X-32408586Y-4671790D01*
X-32408573Y-4671797D01*
X-32262902Y-4732135D01*
X-32262897Y-4732137D01*
X-32108247Y-4762899D01*
X-32108244Y-4762900D01*
X-32108242Y-4762900D01*
X-31950556Y-4762900D01*
X-31950555Y-4762899D01*
X-31795903Y-4732137D01*
X-31650221Y-4671794D01*
X-31565564Y-4615228D01*
X-215500Y-4615228D01*
X-215500Y-4782771D01*
X-182818Y-4947074D01*
X-182816Y-4947082D01*
X-118705Y-5101860D01*
X-25627Y-5241162D01*
X92837Y-5359626D01*
X185494Y-5421537D01*
X232137Y-5452703D01*
X386918Y-5516816D01*
X551228Y-5549499D01*
X551232Y-5549500D01*
X551233Y-5549500D01*
X718768Y-5549500D01*
X718769Y-5549499D01*
X883082Y-5516816D01*
X1037863Y-5452703D01*
X1177162Y-5359626D01*
X1255707Y-5281080D01*
X1317028Y-5247597D01*
X1386720Y-5252581D01*
X1412278Y-5265661D01*
X1502137Y-5325703D01*
X1656918Y-5389816D01*
X1821228Y-5422499D01*
X1821232Y-5422500D01*
X1821233Y-5422500D01*
X1988768Y-5422500D01*
X1988769Y-5422499D01*
X2153082Y-5389816D01*
X2307863Y-5325703D01*
X2447162Y-5232626D01*
X2565626Y-5114162D01*
X2658703Y-4974863D01*
X2722816Y-4820082D01*
X2755500Y-4655767D01*
X2755500Y-4488233D01*
X2722816Y-4323918D01*
X2669789Y-4195901D01*
X2658704Y-4169139D01*
X2565626Y-4029837D01*
X2447162Y-3911373D01*
X2307860Y-3818295D01*
X2153082Y-3754184D01*
X2153074Y-3754182D01*
X1988771Y-3721500D01*
X1988767Y-3721500D01*
X1821233Y-3721500D01*
X1821228Y-3721500D01*
X1656925Y-3754182D01*
X1656917Y-3754184D01*
X1502139Y-3818295D01*
X1362838Y-3911373D01*
X1284293Y-3989918D01*
X1222969Y-4023402D01*
X1153278Y-4018418D01*
X1127722Y-4005338D01*
X1037865Y-3945298D01*
X1037861Y-3945296D01*
X883082Y-3881184D01*
X883074Y-3881182D01*
X718771Y-3848500D01*
X718767Y-3848500D01*
X551233Y-3848500D01*
X551228Y-3848500D01*
X386925Y-3881182D01*
X386917Y-3881184D01*
X232139Y-3945295D01*
X92837Y-4038373D01*
X-25627Y-4156837D01*
X-118705Y-4296139D01*
X-182816Y-4450917D01*
X-182818Y-4450925D01*
X-215500Y-4615228D01*
X-31565564Y-4615228D01*
X-31519111Y-4584189D01*
X-31519108Y-4584186D01*
X-31456381Y-4521460D01*
X-31407614Y-4472692D01*
X-31407611Y-4472689D01*
X-31320006Y-4341579D01*
X-31312693Y-4323925D01*
X-31259665Y-4195901D01*
X-31259663Y-4195897D01*
X-31228900Y-4041242D01*
X-31228900Y-3883558D01*
X-31228900Y-3883555D01*
X-31228901Y-3883553D01*
X-31241882Y-3818295D01*
X-31259663Y-3728903D01*
X-31262729Y-3721500D01*
X-31320003Y-3583227D01*
X-31320010Y-3583214D01*
X-31407611Y-3452111D01*
X-31407614Y-3452107D01*
X-31519108Y-3340613D01*
X-31519112Y-3340610D01*
X-31650215Y-3253009D01*
X-31650228Y-3253002D01*
X-31795899Y-3192664D01*
X-31795908Y-3192661D01*
X-31835805Y-3184725D01*
X-31897716Y-3152339D01*
X-31932289Y-3091622D01*
X-31928548Y-3021853D01*
X-31899292Y-2975426D01*
X-31848867Y-2925001D01*
X-31747096Y-2784924D01*
X-31668492Y-2630655D01*
X-31614986Y-2465984D01*
X-31613785Y-2458400D01*
X-32372229Y-2458400D01*
X-32367834Y-2454005D01*
X-32315173Y-2362794D01*
X-32287914Y-2261061D01*
X-32287914Y-2253028D01*
X-26606100Y-2253028D01*
X-26606100Y-2420571D01*
X-26573418Y-2584874D01*
X-26573416Y-2584882D01*
X-26509305Y-2739660D01*
X-26416227Y-2878962D01*
X-26297763Y-2997426D01*
X-26261205Y-3021853D01*
X-26158463Y-3090503D01*
X-26003682Y-3154616D01*
X-25839372Y-3187299D01*
X-25839368Y-3187300D01*
X-25839367Y-3187300D01*
X-25671832Y-3187300D01*
X-25671831Y-3187299D01*
X-25507518Y-3154616D01*
X-25352737Y-3090503D01*
X-25213438Y-2997426D01*
X-25094974Y-2878962D01*
X-25001897Y-2739663D01*
X-24937784Y-2584882D01*
X-24905100Y-2420567D01*
X-24905100Y-2253033D01*
X-24937784Y-2088718D01*
X-24987373Y-1969001D01*
X-25001896Y-1933939D01*
X-25094974Y-1794637D01*
X-25213438Y-1676173D01*
X-25352740Y-1583095D01*
X-25507518Y-1518984D01*
X-25507526Y-1518982D01*
X-25671829Y-1486300D01*
X-25671833Y-1486300D01*
X-25839367Y-1486300D01*
X-25839372Y-1486300D01*
X-26003675Y-1518982D01*
X-26003683Y-1518984D01*
X-26158461Y-1583095D01*
X-26297763Y-1676173D01*
X-26416227Y-1794637D01*
X-26509305Y-1933939D01*
X-26573416Y-2088717D01*
X-26573418Y-2088725D01*
X-26606100Y-2253028D01*
X-32287914Y-2253028D01*
X-32287914Y-2155739D01*
X-32315173Y-2054006D01*
X-32367834Y-1962795D01*
X-32372229Y-1958400D01*
X-31613785Y-1958400D01*
X-31613785Y-1958399D01*
X-31614986Y-1950815D01*
X-31668492Y-1786144D01*
X-31747096Y-1631875D01*
X-31848868Y-1491797D01*
X-31971298Y-1369367D01*
X-32111376Y-1267595D01*
X-32265643Y-1188991D01*
X-32430316Y-1135485D01*
X-32601329Y-1108400D01*
X-32837900Y-1108400D01*
X-32837900Y-1808401D01*
X-33337900Y-1808401D01*
X-33337900Y-1181510D01*
X-33331113Y-1158396D01*
X-33328616Y-1134432D01*
X-33320495Y-1122235D01*
X-33318215Y-1114471D01*
X-33310706Y-1104020D01*
X-33306430Y-1098677D01*
X-33247415Y-1039663D01*
X-33191397Y-942637D01*
X-33162400Y-834418D01*
X-33162400Y-722382D01*
X-33191397Y-614163D01*
X-33247415Y-517137D01*
X-33326637Y-437915D01*
X-33423663Y-381897D01*
X-33531882Y-352900D01*
X-33643918Y-352900D01*
X-33752137Y-381897D01*
X-33752140Y-381898D01*
X-33849160Y-437913D01*
X-33849166Y-437917D01*
X-33928383Y-517134D01*
X-33928387Y-517140D01*
X-33984402Y-614160D01*
X-33984403Y-614163D01*
X-34013400Y-722382D01*
X-34013400Y-834418D01*
X-33995199Y-902343D01*
X-33984403Y-942636D01*
X-33984402Y-942639D01*
X-33924321Y-1046702D01*
X-33926742Y-1048099D01*
X-33906453Y-1100583D01*
X-33920492Y-1169027D01*
X-33969307Y-1219016D01*
X-33973728Y-1221382D01*
X-34064420Y-1267592D01*
X-34204503Y-1369367D01*
X-34326933Y-1491797D01*
X-34428705Y-1631875D01*
X-34507309Y-1786144D01*
X-34560815Y-1950815D01*
X-34562016Y-1958399D01*
X-34562015Y-1958400D01*
X-33803571Y-1958400D01*
X-33807966Y-1962795D01*
X-33860627Y-2054006D01*
X-33887886Y-2155739D01*
X-33887886Y-2261061D01*
X-33860627Y-2362794D01*
X-33807966Y-2454005D01*
X-33803571Y-2458400D01*
X-34562015Y-2458400D01*
X-34560815Y-2465984D01*
X-34507309Y-2630655D01*
X-34428705Y-2784924D01*
X-34326933Y-2925002D01*
X-34301716Y-2950219D01*
X-34268231Y-3011542D01*
X-34273215Y-3081234D01*
X-34315087Y-3137167D01*
X-34380551Y-3161584D01*
X-34389397Y-3161900D01*
X-34521245Y-3161900D01*
X-34675890Y-3192661D01*
X-34675902Y-3192664D01*
X-34821573Y-3253002D01*
X-34821586Y-3253009D01*
X-34952689Y-3340610D01*
X-34952693Y-3340613D01*
X-35064187Y-3452107D01*
X-35064190Y-3452111D01*
X-35151791Y-3583214D01*
X-35151798Y-3583227D01*
X-35212136Y-3728898D01*
X-35212139Y-3728910D01*
X-35242900Y-3883553D01*
X-40000000Y-3883553D01*
X-40000000Y-1958399D01*
X-38642016Y-1958399D01*
X-38642015Y-1958400D01*
X-37883584Y-1958400D01*
X-37887979Y-1962795D01*
X-37940640Y-2054006D01*
X-37967899Y-2155739D01*
X-37967899Y-2261061D01*
X-37940640Y-2362794D01*
X-37887979Y-2454005D01*
X-37883584Y-2458400D01*
X-38642015Y-2458400D01*
X-38640815Y-2465984D01*
X-38587309Y-2630655D01*
X-38508705Y-2784924D01*
X-38406933Y-2925002D01*
X-38284503Y-3047432D01*
X-38144425Y-3149204D01*
X-37990158Y-3227808D01*
X-37825485Y-3281314D01*
X-37654471Y-3308400D01*
X-37517900Y-3308400D01*
X-37517900Y-2608399D01*
X-37017900Y-2608399D01*
X-37017900Y-3308400D01*
X-36881329Y-3308400D01*
X-36710316Y-3281314D01*
X-36545643Y-3227808D01*
X-36391376Y-3149204D01*
X-36251298Y-3047432D01*
X-36128868Y-2925002D01*
X-36027096Y-2784924D01*
X-35948492Y-2630655D01*
X-35894986Y-2465984D01*
X-35893785Y-2458400D01*
X-36652216Y-2458400D01*
X-36647821Y-2454005D01*
X-36595160Y-2362794D01*
X-36567901Y-2261061D01*
X-36567901Y-2155739D01*
X-36595160Y-2054006D01*
X-36647821Y-1962795D01*
X-36652216Y-1958400D01*
X-35893785Y-1958400D01*
X-35893785Y-1958399D01*
X-35894986Y-1950815D01*
X-35948492Y-1786144D01*
X-36027096Y-1631875D01*
X-36128868Y-1491797D01*
X-36251298Y-1369367D01*
X-36391376Y-1267595D01*
X-36545643Y-1188991D01*
X-36710316Y-1135485D01*
X-36881329Y-1108400D01*
X-37017900Y-1108400D01*
X-37017900Y-1808401D01*
X-37517900Y-1808401D01*
X-37517900Y-1108400D01*
X-37654471Y-1108400D01*
X-37825485Y-1135485D01*
X-37990158Y-1188991D01*
X-38144425Y-1267595D01*
X-38284503Y-1369367D01*
X-38406933Y-1491797D01*
X-38508705Y-1631875D01*
X-38587309Y-1786144D01*
X-38640815Y-1950815D01*
X-38642016Y-1958399D01*
X-40000000Y-1958399D01*
X-40000000Y-91189D01*
X-23071500Y-91189D01*
X-23071500Y-264410D01*
X-23049165Y-405433D01*
X-23044402Y-435501D01*
X-22992087Y-596510D01*
X-22990872Y-600247D01*
X-22941977Y-696210D01*
X-22912232Y-754588D01*
X-22810414Y-894728D01*
X-22687928Y-1017214D01*
X-22547788Y-1119032D01*
X-22393445Y-1197673D01*
X-22228701Y-1251202D01*
X-22057611Y-1278300D01*
X-22057610Y-1278300D01*
X-21884390Y-1278300D01*
X-21884389Y-1278300D01*
X-21713299Y-1251202D01*
X-21660939Y-1234189D01*
X-13063900Y-1234189D01*
X-13063900Y-1407410D01*
X-13041185Y-1550832D01*
X-13036802Y-1578501D01*
X-12983273Y-1743245D01*
X-12904632Y-1897588D01*
X-12802814Y-2037728D01*
X-12680328Y-2160214D01*
X-12540188Y-2262032D01*
X-12385845Y-2340673D01*
X-12221101Y-2394202D01*
X-12050011Y-2421300D01*
X-12050010Y-2421300D01*
X-11876790Y-2421300D01*
X-11876789Y-2421300D01*
X-11705699Y-2394202D01*
X-11540955Y-2340673D01*
X-11386612Y-2262032D01*
X-11246472Y-2160214D01*
X-11123986Y-2037728D01*
X-11022168Y-1897588D01*
X-10943527Y-1743245D01*
X-10889998Y-1578501D01*
X-10862900Y-1407411D01*
X-10862900Y-1234189D01*
X-10889998Y-1063099D01*
X-10943527Y-898355D01*
X-11022168Y-744012D01*
X-11123986Y-603872D01*
X-11204869Y-522989D01*
X23359700Y-522989D01*
X23359700Y-696210D01*
X23381589Y-834417D01*
X23386798Y-867301D01*
X23440327Y-1032045D01*
X23518968Y-1186388D01*
X23620786Y-1326528D01*
X23743272Y-1449014D01*
X23883412Y-1550832D01*
X24037755Y-1629473D01*
X24202499Y-1683002D01*
X24373589Y-1710100D01*
X24373590Y-1710100D01*
X24546810Y-1710100D01*
X24546811Y-1710100D01*
X24717901Y-1683002D01*
X24882645Y-1629473D01*
X25036988Y-1550832D01*
X25177128Y-1449014D01*
X25299614Y-1326528D01*
X25401432Y-1186388D01*
X25480073Y-1032045D01*
X25533602Y-867301D01*
X25560700Y-696211D01*
X25560700Y-522989D01*
X25533602Y-351899D01*
X25480073Y-187155D01*
X25401432Y-32812D01*
X25299614Y107328D01*
X25177128Y229814D01*
X25036988Y331632D01*
X24915606Y393479D01*
X24915604Y393481D01*
X24882650Y410271D01*
X24882647Y410272D01*
X24882645Y410273D01*
X24717901Y463802D01*
X24717899Y463803D01*
X24717898Y463803D01*
X24586471Y484619D01*
X24546811Y490900D01*
X24373589Y490900D01*
X24333928Y484619D01*
X24202502Y463803D01*
X24037752Y410272D01*
X23883411Y331632D01*
X23803456Y273541D01*
X23743272Y229814D01*
X23743270Y229812D01*
X23743269Y229812D01*
X23620788Y107331D01*
X23620788Y107330D01*
X23620786Y107328D01*
X23600859Y79901D01*
X23518968Y-32811D01*
X23440328Y-187152D01*
X23386797Y-351902D01*
X23359700Y-522989D01*
X-11204869Y-522989D01*
X-11246472Y-481386D01*
X-11386612Y-379568D01*
X-11540955Y-300927D01*
X-11705699Y-247398D01*
X-11705701Y-247397D01*
X-11705702Y-247397D01*
X-11837129Y-226581D01*
X-11876789Y-220300D01*
X-12050011Y-220300D01*
X-12089672Y-226581D01*
X-12221098Y-247397D01*
X-12385848Y-300928D01*
X-12540189Y-379568D01*
X-12617167Y-435497D01*
X-12680328Y-481386D01*
X-12680330Y-481388D01*
X-12680331Y-481388D01*
X-12802812Y-603869D01*
X-12802812Y-603870D01*
X-12802814Y-603872D01*
X-12846541Y-664056D01*
X-12904632Y-744011D01*
X-12983272Y-898352D01*
X-13036803Y-1063102D01*
X-13063900Y-1234189D01*
X-21660939Y-1234189D01*
X-21548555Y-1197673D01*
X-21394212Y-1119032D01*
X-21254072Y-1017214D01*
X-21131586Y-894728D01*
X-21029768Y-754588D01*
X-20951127Y-600245D01*
X-20897598Y-435501D01*
X-20870500Y-264411D01*
X-20870500Y-91189D01*
X-20897598Y79901D01*
X-20951127Y244645D01*
X-21029768Y398988D01*
X-21102502Y499098D01*
X32891100Y499098D01*
X32891100Y262903D01*
X32928046Y29632D01*
X33001033Y-194996D01*
X33081490Y-352900D01*
X33108257Y-405433D01*
X33247083Y-596510D01*
X33414090Y-763517D01*
X33605167Y-902343D01*
X33704591Y-953002D01*
X33815603Y-1009566D01*
X33815605Y-1009566D01*
X33815608Y-1009568D01*
X33908231Y-1039663D01*
X34040231Y-1082553D01*
X34273503Y-1119500D01*
X34273508Y-1119500D01*
X34509697Y-1119500D01*
X34742968Y-1082553D01*
X34967592Y-1009568D01*
X35178033Y-902343D01*
X35369110Y-763517D01*
X35536117Y-596510D01*
X35674943Y-405433D01*
X35782168Y-194992D01*
X35855153Y29632D01*
X35867459Y107331D01*
X35892100Y262903D01*
X35892100Y499098D01*
X35855153Y732369D01*
X35802115Y895602D01*
X35782168Y956992D01*
X35782166Y956995D01*
X35782166Y956997D01*
X35674942Y1167434D01*
X35654471Y1195610D01*
X35536117Y1358510D01*
X35369110Y1525517D01*
X35178033Y1664343D01*
X35163965Y1671511D01*
X34967596Y1771567D01*
X34742968Y1844554D01*
X34509697Y1881500D01*
X34509692Y1881500D01*
X34273508Y1881500D01*
X34273503Y1881500D01*
X34040231Y1844554D01*
X33815603Y1771567D01*
X33605166Y1664343D01*
X33496150Y1585138D01*
X33414090Y1525517D01*
X33414088Y1525515D01*
X33414087Y1525515D01*
X33247085Y1358513D01*
X33247085Y1358512D01*
X33247083Y1358510D01*
X33192377Y1283214D01*
X33108257Y1167434D01*
X33001033Y956997D01*
X32928046Y732369D01*
X32891100Y499098D01*
X-21102502Y499098D01*
X-21131586Y539128D01*
X-21254072Y661614D01*
X-21394212Y763432D01*
X-21548555Y842073D01*
X-21713299Y895602D01*
X-21713301Y895603D01*
X-21713302Y895603D01*
X-21844729Y916419D01*
X-21884389Y922700D01*
X-22057611Y922700D01*
X-22097272Y916419D01*
X-22228698Y895603D01*
X-22393448Y842072D01*
X-22547789Y763432D01*
X-22590544Y732368D01*
X-22687928Y661614D01*
X-22687930Y661612D01*
X-22687931Y661612D01*
X-22810412Y539131D01*
X-22810412Y539130D01*
X-22810414Y539128D01*
X-22839502Y499092D01*
X-22912232Y398989D01*
X-22990872Y244648D01*
X-23044403Y79898D01*
X-23071500Y-91189D01*
X-40000000Y-91189D01*
X-40000000Y1983847D01*
X-4635900Y1983847D01*
X-4635900Y1826154D01*
X-4605139Y1671511D01*
X-4605136Y1671499D01*
X-4544798Y1525828D01*
X-4544791Y1525815D01*
X-4457190Y1394712D01*
X-4457187Y1394708D01*
X-4345693Y1283214D01*
X-4345689Y1283211D01*
X-4214586Y1195610D01*
X-4214573Y1195603D01*
X-4068902Y1135265D01*
X-4068897Y1135263D01*
X-3914247Y1104501D01*
X-3914244Y1104500D01*
X-3914242Y1104500D01*
X-3756556Y1104500D01*
X-3756555Y1104501D01*
X-3601903Y1135263D01*
X-3456221Y1195606D01*
X-3325111Y1283211D01*
X-3213611Y1394711D01*
X-3126006Y1525821D01*
X-3065663Y1671503D01*
X-3045759Y1771568D01*
X-3034900Y1826156D01*
X-3034359Y1831649D01*
X-3008201Y1896437D01*
X-2951168Y1936799D01*
X-2910956Y1943500D01*
X-2837232Y1943500D01*
X-2837231Y1943501D01*
X-2672918Y1976184D01*
X-2518137Y2040297D01*
X-2378838Y2133374D01*
X-2260374Y2251838D01*
X-2167297Y2391137D01*
X-2103184Y2545918D01*
X-2070500Y2710233D01*
X-2070500Y2877767D01*
X-2103184Y3042082D01*
X-2167297Y3196863D01*
X-2198463Y3243506D01*
X-2260374Y3336163D01*
X-2378838Y3454627D01*
X-2518140Y3547705D01*
X-2672918Y3611816D01*
X-2672926Y3611818D01*
X-2837229Y3644500D01*
X-2837233Y3644500D01*
X-3004767Y3644500D01*
X-3004772Y3644500D01*
X-3169075Y3611818D01*
X-3169083Y3611816D01*
X-3323861Y3547705D01*
X-3463163Y3454627D01*
X-3581627Y3336163D01*
X-3674705Y3196861D01*
X-3738816Y3042083D01*
X-3738818Y3042075D01*
X-3771500Y2877772D01*
X-3771500Y2829500D01*
X-3791185Y2762461D01*
X-3843989Y2716706D01*
X-3895500Y2705500D01*
X-3914245Y2705500D01*
X-4068890Y2674739D01*
X-4068902Y2674736D01*
X-4214573Y2614398D01*
X-4214586Y2614391D01*
X-4345689Y2526790D01*
X-4345693Y2526787D01*
X-4457187Y2415293D01*
X-4457190Y2415289D01*
X-4544791Y2284186D01*
X-4544798Y2284173D01*
X-4605136Y2138502D01*
X-4605139Y2138490D01*
X-4635900Y1983847D01*
X-40000000Y1983847D01*
X-40000000Y4274772D01*
X-215500Y4274772D01*
X-215500Y4107229D01*
X-182818Y3942926D01*
X-182816Y3942918D01*
X-118705Y3788140D01*
X-25627Y3648838D01*
X92837Y3530374D01*
X185494Y3468463D01*
X232137Y3437297D01*
X386918Y3373184D01*
X551228Y3340501D01*
X551232Y3340500D01*
X551233Y3340500D01*
X718768Y3340500D01*
X718769Y3340501D01*
X883082Y3373184D01*
X1037863Y3437297D01*
X1177162Y3530374D01*
X1295626Y3648838D01*
X1388703Y3788137D01*
X1444718Y3923369D01*
X1488558Y3977771D01*
X1554852Y3999836D01*
X1583469Y3997532D01*
X1627903Y3988694D01*
X1694230Y3975501D01*
X1694232Y3975500D01*
X1694233Y3975500D01*
X1861768Y3975500D01*
X1861769Y3975501D01*
X2026082Y4008184D01*
X2180863Y4072297D01*
X2320162Y4165374D01*
X2438626Y4283838D01*
X2531703Y4423137D01*
X2595816Y4577918D01*
X2628500Y4742233D01*
X2628500Y4909767D01*
X2595816Y5074082D01*
X2531703Y5228863D01*
X2490918Y5289902D01*
X2438626Y5368163D01*
X2320162Y5486627D01*
X2180860Y5579705D01*
X2026082Y5643816D01*
X2026074Y5643818D01*
X1861771Y5676500D01*
X1861767Y5676500D01*
X1694233Y5676500D01*
X1694228Y5676500D01*
X1529925Y5643818D01*
X1529917Y5643816D01*
X1375139Y5579705D01*
X1235837Y5486627D01*
X1117373Y5368163D01*
X1024295Y5228861D01*
X968282Y5093633D01*
X924441Y5039230D01*
X858146Y5017165D01*
X829530Y5019468D01*
X718767Y5041500D01*
X551233Y5041500D01*
X551228Y5041500D01*
X386925Y5008818D01*
X386917Y5008816D01*
X232139Y4944705D01*
X92837Y4851627D01*
X-25627Y4733163D01*
X-118705Y4593861D01*
X-182816Y4439083D01*
X-182818Y4439075D01*
X-215500Y4274772D01*
X-40000000Y4274772D01*
X-40000000Y6701601D01*
X-38642016Y6701601D01*
X-38642015Y6701600D01*
X-37883584Y6701600D01*
X-37887979Y6697205D01*
X-37940640Y6605994D01*
X-37967899Y6504261D01*
X-37967899Y6398939D01*
X-37940640Y6297206D01*
X-37887979Y6205995D01*
X-37883584Y6201600D01*
X-38642015Y6201600D01*
X-38640815Y6194016D01*
X-38587309Y6029345D01*
X-38508705Y5875076D01*
X-38406933Y5734998D01*
X-38284503Y5612568D01*
X-38144425Y5510796D01*
X-37990158Y5432192D01*
X-37825485Y5378686D01*
X-37654471Y5351600D01*
X-37517900Y5351600D01*
X-37517900Y6051601D01*
X-37017900Y6051601D01*
X-37017900Y5351600D01*
X-36881329Y5351600D01*
X-36710316Y5378686D01*
X-36545643Y5432192D01*
X-36391376Y5510796D01*
X-36251298Y5612568D01*
X-36128868Y5734998D01*
X-36027096Y5875076D01*
X-35948492Y6029345D01*
X-35894986Y6194016D01*
X-35893785Y6201600D01*
X-36652216Y6201600D01*
X-36647821Y6205995D01*
X-36595160Y6297206D01*
X-36567901Y6398939D01*
X-36567901Y6504261D01*
X-36595160Y6605994D01*
X-36647821Y6697205D01*
X-36652216Y6701600D01*
X-35893785Y6701600D01*
X-35893785Y6701601D01*
X-34562016Y6701601D01*
X-34562015Y6701600D01*
X-33803596Y6701600D01*
X-33807991Y6697205D01*
X-33860652Y6605994D01*
X-33887911Y6504261D01*
X-33887911Y6398939D01*
X-33860652Y6297206D01*
X-33807991Y6205995D01*
X-33803596Y6201600D01*
X-34562015Y6201600D01*
X-34560815Y6194016D01*
X-34507309Y6029345D01*
X-34428705Y5875076D01*
X-34326933Y5734998D01*
X-34204503Y5612568D01*
X-34064425Y5510796D01*
X-33973728Y5464584D01*
X-33922932Y5416610D01*
X-33906137Y5348789D01*
X-33925895Y5290811D01*
X-33924321Y5289902D01*
X-33984402Y5185840D01*
X-33984403Y5185837D01*
X-34013400Y5077618D01*
X-34013400Y4965582D01*
X-33984403Y4857363D01*
X-33928385Y4760337D01*
X-33849163Y4681115D01*
X-33752137Y4625097D01*
X-33643918Y4596100D01*
X-33643916Y4596100D01*
X-33531884Y4596100D01*
X-33531882Y4596100D01*
X-33423663Y4625097D01*
X-33326637Y4681115D01*
X-33247415Y4760337D01*
X-33191397Y4857363D01*
X-33162400Y4965582D01*
X-33162400Y5077618D01*
X-33191397Y5185837D01*
X-33247415Y5282863D01*
X-33301582Y5337030D01*
X-33335066Y5398354D01*
X-33337900Y5424711D01*
X-33337900Y6051601D01*
X-32837900Y6051601D01*
X-32837900Y5351600D01*
X-32601329Y5351600D01*
X-32430316Y5378686D01*
X-32265643Y5432192D01*
X-32111376Y5510796D01*
X-31971298Y5612568D01*
X-31848868Y5734998D01*
X-31747096Y5875076D01*
X-31668492Y6029345D01*
X-31614986Y6194016D01*
X-31613785Y6201600D01*
X-32372204Y6201600D01*
X-32367809Y6205995D01*
X-32315148Y6297206D01*
X-32287889Y6398939D01*
X-32287889Y6428847D01*
X12280500Y6428847D01*
X12280500Y6271154D01*
X12311261Y6116511D01*
X12311264Y6116499D01*
X12371602Y5970828D01*
X12371609Y5970815D01*
X12459210Y5839712D01*
X12459213Y5839708D01*
X12570707Y5728214D01*
X12570711Y5728211D01*
X12701814Y5640610D01*
X12701827Y5640603D01*
X12847498Y5580265D01*
X12847503Y5580263D01*
X13002153Y5549501D01*
X13002156Y5549500D01*
X13002158Y5549500D01*
X13159844Y5549500D01*
X13159845Y5549501D01*
X13308640Y5579098D01*
X32891100Y5579098D01*
X32891100Y5342903D01*
X32928046Y5109632D01*
X33001033Y4885004D01*
X33078401Y4733163D01*
X33108257Y4674567D01*
X33247083Y4483490D01*
X33414090Y4316483D01*
X33605167Y4177657D01*
X33629274Y4165374D01*
X33815603Y4070434D01*
X33815605Y4070434D01*
X33815608Y4070432D01*
X33931667Y4032722D01*
X34040231Y3997447D01*
X34273503Y3960500D01*
X34273508Y3960500D01*
X34509697Y3960500D01*
X34742968Y3997447D01*
X34743230Y3997532D01*
X34967592Y4070432D01*
X35178033Y4177657D01*
X35369110Y4316483D01*
X35536117Y4483490D01*
X35674943Y4674567D01*
X35782168Y4885008D01*
X35855153Y5109632D01*
X35874037Y5228861D01*
X35892100Y5342903D01*
X35892100Y5579098D01*
X35855153Y5812369D01*
X35803666Y5970828D01*
X35782168Y6036992D01*
X35782166Y6036995D01*
X35782166Y6036997D01*
X35698296Y6201600D01*
X35674943Y6247433D01*
X35536117Y6438510D01*
X35369110Y6605517D01*
X35178033Y6744343D01*
X34967596Y6851567D01*
X34742968Y6924554D01*
X34509697Y6961500D01*
X34509692Y6961500D01*
X34273508Y6961500D01*
X34273503Y6961500D01*
X34040231Y6924554D01*
X33815603Y6851567D01*
X33605166Y6744343D01*
X33546336Y6701600D01*
X33414090Y6605517D01*
X33414088Y6605515D01*
X33414087Y6605515D01*
X33247085Y6438513D01*
X33247085Y6438512D01*
X33247083Y6438510D01*
X33240061Y6428845D01*
X33108257Y6247434D01*
X33001033Y6036997D01*
X32928046Y5812369D01*
X32891100Y5579098D01*
X13308640Y5579098D01*
X13314497Y5580263D01*
X13460179Y5640606D01*
X13464986Y5643818D01*
X13529712Y5687066D01*
X13556590Y5705027D01*
X13591289Y5728211D01*
X13702789Y5839711D01*
X13790394Y5970821D01*
X13850737Y6116503D01*
X13881500Y6271158D01*
X13881500Y6428842D01*
X13881500Y6428845D01*
X13881499Y6428847D01*
X13879577Y6438510D01*
X13850737Y6583497D01*
X13801818Y6701600D01*
X13790397Y6729173D01*
X13790390Y6729186D01*
X13702789Y6860289D01*
X13702786Y6860293D01*
X13591292Y6971787D01*
X13591288Y6971790D01*
X13460185Y7059391D01*
X13460172Y7059398D01*
X13314501Y7119736D01*
X13314489Y7119739D01*
X13159845Y7150500D01*
X13159842Y7150500D01*
X13002158Y7150500D01*
X13002155Y7150500D01*
X12847510Y7119739D01*
X12847498Y7119736D01*
X12701827Y7059398D01*
X12701814Y7059391D01*
X12570711Y6971790D01*
X12570707Y6971787D01*
X12459213Y6860293D01*
X12459210Y6860289D01*
X12371609Y6729186D01*
X12371602Y6729173D01*
X12311264Y6583502D01*
X12311261Y6583490D01*
X12280500Y6428847D01*
X-32287889Y6428847D01*
X-32287889Y6504261D01*
X-32315148Y6605994D01*
X-32367809Y6697205D01*
X-32372204Y6701600D01*
X-31613785Y6701600D01*
X-31613785Y6701601D01*
X-31614986Y6709185D01*
X-31668492Y6873856D01*
X-31747096Y7028125D01*
X-31848868Y7168203D01*
X-31971298Y7290633D01*
X-32111376Y7392405D01*
X-32265643Y7471009D01*
X-32430316Y7524515D01*
X-32601329Y7551600D01*
X-32837900Y7551600D01*
X-32837900Y6851599D01*
X-33337900Y6851599D01*
X-33337900Y7551600D01*
X-33574471Y7551600D01*
X-33745485Y7524515D01*
X-33910158Y7471009D01*
X-34064425Y7392405D01*
X-34204503Y7290633D01*
X-34326933Y7168203D01*
X-34428705Y7028125D01*
X-34507309Y6873856D01*
X-34560815Y6709185D01*
X-34562016Y6701601D01*
X-35893785Y6701601D01*
X-35894986Y6709185D01*
X-35948492Y6873856D01*
X-36027096Y7028125D01*
X-36128868Y7168203D01*
X-36251298Y7290633D01*
X-36391376Y7392405D01*
X-36545643Y7471009D01*
X-36710316Y7524515D01*
X-36881329Y7551600D01*
X-37017900Y7551600D01*
X-37017900Y6851599D01*
X-37517900Y6851599D01*
X-37517900Y7551600D01*
X-37654471Y7551600D01*
X-37825485Y7524515D01*
X-37990158Y7471009D01*
X-38144425Y7392405D01*
X-38284503Y7290633D01*
X-38406933Y7168203D01*
X-38508705Y7028125D01*
X-38587309Y6873856D01*
X-38640815Y6709185D01*
X-38642016Y6701601D01*
X-40000000Y6701601D01*
X-40000000Y9989772D01*
X-13550500Y9989772D01*
X-13550500Y9822229D01*
X-13517818Y9657926D01*
X-13517816Y9657918D01*
X-13453705Y9503140D01*
X-13360627Y9363838D01*
X-13242163Y9245374D01*
X-13164176Y9193265D01*
X-13102863Y9152297D01*
X-13102862Y9152297D01*
X-13102861Y9152296D01*
X-13098361Y9150432D01*
X-12948082Y9088184D01*
X-12783772Y9055501D01*
X-12783768Y9055500D01*
X-12783767Y9055500D01*
X-12616232Y9055500D01*
X-12616231Y9055501D01*
X-12451918Y9088184D01*
X-12297137Y9152297D01*
X-12157838Y9245374D01*
X-12039374Y9363838D01*
X-11946297Y9503137D01*
X-11882184Y9657918D01*
X-11849500Y9822233D01*
X-11849500Y9989767D01*
X-11849501Y9989772D01*
X-10756500Y9989772D01*
X-10756500Y9822229D01*
X-10723818Y9657926D01*
X-10723816Y9657918D01*
X-10659705Y9503140D01*
X-10566627Y9363838D01*
X-10448163Y9245374D01*
X-10370176Y9193265D01*
X-10308863Y9152297D01*
X-10308862Y9152297D01*
X-10308861Y9152296D01*
X-10304361Y9150432D01*
X-10154082Y9088184D01*
X-9989772Y9055501D01*
X-9989768Y9055500D01*
X-9989767Y9055500D01*
X-9822232Y9055500D01*
X-9822231Y9055501D01*
X-9657918Y9088184D01*
X-9503137Y9152297D01*
X-9363838Y9245374D01*
X-9245374Y9363838D01*
X-9152297Y9503137D01*
X-9088184Y9657918D01*
X-9072698Y9735772D01*
X-8724500Y9735772D01*
X-8724500Y9568229D01*
X-8691818Y9403926D01*
X-8691816Y9403918D01*
X-8627705Y9249140D01*
X-8534627Y9109838D01*
X-8416163Y8991374D01*
X-8323506Y8929463D01*
X-8276863Y8898297D01*
X-8122082Y8834184D01*
X-7957772Y8801501D01*
X-7957768Y8801500D01*
X-7957767Y8801500D01*
X-7790232Y8801500D01*
X-7790231Y8801501D01*
X-7625918Y8834184D01*
X-7471137Y8898297D01*
X-7331838Y8991374D01*
X-7213374Y9109838D01*
X-7120297Y9249137D01*
X-7056184Y9403918D01*
X-7023500Y9568233D01*
X-7023500Y9735767D01*
X-7023501Y9735772D01*
X-5168500Y9735772D01*
X-5168500Y9568229D01*
X-5135818Y9403926D01*
X-5135816Y9403918D01*
X-5071705Y9249140D01*
X-4978627Y9109838D01*
X-4860163Y8991374D01*
X-4767506Y8929463D01*
X-4720863Y8898297D01*
X-4566082Y8834184D01*
X-4401772Y8801501D01*
X-4401768Y8801500D01*
X-4401767Y8801500D01*
X-4234232Y8801500D01*
X-4234231Y8801501D01*
X-4069918Y8834184D01*
X-3915137Y8898297D01*
X-3775838Y8991374D01*
X-3657374Y9109838D01*
X-3564297Y9249137D01*
X-3500184Y9403918D01*
X-3467500Y9568233D01*
X-3467500Y9735767D01*
X-3500184Y9900082D01*
X-3558903Y10041842D01*
X-3564296Y10054861D01*
X-3574063Y10069478D01*
X-3595463Y10101506D01*
X-3657374Y10194163D01*
X-3775838Y10312627D01*
X-3915140Y10405705D01*
X-4069918Y10469816D01*
X-4069926Y10469818D01*
X-4234229Y10502500D01*
X-4234233Y10502500D01*
X-4401767Y10502500D01*
X-4401772Y10502500D01*
X-4566075Y10469818D01*
X-4566083Y10469816D01*
X-4720861Y10405705D01*
X-4860163Y10312627D01*
X-4978627Y10194163D01*
X-5071705Y10054861D01*
X-5135816Y9900083D01*
X-5135818Y9900075D01*
X-5168500Y9735772D01*
X-7023501Y9735772D01*
X-7056184Y9900082D01*
X-7114903Y10041842D01*
X-7120296Y10054861D01*
X-7130063Y10069478D01*
X-7151463Y10101506D01*
X-7213374Y10194163D01*
X-7331838Y10312627D01*
X-7471140Y10405705D01*
X-7625918Y10469816D01*
X-7625926Y10469818D01*
X-7790229Y10502500D01*
X-7790233Y10502500D01*
X-7957767Y10502500D01*
X-7957772Y10502500D01*
X-8122075Y10469818D01*
X-8122083Y10469816D01*
X-8276861Y10405705D01*
X-8416163Y10312627D01*
X-8534627Y10194163D01*
X-8627705Y10054861D01*
X-8691816Y9900083D01*
X-8691818Y9900075D01*
X-8724500Y9735772D01*
X-9072698Y9735772D01*
X-9071425Y9742173D01*
X-9066675Y9766050D01*
X-9055501Y9822230D01*
X-9055500Y9822232D01*
X-9055500Y9989768D01*
X-9055501Y9989772D01*
X-9068448Y10054863D01*
X-9088184Y10154082D01*
X-9152297Y10308863D01*
X-9186169Y10359556D01*
X-9245374Y10448163D01*
X-9363838Y10566627D01*
X-9503140Y10659705D01*
X-9657918Y10723816D01*
X-9657926Y10723818D01*
X-9822229Y10756500D01*
X-9822233Y10756500D01*
X-9989767Y10756500D01*
X-9989772Y10756500D01*
X-10154075Y10723818D01*
X-10154083Y10723816D01*
X-10308861Y10659705D01*
X-10448163Y10566627D01*
X-10566627Y10448163D01*
X-10659705Y10308861D01*
X-10723816Y10154083D01*
X-10723818Y10154075D01*
X-10756500Y9989772D01*
X-11849501Y9989772D01*
X-11882184Y10154082D01*
X-11946297Y10308863D01*
X-11980169Y10359556D01*
X-12039374Y10448163D01*
X-12157838Y10566627D01*
X-12297140Y10659705D01*
X-12451918Y10723816D01*
X-12451926Y10723818D01*
X-12616229Y10756500D01*
X-12616233Y10756500D01*
X-12783767Y10756500D01*
X-12783772Y10756500D01*
X-12948075Y10723818D01*
X-12948083Y10723816D01*
X-13102861Y10659705D01*
X-13242163Y10566627D01*
X-13360627Y10448163D01*
X-13453705Y10308861D01*
X-13517816Y10154083D01*
X-13517818Y10154075D01*
X-13550500Y9989772D01*
X-40000000Y9989772D01*
X-40000000Y11767772D01*
X-7200500Y11767772D01*
X-7200500Y11600229D01*
X-7167818Y11435926D01*
X-7167816Y11435918D01*
X-7103705Y11281140D01*
X-7010627Y11141838D01*
X-6892163Y11023374D01*
X-6815596Y10972214D01*
X-6752863Y10930297D01*
X-6598082Y10866184D01*
X-6456717Y10838065D01*
X-6433772Y10833501D01*
X-6433768Y10833500D01*
X-6433767Y10833500D01*
X-6266232Y10833500D01*
X-6266231Y10833501D01*
X-6101918Y10866184D01*
X-5947137Y10930297D01*
X-5807838Y11023374D01*
X-5689374Y11141838D01*
X-5596297Y11281137D01*
X-5532184Y11435918D01*
X-5499500Y11600233D01*
X-5499500Y11767767D01*
X-5532184Y11932082D01*
X-5596297Y12086863D01*
X-5638990Y12150757D01*
X-5689374Y12226163D01*
X-5768527Y12305316D01*
X-5802012Y12366639D01*
X-5797028Y12436331D01*
X-5755156Y12492264D01*
X-5689692Y12516681D01*
X-5633394Y12507558D01*
X-5576823Y12484126D01*
X-5567497Y12480263D01*
X-5412847Y12449501D01*
X-5412844Y12449500D01*
X-5412842Y12449500D01*
X-5255156Y12449500D01*
X-5255155Y12449501D01*
X-5100503Y12480263D01*
X-5034607Y12507559D01*
X-4965139Y12515027D01*
X-4902659Y12483752D01*
X-4867007Y12423663D01*
X-4869500Y12353838D01*
X-4899473Y12305316D01*
X-4978627Y12226162D01*
X-5071705Y12086861D01*
X-5135816Y11932083D01*
X-5135818Y11932075D01*
X-5168500Y11767772D01*
X-5168500Y11600229D01*
X-5135818Y11435926D01*
X-5135816Y11435918D01*
X-5071705Y11281140D01*
X-4978627Y11141838D01*
X-4860163Y11023374D01*
X-4783596Y10972214D01*
X-4720863Y10930297D01*
X-4566082Y10866184D01*
X-4424717Y10838065D01*
X-4401772Y10833501D01*
X-4401768Y10833500D01*
X-4401767Y10833500D01*
X-4234232Y10833500D01*
X-4234231Y10833501D01*
X-4069918Y10866184D01*
X-3915137Y10930297D01*
X-3775838Y11023374D01*
X-3657374Y11141838D01*
X-3564297Y11281137D01*
X-3500184Y11435918D01*
X-3467500Y11600233D01*
X-3467500Y11767767D01*
X-3500184Y11932082D01*
X-3564297Y12086863D01*
X-3606990Y12150757D01*
X-3657374Y12226163D01*
X-3775838Y12344627D01*
X-3915140Y12437705D01*
X-4069918Y12501816D01*
X-4069926Y12501818D01*
X-4234229Y12534500D01*
X-4234233Y12534500D01*
X-4401767Y12534500D01*
X-4401772Y12534500D01*
X-4566075Y12501818D01*
X-4566087Y12501815D01*
X-4645715Y12468832D01*
X-4715185Y12461363D01*
X-4777664Y12492639D01*
X-4813315Y12552728D01*
X-4810821Y12622553D01*
X-4780850Y12671073D01*
X-4712211Y12739711D01*
X-4624606Y12870821D01*
X-4564263Y13016503D01*
X-4551862Y13078847D01*
X6699500Y13078847D01*
X6699500Y12921154D01*
X6730261Y12766511D01*
X6730264Y12766499D01*
X6790602Y12620828D01*
X6790609Y12620815D01*
X6878210Y12489712D01*
X6878213Y12489708D01*
X6989707Y12378214D01*
X6989711Y12378211D01*
X7120814Y12290610D01*
X7120827Y12290603D01*
X7266498Y12230265D01*
X7266503Y12230263D01*
X7421153Y12199501D01*
X7421156Y12199500D01*
X7421158Y12199500D01*
X7578844Y12199500D01*
X7578845Y12199501D01*
X7733497Y12230263D01*
X7879179Y12290606D01*
X8010289Y12378211D01*
X8121789Y12489711D01*
X8209394Y12620821D01*
X8210112Y12622553D01*
X8258640Y12739713D01*
X8269737Y12766503D01*
X8300500Y12921158D01*
X8300500Y13078842D01*
X8300500Y13078845D01*
X8300499Y13078847D01*
X8285369Y13154911D01*
X8269737Y13233497D01*
X8250662Y13279549D01*
X8209397Y13379173D01*
X8209390Y13379186D01*
X8121789Y13510289D01*
X8121786Y13510293D01*
X8010292Y13621787D01*
X8010288Y13621790D01*
X7879185Y13709391D01*
X7879172Y13709398D01*
X7733501Y13769736D01*
X7733489Y13769739D01*
X7578845Y13800500D01*
X7578842Y13800500D01*
X7421158Y13800500D01*
X7421155Y13800500D01*
X7266510Y13769739D01*
X7266498Y13769736D01*
X7120827Y13709398D01*
X7120814Y13709391D01*
X6989711Y13621790D01*
X6989707Y13621787D01*
X6878213Y13510293D01*
X6878210Y13510289D01*
X6790609Y13379186D01*
X6790602Y13379173D01*
X6730264Y13233502D01*
X6730261Y13233490D01*
X6699500Y13078847D01*
X-4551862Y13078847D01*
X-4541369Y13131598D01*
X-4533500Y13171156D01*
X-4533500Y13328845D01*
X-4533501Y13328847D01*
X-4545873Y13391046D01*
X-4564263Y13483497D01*
X-4564265Y13483502D01*
X-4624603Y13629173D01*
X-4624610Y13629186D01*
X-4712211Y13760289D01*
X-4712214Y13760293D01*
X-4823708Y13871787D01*
X-4823712Y13871790D01*
X-4954815Y13959391D01*
X-4954828Y13959398D01*
X-5100499Y14019736D01*
X-5100511Y14019739D01*
X-5255155Y14050500D01*
X-5255158Y14050500D01*
X-5412842Y14050500D01*
X-5412845Y14050500D01*
X-5567490Y14019739D01*
X-5567502Y14019736D01*
X-5713173Y13959398D01*
X-5713186Y13959391D01*
X-5844289Y13871790D01*
X-5844293Y13871787D01*
X-5955787Y13760293D01*
X-5955790Y13760289D01*
X-6043391Y13629186D01*
X-6043398Y13629173D01*
X-6103736Y13483502D01*
X-6103739Y13483490D01*
X-6134500Y13328847D01*
X-6134500Y13171154D01*
X-6103739Y13016511D01*
X-6103736Y13016499D01*
X-6043398Y12870828D01*
X-6043391Y12870815D01*
X-5955790Y12739712D01*
X-5955787Y12739708D01*
X-5887153Y12671074D01*
X-5853668Y12609751D01*
X-5858652Y12540059D01*
X-5900524Y12484126D01*
X-5965988Y12459709D01*
X-6022286Y12468832D01*
X-6101914Y12501815D01*
X-6101926Y12501818D01*
X-6266229Y12534500D01*
X-6266233Y12534500D01*
X-6433767Y12534500D01*
X-6433772Y12534500D01*
X-6598075Y12501818D01*
X-6598083Y12501816D01*
X-6752861Y12437705D01*
X-6892163Y12344627D01*
X-7010627Y12226163D01*
X-7103705Y12086861D01*
X-7167816Y11932083D01*
X-7167818Y11932075D01*
X-7200500Y11767772D01*
X-40000000Y11767772D01*
X-40000000Y18520001D01*
X-38616616Y18520001D01*
X-38616615Y18520000D01*
X-37858184Y18520000D01*
X-37862579Y18515605D01*
X-37915240Y18424394D01*
X-37942499Y18322661D01*
X-37942499Y18217339D01*
X-37915240Y18115606D01*
X-37862579Y18024395D01*
X-37858184Y18020000D01*
X-38616615Y18020000D01*
X-38615415Y18012416D01*
X-38561909Y17847745D01*
X-38483305Y17693476D01*
X-38381533Y17553398D01*
X-38259103Y17430968D01*
X-38119025Y17329196D01*
X-37964758Y17250592D01*
X-37800085Y17197086D01*
X-37629071Y17170000D01*
X-37492500Y17170000D01*
X-37492500Y17870001D01*
X-36992500Y17870001D01*
X-36992500Y17170000D01*
X-36855929Y17170000D01*
X-36684916Y17197086D01*
X-36520243Y17250592D01*
X-36365976Y17329196D01*
X-36225898Y17430968D01*
X-36103468Y17553398D01*
X-36001696Y17693476D01*
X-35923092Y17847745D01*
X-35869586Y18012416D01*
X-35868385Y18020000D01*
X-36626816Y18020000D01*
X-36622421Y18024395D01*
X-36569760Y18115606D01*
X-36542501Y18217339D01*
X-36542501Y18322661D01*
X-36569760Y18424394D01*
X-36622421Y18515605D01*
X-36626816Y18520000D01*
X-35868385Y18520000D01*
X-35868385Y18520001D01*
X-34536616Y18520001D01*
X-34536615Y18520000D01*
X-33778171Y18520000D01*
X-33782566Y18515605D01*
X-33835227Y18424394D01*
X-33862486Y18322661D01*
X-33862486Y18217339D01*
X-33835227Y18115606D01*
X-33782566Y18024395D01*
X-33778171Y18020000D01*
X-34536615Y18020000D01*
X-34535415Y18012416D01*
X-34481909Y17847745D01*
X-34403305Y17693476D01*
X-34301533Y17553398D01*
X-34179103Y17430968D01*
X-34039025Y17329196D01*
X-33884758Y17250592D01*
X-33720085Y17197086D01*
X-33549071Y17170000D01*
X-33312500Y17170000D01*
X-33312500Y17870001D01*
X-32812500Y17870001D01*
X-32812500Y17170000D01*
X-32575929Y17170000D01*
X-32404916Y17197086D01*
X-32240243Y17250592D01*
X-32085976Y17329196D01*
X-31945898Y17430968D01*
X-31823468Y17553398D01*
X-31721696Y17693476D01*
X-31643092Y17847745D01*
X-31589586Y18012416D01*
X-31588385Y18020000D01*
X-32346829Y18020000D01*
X-32342434Y18024395D01*
X-32289773Y18115606D01*
X-32262514Y18217339D01*
X-32262514Y18322661D01*
X-32289773Y18424394D01*
X-32342434Y18515605D01*
X-32346829Y18520000D01*
X-31588385Y18520000D01*
X-31588385Y18520001D01*
X-31588950Y18523569D01*
X-31589586Y18527585D01*
X-31593002Y18538098D01*
X-25260500Y18538098D01*
X-25260500Y18301903D01*
X-25223554Y18068632D01*
X-25150567Y17844004D01*
X-25073868Y17693476D01*
X-25043343Y17633567D01*
X-24985097Y17553398D01*
X-24953451Y17509842D01*
X-24929971Y17444035D01*
X-24945796Y17375981D01*
X-24994745Y17328411D01*
X-24994546Y17328047D01*
X-24995854Y17327333D01*
X-24995902Y17327286D01*
X-24996115Y17327191D01*
X-25002336Y17323794D01*
X-25117545Y17237548D01*
X-25117548Y17237545D01*
X-25203794Y17122336D01*
X-25203798Y17122329D01*
X-25254092Y16987483D01*
X-25260499Y16927884D01*
X-25260499Y16927877D01*
X-25260500Y16927865D01*
X-25260500Y14832130D01*
X-25260499Y14832124D01*
X-25254092Y14772517D01*
X-25203798Y14637672D01*
X-25203794Y14637665D01*
X-25117548Y14522456D01*
X-25117545Y14522453D01*
X-25002336Y14436207D01*
X-25002329Y14436203D01*
X-24867483Y14385909D01*
X-24867484Y14385909D01*
X-24860556Y14385165D01*
X-24807873Y14379500D01*
X-22712128Y14379501D01*
X-22652517Y14385909D01*
X-22517669Y14436204D01*
X-22402454Y14522454D01*
X-22316204Y14637669D01*
X-22265909Y14772517D01*
X-22259500Y14832127D01*
X-22259501Y15681794D01*
X-19200500Y15681794D01*
X-19200500Y15318206D01*
X-19197431Y15287049D01*
X-19164863Y14956370D01*
X-19093936Y14599788D01*
X-19093933Y14599777D01*
X-18988386Y14251835D01*
X-18939919Y14134825D01*
X-18867252Y13959391D01*
X-18849246Y13915922D01*
X-18849244Y13915917D01*
X-18677860Y13595280D01*
X-18677849Y13595262D01*
X-18475860Y13292965D01*
X-18475850Y13292951D01*
X-18245193Y13011894D01*
X-17988107Y12754808D01*
X-17988102Y12754804D01*
X-17988101Y12754803D01*
X-17707044Y12524146D01*
X-17404732Y12322147D01*
X-17404723Y12322142D01*
X-17404721Y12322141D01*
X-17084084Y12150757D01*
X-17084082Y12150757D01*
X-17084076Y12150753D01*
X-16748164Y12011614D01*
X-16400233Y11906070D01*
X-16400227Y11906069D01*
X-16400224Y11906068D01*
X-16400213Y11906065D01*
X-16043631Y11835138D01*
X-15681794Y11799500D01*
X-15681791Y11799500D01*
X-15318209Y11799500D01*
X-15318206Y11799500D01*
X-14956369Y11835138D01*
X-14896255Y11847096D01*
X-14653023Y11895476D01*
X-14599788Y11906065D01*
X-14599777Y11906068D01*
X-14599777Y11906069D01*
X-14599767Y11906070D01*
X-14251836Y12011614D01*
X-13915924Y12150753D01*
X-13595268Y12322147D01*
X-13292956Y12524146D01*
X-13011899Y12754803D01*
X-12754803Y13011899D01*
X-12524146Y13292956D01*
X-12322147Y13595268D01*
X-12150753Y13915924D01*
X-12011614Y14251836D01*
X-11906070Y14599767D01*
X-11906068Y14599777D01*
X-11906065Y14599788D01*
X-11841163Y14926080D01*
X-11835138Y14956369D01*
X-11799500Y15318206D01*
X-11799500Y15681794D01*
X-11810756Y15796080D01*
X3159499Y15796080D01*
X3188340Y15651093D01*
X3188343Y15651083D01*
X3244912Y15514512D01*
X3244919Y15514499D01*
X3327048Y15391585D01*
X3327051Y15391581D01*
X3431580Y15287052D01*
X3431584Y15287049D01*
X3554498Y15204920D01*
X3554511Y15204913D01*
X3691082Y15148344D01*
X3691087Y15148342D01*
X3691091Y15148342D01*
X3691092Y15148341D01*
X3836079Y15119500D01*
X3836082Y15119500D01*
X3983920Y15119500D01*
X4084462Y15139500D01*
X4128913Y15148342D01*
X4265495Y15204916D01*
X4282104Y15216015D01*
X4348781Y15236894D01*
X4397956Y15225028D01*
X4398876Y15227247D01*
X4531010Y15172516D01*
X4541087Y15168342D01*
X4541091Y15168342D01*
X4541092Y15168341D01*
X4686079Y15139500D01*
X4686082Y15139500D01*
X4833920Y15139500D01*
X4969381Y15166446D01*
X4978913Y15168342D01*
X5030474Y15189700D01*
X5121124Y15227247D01*
X5121662Y15225948D01*
X5183113Y15238752D01*
X5220636Y15229712D01*
X5343687Y15178742D01*
X5343691Y15178742D01*
X5343692Y15178741D01*
X5488679Y15149900D01*
X5488682Y15149900D01*
X5636513Y15149900D01*
X5636518Y15149900D01*
X5636522Y15149901D01*
X5640581Y15150301D01*
X5709228Y15137288D01*
X5759942Y15089226D01*
X5774362Y15051093D01*
X5778341Y15031091D01*
X5778343Y15031083D01*
X5834912Y14894512D01*
X5834919Y14894499D01*
X5917048Y14771585D01*
X5917051Y14771581D01*
X6021580Y14667052D01*
X6021584Y14667049D01*
X6144498Y14584920D01*
X6144511Y14584913D01*
X6278219Y14529530D01*
X6281087Y14528342D01*
X6281091Y14528342D01*
X6281092Y14528341D01*
X6426079Y14499500D01*
X6426082Y14499500D01*
X6573920Y14499500D01*
X6724887Y14529530D01*
X6725172Y14528095D01*
X6787742Y14528666D01*
X6841576Y14497056D01*
X6921580Y14417052D01*
X6921584Y14417049D01*
X7044498Y14334920D01*
X7044511Y14334913D01*
X7160209Y14286990D01*
X7181087Y14278342D01*
X7181091Y14278342D01*
X7181092Y14278341D01*
X7326079Y14249500D01*
X7326082Y14249500D01*
X7473920Y14249500D01*
X7571462Y14268904D01*
X7618913Y14278342D01*
X7755495Y14334916D01*
X7878416Y14417049D01*
X7982951Y14521584D01*
X8065084Y14644505D01*
X8121658Y14781087D01*
X8144220Y14894512D01*
X8150500Y14926080D01*
X8150500Y15073921D01*
X8121659Y15218908D01*
X8121658Y15218909D01*
X8121658Y15218913D01*
X8121656Y15218918D01*
X8065087Y15355489D01*
X8065080Y15355502D01*
X7982951Y15478416D01*
X7982948Y15478420D01*
X7878419Y15582949D01*
X7878415Y15582952D01*
X7755501Y15665081D01*
X7755488Y15665088D01*
X7715156Y15681794D01*
X11799500Y15681794D01*
X11799500Y15318206D01*
X11802569Y15287049D01*
X11835137Y14956370D01*
X11906064Y14599788D01*
X11906067Y14599777D01*
X12011614Y14251835D01*
X12060081Y14134825D01*
X12132748Y13959391D01*
X12150754Y13915922D01*
X12150756Y13915917D01*
X12322140Y13595280D01*
X12322151Y13595262D01*
X12524140Y13292965D01*
X12524150Y13292951D01*
X12754807Y13011894D01*
X13011893Y12754808D01*
X13011898Y12754804D01*
X13011899Y12754803D01*
X13292956Y12524146D01*
X13595268Y12322147D01*
X13595277Y12322142D01*
X13595279Y12322141D01*
X13915916Y12150757D01*
X13915918Y12150757D01*
X13915924Y12150753D01*
X14251836Y12011614D01*
X14384932Y11971240D01*
X14443371Y11932942D01*
X14471827Y11869130D01*
X14461267Y11800063D01*
X14436619Y11764898D01*
X14364210Y11692489D01*
X14276609Y11561386D01*
X14276602Y11561373D01*
X14234302Y11459248D01*
X14190462Y11404844D01*
X14124167Y11382779D01*
X14119741Y11382700D01*
X14075976Y11382700D01*
X13921331Y11351939D01*
X13921319Y11351936D01*
X13775648Y11291598D01*
X13775635Y11291591D01*
X13644532Y11203990D01*
X13644528Y11203987D01*
X13533034Y11092493D01*
X13533031Y11092489D01*
X13445430Y10961386D01*
X13445425Y10961377D01*
X13389339Y10825971D01*
X13345498Y10771568D01*
X13298970Y10751807D01*
X13203108Y10732739D01*
X13203098Y10732736D01*
X13057427Y10672398D01*
X13057414Y10672391D01*
X12926311Y10584790D01*
X12926307Y10584787D01*
X12814813Y10473293D01*
X12814810Y10473289D01*
X12727209Y10342186D01*
X12727202Y10342173D01*
X12666864Y10196502D01*
X12666861Y10196490D01*
X12636100Y10041847D01*
X12636100Y9884154D01*
X12666861Y9729511D01*
X12666864Y9729499D01*
X12727202Y9583828D01*
X12727209Y9583815D01*
X12814810Y9452712D01*
X12814813Y9452708D01*
X12926307Y9341214D01*
X12926311Y9341211D01*
X13057414Y9253610D01*
X13057427Y9253603D01*
X13203098Y9193265D01*
X13203103Y9193263D01*
X13327665Y9168486D01*
X13389576Y9136102D01*
X13418035Y9094322D01*
X13463804Y8983824D01*
X13463809Y8983815D01*
X13551410Y8852712D01*
X13551413Y8852708D01*
X13662907Y8741214D01*
X13662911Y8741211D01*
X13794014Y8653610D01*
X13794027Y8653603D01*
X13939698Y8593265D01*
X13939703Y8593263D01*
X14094353Y8562501D01*
X14094356Y8562500D01*
X14094358Y8562500D01*
X14145141Y8562500D01*
X14212180Y8542815D01*
X14257935Y8490011D01*
X14259702Y8485952D01*
X14302002Y8383828D01*
X14302009Y8383815D01*
X14389610Y8252712D01*
X14389613Y8252708D01*
X14501107Y8141214D01*
X14501111Y8141211D01*
X14632214Y8053610D01*
X14632227Y8053603D01*
X14777898Y7993265D01*
X14777903Y7993263D01*
X14932553Y7962501D01*
X14932556Y7962500D01*
X14932558Y7962500D01*
X15090244Y7962500D01*
X15090245Y7962501D01*
X15244897Y7993263D01*
X15390579Y8053606D01*
X15521689Y8141211D01*
X15633189Y8252711D01*
X15720794Y8383821D01*
X15781137Y8529503D01*
X15811900Y8684158D01*
X15811900Y8841842D01*
X15811900Y8841845D01*
X15811899Y8841847D01*
X15809738Y8852712D01*
X15781137Y8996497D01*
X15781135Y8996502D01*
X15720797Y9142173D01*
X15720790Y9142186D01*
X15633189Y9273289D01*
X15633186Y9273293D01*
X15521692Y9384787D01*
X15521688Y9384790D01*
X15390585Y9472391D01*
X15390572Y9472398D01*
X15244901Y9532736D01*
X15244889Y9532739D01*
X15090245Y9563500D01*
X15090242Y9563500D01*
X15039459Y9563500D01*
X14972420Y9583185D01*
X14926665Y9635989D01*
X14924898Y9640048D01*
X14882597Y9742173D01*
X14882590Y9742186D01*
X14794989Y9873289D01*
X14774171Y9894107D01*
X14740684Y9955429D01*
X14745667Y10025121D01*
X14774171Y10069473D01*
X14776610Y10071911D01*
X14864215Y10203021D01*
X14906519Y10305152D01*
X14950359Y10359556D01*
X15016654Y10381621D01*
X15021080Y10381700D01*
X15064844Y10381700D01*
X15064845Y10381701D01*
X15219497Y10412463D01*
X15332166Y10459133D01*
X15365172Y10472803D01*
X15365172Y10472804D01*
X15365179Y10472806D01*
X15496289Y10560411D01*
X15594976Y10659098D01*
X32891100Y10659098D01*
X32891100Y10422903D01*
X32928046Y10189632D01*
X33001033Y9965004D01*
X33102406Y9766050D01*
X33108257Y9754567D01*
X33247083Y9563490D01*
X33414090Y9396483D01*
X33605167Y9257657D01*
X33629274Y9245374D01*
X33815603Y9150434D01*
X33815605Y9150434D01*
X33815608Y9150432D01*
X33880021Y9129503D01*
X34040231Y9077447D01*
X34273503Y9040500D01*
X34273508Y9040500D01*
X34509697Y9040500D01*
X34742968Y9077447D01*
X34776016Y9088185D01*
X34967592Y9150432D01*
X35178033Y9257657D01*
X35369110Y9396483D01*
X35536117Y9563490D01*
X35674943Y9754567D01*
X35782168Y9965008D01*
X35855153Y10189632D01*
X35857275Y10203028D01*
X35892100Y10422903D01*
X35892100Y10659098D01*
X35855153Y10892369D01*
X35796525Y11072806D01*
X35782168Y11116992D01*
X35782166Y11116995D01*
X35782166Y11116997D01*
X35674942Y11327434D01*
X35657140Y11351936D01*
X35536117Y11518510D01*
X35369110Y11685517D01*
X35178033Y11824343D01*
X35144749Y11841302D01*
X34967596Y11931567D01*
X34742968Y12004554D01*
X34509697Y12041500D01*
X34509692Y12041500D01*
X34273508Y12041500D01*
X34273503Y12041500D01*
X34040231Y12004554D01*
X33815603Y11931567D01*
X33605166Y11824343D01*
X33527304Y11767772D01*
X33414090Y11685517D01*
X33414088Y11685515D01*
X33414087Y11685515D01*
X33247085Y11518513D01*
X33247085Y11518512D01*
X33247083Y11518510D01*
X33204027Y11459248D01*
X33108257Y11327434D01*
X33001033Y11116997D01*
X32928046Y10892369D01*
X32891100Y10659098D01*
X15594976Y10659098D01*
X15607789Y10671911D01*
X15695394Y10803021D01*
X15739747Y10910102D01*
X15742222Y10914864D01*
X15762844Y10936358D01*
X15781538Y10959556D01*
X15786774Y10961299D01*
X15790595Y10965281D01*
X15819567Y10972214D01*
X15847833Y10981621D01*
X15852259Y10981700D01*
X15877644Y10981700D01*
X15877645Y10981701D01*
X16032297Y11012463D01*
X16177979Y11072806D01*
X16309089Y11160411D01*
X16420589Y11271911D01*
X16508194Y11403021D01*
X16568537Y11548703D01*
X16595976Y11686647D01*
X20103700Y11686647D01*
X20103700Y11528954D01*
X20134461Y11374311D01*
X20134464Y11374299D01*
X20194802Y11228628D01*
X20194809Y11228615D01*
X20282410Y11097512D01*
X20282413Y11097508D01*
X20393907Y10986014D01*
X20393911Y10986011D01*
X20525014Y10898410D01*
X20525027Y10898403D01*
X20670698Y10838065D01*
X20670703Y10838063D01*
X20783144Y10815697D01*
X20825353Y10807301D01*
X20825356Y10807300D01*
X20825358Y10807300D01*
X20983044Y10807300D01*
X20983045Y10807301D01*
X21137697Y10838063D01*
X21283379Y10898406D01*
X21414489Y10986011D01*
X21525989Y11097511D01*
X21613594Y11228621D01*
X21673937Y11374303D01*
X21704700Y11528958D01*
X21704700Y11686642D01*
X21704700Y11686645D01*
X21704699Y11686647D01*
X22796100Y11686647D01*
X22796100Y11528954D01*
X22826861Y11374311D01*
X22826864Y11374299D01*
X22887202Y11228628D01*
X22887209Y11228615D01*
X22974810Y11097512D01*
X22974813Y11097508D01*
X23086307Y10986014D01*
X23086311Y10986011D01*
X23217414Y10898410D01*
X23217427Y10898403D01*
X23363098Y10838065D01*
X23363103Y10838063D01*
X23475544Y10815697D01*
X23517753Y10807301D01*
X23517756Y10807300D01*
X23517758Y10807300D01*
X23675444Y10807300D01*
X23675445Y10807301D01*
X23830097Y10838063D01*
X23975779Y10898406D01*
X24106889Y10986011D01*
X24218389Y11097511D01*
X24305994Y11228621D01*
X24366337Y11374303D01*
X24397100Y11528958D01*
X24397100Y11686642D01*
X24397100Y11686645D01*
X24397099Y11686647D01*
X24366338Y11841290D01*
X24366337Y11841297D01*
X24366335Y11841302D01*
X24305997Y11986973D01*
X24305990Y11986986D01*
X24218389Y12118089D01*
X24218386Y12118093D01*
X24106892Y12229587D01*
X24106888Y12229590D01*
X23975785Y12317191D01*
X23975772Y12317198D01*
X23830101Y12377536D01*
X23830089Y12377539D01*
X23675445Y12408300D01*
X23675442Y12408300D01*
X23517758Y12408300D01*
X23517755Y12408300D01*
X23363110Y12377539D01*
X23363098Y12377536D01*
X23217427Y12317198D01*
X23217414Y12317191D01*
X23086311Y12229590D01*
X23086307Y12229587D01*
X22974813Y12118093D01*
X22974810Y12118089D01*
X22887209Y11986986D01*
X22887202Y11986973D01*
X22826864Y11841302D01*
X22826861Y11841290D01*
X22796100Y11686647D01*
X21704699Y11686647D01*
X21673938Y11841290D01*
X21673937Y11841297D01*
X21673935Y11841302D01*
X21613597Y11986973D01*
X21613590Y11986986D01*
X21525989Y12118089D01*
X21525986Y12118093D01*
X21414492Y12229587D01*
X21414488Y12229590D01*
X21283385Y12317191D01*
X21283372Y12317198D01*
X21137701Y12377536D01*
X21137689Y12377539D01*
X20983045Y12408300D01*
X20983042Y12408300D01*
X20825358Y12408300D01*
X20825355Y12408300D01*
X20670710Y12377539D01*
X20670698Y12377536D01*
X20525027Y12317198D01*
X20525014Y12317191D01*
X20393911Y12229590D01*
X20393907Y12229587D01*
X20282413Y12118093D01*
X20282410Y12118089D01*
X20194809Y11986986D01*
X20194802Y11986973D01*
X20134464Y11841302D01*
X20134461Y11841290D01*
X20103700Y11686647D01*
X16595976Y11686647D01*
X16599300Y11703358D01*
X16599300Y11861042D01*
X16598609Y11864513D01*
X16598596Y11874103D01*
X16606776Y11902111D01*
X16612210Y11930767D01*
X16616454Y11935246D01*
X16618185Y11941170D01*
X16640206Y11960307D01*
X16660273Y11981479D01*
X16668884Y11985228D01*
X16670924Y11987000D01*
X16673973Y11987443D01*
X16686598Y11992939D01*
X16748164Y12011614D01*
X17084076Y12150753D01*
X17404732Y12322147D01*
X17707044Y12524146D01*
X17988101Y12754803D01*
X18245197Y13011899D01*
X18475854Y13292956D01*
X18677853Y13595268D01*
X18738857Y13709398D01*
X18757377Y13744047D01*
X19925900Y13744047D01*
X19925900Y13586354D01*
X19956661Y13431711D01*
X19956664Y13431699D01*
X20017002Y13286028D01*
X20017009Y13286015D01*
X20104610Y13154912D01*
X20104613Y13154908D01*
X20216107Y13043414D01*
X20216111Y13043411D01*
X20347214Y12955810D01*
X20347227Y12955803D01*
X20492898Y12895465D01*
X20492903Y12895463D01*
X20616751Y12870828D01*
X20647553Y12864701D01*
X20647556Y12864700D01*
X20647558Y12864700D01*
X20805244Y12864700D01*
X20805245Y12864701D01*
X20959897Y12895463D01*
X21105579Y12955806D01*
X21236689Y13043411D01*
X21348189Y13154911D01*
X21435794Y13286021D01*
X21438665Y13292951D01*
X21453533Y13328847D01*
X21496137Y13431703D01*
X21526900Y13586358D01*
X21526900Y13744042D01*
X21526900Y13744045D01*
X21526899Y13744047D01*
X21521789Y13769737D01*
X21496137Y13898697D01*
X21462385Y13980182D01*
X21940035Y13980182D01*
X21940035Y13822489D01*
X21970796Y13667846D01*
X21970799Y13667834D01*
X22031137Y13522163D01*
X22031144Y13522150D01*
X22118745Y13391047D01*
X22118748Y13391043D01*
X22230242Y13279549D01*
X22230246Y13279546D01*
X22361349Y13191945D01*
X22361362Y13191938D01*
X22450762Y13154908D01*
X22507038Y13131598D01*
X22620012Y13109126D01*
X22661688Y13100836D01*
X22661691Y13100835D01*
X22661693Y13100835D01*
X22819379Y13100835D01*
X22819380Y13100836D01*
X22974032Y13131598D01*
X23119714Y13191941D01*
X23250824Y13279546D01*
X23362324Y13391046D01*
X23449929Y13522156D01*
X23510272Y13667838D01*
X23541035Y13822493D01*
X23541035Y13980177D01*
X23541035Y13980180D01*
X23541034Y13980182D01*
X23533166Y14019737D01*
X23510272Y14134832D01*
X23510270Y14134837D01*
X23449932Y14280508D01*
X23449924Y14280524D01*
X23362324Y14411624D01*
X23362321Y14411628D01*
X23250827Y14523122D01*
X23250823Y14523125D01*
X23119720Y14610726D01*
X23119707Y14610733D01*
X22974036Y14671071D01*
X22974024Y14671074D01*
X22819380Y14701835D01*
X22819377Y14701835D01*
X22661693Y14701835D01*
X22661690Y14701835D01*
X22507045Y14671074D01*
X22507033Y14671071D01*
X22361362Y14610733D01*
X22361349Y14610726D01*
X22230246Y14523125D01*
X22230242Y14523122D01*
X22118748Y14411628D01*
X22118745Y14411624D01*
X22031144Y14280521D01*
X22031137Y14280508D01*
X21970799Y14134837D01*
X21970796Y14134825D01*
X21940035Y13980182D01*
X21462385Y13980182D01*
X21458781Y13988883D01*
X21435797Y14044373D01*
X21435790Y14044386D01*
X21348189Y14175489D01*
X21348186Y14175493D01*
X21236692Y14286987D01*
X21236688Y14286990D01*
X21105585Y14374591D01*
X21105572Y14374598D01*
X20959901Y14434936D01*
X20959889Y14434939D01*
X20805245Y14465700D01*
X20805242Y14465700D01*
X20647558Y14465700D01*
X20647555Y14465700D01*
X20492910Y14434939D01*
X20492898Y14434936D01*
X20347227Y14374598D01*
X20347214Y14374591D01*
X20216111Y14286990D01*
X20216107Y14286987D01*
X20104613Y14175493D01*
X20104610Y14175489D01*
X20017009Y14044386D01*
X20017002Y14044373D01*
X19956664Y13898702D01*
X19956661Y13898690D01*
X19925900Y13744047D01*
X18757377Y13744047D01*
X18791875Y13808587D01*
X18840039Y13898697D01*
X18849247Y13915924D01*
X18988386Y14251836D01*
X19093930Y14599767D01*
X19093932Y14599777D01*
X19093935Y14599788D01*
X19158837Y14926080D01*
X19164862Y14956369D01*
X19200500Y15318206D01*
X19200500Y15681794D01*
X19164862Y16043631D01*
X19155854Y16088918D01*
X19093935Y16400213D01*
X19093932Y16400224D01*
X19093931Y16400227D01*
X19093930Y16400233D01*
X18988386Y16748164D01*
X18849247Y17084076D01*
X18828800Y17122329D01*
X18677859Y17404721D01*
X18677858Y17404723D01*
X18677853Y17404732D01*
X18475854Y17707044D01*
X18245197Y17988101D01*
X18245196Y17988102D01*
X18245192Y17988107D01*
X17988106Y18245193D01*
X17707049Y18475850D01*
X17707048Y18475851D01*
X17707044Y18475854D01*
X17404732Y18677853D01*
X17404727Y18677856D01*
X17404720Y18677860D01*
X17084083Y18849244D01*
X17084078Y18849246D01*
X16748165Y18988386D01*
X16400223Y19093933D01*
X16400212Y19093936D01*
X16043630Y19164863D01*
X15771111Y19191704D01*
X15681794Y19200500D01*
X15318206Y19200500D01*
X15235679Y19192372D01*
X14956369Y19164863D01*
X14599787Y19093936D01*
X14599776Y19093933D01*
X14251834Y18988386D01*
X13915921Y18849246D01*
X13915916Y18849244D01*
X13595279Y18677860D01*
X13595261Y18677849D01*
X13292964Y18475860D01*
X13292950Y18475850D01*
X13011893Y18245193D01*
X12754807Y17988107D01*
X12524150Y17707050D01*
X12524140Y17707036D01*
X12322151Y17404739D01*
X12322140Y17404721D01*
X12150756Y17084084D01*
X12150754Y17084079D01*
X12011614Y16748166D01*
X11906067Y16400224D01*
X11906064Y16400213D01*
X11835137Y16043631D01*
X11810756Y15796082D01*
X11799500Y15681794D01*
X7715156Y15681794D01*
X7618917Y15721657D01*
X7618907Y15721660D01*
X7473920Y15750500D01*
X7473918Y15750500D01*
X7326082Y15750500D01*
X7326080Y15750500D01*
X7175113Y15720470D01*
X7174828Y15721900D01*
X7112227Y15721343D01*
X7058423Y15752945D01*
X6978419Y15832949D01*
X6978415Y15832952D01*
X6855501Y15915081D01*
X6855488Y15915088D01*
X6718917Y15971657D01*
X6718907Y15971660D01*
X6573920Y16000500D01*
X6573918Y16000500D01*
X6426082Y16000500D01*
X6426077Y16000500D01*
X6422004Y16000099D01*
X6353359Y16013120D01*
X6302650Y16061186D01*
X6288237Y16099308D01*
X6284258Y16119313D01*
X6240276Y16225495D01*
X6227687Y16255889D01*
X6227680Y16255902D01*
X6145551Y16378816D01*
X6145548Y16378820D01*
X6041019Y16483349D01*
X6041015Y16483352D01*
X5918101Y16565481D01*
X5918088Y16565488D01*
X5781517Y16622057D01*
X5781507Y16622060D01*
X5636520Y16650900D01*
X5636518Y16650900D01*
X5488682Y16650900D01*
X5488680Y16650900D01*
X5343692Y16622060D01*
X5343686Y16622058D01*
X5270295Y16591658D01*
X5208132Y16565909D01*
X5201478Y16563153D01*
X5200942Y16564446D01*
X5139443Y16551653D01*
X5101963Y16560690D01*
X4978917Y16611657D01*
X4978907Y16611660D01*
X4833920Y16640500D01*
X4833918Y16640500D01*
X4686082Y16640500D01*
X4686080Y16640500D01*
X4541092Y16611660D01*
X4541086Y16611658D01*
X4404508Y16555086D01*
X4404494Y16555078D01*
X4387887Y16543982D01*
X4321209Y16523107D01*
X4272034Y16534953D01*
X4271124Y16532753D01*
X4128917Y16591657D01*
X4128907Y16591660D01*
X3983920Y16620500D01*
X3983918Y16620500D01*
X3836082Y16620500D01*
X3836080Y16620500D01*
X3691092Y16591660D01*
X3691082Y16591657D01*
X3554511Y16535088D01*
X3554498Y16535081D01*
X3431584Y16452952D01*
X3431580Y16452949D01*
X3327051Y16348420D01*
X3327048Y16348416D01*
X3244919Y16225502D01*
X3244912Y16225489D01*
X3188343Y16088918D01*
X3188340Y16088908D01*
X3159500Y15943921D01*
X3159500Y15943918D01*
X3159500Y15796082D01*
X3159500Y15796080D01*
X3159499Y15796080D01*
X-11810756Y15796080D01*
X-11828663Y15977885D01*
X-11835138Y16043631D01*
X-11906065Y16400213D01*
X-11906068Y16400224D01*
X-11906069Y16400227D01*
X-11906070Y16400233D01*
X-12011614Y16748164D01*
X-12150753Y17084076D01*
X-12171200Y17122329D01*
X-12322141Y17404721D01*
X-12322142Y17404723D01*
X-12322147Y17404732D01*
X-12524146Y17707044D01*
X-12754803Y17988101D01*
X-12754804Y17988102D01*
X-12754808Y17988107D01*
X-13011894Y18245193D01*
X-13292951Y18475850D01*
X-13292952Y18475851D01*
X-13292956Y18475854D01*
X-13595268Y18677853D01*
X-13595273Y18677856D01*
X-13595280Y18677860D01*
X-13915917Y18849244D01*
X-13915922Y18849246D01*
X-14251835Y18988386D01*
X-14599777Y19093933D01*
X-14599788Y19093936D01*
X-14956370Y19164863D01*
X-15228889Y19191704D01*
X-15318206Y19200500D01*
X-15681794Y19200500D01*
X-15764321Y19192372D01*
X-16043631Y19164863D01*
X-16400213Y19093936D01*
X-16400224Y19093933D01*
X-16748166Y18988386D01*
X-17084079Y18849246D01*
X-17084084Y18849244D01*
X-17404721Y18677860D01*
X-17404739Y18677849D01*
X-17707036Y18475860D01*
X-17707050Y18475850D01*
X-17988107Y18245193D01*
X-18245193Y17988107D01*
X-18475850Y17707050D01*
X-18475860Y17707036D01*
X-18677849Y17404739D01*
X-18677860Y17404721D01*
X-18849244Y17084084D01*
X-18849246Y17084079D01*
X-18988386Y16748166D01*
X-19093933Y16400224D01*
X-19093936Y16400213D01*
X-19164863Y16043631D01*
X-19189244Y15796082D01*
X-19200500Y15681794D01*
X-22259501Y15681794D01*
X-22259501Y15888408D01*
X-22259501Y16927871D01*
X-22259502Y16927877D01*
X-22259503Y16927884D01*
X-22265909Y16987483D01*
X-22275101Y17012127D01*
X-22316203Y17122329D01*
X-22316207Y17122336D01*
X-22402453Y17237545D01*
X-22402456Y17237548D01*
X-22517665Y17323794D01*
X-22525454Y17328047D01*
X-22523669Y17331317D01*
X-22565552Y17362716D01*
X-22589922Y17428197D01*
X-22575022Y17496460D01*
X-22566559Y17509829D01*
X-22476657Y17633567D01*
X-22369432Y17844008D01*
X-22296447Y18068632D01*
X-22289007Y18115606D01*
X-22259500Y18301903D01*
X-22259500Y18538098D01*
X-22296447Y18771369D01*
X-22338206Y18899889D01*
X-22369432Y18995992D01*
X-22369434Y18995995D01*
X-22369434Y18995997D01*
X-22427029Y19109033D01*
X-22476657Y19206433D01*
X-22615483Y19397510D01*
X-22782490Y19564517D01*
X-22973567Y19703343D01*
X-23033717Y19733991D01*
X-23184004Y19810567D01*
X-23408632Y19883554D01*
X-23641903Y19920500D01*
X-23641908Y19920500D01*
X-23878092Y19920500D01*
X-23878097Y19920500D01*
X-24111369Y19883554D01*
X-24335997Y19810567D01*
X-24546434Y19703343D01*
X-24628135Y19643983D01*
X-24737510Y19564517D01*
X-24737512Y19564515D01*
X-24737513Y19564515D01*
X-24904515Y19397513D01*
X-24904515Y19397512D01*
X-24904517Y19397510D01*
X-24944183Y19342915D01*
X-25043343Y19206434D01*
X-25150567Y18995997D01*
X-25223554Y18771369D01*
X-25260500Y18538098D01*
X-31593002Y18538098D01*
X-31643092Y18692256D01*
X-31721696Y18846525D01*
X-31823468Y18986603D01*
X-31945898Y19109033D01*
X-32085976Y19210805D01*
X-32240243Y19289409D01*
X-32404916Y19342915D01*
X-32575929Y19370000D01*
X-32812500Y19370000D01*
X-32812500Y18669999D01*
X-33312500Y18669999D01*
X-33312500Y19296890D01*
X-33305713Y19320004D01*
X-33303216Y19343968D01*
X-33295095Y19356165D01*
X-33292815Y19363929D01*
X-33285306Y19374380D01*
X-33281030Y19379723D01*
X-33222015Y19438737D01*
X-33165997Y19535763D01*
X-33137000Y19643982D01*
X-33137000Y19756018D01*
X-33165997Y19864237D01*
X-33222015Y19961263D01*
X-33301237Y20040485D01*
X-33398263Y20096503D01*
X-33506482Y20125500D01*
X-33618518Y20125500D01*
X-33726737Y20096503D01*
X-33726740Y20096502D01*
X-33823760Y20040487D01*
X-33823766Y20040483D01*
X-33902983Y19961266D01*
X-33902987Y19961260D01*
X-33959002Y19864240D01*
X-33959003Y19864237D01*
X-33988000Y19756018D01*
X-33988000Y19643982D01*
X-33966707Y19564517D01*
X-33959003Y19535764D01*
X-33959002Y19535761D01*
X-33898921Y19431698D01*
X-33901342Y19430301D01*
X-33881053Y19377817D01*
X-33895092Y19309373D01*
X-33943907Y19259384D01*
X-33948328Y19257018D01*
X-34039020Y19210808D01*
X-34179103Y19109033D01*
X-34301533Y18986603D01*
X-34403305Y18846525D01*
X-34481909Y18692256D01*
X-34535415Y18527585D01*
X-34536616Y18520001D01*
X-35868385Y18520001D01*
X-35869586Y18527585D01*
X-35923092Y18692256D01*
X-36001696Y18846525D01*
X-36103468Y18986603D01*
X-36225898Y19109033D01*
X-36365976Y19210805D01*
X-36520243Y19289409D01*
X-36684916Y19342915D01*
X-36855929Y19370000D01*
X-36992500Y19370000D01*
X-36992500Y18669999D01*
X-37492500Y18669999D01*
X-37492500Y19370000D01*
X-37629071Y19370000D01*
X-37800085Y19342915D01*
X-37964758Y19289409D01*
X-38119025Y19210805D01*
X-38259103Y19109033D01*
X-38381533Y18986603D01*
X-38483305Y18846525D01*
X-38561909Y18692256D01*
X-38615415Y18527585D01*
X-38616616Y18520001D01*
X-40000000Y18520001D01*
X-40000000Y23428847D01*
X-34500500Y23428847D01*
X-34500500Y23271154D01*
X-34469739Y23116511D01*
X-34469736Y23116499D01*
X-34409398Y22970828D01*
X-34409391Y22970815D01*
X-34321790Y22839712D01*
X-34321787Y22839708D01*
X-34319760Y22837681D01*
X-34319038Y22836358D01*
X-34317924Y22835001D01*
X-34318182Y22834790D01*
X-34286275Y22776358D01*
X-34291259Y22706666D01*
X-34317999Y22665061D01*
X-34317924Y22664999D01*
X-34318448Y22664361D01*
X-34319760Y22662319D01*
X-34321787Y22660293D01*
X-34321790Y22660289D01*
X-34409391Y22529186D01*
X-34409398Y22529173D01*
X-34469736Y22383502D01*
X-34469739Y22383490D01*
X-34500500Y22228847D01*
X-34500500Y22071154D01*
X-34469739Y21916511D01*
X-34469736Y21916499D01*
X-34409398Y21770828D01*
X-34409391Y21770815D01*
X-34321790Y21639712D01*
X-34321787Y21639708D01*
X-34210293Y21528214D01*
X-34210289Y21528211D01*
X-34079186Y21440610D01*
X-34079173Y21440603D01*
X-33968045Y21394573D01*
X-33933497Y21380263D01*
X-33778847Y21349501D01*
X-33778844Y21349500D01*
X-33778842Y21349500D01*
X-33621156Y21349500D01*
X-33621155Y21349501D01*
X-33466503Y21380263D01*
X-33320821Y21440606D01*
X-33189711Y21528211D01*
X-33078211Y21639711D01*
X-32990606Y21770821D01*
X-32930263Y21916503D01*
X-32899500Y22071158D01*
X-32899500Y22228842D01*
X-32899500Y22228845D01*
X-32899501Y22228847D01*
X-32916677Y22315194D01*
X-32930263Y22383497D01*
X-32941538Y22410718D01*
X-32990603Y22529173D01*
X-32990610Y22529186D01*
X-33078211Y22660289D01*
X-33080234Y22662312D01*
X-33080957Y22663635D01*
X-33082076Y22664999D01*
X-33081818Y22665212D01*
X-33113724Y22723632D01*
X-33108745Y22793324D01*
X-33082001Y22834940D01*
X-33082076Y22835001D01*
X-33081546Y22835649D01*
X-33080234Y22837688D01*
X-33078211Y22839711D01*
X-32990606Y22970821D01*
X-32930263Y23116503D01*
X-32923347Y23151272D01*
X-14979500Y23151272D01*
X-14979500Y22983729D01*
X-14946818Y22819426D01*
X-14946816Y22819418D01*
X-14882703Y22664636D01*
X-14882702Y22664634D01*
X-14880530Y22661383D01*
X-14879917Y22659424D01*
X-14879833Y22659267D01*
X-14879863Y22659252D01*
X-14859657Y22594704D01*
X-14878146Y22527325D01*
X-14880530Y22523617D01*
X-14882702Y22520367D01*
X-14882703Y22520365D01*
X-14946816Y22365583D01*
X-14946818Y22365575D01*
X-14979500Y22201272D01*
X-14979500Y22033729D01*
X-14946818Y21869426D01*
X-14946816Y21869418D01*
X-14882705Y21714640D01*
X-14789627Y21575338D01*
X-14671163Y21456874D01*
X-14578506Y21394963D01*
X-14531863Y21363797D01*
X-14377082Y21299684D01*
X-14212772Y21267001D01*
X-14212768Y21267000D01*
X-14212767Y21267000D01*
X-14045232Y21267000D01*
X-14045231Y21267001D01*
X-13880918Y21299684D01*
X-13726137Y21363797D01*
X-13586838Y21456874D01*
X-13468374Y21575338D01*
X-13395336Y21684647D01*
X-1359300Y21684647D01*
X-1359300Y21526954D01*
X-1328539Y21372311D01*
X-1328536Y21372299D01*
X-1268198Y21226628D01*
X-1268191Y21226615D01*
X-1180590Y21095512D01*
X-1180587Y21095508D01*
X-1069093Y20984014D01*
X-1069089Y20984011D01*
X-937986Y20896410D01*
X-937973Y20896403D01*
X-815474Y20845663D01*
X-792297Y20836063D01*
X-637647Y20805301D01*
X-637644Y20805300D01*
X-637642Y20805300D01*
X-479956Y20805300D01*
X-479955Y20805301D01*
X-325303Y20836063D01*
X-179621Y20896406D01*
X-179616Y20896410D01*
X-179613Y20896411D01*
X-139211Y20923408D01*
X-93500Y20953951D01*
X-26824Y20974829D01*
X40557Y20956345D01*
X44227Y20953987D01*
X78021Y20931406D01*
X223703Y20871063D01*
X378353Y20840301D01*
X378356Y20840300D01*
X378358Y20840300D01*
X536044Y20840300D01*
X536045Y20840301D01*
X690697Y20871063D01*
X836379Y20931406D01*
X967489Y21019011D01*
X974316Y21025839D01*
X1035635Y21059325D01*
X1105327Y21054344D01*
X1149680Y21025841D01*
X1191507Y20984014D01*
X1191511Y20984011D01*
X1322614Y20896410D01*
X1322627Y20896403D01*
X1445126Y20845663D01*
X1468303Y20836063D01*
X1622953Y20805301D01*
X1622956Y20805300D01*
X1622958Y20805300D01*
X1780644Y20805300D01*
X1780645Y20805301D01*
X1935297Y20836063D01*
X2080979Y20896406D01*
X2212089Y20984011D01*
X2212097Y20984020D01*
X2213779Y20985399D01*
X2214843Y20985852D01*
X2217154Y20987395D01*
X2217446Y20986958D01*
X2278087Y21012717D01*
X2346955Y21000932D01*
X2361343Y20992654D01*
X2491014Y20906010D01*
X2491021Y20906006D01*
X2586233Y20866568D01*
X2640635Y20822729D01*
X2655731Y20787201D01*
X2657494Y20787735D01*
X2659264Y20781899D01*
X2719602Y20636228D01*
X2719609Y20636215D01*
X2807210Y20505112D01*
X2807213Y20505108D01*
X2918708Y20393613D01*
X2918711Y20393611D01*
X2958668Y20366913D01*
X3003472Y20313302D01*
X3013777Y20263811D01*
X3013777Y20235437D01*
X3044538Y20080794D01*
X3044541Y20080782D01*
X3104879Y19935111D01*
X3104886Y19935098D01*
X3192487Y19803995D01*
X3192490Y19803991D01*
X3303984Y19692497D01*
X3303988Y19692494D01*
X3435091Y19604893D01*
X3435095Y19604891D01*
X3435098Y19604889D01*
X3535971Y19563107D01*
X3590371Y19519268D01*
X3610133Y19472739D01*
X3624461Y19400709D01*
X3624464Y19400699D01*
X3684802Y19255028D01*
X3684809Y19255015D01*
X3772410Y19123912D01*
X3772413Y19123908D01*
X3883907Y19012414D01*
X3883911Y19012411D01*
X4015014Y18924810D01*
X4015027Y18924803D01*
X4075176Y18899889D01*
X4160703Y18864463D01*
X4225571Y18851561D01*
X4287480Y18819178D01*
X4315940Y18777396D01*
X4370602Y18645428D01*
X4370609Y18645415D01*
X4458210Y18514312D01*
X4458213Y18514308D01*
X4569707Y18402814D01*
X4569711Y18402811D01*
X4700814Y18315210D01*
X4700827Y18315203D01*
X4846498Y18254865D01*
X4846503Y18254863D01*
X4891888Y18245836D01*
X4955266Y18233228D01*
X5017177Y18200843D01*
X5045636Y18159064D01*
X5107204Y18010424D01*
X5107209Y18010415D01*
X5194810Y17879312D01*
X5194813Y17879308D01*
X5306307Y17767814D01*
X5306311Y17767811D01*
X5437414Y17680210D01*
X5437427Y17680203D01*
X5550018Y17633567D01*
X5583103Y17619863D01*
X5737753Y17589101D01*
X5737756Y17589100D01*
X5737758Y17589100D01*
X5895444Y17589100D01*
X5895445Y17589101D01*
X6050097Y17619863D01*
X6195779Y17680206D01*
X6326889Y17767811D01*
X6438389Y17879311D01*
X6525994Y18010421D01*
X6586337Y18156103D01*
X6617100Y18310758D01*
X6617100Y18468442D01*
X6617100Y18468445D01*
X6617099Y18468447D01*
X6606134Y18523569D01*
X6586337Y18623097D01*
X6563658Y18677849D01*
X6525997Y18768773D01*
X6525990Y18768786D01*
X6438389Y18899889D01*
X6438386Y18899893D01*
X6326892Y19011387D01*
X6326888Y19011390D01*
X6195785Y19098991D01*
X6195772Y19098998D01*
X6050101Y19159336D01*
X6050091Y19159339D01*
X5941332Y19180973D01*
X5879421Y19213358D01*
X5850963Y19255138D01*
X5789397Y19403773D01*
X5789390Y19403786D01*
X5701789Y19534889D01*
X5701786Y19534893D01*
X5590292Y19646387D01*
X5590288Y19646390D01*
X5459185Y19733991D01*
X5459172Y19733998D01*
X5313501Y19794336D01*
X5313491Y19794339D01*
X5248627Y19807241D01*
X5186716Y19839626D01*
X5158261Y19881401D01*
X5103594Y20013379D01*
X5103592Y20013382D01*
X5103590Y20013386D01*
X5015989Y20144489D01*
X5015986Y20144493D01*
X4904492Y20255987D01*
X4904488Y20255990D01*
X4773385Y20343591D01*
X4773376Y20343596D01*
X4672506Y20385377D01*
X4618103Y20429218D01*
X4598342Y20475744D01*
X4584014Y20547780D01*
X4568928Y20584201D01*
X4523674Y20693456D01*
X4523667Y20693469D01*
X4436066Y20824572D01*
X4436063Y20824576D01*
X4324570Y20936069D01*
X4294225Y20956345D01*
X4284606Y20962773D01*
X4239803Y21016385D01*
X4229500Y21065873D01*
X4229500Y21094245D01*
X4229499Y21094247D01*
X4203168Y21226621D01*
X4198737Y21248897D01*
X4177701Y21299683D01*
X4138397Y21394573D01*
X4138390Y21394586D01*
X4050789Y21525689D01*
X4050786Y21525693D01*
X3939292Y21637187D01*
X3939288Y21637190D01*
X3808185Y21724791D01*
X3808172Y21724798D01*
X3712967Y21764232D01*
X3658563Y21808072D01*
X3643507Y21843611D01*
X3641706Y21843064D01*
X3639938Y21848890D01*
X3639937Y21848897D01*
X3583573Y21984973D01*
X3579597Y21994573D01*
X3579590Y21994586D01*
X3491989Y22125689D01*
X3491986Y22125693D01*
X3380492Y22237187D01*
X3380488Y22237190D01*
X3249385Y22324791D01*
X3249372Y22324798D01*
X3103701Y22385136D01*
X3103689Y22385139D01*
X2949045Y22415900D01*
X2949042Y22415900D01*
X2791358Y22415900D01*
X2791355Y22415900D01*
X2636710Y22385139D01*
X2636698Y22385136D01*
X2491027Y22324798D01*
X2491014Y22324791D01*
X2359908Y22237188D01*
X2358204Y22235789D01*
X2357137Y22235337D01*
X2354846Y22233805D01*
X2354555Y22234240D01*
X2293891Y22208481D01*
X2225025Y22220279D01*
X2210656Y22228547D01*
X2080985Y22315191D01*
X2080972Y22315198D01*
X1935301Y22375536D01*
X1935289Y22375539D01*
X1780645Y22406300D01*
X1780642Y22406300D01*
X1622958Y22406300D01*
X1622953Y22406300D01*
X1469137Y22375704D01*
X1399545Y22381931D01*
X1344368Y22424794D01*
X1321124Y22490684D01*
X1337192Y22558681D01*
X1376054Y22600422D01*
X1397520Y22614765D01*
X1515984Y22733229D01*
X1609061Y22872528D01*
X1673174Y23027309D01*
X1705858Y23191624D01*
X1705858Y23359158D01*
X1673174Y23523473D01*
X1609061Y23678254D01*
X1563822Y23745959D01*
X1515984Y23817554D01*
X1397520Y23936018D01*
X1258218Y24029096D01*
X1103440Y24093207D01*
X1103432Y24093209D01*
X939129Y24125891D01*
X939125Y24125891D01*
X771591Y24125891D01*
X771586Y24125891D01*
X607283Y24093209D01*
X607280Y24093208D01*
X607279Y24093208D01*
X607276Y24093207D01*
X554455Y24071328D01*
X519656Y24056914D01*
X450186Y24049446D01*
X403314Y24068373D01*
X360769Y24096801D01*
X360766Y24096803D01*
X360765Y24096803D01*
X205988Y24160914D01*
X205980Y24160916D01*
X41677Y24193598D01*
X41673Y24193598D01*
X-125861Y24193598D01*
X-125866Y24193598D01*
X-290169Y24160916D01*
X-290177Y24160914D01*
X-444955Y24096803D01*
X-584257Y24003725D01*
X-702721Y23885261D01*
X-795799Y23745959D01*
X-859910Y23591181D01*
X-859912Y23591173D01*
X-892594Y23426870D01*
X-892594Y23259327D01*
X-859912Y23095024D01*
X-859910Y23095016D01*
X-795799Y22940238D01*
X-702721Y22800936D01*
X-584260Y22682475D01*
X-584256Y22682472D01*
X-510818Y22633402D01*
X-466013Y22579790D01*
X-457306Y22510465D01*
X-487460Y22447438D01*
X-546903Y22410718D01*
X-579709Y22406300D01*
X-637645Y22406300D01*
X-792290Y22375539D01*
X-792302Y22375536D01*
X-937973Y22315198D01*
X-937986Y22315191D01*
X-1069089Y22227590D01*
X-1069093Y22227587D01*
X-1180587Y22116093D01*
X-1180590Y22116089D01*
X-1268191Y21984986D01*
X-1268198Y21984973D01*
X-1328536Y21839302D01*
X-1328539Y21839290D01*
X-1359300Y21684647D01*
X-13395336Y21684647D01*
X-13375297Y21714637D01*
X-13311184Y21869418D01*
X-13278500Y22033733D01*
X-13278500Y22201267D01*
X-13311184Y22365582D01*
X-13375297Y22520363D01*
X-13377464Y22523607D01*
X-13378078Y22525564D01*
X-13378166Y22525730D01*
X-13378135Y22525747D01*
X-13398345Y22590279D01*
X-13379865Y22657660D01*
X-13377491Y22661355D01*
X-13375297Y22664637D01*
X-13311184Y22819418D01*
X-13278500Y22983733D01*
X-13278500Y23151267D01*
X-13311184Y23315582D01*
X-13375297Y23470363D01*
X-13450894Y23583502D01*
X-13468374Y23609663D01*
X-13586838Y23728127D01*
X-13726140Y23821205D01*
X-13880918Y23885316D01*
X-13880926Y23885318D01*
X-14045229Y23918000D01*
X-14045233Y23918000D01*
X-14212767Y23918000D01*
X-14212772Y23918000D01*
X-14377075Y23885318D01*
X-14377083Y23885316D01*
X-14531861Y23821205D01*
X-14671163Y23728127D01*
X-14789627Y23609663D01*
X-14882705Y23470361D01*
X-14946816Y23315583D01*
X-14946818Y23315575D01*
X-14979500Y23151272D01*
X-32923347Y23151272D01*
X-32901853Y23259327D01*
X-32899500Y23271156D01*
X-32899500Y23428845D01*
X-32899501Y23428847D01*
X-32918322Y23523466D01*
X-32930263Y23583497D01*
X-32941101Y23609663D01*
X-32990603Y23729173D01*
X-32990610Y23729186D01*
X-33078211Y23860289D01*
X-33078214Y23860293D01*
X-33189708Y23971787D01*
X-33189712Y23971790D01*
X-33320815Y24059391D01*
X-33320828Y24059398D01*
X-33466499Y24119736D01*
X-33466511Y24119739D01*
X-33621155Y24150500D01*
X-33621158Y24150500D01*
X-33778842Y24150500D01*
X-33778845Y24150500D01*
X-33933490Y24119739D01*
X-33933502Y24119736D01*
X-34079173Y24059398D01*
X-34079186Y24059391D01*
X-34210289Y23971790D01*
X-34210293Y23971787D01*
X-34321787Y23860293D01*
X-34321790Y23860289D01*
X-34409391Y23729186D01*
X-34409398Y23729173D01*
X-34469736Y23583502D01*
X-34469739Y23583490D01*
X-34500500Y23428847D01*
X-40000000Y23428847D01*
X-40000000Y24470611D01*
X18482900Y24470611D01*
X18482900Y24297390D01*
X18504515Y24160914D01*
X18509998Y24126299D01*
X18563527Y23961555D01*
X18642168Y23807212D01*
X18743986Y23667072D01*
X18866472Y23544586D01*
X19006612Y23442768D01*
X19160955Y23364127D01*
X19325699Y23310598D01*
X19496789Y23283500D01*
X19496790Y23283500D01*
X19670010Y23283500D01*
X19670011Y23283500D01*
X19841101Y23310598D01*
X20005845Y23364127D01*
X20160188Y23442768D01*
X20300328Y23544586D01*
X20422814Y23667072D01*
X20524632Y23807212D01*
X20603273Y23961555D01*
X20656802Y24126299D01*
X20683900Y24297389D01*
X20683900Y24470611D01*
X20656802Y24641701D01*
X20603273Y24806445D01*
X20524632Y24960788D01*
X20422814Y25100928D01*
X20300328Y25223414D01*
X20160188Y25325232D01*
X20005845Y25403873D01*
X19841101Y25457402D01*
X19841099Y25457403D01*
X19841098Y25457403D01*
X19709671Y25478219D01*
X19670011Y25484500D01*
X19496789Y25484500D01*
X19457128Y25478219D01*
X19325702Y25457403D01*
X19160952Y25403872D01*
X19006611Y25325232D01*
X18926656Y25267141D01*
X18866472Y25223414D01*
X18866470Y25223412D01*
X18866469Y25223412D01*
X18743988Y25100931D01*
X18743988Y25100930D01*
X18743986Y25100928D01*
X18728875Y25080129D01*
X18642168Y24960789D01*
X18563528Y24806448D01*
X18509997Y24641698D01*
X18482900Y24470611D01*
X-40000000Y24470611D01*
X-40000000Y27180001D01*
X-38616616Y27180001D01*
X-38616615Y27180000D01*
X-37858184Y27180000D01*
X-37862579Y27175605D01*
X-37915240Y27084394D01*
X-37942499Y26982661D01*
X-37942499Y26877339D01*
X-37915240Y26775606D01*
X-37862579Y26684395D01*
X-37858184Y26680000D01*
X-38616615Y26680000D01*
X-38615415Y26672416D01*
X-38561909Y26507745D01*
X-38483305Y26353476D01*
X-38381533Y26213398D01*
X-38259103Y26090968D01*
X-38119025Y25989196D01*
X-37964758Y25910592D01*
X-37800085Y25857086D01*
X-37629071Y25830000D01*
X-37492500Y25830000D01*
X-37492500Y26530001D01*
X-36992500Y26530001D01*
X-36992500Y25830000D01*
X-36855929Y25830000D01*
X-36684916Y25857086D01*
X-36520243Y25910592D01*
X-36365976Y25989196D01*
X-36225898Y26090968D01*
X-36103468Y26213398D01*
X-36001696Y26353476D01*
X-35923092Y26507745D01*
X-35869586Y26672416D01*
X-35868385Y26680000D01*
X-36626816Y26680000D01*
X-36622421Y26684395D01*
X-36569760Y26775606D01*
X-36542501Y26877339D01*
X-36542501Y26982661D01*
X-36569760Y27084394D01*
X-36622421Y27175605D01*
X-36626816Y27180000D01*
X-35868385Y27180000D01*
X-35868385Y27180001D01*
X-34536616Y27180001D01*
X-34536615Y27180000D01*
X-33778196Y27180000D01*
X-33782591Y27175605D01*
X-33835252Y27084394D01*
X-33862511Y26982661D01*
X-33862511Y26877339D01*
X-33835252Y26775606D01*
X-33782591Y26684395D01*
X-33778196Y26680000D01*
X-34536615Y26680000D01*
X-34535415Y26672416D01*
X-34481909Y26507745D01*
X-34403305Y26353476D01*
X-34301533Y26213398D01*
X-34179103Y26090968D01*
X-34039025Y25989196D01*
X-33948328Y25942984D01*
X-33897532Y25895010D01*
X-33880737Y25827189D01*
X-33900495Y25769211D01*
X-33898921Y25768302D01*
X-33959002Y25664240D01*
X-33959003Y25664237D01*
X-33988000Y25556018D01*
X-33988000Y25443982D01*
X-33959003Y25335763D01*
X-33902985Y25238737D01*
X-33823763Y25159515D01*
X-33726737Y25103497D01*
X-33618518Y25074500D01*
X-33618516Y25074500D01*
X-33506484Y25074500D01*
X-33506482Y25074500D01*
X-33398263Y25103497D01*
X-33301237Y25159515D01*
X-33222015Y25238737D01*
X-33165997Y25335763D01*
X-33137000Y25443982D01*
X-33137000Y25556018D01*
X-33165997Y25664237D01*
X-33222015Y25761263D01*
X-33276182Y25815430D01*
X-33309666Y25876754D01*
X-33312500Y25903111D01*
X-33312500Y26530001D01*
X-32812500Y26530001D01*
X-32812500Y25830000D01*
X-32575929Y25830000D01*
X-32404916Y25857086D01*
X-32240243Y25910592D01*
X-32085976Y25989196D01*
X-31945898Y26090968D01*
X-31850255Y26186611D01*
X-17737500Y26186611D01*
X-17737500Y26013389D01*
X-17710402Y25842299D01*
X-17656873Y25677555D01*
X-17578232Y25523212D01*
X-17476414Y25383072D01*
X-17353928Y25260586D01*
X-17213788Y25158768D01*
X-17059445Y25080127D01*
X-16894701Y25026598D01*
X-16723611Y24999500D01*
X-16723610Y24999500D01*
X-16550390Y24999500D01*
X-16550389Y24999500D01*
X-16379299Y25026598D01*
X-16214555Y25080127D01*
X-16060212Y25158768D01*
X-15920072Y25260586D01*
X-15797586Y25383072D01*
X-15695768Y25523212D01*
X-15617127Y25677555D01*
X-15563598Y25842299D01*
X-15536500Y26013389D01*
X-15536500Y26186611D01*
X-15563598Y26357701D01*
X-15617127Y26522445D01*
X-15695768Y26676788D01*
X-15797586Y26816928D01*
X-15920072Y26939414D01*
X-16060212Y27041232D01*
X-16214555Y27119873D01*
X-16379299Y27173402D01*
X-16379301Y27173403D01*
X-16379302Y27173403D01*
X-16510729Y27194219D01*
X-16550389Y27200500D01*
X-16723611Y27200500D01*
X-16763272Y27194219D01*
X-16894698Y27173403D01*
X-17059448Y27119872D01*
X-17213789Y27041232D01*
X-17293744Y26983141D01*
X-17353928Y26939414D01*
X-17353930Y26939412D01*
X-17353931Y26939412D01*
X-17476412Y26816931D01*
X-17476412Y26816930D01*
X-17476414Y26816928D01*
X-17506436Y26775606D01*
X-17578232Y26676789D01*
X-17656872Y26522448D01*
X-17710403Y26357698D01*
X-17725185Y26264367D01*
X-17737500Y26186611D01*
X-31850255Y26186611D01*
X-31823464Y26213402D01*
X-31786436Y26264367D01*
X-31786436Y26264368D01*
X-31721699Y26353472D01*
X-31643092Y26507745D01*
X-31589586Y26672416D01*
X-31588385Y26680000D01*
X-32346804Y26680000D01*
X-32342409Y26684395D01*
X-32289748Y26775606D01*
X-32262489Y26877339D01*
X-32262489Y26982661D01*
X-32289748Y27084394D01*
X-32342409Y27175605D01*
X-32346804Y27180000D01*
X-31588385Y27180000D01*
X-31588385Y27180001D01*
X-31589586Y27187585D01*
X-31643092Y27352256D01*
X-31721696Y27506525D01*
X-31823468Y27646603D01*
X-31945898Y27769033D01*
X-32085976Y27870805D01*
X-32240243Y27949409D01*
X-32404916Y28002915D01*
X-32575929Y28030000D01*
X-32812500Y28030000D01*
X-32812500Y27329999D01*
X-33312500Y27329999D01*
X-33312500Y28030000D01*
X-33549071Y28030000D01*
X-33720085Y28002915D01*
X-33884758Y27949409D01*
X-34039025Y27870805D01*
X-34179103Y27769033D01*
X-34301533Y27646603D01*
X-34403305Y27506525D01*
X-34481909Y27352256D01*
X-34535415Y27187585D01*
X-34536616Y27180001D01*
X-35868385Y27180001D01*
X-35869586Y27187585D01*
X-35923092Y27352256D01*
X-36001696Y27506525D01*
X-36103468Y27646603D01*
X-36225898Y27769033D01*
X-36365976Y27870805D01*
X-36520243Y27949409D01*
X-36684916Y28002915D01*
X-36855929Y28030000D01*
X-36992500Y28030000D01*
X-36992500Y27329999D01*
X-37492500Y27329999D01*
X-37492500Y28030000D01*
X-37629071Y28030000D01*
X-37800085Y28002915D01*
X-37964758Y27949409D01*
X-38119025Y27870805D01*
X-38259103Y27769033D01*
X-38381533Y27646603D01*
X-38483305Y27506525D01*
X-38561909Y27352256D01*
X-38615415Y27187585D01*
X-38616616Y27180001D01*
X-40000000Y27180001D01*
X-40000000Y34731794D01*
X-38250500Y34731794D01*
X-38250500Y34368206D01*
X-38242619Y34288186D01*
X-38214863Y34006370D01*
X-38143936Y33649788D01*
X-38143933Y33649777D01*
X-38038386Y33301835D01*
X-37899246Y32965922D01*
X-37899244Y32965917D01*
X-37727860Y32645280D01*
X-37727849Y32645262D01*
X-37525860Y32342965D01*
X-37525850Y32342951D01*
X-37295193Y32061894D01*
X-37038107Y31804808D01*
X-37038102Y31804804D01*
X-37038101Y31804803D01*
X-36757044Y31574146D01*
X-36454732Y31372147D01*
X-36454723Y31372142D01*
X-36454721Y31372141D01*
X-36134084Y31200757D01*
X-36134082Y31200757D01*
X-36134076Y31200753D01*
X-35798164Y31061614D01*
X-35450233Y30956070D01*
X-35450227Y30956069D01*
X-35450224Y30956068D01*
X-35450213Y30956065D01*
X-35106516Y30887701D01*
X-35093631Y30885138D01*
X-34731794Y30849500D01*
X-34731791Y30849500D01*
X-34368209Y30849500D01*
X-34368206Y30849500D01*
X-34006369Y30885138D01*
X-33936955Y30898946D01*
X-33649788Y30956065D01*
X-33649777Y30956068D01*
X-33649777Y30956069D01*
X-33649767Y30956070D01*
X-33301836Y31061614D01*
X-32965924Y31200753D01*
X-32645268Y31372147D01*
X-32342956Y31574146D01*
X-32061899Y31804803D01*
X-31804803Y32061899D01*
X-31574146Y32342956D01*
X-31372147Y32645268D01*
X-31322425Y32738294D01*
X-31274897Y32827211D01*
X27423700Y32827211D01*
X27423700Y32653989D01*
X27450798Y32482899D01*
X27504327Y32318155D01*
X27582968Y32163812D01*
X27684786Y32023672D01*
X27807272Y31901186D01*
X27947412Y31799368D01*
X27996472Y31774371D01*
X28047268Y31726397D01*
X28064063Y31658576D01*
X28041526Y31592441D01*
X28013063Y31563568D01*
X27883470Y31469413D01*
X27760988Y31346931D01*
X27760988Y31346930D01*
X27760986Y31346928D01*
X27730506Y31304976D01*
X27659168Y31206789D01*
X27580528Y31052448D01*
X27526997Y30887698D01*
X27509526Y30777389D01*
X27499900Y30716611D01*
X27499900Y30543389D01*
X27526998Y30372299D01*
X27580527Y30207555D01*
X27659168Y30053212D01*
X27760986Y29913072D01*
X27883472Y29790586D01*
X28023612Y29688768D01*
X28177955Y29610127D01*
X28342699Y29556598D01*
X28513789Y29529500D01*
X28513790Y29529500D01*
X28687010Y29529500D01*
X28687011Y29529500D01*
X28858101Y29556598D01*
X29022845Y29610127D01*
X29177188Y29688768D01*
X29317328Y29790586D01*
X29439814Y29913072D01*
X29541632Y30053212D01*
X29620273Y30207555D01*
X29673802Y30372299D01*
X29700900Y30543389D01*
X29700900Y30716611D01*
X29673802Y30887701D01*
X29620273Y31052445D01*
X29541632Y31206788D01*
X29439814Y31346928D01*
X29317328Y31469414D01*
X29177188Y31571232D01*
X29128127Y31596230D01*
X29077331Y31644205D01*
X29060536Y31712026D01*
X29083074Y31778161D01*
X29111534Y31807031D01*
X29241128Y31901186D01*
X29363614Y32023672D01*
X29465432Y32163812D01*
X29544073Y32318155D01*
X29597602Y32482899D01*
X29624700Y32653989D01*
X29624700Y32827211D01*
X29597602Y32998301D01*
X29544073Y33163045D01*
X29465432Y33317388D01*
X29363614Y33457528D01*
X29241128Y33580014D01*
X29100988Y33681832D01*
X28946645Y33760473D01*
X28781901Y33814002D01*
X28781899Y33814003D01*
X28781898Y33814003D01*
X28650471Y33834819D01*
X28610811Y33841100D01*
X28437589Y33841100D01*
X28397928Y33834819D01*
X28266502Y33814003D01*
X28101752Y33760472D01*
X27947411Y33681832D01*
X27867456Y33623741D01*
X27807272Y33580014D01*
X27807270Y33580012D01*
X27807269Y33580012D01*
X27684788Y33457531D01*
X27684788Y33457530D01*
X27684786Y33457528D01*
X27642054Y33398712D01*
X27582968Y33317389D01*
X27504328Y33163048D01*
X27450797Y32998298D01*
X27433730Y32890536D01*
X27423700Y32827211D01*
X-31274897Y32827211D01*
X-31241048Y32890536D01*
X-31200757Y32965917D01*
X-31200753Y32965924D01*
X-31061614Y33301836D01*
X-30956070Y33649767D01*
X-30956068Y33649777D01*
X-30956065Y33649788D01*
X-30885138Y34006370D01*
X-30882170Y34036499D01*
X-30851407Y34348847D01*
X-9090500Y34348847D01*
X-9090500Y34191154D01*
X-9059739Y34036511D01*
X-9059736Y34036499D01*
X-8999398Y33890828D01*
X-8999391Y33890815D01*
X-8911790Y33759712D01*
X-8911787Y33759708D01*
X-8800293Y33648214D01*
X-8800289Y33648211D01*
X-8669186Y33560610D01*
X-8669173Y33560603D01*
X-8523502Y33500265D01*
X-8523497Y33500263D01*
X-8368847Y33469501D01*
X-8368844Y33469500D01*
X-8368842Y33469500D01*
X-8211156Y33469500D01*
X-8211155Y33469501D01*
X-8056503Y33500263D01*
X-7910821Y33560606D01*
X-7779711Y33648211D01*
X-7668211Y33759711D01*
X-7580606Y33890821D01*
X-7540417Y33987847D01*
X14922100Y33987847D01*
X14922100Y33830154D01*
X14952861Y33675511D01*
X14952864Y33675499D01*
X15013202Y33529828D01*
X15013209Y33529815D01*
X15100810Y33398712D01*
X15100813Y33398708D01*
X15212307Y33287214D01*
X15212311Y33287211D01*
X15343414Y33199610D01*
X15343427Y33199603D01*
X15489098Y33139265D01*
X15489103Y33139263D01*
X15643753Y33108501D01*
X15643756Y33108500D01*
X15643758Y33108500D01*
X15801444Y33108500D01*
X15801445Y33108501D01*
X15956097Y33139263D01*
X16101779Y33199606D01*
X16232889Y33287211D01*
X16344389Y33398711D01*
X16431994Y33529821D01*
X16492337Y33675503D01*
X16523100Y33830158D01*
X16523100Y33987842D01*
X16523100Y33987845D01*
X16523099Y33987847D01*
X16519415Y34006369D01*
X16492337Y34142497D01*
X16472181Y34191158D01*
X16431997Y34288173D01*
X16431990Y34288186D01*
X16344389Y34419289D01*
X16344386Y34419293D01*
X16232892Y34530787D01*
X16232888Y34530790D01*
X16101785Y34618391D01*
X16101778Y34618395D01*
X16097235Y34620276D01*
X16097233Y34620278D01*
X15956101Y34678736D01*
X15956089Y34678739D01*
X15801445Y34709500D01*
X15801442Y34709500D01*
X15643758Y34709500D01*
X15643755Y34709500D01*
X15489110Y34678739D01*
X15489098Y34678736D01*
X15343427Y34618398D01*
X15343414Y34618391D01*
X15212311Y34530790D01*
X15212307Y34530787D01*
X15100813Y34419293D01*
X15100810Y34419289D01*
X15013209Y34288186D01*
X15013202Y34288173D01*
X14952864Y34142502D01*
X14952861Y34142490D01*
X14922100Y33987847D01*
X-7540417Y33987847D01*
X-7520263Y34036503D01*
X-7489500Y34191158D01*
X-7489500Y34348842D01*
X-7489500Y34348845D01*
X-7489501Y34348847D01*
X-7520262Y34503490D01*
X-7520263Y34503497D01*
X-7531567Y34530787D01*
X-7580603Y34649173D01*
X-7580610Y34649186D01*
X-7635807Y34731794D01*
X30849500Y34731794D01*
X30849500Y34368206D01*
X30857381Y34288186D01*
X30885137Y34006370D01*
X30956064Y33649788D01*
X30956067Y33649777D01*
X31061614Y33301835D01*
X31200754Y32965922D01*
X31200756Y32965917D01*
X31372140Y32645280D01*
X31372151Y32645262D01*
X31574140Y32342965D01*
X31574150Y32342951D01*
X31804807Y32061894D01*
X32061893Y31804808D01*
X32061898Y31804804D01*
X32061899Y31804803D01*
X32342956Y31574146D01*
X32645268Y31372147D01*
X32645277Y31372142D01*
X32645279Y31372141D01*
X32965916Y31200757D01*
X32965918Y31200757D01*
X32965924Y31200753D01*
X33301836Y31061614D01*
X33649767Y30956070D01*
X33649773Y30956069D01*
X33649776Y30956068D01*
X33649787Y30956065D01*
X33993484Y30887701D01*
X34006369Y30885138D01*
X34368206Y30849500D01*
X34368209Y30849500D01*
X34731791Y30849500D01*
X34731794Y30849500D01*
X35093631Y30885138D01*
X35280035Y30922216D01*
X35349625Y30915989D01*
X35404803Y30873126D01*
X35428047Y30807236D01*
X35414710Y30744305D01*
X35352929Y30623051D01*
X35299397Y30458298D01*
X35272300Y30287211D01*
X35272300Y30113989D01*
X35299398Y29942899D01*
X35352927Y29778155D01*
X35431568Y29623812D01*
X35533386Y29483672D01*
X35655872Y29361186D01*
X35796012Y29259368D01*
X35950355Y29180727D01*
X36115099Y29127198D01*
X36286189Y29100100D01*
X36286190Y29100100D01*
X36459410Y29100100D01*
X36459411Y29100100D01*
X36630501Y29127198D01*
X36795245Y29180727D01*
X36949588Y29259368D01*
X37089728Y29361186D01*
X37212214Y29483672D01*
X37314032Y29623812D01*
X37392673Y29778155D01*
X37446202Y29942899D01*
X37473300Y30113989D01*
X37473300Y30287211D01*
X37446202Y30458301D01*
X37392673Y30623045D01*
X37314032Y30777388D01*
X37212214Y30917528D01*
X37089728Y31040014D01*
X36949588Y31141832D01*
X36795249Y31220472D01*
X36656550Y31265538D01*
X36598875Y31304976D01*
X36571677Y31369335D01*
X36583592Y31438181D01*
X36625979Y31486571D01*
X36757026Y31574134D01*
X36757025Y31574134D01*
X36757044Y31574146D01*
X37038101Y31804803D01*
X37295197Y32061899D01*
X37525854Y32342956D01*
X37727853Y32645268D01*
X37899247Y32965924D01*
X38038386Y33301836D01*
X38143930Y33649767D01*
X38143932Y33649777D01*
X38143935Y33649788D01*
X38214862Y34006370D01*
X38217829Y34036497D01*
X38250500Y34368206D01*
X38250500Y34731794D01*
X38214862Y35093631D01*
X38143935Y35450213D01*
X38143932Y35450224D01*
X38143931Y35450227D01*
X38143930Y35450233D01*
X38038386Y35798164D01*
X37899247Y36134076D01*
X37727853Y36454732D01*
X37525854Y36757044D01*
X37295197Y37038101D01*
X37295196Y37038102D01*
X37295192Y37038107D01*
X37038106Y37295193D01*
X36757049Y37525850D01*
X36757048Y37525851D01*
X36757044Y37525854D01*
X36454732Y37727853D01*
X36454727Y37727856D01*
X36454720Y37727860D01*
X36134083Y37899244D01*
X36134078Y37899246D01*
X35798165Y38038386D01*
X35450223Y38143933D01*
X35450212Y38143936D01*
X35093630Y38214863D01*
X34821111Y38241704D01*
X34731794Y38250500D01*
X34368206Y38250500D01*
X34285679Y38242372D01*
X34006369Y38214863D01*
X33649787Y38143936D01*
X33649776Y38143933D01*
X33301834Y38038386D01*
X32965921Y37899246D01*
X32965916Y37899244D01*
X32645279Y37727860D01*
X32645261Y37727849D01*
X32342964Y37525860D01*
X32342950Y37525850D01*
X32061893Y37295193D01*
X31804807Y37038107D01*
X31574150Y36757050D01*
X31574140Y36757036D01*
X31372151Y36454739D01*
X31372140Y36454721D01*
X31200756Y36134084D01*
X31200754Y36134079D01*
X31061614Y35798166D01*
X30956067Y35450224D01*
X30956064Y35450213D01*
X30885137Y35093631D01*
X30873886Y34979391D01*
X30849500Y34731794D01*
X-7635807Y34731794D01*
X-7668211Y34780289D01*
X-7668214Y34780293D01*
X-7779708Y34891787D01*
X-7779712Y34891790D01*
X-7910815Y34979391D01*
X-7910828Y34979398D01*
X-8056499Y35039736D01*
X-8056511Y35039739D01*
X-8211155Y35070500D01*
X-8211158Y35070500D01*
X-8368842Y35070500D01*
X-8368845Y35070500D01*
X-8523490Y35039739D01*
X-8523502Y35039736D01*
X-8669173Y34979398D01*
X-8669186Y34979391D01*
X-8800289Y34891790D01*
X-8800293Y34891787D01*
X-8911787Y34780293D01*
X-8911790Y34780289D01*
X-8999391Y34649186D01*
X-8999398Y34649173D01*
X-9059736Y34503502D01*
X-9059739Y34503490D01*
X-9090500Y34348847D01*
X-30851407Y34348847D01*
X-30849500Y34368206D01*
X-30849500Y34731794D01*
X-30885138Y35093631D01*
X-30956065Y35450213D01*
X-30956068Y35450224D01*
X-30956069Y35450227D01*
X-30956070Y35450233D01*
X-31061614Y35798164D01*
X-31200753Y36134076D01*
X-31372147Y36454732D01*
X-31443161Y36561011D01*
X-10194900Y36561011D01*
X-10194900Y36387789D01*
X-10167802Y36216699D01*
X-10114273Y36051955D01*
X-10035632Y35897612D01*
X-9933814Y35757472D01*
X-9811328Y35634986D01*
X-9671188Y35533168D01*
X-9516845Y35454527D01*
X-9352101Y35400998D01*
X-9181011Y35373900D01*
X-9181010Y35373900D01*
X-9007790Y35373900D01*
X-9007789Y35373900D01*
X-8836699Y35400998D01*
X-8671955Y35454527D01*
X-8517612Y35533168D01*
X-8377472Y35634986D01*
X-8254986Y35757472D01*
X-8153168Y35897612D01*
X-8074527Y36051955D01*
X-8020998Y36216699D01*
X-7993900Y36387789D01*
X-7993900Y36561011D01*
X-8020998Y36732101D01*
X-8074527Y36896845D01*
X-8153168Y37051188D01*
X-8254986Y37191328D01*
X-8377472Y37313814D01*
X-8517612Y37415632D01*
X-8671955Y37494273D01*
X-8836699Y37547802D01*
X-8836701Y37547803D01*
X-8836702Y37547803D01*
X-8968129Y37568619D01*
X-9007789Y37574900D01*
X-9181011Y37574900D01*
X-9220672Y37568619D01*
X-9352098Y37547803D01*
X-9516848Y37494272D01*
X-9671189Y37415632D01*
X-9751144Y37357541D01*
X-9811328Y37313814D01*
X-9811330Y37313812D01*
X-9811331Y37313812D01*
X-9933812Y37191331D01*
X-9933812Y37191330D01*
X-9933814Y37191328D01*
X-9977541Y37131144D01*
X-10035632Y37051189D01*
X-10114272Y36896848D01*
X-10167803Y36732098D01*
X-10194900Y36561011D01*
X-31443161Y36561011D01*
X-31574146Y36757044D01*
X-31804803Y37038101D01*
X-31804804Y37038102D01*
X-31804808Y37038107D01*
X-32061894Y37295193D01*
X-32342951Y37525850D01*
X-32342952Y37525851D01*
X-32342956Y37525854D01*
X-32645268Y37727853D01*
X-32645273Y37727856D01*
X-32645280Y37727860D01*
X-32965917Y37899244D01*
X-32965922Y37899246D01*
X-33301835Y38038386D01*
X-33649777Y38143933D01*
X-33649788Y38143936D01*
X-34006370Y38214863D01*
X-34278889Y38241704D01*
X-34368206Y38250500D01*
X-34731794Y38250500D01*
X-34814321Y38242372D01*
X-35093631Y38214863D01*
X-35450213Y38143936D01*
X-35450224Y38143933D01*
X-35798166Y38038386D01*
X-36134079Y37899246D01*
X-36134084Y37899244D01*
X-36454721Y37727860D01*
X-36454739Y37727849D01*
X-36757036Y37525860D01*
X-36757050Y37525850D01*
X-37038107Y37295193D01*
X-37295193Y37038107D01*
X-37525850Y36757050D01*
X-37525860Y36757036D01*
X-37727849Y36454739D01*
X-37727860Y36454721D01*
X-37899244Y36134084D01*
X-37899246Y36134079D01*
X-38038386Y35798166D01*
X-38143933Y35450224D01*
X-38143936Y35450213D01*
X-38214863Y35093631D01*
X-38226114Y34979391D01*
X-38250500Y34731794D01*
X-40000000Y34731794D01*
X-40000000Y39595500D01*
X-39980315Y39662539D01*
X-39927511Y39708294D01*
X-39876000Y39719500D01*
X39876000Y39719500D01*
X39943039Y39699815D01*
G37*
%TD.AperFunction*%
%TD*%
M02*
