%TF.GenerationSoftware,KiCad,Pcbnew,9.0.7*%
%TF.CreationDate,2026-03-10T14:53:20+01:00*%
%TF.ProjectId,MotorKontrollerV1,4d6f746f-724b-46f6-9e74-726f6c6c6572,rev?*%
%TF.SameCoordinates,Original*%
%TF.FileFunction,Legend,Bot*%
%TF.FilePolarity,Positive*%
%FSLAX46Y46*%
G04 Gerber Fmt 4.6, Leading zero omitted, Abs format (unit mm)*
G04 Created by KiCad (PCBNEW 9.0.7) date 2026-03-10 14:53:20*
%MOMM*%
%LPD*%
G01*
G04 APERTURE LIST*
%ADD10C,0.100000*%
%ADD11C,0.150000*%
%ADD12C,0.300000*%
G04 APERTURE END LIST*
D10*
X38536704Y493735D02*
X38536704Y17545D01*
X38822419Y588973D02*
X37822419Y255640D01*
X37822419Y255640D02*
X38822419Y-77693D01*
X38418609Y5252783D02*
X38466228Y5109926D01*
X38466228Y5109926D02*
X38513847Y5062307D01*
X38513847Y5062307D02*
X38609085Y5014688D01*
X38609085Y5014688D02*
X38751942Y5014688D01*
X38751942Y5014688D02*
X38847180Y5062307D01*
X38847180Y5062307D02*
X38894800Y5109926D01*
X38894800Y5109926D02*
X38942419Y5205164D01*
X38942419Y5205164D02*
X38942419Y5586116D01*
X38942419Y5586116D02*
X37942419Y5586116D01*
X37942419Y5586116D02*
X37942419Y5252783D01*
X37942419Y5252783D02*
X37990038Y5157545D01*
X37990038Y5157545D02*
X38037657Y5109926D01*
X38037657Y5109926D02*
X38132895Y5062307D01*
X38132895Y5062307D02*
X38228133Y5062307D01*
X38228133Y5062307D02*
X38323371Y5109926D01*
X38323371Y5109926D02*
X38370990Y5157545D01*
X38370990Y5157545D02*
X38418609Y5252783D01*
X38418609Y5252783D02*
X38418609Y5586116D01*
X38817180Y10204688D02*
X38864800Y10252307D01*
X38864800Y10252307D02*
X38912419Y10395164D01*
X38912419Y10395164D02*
X38912419Y10490402D01*
X38912419Y10490402D02*
X38864800Y10633259D01*
X38864800Y10633259D02*
X38769561Y10728497D01*
X38769561Y10728497D02*
X38674323Y10776116D01*
X38674323Y10776116D02*
X38483847Y10823735D01*
X38483847Y10823735D02*
X38340990Y10823735D01*
X38340990Y10823735D02*
X38150514Y10776116D01*
X38150514Y10776116D02*
X38055276Y10728497D01*
X38055276Y10728497D02*
X37960038Y10633259D01*
X37960038Y10633259D02*
X37912419Y10490402D01*
X37912419Y10490402D02*
X37912419Y10395164D01*
X37912419Y10395164D02*
X37960038Y10252307D01*
X37960038Y10252307D02*
X38007657Y10204688D01*
D11*
X761904Y545181D02*
X761904Y-264342D01*
X761904Y-264342D02*
X714285Y-359580D01*
X714285Y-359580D02*
X666666Y-407200D01*
X666666Y-407200D02*
X571428Y-454819D01*
X571428Y-454819D02*
X380952Y-454819D01*
X380952Y-454819D02*
X285714Y-407200D01*
X285714Y-407200D02*
X238095Y-359580D01*
X238095Y-359580D02*
X190476Y-264342D01*
X190476Y-264342D02*
X190476Y545181D01*
X-714286Y211848D02*
X-714286Y-454819D01*
X-476191Y592800D02*
X-238096Y-121485D01*
X-238096Y-121485D02*
X-857143Y-121485D01*
%TO.C,U4*%
X-2580000Y1570000D02*
X-2580000Y-1570000D01*
X-2580000Y-1570000D02*
X2580000Y-1570000D01*
X2580000Y1570000D02*
X-2580000Y1570000D01*
X2580000Y-1570000D02*
X2580000Y1570000D01*
D12*
X2060000Y-820000D02*
G75*
G02*
X1760000Y-820000I-150000J0D01*
G01*
X1760000Y-820000D02*
G75*
G02*
X2060000Y-820000I150000J0D01*
G01*
X2810000Y-2740000D02*
G75*
G02*
X2510000Y-2740000I-150000J0D01*
G01*
X2510000Y-2740000D02*
G75*
G02*
X2810000Y-2740000I150000J0D01*
G01*
%TD*%
%LPC*%
G36*
X-34013980Y-31395213D02*
G01*
X-33664126Y-31475065D01*
X-33325413Y-31593585D01*
X-33002100Y-31749285D01*
X-32698252Y-31940205D01*
X-32417691Y-32163945D01*
X-32163945Y-32417691D01*
X-31940205Y-32698252D01*
X-31749285Y-33002100D01*
X-31593585Y-33325413D01*
X-31475065Y-33664126D01*
X-31395213Y-34013980D01*
X-31355034Y-34370575D01*
X-31355034Y-34729425D01*
X-31395213Y-35086020D01*
X-31475065Y-35435874D01*
X-31593585Y-35774587D01*
X-31749285Y-36097900D01*
X-31940205Y-36401748D01*
X-32163945Y-36682309D01*
X-32417691Y-36936055D01*
X-32698252Y-37159795D01*
X-33002100Y-37350715D01*
X-33325413Y-37506415D01*
X-33664126Y-37624935D01*
X-34013980Y-37704787D01*
X-34370575Y-37744966D01*
X-34729425Y-37744966D01*
X-35086020Y-37704787D01*
X-35435874Y-37624935D01*
X-35774587Y-37506415D01*
X-36097900Y-37350715D01*
X-36401748Y-37159795D01*
X-36682309Y-36936055D01*
X-36936055Y-36682309D01*
X-37159795Y-36401748D01*
X-37350715Y-36097900D01*
X-37506415Y-35774587D01*
X-37624935Y-35435874D01*
X-37704787Y-35086020D01*
X-37744966Y-34729425D01*
X-37744966Y-34370575D01*
X-37704787Y-34013980D01*
X-37624935Y-33664126D01*
X-37506415Y-33325413D01*
X-37350715Y-33002100D01*
X-37159795Y-32698252D01*
X-36936055Y-32417691D01*
X-36682309Y-32163945D01*
X-36401748Y-31940205D01*
X-36097900Y-31749285D01*
X-35774587Y-31593585D01*
X-35435874Y-31475065D01*
X-35086020Y-31395213D01*
X-34729425Y-31355034D01*
X-34370575Y-31355034D01*
X-34013980Y-31395213D01*
G37*
G36*
X35086020Y-31395213D02*
G01*
X35435874Y-31475065D01*
X35774587Y-31593585D01*
X36097900Y-31749285D01*
X36401748Y-31940205D01*
X36682309Y-32163945D01*
X36936055Y-32417691D01*
X37159795Y-32698252D01*
X37350715Y-33002100D01*
X37506415Y-33325413D01*
X37624935Y-33664126D01*
X37704787Y-34013980D01*
X37744966Y-34370575D01*
X37744966Y-34729425D01*
X37704787Y-35086020D01*
X37624935Y-35435874D01*
X37506415Y-35774587D01*
X37350715Y-36097900D01*
X37159795Y-36401748D01*
X36936055Y-36682309D01*
X36682309Y-36936055D01*
X36401748Y-37159795D01*
X36097900Y-37350715D01*
X35774587Y-37506415D01*
X35435874Y-37624935D01*
X35086020Y-37704787D01*
X34729425Y-37744966D01*
X34370575Y-37744966D01*
X34013980Y-37704787D01*
X33664126Y-37624935D01*
X33325413Y-37506415D01*
X33002100Y-37350715D01*
X32698252Y-37159795D01*
X32417691Y-36936055D01*
X32163945Y-36682309D01*
X31940205Y-36401748D01*
X31749285Y-36097900D01*
X31593585Y-35774587D01*
X31475065Y-35435874D01*
X31395213Y-35086020D01*
X31355034Y-34729425D01*
X31355034Y-34370575D01*
X31395213Y-34013980D01*
X31475065Y-33664126D01*
X31593585Y-33325413D01*
X31749285Y-33002100D01*
X31940205Y-32698252D01*
X32163945Y-32417691D01*
X32417691Y-32163945D01*
X32698252Y-31940205D01*
X33002100Y-31749285D01*
X33325413Y-31593585D01*
X33664126Y-31475065D01*
X34013980Y-31395213D01*
X34370575Y-31355034D01*
X34729425Y-31355034D01*
X35086020Y-31395213D01*
G37*
G36*
X-33899715Y-24193060D02*
G01*
X-33718603Y-24268079D01*
X-33555607Y-24376990D01*
X-33416990Y-24515607D01*
X-33308079Y-24678603D01*
X-33233060Y-24859715D01*
X-33194815Y-25051983D01*
X-33194815Y-25248017D01*
X-33233060Y-25440285D01*
X-33308079Y-25621397D01*
X-33416990Y-25784393D01*
X-33555607Y-25923010D01*
X-33718603Y-26031921D01*
X-33899715Y-26106940D01*
X-34091983Y-26145185D01*
X-34288017Y-26145185D01*
X-34480285Y-26106940D01*
X-34661397Y-26031921D01*
X-34824393Y-25923010D01*
X-34963010Y-25784393D01*
X-35071921Y-25621397D01*
X-35146940Y-25440285D01*
X-35185185Y-25248017D01*
X-35185185Y-25051983D01*
X-35146940Y-24859715D01*
X-35071921Y-24678603D01*
X-34963010Y-24515607D01*
X-34824393Y-24376990D01*
X-34661397Y-24268079D01*
X-34480285Y-24193060D01*
X-34288017Y-24154815D01*
X-34091983Y-24154815D01*
X-33899715Y-24193060D01*
G37*
G36*
X8540000Y-25790000D02*
G01*
X6540000Y-25790000D01*
X6540000Y-23790000D01*
X8540000Y-23790000D01*
X8540000Y-25790000D01*
G37*
G36*
X10370285Y-23833060D02*
G01*
X10551397Y-23908079D01*
X10714393Y-24016990D01*
X10853010Y-24155607D01*
X10961921Y-24318603D01*
X11036940Y-24499715D01*
X11075185Y-24691983D01*
X11075185Y-24888017D01*
X11036940Y-25080285D01*
X10961921Y-25261397D01*
X10853010Y-25424393D01*
X10714393Y-25563010D01*
X10551397Y-25671921D01*
X10370285Y-25746940D01*
X10178017Y-25785185D01*
X9981983Y-25785185D01*
X9789715Y-25746940D01*
X9608603Y-25671921D01*
X9445607Y-25563010D01*
X9306990Y-25424393D01*
X9198079Y-25261397D01*
X9123060Y-25080285D01*
X9084815Y-24888017D01*
X9084815Y-24691983D01*
X9123060Y-24499715D01*
X9198079Y-24318603D01*
X9306990Y-24155607D01*
X9445607Y-24016990D01*
X9608603Y-23908079D01*
X9789715Y-23833060D01*
X9981983Y-23794815D01*
X10178017Y-23794815D01*
X10370285Y-23833060D01*
G37*
G36*
X-14020000Y-25770000D02*
G01*
X-16020000Y-25770000D01*
X-16020000Y-23770000D01*
X-14020000Y-23770000D01*
X-14020000Y-25770000D01*
G37*
G36*
X-12189715Y-23813060D02*
G01*
X-12008603Y-23888079D01*
X-11845607Y-23996990D01*
X-11706990Y-24135607D01*
X-11598079Y-24298603D01*
X-11523060Y-24479715D01*
X-11484815Y-24671983D01*
X-11484815Y-24868017D01*
X-11523060Y-25060285D01*
X-11598079Y-25241397D01*
X-11706990Y-25404393D01*
X-11845607Y-25543010D01*
X-12008603Y-25651921D01*
X-12189715Y-25726940D01*
X-12381983Y-25765185D01*
X-12578017Y-25765185D01*
X-12770285Y-25726940D01*
X-12951397Y-25651921D01*
X-13114393Y-25543010D01*
X-13253010Y-25404393D01*
X-13361921Y-25241397D01*
X-13436940Y-25060285D01*
X-13475185Y-24868017D01*
X-13475185Y-24671983D01*
X-13436940Y-24479715D01*
X-13361921Y-24298603D01*
X-13253010Y-24135607D01*
X-13114393Y-23996990D01*
X-12951397Y-23888079D01*
X-12770285Y-23813060D01*
X-12578017Y-23774815D01*
X-12381983Y-23774815D01*
X-12189715Y-23813060D01*
G37*
G36*
X-8520000Y-25750000D02*
G01*
X-10520000Y-25750000D01*
X-10520000Y-23750000D01*
X-8520000Y-23750000D01*
X-8520000Y-25750000D01*
G37*
G36*
X-3020000Y-25750000D02*
G01*
X-5020000Y-25750000D01*
X-5020000Y-23750000D01*
X-3020000Y-23750000D01*
X-3020000Y-25750000D01*
G37*
G36*
X2980000Y-25750000D02*
G01*
X980000Y-25750000D01*
X980000Y-23750000D01*
X2980000Y-23750000D01*
X2980000Y-25750000D01*
G37*
G36*
X-6689715Y-23793060D02*
G01*
X-6508603Y-23868079D01*
X-6345607Y-23976990D01*
X-6206990Y-24115607D01*
X-6098079Y-24278603D01*
X-6023060Y-24459715D01*
X-5984815Y-24651983D01*
X-5984815Y-24848017D01*
X-6023060Y-25040285D01*
X-6098079Y-25221397D01*
X-6206990Y-25384393D01*
X-6345607Y-25523010D01*
X-6508603Y-25631921D01*
X-6689715Y-25706940D01*
X-6881983Y-25745185D01*
X-7078017Y-25745185D01*
X-7270285Y-25706940D01*
X-7451397Y-25631921D01*
X-7614393Y-25523010D01*
X-7753010Y-25384393D01*
X-7861921Y-25221397D01*
X-7936940Y-25040285D01*
X-7975185Y-24848017D01*
X-7975185Y-24651983D01*
X-7936940Y-24459715D01*
X-7861921Y-24278603D01*
X-7753010Y-24115607D01*
X-7614393Y-23976990D01*
X-7451397Y-23868079D01*
X-7270285Y-23793060D01*
X-7078017Y-23754815D01*
X-6881983Y-23754815D01*
X-6689715Y-23793060D01*
G37*
G36*
X-1189715Y-23793060D02*
G01*
X-1008603Y-23868079D01*
X-845607Y-23976990D01*
X-706990Y-24115607D01*
X-598079Y-24278603D01*
X-523060Y-24459715D01*
X-484815Y-24651983D01*
X-484815Y-24848017D01*
X-523060Y-25040285D01*
X-598079Y-25221397D01*
X-706990Y-25384393D01*
X-845607Y-25523010D01*
X-1008603Y-25631921D01*
X-1189715Y-25706940D01*
X-1381983Y-25745185D01*
X-1578017Y-25745185D01*
X-1770285Y-25706940D01*
X-1951397Y-25631921D01*
X-2114393Y-25523010D01*
X-2253010Y-25384393D01*
X-2361921Y-25221397D01*
X-2436940Y-25040285D01*
X-2475185Y-24848017D01*
X-2475185Y-24651983D01*
X-2436940Y-24459715D01*
X-2361921Y-24278603D01*
X-2253010Y-24115607D01*
X-2114393Y-23976990D01*
X-1951397Y-23868079D01*
X-1770285Y-23793060D01*
X-1578017Y-23754815D01*
X-1381983Y-23754815D01*
X-1189715Y-23793060D01*
G37*
G36*
X4810285Y-23793060D02*
G01*
X4991397Y-23868079D01*
X5154393Y-23976990D01*
X5293010Y-24115607D01*
X5401921Y-24278603D01*
X5476940Y-24459715D01*
X5515185Y-24651983D01*
X5515185Y-24848017D01*
X5476940Y-25040285D01*
X5401921Y-25221397D01*
X5293010Y-25384393D01*
X5154393Y-25523010D01*
X4991397Y-25631921D01*
X4810285Y-25706940D01*
X4618017Y-25745185D01*
X4421983Y-25745185D01*
X4229715Y-25706940D01*
X4048603Y-25631921D01*
X3885607Y-25523010D01*
X3746990Y-25384393D01*
X3638079Y-25221397D01*
X3563060Y-25040285D01*
X3524815Y-24848017D01*
X3524815Y-24651983D01*
X3563060Y-24459715D01*
X3638079Y-24278603D01*
X3746990Y-24115607D01*
X3885607Y-23976990D01*
X4048603Y-23868079D01*
X4229715Y-23793060D01*
X4421983Y-23754815D01*
X4618017Y-23754815D01*
X4810285Y-23793060D01*
G37*
G36*
X-33899715Y-19113060D02*
G01*
X-33718603Y-19188079D01*
X-33555607Y-19296990D01*
X-33416990Y-19435607D01*
X-33308079Y-19598603D01*
X-33233060Y-19779715D01*
X-33194815Y-19971983D01*
X-33194815Y-20168017D01*
X-33233060Y-20360285D01*
X-33308079Y-20541397D01*
X-33416990Y-20704393D01*
X-33555607Y-20843010D01*
X-33718603Y-20951921D01*
X-33899715Y-21026940D01*
X-34091983Y-21065185D01*
X-34288017Y-21065185D01*
X-34480285Y-21026940D01*
X-34661397Y-20951921D01*
X-34824393Y-20843010D01*
X-34963010Y-20704393D01*
X-35071921Y-20541397D01*
X-35146940Y-20360285D01*
X-35185185Y-20168017D01*
X-35185185Y-19971983D01*
X-35146940Y-19779715D01*
X-35071921Y-19598603D01*
X-34963010Y-19435607D01*
X-34824393Y-19296990D01*
X-34661397Y-19188079D01*
X-34480285Y-19113060D01*
X-34288017Y-19074815D01*
X-34091983Y-19074815D01*
X-33899715Y-19113060D01*
G37*
G36*
X-14963980Y-12345213D02*
G01*
X-14614126Y-12425065D01*
X-14275413Y-12543585D01*
X-13952100Y-12699285D01*
X-13648252Y-12890205D01*
X-13367691Y-13113945D01*
X-13113945Y-13367691D01*
X-12890205Y-13648252D01*
X-12699285Y-13952100D01*
X-12543585Y-14275413D01*
X-12425065Y-14614126D01*
X-12345213Y-14963980D01*
X-12305034Y-15320575D01*
X-12305034Y-15679425D01*
X-12345213Y-16036020D01*
X-12425065Y-16385874D01*
X-12543585Y-16724587D01*
X-12699285Y-17047900D01*
X-12890205Y-17351748D01*
X-13113945Y-17632309D01*
X-13367691Y-17886055D01*
X-13648252Y-18109795D01*
X-13952100Y-18300715D01*
X-14275413Y-18456415D01*
X-14614126Y-18574935D01*
X-14963980Y-18654787D01*
X-15320575Y-18694966D01*
X-15679425Y-18694966D01*
X-16036020Y-18654787D01*
X-16385874Y-18574935D01*
X-16724587Y-18456415D01*
X-17047900Y-18300715D01*
X-17351748Y-18109795D01*
X-17632309Y-17886055D01*
X-17886055Y-17632309D01*
X-18109795Y-17351748D01*
X-18300715Y-17047900D01*
X-18456415Y-16724587D01*
X-18574935Y-16385874D01*
X-18654787Y-16036020D01*
X-18694966Y-15679425D01*
X-18694966Y-15320575D01*
X-18654787Y-14963980D01*
X-18574935Y-14614126D01*
X-18456415Y-14275413D01*
X-18300715Y-13952100D01*
X-18109795Y-13648252D01*
X-17886055Y-13367691D01*
X-17632309Y-13113945D01*
X-17351748Y-12890205D01*
X-17047900Y-12699285D01*
X-16724587Y-12543585D01*
X-16385874Y-12425065D01*
X-16036020Y-12345213D01*
X-15679425Y-12305034D01*
X-15320575Y-12305034D01*
X-14963980Y-12345213D01*
G37*
G36*
X16036020Y-12345213D02*
G01*
X16385874Y-12425065D01*
X16724587Y-12543585D01*
X17047900Y-12699285D01*
X17351748Y-12890205D01*
X17632309Y-13113945D01*
X17886055Y-13367691D01*
X18109795Y-13648252D01*
X18300715Y-13952100D01*
X18456415Y-14275413D01*
X18574935Y-14614126D01*
X18654787Y-14963980D01*
X18694966Y-15320575D01*
X18694966Y-15679425D01*
X18654787Y-16036020D01*
X18574935Y-16385874D01*
X18456415Y-16724587D01*
X18300715Y-17047900D01*
X18109795Y-17351748D01*
X17886055Y-17632309D01*
X17632309Y-17886055D01*
X17351748Y-18109795D01*
X17047900Y-18300715D01*
X16724587Y-18456415D01*
X16385874Y-18574935D01*
X16036020Y-18654787D01*
X15679425Y-18694966D01*
X15320575Y-18694966D01*
X14963980Y-18654787D01*
X14614126Y-18574935D01*
X14275413Y-18456415D01*
X13952100Y-18300715D01*
X13648252Y-18109795D01*
X13367691Y-17886055D01*
X13113945Y-17632309D01*
X12890205Y-17351748D01*
X12699285Y-17047900D01*
X12543585Y-16724587D01*
X12425065Y-16385874D01*
X12345213Y-16036020D01*
X12305034Y-15679425D01*
X12305034Y-15320575D01*
X12345213Y-14963980D01*
X12425065Y-14614126D01*
X12543585Y-14275413D01*
X12699285Y-13952100D01*
X12890205Y-13648252D01*
X13113945Y-13367691D01*
X13367691Y-13113945D01*
X13648252Y-12890205D01*
X13952100Y-12699285D01*
X14275413Y-12543585D01*
X14614126Y-12425065D01*
X14963980Y-12345213D01*
X15320575Y-12305034D01*
X15679425Y-12305034D01*
X16036020Y-12345213D01*
G37*
G36*
X160000Y-14640000D02*
G01*
X-1840000Y-14640000D01*
X-1840000Y-12640000D01*
X160000Y-12640000D01*
X160000Y-14640000D01*
G37*
G36*
X10870000Y-14640000D02*
G01*
X8870000Y-14640000D01*
X8870000Y-12640000D01*
X10870000Y-12640000D01*
X10870000Y-14640000D01*
G37*
G36*
X-3089715Y-12683060D02*
G01*
X-2908603Y-12758079D01*
X-2745607Y-12866990D01*
X-2606990Y-13005607D01*
X-2498079Y-13168603D01*
X-2423060Y-13349715D01*
X-2384815Y-13541983D01*
X-2384815Y-13738017D01*
X-2423060Y-13930285D01*
X-2498079Y-14111397D01*
X-2606990Y-14274393D01*
X-2745607Y-14413010D01*
X-2908603Y-14521921D01*
X-3089715Y-14596940D01*
X-3281983Y-14635185D01*
X-3478017Y-14635185D01*
X-3670285Y-14596940D01*
X-3851397Y-14521921D01*
X-4014393Y-14413010D01*
X-4153010Y-14274393D01*
X-4261921Y-14111397D01*
X-4336940Y-13930285D01*
X-4375185Y-13738017D01*
X-4375185Y-13541983D01*
X-4336940Y-13349715D01*
X-4261921Y-13168603D01*
X-4153010Y-13005607D01*
X-4014393Y-12866990D01*
X-3851397Y-12758079D01*
X-3670285Y-12683060D01*
X-3478017Y-12644815D01*
X-3281983Y-12644815D01*
X-3089715Y-12683060D01*
G37*
G36*
X7620285Y-12683060D02*
G01*
X7801397Y-12758079D01*
X7964393Y-12866990D01*
X8103010Y-13005607D01*
X8211921Y-13168603D01*
X8286940Y-13349715D01*
X8325185Y-13541983D01*
X8325185Y-13738017D01*
X8286940Y-13930285D01*
X8211921Y-14111397D01*
X8103010Y-14274393D01*
X7964393Y-14413010D01*
X7801397Y-14521921D01*
X7620285Y-14596940D01*
X7428017Y-14635185D01*
X7231983Y-14635185D01*
X7039715Y-14596940D01*
X6858603Y-14521921D01*
X6695607Y-14413010D01*
X6556990Y-14274393D01*
X6448079Y-14111397D01*
X6373060Y-13930285D01*
X6334815Y-13738017D01*
X6334815Y-13541983D01*
X6373060Y-13349715D01*
X6448079Y-13168603D01*
X6556990Y-13005607D01*
X6695607Y-12866990D01*
X6858603Y-12758079D01*
X7039715Y-12683060D01*
X7231983Y-12644815D01*
X7428017Y-12644815D01*
X7620285Y-12683060D01*
G37*
G36*
X5520000Y-14630000D02*
G01*
X3520000Y-14630000D01*
X3520000Y-12630000D01*
X5520000Y-12630000D01*
X5520000Y-14630000D01*
G37*
G36*
X2270285Y-12673060D02*
G01*
X2451397Y-12748079D01*
X2614393Y-12856990D01*
X2753010Y-12995607D01*
X2861921Y-13158603D01*
X2936940Y-13339715D01*
X2975185Y-13531983D01*
X2975185Y-13728017D01*
X2936940Y-13920285D01*
X2861921Y-14101397D01*
X2753010Y-14264393D01*
X2614393Y-14403010D01*
X2451397Y-14511921D01*
X2270285Y-14586940D01*
X2078017Y-14625185D01*
X1881983Y-14625185D01*
X1689715Y-14586940D01*
X1508603Y-14511921D01*
X1345607Y-14403010D01*
X1206990Y-14264393D01*
X1098079Y-14101397D01*
X1023060Y-13920285D01*
X984815Y-13728017D01*
X984815Y-13531983D01*
X1023060Y-13339715D01*
X1098079Y-13158603D01*
X1206990Y-12995607D01*
X1345607Y-12856990D01*
X1508603Y-12748079D01*
X1689715Y-12673060D01*
X1881983Y-12634815D01*
X2078017Y-12634815D01*
X2270285Y-12673060D01*
G37*
G36*
X31380000Y-9400000D02*
G01*
X29380000Y-9400000D01*
X29380000Y-7400000D01*
X31380000Y-7400000D01*
X31380000Y-9400000D01*
G37*
G36*
X36980000Y-9400000D02*
G01*
X34980000Y-9400000D01*
X34980000Y-7400000D01*
X36980000Y-7400000D01*
X36980000Y-9400000D01*
G37*
G36*
X33210285Y-7443060D02*
G01*
X33391397Y-7518079D01*
X33554393Y-7626990D01*
X33693010Y-7765607D01*
X33801921Y-7928603D01*
X33876940Y-8109715D01*
X33915185Y-8301983D01*
X33915185Y-8498017D01*
X33876940Y-8690285D01*
X33801921Y-8871397D01*
X33693010Y-9034393D01*
X33554393Y-9173010D01*
X33391397Y-9281921D01*
X33210285Y-9356940D01*
X33018017Y-9395185D01*
X32821983Y-9395185D01*
X32629715Y-9356940D01*
X32448603Y-9281921D01*
X32285607Y-9173010D01*
X32146990Y-9034393D01*
X32038079Y-8871397D01*
X31963060Y-8690285D01*
X31924815Y-8498017D01*
X31924815Y-8301983D01*
X31963060Y-8109715D01*
X32038079Y-7928603D01*
X32146990Y-7765607D01*
X32285607Y-7626990D01*
X32448603Y-7518079D01*
X32629715Y-7443060D01*
X32821983Y-7404815D01*
X33018017Y-7404815D01*
X33210285Y-7443060D01*
G37*
G36*
X38810285Y-7443060D02*
G01*
X38991397Y-7518079D01*
X39154393Y-7626990D01*
X39293010Y-7765607D01*
X39401921Y-7928603D01*
X39476940Y-8109715D01*
X39515185Y-8301983D01*
X39515185Y-8498017D01*
X39476940Y-8690285D01*
X39401921Y-8871397D01*
X39293010Y-9034393D01*
X39154393Y-9173010D01*
X38991397Y-9281921D01*
X38810285Y-9356940D01*
X38618017Y-9395185D01*
X38421983Y-9395185D01*
X38229715Y-9356940D01*
X38048603Y-9281921D01*
X37885607Y-9173010D01*
X37746990Y-9034393D01*
X37638079Y-8871397D01*
X37563060Y-8690285D01*
X37524815Y-8498017D01*
X37524815Y-8301983D01*
X37563060Y-8109715D01*
X37638079Y-7928603D01*
X37746990Y-7765607D01*
X37885607Y-7626990D01*
X38048603Y-7518079D01*
X38229715Y-7443060D01*
X38421983Y-7404815D01*
X38618017Y-7404815D01*
X38810285Y-7443060D01*
G37*
G36*
X-1785195Y-1817836D02*
G01*
X-1717372Y-1856994D01*
X-1661994Y-1912372D01*
X-1622836Y-1980195D01*
X-1602567Y-2055842D01*
X-1600000Y-2095000D01*
X-1600000Y-3385000D01*
X-1602567Y-3424158D01*
X-1622836Y-3499805D01*
X-1661994Y-3567628D01*
X-1717372Y-3623006D01*
X-1785195Y-3662164D01*
X-1860842Y-3682433D01*
X-1939158Y-3682433D01*
X-2014805Y-3662164D01*
X-2082628Y-3623006D01*
X-2138006Y-3567628D01*
X-2177164Y-3499805D01*
X-2197433Y-3424158D01*
X-2200000Y-3385000D01*
X-2200000Y-2095000D01*
X-2197433Y-2055842D01*
X-2177164Y-1980195D01*
X-2138006Y-1912372D01*
X-2082628Y-1856994D01*
X-2014805Y-1817836D01*
X-1939158Y-1797567D01*
X-1860842Y-1797567D01*
X-1785195Y-1817836D01*
G37*
G36*
X-515195Y-1817836D02*
G01*
X-447372Y-1856994D01*
X-391994Y-1912372D01*
X-352836Y-1980195D01*
X-332567Y-2055842D01*
X-330000Y-2095000D01*
X-330000Y-3385000D01*
X-332567Y-3424158D01*
X-352836Y-3499805D01*
X-391994Y-3567628D01*
X-447372Y-3623006D01*
X-515195Y-3662164D01*
X-590842Y-3682433D01*
X-669158Y-3682433D01*
X-744805Y-3662164D01*
X-812628Y-3623006D01*
X-868006Y-3567628D01*
X-907164Y-3499805D01*
X-927433Y-3424158D01*
X-930000Y-3385000D01*
X-930000Y-2095000D01*
X-927433Y-2055842D01*
X-907164Y-1980195D01*
X-868006Y-1912372D01*
X-812628Y-1856994D01*
X-744805Y-1817836D01*
X-669158Y-1797567D01*
X-590842Y-1797567D01*
X-515195Y-1817836D01*
G37*
G36*
X744805Y-1817836D02*
G01*
X812628Y-1856994D01*
X868006Y-1912372D01*
X907164Y-1980195D01*
X927433Y-2055842D01*
X930000Y-2095000D01*
X930000Y-3385000D01*
X927433Y-3424158D01*
X907164Y-3499805D01*
X868006Y-3567628D01*
X812628Y-3623006D01*
X744805Y-3662164D01*
X669158Y-3682433D01*
X590842Y-3682433D01*
X515195Y-3662164D01*
X447372Y-3623006D01*
X391994Y-3567628D01*
X352836Y-3499805D01*
X332567Y-3424158D01*
X330000Y-3385000D01*
X330000Y-2095000D01*
X332567Y-2055842D01*
X352836Y-1980195D01*
X391994Y-1912372D01*
X447372Y-1856994D01*
X515195Y-1817836D01*
X590842Y-1797567D01*
X669158Y-1797567D01*
X744805Y-1817836D01*
G37*
G36*
X2024805Y-1817836D02*
G01*
X2092628Y-1856994D01*
X2148006Y-1912372D01*
X2187164Y-1980195D01*
X2207433Y-2055842D01*
X2210000Y-2095000D01*
X2210000Y-3385000D01*
X2207433Y-3424158D01*
X2187164Y-3499805D01*
X2148006Y-3567628D01*
X2092628Y-3623006D01*
X2024805Y-3662164D01*
X1949158Y-3682433D01*
X1870842Y-3682433D01*
X1795195Y-3662164D01*
X1727372Y-3623006D01*
X1671994Y-3567628D01*
X1632836Y-3499805D01*
X1612567Y-3424158D01*
X1610000Y-3385000D01*
X1610000Y-2095000D01*
X1612567Y-2055842D01*
X1632836Y-1980195D01*
X1671994Y-1912372D01*
X1727372Y-1856994D01*
X1795195Y-1817836D01*
X1870842Y-1797567D01*
X1949158Y-1797567D01*
X2024805Y-1817836D01*
G37*
G36*
X-36966063Y-1608520D02*
G01*
X-36909721Y-1611287D01*
X-36902777Y-1612668D01*
X-36889584Y-1613533D01*
X-36864096Y-1620362D01*
X-36793767Y-1634352D01*
X-36760576Y-1648100D01*
X-36738290Y-1654072D01*
X-36718309Y-1665608D01*
X-36685117Y-1679357D01*
X-36625503Y-1719190D01*
X-36602643Y-1732388D01*
X-36596386Y-1738645D01*
X-36587345Y-1744686D01*
X-36504187Y-1827844D01*
X-36498147Y-1836884D01*
X-36491888Y-1843143D01*
X-36478688Y-1866006D01*
X-36438858Y-1925616D01*
X-36425111Y-1958804D01*
X-36413572Y-1978790D01*
X-36407600Y-2001079D01*
X-36393853Y-2034266D01*
X-36379866Y-2104585D01*
X-36373033Y-2130084D01*
X-36373033Y-2138933D01*
X-36370911Y-2149601D01*
X-36370911Y-2267198D01*
X-36373033Y-2277865D01*
X-36373033Y-2286716D01*
X-36379867Y-2312217D01*
X-36393853Y-2382533D01*
X-36407599Y-2415718D01*
X-36413572Y-2438010D01*
X-36425113Y-2457998D01*
X-36438858Y-2491183D01*
X-36478684Y-2550786D01*
X-36491888Y-2573657D01*
X-36498149Y-2579917D01*
X-36504187Y-2588955D01*
X-36587345Y-2672113D01*
X-36596383Y-2678151D01*
X-36602643Y-2684412D01*
X-36625514Y-2697616D01*
X-36685117Y-2737442D01*
X-36718302Y-2751187D01*
X-36738290Y-2762728D01*
X-36760582Y-2768701D01*
X-36793767Y-2782447D01*
X-36864082Y-2796433D01*
X-36889584Y-2803267D01*
X-36902785Y-2804132D01*
X-36909721Y-2805512D01*
X-36966061Y-2808279D01*
X-36967900Y-2808400D01*
X-36968515Y-2808400D01*
X-37567285Y-2808400D01*
X-37567900Y-2808400D01*
X-37569740Y-2808279D01*
X-37626080Y-2805512D01*
X-37633018Y-2804132D01*
X-37646216Y-2803267D01*
X-37671717Y-2796434D01*
X-37742034Y-2782447D01*
X-37775221Y-2768700D01*
X-37797510Y-2762728D01*
X-37817496Y-2751189D01*
X-37850684Y-2737442D01*
X-37910294Y-2697612D01*
X-37933157Y-2684412D01*
X-37939416Y-2678153D01*
X-37948456Y-2672113D01*
X-38031614Y-2588955D01*
X-38037655Y-2579914D01*
X-38043912Y-2573657D01*
X-38057110Y-2550797D01*
X-38096943Y-2491183D01*
X-38110692Y-2457991D01*
X-38122228Y-2438010D01*
X-38128200Y-2415724D01*
X-38141948Y-2382533D01*
X-38155936Y-2312212D01*
X-38162767Y-2286716D01*
X-38162767Y-2277866D01*
X-38164889Y-2267198D01*
X-38164889Y-2149601D01*
X-38162767Y-2138932D01*
X-38162767Y-2130084D01*
X-38155937Y-2104590D01*
X-38141948Y-2034266D01*
X-38128199Y-2001072D01*
X-38122228Y-1978790D01*
X-38110693Y-1958810D01*
X-38096943Y-1925616D01*
X-38057106Y-1865995D01*
X-38043912Y-1843143D01*
X-38037657Y-1836887D01*
X-38031614Y-1827844D01*
X-37948456Y-1744686D01*
X-37939413Y-1738643D01*
X-37933157Y-1732388D01*
X-37910305Y-1719194D01*
X-37850684Y-1679357D01*
X-37817490Y-1665607D01*
X-37797510Y-1654072D01*
X-37775228Y-1648101D01*
X-37742034Y-1634352D01*
X-37671702Y-1620361D01*
X-37646216Y-1613533D01*
X-37633025Y-1612668D01*
X-37626080Y-1611287D01*
X-37569737Y-1608520D01*
X-37567900Y-1608400D01*
X-36967900Y-1608400D01*
X-36966063Y-1608520D01*
G37*
G36*
X-32686063Y-1608520D02*
G01*
X-32629721Y-1611287D01*
X-32622777Y-1612668D01*
X-32609584Y-1613533D01*
X-32584096Y-1620362D01*
X-32513767Y-1634352D01*
X-32480576Y-1648100D01*
X-32458290Y-1654072D01*
X-32438309Y-1665608D01*
X-32405117Y-1679357D01*
X-32345503Y-1719190D01*
X-32322643Y-1732388D01*
X-32316386Y-1738645D01*
X-32307345Y-1744686D01*
X-32224187Y-1827844D01*
X-32218147Y-1836884D01*
X-32211888Y-1843143D01*
X-32198688Y-1866006D01*
X-32158858Y-1925616D01*
X-32145111Y-1958804D01*
X-32133572Y-1978790D01*
X-32127600Y-2001079D01*
X-32113853Y-2034266D01*
X-32099866Y-2104585D01*
X-32093033Y-2130084D01*
X-32093033Y-2138933D01*
X-32090911Y-2149601D01*
X-32090911Y-2267198D01*
X-32093033Y-2277865D01*
X-32093033Y-2286716D01*
X-32099867Y-2312217D01*
X-32113853Y-2382533D01*
X-32127599Y-2415718D01*
X-32133572Y-2438010D01*
X-32145113Y-2457998D01*
X-32158858Y-2491183D01*
X-32198684Y-2550786D01*
X-32211888Y-2573657D01*
X-32218149Y-2579917D01*
X-32224187Y-2588955D01*
X-32307345Y-2672113D01*
X-32316383Y-2678151D01*
X-32322643Y-2684412D01*
X-32345514Y-2697616D01*
X-32405117Y-2737442D01*
X-32438302Y-2751187D01*
X-32458290Y-2762728D01*
X-32480582Y-2768701D01*
X-32513767Y-2782447D01*
X-32584082Y-2796433D01*
X-32609584Y-2803267D01*
X-32622785Y-2804132D01*
X-32629721Y-2805512D01*
X-32686061Y-2808279D01*
X-32687900Y-2808400D01*
X-32688515Y-2808400D01*
X-33487285Y-2808400D01*
X-33487900Y-2808400D01*
X-33489740Y-2808279D01*
X-33546080Y-2805512D01*
X-33553018Y-2804132D01*
X-33566216Y-2803267D01*
X-33591717Y-2796434D01*
X-33662034Y-2782447D01*
X-33695221Y-2768700D01*
X-33717510Y-2762728D01*
X-33737496Y-2751189D01*
X-33770684Y-2737442D01*
X-33830294Y-2697612D01*
X-33853157Y-2684412D01*
X-33859416Y-2678153D01*
X-33868456Y-2672113D01*
X-33951614Y-2588955D01*
X-33957655Y-2579914D01*
X-33963912Y-2573657D01*
X-33977110Y-2550797D01*
X-34016943Y-2491183D01*
X-34030692Y-2457991D01*
X-34042228Y-2438010D01*
X-34048200Y-2415724D01*
X-34061948Y-2382533D01*
X-34075936Y-2312212D01*
X-34082767Y-2286716D01*
X-34082767Y-2277866D01*
X-34084889Y-2267198D01*
X-34084889Y-2149601D01*
X-34082767Y-2138932D01*
X-34082767Y-2130084D01*
X-34075937Y-2104590D01*
X-34061948Y-2034266D01*
X-34048199Y-2001072D01*
X-34042228Y-1978790D01*
X-34030693Y-1958810D01*
X-34016943Y-1925616D01*
X-33977106Y-1865995D01*
X-33963912Y-1843143D01*
X-33957657Y-1836887D01*
X-33951614Y-1827844D01*
X-33868456Y-1744686D01*
X-33859413Y-1738643D01*
X-33853157Y-1732388D01*
X-33830305Y-1719194D01*
X-33770684Y-1679357D01*
X-33737490Y-1665607D01*
X-33717510Y-1654072D01*
X-33695228Y-1648101D01*
X-33662034Y-1634352D01*
X-33591702Y-1620361D01*
X-33566216Y-1613533D01*
X-33553025Y-1612668D01*
X-33546080Y-1611287D01*
X-33489737Y-1608520D01*
X-33487900Y-1608400D01*
X-32687900Y-1608400D01*
X-32686063Y-1608520D01*
G37*
G36*
X-33463528Y-478139D02*
G01*
X-33390053Y-520560D01*
X-33330060Y-580553D01*
X-33287639Y-654028D01*
X-33265680Y-735979D01*
X-33265680Y-820821D01*
X-33287639Y-902772D01*
X-33330060Y-976247D01*
X-33390053Y-1036240D01*
X-33463528Y-1078661D01*
X-33545479Y-1100620D01*
X-33630321Y-1100620D01*
X-33712272Y-1078661D01*
X-33785747Y-1036240D01*
X-33845740Y-976247D01*
X-33888161Y-902772D01*
X-33910120Y-820821D01*
X-33910120Y-735979D01*
X-33888161Y-654028D01*
X-33845740Y-580553D01*
X-33785747Y-520560D01*
X-33712272Y-478139D01*
X-33630321Y-456180D01*
X-33545479Y-456180D01*
X-33463528Y-478139D01*
G37*
G36*
X34681885Y1337940D02*
G01*
X34862997Y1262921D01*
X35025993Y1154010D01*
X35164610Y1015393D01*
X35273521Y852397D01*
X35348540Y671285D01*
X35386785Y479017D01*
X35386785Y282983D01*
X35348540Y90715D01*
X35273521Y-90397D01*
X35164610Y-253393D01*
X35025993Y-392010D01*
X34862997Y-500921D01*
X34681885Y-575940D01*
X34489617Y-614185D01*
X34293583Y-614185D01*
X34101315Y-575940D01*
X33920203Y-500921D01*
X33757207Y-392010D01*
X33618590Y-253393D01*
X33509679Y-90397D01*
X33434660Y90715D01*
X33396415Y282983D01*
X33396415Y479017D01*
X33434660Y671285D01*
X33509679Y852397D01*
X33618590Y1015393D01*
X33757207Y1154010D01*
X33920203Y1262921D01*
X34101315Y1337940D01*
X34293583Y1376185D01*
X34489617Y1376185D01*
X34681885Y1337940D01*
G37*
G36*
X-1785195Y3662164D02*
G01*
X-1717372Y3623006D01*
X-1661994Y3567628D01*
X-1622836Y3499805D01*
X-1602567Y3424158D01*
X-1600000Y3385000D01*
X-1600000Y2095000D01*
X-1602567Y2055842D01*
X-1622836Y1980195D01*
X-1661994Y1912372D01*
X-1717372Y1856994D01*
X-1785195Y1817836D01*
X-1860842Y1797567D01*
X-1939158Y1797567D01*
X-2014805Y1817836D01*
X-2082628Y1856994D01*
X-2138006Y1912372D01*
X-2177164Y1980195D01*
X-2197433Y2055842D01*
X-2200000Y2095000D01*
X-2200000Y3385000D01*
X-2197433Y3424158D01*
X-2177164Y3499805D01*
X-2138006Y3567628D01*
X-2082628Y3623006D01*
X-2014805Y3662164D01*
X-1939158Y3682433D01*
X-1860842Y3682433D01*
X-1785195Y3662164D01*
G37*
G36*
X-515195Y3662164D02*
G01*
X-447372Y3623006D01*
X-391994Y3567628D01*
X-352836Y3499805D01*
X-332567Y3424158D01*
X-330000Y3385000D01*
X-330000Y2095000D01*
X-332567Y2055842D01*
X-352836Y1980195D01*
X-391994Y1912372D01*
X-447372Y1856994D01*
X-515195Y1817836D01*
X-590842Y1797567D01*
X-669158Y1797567D01*
X-744805Y1817836D01*
X-812628Y1856994D01*
X-868006Y1912372D01*
X-907164Y1980195D01*
X-927433Y2055842D01*
X-930000Y2095000D01*
X-930000Y3385000D01*
X-927433Y3424158D01*
X-907164Y3499805D01*
X-868006Y3567628D01*
X-812628Y3623006D01*
X-744805Y3662164D01*
X-669158Y3682433D01*
X-590842Y3682433D01*
X-515195Y3662164D01*
G37*
G36*
X744805Y3662164D02*
G01*
X812628Y3623006D01*
X868006Y3567628D01*
X907164Y3499805D01*
X927433Y3424158D01*
X930000Y3385000D01*
X930000Y2095000D01*
X927433Y2055842D01*
X907164Y1980195D01*
X868006Y1912372D01*
X812628Y1856994D01*
X744805Y1817836D01*
X669158Y1797567D01*
X590842Y1797567D01*
X515195Y1817836D01*
X447372Y1856994D01*
X391994Y1912372D01*
X352836Y1980195D01*
X332567Y2055842D01*
X330000Y2095000D01*
X330000Y3385000D01*
X332567Y3424158D01*
X352836Y3499805D01*
X391994Y3567628D01*
X447372Y3623006D01*
X515195Y3662164D01*
X590842Y3682433D01*
X669158Y3682433D01*
X744805Y3662164D01*
G37*
G36*
X2024805Y3662164D02*
G01*
X2092628Y3623006D01*
X2148006Y3567628D01*
X2187164Y3499805D01*
X2207433Y3424158D01*
X2210000Y3385000D01*
X2210000Y2095000D01*
X2207433Y2055842D01*
X2187164Y1980195D01*
X2148006Y1912372D01*
X2092628Y1856994D01*
X2024805Y1817836D01*
X1949158Y1797567D01*
X1870842Y1797567D01*
X1795195Y1817836D01*
X1727372Y1856994D01*
X1671994Y1912372D01*
X1632836Y1980195D01*
X1612567Y2055842D01*
X1610000Y2095000D01*
X1610000Y3385000D01*
X1612567Y3424158D01*
X1632836Y3499805D01*
X1671994Y3567628D01*
X1727372Y3623006D01*
X1795195Y3662164D01*
X1870842Y3682433D01*
X1949158Y3682433D01*
X2024805Y3662164D01*
G37*
G36*
X34681885Y6417940D02*
G01*
X34862997Y6342921D01*
X35025993Y6234010D01*
X35164610Y6095393D01*
X35273521Y5932397D01*
X35348540Y5751285D01*
X35386785Y5559017D01*
X35386785Y5362983D01*
X35348540Y5170715D01*
X35273521Y4989603D01*
X35164610Y4826607D01*
X35025993Y4687990D01*
X34862997Y4579079D01*
X34681885Y4504060D01*
X34489617Y4465815D01*
X34293583Y4465815D01*
X34101315Y4504060D01*
X33920203Y4579079D01*
X33757207Y4687990D01*
X33618590Y4826607D01*
X33509679Y4989603D01*
X33434660Y5170715D01*
X33396415Y5362983D01*
X33396415Y5559017D01*
X33434660Y5751285D01*
X33509679Y5932397D01*
X33618590Y6095393D01*
X33757207Y6234010D01*
X33920203Y6342921D01*
X34101315Y6417940D01*
X34293583Y6456185D01*
X34489617Y6456185D01*
X34681885Y6417940D01*
G37*
G36*
X-33463528Y5321861D02*
G01*
X-33390053Y5279440D01*
X-33330060Y5219447D01*
X-33287639Y5145972D01*
X-33265680Y5064021D01*
X-33265680Y4979179D01*
X-33287639Y4897228D01*
X-33330060Y4823753D01*
X-33390053Y4763760D01*
X-33463528Y4721339D01*
X-33545479Y4699380D01*
X-33630321Y4699380D01*
X-33712272Y4721339D01*
X-33785747Y4763760D01*
X-33845740Y4823753D01*
X-33888161Y4897228D01*
X-33910120Y4979179D01*
X-33910120Y5064021D01*
X-33888161Y5145972D01*
X-33845740Y5219447D01*
X-33785747Y5279440D01*
X-33712272Y5321861D01*
X-33630321Y5343820D01*
X-33545479Y5343820D01*
X-33463528Y5321861D01*
G37*
G36*
X-36966063Y7051480D02*
G01*
X-36909721Y7048713D01*
X-36902777Y7047332D01*
X-36889584Y7046467D01*
X-36864096Y7039638D01*
X-36793767Y7025648D01*
X-36760576Y7011900D01*
X-36738290Y7005928D01*
X-36718309Y6994392D01*
X-36685117Y6980643D01*
X-36625503Y6940810D01*
X-36602643Y6927612D01*
X-36596386Y6921355D01*
X-36587345Y6915314D01*
X-36504187Y6832156D01*
X-36498147Y6823116D01*
X-36491888Y6816857D01*
X-36478688Y6793994D01*
X-36438858Y6734384D01*
X-36425111Y6701196D01*
X-36413572Y6681210D01*
X-36407600Y6658921D01*
X-36393853Y6625734D01*
X-36379866Y6555415D01*
X-36373033Y6529916D01*
X-36373033Y6521067D01*
X-36370911Y6510399D01*
X-36370911Y6392802D01*
X-36373033Y6382135D01*
X-36373033Y6373284D01*
X-36379867Y6347783D01*
X-36393853Y6277467D01*
X-36407599Y6244282D01*
X-36413572Y6221990D01*
X-36425113Y6202002D01*
X-36438858Y6168817D01*
X-36478684Y6109214D01*
X-36491888Y6086343D01*
X-36498149Y6080083D01*
X-36504187Y6071045D01*
X-36587345Y5987887D01*
X-36596383Y5981849D01*
X-36602643Y5975588D01*
X-36625514Y5962384D01*
X-36685117Y5922558D01*
X-36718302Y5908813D01*
X-36738290Y5897272D01*
X-36760582Y5891299D01*
X-36793767Y5877553D01*
X-36864082Y5863567D01*
X-36889584Y5856733D01*
X-36902785Y5855868D01*
X-36909721Y5854488D01*
X-36966061Y5851721D01*
X-36967900Y5851600D01*
X-36968515Y5851600D01*
X-37567285Y5851600D01*
X-37567900Y5851600D01*
X-37569740Y5851721D01*
X-37626080Y5854488D01*
X-37633018Y5855868D01*
X-37646216Y5856733D01*
X-37671717Y5863566D01*
X-37742034Y5877553D01*
X-37775221Y5891300D01*
X-37797510Y5897272D01*
X-37817496Y5908811D01*
X-37850684Y5922558D01*
X-37910294Y5962388D01*
X-37933157Y5975588D01*
X-37939416Y5981847D01*
X-37948456Y5987887D01*
X-38031614Y6071045D01*
X-38037655Y6080086D01*
X-38043912Y6086343D01*
X-38057110Y6109203D01*
X-38096943Y6168817D01*
X-38110692Y6202009D01*
X-38122228Y6221990D01*
X-38128200Y6244276D01*
X-38141948Y6277467D01*
X-38155936Y6347788D01*
X-38162767Y6373284D01*
X-38162767Y6382134D01*
X-38164889Y6392802D01*
X-38164889Y6510399D01*
X-38162767Y6521068D01*
X-38162767Y6529916D01*
X-38155937Y6555410D01*
X-38141948Y6625734D01*
X-38128199Y6658928D01*
X-38122228Y6681210D01*
X-38110693Y6701190D01*
X-38096943Y6734384D01*
X-38057106Y6794005D01*
X-38043912Y6816857D01*
X-38037657Y6823113D01*
X-38031614Y6832156D01*
X-37948456Y6915314D01*
X-37939413Y6921357D01*
X-37933157Y6927612D01*
X-37910305Y6940806D01*
X-37850684Y6980643D01*
X-37817490Y6994393D01*
X-37797510Y7005928D01*
X-37775228Y7011899D01*
X-37742034Y7025648D01*
X-37671702Y7039639D01*
X-37646216Y7046467D01*
X-37633025Y7047332D01*
X-37626080Y7048713D01*
X-37569737Y7051480D01*
X-37567900Y7051600D01*
X-36967900Y7051600D01*
X-36966063Y7051480D01*
G37*
G36*
X-32686063Y7051480D02*
G01*
X-32629721Y7048713D01*
X-32622777Y7047332D01*
X-32609584Y7046467D01*
X-32584096Y7039638D01*
X-32513767Y7025648D01*
X-32480576Y7011900D01*
X-32458290Y7005928D01*
X-32438309Y6994392D01*
X-32405117Y6980643D01*
X-32345503Y6940810D01*
X-32322643Y6927612D01*
X-32316386Y6921355D01*
X-32307345Y6915314D01*
X-32224187Y6832156D01*
X-32218147Y6823116D01*
X-32211888Y6816857D01*
X-32198688Y6793994D01*
X-32158858Y6734384D01*
X-32145111Y6701196D01*
X-32133572Y6681210D01*
X-32127600Y6658921D01*
X-32113853Y6625734D01*
X-32099866Y6555415D01*
X-32093033Y6529916D01*
X-32093033Y6521067D01*
X-32090911Y6510399D01*
X-32090911Y6392802D01*
X-32093033Y6382135D01*
X-32093033Y6373284D01*
X-32099867Y6347783D01*
X-32113853Y6277467D01*
X-32127599Y6244282D01*
X-32133572Y6221990D01*
X-32145113Y6202002D01*
X-32158858Y6168817D01*
X-32198684Y6109214D01*
X-32211888Y6086343D01*
X-32218149Y6080083D01*
X-32224187Y6071045D01*
X-32307345Y5987887D01*
X-32316383Y5981849D01*
X-32322643Y5975588D01*
X-32345514Y5962384D01*
X-32405117Y5922558D01*
X-32438302Y5908813D01*
X-32458290Y5897272D01*
X-32480582Y5891299D01*
X-32513767Y5877553D01*
X-32584082Y5863567D01*
X-32609584Y5856733D01*
X-32622785Y5855868D01*
X-32629721Y5854488D01*
X-32686061Y5851721D01*
X-32687900Y5851600D01*
X-32688515Y5851600D01*
X-33487285Y5851600D01*
X-33487900Y5851600D01*
X-33489740Y5851721D01*
X-33546080Y5854488D01*
X-33553018Y5855868D01*
X-33566216Y5856733D01*
X-33591717Y5863566D01*
X-33662034Y5877553D01*
X-33695221Y5891300D01*
X-33717510Y5897272D01*
X-33737496Y5908811D01*
X-33770684Y5922558D01*
X-33830294Y5962388D01*
X-33853157Y5975588D01*
X-33859416Y5981847D01*
X-33868456Y5987887D01*
X-33951614Y6071045D01*
X-33957655Y6080086D01*
X-33963912Y6086343D01*
X-33977110Y6109203D01*
X-34016943Y6168817D01*
X-34030692Y6202009D01*
X-34042228Y6221990D01*
X-34048200Y6244276D01*
X-34061948Y6277467D01*
X-34075936Y6347788D01*
X-34082767Y6373284D01*
X-34082767Y6382134D01*
X-34084889Y6392802D01*
X-34084889Y6510399D01*
X-34082767Y6521068D01*
X-34082767Y6529916D01*
X-34075937Y6555410D01*
X-34061948Y6625734D01*
X-34048199Y6658928D01*
X-34042228Y6681210D01*
X-34030693Y6701190D01*
X-34016943Y6734384D01*
X-33977106Y6794005D01*
X-33963912Y6816857D01*
X-33957657Y6823113D01*
X-33951614Y6832156D01*
X-33868456Y6915314D01*
X-33859413Y6921357D01*
X-33853157Y6927612D01*
X-33830305Y6940806D01*
X-33770684Y6980643D01*
X-33737490Y6994393D01*
X-33717510Y7005928D01*
X-33695228Y7011899D01*
X-33662034Y7025648D01*
X-33591702Y7039639D01*
X-33566216Y7046467D01*
X-33553025Y7047332D01*
X-33546080Y7048713D01*
X-33489737Y7051480D01*
X-33487900Y7051600D01*
X-32687900Y7051600D01*
X-32686063Y7051480D01*
G37*
G36*
X34681885Y11497940D02*
G01*
X34862997Y11422921D01*
X35025993Y11314010D01*
X35164610Y11175393D01*
X35273521Y11012397D01*
X35348540Y10831285D01*
X35386785Y10639017D01*
X35386785Y10442983D01*
X35348540Y10250715D01*
X35273521Y10069603D01*
X35164610Y9906607D01*
X35025993Y9767990D01*
X34862997Y9659079D01*
X34681885Y9584060D01*
X34489617Y9545815D01*
X34293583Y9545815D01*
X34101315Y9584060D01*
X33920203Y9659079D01*
X33757207Y9767990D01*
X33618590Y9906607D01*
X33509679Y10069603D01*
X33434660Y10250715D01*
X33396415Y10442983D01*
X33396415Y10639017D01*
X33434660Y10831285D01*
X33509679Y11012397D01*
X33618590Y11175393D01*
X33757207Y11314010D01*
X33920203Y11422921D01*
X34101315Y11497940D01*
X34293583Y11536185D01*
X34489617Y11536185D01*
X34681885Y11497940D01*
G37*
G36*
X-14963980Y18654787D02*
G01*
X-14614126Y18574935D01*
X-14275413Y18456415D01*
X-13952100Y18300715D01*
X-13648252Y18109795D01*
X-13367691Y17886055D01*
X-13113945Y17632309D01*
X-12890205Y17351748D01*
X-12699285Y17047900D01*
X-12543585Y16724587D01*
X-12425065Y16385874D01*
X-12345213Y16036020D01*
X-12305034Y15679425D01*
X-12305034Y15320575D01*
X-12345213Y14963980D01*
X-12425065Y14614126D01*
X-12543585Y14275413D01*
X-12699285Y13952100D01*
X-12890205Y13648252D01*
X-13113945Y13367691D01*
X-13367691Y13113945D01*
X-13648252Y12890205D01*
X-13952100Y12699285D01*
X-14275413Y12543585D01*
X-14614126Y12425065D01*
X-14963980Y12345213D01*
X-15320575Y12305034D01*
X-15679425Y12305034D01*
X-16036020Y12345213D01*
X-16385874Y12425065D01*
X-16724587Y12543585D01*
X-17047900Y12699285D01*
X-17351748Y12890205D01*
X-17632309Y13113945D01*
X-17886055Y13367691D01*
X-18109795Y13648252D01*
X-18300715Y13952100D01*
X-18456415Y14275413D01*
X-18574935Y14614126D01*
X-18654787Y14963980D01*
X-18694966Y15320575D01*
X-18694966Y15679425D01*
X-18654787Y16036020D01*
X-18574935Y16385874D01*
X-18456415Y16724587D01*
X-18300715Y17047900D01*
X-18109795Y17351748D01*
X-17886055Y17632309D01*
X-17632309Y17886055D01*
X-17351748Y18109795D01*
X-17047900Y18300715D01*
X-16724587Y18456415D01*
X-16385874Y18574935D01*
X-16036020Y18654787D01*
X-15679425Y18694966D01*
X-15320575Y18694966D01*
X-14963980Y18654787D01*
G37*
G36*
X16036020Y18654787D02*
G01*
X16385874Y18574935D01*
X16724587Y18456415D01*
X17047900Y18300715D01*
X17351748Y18109795D01*
X17632309Y17886055D01*
X17886055Y17632309D01*
X18109795Y17351748D01*
X18300715Y17047900D01*
X18456415Y16724587D01*
X18574935Y16385874D01*
X18654787Y16036020D01*
X18694966Y15679425D01*
X18694966Y15320575D01*
X18654787Y14963980D01*
X18574935Y14614126D01*
X18456415Y14275413D01*
X18300715Y13952100D01*
X18109795Y13648252D01*
X17886055Y13367691D01*
X17632309Y13113945D01*
X17351748Y12890205D01*
X17047900Y12699285D01*
X16724587Y12543585D01*
X16385874Y12425065D01*
X16036020Y12345213D01*
X15679425Y12305034D01*
X15320575Y12305034D01*
X14963980Y12345213D01*
X14614126Y12425065D01*
X14275413Y12543585D01*
X13952100Y12699285D01*
X13648252Y12890205D01*
X13367691Y13113945D01*
X13113945Y13367691D01*
X12890205Y13648252D01*
X12699285Y13952100D01*
X12543585Y14275413D01*
X12425065Y14614126D01*
X12345213Y14963980D01*
X12305034Y15320575D01*
X12305034Y15679425D01*
X12345213Y16036020D01*
X12425065Y16385874D01*
X12543585Y16724587D01*
X12699285Y17047900D01*
X12890205Y17351748D01*
X13113945Y17632309D01*
X13367691Y17886055D01*
X13648252Y18109795D01*
X13952100Y18300715D01*
X14275413Y18456415D01*
X14614126Y18574935D01*
X14963980Y18654787D01*
X15320575Y18694966D01*
X15679425Y18694966D01*
X16036020Y18654787D01*
G37*
G36*
X38930285Y16476940D02*
G01*
X39111397Y16401921D01*
X39274393Y16293010D01*
X39413010Y16154393D01*
X39521921Y15991397D01*
X39596940Y15810285D01*
X39635185Y15618017D01*
X39635185Y15421983D01*
X39596940Y15229715D01*
X39521921Y15048603D01*
X39413010Y14885607D01*
X39274393Y14746990D01*
X39111397Y14638079D01*
X38930285Y14563060D01*
X38738017Y14524815D01*
X38541983Y14524815D01*
X38349715Y14563060D01*
X38168603Y14638079D01*
X38005607Y14746990D01*
X37866990Y14885607D01*
X37758079Y15048603D01*
X37683060Y15229715D01*
X37644815Y15421983D01*
X37644815Y15618017D01*
X37683060Y15810285D01*
X37758079Y15991397D01*
X37866990Y16154393D01*
X38005607Y16293010D01*
X38168603Y16401921D01*
X38349715Y16476940D01*
X38541983Y16515185D01*
X38738017Y16515185D01*
X38930285Y16476940D01*
G37*
G36*
X-22760000Y14880000D02*
G01*
X-24760000Y14880000D01*
X-24760000Y16880000D01*
X-22760000Y16880000D01*
X-22760000Y14880000D01*
G37*
G36*
X39640000Y17060000D02*
G01*
X37640000Y17060000D01*
X37640000Y19060000D01*
X39640000Y19060000D01*
X39640000Y17060000D01*
G37*
G36*
X-23469715Y19376940D02*
G01*
X-23288603Y19301921D01*
X-23125607Y19193010D01*
X-22986990Y19054393D01*
X-22878079Y18891397D01*
X-22803060Y18710285D01*
X-22764815Y18518017D01*
X-22764815Y18321983D01*
X-22803060Y18129715D01*
X-22878079Y17948603D01*
X-22986990Y17785607D01*
X-23125607Y17646990D01*
X-23288603Y17538079D01*
X-23469715Y17463060D01*
X-23661983Y17424815D01*
X-23858017Y17424815D01*
X-24050285Y17463060D01*
X-24231397Y17538079D01*
X-24394393Y17646990D01*
X-24533010Y17785607D01*
X-24641921Y17948603D01*
X-24716940Y18129715D01*
X-24755185Y18321983D01*
X-24755185Y18518017D01*
X-24716940Y18710285D01*
X-24641921Y18891397D01*
X-24533010Y19054393D01*
X-24394393Y19193010D01*
X-24231397Y19301921D01*
X-24050285Y19376940D01*
X-23858017Y19415185D01*
X-23661983Y19415185D01*
X-23469715Y19376940D01*
G37*
G36*
X-36940663Y18869880D02*
G01*
X-36884321Y18867113D01*
X-36877377Y18865732D01*
X-36864184Y18864867D01*
X-36838696Y18858038D01*
X-36768367Y18844048D01*
X-36735176Y18830300D01*
X-36712890Y18824328D01*
X-36692909Y18812792D01*
X-36659717Y18799043D01*
X-36600103Y18759210D01*
X-36577243Y18746012D01*
X-36570986Y18739755D01*
X-36561945Y18733714D01*
X-36478787Y18650556D01*
X-36472747Y18641516D01*
X-36466488Y18635257D01*
X-36453288Y18612394D01*
X-36413458Y18552784D01*
X-36399711Y18519596D01*
X-36388172Y18499610D01*
X-36382200Y18477321D01*
X-36368453Y18444134D01*
X-36354466Y18373815D01*
X-36347633Y18348316D01*
X-36347633Y18339467D01*
X-36345511Y18328799D01*
X-36345511Y18211202D01*
X-36347633Y18200535D01*
X-36347633Y18191684D01*
X-36354467Y18166183D01*
X-36368453Y18095867D01*
X-36382199Y18062682D01*
X-36388172Y18040390D01*
X-36399713Y18020402D01*
X-36413458Y17987217D01*
X-36453284Y17927614D01*
X-36466488Y17904743D01*
X-36472749Y17898483D01*
X-36478787Y17889445D01*
X-36561945Y17806287D01*
X-36570983Y17800249D01*
X-36577243Y17793988D01*
X-36600114Y17780784D01*
X-36659717Y17740958D01*
X-36692902Y17727213D01*
X-36712890Y17715672D01*
X-36735182Y17709699D01*
X-36768367Y17695953D01*
X-36838682Y17681967D01*
X-36864184Y17675133D01*
X-36877385Y17674268D01*
X-36884321Y17672888D01*
X-36940661Y17670121D01*
X-36942500Y17670000D01*
X-36943115Y17670000D01*
X-37541885Y17670000D01*
X-37542500Y17670000D01*
X-37544340Y17670121D01*
X-37600680Y17672888D01*
X-37607618Y17674268D01*
X-37620816Y17675133D01*
X-37646317Y17681966D01*
X-37716634Y17695953D01*
X-37749821Y17709700D01*
X-37772110Y17715672D01*
X-37792096Y17727211D01*
X-37825284Y17740958D01*
X-37884894Y17780788D01*
X-37907757Y17793988D01*
X-37914016Y17800247D01*
X-37923056Y17806287D01*
X-38006214Y17889445D01*
X-38012255Y17898486D01*
X-38018512Y17904743D01*
X-38031710Y17927603D01*
X-38071543Y17987217D01*
X-38085292Y18020409D01*
X-38096828Y18040390D01*
X-38102800Y18062676D01*
X-38116548Y18095867D01*
X-38130536Y18166188D01*
X-38137367Y18191684D01*
X-38137367Y18200534D01*
X-38139489Y18211202D01*
X-38139489Y18328799D01*
X-38137367Y18339468D01*
X-38137367Y18348316D01*
X-38130537Y18373810D01*
X-38116548Y18444134D01*
X-38102799Y18477328D01*
X-38096828Y18499610D01*
X-38085293Y18519590D01*
X-38071543Y18552784D01*
X-38031706Y18612405D01*
X-38018512Y18635257D01*
X-38012257Y18641513D01*
X-38006214Y18650556D01*
X-37923056Y18733714D01*
X-37914013Y18739757D01*
X-37907757Y18746012D01*
X-37884905Y18759206D01*
X-37825284Y18799043D01*
X-37792090Y18812793D01*
X-37772110Y18824328D01*
X-37749828Y18830299D01*
X-37716634Y18844048D01*
X-37646302Y18858039D01*
X-37620816Y18864867D01*
X-37607625Y18865732D01*
X-37600680Y18867113D01*
X-37544337Y18869880D01*
X-37542500Y18870000D01*
X-36942500Y18870000D01*
X-36940663Y18869880D01*
G37*
G36*
X-32660663Y18869880D02*
G01*
X-32604321Y18867113D01*
X-32597377Y18865732D01*
X-32584184Y18864867D01*
X-32558696Y18858038D01*
X-32488367Y18844048D01*
X-32455176Y18830300D01*
X-32432890Y18824328D01*
X-32412909Y18812792D01*
X-32379717Y18799043D01*
X-32320103Y18759210D01*
X-32297243Y18746012D01*
X-32290986Y18739755D01*
X-32281945Y18733714D01*
X-32198787Y18650556D01*
X-32192747Y18641516D01*
X-32186488Y18635257D01*
X-32173288Y18612394D01*
X-32133458Y18552784D01*
X-32119711Y18519596D01*
X-32108172Y18499610D01*
X-32102200Y18477321D01*
X-32088453Y18444134D01*
X-32074466Y18373815D01*
X-32067633Y18348316D01*
X-32067633Y18339467D01*
X-32065511Y18328799D01*
X-32065511Y18211202D01*
X-32067633Y18200535D01*
X-32067633Y18191684D01*
X-32074467Y18166183D01*
X-32088453Y18095867D01*
X-32102199Y18062682D01*
X-32108172Y18040390D01*
X-32119713Y18020402D01*
X-32133458Y17987217D01*
X-32173284Y17927614D01*
X-32186488Y17904743D01*
X-32192749Y17898483D01*
X-32198787Y17889445D01*
X-32281945Y17806287D01*
X-32290983Y17800249D01*
X-32297243Y17793988D01*
X-32320114Y17780784D01*
X-32379717Y17740958D01*
X-32412902Y17727213D01*
X-32432890Y17715672D01*
X-32455182Y17709699D01*
X-32488367Y17695953D01*
X-32558682Y17681967D01*
X-32584184Y17675133D01*
X-32597385Y17674268D01*
X-32604321Y17672888D01*
X-32660661Y17670121D01*
X-32662500Y17670000D01*
X-32663115Y17670000D01*
X-33461885Y17670000D01*
X-33462500Y17670000D01*
X-33464340Y17670121D01*
X-33520680Y17672888D01*
X-33527618Y17674268D01*
X-33540816Y17675133D01*
X-33566317Y17681966D01*
X-33636634Y17695953D01*
X-33669821Y17709700D01*
X-33692110Y17715672D01*
X-33712096Y17727211D01*
X-33745284Y17740958D01*
X-33804894Y17780788D01*
X-33827757Y17793988D01*
X-33834016Y17800247D01*
X-33843056Y17806287D01*
X-33926214Y17889445D01*
X-33932255Y17898486D01*
X-33938512Y17904743D01*
X-33951710Y17927603D01*
X-33991543Y17987217D01*
X-34005292Y18020409D01*
X-34016828Y18040390D01*
X-34022800Y18062676D01*
X-34036548Y18095867D01*
X-34050536Y18166188D01*
X-34057367Y18191684D01*
X-34057367Y18200534D01*
X-34059489Y18211202D01*
X-34059489Y18328799D01*
X-34057367Y18339468D01*
X-34057367Y18348316D01*
X-34050537Y18373810D01*
X-34036548Y18444134D01*
X-34022799Y18477328D01*
X-34016828Y18499610D01*
X-34005293Y18519590D01*
X-33991543Y18552784D01*
X-33951706Y18612405D01*
X-33938512Y18635257D01*
X-33932257Y18641513D01*
X-33926214Y18650556D01*
X-33843056Y18733714D01*
X-33834013Y18739757D01*
X-33827757Y18746012D01*
X-33804905Y18759206D01*
X-33745284Y18799043D01*
X-33712090Y18812793D01*
X-33692110Y18824328D01*
X-33669828Y18830299D01*
X-33636634Y18844048D01*
X-33566302Y18858039D01*
X-33540816Y18864867D01*
X-33527625Y18865732D01*
X-33520680Y18867113D01*
X-33464337Y18869880D01*
X-33462500Y18870000D01*
X-32662500Y18870000D01*
X-32660663Y18869880D01*
G37*
G36*
X-33438128Y20000261D02*
G01*
X-33364653Y19957840D01*
X-33304660Y19897847D01*
X-33262239Y19824372D01*
X-33240280Y19742421D01*
X-33240280Y19657579D01*
X-33262239Y19575628D01*
X-33304660Y19502153D01*
X-33364653Y19442160D01*
X-33438128Y19399739D01*
X-33520079Y19377780D01*
X-33604921Y19377780D01*
X-33686872Y19399739D01*
X-33760347Y19442160D01*
X-33820340Y19502153D01*
X-33862761Y19575628D01*
X-33884720Y19657579D01*
X-33884720Y19742421D01*
X-33862761Y19824372D01*
X-33820340Y19897847D01*
X-33760347Y19957840D01*
X-33686872Y20000261D01*
X-33604921Y20022220D01*
X-33520079Y20022220D01*
X-33438128Y20000261D01*
G37*
G36*
X-33438128Y25800261D02*
G01*
X-33364653Y25757840D01*
X-33304660Y25697847D01*
X-33262239Y25624372D01*
X-33240280Y25542421D01*
X-33240280Y25457579D01*
X-33262239Y25375628D01*
X-33304660Y25302153D01*
X-33364653Y25242160D01*
X-33438128Y25199739D01*
X-33520079Y25177780D01*
X-33604921Y25177780D01*
X-33686872Y25199739D01*
X-33760347Y25242160D01*
X-33820340Y25302153D01*
X-33862761Y25375628D01*
X-33884720Y25457579D01*
X-33884720Y25542421D01*
X-33862761Y25624372D01*
X-33820340Y25697847D01*
X-33760347Y25757840D01*
X-33686872Y25800261D01*
X-33604921Y25822220D01*
X-33520079Y25822220D01*
X-33438128Y25800261D01*
G37*
G36*
X-36940663Y27529880D02*
G01*
X-36884321Y27527113D01*
X-36877377Y27525732D01*
X-36864184Y27524867D01*
X-36838696Y27518038D01*
X-36768367Y27504048D01*
X-36735176Y27490300D01*
X-36712890Y27484328D01*
X-36692909Y27472792D01*
X-36659717Y27459043D01*
X-36600103Y27419210D01*
X-36577243Y27406012D01*
X-36570986Y27399755D01*
X-36561945Y27393714D01*
X-36478787Y27310556D01*
X-36472747Y27301516D01*
X-36466488Y27295257D01*
X-36453288Y27272394D01*
X-36413458Y27212784D01*
X-36399711Y27179596D01*
X-36388172Y27159610D01*
X-36382200Y27137321D01*
X-36368453Y27104134D01*
X-36354466Y27033815D01*
X-36347633Y27008316D01*
X-36347633Y26999467D01*
X-36345511Y26988799D01*
X-36345511Y26871202D01*
X-36347633Y26860535D01*
X-36347633Y26851684D01*
X-36354467Y26826183D01*
X-36368453Y26755867D01*
X-36382199Y26722682D01*
X-36388172Y26700390D01*
X-36399713Y26680402D01*
X-36413458Y26647217D01*
X-36453284Y26587614D01*
X-36466488Y26564743D01*
X-36472749Y26558483D01*
X-36478787Y26549445D01*
X-36561945Y26466287D01*
X-36570983Y26460249D01*
X-36577243Y26453988D01*
X-36600114Y26440784D01*
X-36659717Y26400958D01*
X-36692902Y26387213D01*
X-36712890Y26375672D01*
X-36735182Y26369699D01*
X-36768367Y26355953D01*
X-36838682Y26341967D01*
X-36864184Y26335133D01*
X-36877385Y26334268D01*
X-36884321Y26332888D01*
X-36940661Y26330121D01*
X-36942500Y26330000D01*
X-36943115Y26330000D01*
X-37541885Y26330000D01*
X-37542500Y26330000D01*
X-37544340Y26330121D01*
X-37600680Y26332888D01*
X-37607618Y26334268D01*
X-37620816Y26335133D01*
X-37646317Y26341966D01*
X-37716634Y26355953D01*
X-37749821Y26369700D01*
X-37772110Y26375672D01*
X-37792096Y26387211D01*
X-37825284Y26400958D01*
X-37884894Y26440788D01*
X-37907757Y26453988D01*
X-37914016Y26460247D01*
X-37923056Y26466287D01*
X-38006214Y26549445D01*
X-38012255Y26558486D01*
X-38018512Y26564743D01*
X-38031710Y26587603D01*
X-38071543Y26647217D01*
X-38085292Y26680409D01*
X-38096828Y26700390D01*
X-38102800Y26722676D01*
X-38116548Y26755867D01*
X-38130536Y26826188D01*
X-38137367Y26851684D01*
X-38137367Y26860534D01*
X-38139489Y26871202D01*
X-38139489Y26988799D01*
X-38137367Y26999468D01*
X-38137367Y27008316D01*
X-38130537Y27033810D01*
X-38116548Y27104134D01*
X-38102799Y27137328D01*
X-38096828Y27159610D01*
X-38085293Y27179590D01*
X-38071543Y27212784D01*
X-38031706Y27272405D01*
X-38018512Y27295257D01*
X-38012257Y27301513D01*
X-38006214Y27310556D01*
X-37923056Y27393714D01*
X-37914013Y27399757D01*
X-37907757Y27406012D01*
X-37884905Y27419206D01*
X-37825284Y27459043D01*
X-37792090Y27472793D01*
X-37772110Y27484328D01*
X-37749828Y27490299D01*
X-37716634Y27504048D01*
X-37646302Y27518039D01*
X-37620816Y27524867D01*
X-37607625Y27525732D01*
X-37600680Y27527113D01*
X-37544337Y27529880D01*
X-37542500Y27530000D01*
X-36942500Y27530000D01*
X-36940663Y27529880D01*
G37*
G36*
X-32660663Y27529880D02*
G01*
X-32604321Y27527113D01*
X-32597377Y27525732D01*
X-32584184Y27524867D01*
X-32558696Y27518038D01*
X-32488367Y27504048D01*
X-32455176Y27490300D01*
X-32432890Y27484328D01*
X-32412909Y27472792D01*
X-32379717Y27459043D01*
X-32320103Y27419210D01*
X-32297243Y27406012D01*
X-32290986Y27399755D01*
X-32281945Y27393714D01*
X-32198787Y27310556D01*
X-32192747Y27301516D01*
X-32186488Y27295257D01*
X-32173288Y27272394D01*
X-32133458Y27212784D01*
X-32119711Y27179596D01*
X-32108172Y27159610D01*
X-32102200Y27137321D01*
X-32088453Y27104134D01*
X-32074466Y27033815D01*
X-32067633Y27008316D01*
X-32067633Y26999467D01*
X-32065511Y26988799D01*
X-32065511Y26871202D01*
X-32067633Y26860535D01*
X-32067633Y26851684D01*
X-32074467Y26826183D01*
X-32088453Y26755867D01*
X-32102199Y26722682D01*
X-32108172Y26700390D01*
X-32119713Y26680402D01*
X-32133458Y26647217D01*
X-32173284Y26587614D01*
X-32186488Y26564743D01*
X-32192749Y26558483D01*
X-32198787Y26549445D01*
X-32281945Y26466287D01*
X-32290983Y26460249D01*
X-32297243Y26453988D01*
X-32320114Y26440784D01*
X-32379717Y26400958D01*
X-32412902Y26387213D01*
X-32432890Y26375672D01*
X-32455182Y26369699D01*
X-32488367Y26355953D01*
X-32558682Y26341967D01*
X-32584184Y26335133D01*
X-32597385Y26334268D01*
X-32604321Y26332888D01*
X-32660661Y26330121D01*
X-32662500Y26330000D01*
X-32663115Y26330000D01*
X-33461885Y26330000D01*
X-33462500Y26330000D01*
X-33464340Y26330121D01*
X-33520680Y26332888D01*
X-33527618Y26334268D01*
X-33540816Y26335133D01*
X-33566317Y26341966D01*
X-33636634Y26355953D01*
X-33669821Y26369700D01*
X-33692110Y26375672D01*
X-33712096Y26387211D01*
X-33745284Y26400958D01*
X-33804894Y26440788D01*
X-33827757Y26453988D01*
X-33834016Y26460247D01*
X-33843056Y26466287D01*
X-33926214Y26549445D01*
X-33932255Y26558486D01*
X-33938512Y26564743D01*
X-33951710Y26587603D01*
X-33991543Y26647217D01*
X-34005292Y26680409D01*
X-34016828Y26700390D01*
X-34022800Y26722676D01*
X-34036548Y26755867D01*
X-34050536Y26826188D01*
X-34057367Y26851684D01*
X-34057367Y26860534D01*
X-34059489Y26871202D01*
X-34059489Y26988799D01*
X-34057367Y26999468D01*
X-34057367Y27008316D01*
X-34050537Y27033810D01*
X-34036548Y27104134D01*
X-34022799Y27137328D01*
X-34016828Y27159610D01*
X-34005293Y27179590D01*
X-33991543Y27212784D01*
X-33951706Y27272405D01*
X-33938512Y27295257D01*
X-33932257Y27301513D01*
X-33926214Y27310556D01*
X-33843056Y27393714D01*
X-33834013Y27399757D01*
X-33827757Y27406012D01*
X-33804905Y27419206D01*
X-33745284Y27459043D01*
X-33712090Y27472793D01*
X-33692110Y27484328D01*
X-33669828Y27490299D01*
X-33636634Y27504048D01*
X-33566302Y27518039D01*
X-33540816Y27524867D01*
X-33527625Y27525732D01*
X-33520680Y27527113D01*
X-33464337Y27529880D01*
X-33462500Y27530000D01*
X-32662500Y27530000D01*
X-32660663Y27529880D01*
G37*
G36*
X-34013980Y37704787D02*
G01*
X-33664126Y37624935D01*
X-33325413Y37506415D01*
X-33002100Y37350715D01*
X-32698252Y37159795D01*
X-32417691Y36936055D01*
X-32163945Y36682309D01*
X-31940205Y36401748D01*
X-31749285Y36097900D01*
X-31593585Y35774587D01*
X-31475065Y35435874D01*
X-31395213Y35086020D01*
X-31355034Y34729425D01*
X-31355034Y34370575D01*
X-31395213Y34013980D01*
X-31475065Y33664126D01*
X-31593585Y33325413D01*
X-31749285Y33002100D01*
X-31940205Y32698252D01*
X-32163945Y32417691D01*
X-32417691Y32163945D01*
X-32698252Y31940205D01*
X-33002100Y31749285D01*
X-33325413Y31593585D01*
X-33664126Y31475065D01*
X-34013980Y31395213D01*
X-34370575Y31355034D01*
X-34729425Y31355034D01*
X-35086020Y31395213D01*
X-35435874Y31475065D01*
X-35774587Y31593585D01*
X-36097900Y31749285D01*
X-36401748Y31940205D01*
X-36682309Y32163945D01*
X-36936055Y32417691D01*
X-37159795Y32698252D01*
X-37350715Y33002100D01*
X-37506415Y33325413D01*
X-37624935Y33664126D01*
X-37704787Y34013980D01*
X-37744966Y34370575D01*
X-37744966Y34729425D01*
X-37704787Y35086020D01*
X-37624935Y35435874D01*
X-37506415Y35774587D01*
X-37350715Y36097900D01*
X-37159795Y36401748D01*
X-36936055Y36682309D01*
X-36682309Y36936055D01*
X-36401748Y37159795D01*
X-36097900Y37350715D01*
X-35774587Y37506415D01*
X-35435874Y37624935D01*
X-35086020Y37704787D01*
X-34729425Y37744966D01*
X-34370575Y37744966D01*
X-34013980Y37704787D01*
G37*
G36*
X35086020Y37704787D02*
G01*
X35435874Y37624935D01*
X35774587Y37506415D01*
X36097900Y37350715D01*
X36401748Y37159795D01*
X36682309Y36936055D01*
X36936055Y36682309D01*
X37159795Y36401748D01*
X37350715Y36097900D01*
X37506415Y35774587D01*
X37624935Y35435874D01*
X37704787Y35086020D01*
X37744966Y34729425D01*
X37744966Y34370575D01*
X37704787Y34013980D01*
X37624935Y33664126D01*
X37506415Y33325413D01*
X37350715Y33002100D01*
X37159795Y32698252D01*
X36936055Y32417691D01*
X36682309Y32163945D01*
X36401748Y31940205D01*
X36097900Y31749285D01*
X35774587Y31593585D01*
X35435874Y31475065D01*
X35086020Y31395213D01*
X34729425Y31355034D01*
X34370575Y31355034D01*
X34013980Y31395213D01*
X33664126Y31475065D01*
X33325413Y31593585D01*
X33002100Y31749285D01*
X32698252Y31940205D01*
X32417691Y32163945D01*
X32163945Y32417691D01*
X31940205Y32698252D01*
X31749285Y33002100D01*
X31593585Y33325413D01*
X31475065Y33664126D01*
X31395213Y34013980D01*
X31355034Y34370575D01*
X31355034Y34729425D01*
X31395213Y35086020D01*
X31475065Y35435874D01*
X31593585Y35774587D01*
X31749285Y36097900D01*
X31940205Y36401748D01*
X32163945Y36682309D01*
X32417691Y36936055D01*
X32698252Y37159795D01*
X33002100Y37350715D01*
X33325413Y37506415D01*
X33664126Y37624935D01*
X34013980Y37704787D01*
X34370575Y37744966D01*
X34729425Y37744966D01*
X35086020Y37704787D01*
G37*
%LPD*%
M02*
