M48
; DRILL file {KiCad 9.0.7} date 2026-03-10T14:53:20+0100
; FORMAT={-:-/ absolute / inch / decimal}
; #@! TF.CreationDate,2026-03-10T14:53:20+01:00
; #@! TF.GenerationSoftware,Kicad,Pcbnew,9.0.7
; #@! TF.FileFunction,Plated,1,6,PTH
FMAT,2
INCH
; #@! TA.AperFunction,Plated,PTH,ViaDrill
T1C0.0079
; #@! TA.AperFunction,Plated,PTH,ViaDrill
T2C0.0118
; #@! TA.AperFunction,Plated,PTH,ComponentDrill
T3C0.0197
; #@! TA.AperFunction,Plated,PTH,ViaDrill
T4C0.0276
; #@! TA.AperFunction,Plated,PTH,ComponentDrill
T5C0.0315
; #@! TA.AperFunction,Plated,PTH,ComponentDrill
T6C0.0472
; #@! TA.AperFunction,Plated,PTH,ComponentDrill
T7C0.0512
; #@! TA.AperFunction,Plated,PTH,ComponentDrill
T8C0.1260
%
G90
G05
T1
X-1.356Y-0.156
X-1.3268Y0.9193
X-1.3268Y0.872
X-1.261Y-0.156
X-1.22Y0.935
X-1.2008Y-0.1142
X-0.9335Y-0.0831
X-0.8602Y-0.3012
X-0.8228Y-0.2657
X-0.6697Y-0.2969
X-0.6614Y0.4291
X-0.6299Y1.3866
X-0.624Y-0.2366
X-0.5646Y-0.3319
X-0.5409Y1.3437
X-0.4075Y1.3433
X-0.3591Y1.3051
X-0.3264Y1.3492
X-0.245Y1.451
X-0.2315Y1.5
X-0.21Y0.5217
X-0.2055Y-0.0551
X-0.201Y1.497
X-0.167Y1.497
X-0.151Y0.075
X-0.134Y1.497
X-0.1094Y1.25
X-0.101Y1.497
X-0.0748Y-0.1638
X-0.067Y1.497
X-0.0402Y-0.3228
X-0.033Y1.497
X-0.0244Y-0.1646
X-0.022Y0.8506
X0.0Y1.497
X0.018Y0.852
X0.0232Y-0.2575
X0.033Y1.497
X0.067Y1.497
X0.067Y0.8506
X0.094Y0.56
X0.094Y0.46
X0.094Y0.36
X0.101Y1.497
X0.113Y0.851
X0.1185Y0.9098
X0.134Y1.497
X0.135Y0.8274
X0.1502Y0.7998
X0.1539Y0.6248
X0.167Y1.497
X0.173Y0.773
X0.1874Y0.6256
X0.2Y0.749
X0.201Y1.497
X0.219Y0.626
X0.229Y0.724
X0.234Y1.497
X0.245Y1.417
X0.245Y1.383
X0.2559Y0.6004
X0.2913Y0.5906
X0.2953Y0.5118
X0.3339Y1.4413
X0.3906Y0.8256
X0.3929Y0.9268
X0.4406Y1.4268
X0.459Y0.251
X0.4921Y0.8744
X0.515Y0.25
X0.516Y-0.16
X0.517Y0.12
X0.517Y-0.018
X0.529Y0.3922
X0.5573Y0.4166
X0.558Y0.3686
X0.59Y0.4402
X0.591Y0.345
X0.6185Y-0.1587
X0.619Y1.335
X0.622Y0.4639
X0.6236Y0.0961
X0.664Y0.042
X0.7165Y1.2559
X0.7205Y1.1535
X0.766Y0.398
X0.7843Y0.5815
X0.816Y0.538
X0.823Y0.457
X0.8465Y1.5354
X0.8953Y0.5473
X0.906Y0.086
X0.929Y0.457
X0.9996Y0.1657
X1.0067Y0.2606
X1.122Y1.5433
X1.1929Y0.8504
T2
X-1.517Y-0.134
X-1.386Y1.099
X-1.386Y0.682
X-1.386Y0.299
X-1.2559Y-0.2657
X-1.251Y-0.125
X-1.241Y1.051
X-1.217Y0.254
X-1.204Y0.764
X-1.152Y1.25
X-1.097Y0.475
X-1.014Y-0.092
X-0.87Y1.48
X-0.7461Y0.3406
X-0.568Y1.499
X-0.5563Y0.9082
X-0.5563Y0.8708
X-0.5Y0.39
X-0.39Y0.39
X-0.335Y1.5403
X-0.31Y0.38
X-0.276Y0.925
X-0.25Y0.46
X-0.17Y0.46
X-0.17Y0.38
X-0.115Y0.11
X-0.11Y1.315
X-0.11Y1.185
X-0.065Y1.36
X-0.065Y1.14
X-0.0017Y0.919
X0.0Y1.36
X0.0Y1.14
X0.025Y0.165
X0.025Y-0.185
X0.0337Y0.9164
X0.065Y1.36
X0.065Y1.14
X0.07Y0.19
X0.075Y-0.18
X0.11Y1.315
X0.11Y1.25
X0.11Y1.185
X0.276Y0.924
X0.339Y1.5403
X0.689Y1.4961
X1.004Y1.4567
X1.099Y1.114
X1.1949Y0.7539
T3
X-1.4547Y1.3602
X-1.4547Y-1.3602
X-1.427Y1.427
X-1.427Y1.2934
X-1.427Y-1.2934
X-1.427Y-1.427
X-1.3602Y1.4547
X-1.3602Y1.2657
X-1.3602Y-1.2657
X-1.3602Y-1.4547
X-1.2934Y1.427
X-1.2934Y1.2934
X-1.2934Y-1.2934
X-1.2934Y-1.427
X-1.2657Y1.3602
X-1.2657Y-1.3602
X-0.7047Y0.6102
X-0.7047Y-0.6102
X-0.677Y0.677
X-0.677Y0.5434
X-0.677Y-0.5434
X-0.677Y-0.677
X-0.6102Y0.7047
X-0.6102Y0.5157
X-0.6102Y-0.5157
X-0.6102Y-0.7047
X-0.5434Y0.677
X-0.5434Y0.5434
X-0.5434Y-0.5434
X-0.5434Y-0.677
X-0.5157Y0.6102
X-0.5157Y-0.6102
X0.5157Y0.6102
X0.5157Y-0.6102
X0.5434Y0.677
X0.5434Y0.5434
X0.5434Y-0.5434
X0.5434Y-0.677
X0.6102Y0.7047
X0.6102Y0.5157
X0.6102Y-0.5157
X0.6102Y-0.7047
X0.677Y0.677
X0.677Y0.5434
X0.677Y-0.5434
X0.677Y-0.677
X0.7047Y0.6102
X0.7047Y-0.6102
X1.2657Y1.3602
X1.2657Y-1.3602
X1.2934Y1.427
X1.2934Y1.2934
X1.2934Y-1.2934
X1.2934Y-1.427
X1.3602Y1.4547
X1.3602Y1.2657
X1.3602Y-1.2657
X1.3602Y-1.4547
X1.427Y1.427
X1.427Y1.2934
X1.427Y-1.2934
X1.427Y-1.427
X1.4547Y1.3602
X1.4547Y-1.3602
T4
X-1.145Y0.157
X-1.144Y0.068
X-1.144Y-0.024
X-0.865Y-0.007
X-0.811Y-0.968
X-0.655Y1.0276
X-0.471Y-0.052
X-0.358Y1.436
X0.0Y-0.8858
X0.4528Y-0.8858
X0.6457Y1.2323
X0.771Y0.96
X0.963Y-0.024
X0.9665Y-0.2319
X1.1213Y-0.2331
X1.123Y1.289
X1.126Y1.2059
X1.1425Y0.4362
X1.1469Y0.5071
X1.432Y1.189
X1.4374Y0.611
X1.5177Y-0.4173
T6
X-0.9354Y0.7252
X-0.9354Y0.6252
X-0.5913Y-0.9752
X-0.4913Y-0.9752
X-0.3748Y-0.9744
X-0.2748Y-0.9744
X-0.1583Y-0.9744
X-0.1331Y-0.537
X-0.0583Y-0.9744
X-0.0331Y-0.537
X0.078Y-0.5366
X0.078Y-0.9744
X0.178Y-0.5366
X0.178Y-0.9744
X0.2886Y-0.537
X0.2969Y-0.976
X0.3886Y-0.537
X0.3969Y-0.976
X1.1961Y-0.3307
X1.2961Y-0.3307
X1.4165Y-0.3307
X1.5165Y-0.3307
X1.5213Y0.711
X1.5213Y0.611
T7
X-1.3461Y-0.7902
X-1.3461Y-0.9902
X1.354Y0.415
X1.354Y0.215
X1.354Y0.015
T8
X-1.3602Y1.3602
X-1.3602Y-1.3602
X-0.6102Y0.6102
X-0.6102Y-0.6102
X0.6102Y0.6102
X0.6102Y-0.6102
X1.3602Y1.3602
X1.3602Y-1.3602
T5
G00X-1.4554Y0.254
M15
G01X-1.4791Y0.254
M16
G05
G00X-1.4554Y-0.0869
M15
G01X-1.4791Y-0.0869
M16
G05
G00X-1.4544Y1.0602
M15
G01X-1.4781Y1.0602
M16
G05
G00X-1.4544Y0.7193
M15
G01X-1.4781Y0.7193
M16
G05
G00X-1.2869Y0.254
M15
G01X-1.3184Y0.254
M16
G05
G00X-1.2869Y-0.0869
M15
G01X-1.3184Y-0.0869
M16
G05
G00X-1.2859Y1.0602
M15
G01X-1.3174Y1.0602
M16
G05
G00X-1.2859Y0.7193
M15
G01X-1.3174Y0.7193
M16
G05
M30
