%TF.GenerationSoftware,KiCad,Pcbnew,9.0.7*%
%TF.CreationDate,2026-03-10T14:53:20+01:00*%
%TF.ProjectId,MotorKontrollerV1,4d6f746f-724b-46f6-9e74-726f6c6c6572,rev?*%
%TF.SameCoordinates,Original*%
%TF.FileFunction,Copper,L6,Bot*%
%TF.FilePolarity,Positive*%
%FSLAX46Y46*%
G04 Gerber Fmt 4.6, Leading zero omitted, Abs format (unit mm)*
G04 Created by KiCad (PCBNEW 9.0.7) date 2026-03-10 14:53:20*
%MOMM*%
%LPD*%
G01*
G04 APERTURE LIST*
%TA.AperFunction,ComponentPad*%
%ADD10R,2.000000X2.000000*%
%TD*%
%TA.AperFunction,ComponentPad*%
%ADD11C,2.000000*%
%TD*%
%TA.AperFunction,ComponentPad*%
%ADD12O,2.000000X1.200000*%
%TD*%
%TA.AperFunction,ComponentPad*%
%ADD13O,1.800000X1.200000*%
%TD*%
%TA.AperFunction,ComponentPad*%
%ADD14C,0.800000*%
%TD*%
%TA.AperFunction,ComponentPad*%
%ADD15C,6.400000*%
%TD*%
%TA.AperFunction,SMDPad,CuDef*%
%ADD16O,0.600000X1.890000*%
%TD*%
%TA.AperFunction,ViaPad*%
%ADD17C,1.200000*%
%TD*%
%TA.AperFunction,ViaPad*%
%ADD18C,0.600000*%
%TD*%
%TA.AperFunction,ViaPad*%
%ADD19C,0.700000*%
%TD*%
%TA.AperFunction,ViaPad*%
%ADD20C,0.500000*%
%TD*%
%TA.AperFunction,Conductor*%
%ADD21C,0.500000*%
%TD*%
%TA.AperFunction,Conductor*%
%ADD22C,0.750000*%
%TD*%
%TA.AperFunction,Conductor*%
%ADD23C,0.300000*%
%TD*%
%TA.AperFunction,Conductor*%
%ADD24C,0.200000*%
%TD*%
G04 APERTURE END LIST*
D10*
%TO.P,H13,1,1*%
%TO.N,ADC_SOC*%
X7540000Y-24790000D03*
D11*
%TO.P,H13,2,2*%
%TO.N,GND*%
X10080000Y-24790000D03*
%TD*%
D12*
%TO.P,USBC2,1,EH*%
%TO.N,GND*%
X-33087900Y-2208400D03*
D13*
%TO.P,USBC2,2,EH*%
X-37267900Y-2208400D03*
%TO.P,USBC2,3,EH*%
X-37267900Y6451600D03*
D12*
%TO.P,USBC2,4,EH*%
X-33087900Y6451600D03*
%TD*%
D14*
%TO.P,H7,1,MP*%
%TO.N,MOUNTING_PIN*%
X-36950000Y-34550000D03*
X-36247056Y-32852944D03*
X-36247056Y-36247056D03*
X-34550000Y-32150000D03*
D15*
X-34550000Y-34550000D03*
D14*
X-34550000Y-36950000D03*
X-32852944Y-32852944D03*
X-32852944Y-36247056D03*
X-32150000Y-34550000D03*
%TD*%
%TO.P,H8,1,MP*%
%TO.N,MOUNTING_PIN*%
X32150000Y-34550000D03*
X32852944Y-32852944D03*
X32852944Y-36247056D03*
X34550000Y-32150000D03*
D15*
X34550000Y-34550000D03*
D14*
X34550000Y-36950000D03*
X36247056Y-32852944D03*
X36247056Y-36247056D03*
X36950000Y-34550000D03*
%TD*%
D10*
%TO.P,H15,1,1*%
%TO.N,PWM_LB*%
X4520000Y-13630000D03*
D11*
%TO.P,H15,2,2*%
%TO.N,PWM_HB*%
X1980000Y-13630000D03*
%TD*%
D10*
%TO.P,H9,1,1*%
%TO.N,ENK_SINN*%
X-15020000Y-24770000D03*
D11*
%TO.P,H9,2,2*%
%TO.N,ENK_SINP*%
X-12480000Y-24770000D03*
%TD*%
D14*
%TO.P,H1,1,MP*%
%TO.N,MOUNTING_PIN*%
X-17900000Y-15500000D03*
X-17197056Y-13802944D03*
X-17197056Y-17197056D03*
X-15500000Y-13100000D03*
D15*
X-15500000Y-15500000D03*
D14*
X-15500000Y-17900000D03*
X-13802944Y-13802944D03*
X-13802944Y-17197056D03*
X-13100000Y-15500000D03*
%TD*%
D11*
%TO.P,C20,1,1*%
%TO.N,PHASE A*%
X34391600Y381000D03*
%TO.P,C20,2,2*%
%TO.N,PHASE B*%
X34391600Y5461000D03*
%TO.P,C20,3,3*%
%TO.N,PHASE C*%
X34391600Y10541000D03*
%TD*%
D14*
%TO.P,H6,1,MP*%
%TO.N,MOUNTING_PIN*%
X-36950000Y34550000D03*
X-36247056Y36247056D03*
X-36247056Y32852944D03*
X-34550000Y36950000D03*
D15*
X-34550000Y34550000D03*
D14*
X-34550000Y32150000D03*
X-32852944Y36247056D03*
X-32852944Y32852944D03*
X-32150000Y34550000D03*
%TD*%
%TO.P,H5,1,MP*%
%TO.N,MOUNTING_PIN*%
X32150000Y34550000D03*
X32852944Y36247056D03*
X32852944Y32852944D03*
X34550000Y36950000D03*
D15*
X34550000Y34550000D03*
D14*
X34550000Y32150000D03*
X36247056Y36247056D03*
X36247056Y32852944D03*
X36950000Y34550000D03*
%TD*%
D10*
%TO.P,H18,1,1*%
%TO.N,PHASE C*%
X35980000Y-8400000D03*
D11*
%TO.P,H18,2,2*%
%TO.N,GND*%
X38520000Y-8400000D03*
%TD*%
D12*
%TO.P,USBC1,1,EH*%
%TO.N,GND*%
X-33062500Y18270000D03*
D13*
%TO.P,USBC1,2,EH*%
X-37242500Y18270000D03*
%TO.P,USBC1,3,EH*%
X-37242500Y26930000D03*
D12*
%TO.P,USBC1,4,EH*%
X-33062500Y26930000D03*
%TD*%
D11*
%TO.P,P1,1,1*%
%TO.N,+VCC_DC*%
X-34190000Y-20070000D03*
%TO.P,P1,2,2*%
%TO.N,GND*%
X-34190000Y-25150000D03*
%TD*%
D10*
%TO.P,H17,1,1*%
%TO.N,PHASE A*%
X30380000Y-8400000D03*
D11*
%TO.P,H17,2,2*%
%TO.N,PHASE B*%
X32920000Y-8400000D03*
%TD*%
D10*
%TO.P,H16,1,1*%
%TO.N,PWM_LA*%
X-840000Y-13640000D03*
D11*
%TO.P,H16,2,2*%
%TO.N,PWM_HA*%
X-3380000Y-13640000D03*
%TD*%
D14*
%TO.P,H3,1,MP*%
%TO.N,MOUNTING_PIN*%
X13100000Y15500000D03*
X13802944Y17197056D03*
X13802944Y13802944D03*
X15500000Y17900000D03*
D15*
X15500000Y15500000D03*
D14*
X15500000Y13100000D03*
X17197056Y17197056D03*
X17197056Y13802944D03*
X17900000Y15500000D03*
%TD*%
D10*
%TO.P,H14,1,1*%
%TO.N,PWM_LC*%
X9870000Y-13640000D03*
D11*
%TO.P,H14,2,2*%
%TO.N,PWM_HC*%
X7330000Y-13640000D03*
%TD*%
D10*
%TO.P,H20,1,1*%
%TO.N,D+_Header*%
X-23760000Y15880000D03*
D11*
%TO.P,H20,2,2*%
%TO.N,D-_Header*%
X-23760000Y18420000D03*
%TD*%
D14*
%TO.P,H4,1,MP*%
%TO.N,MOUNTING_PIN*%
X-17900000Y15500000D03*
X-17197056Y17197056D03*
X-17197056Y13802944D03*
X-15500000Y17900000D03*
D15*
X-15500000Y15500000D03*
D14*
X-15500000Y13100000D03*
X-13802944Y17197056D03*
X-13802944Y13802944D03*
X-13100000Y15500000D03*
%TD*%
D10*
%TO.P,H11,1,1*%
%TO.N,ENK_Vgmr*%
X-4020000Y-24750000D03*
D11*
%TO.P,H11,2,2*%
%TO.N,GND*%
X-1480000Y-24750000D03*
%TD*%
D10*
%TO.P,H12,1,1*%
%TO.N,ADC_SOA*%
X1980000Y-24750000D03*
D11*
%TO.P,H12,2,2*%
%TO.N,ADC_SOB*%
X4520000Y-24750000D03*
%TD*%
D10*
%TO.P,H19,1,1*%
%TO.N,+3V3*%
X38640000Y18060000D03*
D11*
%TO.P,H19,2,2*%
%TO.N,GND*%
X38640000Y15520000D03*
%TD*%
D10*
%TO.P,H10,1,1*%
%TO.N,ENK_COSP*%
X-9520000Y-24750000D03*
D11*
%TO.P,H10,2,2*%
%TO.N,ENK_COSN*%
X-6980000Y-24750000D03*
%TD*%
D14*
%TO.P,H2,1,MP*%
%TO.N,MOUNTING_PIN*%
X13100000Y-15500000D03*
X13802944Y-13802944D03*
X13802944Y-17197056D03*
X15500000Y-13100000D03*
D15*
X15500000Y-15500000D03*
D14*
X15500000Y-17900000D03*
X17197056Y-13802944D03*
X17197056Y-17197056D03*
X17900000Y-15500000D03*
%TD*%
D16*
%TO.P,U4,1,COS_P*%
%TO.N,COS_P*%
X1910000Y-2740000D03*
%TO.P,U4,2,COS_N*%
%TO.N,COS_N*%
X630000Y-2740000D03*
%TO.P,U4,3,GND2*%
%TO.N,GND*%
X-630000Y-2740000D03*
%TO.P,U4,4,GND1*%
X-1900000Y-2740000D03*
%TO.P,U4,5,VGMR*%
%TO.N,ENK_Vgmr*%
X-1900000Y2740000D03*
%TO.P,U4,6,VDD*%
%TO.N,+3V3*%
X-630000Y2740000D03*
%TO.P,U4,7,SIN_N*%
%TO.N,SIN_N*%
X630000Y2740000D03*
%TO.P,U4,8,SIN_P*%
%TO.N,SIN_P*%
X1910000Y2740000D03*
%TD*%
D17*
%TO.N,+VCC*%
X24460200Y-609600D03*
X-20599400Y-24587200D03*
X-16637000Y26100000D03*
X19583400Y24384000D03*
X28600400Y30630000D03*
X-11963400Y-1320800D03*
X28524200Y32740600D03*
D18*
%TO.N,GND*%
X-4241800Y38023800D03*
X9920000Y20970000D03*
X12500000Y22210000D03*
X1701800Y38023800D03*
D19*
X-31900000Y-6750000D03*
D18*
X-838200Y38023800D03*
D17*
X-29083000Y3987800D03*
D19*
X-2794000Y33401000D03*
D18*
X-6223000Y36855400D03*
D19*
X-8509000Y39124000D03*
X2794000Y31750000D03*
D18*
X-14340000Y-8430000D03*
X28500000Y39200000D03*
D17*
X24550000Y-5890000D03*
X29130000Y12880000D03*
D19*
X0Y28956000D03*
D18*
X-5880000Y38100000D03*
D19*
X-35204400Y17322800D03*
X-18950000Y8650000D03*
X30350000Y19150000D03*
D18*
X11190000Y36240000D03*
X6223000Y35128200D03*
D19*
X-14427200Y38074600D03*
D18*
X-17010000Y-7540000D03*
X5105400Y38023800D03*
X16865600Y1066800D03*
X15710000Y-4030000D03*
D17*
X-29057600Y-609600D03*
D19*
X-35204400Y7594600D03*
D18*
X-30500000Y-2900000D03*
X13106400Y-4064000D03*
D19*
X-30581600Y19405600D03*
X8610600Y39124000D03*
D17*
X29020000Y11080000D03*
D19*
X1651000Y34544000D03*
D18*
X-30988000Y23749000D03*
D19*
X-31521400Y26695400D03*
D18*
X-620000Y-4180000D03*
X-21850000Y-7650000D03*
D19*
X17500000Y38000000D03*
D18*
X8480000Y36610000D03*
D19*
X27914600Y28295600D03*
D18*
X-9120000Y33150000D03*
X19456400Y10109200D03*
X5943600Y38023800D03*
D17*
X16400000Y31300000D03*
D19*
X-2794000Y30099000D03*
D18*
X-2780000Y31750000D03*
D17*
X11500000Y-22500000D03*
D18*
X25570000Y6620000D03*
D19*
X2794000Y33401000D03*
X1651000Y28956000D03*
D18*
X15840000Y2440000D03*
D17*
X38550000Y-10600000D03*
D19*
X2794000Y30099000D03*
D18*
X-3403600Y38023800D03*
D19*
X-35204400Y27914600D03*
X-29260800Y31750000D03*
X-22098000Y37592000D03*
X-30911800Y6451600D03*
X0Y34544000D03*
D18*
X0Y38023800D03*
D17*
X-29057600Y1727200D03*
D19*
X-27863800Y12065000D03*
X7010400Y23469600D03*
D17*
X36510000Y15520000D03*
D18*
X-13740000Y34130000D03*
X-1701800Y38023800D03*
X-15850000Y-6010000D03*
X21500000Y39000000D03*
X18200000Y31900000D03*
X2565400Y38023800D03*
X19920000Y14770000D03*
X-1020000Y-8200000D03*
D19*
X-1651000Y34544000D03*
D18*
X2387600Y14224000D03*
X-16000000Y35220000D03*
X3010000Y23110000D03*
X-5105400Y38023800D03*
X-1900000Y-4160000D03*
X30300000Y21600000D03*
D19*
X-7010400Y23495000D03*
D18*
X-16800000Y10900000D03*
X4241800Y38023800D03*
D19*
X-38531800Y-3403600D03*
D18*
X6223000Y35991800D03*
D19*
X-1651000Y28956000D03*
D18*
X-23710000Y-2110000D03*
X23012400Y2184400D03*
X590000Y-6540000D03*
X838200Y38023800D03*
X-2565400Y38023800D03*
D19*
X-31775400Y-3175000D03*
D18*
X11658600Y6375400D03*
X-5220000Y-1400000D03*
X13131800Y-457200D03*
X2387600Y11684000D03*
X13131800Y3048000D03*
X2387600Y9144000D03*
X9980000Y23540000D03*
X-20900000Y-6750000D03*
D17*
X0Y-22500000D03*
D18*
X3403600Y38023800D03*
D17*
X28480000Y-5920000D03*
D18*
X25390000Y4210000D03*
X-10350000Y34120000D03*
D19*
X25501600Y37000000D03*
D18*
X18300000Y29300000D03*
D17*
%TO.N,+VCC_USBCPD*%
X-21971000Y-177800D03*
D19*
X-25755600Y-2336800D03*
D20*
%TO.N,ADC_SOA*%
X6500000Y15250000D03*
%TO.N,ADC_SOB*%
X7400000Y15000000D03*
D18*
%TO.N,ADC_SOC*%
X7500000Y13000000D03*
%TO.N,+AVDD*%
X20904200Y11607800D03*
X23596600Y11607800D03*
D19*
%TO.N,ENK_Vgmr*%
X-2921000Y2794000D03*
D18*
%TO.N,+3V3*%
X-8290000Y34270000D03*
D17*
X-9094400Y36474400D03*
D18*
X-3835400Y1905000D03*
X15722600Y33909000D03*
D17*
X36372800Y30200600D03*
D18*
X13081000Y6350000D03*
D19*
%TO.N,ENK_SINN*%
X-12700000Y9906000D03*
X-9906000Y9906000D03*
%TO.N,ENK_SINP*%
X-7874000Y9652000D03*
X-4318000Y9652000D03*
%TO.N,ENK_COSP*%
X-6350000Y11684000D03*
X-4318000Y11684000D03*
D18*
%TO.N,ENK_COSN*%
X-5334000Y13250000D03*
%TO.N,CC1*%
X-32029400Y-3962400D03*
X-34442400Y-3962400D03*
%TO.N,PWM_LC*%
X5816600Y18389600D03*
X15011400Y8763000D03*
%TO.N,PWM_LA*%
X3429000Y21015400D03*
X14986000Y11182200D03*
%TO.N,PWM_HA*%
X15798800Y11782200D03*
X2870200Y21615400D03*
%TO.N,PWM_HC*%
X5080000Y19024600D03*
X14173200Y9363000D03*
%TO.N,PWM_HB*%
X14154821Y10582200D03*
X3814277Y20314283D03*
%TO.N,CTR_nFAULT*%
X20726400Y13665200D03*
X22740535Y13901335D03*
D20*
%TO.N,MCUSCL*%
X4760000Y15890000D03*
D18*
X457200Y21640800D03*
%TO.N,PWM_LB*%
X13436600Y9963000D03*
X4394200Y19634200D03*
D20*
%TO.N,MCURST*%
X5562600Y15900400D03*
D18*
X1701800Y21605800D03*
D20*
%TO.N,MCUSDA*%
X3910000Y15870000D03*
D18*
X-558800Y21605800D03*
D19*
%TO.N,SIN_N*%
X635000Y4191000D03*
%TO.N,COS_P*%
X1905000Y-4572000D03*
%TO.N,COS_N*%
X635000Y-4699000D03*
%TO.N,SIN_P*%
X1778000Y4826000D03*
%TO.N,MCUD+*%
X-14129000Y22117500D03*
X855358Y23275391D03*
%TO.N,MCUD-*%
X-42094Y23343098D03*
X-14129000Y23067500D03*
D18*
%TO.N,D+_Header*%
X-33700000Y23350000D03*
X-33700000Y22150000D03*
%TD*%
D21*
%TO.N,GND*%
X-36151600Y18270000D02*
X-35204400Y17322800D01*
D22*
X-33087900Y-2208400D02*
X-32742000Y-2208400D01*
D21*
X-33087900Y6451600D02*
X-34061400Y6451600D01*
X-34257200Y18270000D02*
X-35204400Y17322800D01*
D23*
X-620000Y-2750000D02*
X-630000Y-2740000D01*
D21*
X-34219800Y26930000D02*
X-35204400Y27914600D01*
D23*
X-620000Y-4180000D02*
X-620000Y-2750000D01*
D21*
X-33062500Y26930000D02*
X-34219800Y26930000D01*
X-36347400Y6451600D02*
X-35204400Y7594600D01*
D23*
X-1900000Y-4160000D02*
X-1900000Y-2740000D01*
D21*
X-33062500Y18270000D02*
X-34257200Y18270000D01*
X-37267900Y-2208400D02*
X-37336600Y-2208400D01*
X-37242500Y18270000D02*
X-36151600Y18270000D01*
X-34061400Y6451600D02*
X-35204400Y7594600D01*
X-37336600Y-2208400D02*
X-38531800Y-3403600D01*
X-36189000Y26930000D02*
X-35204400Y27914600D01*
X-37242500Y26930000D02*
X-36189000Y26930000D01*
D22*
X-32742000Y-2208400D02*
X-31775400Y-3175000D01*
D21*
X-37267900Y6451600D02*
X-36347400Y6451600D01*
%TO.N,+VCC_USBCPD*%
X-25755600Y-2336800D02*
X-24942800Y-2336800D01*
X-22783800Y-177800D02*
X-21971000Y-177800D01*
X-24942800Y-2336800D02*
X-22783800Y-177800D01*
D23*
%TO.N,ADC_SOA*%
X6250000Y15000000D02*
X6500000Y15250000D01*
X1980000Y-23135082D02*
X-4731000Y-16424082D01*
X5500000Y14250000D02*
X5500000Y-9750000D01*
X-4731000Y-16424082D02*
X-4731000Y-13080397D01*
X5500000Y-9750000D02*
X5250000Y-10000000D01*
X6250000Y15000000D02*
X5500000Y14250000D01*
X-1650603Y-10000000D02*
X5250000Y-10000000D01*
X1980000Y-24750000D02*
X1980000Y-23135082D01*
X-4731000Y-13080397D02*
X-1650603Y-10000000D01*
%TO.N,ADC_SOB*%
X2949397Y-10750000D02*
X5500000Y-10750000D01*
X6500000Y14100000D02*
X6500000Y-9750000D01*
X7400000Y15000000D02*
X6500000Y14100000D01*
X629000Y-13070397D02*
X2949397Y-10750000D01*
X629000Y-20859000D02*
X629000Y-13070397D01*
X6500000Y-9750000D02*
X5500000Y-10750000D01*
X4520000Y-24750000D02*
X629000Y-20859000D01*
%TO.N,ADC_SOC*%
X7500000Y13000000D02*
X7500000Y-11559397D01*
X5979000Y-13080397D02*
X5979000Y-23229000D01*
X7500000Y-11559397D02*
X5979000Y-13080397D01*
X5979000Y-23229000D02*
X7540000Y-24790000D01*
D24*
%TO.N,+AVDD*%
X20904200Y11607800D02*
X23596600Y11607800D01*
D23*
%TO.N,ENK_Vgmr*%
X-2921000Y2794000D02*
X-1954000Y2794000D01*
X-1954000Y2794000D02*
X-1900000Y2740000D01*
D21*
%TO.N,+3V3*%
X-630000Y2740000D02*
X-630000Y3585000D01*
X-630000Y3585000D02*
X-1388400Y4343400D01*
X-3835400Y3251200D02*
X-3835400Y1905000D01*
X-1388400Y4343400D02*
X-2743200Y4343400D01*
X-2743200Y4343400D02*
X-3835400Y3251200D01*
D23*
%TO.N,ENK_SINN*%
X-12700000Y9906000D02*
X-9906000Y9906000D01*
%TO.N,ENK_SINP*%
X-8128000Y9652000D02*
X-7874000Y9652000D01*
X-4318000Y9652000D02*
X-8128000Y9652000D01*
%TO.N,ENK_COSP*%
X-4318000Y11684000D02*
X-6350000Y11684000D01*
%TO.N,CC1*%
X-34442400Y-3962400D02*
X-32029400Y-3962400D01*
D24*
%TO.N,PWM_LC*%
X6858000Y18389600D02*
X5816600Y18389600D01*
X15011400Y8763000D02*
X11760200Y8763000D01*
X11760200Y8763000D02*
X8204200Y12319000D01*
X8204200Y17043400D02*
X6858000Y18389600D01*
X8204200Y12319000D02*
X8204200Y17043400D01*
%TO.N,PWM_LA*%
X3435400Y21009000D02*
X3429000Y21015400D01*
X3429000Y21015400D02*
X6543600Y21015400D01*
X9839000Y13233400D02*
X9839000Y17720000D01*
X11890200Y11182200D02*
X9839000Y13233400D01*
X14986000Y11182200D02*
X11890200Y11182200D01*
X6543600Y21015400D02*
X9839000Y17720000D01*
%TO.N,PWM_HA*%
X11865200Y11782200D02*
X10363200Y13284200D01*
X10363200Y13284200D02*
X10363200Y17856200D01*
X15798800Y11782200D02*
X11865200Y11782200D01*
X6604000Y21615400D02*
X2870200Y21615400D01*
X10363200Y17856200D02*
X6604000Y21615400D01*
%TO.N,PWM_HC*%
X8636000Y12623800D02*
X8636000Y17178700D01*
X11896800Y9363000D02*
X8636000Y12623800D01*
X14173200Y9363000D02*
X11896800Y9363000D01*
X8636000Y17178700D02*
X6790100Y19024600D01*
X6790100Y19024600D02*
X5080000Y19024600D01*
%TO.N,PWM_HB*%
X9438000Y12993100D02*
X11105100Y11326000D01*
X9438000Y17511400D02*
X9438000Y12993100D01*
X11105100Y11326000D02*
X11848900Y10582200D01*
X4495800Y20320000D02*
X6629400Y20320000D01*
X4490083Y20314283D02*
X4495800Y20320000D01*
X3814277Y20314283D02*
X4490083Y20314283D01*
X6629400Y20320000D02*
X9438000Y17511400D01*
X11848900Y10582200D02*
X14154821Y10582200D01*
%TO.N,CTR_nFAULT*%
X20726400Y13665200D02*
X20726400Y13970000D01*
X20726400Y13970000D02*
X21031200Y14274800D01*
X21031200Y14274800D02*
X22367070Y14274800D01*
X22367070Y14274800D02*
X22740535Y13901335D01*
%TO.N,MCUSCL*%
X457200Y21640800D02*
X457200Y20192800D01*
X457200Y20192800D02*
X4760000Y15890000D01*
%TO.N,PWM_LB*%
X9037000Y17344800D02*
X6747600Y19634200D01*
X11856400Y10007600D02*
X9037000Y12827000D01*
X6747600Y19634200D02*
X4394200Y19634200D01*
X9037000Y12827000D02*
X9037000Y17344800D01*
X13436600Y9963000D02*
X13392000Y10007600D01*
X13392000Y10007600D02*
X11856400Y10007600D01*
%TO.N,MCURST*%
X5562600Y15900400D02*
X1700000Y19763000D01*
X1701800Y21605800D02*
X1701800Y19764800D01*
X1701800Y19764800D02*
X1700000Y19763000D01*
%TO.N,MCUSDA*%
X3910000Y15970000D02*
X3910000Y15870000D01*
X-558800Y20438800D02*
X3910000Y15970000D01*
X-558800Y21605800D02*
X-558800Y20438800D01*
D23*
%TO.N,SIN_N*%
X630000Y2740000D02*
X630000Y4186000D01*
X630000Y4186000D02*
X635000Y4191000D01*
%TO.N,COS_P*%
X1910000Y-2740000D02*
X1910000Y-4567000D01*
X1910000Y-4567000D02*
X1905000Y-4572000D01*
%TO.N,COS_N*%
X635000Y-2745000D02*
X630000Y-2740000D01*
X635000Y-4699000D02*
X635000Y-2745000D01*
%TO.N,SIN_P*%
X1910000Y2740000D02*
X1910000Y4694000D01*
X1910000Y4694000D02*
X1778000Y4826000D01*
D24*
%TO.N,MCUD+*%
X38567Y22367499D02*
X-13879001Y22367499D01*
X-13879001Y22367499D02*
X-14129000Y22117500D01*
X855358Y23275391D02*
X855358Y23184290D01*
X855358Y23184290D02*
X38567Y22367499D01*
%TO.N,MCUD-*%
X-42094Y23172960D02*
X-42094Y23136105D01*
X-212232Y23343098D02*
X-42094Y23172960D01*
X-360698Y22817501D02*
X-13879001Y22817501D01*
X-42094Y23136105D02*
X-360698Y22817501D01*
X-42094Y23343098D02*
X-212232Y23343098D01*
X-13879001Y22817501D02*
X-14129000Y23067500D01*
%TO.N,D+_Header*%
X-33700000Y23350000D02*
X-33700000Y22150000D01*
%TD*%
M02*
