%TF.GenerationSoftware,KiCad,Pcbnew,9.0.7*%
%TF.CreationDate,2026-03-10T14:53:20+01:00*%
%TF.ProjectId,MotorKontrollerV1,4d6f746f-724b-46f6-9e74-726f6c6c6572,rev?*%
%TF.SameCoordinates,Original*%
%TF.FileFunction,Soldermask,Top*%
%TF.FilePolarity,Negative*%
%FSLAX46Y46*%
G04 Gerber Fmt 4.6, Leading zero omitted, Abs format (unit mm)*
G04 Created by KiCad (PCBNEW 9.0.7) date 2026-03-10 14:53:20*
%MOMM*%
%LPD*%
G01*
G04 APERTURE LIST*
G04 APERTURE END LIST*
G36*
X-34013980Y-31395213D02*
G01*
X-33664126Y-31475065D01*
X-33325413Y-31593585D01*
X-33002100Y-31749285D01*
X-32698252Y-31940205D01*
X-32417691Y-32163945D01*
X-32163945Y-32417691D01*
X-31940205Y-32698252D01*
X-31749285Y-33002100D01*
X-31593585Y-33325413D01*
X-31475065Y-33664126D01*
X-31395213Y-34013980D01*
X-31355034Y-34370575D01*
X-31355034Y-34729425D01*
X-31395213Y-35086020D01*
X-31475065Y-35435874D01*
X-31593585Y-35774587D01*
X-31749285Y-36097900D01*
X-31940205Y-36401748D01*
X-32163945Y-36682309D01*
X-32417691Y-36936055D01*
X-32698252Y-37159795D01*
X-33002100Y-37350715D01*
X-33325413Y-37506415D01*
X-33664126Y-37624935D01*
X-34013980Y-37704787D01*
X-34370575Y-37744966D01*
X-34729425Y-37744966D01*
X-35086020Y-37704787D01*
X-35435874Y-37624935D01*
X-35774587Y-37506415D01*
X-36097900Y-37350715D01*
X-36401748Y-37159795D01*
X-36682309Y-36936055D01*
X-36936055Y-36682309D01*
X-37159795Y-36401748D01*
X-37350715Y-36097900D01*
X-37506415Y-35774587D01*
X-37624935Y-35435874D01*
X-37704787Y-35086020D01*
X-37744966Y-34729425D01*
X-37744966Y-34370575D01*
X-37704787Y-34013980D01*
X-37624935Y-33664126D01*
X-37506415Y-33325413D01*
X-37350715Y-33002100D01*
X-37159795Y-32698252D01*
X-36936055Y-32417691D01*
X-36682309Y-32163945D01*
X-36401748Y-31940205D01*
X-36097900Y-31749285D01*
X-35774587Y-31593585D01*
X-35435874Y-31475065D01*
X-35086020Y-31395213D01*
X-34729425Y-31355034D01*
X-34370575Y-31355034D01*
X-34013980Y-31395213D01*
G37*
G36*
X35086020Y-31395213D02*
G01*
X35435874Y-31475065D01*
X35774587Y-31593585D01*
X36097900Y-31749285D01*
X36401748Y-31940205D01*
X36682309Y-32163945D01*
X36936055Y-32417691D01*
X37159795Y-32698252D01*
X37350715Y-33002100D01*
X37506415Y-33325413D01*
X37624935Y-33664126D01*
X37704787Y-34013980D01*
X37744966Y-34370575D01*
X37744966Y-34729425D01*
X37704787Y-35086020D01*
X37624935Y-35435874D01*
X37506415Y-35774587D01*
X37350715Y-36097900D01*
X37159795Y-36401748D01*
X36936055Y-36682309D01*
X36682309Y-36936055D01*
X36401748Y-37159795D01*
X36097900Y-37350715D01*
X35774587Y-37506415D01*
X35435874Y-37624935D01*
X35086020Y-37704787D01*
X34729425Y-37744966D01*
X34370575Y-37744966D01*
X34013980Y-37704787D01*
X33664126Y-37624935D01*
X33325413Y-37506415D01*
X33002100Y-37350715D01*
X32698252Y-37159795D01*
X32417691Y-36936055D01*
X32163945Y-36682309D01*
X31940205Y-36401748D01*
X31749285Y-36097900D01*
X31593585Y-35774587D01*
X31475065Y-35435874D01*
X31395213Y-35086020D01*
X31355034Y-34729425D01*
X31355034Y-34370575D01*
X31395213Y-34013980D01*
X31475065Y-33664126D01*
X31593585Y-33325413D01*
X31749285Y-33002100D01*
X31940205Y-32698252D01*
X32163945Y-32417691D01*
X32417691Y-32163945D01*
X32698252Y-31940205D01*
X33002100Y-31749285D01*
X33325413Y-31593585D01*
X33664126Y-31475065D01*
X34013980Y-31395213D01*
X34370575Y-31355034D01*
X34729425Y-31355034D01*
X35086020Y-31395213D01*
G37*
G36*
X-33899715Y-24193060D02*
G01*
X-33718603Y-24268079D01*
X-33555607Y-24376990D01*
X-33416990Y-24515607D01*
X-33308079Y-24678603D01*
X-33233060Y-24859715D01*
X-33194815Y-25051983D01*
X-33194815Y-25248017D01*
X-33233060Y-25440285D01*
X-33308079Y-25621397D01*
X-33416990Y-25784393D01*
X-33555607Y-25923010D01*
X-33718603Y-26031921D01*
X-33899715Y-26106940D01*
X-34091983Y-26145185D01*
X-34288017Y-26145185D01*
X-34480285Y-26106940D01*
X-34661397Y-26031921D01*
X-34824393Y-25923010D01*
X-34963010Y-25784393D01*
X-35071921Y-25621397D01*
X-35146940Y-25440285D01*
X-35185185Y-25248017D01*
X-35185185Y-25051983D01*
X-35146940Y-24859715D01*
X-35071921Y-24678603D01*
X-34963010Y-24515607D01*
X-34824393Y-24376990D01*
X-34661397Y-24268079D01*
X-34480285Y-24193060D01*
X-34288017Y-24154815D01*
X-34091983Y-24154815D01*
X-33899715Y-24193060D01*
G37*
G36*
X8540000Y-25790000D02*
G01*
X6540000Y-25790000D01*
X6540000Y-23790000D01*
X8540000Y-23790000D01*
X8540000Y-25790000D01*
G37*
G36*
X10370285Y-23833060D02*
G01*
X10551397Y-23908079D01*
X10714393Y-24016990D01*
X10853010Y-24155607D01*
X10961921Y-24318603D01*
X11036940Y-24499715D01*
X11075185Y-24691983D01*
X11075185Y-24888017D01*
X11036940Y-25080285D01*
X10961921Y-25261397D01*
X10853010Y-25424393D01*
X10714393Y-25563010D01*
X10551397Y-25671921D01*
X10370285Y-25746940D01*
X10178017Y-25785185D01*
X9981983Y-25785185D01*
X9789715Y-25746940D01*
X9608603Y-25671921D01*
X9445607Y-25563010D01*
X9306990Y-25424393D01*
X9198079Y-25261397D01*
X9123060Y-25080285D01*
X9084815Y-24888017D01*
X9084815Y-24691983D01*
X9123060Y-24499715D01*
X9198079Y-24318603D01*
X9306990Y-24155607D01*
X9445607Y-24016990D01*
X9608603Y-23908079D01*
X9789715Y-23833060D01*
X9981983Y-23794815D01*
X10178017Y-23794815D01*
X10370285Y-23833060D01*
G37*
G36*
X-14020000Y-25770000D02*
G01*
X-16020000Y-25770000D01*
X-16020000Y-23770000D01*
X-14020000Y-23770000D01*
X-14020000Y-25770000D01*
G37*
G36*
X-12189715Y-23813060D02*
G01*
X-12008603Y-23888079D01*
X-11845607Y-23996990D01*
X-11706990Y-24135607D01*
X-11598079Y-24298603D01*
X-11523060Y-24479715D01*
X-11484815Y-24671983D01*
X-11484815Y-24868017D01*
X-11523060Y-25060285D01*
X-11598079Y-25241397D01*
X-11706990Y-25404393D01*
X-11845607Y-25543010D01*
X-12008603Y-25651921D01*
X-12189715Y-25726940D01*
X-12381983Y-25765185D01*
X-12578017Y-25765185D01*
X-12770285Y-25726940D01*
X-12951397Y-25651921D01*
X-13114393Y-25543010D01*
X-13253010Y-25404393D01*
X-13361921Y-25241397D01*
X-13436940Y-25060285D01*
X-13475185Y-24868017D01*
X-13475185Y-24671983D01*
X-13436940Y-24479715D01*
X-13361921Y-24298603D01*
X-13253010Y-24135607D01*
X-13114393Y-23996990D01*
X-12951397Y-23888079D01*
X-12770285Y-23813060D01*
X-12578017Y-23774815D01*
X-12381983Y-23774815D01*
X-12189715Y-23813060D01*
G37*
G36*
X-8520000Y-25750000D02*
G01*
X-10520000Y-25750000D01*
X-10520000Y-23750000D01*
X-8520000Y-23750000D01*
X-8520000Y-25750000D01*
G37*
G36*
X-3020000Y-25750000D02*
G01*
X-5020000Y-25750000D01*
X-5020000Y-23750000D01*
X-3020000Y-23750000D01*
X-3020000Y-25750000D01*
G37*
G36*
X2980000Y-25750000D02*
G01*
X980000Y-25750000D01*
X980000Y-23750000D01*
X2980000Y-23750000D01*
X2980000Y-25750000D01*
G37*
G36*
X-6689715Y-23793060D02*
G01*
X-6508603Y-23868079D01*
X-6345607Y-23976990D01*
X-6206990Y-24115607D01*
X-6098079Y-24278603D01*
X-6023060Y-24459715D01*
X-5984815Y-24651983D01*
X-5984815Y-24848017D01*
X-6023060Y-25040285D01*
X-6098079Y-25221397D01*
X-6206990Y-25384393D01*
X-6345607Y-25523010D01*
X-6508603Y-25631921D01*
X-6689715Y-25706940D01*
X-6881983Y-25745185D01*
X-7078017Y-25745185D01*
X-7270285Y-25706940D01*
X-7451397Y-25631921D01*
X-7614393Y-25523010D01*
X-7753010Y-25384393D01*
X-7861921Y-25221397D01*
X-7936940Y-25040285D01*
X-7975185Y-24848017D01*
X-7975185Y-24651983D01*
X-7936940Y-24459715D01*
X-7861921Y-24278603D01*
X-7753010Y-24115607D01*
X-7614393Y-23976990D01*
X-7451397Y-23868079D01*
X-7270285Y-23793060D01*
X-7078017Y-23754815D01*
X-6881983Y-23754815D01*
X-6689715Y-23793060D01*
G37*
G36*
X-1189715Y-23793060D02*
G01*
X-1008603Y-23868079D01*
X-845607Y-23976990D01*
X-706990Y-24115607D01*
X-598079Y-24278603D01*
X-523060Y-24459715D01*
X-484815Y-24651983D01*
X-484815Y-24848017D01*
X-523060Y-25040285D01*
X-598079Y-25221397D01*
X-706990Y-25384393D01*
X-845607Y-25523010D01*
X-1008603Y-25631921D01*
X-1189715Y-25706940D01*
X-1381983Y-25745185D01*
X-1578017Y-25745185D01*
X-1770285Y-25706940D01*
X-1951397Y-25631921D01*
X-2114393Y-25523010D01*
X-2253010Y-25384393D01*
X-2361921Y-25221397D01*
X-2436940Y-25040285D01*
X-2475185Y-24848017D01*
X-2475185Y-24651983D01*
X-2436940Y-24459715D01*
X-2361921Y-24278603D01*
X-2253010Y-24115607D01*
X-2114393Y-23976990D01*
X-1951397Y-23868079D01*
X-1770285Y-23793060D01*
X-1578017Y-23754815D01*
X-1381983Y-23754815D01*
X-1189715Y-23793060D01*
G37*
G36*
X4810285Y-23793060D02*
G01*
X4991397Y-23868079D01*
X5154393Y-23976990D01*
X5293010Y-24115607D01*
X5401921Y-24278603D01*
X5476940Y-24459715D01*
X5515185Y-24651983D01*
X5515185Y-24848017D01*
X5476940Y-25040285D01*
X5401921Y-25221397D01*
X5293010Y-25384393D01*
X5154393Y-25523010D01*
X4991397Y-25631921D01*
X4810285Y-25706940D01*
X4618017Y-25745185D01*
X4421983Y-25745185D01*
X4229715Y-25706940D01*
X4048603Y-25631921D01*
X3885607Y-25523010D01*
X3746990Y-25384393D01*
X3638079Y-25221397D01*
X3563060Y-25040285D01*
X3524815Y-24848017D01*
X3524815Y-24651983D01*
X3563060Y-24459715D01*
X3638079Y-24278603D01*
X3746990Y-24115607D01*
X3885607Y-23976990D01*
X4048603Y-23868079D01*
X4229715Y-23793060D01*
X4421983Y-23754815D01*
X4618017Y-23754815D01*
X4810285Y-23793060D01*
G37*
G36*
X-20345864Y-21285064D02*
G01*
X-20344980Y-21287200D01*
X-20341575Y-21287878D01*
X-20285805Y-21287878D01*
X-20284137Y-21287878D01*
X-20282843Y-21288048D01*
X-20156764Y-21321830D01*
X-20155558Y-21322330D01*
X-20096457Y-21356452D01*
X-20043968Y-21386756D01*
X-20043966Y-21386757D01*
X-20042519Y-21387593D01*
X-20041483Y-21388387D01*
X-19949187Y-21480683D01*
X-19948393Y-21481719D01*
X-19883130Y-21594758D01*
X-19882630Y-21595964D01*
X-19848848Y-21722043D01*
X-19848678Y-21723337D01*
X-19848678Y-21725004D01*
X-19848678Y-21780774D01*
X-19848001Y-21784178D01*
X-19845864Y-21785064D01*
X-19844400Y-21788600D01*
X-19844400Y-22288600D01*
X-19845864Y-22292136D01*
X-19848392Y-22293182D01*
X-19848424Y-22293261D01*
X-19849400Y-22298168D01*
X-19849400Y-22579031D01*
X-19848424Y-22583938D01*
X-19848391Y-22584017D01*
X-19845864Y-22585064D01*
X-19844400Y-22588600D01*
X-19844400Y-23088600D01*
X-19845864Y-23092136D01*
X-19848001Y-23093020D01*
X-19848678Y-23096425D01*
X-19848678Y-23153863D01*
X-19848848Y-23155157D01*
X-19882630Y-23281236D01*
X-19883130Y-23282442D01*
X-19948393Y-23395481D01*
X-19949187Y-23396517D01*
X-20041483Y-23488813D01*
X-20042519Y-23489607D01*
X-20155558Y-23554870D01*
X-20156764Y-23555370D01*
X-20282843Y-23589152D01*
X-20284137Y-23589322D01*
X-20285805Y-23589322D01*
X-20341575Y-23589322D01*
X-20344980Y-23589999D01*
X-20345864Y-23592136D01*
X-20349400Y-23593600D01*
X-20354453Y-23593600D01*
X-20844347Y-23593600D01*
X-20849400Y-23593600D01*
X-20852936Y-23592136D01*
X-20853821Y-23589999D01*
X-20857225Y-23589322D01*
X-20914663Y-23589322D01*
X-20915957Y-23589152D01*
X-21042036Y-23555370D01*
X-21043242Y-23554870D01*
X-21156281Y-23489607D01*
X-21157317Y-23488813D01*
X-21249613Y-23396517D01*
X-21250407Y-23395481D01*
X-21315670Y-23282442D01*
X-21316170Y-23281236D01*
X-21349952Y-23155157D01*
X-21350122Y-23153863D01*
X-21350122Y-23096425D01*
X-21350800Y-23093020D01*
X-21352936Y-23092136D01*
X-21354400Y-23088600D01*
X-21354400Y-22588600D01*
X-21352936Y-22585064D01*
X-21350410Y-22584017D01*
X-21350376Y-22583938D01*
X-21349400Y-22579031D01*
X-21349400Y-22298168D01*
X-21350376Y-22293261D01*
X-21350409Y-22293182D01*
X-21352936Y-22292136D01*
X-21354400Y-22288600D01*
X-21354400Y-21788600D01*
X-21352936Y-21785064D01*
X-21350800Y-21784178D01*
X-21350122Y-21780774D01*
X-21350122Y-21725004D01*
X-21350122Y-21723337D01*
X-21349952Y-21722043D01*
X-21316170Y-21595964D01*
X-21315670Y-21594758D01*
X-21281862Y-21536200D01*
X-21251244Y-21483167D01*
X-21251240Y-21483161D01*
X-21250407Y-21481719D01*
X-21249613Y-21480683D01*
X-21157317Y-21388387D01*
X-21156281Y-21387593D01*
X-21154839Y-21386760D01*
X-21154833Y-21386756D01*
X-21044685Y-21323163D01*
X-21044685Y-21323162D01*
X-21043242Y-21322330D01*
X-21042036Y-21321830D01*
X-20915957Y-21288048D01*
X-20914663Y-21287878D01*
X-20857225Y-21287878D01*
X-20853821Y-21287200D01*
X-20852936Y-21285064D01*
X-20849400Y-21283600D01*
X-20349400Y-21283600D01*
X-20345864Y-21285064D01*
G37*
G36*
X-28130000Y-22810000D02*
G01*
X-29030000Y-22810000D01*
X-29030000Y-22010000D01*
X-28130000Y-22010000D01*
X-28130000Y-22810000D01*
G37*
G36*
X-26225800Y-22736200D02*
G01*
X-27225800Y-22736200D01*
X-27225800Y-22036200D01*
X-26225800Y-22036200D01*
X-26225800Y-22736200D01*
G37*
G36*
X-26225800Y-21536200D02*
G01*
X-27225800Y-21536200D01*
X-27225800Y-20836200D01*
X-26225800Y-20836200D01*
X-26225800Y-21536200D01*
G37*
G36*
X-28130000Y-21410000D02*
G01*
X-29030000Y-21410000D01*
X-29030000Y-20610000D01*
X-28130000Y-20610000D01*
X-28130000Y-21410000D01*
G37*
G36*
X-33899715Y-19113060D02*
G01*
X-33718603Y-19188079D01*
X-33555607Y-19296990D01*
X-33416990Y-19435607D01*
X-33308079Y-19598603D01*
X-33233060Y-19779715D01*
X-33194815Y-19971983D01*
X-33194815Y-20168017D01*
X-33233060Y-20360285D01*
X-33308079Y-20541397D01*
X-33416990Y-20704393D01*
X-33555607Y-20843010D01*
X-33718603Y-20951921D01*
X-33899715Y-21026940D01*
X-34091983Y-21065185D01*
X-34288017Y-21065185D01*
X-34480285Y-21026940D01*
X-34661397Y-20951921D01*
X-34824393Y-20843010D01*
X-34963010Y-20704393D01*
X-35071921Y-20541397D01*
X-35146940Y-20360285D01*
X-35185185Y-20168017D01*
X-35185185Y-19971983D01*
X-35146940Y-19779715D01*
X-35071921Y-19598603D01*
X-34963010Y-19435607D01*
X-34824393Y-19296990D01*
X-34661397Y-19188079D01*
X-34480285Y-19113060D01*
X-34288017Y-19074815D01*
X-34091983Y-19074815D01*
X-33899715Y-19113060D01*
G37*
G36*
X-24816000Y-19823800D02*
G01*
X-26066000Y-19823800D01*
X-26066000Y-18123800D01*
X-24816000Y-18123800D01*
X-24816000Y-19823800D01*
G37*
G36*
X-20416000Y-19823800D02*
G01*
X-21666000Y-19823800D01*
X-21666000Y-18123800D01*
X-20416000Y-18123800D01*
X-20416000Y-19823800D01*
G37*
G36*
X-14963980Y-12345213D02*
G01*
X-14614126Y-12425065D01*
X-14275413Y-12543585D01*
X-13952100Y-12699285D01*
X-13648252Y-12890205D01*
X-13367691Y-13113945D01*
X-13113945Y-13367691D01*
X-12890205Y-13648252D01*
X-12699285Y-13952100D01*
X-12543585Y-14275413D01*
X-12425065Y-14614126D01*
X-12345213Y-14963980D01*
X-12305034Y-15320575D01*
X-12305034Y-15679425D01*
X-12345213Y-16036020D01*
X-12425065Y-16385874D01*
X-12543585Y-16724587D01*
X-12699285Y-17047900D01*
X-12890205Y-17351748D01*
X-13113945Y-17632309D01*
X-13367691Y-17886055D01*
X-13648252Y-18109795D01*
X-13952100Y-18300715D01*
X-14275413Y-18456415D01*
X-14614126Y-18574935D01*
X-14963980Y-18654787D01*
X-15320575Y-18694966D01*
X-15679425Y-18694966D01*
X-16036020Y-18654787D01*
X-16385874Y-18574935D01*
X-16724587Y-18456415D01*
X-17047900Y-18300715D01*
X-17351748Y-18109795D01*
X-17632309Y-17886055D01*
X-17886055Y-17632309D01*
X-18109795Y-17351748D01*
X-18300715Y-17047900D01*
X-18456415Y-16724587D01*
X-18574935Y-16385874D01*
X-18654787Y-16036020D01*
X-18694966Y-15679425D01*
X-18694966Y-15320575D01*
X-18654787Y-14963980D01*
X-18574935Y-14614126D01*
X-18456415Y-14275413D01*
X-18300715Y-13952100D01*
X-18109795Y-13648252D01*
X-17886055Y-13367691D01*
X-17632309Y-13113945D01*
X-17351748Y-12890205D01*
X-17047900Y-12699285D01*
X-16724587Y-12543585D01*
X-16385874Y-12425065D01*
X-16036020Y-12345213D01*
X-15679425Y-12305034D01*
X-15320575Y-12305034D01*
X-14963980Y-12345213D01*
G37*
G36*
X16036020Y-12345213D02*
G01*
X16385874Y-12425065D01*
X16724587Y-12543585D01*
X17047900Y-12699285D01*
X17351748Y-12890205D01*
X17632309Y-13113945D01*
X17886055Y-13367691D01*
X18109795Y-13648252D01*
X18300715Y-13952100D01*
X18456415Y-14275413D01*
X18574935Y-14614126D01*
X18654787Y-14963980D01*
X18694966Y-15320575D01*
X18694966Y-15679425D01*
X18654787Y-16036020D01*
X18574935Y-16385874D01*
X18456415Y-16724587D01*
X18300715Y-17047900D01*
X18109795Y-17351748D01*
X17886055Y-17632309D01*
X17632309Y-17886055D01*
X17351748Y-18109795D01*
X17047900Y-18300715D01*
X16724587Y-18456415D01*
X16385874Y-18574935D01*
X16036020Y-18654787D01*
X15679425Y-18694966D01*
X15320575Y-18694966D01*
X14963980Y-18654787D01*
X14614126Y-18574935D01*
X14275413Y-18456415D01*
X13952100Y-18300715D01*
X13648252Y-18109795D01*
X13367691Y-17886055D01*
X13113945Y-17632309D01*
X12890205Y-17351748D01*
X12699285Y-17047900D01*
X12543585Y-16724587D01*
X12425065Y-16385874D01*
X12345213Y-16036020D01*
X12305034Y-15679425D01*
X12305034Y-15320575D01*
X12345213Y-14963980D01*
X12425065Y-14614126D01*
X12543585Y-14275413D01*
X12699285Y-13952100D01*
X12890205Y-13648252D01*
X13113945Y-13367691D01*
X13367691Y-13113945D01*
X13648252Y-12890205D01*
X13952100Y-12699285D01*
X14275413Y-12543585D01*
X14614126Y-12425065D01*
X14963980Y-12345213D01*
X15320575Y-12305034D01*
X15679425Y-12305034D01*
X16036020Y-12345213D01*
G37*
G36*
X160000Y-14640000D02*
G01*
X-1840000Y-14640000D01*
X-1840000Y-12640000D01*
X160000Y-12640000D01*
X160000Y-14640000D01*
G37*
G36*
X10870000Y-14640000D02*
G01*
X8870000Y-14640000D01*
X8870000Y-12640000D01*
X10870000Y-12640000D01*
X10870000Y-14640000D01*
G37*
G36*
X-3089715Y-12683060D02*
G01*
X-2908603Y-12758079D01*
X-2745607Y-12866990D01*
X-2606990Y-13005607D01*
X-2498079Y-13168603D01*
X-2423060Y-13349715D01*
X-2384815Y-13541983D01*
X-2384815Y-13738017D01*
X-2423060Y-13930285D01*
X-2498079Y-14111397D01*
X-2606990Y-14274393D01*
X-2745607Y-14413010D01*
X-2908603Y-14521921D01*
X-3089715Y-14596940D01*
X-3281983Y-14635185D01*
X-3478017Y-14635185D01*
X-3670285Y-14596940D01*
X-3851397Y-14521921D01*
X-4014393Y-14413010D01*
X-4153010Y-14274393D01*
X-4261921Y-14111397D01*
X-4336940Y-13930285D01*
X-4375185Y-13738017D01*
X-4375185Y-13541983D01*
X-4336940Y-13349715D01*
X-4261921Y-13168603D01*
X-4153010Y-13005607D01*
X-4014393Y-12866990D01*
X-3851397Y-12758079D01*
X-3670285Y-12683060D01*
X-3478017Y-12644815D01*
X-3281983Y-12644815D01*
X-3089715Y-12683060D01*
G37*
G36*
X7620285Y-12683060D02*
G01*
X7801397Y-12758079D01*
X7964393Y-12866990D01*
X8103010Y-13005607D01*
X8211921Y-13168603D01*
X8286940Y-13349715D01*
X8325185Y-13541983D01*
X8325185Y-13738017D01*
X8286940Y-13930285D01*
X8211921Y-14111397D01*
X8103010Y-14274393D01*
X7964393Y-14413010D01*
X7801397Y-14521921D01*
X7620285Y-14596940D01*
X7428017Y-14635185D01*
X7231983Y-14635185D01*
X7039715Y-14596940D01*
X6858603Y-14521921D01*
X6695607Y-14413010D01*
X6556990Y-14274393D01*
X6448079Y-14111397D01*
X6373060Y-13930285D01*
X6334815Y-13738017D01*
X6334815Y-13541983D01*
X6373060Y-13349715D01*
X6448079Y-13168603D01*
X6556990Y-13005607D01*
X6695607Y-12866990D01*
X6858603Y-12758079D01*
X7039715Y-12683060D01*
X7231983Y-12644815D01*
X7428017Y-12644815D01*
X7620285Y-12683060D01*
G37*
G36*
X5520000Y-14630000D02*
G01*
X3520000Y-14630000D01*
X3520000Y-12630000D01*
X5520000Y-12630000D01*
X5520000Y-14630000D01*
G37*
G36*
X2270285Y-12673060D02*
G01*
X2451397Y-12748079D01*
X2614393Y-12856990D01*
X2753010Y-12995607D01*
X2861921Y-13158603D01*
X2936940Y-13339715D01*
X2975185Y-13531983D01*
X2975185Y-13728017D01*
X2936940Y-13920285D01*
X2861921Y-14101397D01*
X2753010Y-14264393D01*
X2614393Y-14403010D01*
X2451397Y-14511921D01*
X2270285Y-14586940D01*
X2078017Y-14625185D01*
X1881983Y-14625185D01*
X1689715Y-14586940D01*
X1508603Y-14511921D01*
X1345607Y-14403010D01*
X1206990Y-14264393D01*
X1098079Y-14101397D01*
X1023060Y-13920285D01*
X984815Y-13728017D01*
X984815Y-13531983D01*
X1023060Y-13339715D01*
X1098079Y-13158603D01*
X1206990Y-12995607D01*
X1345607Y-12856990D01*
X1508603Y-12748079D01*
X1689715Y-12673060D01*
X1881983Y-12634815D01*
X2078017Y-12634815D01*
X2270285Y-12673060D01*
G37*
G36*
X31380000Y-9400000D02*
G01*
X29380000Y-9400000D01*
X29380000Y-7400000D01*
X31380000Y-7400000D01*
X31380000Y-9400000D01*
G37*
G36*
X36980000Y-9400000D02*
G01*
X34980000Y-9400000D01*
X34980000Y-7400000D01*
X36980000Y-7400000D01*
X36980000Y-9400000D01*
G37*
G36*
X33210285Y-7443060D02*
G01*
X33391397Y-7518079D01*
X33554393Y-7626990D01*
X33693010Y-7765607D01*
X33801921Y-7928603D01*
X33876940Y-8109715D01*
X33915185Y-8301983D01*
X33915185Y-8498017D01*
X33876940Y-8690285D01*
X33801921Y-8871397D01*
X33693010Y-9034393D01*
X33554393Y-9173010D01*
X33391397Y-9281921D01*
X33210285Y-9356940D01*
X33018017Y-9395185D01*
X32821983Y-9395185D01*
X32629715Y-9356940D01*
X32448603Y-9281921D01*
X32285607Y-9173010D01*
X32146990Y-9034393D01*
X32038079Y-8871397D01*
X31963060Y-8690285D01*
X31924815Y-8498017D01*
X31924815Y-8301983D01*
X31963060Y-8109715D01*
X32038079Y-7928603D01*
X32146990Y-7765607D01*
X32285607Y-7626990D01*
X32448603Y-7518079D01*
X32629715Y-7443060D01*
X32821983Y-7404815D01*
X33018017Y-7404815D01*
X33210285Y-7443060D01*
G37*
G36*
X38810285Y-7443060D02*
G01*
X38991397Y-7518079D01*
X39154393Y-7626990D01*
X39293010Y-7765607D01*
X39401921Y-7928603D01*
X39476940Y-8109715D01*
X39515185Y-8301983D01*
X39515185Y-8498017D01*
X39476940Y-8690285D01*
X39401921Y-8871397D01*
X39293010Y-9034393D01*
X39154393Y-9173010D01*
X38991397Y-9281921D01*
X38810285Y-9356940D01*
X38618017Y-9395185D01*
X38421983Y-9395185D01*
X38229715Y-9356940D01*
X38048603Y-9281921D01*
X37885607Y-9173010D01*
X37746990Y-9034393D01*
X37638079Y-8871397D01*
X37563060Y-8690285D01*
X37524815Y-8498017D01*
X37524815Y-8301983D01*
X37563060Y-8109715D01*
X37638079Y-7928603D01*
X37746990Y-7765607D01*
X37885607Y-7626990D01*
X38048603Y-7518079D01*
X38229715Y-7443060D01*
X38421983Y-7404815D01*
X38618017Y-7404815D01*
X38810285Y-7443060D01*
G37*
G36*
X-28649800Y-7395600D02*
G01*
X-29779800Y-7395600D01*
X-29779800Y-6015600D01*
X-28649800Y-6015600D01*
X-28649800Y-7395600D01*
G37*
G36*
X-26709800Y-7395600D02*
G01*
X-27839800Y-7395600D01*
X-27839800Y-6015600D01*
X-26709800Y-6015600D01*
X-26709800Y-7395600D01*
G37*
G36*
X-24692620Y-6641994D02*
G01*
X-24653994Y-6680620D01*
X-24633090Y-6731087D01*
X-24630400Y-6758400D01*
X-24630400Y-7178400D01*
X-24633090Y-7205713D01*
X-24653994Y-7256180D01*
X-24692620Y-7294806D01*
X-24743087Y-7315710D01*
X-24797713Y-7315710D01*
X-24848180Y-7294806D01*
X-24886806Y-7256180D01*
X-24907710Y-7205713D01*
X-24910400Y-7178400D01*
X-24910400Y-6758400D01*
X-24907710Y-6731087D01*
X-24886806Y-6680620D01*
X-24848180Y-6641994D01*
X-24797713Y-6621090D01*
X-24743087Y-6621090D01*
X-24692620Y-6641994D01*
G37*
G36*
X-24192620Y-6641994D02*
G01*
X-24153994Y-6680620D01*
X-24133090Y-6731087D01*
X-24130400Y-6758400D01*
X-24130400Y-7178400D01*
X-24133090Y-7205713D01*
X-24153994Y-7256180D01*
X-24192620Y-7294806D01*
X-24243087Y-7315710D01*
X-24297713Y-7315710D01*
X-24348180Y-7294806D01*
X-24386806Y-7256180D01*
X-24407710Y-7205713D01*
X-24410400Y-7178400D01*
X-24410400Y-6758400D01*
X-24407710Y-6731087D01*
X-24386806Y-6680620D01*
X-24348180Y-6641994D01*
X-24297713Y-6621090D01*
X-24243087Y-6621090D01*
X-24192620Y-6641994D01*
G37*
G36*
X-23692620Y-6641994D02*
G01*
X-23653994Y-6680620D01*
X-23633090Y-6731087D01*
X-23630400Y-6758400D01*
X-23630400Y-7178400D01*
X-23633090Y-7205713D01*
X-23653994Y-7256180D01*
X-23692620Y-7294806D01*
X-23743087Y-7315710D01*
X-23797713Y-7315710D01*
X-23848180Y-7294806D01*
X-23886806Y-7256180D01*
X-23907710Y-7205713D01*
X-23910400Y-7178400D01*
X-23910400Y-6758400D01*
X-23907710Y-6731087D01*
X-23886806Y-6680620D01*
X-23848180Y-6641994D01*
X-23797713Y-6621090D01*
X-23743087Y-6621090D01*
X-23692620Y-6641994D01*
G37*
G36*
X-23192620Y-6641994D02*
G01*
X-23153994Y-6680620D01*
X-23133090Y-6731087D01*
X-23130400Y-6758400D01*
X-23130400Y-7178400D01*
X-23133090Y-7205713D01*
X-23153994Y-7256180D01*
X-23192620Y-7294806D01*
X-23243087Y-7315710D01*
X-23297713Y-7315710D01*
X-23348180Y-7294806D01*
X-23386806Y-7256180D01*
X-23407710Y-7205713D01*
X-23410400Y-7178400D01*
X-23410400Y-6758400D01*
X-23407710Y-6731087D01*
X-23386806Y-6680620D01*
X-23348180Y-6641994D01*
X-23297713Y-6621090D01*
X-23243087Y-6621090D01*
X-23192620Y-6641994D01*
G37*
G36*
X-22692620Y-6641994D02*
G01*
X-22653994Y-6680620D01*
X-22633090Y-6731087D01*
X-22630400Y-6758400D01*
X-22630400Y-7178400D01*
X-22633090Y-7205713D01*
X-22653994Y-7256180D01*
X-22692620Y-7294806D01*
X-22743087Y-7315710D01*
X-22797713Y-7315710D01*
X-22848180Y-7294806D01*
X-22886806Y-7256180D01*
X-22907710Y-7205713D01*
X-22910400Y-7178400D01*
X-22910400Y-6758400D01*
X-22907710Y-6731087D01*
X-22886806Y-6680620D01*
X-22848180Y-6641994D01*
X-22797713Y-6621090D01*
X-22743087Y-6621090D01*
X-22692620Y-6641994D01*
G37*
G36*
X-22192620Y-6641994D02*
G01*
X-22153994Y-6680620D01*
X-22133090Y-6731087D01*
X-22130400Y-6758400D01*
X-22130400Y-7178400D01*
X-22133090Y-7205713D01*
X-22153994Y-7256180D01*
X-22192620Y-7294806D01*
X-22243087Y-7315710D01*
X-22297713Y-7315710D01*
X-22348180Y-7294806D01*
X-22386806Y-7256180D01*
X-22407710Y-7205713D01*
X-22410400Y-7178400D01*
X-22410400Y-6758400D01*
X-22407710Y-6731087D01*
X-22386806Y-6680620D01*
X-22348180Y-6641994D01*
X-22297713Y-6621090D01*
X-22243087Y-6621090D01*
X-22192620Y-6641994D01*
G37*
G36*
X-35900400Y-6728400D02*
G01*
X-37150400Y-6728400D01*
X-37150400Y-6028400D01*
X-35900400Y-6028400D01*
X-35900400Y-6728400D01*
G37*
G36*
X10537800Y-6379600D02*
G01*
X9407800Y-6379600D01*
X9407800Y-4999600D01*
X10537800Y-4999600D01*
X10537800Y-6379600D01*
G37*
G36*
X12537800Y-6379600D02*
G01*
X11407800Y-6379600D01*
X11407800Y-4999600D01*
X12537800Y-4999600D01*
X12537800Y-6379600D01*
G37*
G36*
X-22120400Y-6378400D02*
G01*
X-24920400Y-6378400D01*
X-24920400Y-3578400D01*
X-22120400Y-3578400D01*
X-22120400Y-6378400D01*
G37*
G36*
X-25283087Y-6081090D02*
G01*
X-25232620Y-6101994D01*
X-25193994Y-6140620D01*
X-25173090Y-6191087D01*
X-25173090Y-6245713D01*
X-25193994Y-6296180D01*
X-25232620Y-6334806D01*
X-25283087Y-6355710D01*
X-25310400Y-6358400D01*
X-25311650Y-6358400D01*
X-25729150Y-6358400D01*
X-25730400Y-6358400D01*
X-25757713Y-6355710D01*
X-25808180Y-6334806D01*
X-25846806Y-6296180D01*
X-25867710Y-6245713D01*
X-25867710Y-6191087D01*
X-25846806Y-6140620D01*
X-25808180Y-6101994D01*
X-25757713Y-6081090D01*
X-25730400Y-6078400D01*
X-25310400Y-6078400D01*
X-25283087Y-6081090D01*
G37*
G36*
X-21283087Y-6081090D02*
G01*
X-21232620Y-6101994D01*
X-21193994Y-6140620D01*
X-21173090Y-6191087D01*
X-21173090Y-6245713D01*
X-21193994Y-6296180D01*
X-21232620Y-6334806D01*
X-21283087Y-6355710D01*
X-21310400Y-6358400D01*
X-21311650Y-6358400D01*
X-21729150Y-6358400D01*
X-21730400Y-6358400D01*
X-21757713Y-6355710D01*
X-21808180Y-6334806D01*
X-21846806Y-6296180D01*
X-21867710Y-6245713D01*
X-21867710Y-6191087D01*
X-21846806Y-6140620D01*
X-21808180Y-6101994D01*
X-21757713Y-6081090D01*
X-21730400Y-6078400D01*
X-21310400Y-6078400D01*
X-21283087Y-6081090D01*
G37*
G36*
X-25283087Y-5581090D02*
G01*
X-25232620Y-5601994D01*
X-25193994Y-5640620D01*
X-25173090Y-5691087D01*
X-25173090Y-5745713D01*
X-25193994Y-5796180D01*
X-25232620Y-5834806D01*
X-25283087Y-5855710D01*
X-25310400Y-5858400D01*
X-25311650Y-5858400D01*
X-25729150Y-5858400D01*
X-25730400Y-5858400D01*
X-25757713Y-5855710D01*
X-25808180Y-5834806D01*
X-25846806Y-5796180D01*
X-25867710Y-5745713D01*
X-25867710Y-5691087D01*
X-25846806Y-5640620D01*
X-25808180Y-5601994D01*
X-25757713Y-5581090D01*
X-25730400Y-5578400D01*
X-25310400Y-5578400D01*
X-25283087Y-5581090D01*
G37*
G36*
X-21283087Y-5581090D02*
G01*
X-21232620Y-5601994D01*
X-21193994Y-5640620D01*
X-21173090Y-5691087D01*
X-21173090Y-5745713D01*
X-21193994Y-5796180D01*
X-21232620Y-5834806D01*
X-21283087Y-5855710D01*
X-21310400Y-5858400D01*
X-21311650Y-5858400D01*
X-21729150Y-5858400D01*
X-21730400Y-5858400D01*
X-21757713Y-5855710D01*
X-21808180Y-5834806D01*
X-21846806Y-5796180D01*
X-21867710Y-5745713D01*
X-21867710Y-5691087D01*
X-21846806Y-5640620D01*
X-21808180Y-5601994D01*
X-21757713Y-5581090D01*
X-21730400Y-5578400D01*
X-21310400Y-5578400D01*
X-21283087Y-5581090D01*
G37*
G36*
X-37900400Y-5778400D02*
G01*
X-39150400Y-5778400D01*
X-39150400Y-5078400D01*
X-37900400Y-5078400D01*
X-37900400Y-5778400D01*
G37*
G36*
X-25283087Y-5081090D02*
G01*
X-25232620Y-5101994D01*
X-25193994Y-5140620D01*
X-25173090Y-5191087D01*
X-25173090Y-5245713D01*
X-25193994Y-5296180D01*
X-25232620Y-5334806D01*
X-25283087Y-5355710D01*
X-25310400Y-5358400D01*
X-25311650Y-5358400D01*
X-25729150Y-5358400D01*
X-25730400Y-5358400D01*
X-25757713Y-5355710D01*
X-25808180Y-5334806D01*
X-25846806Y-5296180D01*
X-25867710Y-5245713D01*
X-25867710Y-5191087D01*
X-25846806Y-5140620D01*
X-25808180Y-5101994D01*
X-25757713Y-5081090D01*
X-25730400Y-5078400D01*
X-25310400Y-5078400D01*
X-25283087Y-5081090D01*
G37*
G36*
X-21283087Y-5081090D02*
G01*
X-21232620Y-5101994D01*
X-21193994Y-5140620D01*
X-21173090Y-5191087D01*
X-21173090Y-5245713D01*
X-21193994Y-5296180D01*
X-21232620Y-5334806D01*
X-21283087Y-5355710D01*
X-21310400Y-5358400D01*
X-21311650Y-5358400D01*
X-21729150Y-5358400D01*
X-21730400Y-5358400D01*
X-21757713Y-5355710D01*
X-21808180Y-5334806D01*
X-21846806Y-5296180D01*
X-21867710Y-5245713D01*
X-21867710Y-5191087D01*
X-21846806Y-5140620D01*
X-21808180Y-5101994D01*
X-21757713Y-5081090D01*
X-21730400Y-5078400D01*
X-21310400Y-5078400D01*
X-21283087Y-5081090D01*
G37*
G36*
X-18741000Y-5273400D02*
G01*
X-20121000Y-5273400D01*
X-20121000Y-4143400D01*
X-18741000Y-4143400D01*
X-18741000Y-5273400D01*
G37*
G36*
X-16480400Y-5273400D02*
G01*
X-17860400Y-5273400D01*
X-17860400Y-4143400D01*
X-16480400Y-4143400D01*
X-16480400Y-5273400D01*
G37*
G36*
X-13940400Y-5273400D02*
G01*
X-15320400Y-5273400D01*
X-15320400Y-4143400D01*
X-13940400Y-4143400D01*
X-13940400Y-5273400D01*
G37*
G36*
X-25283087Y-4581090D02*
G01*
X-25232620Y-4601994D01*
X-25193994Y-4640620D01*
X-25173090Y-4691087D01*
X-25173090Y-4745713D01*
X-25193994Y-4796180D01*
X-25232620Y-4834806D01*
X-25283087Y-4855710D01*
X-25310400Y-4858400D01*
X-25311650Y-4858400D01*
X-25729150Y-4858400D01*
X-25730400Y-4858400D01*
X-25757713Y-4855710D01*
X-25808180Y-4834806D01*
X-25846806Y-4796180D01*
X-25867710Y-4745713D01*
X-25867710Y-4691087D01*
X-25846806Y-4640620D01*
X-25808180Y-4601994D01*
X-25757713Y-4581090D01*
X-25730400Y-4578400D01*
X-25310400Y-4578400D01*
X-25283087Y-4581090D01*
G37*
G36*
X-21283087Y-4581090D02*
G01*
X-21232620Y-4601994D01*
X-21193994Y-4640620D01*
X-21173090Y-4691087D01*
X-21173090Y-4745713D01*
X-21193994Y-4796180D01*
X-21232620Y-4834806D01*
X-21283087Y-4855710D01*
X-21310400Y-4858400D01*
X-21311650Y-4858400D01*
X-21729150Y-4858400D01*
X-21730400Y-4858400D01*
X-21757713Y-4855710D01*
X-21808180Y-4834806D01*
X-21846806Y-4796180D01*
X-21867710Y-4745713D01*
X-21867710Y-4691087D01*
X-21846806Y-4640620D01*
X-21808180Y-4601994D01*
X-21757713Y-4581090D01*
X-21730400Y-4578400D01*
X-21310400Y-4578400D01*
X-21283087Y-4581090D01*
G37*
G36*
X-35900400Y-4828400D02*
G01*
X-37150400Y-4828400D01*
X-37150400Y-4128400D01*
X-35900400Y-4128400D01*
X-35900400Y-4828400D01*
G37*
G36*
X29365000Y-4735000D02*
G01*
X27635000Y-4735000D01*
X27635000Y-3245000D01*
X29365000Y-3245000D01*
X29365000Y-4735000D01*
G37*
G36*
X24980000Y-4600000D02*
G01*
X24080000Y-4600000D01*
X24080000Y-3800000D01*
X24980000Y-3800000D01*
X24980000Y-4600000D01*
G37*
G36*
X-25283087Y-4081090D02*
G01*
X-25232620Y-4101994D01*
X-25193994Y-4140620D01*
X-25173090Y-4191087D01*
X-25173090Y-4245713D01*
X-25193994Y-4296180D01*
X-25232620Y-4334806D01*
X-25283087Y-4355710D01*
X-25310400Y-4358400D01*
X-25311650Y-4358400D01*
X-25729150Y-4358400D01*
X-25730400Y-4358400D01*
X-25757713Y-4355710D01*
X-25808180Y-4334806D01*
X-25846806Y-4296180D01*
X-25867710Y-4245713D01*
X-25867710Y-4191087D01*
X-25846806Y-4140620D01*
X-25808180Y-4101994D01*
X-25757713Y-4081090D01*
X-25730400Y-4078400D01*
X-25310400Y-4078400D01*
X-25283087Y-4081090D01*
G37*
G36*
X-21283087Y-4081090D02*
G01*
X-21232620Y-4101994D01*
X-21193994Y-4140620D01*
X-21173090Y-4191087D01*
X-21173090Y-4245713D01*
X-21193994Y-4296180D01*
X-21232620Y-4334806D01*
X-21283087Y-4355710D01*
X-21310400Y-4358400D01*
X-21311650Y-4358400D01*
X-21729150Y-4358400D01*
X-21730400Y-4358400D01*
X-21757713Y-4355710D01*
X-21808180Y-4334806D01*
X-21846806Y-4296180D01*
X-21867710Y-4245713D01*
X-21867710Y-4191087D01*
X-21846806Y-4140620D01*
X-21808180Y-4101994D01*
X-21757713Y-4081090D01*
X-21730400Y-4078400D01*
X-21310400Y-4078400D01*
X-21283087Y-4081090D01*
G37*
G36*
X11615600Y-4334000D02*
G01*
X11115600Y-4334000D01*
X11115600Y-3794000D01*
X11615600Y-3794000D01*
X11615600Y-4334000D01*
G37*
G36*
X12455600Y-4334000D02*
G01*
X11955600Y-4334000D01*
X11955600Y-3794000D01*
X12455600Y-3794000D01*
X12455600Y-4334000D01*
G37*
G36*
X-25283087Y-3581090D02*
G01*
X-25232620Y-3601994D01*
X-25193994Y-3640620D01*
X-25173090Y-3691087D01*
X-25173090Y-3745713D01*
X-25193994Y-3796180D01*
X-25232620Y-3834806D01*
X-25283087Y-3855710D01*
X-25310400Y-3858400D01*
X-25311650Y-3858400D01*
X-25729150Y-3858400D01*
X-25730400Y-3858400D01*
X-25757713Y-3855710D01*
X-25808180Y-3834806D01*
X-25846806Y-3796180D01*
X-25867710Y-3745713D01*
X-25867710Y-3691087D01*
X-25846806Y-3640620D01*
X-25808180Y-3601994D01*
X-25757713Y-3581090D01*
X-25730400Y-3578400D01*
X-25310400Y-3578400D01*
X-25283087Y-3581090D01*
G37*
G36*
X-21283087Y-3581090D02*
G01*
X-21232620Y-3601994D01*
X-21193994Y-3640620D01*
X-21173090Y-3691087D01*
X-21173090Y-3745713D01*
X-21193994Y-3796180D01*
X-21232620Y-3834806D01*
X-21283087Y-3855710D01*
X-21310400Y-3858400D01*
X-21311650Y-3858400D01*
X-21729150Y-3858400D01*
X-21730400Y-3858400D01*
X-21757713Y-3855710D01*
X-21808180Y-3834806D01*
X-21846806Y-3796180D01*
X-21867710Y-3745713D01*
X-21867710Y-3691087D01*
X-21846806Y-3640620D01*
X-21808180Y-3601994D01*
X-21757713Y-3581090D01*
X-21730400Y-3578400D01*
X-21310400Y-3578400D01*
X-21283087Y-3581090D01*
G37*
G36*
X-28519400Y-3396400D02*
G01*
X-29319400Y-3396400D01*
X-29319400Y-2496400D01*
X-28519400Y-2496400D01*
X-28519400Y-3396400D01*
G37*
G36*
X-27119400Y-3396400D02*
G01*
X-27919400Y-3396400D01*
X-27919400Y-2496400D01*
X-27119400Y-2496400D01*
X-27119400Y-3396400D01*
G37*
G36*
X-24692620Y-2641994D02*
G01*
X-24653994Y-2680620D01*
X-24633090Y-2731087D01*
X-24630400Y-2758400D01*
X-24630400Y-3178400D01*
X-24633090Y-3205713D01*
X-24653994Y-3256180D01*
X-24692620Y-3294806D01*
X-24743087Y-3315710D01*
X-24797713Y-3315710D01*
X-24848180Y-3294806D01*
X-24886806Y-3256180D01*
X-24907710Y-3205713D01*
X-24910400Y-3178400D01*
X-24910400Y-2758400D01*
X-24907710Y-2731087D01*
X-24886806Y-2680620D01*
X-24848180Y-2641994D01*
X-24797713Y-2621090D01*
X-24743087Y-2621090D01*
X-24692620Y-2641994D01*
G37*
G36*
X-24192620Y-2641994D02*
G01*
X-24153994Y-2680620D01*
X-24133090Y-2731087D01*
X-24130400Y-2758400D01*
X-24130400Y-3178400D01*
X-24133090Y-3205713D01*
X-24153994Y-3256180D01*
X-24192620Y-3294806D01*
X-24243087Y-3315710D01*
X-24297713Y-3315710D01*
X-24348180Y-3294806D01*
X-24386806Y-3256180D01*
X-24407710Y-3205713D01*
X-24410400Y-3178400D01*
X-24410400Y-2758400D01*
X-24407710Y-2731087D01*
X-24386806Y-2680620D01*
X-24348180Y-2641994D01*
X-24297713Y-2621090D01*
X-24243087Y-2621090D01*
X-24192620Y-2641994D01*
G37*
G36*
X-23692620Y-2641994D02*
G01*
X-23653994Y-2680620D01*
X-23633090Y-2731087D01*
X-23630400Y-2758400D01*
X-23630400Y-3178400D01*
X-23633090Y-3205713D01*
X-23653994Y-3256180D01*
X-23692620Y-3294806D01*
X-23743087Y-3315710D01*
X-23797713Y-3315710D01*
X-23848180Y-3294806D01*
X-23886806Y-3256180D01*
X-23907710Y-3205713D01*
X-23910400Y-3178400D01*
X-23910400Y-2758400D01*
X-23907710Y-2731087D01*
X-23886806Y-2680620D01*
X-23848180Y-2641994D01*
X-23797713Y-2621090D01*
X-23743087Y-2621090D01*
X-23692620Y-2641994D01*
G37*
G36*
X-23192620Y-2641994D02*
G01*
X-23153994Y-2680620D01*
X-23133090Y-2731087D01*
X-23130400Y-2758400D01*
X-23130400Y-3178400D01*
X-23133090Y-3205713D01*
X-23153994Y-3256180D01*
X-23192620Y-3294806D01*
X-23243087Y-3315710D01*
X-23297713Y-3315710D01*
X-23348180Y-3294806D01*
X-23386806Y-3256180D01*
X-23407710Y-3205713D01*
X-23410400Y-3178400D01*
X-23410400Y-2758400D01*
X-23407710Y-2731087D01*
X-23386806Y-2680620D01*
X-23348180Y-2641994D01*
X-23297713Y-2621090D01*
X-23243087Y-2621090D01*
X-23192620Y-2641994D01*
G37*
G36*
X-22692620Y-2641994D02*
G01*
X-22653994Y-2680620D01*
X-22633090Y-2731087D01*
X-22630400Y-2758400D01*
X-22630400Y-3178400D01*
X-22633090Y-3205713D01*
X-22653994Y-3256180D01*
X-22692620Y-3294806D01*
X-22743087Y-3315710D01*
X-22797713Y-3315710D01*
X-22848180Y-3294806D01*
X-22886806Y-3256180D01*
X-22907710Y-3205713D01*
X-22910400Y-3178400D01*
X-22910400Y-2758400D01*
X-22907710Y-2731087D01*
X-22886806Y-2680620D01*
X-22848180Y-2641994D01*
X-22797713Y-2621090D01*
X-22743087Y-2621090D01*
X-22692620Y-2641994D01*
G37*
G36*
X-22192620Y-2641994D02*
G01*
X-22153994Y-2680620D01*
X-22133090Y-2731087D01*
X-22130400Y-2758400D01*
X-22130400Y-3178400D01*
X-22133090Y-3205713D01*
X-22153994Y-3256180D01*
X-22192620Y-3294806D01*
X-22243087Y-3315710D01*
X-22297713Y-3315710D01*
X-22348180Y-3294806D01*
X-22386806Y-3256180D01*
X-22407710Y-3205713D01*
X-22410400Y-3178400D01*
X-22410400Y-2758400D01*
X-22407710Y-2731087D01*
X-22386806Y-2680620D01*
X-22348180Y-2641994D01*
X-22297713Y-2621090D01*
X-22243087Y-2621090D01*
X-22192620Y-2641994D01*
G37*
G36*
X23230200Y-3314600D02*
G01*
X21880200Y-3314600D01*
X21880200Y-1904600D01*
X23230200Y-1904600D01*
X23230200Y-3314600D01*
G37*
G36*
X-18741000Y-3273400D02*
G01*
X-20121000Y-3273400D01*
X-20121000Y-2143400D01*
X-18741000Y-2143400D01*
X-18741000Y-3273400D01*
G37*
G36*
X-16480400Y-3273400D02*
G01*
X-17860400Y-3273400D01*
X-17860400Y-2143400D01*
X-16480400Y-2143400D01*
X-16480400Y-3273400D01*
G37*
G36*
X-13940400Y-3273400D02*
G01*
X-15320400Y-3273400D01*
X-15320400Y-2143400D01*
X-13940400Y-2143400D01*
X-13940400Y-3273400D01*
G37*
G36*
X24980000Y-3200000D02*
G01*
X24080000Y-3200000D01*
X24080000Y-2400000D01*
X24980000Y-2400000D01*
X24980000Y-3200000D01*
G37*
G36*
X16346800Y-3168800D02*
G01*
X14996800Y-3168800D01*
X14996800Y-1758800D01*
X16346800Y-1758800D01*
X16346800Y-3168800D01*
G37*
G36*
X18597000Y-3105000D02*
G01*
X17217000Y-3105000D01*
X17217000Y-1975000D01*
X18597000Y-1975000D01*
X18597000Y-3105000D01*
G37*
G36*
X10461600Y-2976000D02*
G01*
X9331600Y-2976000D01*
X9331600Y-1596000D01*
X10461600Y-1596000D01*
X10461600Y-2976000D01*
G37*
G36*
X12461600Y-2976000D02*
G01*
X11331600Y-2976000D01*
X11331600Y-1596000D01*
X12461600Y-1596000D01*
X12461600Y-2976000D01*
G37*
G36*
X-36966063Y-1608520D02*
G01*
X-36909721Y-1611287D01*
X-36902777Y-1612668D01*
X-36889584Y-1613533D01*
X-36864096Y-1620362D01*
X-36793767Y-1634352D01*
X-36760576Y-1648100D01*
X-36738290Y-1654072D01*
X-36718309Y-1665608D01*
X-36685117Y-1679357D01*
X-36625503Y-1719190D01*
X-36602643Y-1732388D01*
X-36596386Y-1738645D01*
X-36587345Y-1744686D01*
X-36504187Y-1827844D01*
X-36498147Y-1836884D01*
X-36491888Y-1843143D01*
X-36478688Y-1866006D01*
X-36438858Y-1925616D01*
X-36425111Y-1958804D01*
X-36413572Y-1978790D01*
X-36407600Y-2001079D01*
X-36393853Y-2034266D01*
X-36379866Y-2104585D01*
X-36373033Y-2130084D01*
X-36373033Y-2138933D01*
X-36370911Y-2149601D01*
X-36370911Y-2267198D01*
X-36373033Y-2277865D01*
X-36373033Y-2286716D01*
X-36379867Y-2312217D01*
X-36393853Y-2382533D01*
X-36407599Y-2415718D01*
X-36413572Y-2438010D01*
X-36425113Y-2457998D01*
X-36438858Y-2491183D01*
X-36478684Y-2550786D01*
X-36491888Y-2573657D01*
X-36498149Y-2579917D01*
X-36504187Y-2588955D01*
X-36587345Y-2672113D01*
X-36596383Y-2678151D01*
X-36602643Y-2684412D01*
X-36625514Y-2697616D01*
X-36685117Y-2737442D01*
X-36718302Y-2751187D01*
X-36738290Y-2762728D01*
X-36760582Y-2768701D01*
X-36793767Y-2782447D01*
X-36864082Y-2796433D01*
X-36889584Y-2803267D01*
X-36902785Y-2804132D01*
X-36909721Y-2805512D01*
X-36966061Y-2808279D01*
X-36967900Y-2808400D01*
X-36968515Y-2808400D01*
X-37567285Y-2808400D01*
X-37567900Y-2808400D01*
X-37569740Y-2808279D01*
X-37626080Y-2805512D01*
X-37633018Y-2804132D01*
X-37646216Y-2803267D01*
X-37671717Y-2796434D01*
X-37742034Y-2782447D01*
X-37775221Y-2768700D01*
X-37797510Y-2762728D01*
X-37817496Y-2751189D01*
X-37850684Y-2737442D01*
X-37910294Y-2697612D01*
X-37933157Y-2684412D01*
X-37939416Y-2678153D01*
X-37948456Y-2672113D01*
X-38031614Y-2588955D01*
X-38037655Y-2579914D01*
X-38043912Y-2573657D01*
X-38057110Y-2550797D01*
X-38096943Y-2491183D01*
X-38110692Y-2457991D01*
X-38122228Y-2438010D01*
X-38128200Y-2415724D01*
X-38141948Y-2382533D01*
X-38155936Y-2312212D01*
X-38162767Y-2286716D01*
X-38162767Y-2277866D01*
X-38164889Y-2267198D01*
X-38164889Y-2149601D01*
X-38162767Y-2138932D01*
X-38162767Y-2130084D01*
X-38155937Y-2104590D01*
X-38141948Y-2034266D01*
X-38128199Y-2001072D01*
X-38122228Y-1978790D01*
X-38110693Y-1958810D01*
X-38096943Y-1925616D01*
X-38057106Y-1865995D01*
X-38043912Y-1843143D01*
X-38037657Y-1836887D01*
X-38031614Y-1827844D01*
X-37948456Y-1744686D01*
X-37939413Y-1738643D01*
X-37933157Y-1732388D01*
X-37910305Y-1719194D01*
X-37850684Y-1679357D01*
X-37817490Y-1665607D01*
X-37797510Y-1654072D01*
X-37775228Y-1648101D01*
X-37742034Y-1634352D01*
X-37671702Y-1620361D01*
X-37646216Y-1613533D01*
X-37633025Y-1612668D01*
X-37626080Y-1611287D01*
X-37569737Y-1608520D01*
X-37567900Y-1608400D01*
X-36967900Y-1608400D01*
X-36966063Y-1608520D01*
G37*
G36*
X-32686063Y-1608520D02*
G01*
X-32629721Y-1611287D01*
X-32622777Y-1612668D01*
X-32609584Y-1613533D01*
X-32584096Y-1620362D01*
X-32513767Y-1634352D01*
X-32480576Y-1648100D01*
X-32458290Y-1654072D01*
X-32438309Y-1665608D01*
X-32405117Y-1679357D01*
X-32345503Y-1719190D01*
X-32322643Y-1732388D01*
X-32316386Y-1738645D01*
X-32307345Y-1744686D01*
X-32224187Y-1827844D01*
X-32218147Y-1836884D01*
X-32211888Y-1843143D01*
X-32198688Y-1866006D01*
X-32158858Y-1925616D01*
X-32145111Y-1958804D01*
X-32133572Y-1978790D01*
X-32127600Y-2001079D01*
X-32113853Y-2034266D01*
X-32099866Y-2104585D01*
X-32093033Y-2130084D01*
X-32093033Y-2138933D01*
X-32090911Y-2149601D01*
X-32090911Y-2267198D01*
X-32093033Y-2277865D01*
X-32093033Y-2286716D01*
X-32099867Y-2312217D01*
X-32113853Y-2382533D01*
X-32127599Y-2415718D01*
X-32133572Y-2438010D01*
X-32145113Y-2457998D01*
X-32158858Y-2491183D01*
X-32198684Y-2550786D01*
X-32211888Y-2573657D01*
X-32218149Y-2579917D01*
X-32224187Y-2588955D01*
X-32307345Y-2672113D01*
X-32316383Y-2678151D01*
X-32322643Y-2684412D01*
X-32345514Y-2697616D01*
X-32405117Y-2737442D01*
X-32438302Y-2751187D01*
X-32458290Y-2762728D01*
X-32480582Y-2768701D01*
X-32513767Y-2782447D01*
X-32584082Y-2796433D01*
X-32609584Y-2803267D01*
X-32622785Y-2804132D01*
X-32629721Y-2805512D01*
X-32686061Y-2808279D01*
X-32687900Y-2808400D01*
X-32688515Y-2808400D01*
X-33487285Y-2808400D01*
X-33487900Y-2808400D01*
X-33489740Y-2808279D01*
X-33546080Y-2805512D01*
X-33553018Y-2804132D01*
X-33566216Y-2803267D01*
X-33591717Y-2796434D01*
X-33662034Y-2782447D01*
X-33695221Y-2768700D01*
X-33717510Y-2762728D01*
X-33737496Y-2751189D01*
X-33770684Y-2737442D01*
X-33830294Y-2697612D01*
X-33853157Y-2684412D01*
X-33859416Y-2678153D01*
X-33868456Y-2672113D01*
X-33951614Y-2588955D01*
X-33957655Y-2579914D01*
X-33963912Y-2573657D01*
X-33977110Y-2550797D01*
X-34016943Y-2491183D01*
X-34030692Y-2457991D01*
X-34042228Y-2438010D01*
X-34048200Y-2415724D01*
X-34061948Y-2382533D01*
X-34075936Y-2312212D01*
X-34082767Y-2286716D01*
X-34082767Y-2277866D01*
X-34084889Y-2267198D01*
X-34084889Y-2149601D01*
X-34082767Y-2138932D01*
X-34082767Y-2130084D01*
X-34075937Y-2104590D01*
X-34061948Y-2034266D01*
X-34048199Y-2001072D01*
X-34042228Y-1978790D01*
X-34030693Y-1958810D01*
X-34016943Y-1925616D01*
X-33977106Y-1865995D01*
X-33963912Y-1843143D01*
X-33957657Y-1836887D01*
X-33951614Y-1827844D01*
X-33868456Y-1744686D01*
X-33859413Y-1738643D01*
X-33853157Y-1732388D01*
X-33830305Y-1719194D01*
X-33770684Y-1679357D01*
X-33737490Y-1665607D01*
X-33717510Y-1654072D01*
X-33695228Y-1648101D01*
X-33662034Y-1634352D01*
X-33591702Y-1620361D01*
X-33566216Y-1613533D01*
X-33553025Y-1612668D01*
X-33546080Y-1611287D01*
X-33489737Y-1608520D01*
X-33487900Y-1608400D01*
X-32687900Y-1608400D01*
X-32686063Y-1608520D01*
G37*
G36*
X20643000Y-2714400D02*
G01*
X19743000Y-2714400D01*
X19743000Y-1914400D01*
X20643000Y-1914400D01*
X20643000Y-2714400D01*
G37*
G36*
X29365000Y-1555000D02*
G01*
X27635000Y-1555000D01*
X27635000Y-65000D01*
X29365000Y-65000D01*
X29365000Y-1555000D01*
G37*
G36*
X-31627900Y-1378400D02*
G01*
X-33027900Y-1378400D01*
X-33027900Y-778400D01*
X-31627900Y-778400D01*
X-31627900Y-1378400D01*
G37*
G36*
X23230200Y-1314600D02*
G01*
X21880200Y-1314600D01*
X21880200Y95400D01*
X23230200Y95400D01*
X23230200Y-1314600D01*
G37*
G36*
X20643000Y-1314400D02*
G01*
X19743000Y-1314400D01*
X19743000Y-514400D01*
X20643000Y-514400D01*
X20643000Y-1314400D01*
G37*
G36*
X-26568000Y-1259200D02*
G01*
X-27978000Y-1259200D01*
X-27978000Y90800D01*
X-26568000Y90800D01*
X-26568000Y-1259200D01*
G37*
G36*
X-24568000Y-1259200D02*
G01*
X-25978000Y-1259200D01*
X-25978000Y90800D01*
X-24568000Y90800D01*
X-24568000Y-1259200D01*
G37*
G36*
X16346800Y-1168800D02*
G01*
X14996800Y-1168800D01*
X14996800Y241200D01*
X16346800Y241200D01*
X16346800Y-1168800D01*
G37*
G36*
X18597000Y-1105000D02*
G01*
X17217000Y-1105000D01*
X17217000Y25000D01*
X18597000Y25000D01*
X18597000Y-1105000D01*
G37*
G36*
X-33463528Y-478139D02*
G01*
X-33390053Y-520560D01*
X-33330060Y-580553D01*
X-33287639Y-654028D01*
X-33265680Y-735979D01*
X-33265680Y-820821D01*
X-33287639Y-902772D01*
X-33330060Y-976247D01*
X-33390053Y-1036240D01*
X-33463528Y-1078661D01*
X-33545479Y-1100620D01*
X-33630321Y-1100620D01*
X-33712272Y-1078661D01*
X-33785747Y-1036240D01*
X-33845740Y-976247D01*
X-33888161Y-902772D01*
X-33910120Y-820821D01*
X-33910120Y-735979D01*
X-33888161Y-654028D01*
X-33845740Y-580553D01*
X-33785747Y-520560D01*
X-33712272Y-478139D01*
X-33630321Y-456180D01*
X-33545479Y-456180D01*
X-33463528Y-478139D01*
G37*
G36*
X-19480400Y-918400D02*
G01*
X-20610400Y-918400D01*
X-20610400Y461600D01*
X-19480400Y461600D01*
X-19480400Y-918400D01*
G37*
G36*
X-17540400Y-918400D02*
G01*
X-18670400Y-918400D01*
X-18670400Y461600D01*
X-17540400Y461600D01*
X-17540400Y-918400D01*
G37*
G36*
X11691800Y-701800D02*
G01*
X11191800Y-701800D01*
X11191800Y-161800D01*
X11691800Y-161800D01*
X11691800Y-701800D01*
G37*
G36*
X12531800Y-701800D02*
G01*
X12031800Y-701800D01*
X12031800Y-161800D01*
X12531800Y-161800D01*
X12531800Y-701800D01*
G37*
G36*
X34681885Y1337940D02*
G01*
X34862997Y1262921D01*
X35025993Y1154010D01*
X35164610Y1015393D01*
X35273521Y852397D01*
X35348540Y671285D01*
X35386785Y479017D01*
X35386785Y282983D01*
X35348540Y90715D01*
X35273521Y-90397D01*
X35164610Y-253393D01*
X35025993Y-392010D01*
X34862997Y-500921D01*
X34681885Y-575940D01*
X34489617Y-614185D01*
X34293583Y-614185D01*
X34101315Y-575940D01*
X33920203Y-500921D01*
X33757207Y-392010D01*
X33618590Y-253393D01*
X33509679Y-90397D01*
X33434660Y90715D01*
X33396415Y282983D01*
X33396415Y479017D01*
X33434660Y671285D01*
X33509679Y852397D01*
X33618590Y1015393D01*
X33757207Y1154010D01*
X33920203Y1262921D01*
X34101315Y1337940D01*
X34293583Y1376185D01*
X34489617Y1376185D01*
X34681885Y1337940D01*
G37*
G36*
X-31627900Y-578400D02*
G01*
X-33027900Y-578400D01*
X-33027900Y21600D01*
X-31627900Y21600D01*
X-31627900Y-578400D01*
G37*
G36*
X-4846600Y-450000D02*
G01*
X-5646600Y-450000D01*
X-5646600Y450000D01*
X-4846600Y450000D01*
X-4846600Y-450000D01*
G37*
G36*
X-3446600Y-450000D02*
G01*
X-4246600Y-450000D01*
X-4246600Y450000D01*
X-3446600Y450000D01*
X-3446600Y-450000D01*
G37*
G36*
X-11709864Y1864736D02*
G01*
X-11708980Y1862600D01*
X-11705575Y1861922D01*
X-11649805Y1861922D01*
X-11648137Y1861922D01*
X-11646843Y1861752D01*
X-11520764Y1827970D01*
X-11519558Y1827470D01*
X-11460457Y1793348D01*
X-11407968Y1763044D01*
X-11407966Y1763043D01*
X-11406519Y1762207D01*
X-11405483Y1761413D01*
X-11313187Y1669117D01*
X-11312393Y1668081D01*
X-11247130Y1555042D01*
X-11246630Y1553836D01*
X-11212848Y1427757D01*
X-11212678Y1426463D01*
X-11212678Y1424796D01*
X-11212678Y1369026D01*
X-11212001Y1365622D01*
X-11209864Y1364736D01*
X-11208400Y1361200D01*
X-11208400Y861200D01*
X-11209864Y857664D01*
X-11212392Y856618D01*
X-11212424Y856539D01*
X-11213400Y851632D01*
X-11213400Y570769D01*
X-11212424Y565862D01*
X-11212391Y565783D01*
X-11209864Y564736D01*
X-11208400Y561200D01*
X-11208400Y61200D01*
X-11209864Y57664D01*
X-11212001Y56780D01*
X-11212678Y53375D01*
X-11212678Y-4063D01*
X-11212848Y-5357D01*
X-11246630Y-131436D01*
X-11247130Y-132642D01*
X-11312393Y-245681D01*
X-11313187Y-246717D01*
X-11405483Y-339013D01*
X-11406519Y-339807D01*
X-11519558Y-405070D01*
X-11520764Y-405570D01*
X-11646843Y-439352D01*
X-11648137Y-439522D01*
X-11649805Y-439522D01*
X-11705575Y-439522D01*
X-11708980Y-440199D01*
X-11709864Y-442336D01*
X-11713400Y-443800D01*
X-11718453Y-443800D01*
X-12208347Y-443800D01*
X-12213400Y-443800D01*
X-12216936Y-442336D01*
X-12217821Y-440199D01*
X-12221225Y-439522D01*
X-12278663Y-439522D01*
X-12279957Y-439352D01*
X-12406036Y-405570D01*
X-12407242Y-405070D01*
X-12520281Y-339807D01*
X-12521317Y-339013D01*
X-12613613Y-246717D01*
X-12614407Y-245681D01*
X-12679670Y-132642D01*
X-12680170Y-131436D01*
X-12713952Y-5357D01*
X-12714122Y-4063D01*
X-12714122Y53375D01*
X-12714800Y56780D01*
X-12716936Y57664D01*
X-12718400Y61200D01*
X-12718400Y561200D01*
X-12716936Y564736D01*
X-12714410Y565783D01*
X-12714376Y565862D01*
X-12713400Y570769D01*
X-12713400Y851632D01*
X-12714376Y856539D01*
X-12714409Y856618D01*
X-12716936Y857664D01*
X-12718400Y861200D01*
X-12718400Y1361200D01*
X-12716936Y1364736D01*
X-12714800Y1365622D01*
X-12714122Y1369026D01*
X-12714122Y1424796D01*
X-12714122Y1426463D01*
X-12713952Y1427757D01*
X-12680170Y1553836D01*
X-12679670Y1555042D01*
X-12678837Y1556485D01*
X-12615244Y1666633D01*
X-12615240Y1666639D01*
X-12614407Y1668081D01*
X-12613613Y1669117D01*
X-12521317Y1761413D01*
X-12520281Y1762207D01*
X-12518839Y1763040D01*
X-12518833Y1763044D01*
X-12408685Y1826637D01*
X-12408685Y1826638D01*
X-12407242Y1827470D01*
X-12406036Y1827970D01*
X-12279957Y1861752D01*
X-12278663Y1861922D01*
X-12221225Y1861922D01*
X-12217821Y1862600D01*
X-12216936Y1864736D01*
X-12213400Y1866200D01*
X-11713400Y1866200D01*
X-11709864Y1864736D01*
G37*
G36*
X-31677900Y221600D02*
G01*
X-32977900Y221600D01*
X-32977900Y521600D01*
X-31677900Y521600D01*
X-31677900Y221600D01*
G37*
G36*
X10537800Y605400D02*
G01*
X9407800Y605400D01*
X9407800Y1985400D01*
X10537800Y1985400D01*
X10537800Y605400D01*
G37*
G36*
X12537800Y605400D02*
G01*
X11407800Y605400D01*
X11407800Y1985400D01*
X12537800Y1985400D01*
X12537800Y605400D01*
G37*
G36*
X-31677900Y721600D02*
G01*
X-32977900Y721600D01*
X-32977900Y1021600D01*
X-31677900Y1021600D01*
X-31677900Y721600D01*
G37*
G36*
X-26568000Y1052200D02*
G01*
X-27978000Y1052200D01*
X-27978000Y2402200D01*
X-26568000Y2402200D01*
X-26568000Y1052200D01*
G37*
G36*
X-24568000Y1052200D02*
G01*
X-25978000Y1052200D01*
X-25978000Y2402200D01*
X-24568000Y2402200D01*
X-24568000Y1052200D01*
G37*
G36*
X-31677900Y1221600D02*
G01*
X-32977900Y1221600D01*
X-32977900Y1521600D01*
X-31677900Y1521600D01*
X-31677900Y1221600D01*
G37*
G36*
X-31677900Y1721600D02*
G01*
X-32977900Y1721600D01*
X-32977900Y2021600D01*
X-31677900Y2021600D01*
X-31677900Y1721600D01*
G37*
G36*
X-31677900Y2221600D02*
G01*
X-32977900Y2221600D01*
X-32977900Y2521600D01*
X-31677900Y2521600D01*
X-31677900Y2221600D01*
G37*
G36*
X-31677900Y2721600D02*
G01*
X-32977900Y2721600D01*
X-32977900Y3021600D01*
X-31677900Y3021600D01*
X-31677900Y2721600D01*
G37*
G36*
X17314000Y2761000D02*
G01*
X17064000Y2761000D01*
X17064000Y3361000D01*
X17314000Y3361000D01*
X17314000Y2761000D01*
G37*
G36*
X17814000Y2761000D02*
G01*
X17564000Y2761000D01*
X17564000Y3361000D01*
X17814000Y3361000D01*
X17814000Y2761000D01*
G37*
G36*
X18314000Y2761000D02*
G01*
X18064000Y2761000D01*
X18064000Y3361000D01*
X18314000Y3361000D01*
X18314000Y2761000D01*
G37*
G36*
X18814000Y2761000D02*
G01*
X18564000Y2761000D01*
X18564000Y3361000D01*
X18814000Y3361000D01*
X18814000Y2761000D01*
G37*
G36*
X19314000Y2761000D02*
G01*
X19064000Y2761000D01*
X19064000Y3361000D01*
X19314000Y3361000D01*
X19314000Y2761000D01*
G37*
G36*
X19814000Y2761000D02*
G01*
X19564000Y2761000D01*
X19564000Y3361000D01*
X19814000Y3361000D01*
X19814000Y2761000D01*
G37*
G36*
X20314000Y2761000D02*
G01*
X20064000Y2761000D01*
X20064000Y3361000D01*
X20314000Y3361000D01*
X20314000Y2761000D01*
G37*
G36*
X20814000Y2761000D02*
G01*
X20564000Y2761000D01*
X20564000Y3361000D01*
X20814000Y3361000D01*
X20814000Y2761000D01*
G37*
G36*
X21314000Y2761000D02*
G01*
X21064000Y2761000D01*
X21064000Y3361000D01*
X21314000Y3361000D01*
X21314000Y2761000D01*
G37*
G36*
X21814000Y2761000D02*
G01*
X21564000Y2761000D01*
X21564000Y3361000D01*
X21814000Y3361000D01*
X21814000Y2761000D01*
G37*
G36*
X22314000Y2761000D02*
G01*
X22064000Y2761000D01*
X22064000Y3361000D01*
X22314000Y3361000D01*
X22314000Y2761000D01*
G37*
G36*
X22814000Y2761000D02*
G01*
X22564000Y2761000D01*
X22564000Y3361000D01*
X22814000Y3361000D01*
X22814000Y2761000D01*
G37*
G36*
X11641000Y2778000D02*
G01*
X11141000Y2778000D01*
X11141000Y3318000D01*
X11641000Y3318000D01*
X11641000Y2778000D01*
G37*
G36*
X12481000Y2778000D02*
G01*
X11981000Y2778000D01*
X11981000Y3318000D01*
X12481000Y3318000D01*
X12481000Y2778000D01*
G37*
G36*
X-19650400Y5196477D02*
G01*
X-19635523Y5181600D01*
X-18745400Y5181600D01*
X-18745400Y4871600D01*
X-19635524Y4871600D01*
X-19650400Y4856724D01*
X-19650400Y4546477D01*
X-19635523Y4531600D01*
X-18745400Y4531600D01*
X-18745400Y4221600D01*
X-19635524Y4221600D01*
X-19650400Y4206724D01*
X-19650400Y3886477D01*
X-19635523Y3871600D01*
X-18745400Y3871600D01*
X-18745400Y3561600D01*
X-19635524Y3561600D01*
X-19650400Y3546724D01*
X-19650400Y3236477D01*
X-19635523Y3221600D01*
X-18745400Y3221600D01*
X-18745400Y2911600D01*
X-19635524Y2911600D01*
X-19650400Y2896724D01*
X-19650400Y2821600D01*
X-21500400Y2821600D01*
X-21500400Y5271600D01*
X-19650400Y5271600D01*
X-19650400Y5196477D01*
G37*
G36*
X-21855400Y2911600D02*
G01*
X-22755400Y2911600D01*
X-22755400Y3221600D01*
X-21855400Y3221600D01*
X-21855400Y2911600D01*
G37*
G36*
X-16750400Y3071600D02*
G01*
X-18000400Y3071600D01*
X-18000400Y4771600D01*
X-16750400Y4771600D01*
X-16750400Y3071600D01*
G37*
G36*
X-12350400Y3071600D02*
G01*
X-13600400Y3071600D01*
X-13600400Y4771600D01*
X-12350400Y4771600D01*
X-12350400Y3071600D01*
G37*
G36*
X-31677900Y3221600D02*
G01*
X-32977900Y3221600D01*
X-32977900Y3521600D01*
X-31677900Y3521600D01*
X-31677900Y3221600D01*
G37*
G36*
X-26568000Y3287400D02*
G01*
X-27978000Y3287400D01*
X-27978000Y4637400D01*
X-26568000Y4637400D01*
X-26568000Y3287400D01*
G37*
G36*
X-24568000Y3287400D02*
G01*
X-25978000Y3287400D01*
X-25978000Y4637400D01*
X-24568000Y4637400D01*
X-24568000Y3287400D01*
G37*
G36*
X-21855400Y3561600D02*
G01*
X-22755400Y3561600D01*
X-22755400Y3871600D01*
X-21855400Y3871600D01*
X-21855400Y3561600D01*
G37*
G36*
X16839000Y3586000D02*
G01*
X16239000Y3586000D01*
X16239000Y3836000D01*
X16839000Y3836000D01*
X16839000Y3586000D01*
G37*
G36*
X23639000Y3586000D02*
G01*
X23039000Y3586000D01*
X23039000Y3836000D01*
X23639000Y3836000D01*
X23639000Y3586000D01*
G37*
G36*
X22789000Y3611000D02*
G01*
X17089000Y3611000D01*
X17089000Y7311000D01*
X22789000Y7311000D01*
X22789000Y3611000D01*
G37*
G36*
X-31677900Y3721600D02*
G01*
X-32977900Y3721600D01*
X-32977900Y4021600D01*
X-31677900Y4021600D01*
X-31677900Y3721600D01*
G37*
G36*
X16839000Y4086000D02*
G01*
X16239000Y4086000D01*
X16239000Y4336000D01*
X16839000Y4336000D01*
X16839000Y4086000D01*
G37*
G36*
X23639000Y4086000D02*
G01*
X23039000Y4086000D01*
X23039000Y4336000D01*
X23639000Y4336000D01*
X23639000Y4086000D01*
G37*
G36*
X-21855400Y4211600D02*
G01*
X-22755400Y4211600D01*
X-22755400Y4521600D01*
X-21855400Y4521600D01*
X-21855400Y4211600D01*
G37*
G36*
X-31627900Y4221600D02*
G01*
X-33027900Y4221600D01*
X-33027900Y4821600D01*
X-31627900Y4821600D01*
X-31627900Y4221600D01*
G37*
G36*
X34681885Y6417940D02*
G01*
X34862997Y6342921D01*
X35025993Y6234010D01*
X35164610Y6095393D01*
X35273521Y5932397D01*
X35348540Y5751285D01*
X35386785Y5559017D01*
X35386785Y5362983D01*
X35348540Y5170715D01*
X35273521Y4989603D01*
X35164610Y4826607D01*
X35025993Y4687990D01*
X34862997Y4579079D01*
X34681885Y4504060D01*
X34489617Y4465815D01*
X34293583Y4465815D01*
X34101315Y4504060D01*
X33920203Y4579079D01*
X33757207Y4687990D01*
X33618590Y4826607D01*
X33509679Y4989603D01*
X33434660Y5170715D01*
X33396415Y5362983D01*
X33396415Y5559017D01*
X33434660Y5751285D01*
X33509679Y5932397D01*
X33618590Y6095393D01*
X33757207Y6234010D01*
X33920203Y6342921D01*
X34101315Y6417940D01*
X34293583Y6456185D01*
X34489617Y6456185D01*
X34681885Y6417940D01*
G37*
G36*
X16839000Y4586000D02*
G01*
X16239000Y4586000D01*
X16239000Y4836000D01*
X16839000Y4836000D01*
X16839000Y4586000D01*
G37*
G36*
X23639000Y4586000D02*
G01*
X23039000Y4586000D01*
X23039000Y4836000D01*
X23639000Y4836000D01*
X23639000Y4586000D01*
G37*
G36*
X-33463528Y5321861D02*
G01*
X-33390053Y5279440D01*
X-33330060Y5219447D01*
X-33287639Y5145972D01*
X-33265680Y5064021D01*
X-33265680Y4979179D01*
X-33287639Y4897228D01*
X-33330060Y4823753D01*
X-33390053Y4763760D01*
X-33463528Y4721339D01*
X-33545479Y4699380D01*
X-33630321Y4699380D01*
X-33712272Y4721339D01*
X-33785747Y4763760D01*
X-33845740Y4823753D01*
X-33888161Y4897228D01*
X-33910120Y4979179D01*
X-33910120Y5064021D01*
X-33888161Y5145972D01*
X-33845740Y5219447D01*
X-33785747Y5279440D01*
X-33712272Y5321861D01*
X-33630321Y5343820D01*
X-33545479Y5343820D01*
X-33463528Y5321861D01*
G37*
G36*
X12069800Y4757000D02*
G01*
X11269800Y4757000D01*
X11269800Y5657000D01*
X12069800Y5657000D01*
X12069800Y4757000D01*
G37*
G36*
X13469800Y4757000D02*
G01*
X12669800Y4757000D01*
X12669800Y5657000D01*
X13469800Y5657000D01*
X13469800Y4757000D01*
G37*
G36*
X-21855400Y4871600D02*
G01*
X-22755400Y4871600D01*
X-22755400Y5181600D01*
X-21855400Y5181600D01*
X-21855400Y4871600D01*
G37*
G36*
X-31627900Y5021600D02*
G01*
X-33027900Y5021600D01*
X-33027900Y5621600D01*
X-31627900Y5621600D01*
X-31627900Y5021600D01*
G37*
G36*
X16839000Y5086000D02*
G01*
X16239000Y5086000D01*
X16239000Y5336000D01*
X16839000Y5336000D01*
X16839000Y5086000D01*
G37*
G36*
X23639000Y5086000D02*
G01*
X23039000Y5086000D01*
X23039000Y5336000D01*
X23639000Y5336000D01*
X23639000Y5086000D01*
G37*
G36*
X16839000Y5586000D02*
G01*
X16239000Y5586000D01*
X16239000Y5836000D01*
X16839000Y5836000D01*
X16839000Y5586000D01*
G37*
G36*
X23639000Y5586000D02*
G01*
X23039000Y5586000D01*
X23039000Y5836000D01*
X23639000Y5836000D01*
X23639000Y5586000D01*
G37*
G36*
X-36966063Y7051480D02*
G01*
X-36909721Y7048713D01*
X-36902777Y7047332D01*
X-36889584Y7046467D01*
X-36864096Y7039638D01*
X-36793767Y7025648D01*
X-36760576Y7011900D01*
X-36738290Y7005928D01*
X-36718309Y6994392D01*
X-36685117Y6980643D01*
X-36625503Y6940810D01*
X-36602643Y6927612D01*
X-36596386Y6921355D01*
X-36587345Y6915314D01*
X-36504187Y6832156D01*
X-36498147Y6823116D01*
X-36491888Y6816857D01*
X-36478688Y6793994D01*
X-36438858Y6734384D01*
X-36425111Y6701196D01*
X-36413572Y6681210D01*
X-36407600Y6658921D01*
X-36393853Y6625734D01*
X-36379866Y6555415D01*
X-36373033Y6529916D01*
X-36373033Y6521067D01*
X-36370911Y6510399D01*
X-36370911Y6392802D01*
X-36373033Y6382135D01*
X-36373033Y6373284D01*
X-36379867Y6347783D01*
X-36393853Y6277467D01*
X-36407599Y6244282D01*
X-36413572Y6221990D01*
X-36425113Y6202002D01*
X-36438858Y6168817D01*
X-36478684Y6109214D01*
X-36491888Y6086343D01*
X-36498149Y6080083D01*
X-36504187Y6071045D01*
X-36587345Y5987887D01*
X-36596383Y5981849D01*
X-36602643Y5975588D01*
X-36625514Y5962384D01*
X-36685117Y5922558D01*
X-36718302Y5908813D01*
X-36738290Y5897272D01*
X-36760582Y5891299D01*
X-36793767Y5877553D01*
X-36864082Y5863567D01*
X-36889584Y5856733D01*
X-36902785Y5855868D01*
X-36909721Y5854488D01*
X-36966061Y5851721D01*
X-36967900Y5851600D01*
X-36968515Y5851600D01*
X-37567285Y5851600D01*
X-37567900Y5851600D01*
X-37569740Y5851721D01*
X-37626080Y5854488D01*
X-37633018Y5855868D01*
X-37646216Y5856733D01*
X-37671717Y5863566D01*
X-37742034Y5877553D01*
X-37775221Y5891300D01*
X-37797510Y5897272D01*
X-37817496Y5908811D01*
X-37850684Y5922558D01*
X-37910294Y5962388D01*
X-37933157Y5975588D01*
X-37939416Y5981847D01*
X-37948456Y5987887D01*
X-38031614Y6071045D01*
X-38037655Y6080086D01*
X-38043912Y6086343D01*
X-38057110Y6109203D01*
X-38096943Y6168817D01*
X-38110692Y6202009D01*
X-38122228Y6221990D01*
X-38128200Y6244276D01*
X-38141948Y6277467D01*
X-38155936Y6347788D01*
X-38162767Y6373284D01*
X-38162767Y6382134D01*
X-38164889Y6392802D01*
X-38164889Y6510399D01*
X-38162767Y6521068D01*
X-38162767Y6529916D01*
X-38155937Y6555410D01*
X-38141948Y6625734D01*
X-38128199Y6658928D01*
X-38122228Y6681210D01*
X-38110693Y6701190D01*
X-38096943Y6734384D01*
X-38057106Y6794005D01*
X-38043912Y6816857D01*
X-38037657Y6823113D01*
X-38031614Y6832156D01*
X-37948456Y6915314D01*
X-37939413Y6921357D01*
X-37933157Y6927612D01*
X-37910305Y6940806D01*
X-37850684Y6980643D01*
X-37817490Y6994393D01*
X-37797510Y7005928D01*
X-37775228Y7011899D01*
X-37742034Y7025648D01*
X-37671702Y7039639D01*
X-37646216Y7046467D01*
X-37633025Y7047332D01*
X-37626080Y7048713D01*
X-37569737Y7051480D01*
X-37567900Y7051600D01*
X-36967900Y7051600D01*
X-36966063Y7051480D01*
G37*
G36*
X-32686063Y7051480D02*
G01*
X-32629721Y7048713D01*
X-32622777Y7047332D01*
X-32609584Y7046467D01*
X-32584096Y7039638D01*
X-32513767Y7025648D01*
X-32480576Y7011900D01*
X-32458290Y7005928D01*
X-32438309Y6994392D01*
X-32405117Y6980643D01*
X-32345503Y6940810D01*
X-32322643Y6927612D01*
X-32316386Y6921355D01*
X-32307345Y6915314D01*
X-32224187Y6832156D01*
X-32218147Y6823116D01*
X-32211888Y6816857D01*
X-32198688Y6793994D01*
X-32158858Y6734384D01*
X-32145111Y6701196D01*
X-32133572Y6681210D01*
X-32127600Y6658921D01*
X-32113853Y6625734D01*
X-32099866Y6555415D01*
X-32093033Y6529916D01*
X-32093033Y6521067D01*
X-32090911Y6510399D01*
X-32090911Y6392802D01*
X-32093033Y6382135D01*
X-32093033Y6373284D01*
X-32099867Y6347783D01*
X-32113853Y6277467D01*
X-32127599Y6244282D01*
X-32133572Y6221990D01*
X-32145113Y6202002D01*
X-32158858Y6168817D01*
X-32198684Y6109214D01*
X-32211888Y6086343D01*
X-32218149Y6080083D01*
X-32224187Y6071045D01*
X-32307345Y5987887D01*
X-32316383Y5981849D01*
X-32322643Y5975588D01*
X-32345514Y5962384D01*
X-32405117Y5922558D01*
X-32438302Y5908813D01*
X-32458290Y5897272D01*
X-32480582Y5891299D01*
X-32513767Y5877553D01*
X-32584082Y5863567D01*
X-32609584Y5856733D01*
X-32622785Y5855868D01*
X-32629721Y5854488D01*
X-32686061Y5851721D01*
X-32687900Y5851600D01*
X-32688515Y5851600D01*
X-33487285Y5851600D01*
X-33487900Y5851600D01*
X-33489740Y5851721D01*
X-33546080Y5854488D01*
X-33553018Y5855868D01*
X-33566216Y5856733D01*
X-33591717Y5863566D01*
X-33662034Y5877553D01*
X-33695221Y5891300D01*
X-33717510Y5897272D01*
X-33737496Y5908811D01*
X-33770684Y5922558D01*
X-33830294Y5962388D01*
X-33853157Y5975588D01*
X-33859416Y5981847D01*
X-33868456Y5987887D01*
X-33951614Y6071045D01*
X-33957655Y6080086D01*
X-33963912Y6086343D01*
X-33977110Y6109203D01*
X-34016943Y6168817D01*
X-34030692Y6202009D01*
X-34042228Y6221990D01*
X-34048200Y6244276D01*
X-34061948Y6277467D01*
X-34075936Y6347788D01*
X-34082767Y6373284D01*
X-34082767Y6382134D01*
X-34084889Y6392802D01*
X-34084889Y6510399D01*
X-34082767Y6521068D01*
X-34082767Y6529916D01*
X-34075937Y6555410D01*
X-34061948Y6625734D01*
X-34048199Y6658928D01*
X-34042228Y6681210D01*
X-34030693Y6701190D01*
X-34016943Y6734384D01*
X-33977106Y6794005D01*
X-33963912Y6816857D01*
X-33957657Y6823113D01*
X-33951614Y6832156D01*
X-33868456Y6915314D01*
X-33859413Y6921357D01*
X-33853157Y6927612D01*
X-33830305Y6940806D01*
X-33770684Y6980643D01*
X-33737490Y6994393D01*
X-33717510Y7005928D01*
X-33695228Y7011899D01*
X-33662034Y7025648D01*
X-33591702Y7039639D01*
X-33566216Y7046467D01*
X-33553025Y7047332D01*
X-33546080Y7048713D01*
X-33489737Y7051480D01*
X-33487900Y7051600D01*
X-32687900Y7051600D01*
X-32686063Y7051480D01*
G37*
G36*
X16839000Y6086000D02*
G01*
X16239000Y6086000D01*
X16239000Y6336000D01*
X16839000Y6336000D01*
X16839000Y6086000D01*
G37*
G36*
X23639000Y6086000D02*
G01*
X23039000Y6086000D01*
X23039000Y6336000D01*
X23639000Y6336000D01*
X23639000Y6086000D01*
G37*
G36*
X-10238000Y6465000D02*
G01*
X-11098000Y6465000D01*
X-11098000Y7275000D01*
X-10238000Y7275000D01*
X-10238000Y6465000D01*
G37*
G36*
X-8460000Y6465000D02*
G01*
X-9320000Y6465000D01*
X-9320000Y7275000D01*
X-8460000Y7275000D01*
X-8460000Y6465000D01*
G37*
G36*
X-6682000Y6465000D02*
G01*
X-7542000Y6465000D01*
X-7542000Y7275000D01*
X-6682000Y7275000D01*
X-6682000Y6465000D01*
G37*
G36*
X-4904000Y6465000D02*
G01*
X-5764000Y6465000D01*
X-5764000Y7275000D01*
X-4904000Y7275000D01*
X-4904000Y6465000D01*
G37*
G36*
X16839000Y6586000D02*
G01*
X16239000Y6586000D01*
X16239000Y6836000D01*
X16839000Y6836000D01*
X16839000Y6586000D01*
G37*
G36*
X23639000Y6586000D02*
G01*
X23039000Y6586000D01*
X23039000Y6836000D01*
X23639000Y6836000D01*
X23639000Y6586000D01*
G37*
G36*
X16839000Y7086000D02*
G01*
X16239000Y7086000D01*
X16239000Y7336000D01*
X16839000Y7336000D01*
X16839000Y7086000D01*
G37*
G36*
X23639000Y7086000D02*
G01*
X23039000Y7086000D01*
X23039000Y7336000D01*
X23639000Y7336000D01*
X23639000Y7086000D01*
G37*
G36*
X-26404400Y7164600D02*
G01*
X-27304400Y7164600D01*
X-27304400Y7964600D01*
X-26404400Y7964600D01*
X-26404400Y7164600D01*
G37*
G36*
X-28354400Y7314600D02*
G01*
X-29354400Y7314600D01*
X-29354400Y8014600D01*
X-28354400Y8014600D01*
X-28354400Y7314600D01*
G37*
G36*
X17314000Y7561000D02*
G01*
X17064000Y7561000D01*
X17064000Y8161000D01*
X17314000Y8161000D01*
X17314000Y7561000D01*
G37*
G36*
X17814000Y7561000D02*
G01*
X17564000Y7561000D01*
X17564000Y8161000D01*
X17814000Y8161000D01*
X17814000Y7561000D01*
G37*
G36*
X18314000Y7561000D02*
G01*
X18064000Y7561000D01*
X18064000Y8161000D01*
X18314000Y8161000D01*
X18314000Y7561000D01*
G37*
G36*
X18814000Y7561000D02*
G01*
X18564000Y7561000D01*
X18564000Y8161000D01*
X18814000Y8161000D01*
X18814000Y7561000D01*
G37*
G36*
X19314000Y7561000D02*
G01*
X19064000Y7561000D01*
X19064000Y8161000D01*
X19314000Y8161000D01*
X19314000Y7561000D01*
G37*
G36*
X19814000Y7561000D02*
G01*
X19564000Y7561000D01*
X19564000Y8161000D01*
X19814000Y8161000D01*
X19814000Y7561000D01*
G37*
G36*
X20314000Y7561000D02*
G01*
X20064000Y7561000D01*
X20064000Y8161000D01*
X20314000Y8161000D01*
X20314000Y7561000D01*
G37*
G36*
X20814000Y7561000D02*
G01*
X20564000Y7561000D01*
X20564000Y8161000D01*
X20814000Y8161000D01*
X20814000Y7561000D01*
G37*
G36*
X21314000Y7561000D02*
G01*
X21064000Y7561000D01*
X21064000Y8161000D01*
X21314000Y8161000D01*
X21314000Y7561000D01*
G37*
G36*
X21814000Y7561000D02*
G01*
X21564000Y7561000D01*
X21564000Y8161000D01*
X21814000Y8161000D01*
X21814000Y7561000D01*
G37*
G36*
X22314000Y7561000D02*
G01*
X22064000Y7561000D01*
X22064000Y8161000D01*
X22314000Y8161000D01*
X22314000Y7561000D01*
G37*
G36*
X22814000Y7561000D02*
G01*
X22564000Y7561000D01*
X22564000Y8161000D01*
X22814000Y8161000D01*
X22814000Y7561000D01*
G37*
G36*
X-16593000Y7771000D02*
G01*
X-18083000Y7771000D01*
X-18083000Y9501000D01*
X-16593000Y9501000D01*
X-16593000Y7771000D01*
G37*
G36*
X-13413000Y7771000D02*
G01*
X-14903000Y7771000D01*
X-14903000Y9501000D01*
X-13413000Y9501000D01*
X-13413000Y7771000D01*
G37*
G36*
X-10238000Y7965000D02*
G01*
X-11098000Y7965000D01*
X-11098000Y8775000D01*
X-10238000Y8775000D01*
X-10238000Y7965000D01*
G37*
G36*
X-8460000Y7965000D02*
G01*
X-9320000Y7965000D01*
X-9320000Y8775000D01*
X-8460000Y8775000D01*
X-8460000Y7965000D01*
G37*
G36*
X-6682000Y7965000D02*
G01*
X-7542000Y7965000D01*
X-7542000Y8775000D01*
X-6682000Y8775000D01*
X-6682000Y7965000D01*
G37*
G36*
X-4904000Y7965000D02*
G01*
X-5764000Y7965000D01*
X-5764000Y8775000D01*
X-4904000Y8775000D01*
X-4904000Y7965000D01*
G37*
G36*
X-1607000Y8279000D02*
G01*
X-3097000Y8279000D01*
X-3097000Y10009000D01*
X-1607000Y10009000D01*
X-1607000Y8279000D01*
G37*
G36*
X1573000Y8279000D02*
G01*
X83000Y8279000D01*
X83000Y10009000D01*
X1573000Y10009000D01*
X1573000Y8279000D01*
G37*
G36*
X-28354400Y8514600D02*
G01*
X-29354400Y8514600D01*
X-29354400Y9214600D01*
X-28354400Y9214600D01*
X-28354400Y8514600D01*
G37*
G36*
X-26404400Y8564600D02*
G01*
X-27304400Y8564600D01*
X-27304400Y9364600D01*
X-26404400Y9364600D01*
X-26404400Y8564600D01*
G37*
G36*
X34681885Y11497940D02*
G01*
X34862997Y11422921D01*
X35025993Y11314010D01*
X35164610Y11175393D01*
X35273521Y11012397D01*
X35348540Y10831285D01*
X35386785Y10639017D01*
X35386785Y10442983D01*
X35348540Y10250715D01*
X35273521Y10069603D01*
X35164610Y9906607D01*
X35025993Y9767990D01*
X34862997Y9659079D01*
X34681885Y9584060D01*
X34489617Y9545815D01*
X34293583Y9545815D01*
X34101315Y9584060D01*
X33920203Y9659079D01*
X33757207Y9767990D01*
X33618590Y9906607D01*
X33509679Y10069603D01*
X33434660Y10250715D01*
X33396415Y10442983D01*
X33396415Y10639017D01*
X33434660Y10831285D01*
X33509679Y11012397D01*
X33618590Y11175393D01*
X33757207Y11314010D01*
X33920203Y11422921D01*
X34101315Y11497940D01*
X34293583Y11536185D01*
X34489617Y11536185D01*
X34681885Y11497940D01*
G37*
G36*
X-15032000Y10472000D02*
G01*
X-15832000Y10472000D01*
X-15832000Y11372000D01*
X-15032000Y11372000D01*
X-15032000Y10472000D01*
G37*
G36*
X-13632000Y10472000D02*
G01*
X-14432000Y10472000D01*
X-14432000Y11372000D01*
X-13632000Y11372000D01*
X-13632000Y10472000D01*
G37*
G36*
X26130000Y10590000D02*
G01*
X25330000Y10590000D01*
X25330000Y11490000D01*
X26130000Y11490000D01*
X26130000Y10590000D01*
G37*
G36*
X27530000Y10590000D02*
G01*
X26730000Y10590000D01*
X26730000Y11490000D01*
X27530000Y11490000D01*
X27530000Y10590000D01*
G37*
G36*
X-1607000Y10819000D02*
G01*
X-3097000Y10819000D01*
X-3097000Y12549000D01*
X-1607000Y12549000D01*
X-1607000Y10819000D01*
G37*
G36*
X1573000Y10819000D02*
G01*
X83000Y10819000D01*
X83000Y12549000D01*
X1573000Y12549000D01*
X1573000Y10819000D01*
G37*
G36*
X19929600Y11326400D02*
G01*
X19389600Y11326400D01*
X19389600Y11896400D01*
X19929600Y11896400D01*
X19929600Y11326400D01*
G37*
G36*
X19929600Y12186400D02*
G01*
X19389600Y12186400D01*
X19389600Y12756400D01*
X19929600Y12756400D01*
X19929600Y12186400D01*
G37*
G36*
X26185000Y12235000D02*
G01*
X24775000Y12235000D01*
X24775000Y13585000D01*
X26185000Y13585000D01*
X26185000Y12235000D01*
G37*
G36*
X28185000Y12235000D02*
G01*
X26775000Y12235000D01*
X26775000Y13585000D01*
X28185000Y13585000D01*
X28185000Y12235000D01*
G37*
G36*
X-14963980Y18654787D02*
G01*
X-14614126Y18574935D01*
X-14275413Y18456415D01*
X-13952100Y18300715D01*
X-13648252Y18109795D01*
X-13367691Y17886055D01*
X-13113945Y17632309D01*
X-12890205Y17351748D01*
X-12699285Y17047900D01*
X-12543585Y16724587D01*
X-12425065Y16385874D01*
X-12345213Y16036020D01*
X-12305034Y15679425D01*
X-12305034Y15320575D01*
X-12345213Y14963980D01*
X-12425065Y14614126D01*
X-12543585Y14275413D01*
X-12699285Y13952100D01*
X-12890205Y13648252D01*
X-13113945Y13367691D01*
X-13367691Y13113945D01*
X-13648252Y12890205D01*
X-13952100Y12699285D01*
X-14275413Y12543585D01*
X-14614126Y12425065D01*
X-14963980Y12345213D01*
X-15320575Y12305034D01*
X-15679425Y12305034D01*
X-16036020Y12345213D01*
X-16385874Y12425065D01*
X-16724587Y12543585D01*
X-17047900Y12699285D01*
X-17351748Y12890205D01*
X-17632309Y13113945D01*
X-17886055Y13367691D01*
X-18109795Y13648252D01*
X-18300715Y13952100D01*
X-18456415Y14275413D01*
X-18574935Y14614126D01*
X-18654787Y14963980D01*
X-18694966Y15320575D01*
X-18694966Y15679425D01*
X-18654787Y16036020D01*
X-18574935Y16385874D01*
X-18456415Y16724587D01*
X-18300715Y17047900D01*
X-18109795Y17351748D01*
X-17886055Y17632309D01*
X-17632309Y17886055D01*
X-17351748Y18109795D01*
X-17047900Y18300715D01*
X-16724587Y18456415D01*
X-16385874Y18574935D01*
X-16036020Y18654787D01*
X-15679425Y18694966D01*
X-15320575Y18694966D01*
X-14963980Y18654787D01*
G37*
G36*
X16036020Y18654787D02*
G01*
X16385874Y18574935D01*
X16724587Y18456415D01*
X17047900Y18300715D01*
X17351748Y18109795D01*
X17632309Y17886055D01*
X17886055Y17632309D01*
X18109795Y17351748D01*
X18300715Y17047900D01*
X18456415Y16724587D01*
X18574935Y16385874D01*
X18654787Y16036020D01*
X18694966Y15679425D01*
X18694966Y15320575D01*
X18654787Y14963980D01*
X18574935Y14614126D01*
X18456415Y14275413D01*
X18300715Y13952100D01*
X18109795Y13648252D01*
X17886055Y13367691D01*
X17632309Y13113945D01*
X17351748Y12890205D01*
X17047900Y12699285D01*
X16724587Y12543585D01*
X16385874Y12425065D01*
X16036020Y12345213D01*
X15679425Y12305034D01*
X15320575Y12305034D01*
X14963980Y12345213D01*
X14614126Y12425065D01*
X14275413Y12543585D01*
X13952100Y12699285D01*
X13648252Y12890205D01*
X13367691Y13113945D01*
X13113945Y13367691D01*
X12890205Y13648252D01*
X12699285Y13952100D01*
X12543585Y14275413D01*
X12425065Y14614126D01*
X12345213Y14963980D01*
X12305034Y15320575D01*
X12305034Y15679425D01*
X12345213Y16036020D01*
X12425065Y16385874D01*
X12543585Y16724587D01*
X12699285Y17047900D01*
X12890205Y17351748D01*
X13113945Y17632309D01*
X13367691Y17886055D01*
X13648252Y18109795D01*
X13952100Y18300715D01*
X14275413Y18456415D01*
X14614126Y18574935D01*
X14963980Y18654787D01*
X15320575Y18694966D01*
X15679425Y18694966D01*
X16036020Y18654787D01*
G37*
G36*
X-1607000Y13359000D02*
G01*
X-3097000Y13359000D01*
X-3097000Y15089000D01*
X-1607000Y15089000D01*
X-1607000Y13359000D01*
G37*
G36*
X1573000Y13359000D02*
G01*
X83000Y13359000D01*
X83000Y15089000D01*
X1573000Y15089000D01*
X1573000Y13359000D01*
G37*
G36*
X38930285Y16476940D02*
G01*
X39111397Y16401921D01*
X39274393Y16293010D01*
X39413010Y16154393D01*
X39521921Y15991397D01*
X39596940Y15810285D01*
X39635185Y15618017D01*
X39635185Y15421983D01*
X39596940Y15229715D01*
X39521921Y15048603D01*
X39413010Y14885607D01*
X39274393Y14746990D01*
X39111397Y14638079D01*
X38930285Y14563060D01*
X38738017Y14524815D01*
X38541983Y14524815D01*
X38349715Y14563060D01*
X38168603Y14638079D01*
X38005607Y14746990D01*
X37866990Y14885607D01*
X37758079Y15048603D01*
X37683060Y15229715D01*
X37644815Y15421983D01*
X37644815Y15618017D01*
X37683060Y15810285D01*
X37758079Y15991397D01*
X37866990Y16154393D01*
X38005607Y16293010D01*
X38168603Y16401921D01*
X38349715Y16476940D01*
X38541983Y16515185D01*
X38738017Y16515185D01*
X38930285Y16476940D01*
G37*
G36*
X-22760000Y14880000D02*
G01*
X-24760000Y14880000D01*
X-24760000Y16880000D01*
X-22760000Y16880000D01*
X-22760000Y14880000D01*
G37*
G36*
X39640000Y17060000D02*
G01*
X37640000Y17060000D01*
X37640000Y19060000D01*
X39640000Y19060000D01*
X39640000Y17060000D01*
G37*
G36*
X-23469715Y19376940D02*
G01*
X-23288603Y19301921D01*
X-23125607Y19193010D01*
X-22986990Y19054393D01*
X-22878079Y18891397D01*
X-22803060Y18710285D01*
X-22764815Y18518017D01*
X-22764815Y18321983D01*
X-22803060Y18129715D01*
X-22878079Y17948603D01*
X-22986990Y17785607D01*
X-23125607Y17646990D01*
X-23288603Y17538079D01*
X-23469715Y17463060D01*
X-23661983Y17424815D01*
X-23858017Y17424815D01*
X-24050285Y17463060D01*
X-24231397Y17538079D01*
X-24394393Y17646990D01*
X-24533010Y17785607D01*
X-24641921Y17948603D01*
X-24716940Y18129715D01*
X-24755185Y18321983D01*
X-24755185Y18518017D01*
X-24716940Y18710285D01*
X-24641921Y18891397D01*
X-24533010Y19054393D01*
X-24394393Y19193010D01*
X-24231397Y19301921D01*
X-24050285Y19376940D01*
X-23858017Y19415185D01*
X-23661983Y19415185D01*
X-23469715Y19376940D01*
G37*
G36*
X-36940663Y18869880D02*
G01*
X-36884321Y18867113D01*
X-36877377Y18865732D01*
X-36864184Y18864867D01*
X-36838696Y18858038D01*
X-36768367Y18844048D01*
X-36735176Y18830300D01*
X-36712890Y18824328D01*
X-36692909Y18812792D01*
X-36659717Y18799043D01*
X-36600103Y18759210D01*
X-36577243Y18746012D01*
X-36570986Y18739755D01*
X-36561945Y18733714D01*
X-36478787Y18650556D01*
X-36472747Y18641516D01*
X-36466488Y18635257D01*
X-36453288Y18612394D01*
X-36413458Y18552784D01*
X-36399711Y18519596D01*
X-36388172Y18499610D01*
X-36382200Y18477321D01*
X-36368453Y18444134D01*
X-36354466Y18373815D01*
X-36347633Y18348316D01*
X-36347633Y18339467D01*
X-36345511Y18328799D01*
X-36345511Y18211202D01*
X-36347633Y18200535D01*
X-36347633Y18191684D01*
X-36354467Y18166183D01*
X-36368453Y18095867D01*
X-36382199Y18062682D01*
X-36388172Y18040390D01*
X-36399713Y18020402D01*
X-36413458Y17987217D01*
X-36453284Y17927614D01*
X-36466488Y17904743D01*
X-36472749Y17898483D01*
X-36478787Y17889445D01*
X-36561945Y17806287D01*
X-36570983Y17800249D01*
X-36577243Y17793988D01*
X-36600114Y17780784D01*
X-36659717Y17740958D01*
X-36692902Y17727213D01*
X-36712890Y17715672D01*
X-36735182Y17709699D01*
X-36768367Y17695953D01*
X-36838682Y17681967D01*
X-36864184Y17675133D01*
X-36877385Y17674268D01*
X-36884321Y17672888D01*
X-36940661Y17670121D01*
X-36942500Y17670000D01*
X-36943115Y17670000D01*
X-37541885Y17670000D01*
X-37542500Y17670000D01*
X-37544340Y17670121D01*
X-37600680Y17672888D01*
X-37607618Y17674268D01*
X-37620816Y17675133D01*
X-37646317Y17681966D01*
X-37716634Y17695953D01*
X-37749821Y17709700D01*
X-37772110Y17715672D01*
X-37792096Y17727211D01*
X-37825284Y17740958D01*
X-37884894Y17780788D01*
X-37907757Y17793988D01*
X-37914016Y17800247D01*
X-37923056Y17806287D01*
X-38006214Y17889445D01*
X-38012255Y17898486D01*
X-38018512Y17904743D01*
X-38031710Y17927603D01*
X-38071543Y17987217D01*
X-38085292Y18020409D01*
X-38096828Y18040390D01*
X-38102800Y18062676D01*
X-38116548Y18095867D01*
X-38130536Y18166188D01*
X-38137367Y18191684D01*
X-38137367Y18200534D01*
X-38139489Y18211202D01*
X-38139489Y18328799D01*
X-38137367Y18339468D01*
X-38137367Y18348316D01*
X-38130537Y18373810D01*
X-38116548Y18444134D01*
X-38102799Y18477328D01*
X-38096828Y18499610D01*
X-38085293Y18519590D01*
X-38071543Y18552784D01*
X-38031706Y18612405D01*
X-38018512Y18635257D01*
X-38012257Y18641513D01*
X-38006214Y18650556D01*
X-37923056Y18733714D01*
X-37914013Y18739757D01*
X-37907757Y18746012D01*
X-37884905Y18759206D01*
X-37825284Y18799043D01*
X-37792090Y18812793D01*
X-37772110Y18824328D01*
X-37749828Y18830299D01*
X-37716634Y18844048D01*
X-37646302Y18858039D01*
X-37620816Y18864867D01*
X-37607625Y18865732D01*
X-37600680Y18867113D01*
X-37544337Y18869880D01*
X-37542500Y18870000D01*
X-36942500Y18870000D01*
X-36940663Y18869880D01*
G37*
G36*
X-32660663Y18869880D02*
G01*
X-32604321Y18867113D01*
X-32597377Y18865732D01*
X-32584184Y18864867D01*
X-32558696Y18858038D01*
X-32488367Y18844048D01*
X-32455176Y18830300D01*
X-32432890Y18824328D01*
X-32412909Y18812792D01*
X-32379717Y18799043D01*
X-32320103Y18759210D01*
X-32297243Y18746012D01*
X-32290986Y18739755D01*
X-32281945Y18733714D01*
X-32198787Y18650556D01*
X-32192747Y18641516D01*
X-32186488Y18635257D01*
X-32173288Y18612394D01*
X-32133458Y18552784D01*
X-32119711Y18519596D01*
X-32108172Y18499610D01*
X-32102200Y18477321D01*
X-32088453Y18444134D01*
X-32074466Y18373815D01*
X-32067633Y18348316D01*
X-32067633Y18339467D01*
X-32065511Y18328799D01*
X-32065511Y18211202D01*
X-32067633Y18200535D01*
X-32067633Y18191684D01*
X-32074467Y18166183D01*
X-32088453Y18095867D01*
X-32102199Y18062682D01*
X-32108172Y18040390D01*
X-32119713Y18020402D01*
X-32133458Y17987217D01*
X-32173284Y17927614D01*
X-32186488Y17904743D01*
X-32192749Y17898483D01*
X-32198787Y17889445D01*
X-32281945Y17806287D01*
X-32290983Y17800249D01*
X-32297243Y17793988D01*
X-32320114Y17780784D01*
X-32379717Y17740958D01*
X-32412902Y17727213D01*
X-32432890Y17715672D01*
X-32455182Y17709699D01*
X-32488367Y17695953D01*
X-32558682Y17681967D01*
X-32584184Y17675133D01*
X-32597385Y17674268D01*
X-32604321Y17672888D01*
X-32660661Y17670121D01*
X-32662500Y17670000D01*
X-32663115Y17670000D01*
X-33461885Y17670000D01*
X-33462500Y17670000D01*
X-33464340Y17670121D01*
X-33520680Y17672888D01*
X-33527618Y17674268D01*
X-33540816Y17675133D01*
X-33566317Y17681966D01*
X-33636634Y17695953D01*
X-33669821Y17709700D01*
X-33692110Y17715672D01*
X-33712096Y17727211D01*
X-33745284Y17740958D01*
X-33804894Y17780788D01*
X-33827757Y17793988D01*
X-33834016Y17800247D01*
X-33843056Y17806287D01*
X-33926214Y17889445D01*
X-33932255Y17898486D01*
X-33938512Y17904743D01*
X-33951710Y17927603D01*
X-33991543Y17987217D01*
X-34005292Y18020409D01*
X-34016828Y18040390D01*
X-34022800Y18062676D01*
X-34036548Y18095867D01*
X-34050536Y18166188D01*
X-34057367Y18191684D01*
X-34057367Y18200534D01*
X-34059489Y18211202D01*
X-34059489Y18328799D01*
X-34057367Y18339468D01*
X-34057367Y18348316D01*
X-34050537Y18373810D01*
X-34036548Y18444134D01*
X-34022799Y18477328D01*
X-34016828Y18499610D01*
X-34005293Y18519590D01*
X-33991543Y18552784D01*
X-33951706Y18612405D01*
X-33938512Y18635257D01*
X-33932257Y18641513D01*
X-33926214Y18650556D01*
X-33843056Y18733714D01*
X-33834013Y18739757D01*
X-33827757Y18746012D01*
X-33804905Y18759206D01*
X-33745284Y18799043D01*
X-33712090Y18812793D01*
X-33692110Y18824328D01*
X-33669828Y18830299D01*
X-33636634Y18844048D01*
X-33566302Y18858039D01*
X-33540816Y18864867D01*
X-33527625Y18865732D01*
X-33520680Y18867113D01*
X-33464337Y18869880D01*
X-33462500Y18870000D01*
X-32662500Y18870000D01*
X-32660663Y18869880D01*
G37*
G36*
X32639400Y18476600D02*
G01*
X31229400Y18476600D01*
X31229400Y19826600D01*
X32639400Y19826600D01*
X32639400Y18476600D01*
G37*
G36*
X34639400Y18476600D02*
G01*
X33229400Y18476600D01*
X33229400Y19826600D01*
X34639400Y19826600D01*
X34639400Y18476600D01*
G37*
G36*
X-31602500Y19100000D02*
G01*
X-33002500Y19100000D01*
X-33002500Y19700000D01*
X-31602500Y19700000D01*
X-31602500Y19100000D01*
G37*
G36*
X-33438128Y20000261D02*
G01*
X-33364653Y19957840D01*
X-33304660Y19897847D01*
X-33262239Y19824372D01*
X-33240280Y19742421D01*
X-33240280Y19657579D01*
X-33262239Y19575628D01*
X-33304660Y19502153D01*
X-33364653Y19442160D01*
X-33438128Y19399739D01*
X-33520079Y19377780D01*
X-33604921Y19377780D01*
X-33686872Y19399739D01*
X-33760347Y19442160D01*
X-33820340Y19502153D01*
X-33862761Y19575628D01*
X-33884720Y19657579D01*
X-33884720Y19742421D01*
X-33862761Y19824372D01*
X-33820340Y19897847D01*
X-33760347Y19957840D01*
X-33686872Y20000261D01*
X-33604921Y20022220D01*
X-33520079Y20022220D01*
X-33438128Y20000261D01*
G37*
G36*
X-28800000Y19800000D02*
G01*
X-29600000Y19800000D01*
X-29600000Y20700000D01*
X-28800000Y20700000D01*
X-28800000Y19800000D01*
G37*
G36*
X-27400000Y19800000D02*
G01*
X-28200000Y19800000D01*
X-28200000Y20700000D01*
X-27400000Y20700000D01*
X-27400000Y19800000D01*
G37*
G36*
X-31602500Y19900000D02*
G01*
X-33002500Y19900000D01*
X-33002500Y20500000D01*
X-31602500Y20500000D01*
X-31602500Y19900000D01*
G37*
G36*
X-31652500Y20700000D02*
G01*
X-32952500Y20700000D01*
X-32952500Y21000000D01*
X-31652500Y21000000D01*
X-31652500Y20700000D01*
G37*
G36*
X-24185000Y20860000D02*
G01*
X-25315000Y20860000D01*
X-25315000Y22240000D01*
X-24185000Y22240000D01*
X-24185000Y20860000D01*
G37*
G36*
X-22185000Y20860000D02*
G01*
X-23315000Y20860000D01*
X-23315000Y22240000D01*
X-22185000Y22240000D01*
X-22185000Y20860000D01*
G37*
G36*
X32639400Y20915000D02*
G01*
X31229400Y20915000D01*
X31229400Y22265000D01*
X32639400Y22265000D01*
X32639400Y20915000D01*
G37*
G36*
X34639400Y20915000D02*
G01*
X33229400Y20915000D01*
X33229400Y22265000D01*
X34639400Y22265000D01*
X34639400Y20915000D01*
G37*
G36*
X-31652500Y21200000D02*
G01*
X-32952500Y21200000D01*
X-32952500Y21500000D01*
X-31652500Y21500000D01*
X-31652500Y21200000D01*
G37*
G36*
X-31652500Y21700000D02*
G01*
X-32952500Y21700000D01*
X-32952500Y22000000D01*
X-31652500Y22000000D01*
X-31652500Y21700000D01*
G37*
G36*
X-31652500Y22200000D02*
G01*
X-32952500Y22200000D01*
X-32952500Y22500000D01*
X-31652500Y22500000D01*
X-31652500Y22200000D01*
G37*
G36*
X-31652500Y22700000D02*
G01*
X-32952500Y22700000D01*
X-32952500Y23000000D01*
X-31652500Y23000000D01*
X-31652500Y22700000D01*
G37*
G36*
X-24185000Y22945000D02*
G01*
X-25315000Y22945000D01*
X-25315000Y24325000D01*
X-24185000Y24325000D01*
X-24185000Y22945000D01*
G37*
G36*
X-22185000Y22945000D02*
G01*
X-23315000Y22945000D01*
X-23315000Y24325000D01*
X-22185000Y24325000D01*
X-22185000Y22945000D01*
G37*
G36*
X-31652500Y23200000D02*
G01*
X-32952500Y23200000D01*
X-32952500Y23500000D01*
X-31652500Y23500000D01*
X-31652500Y23200000D01*
G37*
G36*
X31989000Y23313400D02*
G01*
X30789000Y23313400D01*
X30789000Y26013400D01*
X31989000Y26013400D01*
X31989000Y23313400D01*
G37*
G36*
X34489000Y23313400D02*
G01*
X33289000Y23313400D01*
X33289000Y26013400D01*
X34489000Y26013400D01*
X34489000Y23313400D01*
G37*
G36*
X-31652500Y23700000D02*
G01*
X-32952500Y23700000D01*
X-32952500Y24000000D01*
X-31652500Y24000000D01*
X-31652500Y23700000D01*
G37*
G36*
X-31652500Y24200000D02*
G01*
X-32952500Y24200000D01*
X-32952500Y24500000D01*
X-31652500Y24500000D01*
X-31652500Y24200000D01*
G37*
G36*
X-28850000Y24300000D02*
G01*
X-29650000Y24300000D01*
X-29650000Y25200000D01*
X-28850000Y25200000D01*
X-28850000Y24300000D01*
G37*
G36*
X-27450000Y24300000D02*
G01*
X-28250000Y24300000D01*
X-28250000Y25200000D01*
X-27450000Y25200000D01*
X-27450000Y24300000D01*
G37*
G36*
X-5750000Y24320000D02*
G01*
X-6150000Y24320000D01*
X-6150000Y25120000D01*
X-5750000Y25120000D01*
X-5750000Y24320000D01*
G37*
G36*
X-4900000Y24320000D02*
G01*
X-5300000Y24320000D01*
X-5300000Y25120000D01*
X-4900000Y25120000D01*
X-4900000Y24320000D01*
G37*
G36*
X-4050000Y24320000D02*
G01*
X-4450000Y24320000D01*
X-4450000Y25120000D01*
X-4050000Y25120000D01*
X-4050000Y24320000D01*
G37*
G36*
X-3200000Y24320000D02*
G01*
X-3600000Y24320000D01*
X-3600000Y25120000D01*
X-3200000Y25120000D01*
X-3200000Y24320000D01*
G37*
G36*
X-2350000Y24320000D02*
G01*
X-2750000Y24320000D01*
X-2750000Y25120000D01*
X-2350000Y25120000D01*
X-2350000Y24320000D01*
G37*
G36*
X-1500000Y24320000D02*
G01*
X-1900000Y24320000D01*
X-1900000Y25120000D01*
X-1500000Y25120000D01*
X-1500000Y24320000D01*
G37*
G36*
X-650000Y24320000D02*
G01*
X-1050000Y24320000D01*
X-1050000Y25120000D01*
X-650000Y25120000D01*
X-650000Y24320000D01*
G37*
G36*
X200000Y24320000D02*
G01*
X-200000Y24320000D01*
X-200000Y25120000D01*
X200000Y25120000D01*
X200000Y24320000D01*
G37*
G36*
X1050000Y24320000D02*
G01*
X650000Y24320000D01*
X650000Y25120000D01*
X1050000Y25120000D01*
X1050000Y24320000D01*
G37*
G36*
X1900000Y24320000D02*
G01*
X1500000Y24320000D01*
X1500000Y25120000D01*
X1900000Y25120000D01*
X1900000Y24320000D01*
G37*
G36*
X2750000Y24320000D02*
G01*
X2350000Y24320000D01*
X2350000Y25120000D01*
X2750000Y25120000D01*
X2750000Y24320000D01*
G37*
G36*
X3600000Y24320000D02*
G01*
X3200000Y24320000D01*
X3200000Y25120000D01*
X3600000Y25120000D01*
X3600000Y24320000D01*
G37*
G36*
X4450000Y24320000D02*
G01*
X4050000Y24320000D01*
X4050000Y25120000D01*
X4450000Y25120000D01*
X4450000Y24320000D01*
G37*
G36*
X5300000Y24320000D02*
G01*
X4900000Y24320000D01*
X4900000Y25120000D01*
X5300000Y25120000D01*
X5300000Y24320000D01*
G37*
G36*
X6150000Y24320000D02*
G01*
X5750000Y24320000D01*
X5750000Y25120000D01*
X6150000Y25120000D01*
X6150000Y24320000D01*
G37*
G36*
X-6600000Y24350000D02*
G01*
X-7400000Y24350000D01*
X-7400000Y25150000D01*
X-6600000Y25150000D01*
X-6600000Y24350000D01*
G37*
G36*
X7400000Y24350000D02*
G01*
X6600000Y24350000D01*
X6600000Y25150000D01*
X7400000Y25150000D01*
X7400000Y24350000D01*
G37*
G36*
X-31602500Y24700000D02*
G01*
X-33002500Y24700000D01*
X-33002500Y25300000D01*
X-31602500Y25300000D01*
X-31602500Y24700000D01*
G37*
G36*
X25404800Y25153200D02*
G01*
X24604800Y25153200D01*
X24604800Y26053200D01*
X25404800Y26053200D01*
X25404800Y25153200D01*
G37*
G36*
X26804800Y25153200D02*
G01*
X26004800Y25153200D01*
X26004800Y26053200D01*
X26804800Y26053200D01*
X26804800Y25153200D01*
G37*
G36*
X-33438128Y25800261D02*
G01*
X-33364653Y25757840D01*
X-33304660Y25697847D01*
X-33262239Y25624372D01*
X-33240280Y25542421D01*
X-33240280Y25457579D01*
X-33262239Y25375628D01*
X-33304660Y25302153D01*
X-33364653Y25242160D01*
X-33438128Y25199739D01*
X-33520079Y25177780D01*
X-33604921Y25177780D01*
X-33686872Y25199739D01*
X-33760347Y25242160D01*
X-33820340Y25302153D01*
X-33862761Y25375628D01*
X-33884720Y25457579D01*
X-33884720Y25542421D01*
X-33862761Y25624372D01*
X-33820340Y25697847D01*
X-33760347Y25757840D01*
X-33686872Y25800261D01*
X-33604921Y25822220D01*
X-33520079Y25822220D01*
X-33438128Y25800261D01*
G37*
G36*
X-25400000Y25300000D02*
G01*
X-26650000Y25300000D01*
X-26650000Y27000000D01*
X-25400000Y27000000D01*
X-25400000Y25300000D01*
G37*
G36*
X-21000000Y25300000D02*
G01*
X-22250000Y25300000D01*
X-22250000Y27000000D01*
X-21000000Y27000000D01*
X-21000000Y25300000D01*
G37*
G36*
X-18971464Y26878536D02*
G01*
X-18970418Y26876009D01*
X-18970339Y26875976D01*
X-18965432Y26875000D01*
X-18684568Y26875000D01*
X-18679661Y26875976D01*
X-18679583Y26876009D01*
X-18678536Y26878536D01*
X-18675000Y26880000D01*
X-18175000Y26880000D01*
X-18171464Y26878536D01*
X-18170580Y26876400D01*
X-18167175Y26875722D01*
X-18111405Y26875722D01*
X-18109737Y26875722D01*
X-18108443Y26875552D01*
X-17982364Y26841770D01*
X-17981158Y26841270D01*
X-17922057Y26807148D01*
X-17869568Y26776844D01*
X-17869566Y26776843D01*
X-17868119Y26776007D01*
X-17867083Y26775213D01*
X-17774787Y26682917D01*
X-17773993Y26681881D01*
X-17708730Y26568842D01*
X-17708230Y26567636D01*
X-17674448Y26441557D01*
X-17674278Y26440263D01*
X-17674278Y26438596D01*
X-17674278Y26382826D01*
X-17673601Y26379422D01*
X-17671464Y26378536D01*
X-17670000Y26375000D01*
X-17670000Y25875000D01*
X-17671464Y25871464D01*
X-17673601Y25870580D01*
X-17674278Y25867175D01*
X-17674278Y25809737D01*
X-17674448Y25808443D01*
X-17708230Y25682364D01*
X-17708730Y25681158D01*
X-17773993Y25568119D01*
X-17774787Y25567083D01*
X-17867083Y25474787D01*
X-17868119Y25473993D01*
X-17981158Y25408730D01*
X-17982364Y25408230D01*
X-18108443Y25374448D01*
X-18109737Y25374278D01*
X-18111405Y25374278D01*
X-18167175Y25374278D01*
X-18170580Y25373601D01*
X-18171464Y25371464D01*
X-18175000Y25370000D01*
X-18180053Y25370000D01*
X-18669947Y25370000D01*
X-18675000Y25370000D01*
X-18678536Y25371464D01*
X-18679583Y25373992D01*
X-18679661Y25374024D01*
X-18684568Y25375000D01*
X-18965432Y25375000D01*
X-18970339Y25374024D01*
X-18970418Y25373992D01*
X-18971464Y25371464D01*
X-18975000Y25370000D01*
X-18980053Y25370000D01*
X-19469947Y25370000D01*
X-19475000Y25370000D01*
X-19478536Y25371464D01*
X-19479421Y25373601D01*
X-19482825Y25374278D01*
X-19540263Y25374278D01*
X-19541557Y25374448D01*
X-19667636Y25408230D01*
X-19668842Y25408730D01*
X-19781881Y25473993D01*
X-19782917Y25474787D01*
X-19875213Y25567083D01*
X-19876007Y25568119D01*
X-19894414Y25600000D01*
X-19940437Y25679716D01*
X-19941270Y25681158D01*
X-19941770Y25682364D01*
X-19975552Y25808443D01*
X-19975722Y25809737D01*
X-19975722Y25867175D01*
X-19976400Y25870580D01*
X-19978536Y25871464D01*
X-19980000Y25875000D01*
X-19980000Y26375000D01*
X-19978536Y26378536D01*
X-19976400Y26379422D01*
X-19975722Y26382826D01*
X-19975722Y26438596D01*
X-19975722Y26440263D01*
X-19975552Y26441557D01*
X-19941770Y26567636D01*
X-19941270Y26568842D01*
X-19940437Y26570285D01*
X-19876844Y26680433D01*
X-19876840Y26680439D01*
X-19876007Y26681881D01*
X-19875213Y26682917D01*
X-19782917Y26775213D01*
X-19781881Y26776007D01*
X-19780439Y26776840D01*
X-19780433Y26776844D01*
X-19670285Y26840437D01*
X-19670285Y26840438D01*
X-19668842Y26841270D01*
X-19667636Y26841770D01*
X-19541557Y26875552D01*
X-19540263Y26875722D01*
X-19482825Y26875722D01*
X-19479421Y26876400D01*
X-19478536Y26878536D01*
X-19475000Y26880000D01*
X-18975000Y26880000D01*
X-18971464Y26878536D01*
G37*
G36*
X-31602500Y25500000D02*
G01*
X-33002500Y25500000D01*
X-33002500Y26100000D01*
X-31602500Y26100000D01*
X-31602500Y25500000D01*
G37*
G36*
X-6580000Y25600000D02*
G01*
X-7380000Y25600000D01*
X-7380000Y26000000D01*
X-6580000Y26000000D01*
X-6580000Y25600000D01*
G37*
G36*
X7380000Y25600000D02*
G01*
X6580000Y25600000D01*
X6580000Y26000000D01*
X7380000Y26000000D01*
X7380000Y25600000D01*
G37*
G36*
X20139000Y26259400D02*
G01*
X19009000Y26259400D01*
X19009000Y27639400D01*
X20139000Y27639400D01*
X20139000Y26259400D01*
G37*
G36*
X22139000Y26259400D02*
G01*
X21009000Y26259400D01*
X21009000Y27639400D01*
X22139000Y27639400D01*
X22139000Y26259400D01*
G37*
G36*
X-36940663Y27529880D02*
G01*
X-36884321Y27527113D01*
X-36877377Y27525732D01*
X-36864184Y27524867D01*
X-36838696Y27518038D01*
X-36768367Y27504048D01*
X-36735176Y27490300D01*
X-36712890Y27484328D01*
X-36692909Y27472792D01*
X-36659717Y27459043D01*
X-36600103Y27419210D01*
X-36577243Y27406012D01*
X-36570986Y27399755D01*
X-36561945Y27393714D01*
X-36478787Y27310556D01*
X-36472747Y27301516D01*
X-36466488Y27295257D01*
X-36453288Y27272394D01*
X-36413458Y27212784D01*
X-36399711Y27179596D01*
X-36388172Y27159610D01*
X-36382200Y27137321D01*
X-36368453Y27104134D01*
X-36354466Y27033815D01*
X-36347633Y27008316D01*
X-36347633Y26999467D01*
X-36345511Y26988799D01*
X-36345511Y26871202D01*
X-36347633Y26860535D01*
X-36347633Y26851684D01*
X-36354467Y26826183D01*
X-36368453Y26755867D01*
X-36382199Y26722682D01*
X-36388172Y26700390D01*
X-36399713Y26680402D01*
X-36413458Y26647217D01*
X-36453284Y26587614D01*
X-36466488Y26564743D01*
X-36472749Y26558483D01*
X-36478787Y26549445D01*
X-36561945Y26466287D01*
X-36570983Y26460249D01*
X-36577243Y26453988D01*
X-36600114Y26440784D01*
X-36659717Y26400958D01*
X-36692902Y26387213D01*
X-36712890Y26375672D01*
X-36735182Y26369699D01*
X-36768367Y26355953D01*
X-36838682Y26341967D01*
X-36864184Y26335133D01*
X-36877385Y26334268D01*
X-36884321Y26332888D01*
X-36940661Y26330121D01*
X-36942500Y26330000D01*
X-36943115Y26330000D01*
X-37541885Y26330000D01*
X-37542500Y26330000D01*
X-37544340Y26330121D01*
X-37600680Y26332888D01*
X-37607618Y26334268D01*
X-37620816Y26335133D01*
X-37646317Y26341966D01*
X-37716634Y26355953D01*
X-37749821Y26369700D01*
X-37772110Y26375672D01*
X-37792096Y26387211D01*
X-37825284Y26400958D01*
X-37884894Y26440788D01*
X-37907757Y26453988D01*
X-37914016Y26460247D01*
X-37923056Y26466287D01*
X-38006214Y26549445D01*
X-38012255Y26558486D01*
X-38018512Y26564743D01*
X-38031710Y26587603D01*
X-38071543Y26647217D01*
X-38085292Y26680409D01*
X-38096828Y26700390D01*
X-38102800Y26722676D01*
X-38116548Y26755867D01*
X-38130536Y26826188D01*
X-38137367Y26851684D01*
X-38137367Y26860534D01*
X-38139489Y26871202D01*
X-38139489Y26988799D01*
X-38137367Y26999468D01*
X-38137367Y27008316D01*
X-38130537Y27033810D01*
X-38116548Y27104134D01*
X-38102799Y27137328D01*
X-38096828Y27159610D01*
X-38085293Y27179590D01*
X-38071543Y27212784D01*
X-38031706Y27272405D01*
X-38018512Y27295257D01*
X-38012257Y27301513D01*
X-38006214Y27310556D01*
X-37923056Y27393714D01*
X-37914013Y27399757D01*
X-37907757Y27406012D01*
X-37884905Y27419206D01*
X-37825284Y27459043D01*
X-37792090Y27472793D01*
X-37772110Y27484328D01*
X-37749828Y27490299D01*
X-37716634Y27504048D01*
X-37646302Y27518039D01*
X-37620816Y27524867D01*
X-37607625Y27525732D01*
X-37600680Y27527113D01*
X-37544337Y27529880D01*
X-37542500Y27530000D01*
X-36942500Y27530000D01*
X-36940663Y27529880D01*
G37*
G36*
X-32660663Y27529880D02*
G01*
X-32604321Y27527113D01*
X-32597377Y27525732D01*
X-32584184Y27524867D01*
X-32558696Y27518038D01*
X-32488367Y27504048D01*
X-32455176Y27490300D01*
X-32432890Y27484328D01*
X-32412909Y27472792D01*
X-32379717Y27459043D01*
X-32320103Y27419210D01*
X-32297243Y27406012D01*
X-32290986Y27399755D01*
X-32281945Y27393714D01*
X-32198787Y27310556D01*
X-32192747Y27301516D01*
X-32186488Y27295257D01*
X-32173288Y27272394D01*
X-32133458Y27212784D01*
X-32119711Y27179596D01*
X-32108172Y27159610D01*
X-32102200Y27137321D01*
X-32088453Y27104134D01*
X-32074466Y27033815D01*
X-32067633Y27008316D01*
X-32067633Y26999467D01*
X-32065511Y26988799D01*
X-32065511Y26871202D01*
X-32067633Y26860535D01*
X-32067633Y26851684D01*
X-32074467Y26826183D01*
X-32088453Y26755867D01*
X-32102199Y26722682D01*
X-32108172Y26700390D01*
X-32119713Y26680402D01*
X-32133458Y26647217D01*
X-32173284Y26587614D01*
X-32186488Y26564743D01*
X-32192749Y26558483D01*
X-32198787Y26549445D01*
X-32281945Y26466287D01*
X-32290983Y26460249D01*
X-32297243Y26453988D01*
X-32320114Y26440784D01*
X-32379717Y26400958D01*
X-32412902Y26387213D01*
X-32432890Y26375672D01*
X-32455182Y26369699D01*
X-32488367Y26355953D01*
X-32558682Y26341967D01*
X-32584184Y26335133D01*
X-32597385Y26334268D01*
X-32604321Y26332888D01*
X-32660661Y26330121D01*
X-32662500Y26330000D01*
X-32663115Y26330000D01*
X-33461885Y26330000D01*
X-33462500Y26330000D01*
X-33464340Y26330121D01*
X-33520680Y26332888D01*
X-33527618Y26334268D01*
X-33540816Y26335133D01*
X-33566317Y26341966D01*
X-33636634Y26355953D01*
X-33669821Y26369700D01*
X-33692110Y26375672D01*
X-33712096Y26387211D01*
X-33745284Y26400958D01*
X-33804894Y26440788D01*
X-33827757Y26453988D01*
X-33834016Y26460247D01*
X-33843056Y26466287D01*
X-33926214Y26549445D01*
X-33932255Y26558486D01*
X-33938512Y26564743D01*
X-33951710Y26587603D01*
X-33991543Y26647217D01*
X-34005292Y26680409D01*
X-34016828Y26700390D01*
X-34022800Y26722676D01*
X-34036548Y26755867D01*
X-34050536Y26826188D01*
X-34057367Y26851684D01*
X-34057367Y26860534D01*
X-34059489Y26871202D01*
X-34059489Y26988799D01*
X-34057367Y26999468D01*
X-34057367Y27008316D01*
X-34050537Y27033810D01*
X-34036548Y27104134D01*
X-34022799Y27137328D01*
X-34016828Y27159610D01*
X-34005293Y27179590D01*
X-33991543Y27212784D01*
X-33951706Y27272405D01*
X-33938512Y27295257D01*
X-33932257Y27301513D01*
X-33926214Y27310556D01*
X-33843056Y27393714D01*
X-33834013Y27399757D01*
X-33827757Y27406012D01*
X-33804905Y27419206D01*
X-33745284Y27459043D01*
X-33712090Y27472793D01*
X-33692110Y27484328D01*
X-33669828Y27490299D01*
X-33636634Y27504048D01*
X-33566302Y27518039D01*
X-33540816Y27524867D01*
X-33527625Y27525732D01*
X-33520680Y27527113D01*
X-33464337Y27529880D01*
X-33462500Y27530000D01*
X-32662500Y27530000D01*
X-32660663Y27529880D01*
G37*
G36*
X-6580000Y26450000D02*
G01*
X-7380000Y26450000D01*
X-7380000Y26850000D01*
X-6580000Y26850000D01*
X-6580000Y26450000D01*
G37*
G36*
X7380000Y26450000D02*
G01*
X6580000Y26450000D01*
X6580000Y26850000D01*
X7380000Y26850000D01*
X7380000Y26450000D01*
G37*
G36*
X36626336Y29220536D02*
G01*
X36627220Y29218400D01*
X36630625Y29217722D01*
X36686395Y29217722D01*
X36688063Y29217722D01*
X36689357Y29217552D01*
X36815436Y29183770D01*
X36816642Y29183270D01*
X36875743Y29149148D01*
X36928232Y29118844D01*
X36928234Y29118843D01*
X36929681Y29118007D01*
X36930717Y29117213D01*
X37023013Y29024917D01*
X37023807Y29023881D01*
X37089070Y28910842D01*
X37089570Y28909636D01*
X37123352Y28783557D01*
X37123522Y28782263D01*
X37123522Y28780596D01*
X37123522Y28724826D01*
X37124199Y28721422D01*
X37126336Y28720536D01*
X37127800Y28717000D01*
X37127800Y28217000D01*
X37126336Y28213464D01*
X37123808Y28212418D01*
X37123776Y28212339D01*
X37122800Y28207432D01*
X37122800Y27926569D01*
X37123776Y27921662D01*
X37123809Y27921583D01*
X37126336Y27920536D01*
X37127800Y27917000D01*
X37127800Y27417000D01*
X37126336Y27413464D01*
X37124199Y27412580D01*
X37123522Y27409175D01*
X37123522Y27351737D01*
X37123352Y27350443D01*
X37089570Y27224364D01*
X37089070Y27223158D01*
X37023807Y27110119D01*
X37023013Y27109083D01*
X36930717Y27016787D01*
X36929681Y27015993D01*
X36816642Y26950730D01*
X36815436Y26950230D01*
X36689357Y26916448D01*
X36688063Y26916278D01*
X36686395Y26916278D01*
X36630625Y26916278D01*
X36627220Y26915601D01*
X36626336Y26913464D01*
X36622800Y26912000D01*
X36617747Y26912000D01*
X36127853Y26912000D01*
X36122800Y26912000D01*
X36119264Y26913464D01*
X36118379Y26915601D01*
X36114975Y26916278D01*
X36057537Y26916278D01*
X36056243Y26916448D01*
X35930164Y26950230D01*
X35928958Y26950730D01*
X35815919Y27015993D01*
X35814883Y27016787D01*
X35722587Y27109083D01*
X35721793Y27110119D01*
X35656530Y27223158D01*
X35656030Y27224364D01*
X35622248Y27350443D01*
X35622078Y27351737D01*
X35622078Y27409175D01*
X35621400Y27412580D01*
X35619264Y27413464D01*
X35617800Y27417000D01*
X35617800Y27917000D01*
X35619264Y27920536D01*
X35621790Y27921583D01*
X35621824Y27921662D01*
X35622800Y27926569D01*
X35622800Y28207432D01*
X35621824Y28212339D01*
X35621791Y28212418D01*
X35619264Y28213464D01*
X35617800Y28217000D01*
X35617800Y28717000D01*
X35619264Y28720536D01*
X35621400Y28721422D01*
X35622078Y28724826D01*
X35622078Y28780596D01*
X35622078Y28782263D01*
X35622248Y28783557D01*
X35656030Y28909636D01*
X35656530Y28910842D01*
X35657363Y28912285D01*
X35720956Y29022433D01*
X35720960Y29022439D01*
X35721793Y29023881D01*
X35722587Y29024917D01*
X35814883Y29117213D01*
X35815919Y29118007D01*
X35817361Y29118840D01*
X35817367Y29118844D01*
X35927515Y29182437D01*
X35927515Y29182438D01*
X35928958Y29183270D01*
X35930164Y29183770D01*
X36056243Y29217552D01*
X36057537Y29217722D01*
X36114975Y29217722D01*
X36118379Y29218400D01*
X36119264Y29220536D01*
X36122800Y29222000D01*
X36622800Y29222000D01*
X36626336Y29220536D01*
G37*
G36*
X-27850000Y26925000D02*
G01*
X-28750000Y26925000D01*
X-28750000Y27725000D01*
X-27850000Y27725000D01*
X-27850000Y26925000D01*
G37*
G36*
X-29750000Y27300000D02*
G01*
X-30750000Y27300000D01*
X-30750000Y28000000D01*
X-29750000Y28000000D01*
X-29750000Y27300000D01*
G37*
G36*
X-6580000Y27300000D02*
G01*
X-7380000Y27300000D01*
X-7380000Y27700000D01*
X-6580000Y27700000D01*
X-6580000Y27300000D01*
G37*
G36*
X7380000Y27300000D02*
G01*
X6580000Y27300000D01*
X6580000Y27700000D01*
X7380000Y27700000D01*
X7380000Y27300000D01*
G37*
G36*
X32107000Y27478600D02*
G01*
X30977000Y27478600D01*
X30977000Y28858600D01*
X32107000Y28858600D01*
X32107000Y27478600D01*
G37*
G36*
X34047000Y27478600D02*
G01*
X32917000Y27478600D01*
X32917000Y28858600D01*
X34047000Y28858600D01*
X34047000Y27478600D01*
G37*
G36*
X24785000Y28020400D02*
G01*
X23715000Y28020400D01*
X23715000Y28550400D01*
X24785000Y28550400D01*
X24785000Y28020400D01*
G37*
G36*
X27085000Y28020400D02*
G01*
X26015000Y28020400D01*
X26015000Y28550400D01*
X27085000Y28550400D01*
X27085000Y28020400D01*
G37*
G36*
X-6580000Y28150000D02*
G01*
X-7380000Y28150000D01*
X-7380000Y28550000D01*
X-6580000Y28550000D01*
X-6580000Y28150000D01*
G37*
G36*
X7380000Y28150000D02*
G01*
X6580000Y28150000D01*
X6580000Y28550000D01*
X7380000Y28550000D01*
X7380000Y28150000D01*
G37*
G36*
X-27850000Y28325000D02*
G01*
X-28750000Y28325000D01*
X-28750000Y29125000D01*
X-27850000Y29125000D01*
X-27850000Y28325000D01*
G37*
G36*
X-29750000Y28500000D02*
G01*
X-30750000Y28500000D01*
X-30750000Y29200000D01*
X-29750000Y29200000D01*
X-29750000Y28500000D01*
G37*
G36*
X20113600Y28672400D02*
G01*
X18983600Y28672400D01*
X18983600Y30052400D01*
X20113600Y30052400D01*
X20113600Y28672400D01*
G37*
G36*
X22113600Y28672400D02*
G01*
X20983600Y28672400D01*
X20983600Y30052400D01*
X22113600Y30052400D01*
X22113600Y28672400D01*
G37*
G36*
X24785000Y28970400D02*
G01*
X23715000Y28970400D01*
X23715000Y29500400D01*
X24785000Y29500400D01*
X24785000Y28970400D01*
G37*
G36*
X27085000Y28970400D02*
G01*
X26015000Y28970400D01*
X26015000Y29500400D01*
X27085000Y29500400D01*
X27085000Y28970400D01*
G37*
G36*
X-6580000Y29000000D02*
G01*
X-7380000Y29000000D01*
X-7380000Y29400000D01*
X-6580000Y29400000D01*
X-6580000Y29000000D01*
G37*
G36*
X7380000Y29000000D02*
G01*
X6580000Y29000000D01*
X6580000Y29400000D01*
X7380000Y29400000D01*
X7380000Y29000000D01*
G37*
G36*
X-1050000Y29500000D02*
G01*
X-2250000Y29500000D01*
X-2250000Y30700000D01*
X-1050000Y30700000D01*
X-1050000Y29500000D01*
G37*
G36*
X600000Y29500000D02*
G01*
X-600000Y29500000D01*
X-600000Y30700000D01*
X600000Y30700000D01*
X600000Y29500000D01*
G37*
G36*
X2250000Y29500000D02*
G01*
X1050000Y29500000D01*
X1050000Y30700000D01*
X2250000Y30700000D01*
X2250000Y29500000D01*
G37*
G36*
X-6580000Y29850000D02*
G01*
X-7380000Y29850000D01*
X-7380000Y30250000D01*
X-6580000Y30250000D01*
X-6580000Y29850000D01*
G37*
G36*
X7380000Y29850000D02*
G01*
X6580000Y29850000D01*
X6580000Y30250000D01*
X7380000Y30250000D01*
X7380000Y29850000D01*
G37*
G36*
X24785000Y29920400D02*
G01*
X23715000Y29920400D01*
X23715000Y30450400D01*
X24785000Y30450400D01*
X24785000Y29920400D01*
G37*
G36*
X27085000Y29920400D02*
G01*
X26015000Y29920400D01*
X26015000Y30450400D01*
X27085000Y30450400D01*
X27085000Y29920400D01*
G37*
G36*
X13370200Y30617800D02*
G01*
X11960200Y30617800D01*
X11960200Y31967800D01*
X13370200Y31967800D01*
X13370200Y30617800D01*
G37*
G36*
X15370200Y30617800D02*
G01*
X13960200Y30617800D01*
X13960200Y31967800D01*
X15370200Y31967800D01*
X15370200Y30617800D01*
G37*
G36*
X-6580000Y30700000D02*
G01*
X-7380000Y30700000D01*
X-7380000Y31100000D01*
X-6580000Y31100000D01*
X-6580000Y30700000D01*
G37*
G36*
X7380000Y30700000D02*
G01*
X6580000Y30700000D01*
X6580000Y31100000D01*
X7380000Y31100000D01*
X7380000Y30700000D01*
G37*
G36*
X-1050000Y31150000D02*
G01*
X-2250000Y31150000D01*
X-2250000Y32350000D01*
X-1050000Y32350000D01*
X-1050000Y31150000D01*
G37*
G36*
X600000Y31150000D02*
G01*
X-600000Y31150000D01*
X-600000Y32350000D01*
X600000Y32350000D01*
X600000Y31150000D01*
G37*
G36*
X2250000Y31150000D02*
G01*
X1050000Y31150000D01*
X1050000Y32350000D01*
X2250000Y32350000D01*
X2250000Y31150000D01*
G37*
G36*
X20062800Y31237800D02*
G01*
X18932800Y31237800D01*
X18932800Y32617800D01*
X20062800Y32617800D01*
X20062800Y31237800D01*
G37*
G36*
X22062800Y31237800D02*
G01*
X20932800Y31237800D01*
X20932800Y32617800D01*
X22062800Y32617800D01*
X22062800Y31237800D01*
G37*
G36*
X-34013980Y37704787D02*
G01*
X-33664126Y37624935D01*
X-33325413Y37506415D01*
X-33002100Y37350715D01*
X-32698252Y37159795D01*
X-32417691Y36936055D01*
X-32163945Y36682309D01*
X-31940205Y36401748D01*
X-31749285Y36097900D01*
X-31593585Y35774587D01*
X-31475065Y35435874D01*
X-31395213Y35086020D01*
X-31355034Y34729425D01*
X-31355034Y34370575D01*
X-31395213Y34013980D01*
X-31475065Y33664126D01*
X-31593585Y33325413D01*
X-31749285Y33002100D01*
X-31940205Y32698252D01*
X-32163945Y32417691D01*
X-32417691Y32163945D01*
X-32698252Y31940205D01*
X-33002100Y31749285D01*
X-33325413Y31593585D01*
X-33664126Y31475065D01*
X-34013980Y31395213D01*
X-34370575Y31355034D01*
X-34729425Y31355034D01*
X-35086020Y31395213D01*
X-35435874Y31475065D01*
X-35774587Y31593585D01*
X-36097900Y31749285D01*
X-36401748Y31940205D01*
X-36682309Y32163945D01*
X-36936055Y32417691D01*
X-37159795Y32698252D01*
X-37350715Y33002100D01*
X-37506415Y33325413D01*
X-37624935Y33664126D01*
X-37704787Y34013980D01*
X-37744966Y34370575D01*
X-37744966Y34729425D01*
X-37704787Y35086020D01*
X-37624935Y35435874D01*
X-37506415Y35774587D01*
X-37350715Y36097900D01*
X-37159795Y36401748D01*
X-36936055Y36682309D01*
X-36682309Y36936055D01*
X-36401748Y37159795D01*
X-36097900Y37350715D01*
X-35774587Y37506415D01*
X-35435874Y37624935D01*
X-35086020Y37704787D01*
X-34729425Y37744966D01*
X-34370575Y37744966D01*
X-34013980Y37704787D01*
G37*
G36*
X35086020Y37704787D02*
G01*
X35435874Y37624935D01*
X35774587Y37506415D01*
X36097900Y37350715D01*
X36401748Y37159795D01*
X36682309Y36936055D01*
X36936055Y36682309D01*
X37159795Y36401748D01*
X37350715Y36097900D01*
X37506415Y35774587D01*
X37624935Y35435874D01*
X37704787Y35086020D01*
X37744966Y34729425D01*
X37744966Y34370575D01*
X37704787Y34013980D01*
X37624935Y33664126D01*
X37506415Y33325413D01*
X37350715Y33002100D01*
X37159795Y32698252D01*
X36936055Y32417691D01*
X36682309Y32163945D01*
X36401748Y31940205D01*
X36097900Y31749285D01*
X35774587Y31593585D01*
X35435874Y31475065D01*
X35086020Y31395213D01*
X34729425Y31355034D01*
X34370575Y31355034D01*
X34013980Y31395213D01*
X33664126Y31475065D01*
X33325413Y31593585D01*
X33002100Y31749285D01*
X32698252Y31940205D01*
X32417691Y32163945D01*
X32163945Y32417691D01*
X31940205Y32698252D01*
X31749285Y33002100D01*
X31593585Y33325413D01*
X31475065Y33664126D01*
X31395213Y34013980D01*
X31355034Y34370575D01*
X31355034Y34729425D01*
X31395213Y35086020D01*
X31475065Y35435874D01*
X31593585Y35774587D01*
X31749285Y36097900D01*
X31940205Y36401748D01*
X32163945Y36682309D01*
X32417691Y36936055D01*
X32698252Y37159795D01*
X33002100Y37350715D01*
X33325413Y37506415D01*
X33664126Y37624935D01*
X34013980Y37704787D01*
X34370575Y37744966D01*
X34729425Y37744966D01*
X35086020Y37704787D01*
G37*
G36*
X-6580000Y31550000D02*
G01*
X-7380000Y31550000D01*
X-7380000Y31950000D01*
X-6580000Y31950000D01*
X-6580000Y31550000D01*
G37*
G36*
X7380000Y31550000D02*
G01*
X6580000Y31550000D01*
X6580000Y31950000D01*
X7380000Y31950000D01*
X7380000Y31550000D01*
G37*
G36*
X-18469264Y33240136D02*
G01*
X-18468218Y33237609D01*
X-18468139Y33237576D01*
X-18463232Y33236600D01*
X-18182368Y33236600D01*
X-18177461Y33237576D01*
X-18177383Y33237609D01*
X-18176336Y33240136D01*
X-18172800Y33241600D01*
X-17672800Y33241600D01*
X-17669264Y33240136D01*
X-17668380Y33238000D01*
X-17664975Y33237322D01*
X-17609205Y33237322D01*
X-17607537Y33237322D01*
X-17606243Y33237152D01*
X-17480164Y33203370D01*
X-17478958Y33202870D01*
X-17422519Y33170285D01*
X-17367368Y33138444D01*
X-17367366Y33138443D01*
X-17365919Y33137607D01*
X-17364883Y33136813D01*
X-17272587Y33044517D01*
X-17271793Y33043481D01*
X-17206530Y32930442D01*
X-17206030Y32929236D01*
X-17172248Y32803157D01*
X-17172078Y32801863D01*
X-17172078Y32800196D01*
X-17172078Y32744426D01*
X-17171401Y32741022D01*
X-17169264Y32740136D01*
X-17167800Y32736600D01*
X-17167800Y32236600D01*
X-17169264Y32233064D01*
X-17171401Y32232180D01*
X-17172078Y32228775D01*
X-17172078Y32171337D01*
X-17172248Y32170043D01*
X-17206030Y32043964D01*
X-17206530Y32042758D01*
X-17271793Y31929719D01*
X-17272587Y31928683D01*
X-17364883Y31836387D01*
X-17365919Y31835593D01*
X-17478958Y31770330D01*
X-17480164Y31769830D01*
X-17606243Y31736048D01*
X-17607537Y31735878D01*
X-17609205Y31735878D01*
X-17664975Y31735878D01*
X-17668380Y31735201D01*
X-17669264Y31733064D01*
X-17672800Y31731600D01*
X-17677853Y31731600D01*
X-18167747Y31731600D01*
X-18172800Y31731600D01*
X-18176336Y31733064D01*
X-18177383Y31735592D01*
X-18177461Y31735624D01*
X-18182368Y31736600D01*
X-18463232Y31736600D01*
X-18468139Y31735624D01*
X-18468218Y31735592D01*
X-18469264Y31733064D01*
X-18472800Y31731600D01*
X-18477853Y31731600D01*
X-18967747Y31731600D01*
X-18972800Y31731600D01*
X-18976336Y31733064D01*
X-18977221Y31735201D01*
X-18980625Y31735878D01*
X-19038063Y31735878D01*
X-19039357Y31736048D01*
X-19165436Y31769830D01*
X-19166642Y31770330D01*
X-19279681Y31835593D01*
X-19280717Y31836387D01*
X-19373013Y31928683D01*
X-19373807Y31929719D01*
X-19384073Y31947499D01*
X-19438237Y32041316D01*
X-19439070Y32042758D01*
X-19439570Y32043964D01*
X-19473352Y32170043D01*
X-19473522Y32171337D01*
X-19473522Y32228775D01*
X-19474200Y32232180D01*
X-19476336Y32233064D01*
X-19477800Y32236600D01*
X-19477800Y32736600D01*
X-19476336Y32740136D01*
X-19474200Y32741022D01*
X-19473522Y32744426D01*
X-19473522Y32800196D01*
X-19473522Y32801863D01*
X-19473352Y32803157D01*
X-19439570Y32929236D01*
X-19439070Y32930442D01*
X-19438237Y32931885D01*
X-19374644Y33042033D01*
X-19374640Y33042039D01*
X-19373807Y33043481D01*
X-19373013Y33044517D01*
X-19280717Y33136813D01*
X-19279681Y33137607D01*
X-19278239Y33138440D01*
X-19278233Y33138444D01*
X-19168085Y33202037D01*
X-19168085Y33202038D01*
X-19166642Y33202870D01*
X-19165436Y33203370D01*
X-19039357Y33237152D01*
X-19038063Y33237322D01*
X-18980625Y33237322D01*
X-18977221Y33238000D01*
X-18976336Y33240136D01*
X-18972800Y33241600D01*
X-18472800Y33241600D01*
X-18469264Y33240136D01*
G37*
G36*
X-23253600Y31847400D02*
G01*
X-24383600Y31847400D01*
X-24383600Y33227400D01*
X-23253600Y33227400D01*
X-23253600Y31847400D01*
G37*
G36*
X-21253600Y31847400D02*
G01*
X-22383600Y31847400D01*
X-22383600Y33227400D01*
X-21253600Y33227400D01*
X-21253600Y31847400D01*
G37*
G36*
X-6580000Y32400000D02*
G01*
X-7380000Y32400000D01*
X-7380000Y32800000D01*
X-6580000Y32800000D01*
X-6580000Y32400000D01*
G37*
G36*
X7380000Y32400000D02*
G01*
X6580000Y32400000D01*
X6580000Y32800000D01*
X7380000Y32800000D01*
X7380000Y32400000D01*
G37*
G36*
X-1050000Y32800000D02*
G01*
X-2250000Y32800000D01*
X-2250000Y34000000D01*
X-1050000Y34000000D01*
X-1050000Y32800000D01*
G37*
G36*
X600000Y32800000D02*
G01*
X-600000Y32800000D01*
X-600000Y34000000D01*
X600000Y34000000D01*
X600000Y32800000D01*
G37*
G36*
X2250000Y32800000D02*
G01*
X1050000Y32800000D01*
X1050000Y34000000D01*
X2250000Y34000000D01*
X2250000Y32800000D01*
G37*
G36*
X12812200Y32844000D02*
G01*
X12002200Y32844000D01*
X12002200Y33704000D01*
X12812200Y33704000D01*
X12812200Y32844000D01*
G37*
G36*
X14312200Y32844000D02*
G01*
X13502200Y32844000D01*
X13502200Y33704000D01*
X14312200Y33704000D01*
X14312200Y32844000D01*
G37*
G36*
X-6580000Y33250000D02*
G01*
X-7380000Y33250000D01*
X-7380000Y33650000D01*
X-6580000Y33650000D01*
X-6580000Y33250000D01*
G37*
G36*
X7380000Y33250000D02*
G01*
X6580000Y33250000D01*
X6580000Y33650000D01*
X7380000Y33650000D01*
X7380000Y33250000D01*
G37*
G36*
X29385000Y33825000D02*
G01*
X27655000Y33825000D01*
X27655000Y35315000D01*
X29385000Y35315000D01*
X29385000Y33825000D01*
G37*
G36*
X25951600Y33899200D02*
G01*
X25051600Y33899200D01*
X25051600Y34699200D01*
X25951600Y34699200D01*
X25951600Y33899200D01*
G37*
G36*
X-6580000Y34100000D02*
G01*
X-7380000Y34100000D01*
X-7380000Y34500000D01*
X-6580000Y34500000D01*
X-6580000Y34100000D01*
G37*
G36*
X7380000Y34100000D02*
G01*
X6580000Y34100000D01*
X6580000Y34500000D01*
X7380000Y34500000D01*
X7380000Y34100000D01*
G37*
G36*
X12831800Y34729000D02*
G01*
X12031800Y34729000D01*
X12031800Y35629000D01*
X12831800Y35629000D01*
X12831800Y34729000D01*
G37*
G36*
X14231800Y34729000D02*
G01*
X13431800Y34729000D01*
X13431800Y35629000D01*
X14231800Y35629000D01*
X14231800Y34729000D01*
G37*
G36*
X16876200Y34876000D02*
G01*
X16066200Y34876000D01*
X16066200Y35736000D01*
X16876200Y35736000D01*
X16876200Y34876000D01*
G37*
G36*
X18376200Y34876000D02*
G01*
X17566200Y34876000D01*
X17566200Y35736000D01*
X18376200Y35736000D01*
X18376200Y34876000D01*
G37*
G36*
X-6580000Y34950000D02*
G01*
X-7380000Y34950000D01*
X-7380000Y35350000D01*
X-6580000Y35350000D01*
X-6580000Y34950000D01*
G37*
G36*
X7380000Y34950000D02*
G01*
X6580000Y34950000D01*
X6580000Y35350000D01*
X7380000Y35350000D01*
X7380000Y34950000D01*
G37*
G36*
X-23150000Y35040000D02*
G01*
X-24550000Y35040000D01*
X-24550000Y36040000D01*
X-23150000Y36040000D01*
X-23150000Y35040000D01*
G37*
G36*
X25951600Y35299200D02*
G01*
X25051600Y35299200D01*
X25051600Y36099200D01*
X25951600Y36099200D01*
X25951600Y35299200D01*
G37*
G36*
X-12309200Y35799400D02*
G01*
X-13719200Y35799400D01*
X-13719200Y37149400D01*
X-12309200Y37149400D01*
X-12309200Y35799400D01*
G37*
G36*
X-10309200Y35799400D02*
G01*
X-11719200Y35799400D01*
X-11719200Y37149400D01*
X-10309200Y37149400D01*
X-10309200Y35799400D01*
G37*
G36*
X-6580000Y35800000D02*
G01*
X-7380000Y35800000D01*
X-7380000Y36200000D01*
X-6580000Y36200000D01*
X-6580000Y35800000D01*
G37*
G36*
X7380000Y35800000D02*
G01*
X6580000Y35800000D01*
X6580000Y36200000D01*
X7380000Y36200000D01*
X7380000Y35800000D01*
G37*
G36*
X20897800Y36137200D02*
G01*
X20097800Y36137200D01*
X20097800Y36937200D01*
X20897800Y36937200D01*
X20897800Y36137200D01*
G37*
G36*
X-6580000Y36650000D02*
G01*
X-7380000Y36650000D01*
X-7380000Y37050000D01*
X-6580000Y37050000D01*
X-6580000Y36650000D01*
G37*
G36*
X7380000Y36650000D02*
G01*
X6580000Y36650000D01*
X6580000Y37050000D01*
X7380000Y37050000D01*
X7380000Y36650000D01*
G37*
G36*
X-19802200Y36662000D02*
G01*
X-21032200Y36662000D01*
X-21032200Y38522000D01*
X-19802200Y38522000D01*
X-19802200Y36662000D01*
G37*
G36*
X-15442200Y36662000D02*
G01*
X-16672200Y36662000D01*
X-16672200Y38522000D01*
X-15442200Y38522000D01*
X-15442200Y36662000D01*
G37*
G36*
X29385000Y37005000D02*
G01*
X27655000Y37005000D01*
X27655000Y38495000D01*
X29385000Y38495000D01*
X29385000Y37005000D01*
G37*
G36*
X12303400Y37119200D02*
G01*
X11073400Y37119200D01*
X11073400Y38979200D01*
X12303400Y38979200D01*
X12303400Y37119200D01*
G37*
G36*
X16663400Y37119200D02*
G01*
X15433400Y37119200D01*
X15433400Y38979200D01*
X16663400Y38979200D01*
X16663400Y37119200D01*
G37*
G36*
X-23150000Y37140000D02*
G01*
X-24550000Y37140000D01*
X-24550000Y38140000D01*
X-23150000Y38140000D01*
X-23150000Y37140000D01*
G37*
G36*
X-6580000Y37500000D02*
G01*
X-7380000Y37500000D01*
X-7380000Y37900000D01*
X-6580000Y37900000D01*
X-6580000Y37500000D01*
G37*
G36*
X7380000Y37500000D02*
G01*
X6580000Y37500000D01*
X6580000Y37900000D01*
X7380000Y37900000D01*
X7380000Y37500000D01*
G37*
G36*
X20897800Y37637200D02*
G01*
X20097800Y37637200D01*
X20097800Y38437200D01*
X20897800Y38437200D01*
X20897800Y37637200D01*
G37*
G36*
X-12339600Y38335800D02*
G01*
X-13139600Y38335800D01*
X-13139600Y39235800D01*
X-12339600Y39235800D01*
X-12339600Y38335800D01*
G37*
G36*
X-10939600Y38335800D02*
G01*
X-11739600Y38335800D01*
X-11739600Y39235800D01*
X-10939600Y39235800D01*
X-10939600Y38335800D01*
G37*
G36*
X-6600000Y38350000D02*
G01*
X-7400000Y38350000D01*
X-7400000Y39150000D01*
X-6600000Y39150000D01*
X-6600000Y38350000D01*
G37*
G36*
X7400000Y38350000D02*
G01*
X6600000Y38350000D01*
X6600000Y39150000D01*
X7400000Y39150000D01*
X7400000Y38350000D01*
G37*
G36*
X-5750000Y38380000D02*
G01*
X-6150000Y38380000D01*
X-6150000Y39180000D01*
X-5750000Y39180000D01*
X-5750000Y38380000D01*
G37*
G36*
X-4900000Y38380000D02*
G01*
X-5300000Y38380000D01*
X-5300000Y39180000D01*
X-4900000Y39180000D01*
X-4900000Y38380000D01*
G37*
G36*
X-4050000Y38380000D02*
G01*
X-4450000Y38380000D01*
X-4450000Y39180000D01*
X-4050000Y39180000D01*
X-4050000Y38380000D01*
G37*
G36*
X-3200000Y38380000D02*
G01*
X-3600000Y38380000D01*
X-3600000Y39180000D01*
X-3200000Y39180000D01*
X-3200000Y38380000D01*
G37*
G36*
X-2350000Y38380000D02*
G01*
X-2750000Y38380000D01*
X-2750000Y39180000D01*
X-2350000Y39180000D01*
X-2350000Y38380000D01*
G37*
G36*
X-1500000Y38380000D02*
G01*
X-1900000Y38380000D01*
X-1900000Y39180000D01*
X-1500000Y39180000D01*
X-1500000Y38380000D01*
G37*
G36*
X-650000Y38380000D02*
G01*
X-1050000Y38380000D01*
X-1050000Y39180000D01*
X-650000Y39180000D01*
X-650000Y38380000D01*
G37*
G36*
X200000Y38380000D02*
G01*
X-200000Y38380000D01*
X-200000Y39180000D01*
X200000Y39180000D01*
X200000Y38380000D01*
G37*
G36*
X1050000Y38380000D02*
G01*
X650000Y38380000D01*
X650000Y39180000D01*
X1050000Y39180000D01*
X1050000Y38380000D01*
G37*
G36*
X1900000Y38380000D02*
G01*
X1500000Y38380000D01*
X1500000Y39180000D01*
X1900000Y39180000D01*
X1900000Y38380000D01*
G37*
G36*
X2750000Y38380000D02*
G01*
X2350000Y38380000D01*
X2350000Y39180000D01*
X2750000Y39180000D01*
X2750000Y38380000D01*
G37*
G36*
X3600000Y38380000D02*
G01*
X3200000Y38380000D01*
X3200000Y39180000D01*
X3600000Y39180000D01*
X3600000Y38380000D01*
G37*
G36*
X4450000Y38380000D02*
G01*
X4050000Y38380000D01*
X4050000Y39180000D01*
X4450000Y39180000D01*
X4450000Y38380000D01*
G37*
G36*
X5300000Y38380000D02*
G01*
X4900000Y38380000D01*
X4900000Y39180000D01*
X5300000Y39180000D01*
X5300000Y38380000D01*
G37*
G36*
X6150000Y38380000D02*
G01*
X5750000Y38380000D01*
X5750000Y39180000D01*
X6150000Y39180000D01*
X6150000Y38380000D01*
G37*
M02*
