%TF.GenerationSoftware,KiCad,Pcbnew,9.0.7*%
%TF.CreationDate,2026-05-08T10:50:19+02:00*%
%TF.ProjectId,MiniMotorkontrollerV1,4d696e69-4d6f-4746-9f72-6b6f6e74726f,rev?*%
%TF.SameCoordinates,Original*%
%TF.FileFunction,Copper,L6,Bot*%
%TF.FilePolarity,Positive*%
%FSLAX46Y46*%
G04 Gerber Fmt 4.6, Leading zero omitted, Abs format (unit mm)*
G04 Created by KiCad (PCBNEW 9.0.7) date 2026-05-08 10:50:19*
%MOMM*%
%LPD*%
G01*
G04 APERTURE LIST*
%TA.AperFunction,ComponentPad*%
%ADD10C,2.000000*%
%TD*%
%TA.AperFunction,ComponentPad*%
%ADD11O,2.000000X1.200000*%
%TD*%
%TA.AperFunction,ComponentPad*%
%ADD12O,1.800000X1.200000*%
%TD*%
%TA.AperFunction,ComponentPad*%
%ADD13C,0.800000*%
%TD*%
%TA.AperFunction,ComponentPad*%
%ADD14C,6.400000*%
%TD*%
%TA.AperFunction,SMDPad,CuDef*%
%ADD15O,0.600000X1.890000*%
%TD*%
%TA.AperFunction,ViaPad*%
%ADD16C,0.600000*%
%TD*%
%TA.AperFunction,ViaPad*%
%ADD17C,1.200000*%
%TD*%
%TA.AperFunction,Conductor*%
%ADD18C,0.500000*%
%TD*%
%TA.AperFunction,Conductor*%
%ADD19C,0.300000*%
%TD*%
%TA.AperFunction,Conductor*%
%ADD20C,1.000000*%
%TD*%
%TA.AperFunction,Conductor*%
%ADD21C,0.200000*%
%TD*%
G04 APERTURE END LIST*
D10*
%TO.P,J2,1,A*%
%TO.N,Net-(J2-A)*%
X176600000Y-104140000D03*
%TO.P,J2,2,B*%
%TO.N,Net-(J2-B)*%
X176600000Y-101600000D03*
%TO.P,J2,3,C*%
%TO.N,Net-(J2-C)*%
X176600000Y-99060000D03*
%TD*%
%TO.P,J1,1*%
%TO.N,+VCC_DC*%
X176650000Y-112230000D03*
%TO.P,J1,2*%
%TO.N,GND*%
X176650000Y-114770000D03*
%TD*%
D11*
%TO.P,USBC1,1,EH*%
%TO.N,GND*%
X132242500Y-105864000D03*
D12*
%TO.P,USBC1,2,EH*%
X128062500Y-105864000D03*
%TO.P,USBC1,3,EH*%
X128062500Y-97204000D03*
D11*
%TO.P,USBC1,4,EH*%
X132242500Y-97204000D03*
%TD*%
%TO.P,USBC2,1,EH*%
%TO.N,GND*%
X132196000Y-116864000D03*
D12*
%TO.P,USBC2,2,EH*%
X128016000Y-116864000D03*
%TO.P,USBC2,3,EH*%
X128016000Y-108204000D03*
D11*
%TO.P,USBC2,4,EH*%
X132196000Y-108204000D03*
%TD*%
D13*
%TO.P,H4,1,MP*%
%TO.N,MOUNTING_PIN*%
X127500000Y-124100000D03*
X128202944Y-122402944D03*
X128202944Y-125797056D03*
X129900000Y-121700000D03*
D14*
X129900000Y-124100000D03*
D13*
X129900000Y-126500000D03*
X131597056Y-122402944D03*
X131597056Y-125797056D03*
X132300000Y-124100000D03*
%TD*%
%TO.P,H1,1,MP*%
%TO.N,MOUNTING_PIN*%
X127500000Y-79100000D03*
X128202944Y-77402944D03*
X128202944Y-80797056D03*
X129900000Y-76700000D03*
D14*
X129900000Y-79100000D03*
D13*
X129900000Y-81500000D03*
X131597056Y-77402944D03*
X131597056Y-80797056D03*
X132300000Y-79100000D03*
%TD*%
%TO.P,H3,1,MP*%
%TO.N,MOUNTING_PIN*%
X172500000Y-124100000D03*
X173202944Y-122402944D03*
X173202944Y-125797056D03*
X174900000Y-121700000D03*
D14*
X174900000Y-124100000D03*
D13*
X174900000Y-126500000D03*
X176597056Y-122402944D03*
X176597056Y-125797056D03*
X177300000Y-124100000D03*
%TD*%
%TO.P,H2,1,MP*%
%TO.N,MOUNTING_PIN*%
X172500000Y-79100000D03*
X173202944Y-77402944D03*
X173202944Y-80797056D03*
X174900000Y-76700000D03*
D14*
X174900000Y-79100000D03*
D13*
X174900000Y-81500000D03*
X176597056Y-77402944D03*
X176597056Y-80797056D03*
X177300000Y-79100000D03*
%TD*%
D15*
%TO.P,U3,1,COS_P*%
%TO.N,COS_P*%
X154310000Y-104340000D03*
%TO.P,U3,2,COS_N*%
%TO.N,COS_N*%
X153030000Y-104340000D03*
%TO.P,U3,3,GND2*%
%TO.N,GND*%
X151770000Y-104340000D03*
%TO.P,U3,4,GND1*%
X150500000Y-104340000D03*
%TO.P,U3,5,VGMR*%
%TO.N,ENK_Vgmr*%
X150500000Y-98860000D03*
%TO.P,U3,6,VDD*%
%TO.N,+3V3*%
X151770000Y-98860000D03*
%TO.P,U3,7,SIN_N*%
%TO.N,SIN_N*%
X153030000Y-98860000D03*
%TO.P,U3,8,SIN_P*%
%TO.N,SIN_P*%
X154310000Y-98860000D03*
%TD*%
D16*
%TO.N,GND*%
X169367200Y-100533200D03*
D17*
X149250400Y-82092800D03*
D16*
X172200707Y-89000707D03*
X148996400Y-75996800D03*
X165531800Y-109575600D03*
X178400000Y-93500000D03*
X146400000Y-119500000D03*
X158496000Y-78689200D03*
X169500000Y-117500000D03*
X170027600Y-96393000D03*
X152450800Y-76047600D03*
X134300000Y-109000000D03*
X170500000Y-78500000D03*
X173100000Y-93700000D03*
X128650000Y-95800000D03*
X151587200Y-75996800D03*
X146456400Y-76047600D03*
X156800000Y-115700000D03*
X136042400Y-86766400D03*
X179000000Y-110100000D03*
X146456400Y-76962000D03*
X143300000Y-93200000D03*
X136804400Y-81280000D03*
X150495000Y-105943400D03*
X141833600Y-92964000D03*
X136144000Y-82956400D03*
X160680400Y-74930000D03*
X138600000Y-111600000D03*
X169316400Y-102641400D03*
X175150000Y-100300000D03*
X136500000Y-116100000D03*
X137600000Y-90000000D03*
X157530800Y-75996800D03*
X131400000Y-91600000D03*
X142800000Y-122500000D03*
X144272000Y-74930000D03*
X148132800Y-75996800D03*
X147600000Y-117700000D03*
X149800000Y-117400000D03*
X131400000Y-83500000D03*
X152500000Y-111200000D03*
X128350000Y-118250000D03*
X155400000Y-98800000D03*
X151000000Y-122500000D03*
X170992800Y-94945200D03*
X147320000Y-75996800D03*
D17*
X155549600Y-82042000D03*
D16*
X138600000Y-109950000D03*
X163017200Y-104927400D03*
D17*
X155549600Y-80416400D03*
D16*
X143300000Y-90800000D03*
X156800000Y-111200000D03*
X132455093Y-95194907D03*
X160832800Y-104698800D03*
D17*
X152349200Y-79095600D03*
D16*
X154127200Y-76047600D03*
X176400000Y-93400000D03*
X154990800Y-75996800D03*
X166500000Y-81000000D03*
X171297600Y-108077000D03*
X140850000Y-121400000D03*
X138600000Y-117000000D03*
X145288000Y-90170000D03*
X147800000Y-119600000D03*
X149860000Y-75996800D03*
X138550000Y-113250000D03*
X149800000Y-115700000D03*
X142800000Y-127400000D03*
D17*
X152400000Y-85242400D03*
D16*
X157600000Y-103800000D03*
X172890000Y-100320000D03*
X149800000Y-119100000D03*
X132232400Y-107035600D03*
X133650000Y-76350000D03*
X134200000Y-116100000D03*
X156667200Y-75996800D03*
X167970200Y-104317800D03*
X136200000Y-97150000D03*
D17*
X154025600Y-79146400D03*
D16*
X132700000Y-118150000D03*
X166624000Y-78536800D03*
X133650000Y-77600000D03*
X163900000Y-91100000D03*
X137950000Y-124650000D03*
X133731000Y-97536000D03*
X164800000Y-82900000D03*
X143300000Y-75900000D03*
D17*
X150774400Y-85242400D03*
D16*
X152500000Y-115700000D03*
X171000000Y-118400000D03*
X153263600Y-76047600D03*
X161340800Y-81407000D03*
X136550000Y-119150000D03*
X150723600Y-75996800D03*
X134200000Y-105400000D03*
X175050000Y-102850000D03*
X155400000Y-99600000D03*
D17*
X154076400Y-85293200D03*
X177200000Y-117200000D03*
X155498800Y-83820000D03*
D16*
X172920000Y-102880000D03*
D17*
X149250400Y-83769200D03*
D16*
X158343600Y-75996800D03*
X145300000Y-93200000D03*
X171900000Y-106300000D03*
X135940800Y-107848400D03*
X159512000Y-90170000D03*
X136093200Y-84836000D03*
X168700000Y-82500000D03*
X136900000Y-92500000D03*
X179000000Y-106300000D03*
X138684000Y-102362000D03*
X151790400Y-105968800D03*
X156800000Y-107200000D03*
X141750000Y-74800000D03*
X171900000Y-110100000D03*
X158267400Y-110337600D03*
X166350000Y-94350000D03*
X138684000Y-99822000D03*
X158496000Y-77825600D03*
X136042400Y-88646000D03*
X135000000Y-119950000D03*
X138582400Y-92811600D03*
X138480800Y-103632000D03*
X125800000Y-91600000D03*
X128066800Y-107035600D03*
X151000000Y-127400000D03*
D17*
X150774400Y-79095600D03*
D16*
X155854400Y-75996800D03*
X170840400Y-76225400D03*
X135200000Y-90000000D03*
D17*
X149250400Y-80467200D03*
D16*
X140208000Y-92913200D03*
X125800000Y-83500000D03*
D17*
%TO.N,+VCC_USBCPD*%
X135200000Y-110150000D03*
D16*
X142690380Y-110509620D03*
X142550000Y-114050000D03*
D17*
X135400000Y-115184000D03*
%TO.N,+VCC_USBC*%
X134747000Y-98933000D03*
X135255000Y-103632000D03*
%TO.N,+3V3*%
X163068000Y-80772000D03*
X140600000Y-78550000D03*
D16*
X152200000Y-97550000D03*
D17*
X177800000Y-84700000D03*
D16*
X143550000Y-113150000D03*
X144150000Y-79600000D03*
X159131000Y-101600000D03*
D17*
%TO.N,+VCC*%
X167360600Y-106045000D03*
X156400000Y-108980000D03*
X172500000Y-86200000D03*
X165100000Y-112950000D03*
X126365000Y-93573600D03*
X165989000Y-106019600D03*
D16*
%TO.N,ENK_Vgmr*%
X142700000Y-98792746D03*
X149700000Y-98600000D03*
%TO.N,CC1*%
X139750000Y-118700000D03*
X140300000Y-115250000D03*
%TO.N,PWM_LA*%
X149000000Y-90270000D03*
X163644740Y-97438103D03*
%TO.N,Net-(IC1-SOC)*%
X145592800Y-94437200D03*
X159207200Y-102539800D03*
%TO.N,PWM_LC*%
X144070000Y-88450000D03*
X160732510Y-98347045D03*
%TO.N,Net-(IC1-SOB)*%
X159258000Y-103428800D03*
X145045377Y-95217400D03*
%TO.N,PWM_HB*%
X163050000Y-98005901D03*
X148150000Y-90260000D03*
%TO.N,PWM_LB*%
X162250132Y-97991246D03*
X147300000Y-90270000D03*
%TO.N,CTR_nSLEEP*%
X166446200Y-97942400D03*
X160985200Y-86512400D03*
%TO.N,CTR_nFAULT*%
X167309800Y-98094800D03*
X161036000Y-85623400D03*
%TO.N,Net-(IC1-SOA)*%
X159626255Y-104139006D03*
X145673740Y-95826446D03*
%TO.N,PWM_HC*%
X146450000Y-90260000D03*
X161450132Y-97993460D03*
%TO.N,CTR_DRVOFF*%
X161086800Y-84810600D03*
X168046400Y-98526600D03*
%TO.N,PWM_HA*%
X164489754Y-97421943D03*
X149850000Y-90250000D03*
%TO.N,MCURST*%
X141160000Y-117940000D03*
X141300000Y-102300000D03*
%TO.N,SIN_N*%
X153365200Y-97256600D03*
X143800000Y-98300000D03*
%TO.N,SIN_P*%
X144414184Y-97739521D03*
X154609800Y-97510600D03*
%TO.N,COS_P*%
X144426770Y-96939621D03*
X155041600Y-105791000D03*
%TO.N,COS_N*%
X153771600Y-105892600D03*
X145135600Y-96418400D03*
%TO.N,Net-(U2-FB)*%
X167700000Y-86600000D03*
X171100000Y-83800000D03*
%TO.N,MCUSDA*%
X140500000Y-99050400D03*
X143100000Y-120100000D03*
%TO.N,MCUSCL*%
X140400000Y-100000000D03*
X142100000Y-119500000D03*
%TO.N,Net-(Q1-G)*%
X147650000Y-109250000D03*
X149200000Y-107200000D03*
%TD*%
D18*
%TO.N,GND*%
X150500000Y-105938400D02*
X150495000Y-105943400D01*
X151770000Y-105948400D02*
X151790400Y-105968800D01*
X151770000Y-104340000D02*
X151770000Y-105948400D01*
X150500000Y-104340000D02*
X150500000Y-105938400D01*
D19*
%TO.N,+VCC_USBCPD*%
X142690380Y-110509620D02*
X142690380Y-113909620D01*
D20*
X135200000Y-110150000D02*
X134800000Y-110550000D01*
D19*
X142690380Y-113909620D02*
X142550000Y-114050000D01*
D20*
X134800000Y-114584000D02*
X135400000Y-115184000D01*
X134800000Y-110550000D02*
X134800000Y-114584000D01*
%TO.N,+VCC_USBC*%
X135255000Y-103632000D02*
X135255000Y-99695000D01*
X135255000Y-99441000D02*
X134747000Y-98933000D01*
X135255000Y-99695000D02*
X135255000Y-99441000D01*
D19*
%TO.N,+3V3*%
X151770000Y-97850654D02*
X151770000Y-98860000D01*
D18*
X151790400Y-98839600D02*
X151770000Y-98860000D01*
D19*
X152200000Y-97550000D02*
X152070654Y-97550000D01*
X152070654Y-97550000D02*
X151770000Y-97850654D01*
%TO.N,ENK_Vgmr*%
X149700000Y-98600000D02*
X150000000Y-98900000D01*
X150460000Y-98900000D02*
X150500000Y-98860000D01*
X150000000Y-98900000D02*
X150460000Y-98900000D01*
%TO.N,CC1*%
X140300000Y-118150000D02*
X140300000Y-115250000D01*
X139750000Y-118700000D02*
X140300000Y-118150000D01*
%TO.N,SIN_N*%
X153030000Y-97591800D02*
X153365200Y-97256600D01*
X153030000Y-98860000D02*
X153030000Y-97591800D01*
%TO.N,SIN_P*%
X154310000Y-98860000D02*
X154310000Y-97810400D01*
X154310000Y-97810400D02*
X154609800Y-97510600D01*
%TO.N,COS_P*%
X154310000Y-104340000D02*
X154310000Y-105059400D01*
X154310000Y-105059400D02*
X155041600Y-105791000D01*
%TO.N,COS_N*%
X153030000Y-105151000D02*
X153771600Y-105892600D01*
X153030000Y-104340000D02*
X153030000Y-105151000D01*
D21*
%TO.N,Net-(U2-FB)*%
X167700000Y-86600000D02*
X170500000Y-83800000D01*
X170500000Y-83800000D02*
X171100000Y-83800000D01*
D19*
%TO.N,Net-(Q1-G)*%
X149200000Y-107200000D02*
X149200000Y-107700000D01*
X149200000Y-107700000D02*
X147650000Y-109250000D01*
%TD*%
%TA.AperFunction,Conductor*%
%TO.N,GND*%
G36*
X132492500Y-107006138D02*
G01*
X132472815Y-107073177D01*
X132456181Y-107093819D01*
X132446000Y-107104000D01*
X132446000Y-107804001D01*
X131946000Y-107804001D01*
X131946000Y-107061862D01*
X131954644Y-107032421D01*
X131961168Y-107002435D01*
X131964922Y-106997419D01*
X131965685Y-106994823D01*
X131982319Y-106974181D01*
X131992500Y-106964000D01*
X131992500Y-106263999D01*
X132492500Y-106263999D01*
X132492500Y-107006138D01*
G37*
%TD.AperFunction*%
%TA.AperFunction,Conductor*%
G36*
X128312500Y-107006138D02*
G01*
X128292815Y-107073177D01*
X128276181Y-107093819D01*
X128266000Y-107104000D01*
X128266000Y-107804001D01*
X127766000Y-107804001D01*
X127766000Y-107061862D01*
X127774644Y-107032421D01*
X127781168Y-107002435D01*
X127784922Y-106997419D01*
X127785685Y-106994823D01*
X127802319Y-106974181D01*
X127812500Y-106964000D01*
X127812500Y-106263999D01*
X128312500Y-106263999D01*
X128312500Y-107006138D01*
G37*
%TD.AperFunction*%
%TA.AperFunction,Conductor*%
G36*
X174902702Y-74300617D02*
G01*
X175312917Y-74318528D01*
X175323654Y-74319468D01*
X175728057Y-74372708D01*
X175738695Y-74374583D01*
X176136925Y-74462869D01*
X176147365Y-74465667D01*
X176536363Y-74588317D01*
X176546524Y-74592015D01*
X176923363Y-74748108D01*
X176933155Y-74752674D01*
X177294965Y-74941020D01*
X177304305Y-74946413D01*
X177589636Y-75128189D01*
X177648309Y-75165568D01*
X177657170Y-75171772D01*
X177980766Y-75420076D01*
X177989053Y-75427030D01*
X178289767Y-75702583D01*
X178297416Y-75710232D01*
X178572969Y-76010946D01*
X178579923Y-76019233D01*
X178828227Y-76342829D01*
X178834431Y-76351690D01*
X178836417Y-76354807D01*
X179000199Y-76611893D01*
X179053578Y-76695680D01*
X179058987Y-76705048D01*
X179247322Y-77066838D01*
X179251894Y-77076642D01*
X179407983Y-77453473D01*
X179411683Y-77463639D01*
X179534331Y-77852630D01*
X179537131Y-77863078D01*
X179625414Y-78261296D01*
X179627292Y-78271950D01*
X179680529Y-78676326D01*
X179681472Y-78687102D01*
X179699382Y-79097297D01*
X179699500Y-79102706D01*
X179699500Y-124097293D01*
X179699382Y-124102702D01*
X179681472Y-124512897D01*
X179680529Y-124523673D01*
X179627292Y-124928049D01*
X179625414Y-124938703D01*
X179537131Y-125336921D01*
X179534331Y-125347369D01*
X179411683Y-125736360D01*
X179407983Y-125746526D01*
X179251894Y-126123357D01*
X179247322Y-126133161D01*
X179058987Y-126494951D01*
X179053578Y-126504319D01*
X178834431Y-126848309D01*
X178828227Y-126857170D01*
X178579923Y-127180766D01*
X178572969Y-127189053D01*
X178297416Y-127489767D01*
X178289767Y-127497416D01*
X177989053Y-127772969D01*
X177980766Y-127779923D01*
X177657170Y-128028227D01*
X177648309Y-128034431D01*
X177304319Y-128253578D01*
X177294951Y-128258987D01*
X176933161Y-128447322D01*
X176923357Y-128451894D01*
X176546526Y-128607983D01*
X176536360Y-128611683D01*
X176147369Y-128734331D01*
X176136921Y-128737131D01*
X175738703Y-128825414D01*
X175728049Y-128827292D01*
X175323673Y-128880529D01*
X175312897Y-128881472D01*
X174902703Y-128899382D01*
X174897294Y-128899500D01*
X129902706Y-128899500D01*
X129897297Y-128899382D01*
X129487102Y-128881472D01*
X129476326Y-128880529D01*
X129071950Y-128827292D01*
X129061296Y-128825414D01*
X128663078Y-128737131D01*
X128652630Y-128734331D01*
X128263639Y-128611683D01*
X128253473Y-128607983D01*
X127876642Y-128451894D01*
X127866838Y-128447322D01*
X127747126Y-128385004D01*
X127505042Y-128258983D01*
X127495686Y-128253582D01*
X127323685Y-128144004D01*
X127151690Y-128034431D01*
X127142829Y-128028227D01*
X126819233Y-127779923D01*
X126810946Y-127772969D01*
X126510232Y-127497416D01*
X126502583Y-127489767D01*
X126227030Y-127189053D01*
X126220076Y-127180766D01*
X125971772Y-126857170D01*
X125965568Y-126848309D01*
X125912070Y-126764334D01*
X125746413Y-126504305D01*
X125741020Y-126494965D01*
X125552674Y-126133155D01*
X125548105Y-126123357D01*
X125498971Y-126004738D01*
X125392015Y-125746524D01*
X125388316Y-125736360D01*
X125265668Y-125347369D01*
X125262868Y-125336921D01*
X125188224Y-125000223D01*
X125174583Y-124938695D01*
X125172707Y-124928049D01*
X125119468Y-124523654D01*
X125118528Y-124512917D01*
X125100618Y-124102702D01*
X125100500Y-124097293D01*
X125100500Y-123918209D01*
X126199500Y-123918209D01*
X126199500Y-124281790D01*
X126235137Y-124643630D01*
X126306064Y-125000212D01*
X126306067Y-125000223D01*
X126411614Y-125348165D01*
X126550754Y-125684078D01*
X126550756Y-125684083D01*
X126722140Y-126004720D01*
X126722151Y-126004738D01*
X126924140Y-126307035D01*
X126924150Y-126307049D01*
X127154807Y-126588106D01*
X127411893Y-126845192D01*
X127411898Y-126845196D01*
X127411899Y-126845197D01*
X127692956Y-127075854D01*
X127995268Y-127277853D01*
X127995277Y-127277858D01*
X127995279Y-127277859D01*
X128315916Y-127449243D01*
X128315918Y-127449243D01*
X128315924Y-127449247D01*
X128651836Y-127588386D01*
X128999767Y-127693930D01*
X128999773Y-127693931D01*
X128999776Y-127693932D01*
X128999787Y-127693935D01*
X129356369Y-127764862D01*
X129718206Y-127800500D01*
X129718209Y-127800500D01*
X130081791Y-127800500D01*
X130081794Y-127800500D01*
X130443631Y-127764862D01*
X130513045Y-127751054D01*
X130800212Y-127693935D01*
X130800223Y-127693932D01*
X130800223Y-127693931D01*
X130800233Y-127693930D01*
X131148164Y-127588386D01*
X131484076Y-127449247D01*
X131804732Y-127277853D01*
X132107044Y-127075854D01*
X132388101Y-126845197D01*
X132645197Y-126588101D01*
X132875854Y-126307044D01*
X133077853Y-126004732D01*
X133249247Y-125684076D01*
X133388386Y-125348164D01*
X133493930Y-125000233D01*
X133493932Y-125000223D01*
X133493935Y-125000212D01*
X133564862Y-124643630D01*
X133576677Y-124523673D01*
X133600500Y-124281794D01*
X133600500Y-123918209D01*
X171199500Y-123918209D01*
X171199500Y-124281790D01*
X171235137Y-124643630D01*
X171306064Y-125000212D01*
X171306067Y-125000223D01*
X171411614Y-125348165D01*
X171550754Y-125684078D01*
X171550756Y-125684083D01*
X171722140Y-126004720D01*
X171722151Y-126004738D01*
X171924140Y-126307035D01*
X171924150Y-126307049D01*
X172154807Y-126588106D01*
X172411893Y-126845192D01*
X172411898Y-126845196D01*
X172411899Y-126845197D01*
X172692956Y-127075854D01*
X172995268Y-127277853D01*
X172995277Y-127277858D01*
X172995279Y-127277859D01*
X173315916Y-127449243D01*
X173315918Y-127449243D01*
X173315924Y-127449247D01*
X173651836Y-127588386D01*
X173999767Y-127693930D01*
X173999773Y-127693931D01*
X173999776Y-127693932D01*
X173999787Y-127693935D01*
X174356369Y-127764862D01*
X174718206Y-127800500D01*
X174718209Y-127800500D01*
X175081791Y-127800500D01*
X175081794Y-127800500D01*
X175443631Y-127764862D01*
X175513045Y-127751054D01*
X175800212Y-127693935D01*
X175800223Y-127693932D01*
X175800223Y-127693931D01*
X175800233Y-127693930D01*
X176148164Y-127588386D01*
X176484076Y-127449247D01*
X176804732Y-127277853D01*
X177107044Y-127075854D01*
X177388101Y-126845197D01*
X177645197Y-126588101D01*
X177875854Y-126307044D01*
X178077853Y-126004732D01*
X178249247Y-125684076D01*
X178388386Y-125348164D01*
X178493930Y-125000233D01*
X178493932Y-125000223D01*
X178493935Y-125000212D01*
X178564862Y-124643630D01*
X178576677Y-124523673D01*
X178600500Y-124281794D01*
X178600500Y-123918206D01*
X178564862Y-123556369D01*
X178493935Y-123199787D01*
X178493932Y-123199776D01*
X178493931Y-123199773D01*
X178493930Y-123199767D01*
X178388386Y-122851836D01*
X178249247Y-122515924D01*
X178077853Y-122195268D01*
X177875854Y-121892956D01*
X177645197Y-121611899D01*
X177645196Y-121611898D01*
X177645192Y-121611893D01*
X177388106Y-121354807D01*
X177107049Y-121124150D01*
X177107048Y-121124149D01*
X177107044Y-121124146D01*
X176804732Y-120922147D01*
X176804727Y-120922144D01*
X176804720Y-120922140D01*
X176484083Y-120750756D01*
X176484078Y-120750754D01*
X176414150Y-120721789D01*
X176385690Y-120710000D01*
X176148165Y-120611614D01*
X175800223Y-120506067D01*
X175800212Y-120506064D01*
X175443630Y-120435137D01*
X175171111Y-120408296D01*
X175081794Y-120399500D01*
X174718206Y-120399500D01*
X174635679Y-120407628D01*
X174356369Y-120435137D01*
X173999787Y-120506064D01*
X173999776Y-120506067D01*
X173651834Y-120611614D01*
X173315921Y-120750754D01*
X173315916Y-120750756D01*
X172995279Y-120922140D01*
X172995261Y-120922151D01*
X172692964Y-121124140D01*
X172692950Y-121124150D01*
X172411893Y-121354807D01*
X172154807Y-121611893D01*
X171924150Y-121892950D01*
X171924140Y-121892964D01*
X171722151Y-122195261D01*
X171722140Y-122195279D01*
X171550756Y-122515916D01*
X171550754Y-122515921D01*
X171411614Y-122851834D01*
X171306067Y-123199776D01*
X171306064Y-123199787D01*
X171235137Y-123556369D01*
X171199500Y-123918209D01*
X133600500Y-123918209D01*
X133600500Y-123918206D01*
X133564862Y-123556369D01*
X133493935Y-123199787D01*
X133493932Y-123199776D01*
X133493931Y-123199773D01*
X133493930Y-123199767D01*
X133388386Y-122851836D01*
X133249247Y-122515924D01*
X133077853Y-122195268D01*
X132875854Y-121892956D01*
X132645197Y-121611899D01*
X132645196Y-121611898D01*
X132645192Y-121611893D01*
X132388106Y-121354807D01*
X132107049Y-121124150D01*
X132107048Y-121124149D01*
X132107044Y-121124146D01*
X131804732Y-120922147D01*
X131804727Y-120922144D01*
X131804720Y-120922140D01*
X131484083Y-120750756D01*
X131484078Y-120750754D01*
X131414150Y-120721789D01*
X131385690Y-120710000D01*
X131148165Y-120611614D01*
X130800223Y-120506067D01*
X130800212Y-120506064D01*
X130443630Y-120435137D01*
X130171111Y-120408296D01*
X130081794Y-120399500D01*
X129718206Y-120399500D01*
X129635679Y-120407628D01*
X129356369Y-120435137D01*
X128999787Y-120506064D01*
X128999776Y-120506067D01*
X128651834Y-120611614D01*
X128315921Y-120750754D01*
X128315916Y-120750756D01*
X127995279Y-120922140D01*
X127995261Y-120922151D01*
X127692964Y-121124140D01*
X127692950Y-121124150D01*
X127411893Y-121354807D01*
X127154807Y-121611893D01*
X126924150Y-121892950D01*
X126924140Y-121892964D01*
X126722151Y-122195261D01*
X126722140Y-122195279D01*
X126550756Y-122515916D01*
X126550754Y-122515921D01*
X126411614Y-122851834D01*
X126306067Y-123199776D01*
X126306064Y-123199787D01*
X126235137Y-123556369D01*
X126199500Y-123918209D01*
X125100500Y-123918209D01*
X125100500Y-118621153D01*
X138949500Y-118621153D01*
X138949500Y-118778846D01*
X138980261Y-118933489D01*
X138980264Y-118933501D01*
X139040602Y-119079172D01*
X139040609Y-119079185D01*
X139128210Y-119210288D01*
X139128213Y-119210292D01*
X139239707Y-119321786D01*
X139239711Y-119321789D01*
X139370814Y-119409390D01*
X139370827Y-119409397D01*
X139516498Y-119469735D01*
X139516503Y-119469737D01*
X139671153Y-119500499D01*
X139671156Y-119500500D01*
X139671158Y-119500500D01*
X139828844Y-119500500D01*
X139828845Y-119500499D01*
X139983497Y-119469737D01*
X140129179Y-119409394D01*
X140260289Y-119321789D01*
X140371789Y-119210289D01*
X140459394Y-119079179D01*
X140519737Y-118933497D01*
X140533079Y-118866416D01*
X140541844Y-118849661D01*
X140545864Y-118831183D01*
X140564606Y-118806146D01*
X140565463Y-118804509D01*
X140566959Y-118802985D01*
X140679618Y-118690326D01*
X140740939Y-118656843D01*
X140810631Y-118661827D01*
X140814749Y-118663448D01*
X140926498Y-118709735D01*
X140926503Y-118709737D01*
X141029699Y-118730264D01*
X141081153Y-118740499D01*
X141081156Y-118740500D01*
X141081158Y-118740500D01*
X141238844Y-118740500D01*
X141238845Y-118740499D01*
X141393497Y-118709737D01*
X141440121Y-118690424D01*
X141509588Y-118682956D01*
X141572067Y-118714231D01*
X141607720Y-118774319D01*
X141605227Y-118844144D01*
X141575254Y-118892667D01*
X141478210Y-118989711D01*
X141390609Y-119120814D01*
X141390602Y-119120827D01*
X141330264Y-119266498D01*
X141330261Y-119266510D01*
X141299500Y-119421153D01*
X141299500Y-119578846D01*
X141330261Y-119733489D01*
X141330264Y-119733501D01*
X141390602Y-119879172D01*
X141390609Y-119879185D01*
X141478210Y-120010288D01*
X141478213Y-120010292D01*
X141589707Y-120121786D01*
X141589711Y-120121789D01*
X141720814Y-120209390D01*
X141720827Y-120209397D01*
X141866498Y-120269735D01*
X141866503Y-120269737D01*
X141993699Y-120295038D01*
X142021153Y-120300499D01*
X142021156Y-120300500D01*
X142021158Y-120300500D01*
X142178841Y-120300500D01*
X142178842Y-120300500D01*
X142206299Y-120295038D01*
X142275888Y-120301264D01*
X142331067Y-120344125D01*
X142345052Y-120369202D01*
X142390604Y-120479176D01*
X142390609Y-120479185D01*
X142478210Y-120610288D01*
X142478213Y-120610292D01*
X142589707Y-120721786D01*
X142589711Y-120721789D01*
X142720814Y-120809390D01*
X142720827Y-120809397D01*
X142866498Y-120869735D01*
X142866503Y-120869737D01*
X143021153Y-120900499D01*
X143021156Y-120900500D01*
X143021158Y-120900500D01*
X143178844Y-120900500D01*
X143178845Y-120900499D01*
X143333497Y-120869737D01*
X143479179Y-120809394D01*
X143610289Y-120721789D01*
X143721789Y-120610289D01*
X143809394Y-120479179D01*
X143869737Y-120333497D01*
X143900500Y-120178842D01*
X143900500Y-120021158D01*
X143900500Y-120021155D01*
X143900499Y-120021153D01*
X143898338Y-120010288D01*
X143869737Y-119866503D01*
X143869735Y-119866498D01*
X143809397Y-119720827D01*
X143809390Y-119720814D01*
X143721789Y-119589711D01*
X143721786Y-119589707D01*
X143610292Y-119478213D01*
X143610288Y-119478210D01*
X143479185Y-119390609D01*
X143479172Y-119390602D01*
X143333501Y-119330264D01*
X143333489Y-119330261D01*
X143178845Y-119299500D01*
X143178842Y-119299500D01*
X143021158Y-119299500D01*
X142993698Y-119304962D01*
X142924106Y-119298733D01*
X142868929Y-119255870D01*
X142854947Y-119230796D01*
X142809397Y-119120827D01*
X142809390Y-119120814D01*
X142721789Y-118989711D01*
X142721786Y-118989707D01*
X142610292Y-118878213D01*
X142610288Y-118878210D01*
X142479185Y-118790609D01*
X142479172Y-118790602D01*
X142333501Y-118730264D01*
X142333489Y-118730261D01*
X142178845Y-118699500D01*
X142178842Y-118699500D01*
X142021158Y-118699500D01*
X142021155Y-118699500D01*
X141866510Y-118730261D01*
X141866502Y-118730263D01*
X141819878Y-118749575D01*
X141750408Y-118757042D01*
X141687930Y-118725766D01*
X141652278Y-118665677D01*
X141654773Y-118595852D01*
X141684744Y-118547333D01*
X141781789Y-118450289D01*
X141869394Y-118319179D01*
X141929737Y-118173497D01*
X141960500Y-118018842D01*
X141960500Y-117861158D01*
X141960500Y-117861155D01*
X141960499Y-117861153D01*
X141929738Y-117706510D01*
X141929737Y-117706503D01*
X141928299Y-117703032D01*
X141869397Y-117560827D01*
X141869390Y-117560814D01*
X141781789Y-117429711D01*
X141781786Y-117429707D01*
X141670292Y-117318213D01*
X141670288Y-117318210D01*
X141539185Y-117230609D01*
X141539172Y-117230602D01*
X141393501Y-117170264D01*
X141393489Y-117170261D01*
X141238845Y-117139500D01*
X141238842Y-117139500D01*
X141081158Y-117139500D01*
X141075066Y-117139500D01*
X141075066Y-117136791D01*
X141017864Y-117125865D01*
X140967216Y-117077734D01*
X140950500Y-117015555D01*
X140950500Y-115754935D01*
X140970185Y-115687896D01*
X140971366Y-115686090D01*
X141009394Y-115629179D01*
X141069737Y-115483497D01*
X141100500Y-115328842D01*
X141100500Y-115171158D01*
X141100500Y-115171155D01*
X141100499Y-115171153D01*
X141069737Y-115016503D01*
X141069735Y-115016498D01*
X141009397Y-114870827D01*
X141009390Y-114870814D01*
X140921789Y-114739711D01*
X140921786Y-114739707D01*
X140810292Y-114628213D01*
X140810288Y-114628210D01*
X140679185Y-114540609D01*
X140679172Y-114540602D01*
X140533501Y-114480264D01*
X140533489Y-114480261D01*
X140378845Y-114449500D01*
X140378842Y-114449500D01*
X140221158Y-114449500D01*
X140221155Y-114449500D01*
X140066510Y-114480261D01*
X140066498Y-114480264D01*
X139920827Y-114540602D01*
X139920814Y-114540609D01*
X139789711Y-114628210D01*
X139789707Y-114628213D01*
X139678213Y-114739707D01*
X139678210Y-114739711D01*
X139590609Y-114870814D01*
X139590602Y-114870827D01*
X139530264Y-115016498D01*
X139530261Y-115016510D01*
X139499500Y-115171153D01*
X139499500Y-115328846D01*
X139530261Y-115483489D01*
X139530264Y-115483501D01*
X139590602Y-115629172D01*
X139590606Y-115629179D01*
X139628602Y-115686044D01*
X139649480Y-115752721D01*
X139649500Y-115754935D01*
X139649500Y-117802043D01*
X139629815Y-117869082D01*
X139577011Y-117914837D01*
X139549694Y-117923660D01*
X139516506Y-117930262D01*
X139516498Y-117930264D01*
X139370827Y-117990602D01*
X139370814Y-117990609D01*
X139239711Y-118078210D01*
X139239707Y-118078213D01*
X139128213Y-118189707D01*
X139128210Y-118189711D01*
X139040609Y-118320814D01*
X139040602Y-118320827D01*
X138980264Y-118466498D01*
X138980261Y-118466510D01*
X138949500Y-118621153D01*
X125100500Y-118621153D01*
X125100500Y-116613999D01*
X126641884Y-116613999D01*
X126641885Y-116614000D01*
X127400316Y-116614000D01*
X127395921Y-116618395D01*
X127343260Y-116709606D01*
X127316001Y-116811339D01*
X127316001Y-116916661D01*
X127343260Y-117018394D01*
X127395921Y-117109605D01*
X127400316Y-117114000D01*
X126641885Y-117114000D01*
X126643085Y-117121584D01*
X126696591Y-117286255D01*
X126775195Y-117440524D01*
X126876967Y-117580602D01*
X126999397Y-117703032D01*
X127139475Y-117804804D01*
X127293742Y-117883408D01*
X127458415Y-117936914D01*
X127629429Y-117964000D01*
X127766000Y-117964000D01*
X127766000Y-117263999D01*
X128266000Y-117263999D01*
X128266000Y-117964000D01*
X128402571Y-117964000D01*
X128573584Y-117936914D01*
X128738257Y-117883408D01*
X128892524Y-117804804D01*
X129032602Y-117703032D01*
X129155032Y-117580602D01*
X129256804Y-117440524D01*
X129335408Y-117286255D01*
X129388914Y-117121584D01*
X129390115Y-117114000D01*
X128631684Y-117114000D01*
X128636079Y-117109605D01*
X128688740Y-117018394D01*
X128715999Y-116916661D01*
X128715999Y-116811339D01*
X128688740Y-116709606D01*
X128636079Y-116618395D01*
X128631684Y-116614000D01*
X129390115Y-116614000D01*
X129390115Y-116613999D01*
X130721884Y-116613999D01*
X130721885Y-116614000D01*
X131480329Y-116614000D01*
X131475934Y-116618395D01*
X131423273Y-116709606D01*
X131396014Y-116811339D01*
X131396014Y-116916661D01*
X131423273Y-117018394D01*
X131475934Y-117109605D01*
X131480329Y-117114000D01*
X130721885Y-117114000D01*
X130723085Y-117121584D01*
X130776591Y-117286255D01*
X130855195Y-117440524D01*
X130956967Y-117580602D01*
X131079397Y-117703032D01*
X131219475Y-117804804D01*
X131373742Y-117883408D01*
X131538415Y-117936914D01*
X131709429Y-117964000D01*
X131946000Y-117964000D01*
X131946000Y-117263999D01*
X132446000Y-117263999D01*
X132446000Y-117964000D01*
X132682571Y-117964000D01*
X132853584Y-117936914D01*
X133018257Y-117883408D01*
X133172524Y-117804804D01*
X133312602Y-117703032D01*
X133435032Y-117580602D01*
X133536804Y-117440524D01*
X133615408Y-117286255D01*
X133668914Y-117121584D01*
X133670115Y-117114000D01*
X132911671Y-117114000D01*
X132916066Y-117109605D01*
X132968727Y-117018394D01*
X132995986Y-116916661D01*
X132995986Y-116811339D01*
X132968727Y-116709606D01*
X132916066Y-116618395D01*
X132911671Y-116614000D01*
X133670115Y-116614000D01*
X133670115Y-116613999D01*
X133668914Y-116606415D01*
X133615408Y-116441744D01*
X133536804Y-116287475D01*
X133435032Y-116147397D01*
X133312602Y-116024967D01*
X133172524Y-115923195D01*
X133018257Y-115844591D01*
X132853584Y-115791085D01*
X132682571Y-115764000D01*
X132446000Y-115764000D01*
X132446000Y-116464001D01*
X131946000Y-116464001D01*
X131946000Y-115968049D01*
X131965685Y-115901010D01*
X132008004Y-115860660D01*
X132018665Y-115854505D01*
X132116505Y-115756665D01*
X132156209Y-115687896D01*
X132177720Y-115650638D01*
X132177720Y-115650637D01*
X132185688Y-115636836D01*
X132221500Y-115503183D01*
X132221500Y-115364817D01*
X132185688Y-115231164D01*
X132116505Y-115111335D01*
X132018665Y-115013495D01*
X132018664Y-115013494D01*
X132018661Y-115013492D01*
X131898838Y-114944313D01*
X131898837Y-114944312D01*
X131898836Y-114944312D01*
X131765183Y-114908500D01*
X131626817Y-114908500D01*
X131493164Y-114944312D01*
X131493161Y-114944313D01*
X131373338Y-115013492D01*
X131373333Y-115013496D01*
X131275496Y-115111333D01*
X131275492Y-115111338D01*
X131206313Y-115231161D01*
X131206312Y-115231164D01*
X131170500Y-115364817D01*
X131170500Y-115503183D01*
X131204261Y-115629179D01*
X131206312Y-115636835D01*
X131206315Y-115636842D01*
X131271718Y-115750125D01*
X131288191Y-115818025D01*
X131265338Y-115884052D01*
X131223375Y-115920241D01*
X131223627Y-115920651D01*
X131221116Y-115922189D01*
X131220637Y-115922603D01*
X131219479Y-115923192D01*
X131079397Y-116024967D01*
X130956967Y-116147397D01*
X130855195Y-116287475D01*
X130776591Y-116441744D01*
X130723085Y-116606415D01*
X130721884Y-116613999D01*
X129390115Y-116613999D01*
X129388914Y-116606415D01*
X129335408Y-116441744D01*
X129256804Y-116287475D01*
X129155032Y-116147397D01*
X129032602Y-116024967D01*
X128892524Y-115923195D01*
X128738257Y-115844591D01*
X128573584Y-115791085D01*
X128402571Y-115764000D01*
X128266000Y-115764000D01*
X128266000Y-116464001D01*
X127766000Y-116464001D01*
X127766000Y-115764000D01*
X127629429Y-115764000D01*
X127458415Y-115791085D01*
X127293742Y-115844591D01*
X127139475Y-115923195D01*
X126999397Y-116024967D01*
X126876967Y-116147397D01*
X126775195Y-116287475D01*
X126696591Y-116441744D01*
X126643085Y-116606415D01*
X126641884Y-116613999D01*
X125100500Y-116613999D01*
X125100500Y-110451456D01*
X133799500Y-110451456D01*
X133799500Y-114682544D01*
X133837947Y-114875828D01*
X133837949Y-114875836D01*
X133851479Y-114908500D01*
X133851479Y-114908501D01*
X133913364Y-115057907D01*
X133913371Y-115057920D01*
X134022860Y-115221781D01*
X134022863Y-115221785D01*
X134166537Y-115365459D01*
X134166559Y-115365479D01*
X134345889Y-115544809D01*
X134376138Y-115594168D01*
X134380128Y-115606448D01*
X134402644Y-115650638D01*
X134458768Y-115760788D01*
X134560586Y-115900928D01*
X134683072Y-116023414D01*
X134823212Y-116125232D01*
X134977555Y-116203873D01*
X135142299Y-116257402D01*
X135313389Y-116284500D01*
X135313390Y-116284500D01*
X135486610Y-116284500D01*
X135486611Y-116284500D01*
X135657701Y-116257402D01*
X135822445Y-116203873D01*
X135976788Y-116125232D01*
X136116928Y-116023414D01*
X136239414Y-115900928D01*
X136341232Y-115760788D01*
X136419873Y-115606445D01*
X136473402Y-115441701D01*
X136500500Y-115270611D01*
X136500500Y-115097389D01*
X136473402Y-114926299D01*
X136419873Y-114761555D01*
X136341232Y-114607212D01*
X136239414Y-114467072D01*
X136116928Y-114344586D01*
X136032852Y-114283501D01*
X135976786Y-114242766D01*
X135868206Y-114187443D01*
X135857141Y-114176993D01*
X135843297Y-114170671D01*
X135832256Y-114153491D01*
X135817409Y-114139469D01*
X135813167Y-114123787D01*
X135805523Y-114111893D01*
X135800500Y-114076958D01*
X135800500Y-113971153D01*
X141749500Y-113971153D01*
X141749500Y-114128846D01*
X141780261Y-114283489D01*
X141780264Y-114283501D01*
X141840602Y-114429172D01*
X141840609Y-114429185D01*
X141928210Y-114560288D01*
X141928213Y-114560292D01*
X142039707Y-114671786D01*
X142039711Y-114671789D01*
X142170814Y-114759390D01*
X142170827Y-114759397D01*
X142316498Y-114819735D01*
X142316503Y-114819737D01*
X142463572Y-114848991D01*
X142471153Y-114850499D01*
X142471156Y-114850500D01*
X142471158Y-114850500D01*
X142628844Y-114850500D01*
X142628845Y-114850499D01*
X142783497Y-114819737D01*
X142929179Y-114759394D01*
X143060289Y-114671789D01*
X143171789Y-114560289D01*
X143259394Y-114429179D01*
X143319737Y-114283497D01*
X143350500Y-114128842D01*
X143350500Y-114074500D01*
X143370185Y-114007461D01*
X143422989Y-113961706D01*
X143474500Y-113950500D01*
X143628844Y-113950500D01*
X143628845Y-113950499D01*
X143783497Y-113919737D01*
X143929179Y-113859394D01*
X144060289Y-113771789D01*
X144171789Y-113660289D01*
X144259394Y-113529179D01*
X144319737Y-113383497D01*
X144350500Y-113228842D01*
X144350500Y-113071158D01*
X144350500Y-113071155D01*
X144350499Y-113071153D01*
X144319738Y-112916510D01*
X144319737Y-112916503D01*
X144297737Y-112863389D01*
X163999500Y-112863389D01*
X163999500Y-113036610D01*
X164026567Y-113207510D01*
X164026598Y-113207701D01*
X164080127Y-113372445D01*
X164158768Y-113526788D01*
X164260586Y-113666928D01*
X164383072Y-113789414D01*
X164523212Y-113891232D01*
X164677555Y-113969873D01*
X164842299Y-114023402D01*
X165013389Y-114050500D01*
X165013390Y-114050500D01*
X165186610Y-114050500D01*
X165186611Y-114050500D01*
X165357701Y-114023402D01*
X165522445Y-113969873D01*
X165676788Y-113891232D01*
X165816928Y-113789414D01*
X165939414Y-113666928D01*
X166041232Y-113526788D01*
X166119873Y-113372445D01*
X166173402Y-113207701D01*
X166200500Y-113036611D01*
X166200500Y-112863389D01*
X166173402Y-112692299D01*
X166119873Y-112527555D01*
X166041232Y-112373212D01*
X165939414Y-112233072D01*
X165818244Y-112111902D01*
X175149500Y-112111902D01*
X175149500Y-112348097D01*
X175186446Y-112581368D01*
X175259433Y-112805996D01*
X175366657Y-113016433D01*
X175505483Y-113207510D01*
X175672490Y-113374517D01*
X175731716Y-113417547D01*
X175774381Y-113472875D01*
X175782448Y-113527593D01*
X175780893Y-113547340D01*
X176438941Y-114205387D01*
X176418409Y-114210889D01*
X176281592Y-114289881D01*
X176169881Y-114401592D01*
X176090889Y-114538409D01*
X176085387Y-114558941D01*
X175427340Y-113900894D01*
X175367084Y-113983830D01*
X175259897Y-114194197D01*
X175186934Y-114418752D01*
X175150000Y-114651947D01*
X175150000Y-114888052D01*
X175186934Y-115121247D01*
X175259897Y-115345802D01*
X175367087Y-115556174D01*
X175427338Y-115639104D01*
X175427340Y-115639105D01*
X176085387Y-114981058D01*
X176090889Y-115001591D01*
X176169881Y-115138408D01*
X176281592Y-115250119D01*
X176418409Y-115329111D01*
X176438940Y-115334612D01*
X175780893Y-115992658D01*
X175863828Y-116052914D01*
X176074197Y-116160102D01*
X176298752Y-116233065D01*
X176298751Y-116233065D01*
X176531948Y-116270000D01*
X176768052Y-116270000D01*
X177001247Y-116233065D01*
X177225802Y-116160102D01*
X177436163Y-116052918D01*
X177436169Y-116052914D01*
X177519104Y-115992658D01*
X177519105Y-115992658D01*
X176861058Y-115334612D01*
X176881591Y-115329111D01*
X177018408Y-115250119D01*
X177130119Y-115138408D01*
X177209111Y-115001591D01*
X177214612Y-114981058D01*
X177872658Y-115639105D01*
X177872658Y-115639104D01*
X177932914Y-115556169D01*
X177932918Y-115556163D01*
X178040102Y-115345802D01*
X178113065Y-115121247D01*
X178150000Y-114888052D01*
X178150000Y-114651947D01*
X178113065Y-114418752D01*
X178040102Y-114194197D01*
X177932914Y-113983828D01*
X177872658Y-113900894D01*
X177872658Y-113900893D01*
X177214612Y-114558940D01*
X177209111Y-114538409D01*
X177130119Y-114401592D01*
X177018408Y-114289881D01*
X176881591Y-114210889D01*
X176861059Y-114205387D01*
X177519105Y-113547340D01*
X177517551Y-113527594D01*
X177531915Y-113459216D01*
X177568284Y-113417547D01*
X177627510Y-113374517D01*
X177794517Y-113207510D01*
X177933343Y-113016433D01*
X178040568Y-112805992D01*
X178113553Y-112581368D01*
X178121972Y-112528211D01*
X178150500Y-112348097D01*
X178150500Y-112111902D01*
X178113553Y-111878631D01*
X178040566Y-111654003D01*
X177933342Y-111443566D01*
X177794517Y-111252490D01*
X177627510Y-111085483D01*
X177436433Y-110946657D01*
X177434482Y-110945663D01*
X177225996Y-110839433D01*
X177001368Y-110766446D01*
X176768097Y-110729500D01*
X176768092Y-110729500D01*
X176531908Y-110729500D01*
X176531903Y-110729500D01*
X176298631Y-110766446D01*
X176074003Y-110839433D01*
X175863566Y-110946657D01*
X175804717Y-110989414D01*
X175672490Y-111085483D01*
X175672488Y-111085485D01*
X175672487Y-111085485D01*
X175505485Y-111252487D01*
X175505485Y-111252488D01*
X175505483Y-111252490D01*
X175445862Y-111334550D01*
X175366657Y-111443566D01*
X175259433Y-111654003D01*
X175186446Y-111878631D01*
X175149500Y-112111902D01*
X165818244Y-112111902D01*
X165816928Y-112110586D01*
X165676788Y-112008768D01*
X165522445Y-111930127D01*
X165357701Y-111876598D01*
X165357699Y-111876597D01*
X165357698Y-111876597D01*
X165226271Y-111855781D01*
X165186611Y-111849500D01*
X165013389Y-111849500D01*
X164973728Y-111855781D01*
X164842302Y-111876597D01*
X164677552Y-111930128D01*
X164523211Y-112008768D01*
X164443256Y-112066859D01*
X164383072Y-112110586D01*
X164383070Y-112110588D01*
X164383069Y-112110588D01*
X164260588Y-112233069D01*
X164260588Y-112233070D01*
X164260586Y-112233072D01*
X164220929Y-112287655D01*
X164158768Y-112373211D01*
X164080128Y-112527552D01*
X164026597Y-112692302D01*
X163999500Y-112863389D01*
X144297737Y-112863389D01*
X144273964Y-112805996D01*
X144259397Y-112770827D01*
X144259390Y-112770814D01*
X144171789Y-112639711D01*
X144171786Y-112639707D01*
X144060292Y-112528213D01*
X144060288Y-112528210D01*
X143929185Y-112440609D01*
X143929172Y-112440602D01*
X143783501Y-112380264D01*
X143783489Y-112380261D01*
X143628845Y-112349500D01*
X143628842Y-112349500D01*
X143471158Y-112349500D01*
X143465066Y-112349500D01*
X143465066Y-112346690D01*
X143408200Y-112335806D01*
X143357572Y-112287655D01*
X143340880Y-112225518D01*
X143340880Y-111014555D01*
X143360565Y-110947516D01*
X143361746Y-110945710D01*
X143399774Y-110888799D01*
X143460117Y-110743117D01*
X143490880Y-110588462D01*
X143490880Y-110430778D01*
X143490880Y-110430775D01*
X143490879Y-110430773D01*
X143460118Y-110276130D01*
X143460117Y-110276123D01*
X143411811Y-110159500D01*
X143399777Y-110130447D01*
X143399770Y-110130434D01*
X143312169Y-109999331D01*
X143312166Y-109999327D01*
X143200672Y-109887833D01*
X143200668Y-109887830D01*
X143069565Y-109800229D01*
X143069552Y-109800222D01*
X142923881Y-109739884D01*
X142923869Y-109739881D01*
X142769225Y-109709120D01*
X142769222Y-109709120D01*
X142611538Y-109709120D01*
X142611535Y-109709120D01*
X142456890Y-109739881D01*
X142456878Y-109739884D01*
X142311207Y-109800222D01*
X142311194Y-109800229D01*
X142180091Y-109887830D01*
X142180087Y-109887833D01*
X142068593Y-109999327D01*
X142068590Y-109999331D01*
X141980989Y-110130434D01*
X141980982Y-110130447D01*
X141920644Y-110276118D01*
X141920641Y-110276130D01*
X141889880Y-110430773D01*
X141889880Y-110588466D01*
X141920641Y-110743109D01*
X141920644Y-110743121D01*
X141980982Y-110888792D01*
X141980986Y-110888799D01*
X142018982Y-110945664D01*
X142039860Y-111012341D01*
X142039880Y-111014555D01*
X142039880Y-113376679D01*
X142020195Y-113443718D01*
X142003561Y-113464360D01*
X141928213Y-113539707D01*
X141928210Y-113539711D01*
X141840609Y-113670814D01*
X141840602Y-113670827D01*
X141780264Y-113816498D01*
X141780261Y-113816510D01*
X141749500Y-113971153D01*
X135800500Y-113971153D01*
X135800500Y-111137184D01*
X135820185Y-111070145D01*
X135851609Y-111036870D01*
X135916928Y-110989414D01*
X136039414Y-110866928D01*
X136141232Y-110726788D01*
X136219873Y-110572445D01*
X136273402Y-110407701D01*
X136300500Y-110236611D01*
X136300500Y-110063389D01*
X136273402Y-109892299D01*
X136219873Y-109727555D01*
X136141232Y-109573212D01*
X136039414Y-109433072D01*
X135916928Y-109310586D01*
X135776788Y-109208768D01*
X135702963Y-109171153D01*
X146849500Y-109171153D01*
X146849500Y-109328846D01*
X146880261Y-109483489D01*
X146880264Y-109483501D01*
X146940602Y-109629172D01*
X146940609Y-109629185D01*
X147028210Y-109760288D01*
X147028213Y-109760292D01*
X147139707Y-109871786D01*
X147139711Y-109871789D01*
X147270814Y-109959390D01*
X147270827Y-109959397D01*
X147416498Y-110019735D01*
X147416503Y-110019737D01*
X147571153Y-110050499D01*
X147571156Y-110050500D01*
X147571158Y-110050500D01*
X147728844Y-110050500D01*
X147728845Y-110050499D01*
X147883497Y-110019737D01*
X148029179Y-109959394D01*
X148160289Y-109871789D01*
X148271789Y-109760289D01*
X148359394Y-109629179D01*
X148419737Y-109483497D01*
X148433079Y-109416416D01*
X148465463Y-109354509D01*
X148466958Y-109352986D01*
X148926556Y-108893389D01*
X155299500Y-108893389D01*
X155299500Y-109066610D01*
X155316058Y-109171158D01*
X155326598Y-109237701D01*
X155380127Y-109402445D01*
X155458768Y-109556788D01*
X155560586Y-109696928D01*
X155683072Y-109819414D01*
X155823212Y-109921232D01*
X155977555Y-109999873D01*
X156142299Y-110053402D01*
X156313389Y-110080500D01*
X156313390Y-110080500D01*
X156486610Y-110080500D01*
X156486611Y-110080500D01*
X156657701Y-110053402D01*
X156822445Y-109999873D01*
X156976788Y-109921232D01*
X157116928Y-109819414D01*
X157239414Y-109696928D01*
X157341232Y-109556788D01*
X157419873Y-109402445D01*
X157473402Y-109237701D01*
X157500500Y-109066611D01*
X157500500Y-108893389D01*
X157473402Y-108722299D01*
X157419873Y-108557555D01*
X157341232Y-108403212D01*
X157239414Y-108263072D01*
X157116928Y-108140586D01*
X156976788Y-108038768D01*
X156822445Y-107960127D01*
X156657701Y-107906598D01*
X156657699Y-107906597D01*
X156657698Y-107906597D01*
X156514524Y-107883921D01*
X156486611Y-107879500D01*
X156313389Y-107879500D01*
X156285476Y-107883921D01*
X156142302Y-107906597D01*
X155977552Y-107960128D01*
X155823211Y-108038768D01*
X155743256Y-108096859D01*
X155683072Y-108140586D01*
X155683070Y-108140588D01*
X155683069Y-108140588D01*
X155560588Y-108263069D01*
X155560588Y-108263070D01*
X155560586Y-108263072D01*
X155516859Y-108323256D01*
X155458768Y-108403211D01*
X155380128Y-108557552D01*
X155326597Y-108722302D01*
X155299500Y-108893389D01*
X148926556Y-108893389D01*
X149705277Y-108114669D01*
X149776465Y-108008127D01*
X149825501Y-107889744D01*
X149839018Y-107821789D01*
X149850500Y-107764069D01*
X149850500Y-107698856D01*
X149851095Y-107692804D01*
X149861987Y-107665814D01*
X149870185Y-107637896D01*
X149871366Y-107636090D01*
X149909394Y-107579179D01*
X149969737Y-107433497D01*
X150000500Y-107278842D01*
X150000500Y-107121158D01*
X150000500Y-107121155D01*
X150000499Y-107121153D01*
X149982849Y-107032421D01*
X149969737Y-106966503D01*
X149951976Y-106923623D01*
X149909397Y-106820827D01*
X149909390Y-106820814D01*
X149821789Y-106689711D01*
X149821786Y-106689707D01*
X149710292Y-106578213D01*
X149710288Y-106578210D01*
X149579185Y-106490609D01*
X149579172Y-106490602D01*
X149433501Y-106430264D01*
X149433489Y-106430261D01*
X149278845Y-106399500D01*
X149278842Y-106399500D01*
X149121158Y-106399500D01*
X149121155Y-106399500D01*
X148966510Y-106430261D01*
X148966498Y-106430264D01*
X148820827Y-106490602D01*
X148820814Y-106490609D01*
X148689711Y-106578210D01*
X148689707Y-106578213D01*
X148578213Y-106689707D01*
X148578210Y-106689711D01*
X148490609Y-106820814D01*
X148490602Y-106820827D01*
X148430264Y-106966498D01*
X148430261Y-106966510D01*
X148399500Y-107121153D01*
X148399500Y-107278846D01*
X148430260Y-107433488D01*
X148430263Y-107433496D01*
X148432621Y-107439190D01*
X148440084Y-107508660D01*
X148408805Y-107571137D01*
X148405737Y-107574315D01*
X147547068Y-108432984D01*
X147485745Y-108466469D01*
X147483579Y-108466920D01*
X147416508Y-108480261D01*
X147416498Y-108480264D01*
X147270827Y-108540602D01*
X147270814Y-108540609D01*
X147139711Y-108628210D01*
X147139707Y-108628213D01*
X147028213Y-108739707D01*
X147028210Y-108739711D01*
X146940609Y-108870814D01*
X146940602Y-108870827D01*
X146880264Y-109016498D01*
X146880261Y-109016510D01*
X146849500Y-109171153D01*
X135702963Y-109171153D01*
X135651252Y-109144805D01*
X135622447Y-109130128D01*
X135622446Y-109130127D01*
X135622445Y-109130127D01*
X135457701Y-109076598D01*
X135457699Y-109076597D01*
X135457698Y-109076597D01*
X135326271Y-109055781D01*
X135286611Y-109049500D01*
X135113389Y-109049500D01*
X135073728Y-109055781D01*
X134942302Y-109076597D01*
X134777552Y-109130128D01*
X134623211Y-109208768D01*
X134583389Y-109237701D01*
X134483072Y-109310586D01*
X134483070Y-109310588D01*
X134483069Y-109310588D01*
X134360588Y-109433069D01*
X134360588Y-109433070D01*
X134360586Y-109433072D01*
X134323956Y-109483489D01*
X134258768Y-109573211D01*
X134180126Y-109727556D01*
X134176136Y-109739834D01*
X134145889Y-109789189D01*
X134022863Y-109912214D01*
X134022860Y-109912218D01*
X133913371Y-110076079D01*
X133913364Y-110076092D01*
X133837950Y-110258160D01*
X133837947Y-110258170D01*
X133799500Y-110451456D01*
X125100500Y-110451456D01*
X125100500Y-107953999D01*
X126641884Y-107953999D01*
X126641885Y-107954000D01*
X127400316Y-107954000D01*
X127395921Y-107958395D01*
X127343260Y-108049606D01*
X127316001Y-108151339D01*
X127316001Y-108256661D01*
X127343260Y-108358394D01*
X127395921Y-108449605D01*
X127400316Y-108454000D01*
X126641885Y-108454000D01*
X126643085Y-108461584D01*
X126696591Y-108626255D01*
X126775195Y-108780524D01*
X126876967Y-108920602D01*
X126999397Y-109043032D01*
X127139475Y-109144804D01*
X127293742Y-109223408D01*
X127458415Y-109276914D01*
X127629429Y-109304000D01*
X127766000Y-109304000D01*
X127766000Y-108603999D01*
X128266000Y-108603999D01*
X128266000Y-109304000D01*
X128402571Y-109304000D01*
X128573584Y-109276914D01*
X128738257Y-109223408D01*
X128892524Y-109144804D01*
X129032602Y-109043032D01*
X129155032Y-108920602D01*
X129256804Y-108780524D01*
X129335408Y-108626255D01*
X129388914Y-108461584D01*
X129390115Y-108454000D01*
X128631684Y-108454000D01*
X128636079Y-108449605D01*
X128688740Y-108358394D01*
X128715999Y-108256661D01*
X128715999Y-108151339D01*
X128688740Y-108049606D01*
X128636079Y-107958395D01*
X128631684Y-107954000D01*
X129390115Y-107954000D01*
X129390115Y-107953999D01*
X130721884Y-107953999D01*
X130721885Y-107954000D01*
X131480304Y-107954000D01*
X131475909Y-107958395D01*
X131423248Y-108049606D01*
X131395989Y-108151339D01*
X131395989Y-108256661D01*
X131423248Y-108358394D01*
X131475909Y-108449605D01*
X131480304Y-108454000D01*
X130721885Y-108454000D01*
X130723085Y-108461584D01*
X130776591Y-108626255D01*
X130855195Y-108780524D01*
X130956967Y-108920602D01*
X131079397Y-109043032D01*
X131219476Y-109144805D01*
X131220621Y-109145388D01*
X131220979Y-109145726D01*
X131223627Y-109147349D01*
X131223286Y-109147905D01*
X131271419Y-109193360D01*
X131288217Y-109261180D01*
X131271719Y-109317874D01*
X131206312Y-109431163D01*
X131206312Y-109431164D01*
X131170500Y-109564817D01*
X131170500Y-109703183D01*
X131196504Y-109800229D01*
X131206312Y-109836835D01*
X131206313Y-109836838D01*
X131275492Y-109956661D01*
X131275494Y-109956664D01*
X131275495Y-109956665D01*
X131373335Y-110054505D01*
X131373336Y-110054506D01*
X131373338Y-110054507D01*
X131410725Y-110076092D01*
X131493164Y-110123688D01*
X131626817Y-110159500D01*
X131626819Y-110159500D01*
X131765181Y-110159500D01*
X131765183Y-110159500D01*
X131898836Y-110123688D01*
X132018665Y-110054505D01*
X132116505Y-109956665D01*
X132185688Y-109836836D01*
X132221500Y-109703183D01*
X132221500Y-109564817D01*
X132185688Y-109431164D01*
X132126613Y-109328842D01*
X132116507Y-109311338D01*
X132116503Y-109311333D01*
X132018664Y-109213494D01*
X132007999Y-109207337D01*
X131959784Y-109156769D01*
X131946000Y-109099950D01*
X131946000Y-108603999D01*
X132446000Y-108603999D01*
X132446000Y-109304000D01*
X132682571Y-109304000D01*
X132853584Y-109276914D01*
X133018257Y-109223408D01*
X133172524Y-109144804D01*
X133312602Y-109043032D01*
X133435032Y-108920602D01*
X133536804Y-108780524D01*
X133615408Y-108626255D01*
X133668914Y-108461584D01*
X133670115Y-108454000D01*
X132911696Y-108454000D01*
X132916091Y-108449605D01*
X132968752Y-108358394D01*
X132996011Y-108256661D01*
X132996011Y-108151339D01*
X132968752Y-108049606D01*
X132916091Y-107958395D01*
X132911696Y-107954000D01*
X133670115Y-107954000D01*
X133670115Y-107953999D01*
X133668914Y-107946415D01*
X133615408Y-107781744D01*
X133536804Y-107627475D01*
X133435032Y-107487397D01*
X133312602Y-107364967D01*
X133172524Y-107263195D01*
X133018256Y-107184591D01*
X132940988Y-107159485D01*
X132883313Y-107120047D01*
X132856115Y-107055688D01*
X132868030Y-106986842D01*
X132915275Y-106935366D01*
X132940989Y-106923623D01*
X133064755Y-106883408D01*
X133219024Y-106804804D01*
X133359102Y-106703032D01*
X133481532Y-106580602D01*
X133583304Y-106440524D01*
X133661908Y-106286255D01*
X133715414Y-106121584D01*
X133716615Y-106114000D01*
X132958171Y-106114000D01*
X132962566Y-106109605D01*
X133015227Y-106018394D01*
X133042486Y-105916661D01*
X133042486Y-105811339D01*
X133015227Y-105709606D01*
X132962566Y-105618395D01*
X132958171Y-105614000D01*
X133716615Y-105614000D01*
X133716615Y-105613999D01*
X133715414Y-105606415D01*
X133661908Y-105441744D01*
X133583304Y-105287475D01*
X133481532Y-105147397D01*
X133397932Y-105063797D01*
X149700000Y-105063797D01*
X149730741Y-105218343D01*
X149730743Y-105218351D01*
X149791047Y-105363939D01*
X149791052Y-105363948D01*
X149878598Y-105494969D01*
X149878601Y-105494973D01*
X149990026Y-105606398D01*
X149990034Y-105606404D01*
X150121047Y-105693944D01*
X150121065Y-105693954D01*
X150249999Y-105747360D01*
X150250000Y-105747360D01*
X150750000Y-105747360D01*
X150878934Y-105693954D01*
X150878952Y-105693944D01*
X151009965Y-105606404D01*
X151009973Y-105606398D01*
X151047318Y-105569053D01*
X151108640Y-105535567D01*
X151178332Y-105540551D01*
X151222682Y-105569053D01*
X151260026Y-105606398D01*
X151260034Y-105606404D01*
X151391047Y-105693944D01*
X151391065Y-105693954D01*
X151519999Y-105747360D01*
X151520000Y-105747360D01*
X151520000Y-104590000D01*
X150750000Y-104590000D01*
X150750000Y-105747360D01*
X150250000Y-105747360D01*
X150250000Y-104590000D01*
X149700000Y-104590000D01*
X149700000Y-105063797D01*
X133397932Y-105063797D01*
X133359102Y-105024967D01*
X133219024Y-104923195D01*
X133064757Y-104844591D01*
X132900084Y-104791085D01*
X132729071Y-104764000D01*
X132492500Y-104764000D01*
X132492500Y-105464001D01*
X131992500Y-105464001D01*
X131992500Y-104968049D01*
X132012185Y-104901010D01*
X132054504Y-104860660D01*
X132065165Y-104854505D01*
X132163005Y-104756665D01*
X132192602Y-104705402D01*
X132224220Y-104650638D01*
X132224220Y-104650637D01*
X132224995Y-104649294D01*
X132232188Y-104636836D01*
X132268000Y-104503183D01*
X132268000Y-104364817D01*
X132232188Y-104231164D01*
X132163005Y-104111335D01*
X132065165Y-104013495D01*
X132065164Y-104013494D01*
X132065161Y-104013492D01*
X131945338Y-103944313D01*
X131945337Y-103944312D01*
X131945336Y-103944312D01*
X131811683Y-103908500D01*
X131673317Y-103908500D01*
X131539664Y-103944312D01*
X131539661Y-103944313D01*
X131419838Y-104013492D01*
X131419833Y-104013496D01*
X131321996Y-104111333D01*
X131321992Y-104111338D01*
X131252813Y-104231161D01*
X131252812Y-104231164D01*
X131217000Y-104364817D01*
X131217000Y-104503183D01*
X131240263Y-104590000D01*
X131252812Y-104636835D01*
X131252815Y-104636842D01*
X131318218Y-104750125D01*
X131334691Y-104818025D01*
X131311838Y-104884052D01*
X131269875Y-104920241D01*
X131270127Y-104920651D01*
X131267616Y-104922189D01*
X131267137Y-104922603D01*
X131265979Y-104923192D01*
X131125897Y-105024967D01*
X131003467Y-105147397D01*
X130901695Y-105287475D01*
X130823091Y-105441744D01*
X130769585Y-105606415D01*
X130768384Y-105613999D01*
X130768385Y-105614000D01*
X131526829Y-105614000D01*
X131522434Y-105618395D01*
X131469773Y-105709606D01*
X131442514Y-105811339D01*
X131442514Y-105916661D01*
X131469773Y-106018394D01*
X131522434Y-106109605D01*
X131526829Y-106114000D01*
X130768385Y-106114000D01*
X130769585Y-106121584D01*
X130823091Y-106286255D01*
X130901695Y-106440524D01*
X131003467Y-106580602D01*
X131125897Y-106703032D01*
X131265975Y-106804804D01*
X131420244Y-106883408D01*
X131497510Y-106908514D01*
X131555186Y-106947952D01*
X131582384Y-107012310D01*
X131570469Y-107081156D01*
X131523225Y-107132632D01*
X131497511Y-107144376D01*
X131373743Y-107184591D01*
X131219475Y-107263195D01*
X131079397Y-107364967D01*
X130956967Y-107487397D01*
X130855195Y-107627475D01*
X130776591Y-107781744D01*
X130723085Y-107946415D01*
X130721884Y-107953999D01*
X129390115Y-107953999D01*
X129388914Y-107946415D01*
X129335408Y-107781744D01*
X129256804Y-107627475D01*
X129155032Y-107487397D01*
X129032602Y-107364967D01*
X128892524Y-107263195D01*
X128738256Y-107184591D01*
X128660988Y-107159485D01*
X128603313Y-107120047D01*
X128576115Y-107055688D01*
X128588030Y-106986842D01*
X128635275Y-106935366D01*
X128660989Y-106923623D01*
X128784755Y-106883408D01*
X128939024Y-106804804D01*
X129079102Y-106703032D01*
X129201532Y-106580602D01*
X129303304Y-106440524D01*
X129381908Y-106286255D01*
X129435414Y-106121584D01*
X129436615Y-106114000D01*
X128678184Y-106114000D01*
X128682579Y-106109605D01*
X128735240Y-106018394D01*
X128762499Y-105916661D01*
X128762499Y-105811339D01*
X128735240Y-105709606D01*
X128682579Y-105618395D01*
X128678184Y-105614000D01*
X129436615Y-105614000D01*
X129436615Y-105613999D01*
X129435414Y-105606415D01*
X129381908Y-105441744D01*
X129303304Y-105287475D01*
X129201532Y-105147397D01*
X129079102Y-105024967D01*
X128939024Y-104923195D01*
X128784757Y-104844591D01*
X128620084Y-104791085D01*
X128449071Y-104764000D01*
X128312500Y-104764000D01*
X128312500Y-105464001D01*
X127812500Y-105464001D01*
X127812500Y-104764000D01*
X127675929Y-104764000D01*
X127504915Y-104791085D01*
X127340242Y-104844591D01*
X127185975Y-104923195D01*
X127045897Y-105024967D01*
X126923467Y-105147397D01*
X126821695Y-105287475D01*
X126743091Y-105441744D01*
X126689585Y-105606415D01*
X126688384Y-105613999D01*
X126688385Y-105614000D01*
X127446816Y-105614000D01*
X127442421Y-105618395D01*
X127389760Y-105709606D01*
X127362501Y-105811339D01*
X127362501Y-105916661D01*
X127389760Y-106018394D01*
X127442421Y-106109605D01*
X127446816Y-106114000D01*
X126688385Y-106114000D01*
X126689585Y-106121584D01*
X126743091Y-106286255D01*
X126821695Y-106440524D01*
X126923467Y-106580602D01*
X127045897Y-106703032D01*
X127185975Y-106804804D01*
X127340244Y-106883408D01*
X127417510Y-106908514D01*
X127475186Y-106947952D01*
X127502384Y-107012310D01*
X127490469Y-107081156D01*
X127443225Y-107132632D01*
X127417511Y-107144376D01*
X127293743Y-107184591D01*
X127139475Y-107263195D01*
X126999397Y-107364967D01*
X126876967Y-107487397D01*
X126775195Y-107627475D01*
X126696591Y-107781744D01*
X126643085Y-107946415D01*
X126641884Y-107953999D01*
X125100500Y-107953999D01*
X125100500Y-96953999D01*
X126688384Y-96953999D01*
X126688385Y-96954000D01*
X127446816Y-96954000D01*
X127442421Y-96958395D01*
X127389760Y-97049606D01*
X127362501Y-97151339D01*
X127362501Y-97256661D01*
X127389760Y-97358394D01*
X127442421Y-97449605D01*
X127446816Y-97454000D01*
X126688385Y-97454000D01*
X126689585Y-97461584D01*
X126743091Y-97626255D01*
X126821695Y-97780524D01*
X126923467Y-97920602D01*
X127045897Y-98043032D01*
X127185975Y-98144804D01*
X127340242Y-98223408D01*
X127504915Y-98276914D01*
X127675929Y-98304000D01*
X127812500Y-98304000D01*
X127812500Y-97603999D01*
X128312500Y-97603999D01*
X128312500Y-98304000D01*
X128449071Y-98304000D01*
X128620084Y-98276914D01*
X128784757Y-98223408D01*
X128939024Y-98144804D01*
X129079102Y-98043032D01*
X129201532Y-97920602D01*
X129303304Y-97780524D01*
X129381908Y-97626255D01*
X129435414Y-97461584D01*
X129436615Y-97454000D01*
X128678184Y-97454000D01*
X128682579Y-97449605D01*
X128735240Y-97358394D01*
X128762499Y-97256661D01*
X128762499Y-97151339D01*
X128735240Y-97049606D01*
X128682579Y-96958395D01*
X128678184Y-96954000D01*
X129436615Y-96954000D01*
X129436615Y-96953999D01*
X130768384Y-96953999D01*
X130768385Y-96954000D01*
X131526804Y-96954000D01*
X131522409Y-96958395D01*
X131469748Y-97049606D01*
X131442489Y-97151339D01*
X131442489Y-97256661D01*
X131469748Y-97358394D01*
X131522409Y-97449605D01*
X131526804Y-97454000D01*
X130768385Y-97454000D01*
X130769585Y-97461584D01*
X130823091Y-97626255D01*
X130901695Y-97780524D01*
X131003467Y-97920602D01*
X131125897Y-98043032D01*
X131265976Y-98144805D01*
X131267121Y-98145388D01*
X131267479Y-98145726D01*
X131270127Y-98147349D01*
X131269786Y-98147905D01*
X131317919Y-98193360D01*
X131334717Y-98261180D01*
X131318219Y-98317874D01*
X131252812Y-98431163D01*
X131252812Y-98431164D01*
X131217000Y-98564817D01*
X131217000Y-98703183D01*
X131251919Y-98833501D01*
X131252812Y-98836835D01*
X131252813Y-98836838D01*
X131321992Y-98956661D01*
X131321994Y-98956664D01*
X131321995Y-98956665D01*
X131419835Y-99054505D01*
X131419836Y-99054506D01*
X131419838Y-99054507D01*
X131446219Y-99069738D01*
X131539664Y-99123688D01*
X131673317Y-99159500D01*
X131673319Y-99159500D01*
X131811681Y-99159500D01*
X131811683Y-99159500D01*
X131945336Y-99123688D01*
X132065165Y-99054505D01*
X132163005Y-98956665D01*
X132226673Y-98846389D01*
X133646500Y-98846389D01*
X133646500Y-99019611D01*
X133653874Y-99066168D01*
X133671601Y-99178097D01*
X133673598Y-99190701D01*
X133710097Y-99303034D01*
X133727128Y-99355447D01*
X133744946Y-99390417D01*
X133805768Y-99509788D01*
X133907586Y-99649928D01*
X134030072Y-99772414D01*
X134170212Y-99874232D01*
X134186793Y-99882680D01*
X134237589Y-99930651D01*
X134254500Y-99993165D01*
X134254500Y-103141763D01*
X134240984Y-103198059D01*
X134235128Y-103209550D01*
X134181597Y-103374302D01*
X134154500Y-103545389D01*
X134154500Y-103718610D01*
X134168654Y-103807979D01*
X134181598Y-103889701D01*
X134235127Y-104054445D01*
X134313768Y-104208788D01*
X134415586Y-104348928D01*
X134538072Y-104471414D01*
X134678212Y-104573232D01*
X134832555Y-104651873D01*
X134997299Y-104705402D01*
X135168389Y-104732500D01*
X135168390Y-104732500D01*
X135341610Y-104732500D01*
X135341611Y-104732500D01*
X135512701Y-104705402D01*
X135677445Y-104651873D01*
X135831788Y-104573232D01*
X135971928Y-104471414D01*
X136094414Y-104348928D01*
X136196232Y-104208788D01*
X136274873Y-104054445D01*
X136328402Y-103889701D01*
X136355500Y-103718611D01*
X136355500Y-103616202D01*
X149700000Y-103616202D01*
X149700000Y-104090000D01*
X150250000Y-104090000D01*
X150250000Y-102932639D01*
X150750000Y-102932639D01*
X150750000Y-104090000D01*
X151520000Y-104090000D01*
X151520000Y-102932639D01*
X152020000Y-102932639D01*
X152020000Y-105747360D01*
X152148934Y-105693954D01*
X152148952Y-105693944D01*
X152279965Y-105606404D01*
X152279973Y-105606398D01*
X152311964Y-105574407D01*
X152373286Y-105540921D01*
X152442978Y-105545905D01*
X152473649Y-105562590D01*
X152480919Y-105567997D01*
X152519711Y-105606789D01*
X152650821Y-105694394D01*
X152650906Y-105694429D01*
X152653697Y-105696505D01*
X152654862Y-105698051D01*
X152667375Y-105708321D01*
X152954584Y-105995530D01*
X152988069Y-106056853D01*
X152988520Y-106059020D01*
X153001861Y-106126089D01*
X153001864Y-106126101D01*
X153062202Y-106271772D01*
X153062209Y-106271785D01*
X153149810Y-106402888D01*
X153149813Y-106402892D01*
X153261307Y-106514386D01*
X153261311Y-106514389D01*
X153392414Y-106601990D01*
X153392427Y-106601997D01*
X153538098Y-106662335D01*
X153538103Y-106662337D01*
X153692753Y-106693099D01*
X153692756Y-106693100D01*
X153692758Y-106693100D01*
X153850444Y-106693100D01*
X153850445Y-106693099D01*
X154005097Y-106662337D01*
X154150779Y-106601994D01*
X154281889Y-106514389D01*
X154370741Y-106425536D01*
X154432062Y-106392053D01*
X154501754Y-106397037D01*
X154527312Y-106410117D01*
X154662414Y-106500390D01*
X154662427Y-106500397D01*
X154808098Y-106560735D01*
X154808103Y-106560737D01*
X154962753Y-106591499D01*
X154962756Y-106591500D01*
X154962758Y-106591500D01*
X155120444Y-106591500D01*
X155120445Y-106591499D01*
X155275097Y-106560737D01*
X155420779Y-106500394D01*
X155551889Y-106412789D01*
X155663389Y-106301289D01*
X155750994Y-106170179D01*
X155811337Y-106024497D01*
X155824487Y-105958389D01*
X155829540Y-105932989D01*
X164888500Y-105932989D01*
X164888500Y-106106211D01*
X164915598Y-106277301D01*
X164969127Y-106442045D01*
X165047768Y-106596388D01*
X165149586Y-106736528D01*
X165272072Y-106859014D01*
X165412212Y-106960832D01*
X165566555Y-107039473D01*
X165731299Y-107093002D01*
X165902389Y-107120100D01*
X165902390Y-107120100D01*
X166075610Y-107120100D01*
X166075611Y-107120100D01*
X166246701Y-107093002D01*
X166411445Y-107039473D01*
X166565788Y-106960832D01*
X166584435Y-106947283D01*
X166650238Y-106923804D01*
X166718292Y-106939628D01*
X166730205Y-106947284D01*
X166748851Y-106960831D01*
X166783812Y-106986232D01*
X166938155Y-107064873D01*
X167102899Y-107118402D01*
X167273989Y-107145500D01*
X167273990Y-107145500D01*
X167447210Y-107145500D01*
X167447211Y-107145500D01*
X167618301Y-107118402D01*
X167783045Y-107064873D01*
X167937388Y-106986232D01*
X168077528Y-106884414D01*
X168200014Y-106761928D01*
X168301832Y-106621788D01*
X168380473Y-106467445D01*
X168434002Y-106302701D01*
X168461100Y-106131611D01*
X168461100Y-105958389D01*
X168434002Y-105787299D01*
X168380473Y-105622555D01*
X168301832Y-105468212D01*
X168200014Y-105328072D01*
X168077528Y-105205586D01*
X167937388Y-105103768D01*
X167783045Y-105025127D01*
X167618301Y-104971598D01*
X167618299Y-104971597D01*
X167618298Y-104971597D01*
X167486871Y-104950781D01*
X167447211Y-104944500D01*
X167273989Y-104944500D01*
X167234328Y-104950781D01*
X167102902Y-104971597D01*
X167102899Y-104971598D01*
X166938648Y-105024967D01*
X166938152Y-105025128D01*
X166783810Y-105103769D01*
X166765163Y-105117317D01*
X166699356Y-105140795D01*
X166631302Y-105124968D01*
X166619395Y-105117315D01*
X166565791Y-105078370D01*
X166565790Y-105078369D01*
X166565788Y-105078368D01*
X166411445Y-104999727D01*
X166246701Y-104946198D01*
X166246699Y-104946197D01*
X166246698Y-104946197D01*
X166104578Y-104923688D01*
X166075611Y-104919100D01*
X165902389Y-104919100D01*
X165873422Y-104923688D01*
X165731302Y-104946197D01*
X165566552Y-104999728D01*
X165412211Y-105078368D01*
X165358606Y-105117315D01*
X165272072Y-105180186D01*
X165272070Y-105180188D01*
X165272069Y-105180188D01*
X165149588Y-105302669D01*
X165149588Y-105302670D01*
X165149586Y-105302672D01*
X165131132Y-105328072D01*
X165047768Y-105442811D01*
X164969128Y-105597152D01*
X164915597Y-105761902D01*
X164898501Y-105869844D01*
X164888500Y-105932989D01*
X155829540Y-105932989D01*
X155835321Y-105903925D01*
X155835321Y-105903924D01*
X155842099Y-105869846D01*
X155842100Y-105869844D01*
X155842100Y-105712155D01*
X155842099Y-105712153D01*
X155822575Y-105613999D01*
X155811337Y-105557503D01*
X155800180Y-105530568D01*
X155750997Y-105411827D01*
X155750990Y-105411814D01*
X155663389Y-105280711D01*
X155663386Y-105280707D01*
X155551892Y-105169213D01*
X155551888Y-105169210D01*
X155420785Y-105081609D01*
X155420772Y-105081602D01*
X155275101Y-105021264D01*
X155275091Y-105021261D01*
X155210308Y-105008375D01*
X155148397Y-104975990D01*
X155113823Y-104915274D01*
X155110500Y-104886758D01*
X155110500Y-103616155D01*
X155110499Y-103616153D01*
X155096423Y-103545389D01*
X155079737Y-103461503D01*
X155053760Y-103398789D01*
X155019397Y-103315827D01*
X155019390Y-103315814D01*
X154931789Y-103184711D01*
X154931786Y-103184707D01*
X154820292Y-103073213D01*
X154820288Y-103073210D01*
X154689185Y-102985609D01*
X154689172Y-102985602D01*
X154543501Y-102925264D01*
X154543489Y-102925261D01*
X154388845Y-102894500D01*
X154388842Y-102894500D01*
X154231158Y-102894500D01*
X154231155Y-102894500D01*
X154076510Y-102925261D01*
X154076498Y-102925264D01*
X153930827Y-102985602D01*
X153930814Y-102985609D01*
X153799711Y-103073210D01*
X153799707Y-103073213D01*
X153757681Y-103115240D01*
X153696358Y-103148725D01*
X153626666Y-103143741D01*
X153582319Y-103115240D01*
X153540292Y-103073213D01*
X153540288Y-103073210D01*
X153409185Y-102985609D01*
X153409172Y-102985602D01*
X153263501Y-102925264D01*
X153263489Y-102925261D01*
X153108845Y-102894500D01*
X153108842Y-102894500D01*
X152951158Y-102894500D01*
X152951155Y-102894500D01*
X152796510Y-102925261D01*
X152796498Y-102925264D01*
X152650827Y-102985602D01*
X152650814Y-102985609D01*
X152519711Y-103073210D01*
X152519706Y-103073214D01*
X152487326Y-103105594D01*
X152426002Y-103139079D01*
X152356311Y-103134093D01*
X152311965Y-103105593D01*
X152279973Y-103073601D01*
X152279969Y-103073598D01*
X152148948Y-102986052D01*
X152148938Y-102986047D01*
X152020000Y-102932639D01*
X151520000Y-102932639D01*
X151519999Y-102932639D01*
X151391061Y-102986047D01*
X151391051Y-102986052D01*
X151260030Y-103073598D01*
X151260026Y-103073601D01*
X151222681Y-103110947D01*
X151161358Y-103144432D01*
X151091666Y-103139448D01*
X151047319Y-103110947D01*
X151009973Y-103073601D01*
X151009969Y-103073598D01*
X150878948Y-102986052D01*
X150878938Y-102986047D01*
X150750000Y-102932639D01*
X150250000Y-102932639D01*
X150249999Y-102932639D01*
X150121061Y-102986047D01*
X150121051Y-102986052D01*
X149990030Y-103073598D01*
X149990026Y-103073601D01*
X149878601Y-103185026D01*
X149878598Y-103185030D01*
X149791052Y-103316051D01*
X149791047Y-103316060D01*
X149730743Y-103461648D01*
X149730741Y-103461656D01*
X149700000Y-103616202D01*
X136355500Y-103616202D01*
X136355500Y-103545389D01*
X136328402Y-103374299D01*
X136274873Y-103209555D01*
X136274871Y-103209552D01*
X136274871Y-103209550D01*
X136269016Y-103198059D01*
X136255500Y-103141763D01*
X136255500Y-102221153D01*
X140499500Y-102221153D01*
X140499500Y-102378846D01*
X140530261Y-102533489D01*
X140530264Y-102533501D01*
X140590602Y-102679172D01*
X140590609Y-102679185D01*
X140678210Y-102810288D01*
X140678213Y-102810292D01*
X140789707Y-102921786D01*
X140789711Y-102921789D01*
X140920814Y-103009390D01*
X140920827Y-103009397D01*
X141066498Y-103069735D01*
X141066503Y-103069737D01*
X141221153Y-103100499D01*
X141221156Y-103100500D01*
X141221158Y-103100500D01*
X141378844Y-103100500D01*
X141378845Y-103100499D01*
X141533497Y-103069737D01*
X141679179Y-103009394D01*
X141810289Y-102921789D01*
X141921789Y-102810289D01*
X142009394Y-102679179D01*
X142069737Y-102533497D01*
X142100500Y-102378842D01*
X142100500Y-102221158D01*
X142100500Y-102221155D01*
X142100499Y-102221153D01*
X142091516Y-102175992D01*
X142069737Y-102066503D01*
X142069735Y-102066498D01*
X142009397Y-101920827D01*
X142009390Y-101920814D01*
X141921789Y-101789711D01*
X141921786Y-101789707D01*
X141810292Y-101678213D01*
X141810288Y-101678210D01*
X141720429Y-101618168D01*
X141679185Y-101590609D01*
X141679172Y-101590602D01*
X141533501Y-101530264D01*
X141533489Y-101530261D01*
X141487701Y-101521153D01*
X158330500Y-101521153D01*
X158330500Y-101678846D01*
X158361261Y-101833489D01*
X158361264Y-101833501D01*
X158421602Y-101979172D01*
X158421609Y-101979185D01*
X158478217Y-102063904D01*
X158499095Y-102130581D01*
X158489676Y-102180247D01*
X158437464Y-102306298D01*
X158437461Y-102306310D01*
X158406700Y-102460953D01*
X158406700Y-102618646D01*
X158437461Y-102773289D01*
X158437464Y-102773301D01*
X158497802Y-102918972D01*
X158497812Y-102918990D01*
X158525747Y-102960798D01*
X158546625Y-103027475D01*
X158537207Y-103077140D01*
X158488263Y-103195303D01*
X158488262Y-103195306D01*
X158488262Y-103195307D01*
X158488261Y-103195310D01*
X158457500Y-103349953D01*
X158457500Y-103507646D01*
X158488261Y-103662289D01*
X158488264Y-103662301D01*
X158548602Y-103807972D01*
X158548609Y-103807985D01*
X158636210Y-103939088D01*
X158636213Y-103939092D01*
X158747709Y-104050588D01*
X158753482Y-104054445D01*
X158770644Y-104065912D01*
X158815450Y-104119522D01*
X158825755Y-104169015D01*
X158825755Y-104217852D01*
X158856516Y-104372495D01*
X158856519Y-104372507D01*
X158916857Y-104518178D01*
X158916864Y-104518191D01*
X159004465Y-104649294D01*
X159004468Y-104649298D01*
X159115962Y-104760792D01*
X159115966Y-104760795D01*
X159247069Y-104848396D01*
X159247082Y-104848403D01*
X159392753Y-104908741D01*
X159392758Y-104908743D01*
X159547408Y-104939505D01*
X159547411Y-104939506D01*
X159547413Y-104939506D01*
X159705099Y-104939506D01*
X159705100Y-104939505D01*
X159859752Y-104908743D01*
X160005434Y-104848400D01*
X160136544Y-104760795D01*
X160248044Y-104649295D01*
X160335649Y-104518185D01*
X160395992Y-104372503D01*
X160426755Y-104217848D01*
X160426755Y-104060164D01*
X160426755Y-104060161D01*
X160426754Y-104060159D01*
X160417471Y-104013492D01*
X160395992Y-103905509D01*
X160355594Y-103807979D01*
X160335652Y-103759833D01*
X160335645Y-103759820D01*
X160248044Y-103628717D01*
X160248041Y-103628713D01*
X160136547Y-103517219D01*
X160136544Y-103517217D01*
X160113607Y-103501890D01*
X160068803Y-103448276D01*
X160058500Y-103398789D01*
X160058500Y-103349955D01*
X160058499Y-103349953D01*
X160027738Y-103195310D01*
X160027737Y-103195303D01*
X160006666Y-103144432D01*
X159967396Y-103049625D01*
X159967394Y-103049622D01*
X159967394Y-103049621D01*
X159939451Y-103007802D01*
X159918573Y-102941127D01*
X159927991Y-102891463D01*
X159976937Y-102773297D01*
X160007700Y-102618642D01*
X160007700Y-102460958D01*
X160007700Y-102460955D01*
X160007699Y-102460953D01*
X159976938Y-102306310D01*
X159976937Y-102306303D01*
X159941667Y-102221153D01*
X159916597Y-102160627D01*
X159916590Y-102160614D01*
X159859982Y-102075895D01*
X159839104Y-102009218D01*
X159848522Y-101959555D01*
X159900737Y-101833497D01*
X159931500Y-101678842D01*
X159931500Y-101521158D01*
X159931500Y-101521155D01*
X159931499Y-101521153D01*
X159900738Y-101366510D01*
X159900737Y-101366503D01*
X159851914Y-101248632D01*
X159840397Y-101220827D01*
X159840390Y-101220814D01*
X159752789Y-101089711D01*
X159752786Y-101089707D01*
X159641292Y-100978213D01*
X159641288Y-100978210D01*
X159510185Y-100890609D01*
X159510172Y-100890602D01*
X159364501Y-100830264D01*
X159364489Y-100830261D01*
X159209845Y-100799500D01*
X159209842Y-100799500D01*
X159052158Y-100799500D01*
X159052155Y-100799500D01*
X158897510Y-100830261D01*
X158897498Y-100830264D01*
X158751827Y-100890602D01*
X158751814Y-100890609D01*
X158620711Y-100978210D01*
X158620707Y-100978213D01*
X158509213Y-101089707D01*
X158509210Y-101089711D01*
X158421609Y-101220814D01*
X158421602Y-101220827D01*
X158361264Y-101366498D01*
X158361261Y-101366510D01*
X158330500Y-101521153D01*
X141487701Y-101521153D01*
X141378845Y-101499500D01*
X141378842Y-101499500D01*
X141221158Y-101499500D01*
X141221155Y-101499500D01*
X141066510Y-101530261D01*
X141066498Y-101530264D01*
X140920827Y-101590602D01*
X140920814Y-101590609D01*
X140789711Y-101678210D01*
X140789707Y-101678213D01*
X140678213Y-101789707D01*
X140678210Y-101789711D01*
X140590609Y-101920814D01*
X140590602Y-101920827D01*
X140530264Y-102066498D01*
X140530261Y-102066510D01*
X140499500Y-102221153D01*
X136255500Y-102221153D01*
X136255500Y-99921153D01*
X139599500Y-99921153D01*
X139599500Y-100078846D01*
X139630261Y-100233489D01*
X139630264Y-100233501D01*
X139690602Y-100379172D01*
X139690609Y-100379185D01*
X139778210Y-100510288D01*
X139778213Y-100510292D01*
X139889707Y-100621786D01*
X139889711Y-100621789D01*
X140020814Y-100709390D01*
X140020827Y-100709397D01*
X140166498Y-100769735D01*
X140166503Y-100769737D01*
X140316131Y-100799500D01*
X140321153Y-100800499D01*
X140321156Y-100800500D01*
X140321158Y-100800500D01*
X140478844Y-100800500D01*
X140478845Y-100800499D01*
X140633497Y-100769737D01*
X140779179Y-100709394D01*
X140910289Y-100621789D01*
X141021789Y-100510289D01*
X141109394Y-100379179D01*
X141169737Y-100233497D01*
X141200500Y-100078842D01*
X141200500Y-99921158D01*
X141200500Y-99921155D01*
X141200499Y-99921153D01*
X141199708Y-99917178D01*
X141169737Y-99766503D01*
X141124124Y-99656384D01*
X141116656Y-99586918D01*
X141135584Y-99540043D01*
X141209394Y-99429579D01*
X141269737Y-99283897D01*
X141300500Y-99129242D01*
X141300500Y-98971558D01*
X141300500Y-98971555D01*
X141300499Y-98971553D01*
X141287417Y-98905785D01*
X141269737Y-98816903D01*
X141266999Y-98810292D01*
X141244206Y-98755264D01*
X141227072Y-98713899D01*
X141899500Y-98713899D01*
X141899500Y-98871592D01*
X141930261Y-99026235D01*
X141930264Y-99026247D01*
X141990602Y-99171918D01*
X141990609Y-99171931D01*
X142078210Y-99303034D01*
X142078213Y-99303038D01*
X142189707Y-99414532D01*
X142189711Y-99414535D01*
X142320814Y-99502136D01*
X142320827Y-99502143D01*
X142462172Y-99560689D01*
X142466503Y-99562483D01*
X142615920Y-99592204D01*
X142621153Y-99593245D01*
X142621156Y-99593246D01*
X142621158Y-99593246D01*
X142778844Y-99593246D01*
X142778845Y-99593245D01*
X142933497Y-99562483D01*
X143079179Y-99502140D01*
X143210289Y-99414535D01*
X143321789Y-99303035D01*
X143409394Y-99171925D01*
X143421525Y-99142636D01*
X143465361Y-99088236D01*
X143531654Y-99066168D01*
X143560255Y-99069918D01*
X143560528Y-99068549D01*
X143721153Y-99100499D01*
X143721156Y-99100500D01*
X143721158Y-99100500D01*
X143878844Y-99100500D01*
X143878845Y-99100499D01*
X144033497Y-99069737D01*
X144179179Y-99009394D01*
X144310289Y-98921789D01*
X144421789Y-98810289D01*
X144509394Y-98679179D01*
X144548317Y-98585208D01*
X144592154Y-98530809D01*
X144614890Y-98521153D01*
X148899500Y-98521153D01*
X148899500Y-98678846D01*
X148930261Y-98833489D01*
X148930264Y-98833501D01*
X148990602Y-98979172D01*
X148990609Y-98979185D01*
X149078210Y-99110288D01*
X149078213Y-99110292D01*
X149189707Y-99221786D01*
X149189711Y-99221789D01*
X149320814Y-99309390D01*
X149320827Y-99309397D01*
X149408230Y-99345599D01*
X149466503Y-99369737D01*
X149535775Y-99383515D01*
X149543474Y-99386704D01*
X149548633Y-99386797D01*
X149580471Y-99402030D01*
X149644390Y-99444739D01*
X149689196Y-99498351D01*
X149699500Y-99547841D01*
X149699500Y-99583846D01*
X149730261Y-99738489D01*
X149730264Y-99738501D01*
X149790602Y-99884172D01*
X149790609Y-99884185D01*
X149878210Y-100015288D01*
X149878213Y-100015292D01*
X149989707Y-100126786D01*
X149989711Y-100126789D01*
X150120814Y-100214390D01*
X150120827Y-100214397D01*
X150266498Y-100274735D01*
X150266503Y-100274737D01*
X150420530Y-100305375D01*
X150421153Y-100305499D01*
X150421156Y-100305500D01*
X150421158Y-100305500D01*
X150578844Y-100305500D01*
X150578845Y-100305499D01*
X150733497Y-100274737D01*
X150879179Y-100214394D01*
X151010289Y-100126789D01*
X151010292Y-100126786D01*
X151047319Y-100089760D01*
X151108642Y-100056275D01*
X151178334Y-100061259D01*
X151222681Y-100089760D01*
X151259707Y-100126786D01*
X151259711Y-100126789D01*
X151390814Y-100214390D01*
X151390827Y-100214397D01*
X151536498Y-100274735D01*
X151536503Y-100274737D01*
X151690530Y-100305375D01*
X151691153Y-100305499D01*
X151691156Y-100305500D01*
X151691158Y-100305500D01*
X151848844Y-100305500D01*
X151848845Y-100305499D01*
X152003497Y-100274737D01*
X152149179Y-100214394D01*
X152280289Y-100126789D01*
X152312318Y-100094760D01*
X152373640Y-100061274D01*
X152443332Y-100066258D01*
X152487682Y-100094760D01*
X152519707Y-100126786D01*
X152519711Y-100126789D01*
X152650814Y-100214390D01*
X152650827Y-100214397D01*
X152796498Y-100274735D01*
X152796503Y-100274737D01*
X152950530Y-100305375D01*
X152951153Y-100305499D01*
X152951156Y-100305500D01*
X152951158Y-100305500D01*
X153108844Y-100305500D01*
X153108845Y-100305499D01*
X153263497Y-100274737D01*
X153409179Y-100214394D01*
X153540289Y-100126789D01*
X153540292Y-100126786D01*
X153582319Y-100084760D01*
X153643642Y-100051275D01*
X153713334Y-100056259D01*
X153757681Y-100084760D01*
X153799707Y-100126786D01*
X153799711Y-100126789D01*
X153930814Y-100214390D01*
X153930827Y-100214397D01*
X154076498Y-100274735D01*
X154076503Y-100274737D01*
X154230530Y-100305375D01*
X154231153Y-100305499D01*
X154231156Y-100305500D01*
X154231158Y-100305500D01*
X154388844Y-100305500D01*
X154388845Y-100305499D01*
X154543497Y-100274737D01*
X154689179Y-100214394D01*
X154820289Y-100126789D01*
X154931789Y-100015289D01*
X155019394Y-99884179D01*
X155079737Y-99738497D01*
X155110500Y-99583842D01*
X155110500Y-98268198D01*
X159932010Y-98268198D01*
X159932010Y-98425891D01*
X159962771Y-98580534D01*
X159962774Y-98580546D01*
X160023112Y-98726217D01*
X160023119Y-98726230D01*
X160110720Y-98857333D01*
X160110723Y-98857337D01*
X160222217Y-98968831D01*
X160222221Y-98968834D01*
X160353324Y-99056435D01*
X160353337Y-99056442D01*
X160499008Y-99116780D01*
X160499013Y-99116782D01*
X160629014Y-99142641D01*
X160653663Y-99147544D01*
X160653666Y-99147545D01*
X160653668Y-99147545D01*
X160811354Y-99147545D01*
X160811355Y-99147544D01*
X160966007Y-99116782D01*
X161111689Y-99056439D01*
X161242799Y-98968834D01*
X161354299Y-98857334D01*
X161359822Y-98849067D01*
X161413435Y-98804264D01*
X161462924Y-98793960D01*
X161528976Y-98793960D01*
X161528977Y-98793959D01*
X161683629Y-98763197D01*
X161805352Y-98712777D01*
X161874819Y-98705309D01*
X161900255Y-98712778D01*
X162016630Y-98760981D01*
X162016635Y-98760983D01*
X162171285Y-98791745D01*
X162171288Y-98791746D01*
X162171290Y-98791746D01*
X162328976Y-98791746D01*
X162328977Y-98791745D01*
X162483629Y-98760983D01*
X162584926Y-98719024D01*
X162654391Y-98711556D01*
X162679821Y-98719023D01*
X162816503Y-98775638D01*
X162955156Y-98803218D01*
X162971153Y-98806400D01*
X162971156Y-98806401D01*
X162971158Y-98806401D01*
X163128844Y-98806401D01*
X163128845Y-98806400D01*
X163283497Y-98775638D01*
X163429179Y-98715295D01*
X163560289Y-98627690D01*
X163671789Y-98516190D01*
X163759394Y-98385080D01*
X163771351Y-98356213D01*
X163803837Y-98277785D01*
X163822931Y-98254088D01*
X163840179Y-98229020D01*
X163845345Y-98226274D01*
X163847677Y-98223381D01*
X163870455Y-98210880D01*
X163877227Y-98208040D01*
X163878237Y-98207840D01*
X164023919Y-98147497D01*
X164027756Y-98144932D01*
X164037574Y-98140817D01*
X164066734Y-98137555D01*
X164095460Y-98131573D01*
X164103310Y-98133464D01*
X164107011Y-98133051D01*
X164112147Y-98135594D01*
X164132969Y-98140613D01*
X164218134Y-98175889D01*
X164256257Y-98191680D01*
X164365923Y-98213494D01*
X164410907Y-98222442D01*
X164410910Y-98222443D01*
X164410912Y-98222443D01*
X164568598Y-98222443D01*
X164568599Y-98222442D01*
X164723251Y-98191680D01*
X164868933Y-98131337D01*
X165000043Y-98043732D01*
X165111543Y-97932232D01*
X165157433Y-97863553D01*
X165645700Y-97863553D01*
X165645700Y-98021246D01*
X165676461Y-98175889D01*
X165676464Y-98175901D01*
X165736802Y-98321572D01*
X165736809Y-98321585D01*
X165824410Y-98452688D01*
X165824413Y-98452692D01*
X165935907Y-98564186D01*
X165935911Y-98564189D01*
X166067014Y-98651790D01*
X166067027Y-98651797D01*
X166204241Y-98708632D01*
X166212703Y-98712137D01*
X166367353Y-98742899D01*
X166367356Y-98742900D01*
X166367358Y-98742900D01*
X166525044Y-98742900D01*
X166525045Y-98742899D01*
X166679697Y-98712137D01*
X166688311Y-98708568D01*
X166757779Y-98701099D01*
X166804656Y-98720027D01*
X166930614Y-98804190D01*
X166930627Y-98804197D01*
X167076298Y-98864535D01*
X167076303Y-98864537D01*
X167202197Y-98889579D01*
X167230953Y-98895299D01*
X167230956Y-98895300D01*
X167230958Y-98895300D01*
X167263725Y-98895300D01*
X167330764Y-98914985D01*
X167366827Y-98950410D01*
X167424607Y-99036884D01*
X167424613Y-99036892D01*
X167536107Y-99148386D01*
X167536111Y-99148389D01*
X167667214Y-99235990D01*
X167667227Y-99235997D01*
X167812898Y-99296335D01*
X167812903Y-99296337D01*
X167967553Y-99327099D01*
X167967556Y-99327100D01*
X167967558Y-99327100D01*
X168125244Y-99327100D01*
X168125245Y-99327099D01*
X168279897Y-99296337D01*
X168425579Y-99235994D01*
X168556689Y-99148389D01*
X168668189Y-99036889D01*
X168731657Y-98941902D01*
X175099500Y-98941902D01*
X175099500Y-99178097D01*
X175136446Y-99411368D01*
X175209433Y-99635996D01*
X175275934Y-99766510D01*
X175316657Y-99846433D01*
X175455483Y-100037510D01*
X175622490Y-100204517D01*
X175657127Y-100229683D01*
X175699792Y-100285013D01*
X175705771Y-100354626D01*
X175673165Y-100416421D01*
X175657130Y-100430315D01*
X175639365Y-100443222D01*
X175622488Y-100455484D01*
X175455485Y-100622487D01*
X175455485Y-100622488D01*
X175455483Y-100622490D01*
X175395862Y-100704550D01*
X175316657Y-100813566D01*
X175209433Y-101024003D01*
X175136446Y-101248631D01*
X175099500Y-101481902D01*
X175099500Y-101718097D01*
X175136446Y-101951368D01*
X175209433Y-102175996D01*
X175275832Y-102306310D01*
X175316657Y-102386433D01*
X175455483Y-102577510D01*
X175622490Y-102744517D01*
X175657127Y-102769683D01*
X175699792Y-102825013D01*
X175705771Y-102894626D01*
X175673165Y-102956421D01*
X175657130Y-102970315D01*
X175639365Y-102983222D01*
X175622488Y-102995484D01*
X175455485Y-103162487D01*
X175455485Y-103162488D01*
X175455483Y-103162490D01*
X175439110Y-103185026D01*
X175316657Y-103353566D01*
X175209433Y-103564003D01*
X175136446Y-103788631D01*
X175099500Y-104021902D01*
X175099500Y-104258097D01*
X175136446Y-104491368D01*
X175209433Y-104715996D01*
X175315006Y-104923192D01*
X175316657Y-104926433D01*
X175455483Y-105117510D01*
X175622490Y-105284517D01*
X175813567Y-105423343D01*
X175912991Y-105474002D01*
X176024003Y-105530566D01*
X176024005Y-105530566D01*
X176024008Y-105530568D01*
X176106890Y-105557498D01*
X176248631Y-105603553D01*
X176481903Y-105640500D01*
X176481908Y-105640500D01*
X176718097Y-105640500D01*
X176951368Y-105603553D01*
X176971068Y-105597152D01*
X177175992Y-105530568D01*
X177386433Y-105423343D01*
X177577510Y-105284517D01*
X177744517Y-105117510D01*
X177883343Y-104926433D01*
X177990568Y-104715992D01*
X178063553Y-104491368D01*
X178066714Y-104471411D01*
X178100500Y-104258097D01*
X178100500Y-104021902D01*
X178063553Y-103788631D01*
X178022504Y-103662297D01*
X177990568Y-103564008D01*
X177990566Y-103564005D01*
X177990566Y-103564003D01*
X177931600Y-103448276D01*
X177883343Y-103353567D01*
X177744517Y-103162490D01*
X177577510Y-102995483D01*
X177542872Y-102970317D01*
X177500207Y-102914989D01*
X177494228Y-102845375D01*
X177526833Y-102783580D01*
X177542873Y-102769682D01*
X177577510Y-102744517D01*
X177744517Y-102577510D01*
X177883343Y-102386433D01*
X177990568Y-102175992D01*
X178063553Y-101951368D01*
X178068392Y-101920814D01*
X178100500Y-101718097D01*
X178100500Y-101481902D01*
X178063553Y-101248631D01*
X177990566Y-101024003D01*
X177922594Y-100890602D01*
X177883343Y-100813567D01*
X177744517Y-100622490D01*
X177577510Y-100455483D01*
X177542872Y-100430317D01*
X177500207Y-100374989D01*
X177494228Y-100305375D01*
X177526833Y-100243580D01*
X177542873Y-100229682D01*
X177577510Y-100204517D01*
X177744517Y-100037510D01*
X177883343Y-99846433D01*
X177990568Y-99635992D01*
X178063553Y-99411368D01*
X178076900Y-99327099D01*
X178100500Y-99178097D01*
X178100500Y-98941902D01*
X178063553Y-98708631D01*
X178021931Y-98580534D01*
X177990568Y-98484008D01*
X177990566Y-98484005D01*
X177990566Y-98484003D01*
X177907803Y-98321572D01*
X177883343Y-98273567D01*
X177744517Y-98082490D01*
X177577510Y-97915483D01*
X177386433Y-97776657D01*
X177347585Y-97756863D01*
X177175996Y-97669433D01*
X176951368Y-97596446D01*
X176718097Y-97559500D01*
X176718092Y-97559500D01*
X176481908Y-97559500D01*
X176481903Y-97559500D01*
X176248631Y-97596446D01*
X176024003Y-97669433D01*
X175813566Y-97776657D01*
X175730848Y-97836756D01*
X175622490Y-97915483D01*
X175622488Y-97915485D01*
X175622487Y-97915485D01*
X175455485Y-98082487D01*
X175455485Y-98082488D01*
X175455483Y-98082490D01*
X175419822Y-98131573D01*
X175316657Y-98273566D01*
X175209433Y-98484003D01*
X175136446Y-98708631D01*
X175099500Y-98941902D01*
X168731657Y-98941902D01*
X168755794Y-98905779D01*
X168816137Y-98760097D01*
X168846900Y-98605442D01*
X168846900Y-98447758D01*
X168846900Y-98447755D01*
X168846899Y-98447753D01*
X168842550Y-98425891D01*
X168816137Y-98293103D01*
X168810984Y-98280663D01*
X168755797Y-98147427D01*
X168755790Y-98147414D01*
X168668189Y-98016311D01*
X168668186Y-98016307D01*
X168556692Y-97904813D01*
X168556688Y-97904810D01*
X168425585Y-97817209D01*
X168425572Y-97817202D01*
X168279901Y-97756864D01*
X168279889Y-97756861D01*
X168125245Y-97726100D01*
X168125242Y-97726100D01*
X168092475Y-97726100D01*
X168025436Y-97706415D01*
X167989373Y-97670990D01*
X167931592Y-97584515D01*
X167931586Y-97584507D01*
X167820092Y-97473013D01*
X167820088Y-97473010D01*
X167688985Y-97385409D01*
X167688972Y-97385402D01*
X167543301Y-97325064D01*
X167543289Y-97325061D01*
X167388645Y-97294300D01*
X167388642Y-97294300D01*
X167230958Y-97294300D01*
X167230955Y-97294300D01*
X167076305Y-97325061D01*
X167076297Y-97325064D01*
X167067684Y-97328632D01*
X166998214Y-97336099D01*
X166951343Y-97317172D01*
X166825385Y-97233009D01*
X166825372Y-97233002D01*
X166679701Y-97172664D01*
X166679689Y-97172661D01*
X166525045Y-97141900D01*
X166525042Y-97141900D01*
X166367358Y-97141900D01*
X166367355Y-97141900D01*
X166212710Y-97172661D01*
X166212698Y-97172664D01*
X166067027Y-97233002D01*
X166067014Y-97233009D01*
X165935911Y-97320610D01*
X165935907Y-97320613D01*
X165824413Y-97432107D01*
X165824410Y-97432111D01*
X165736809Y-97563214D01*
X165736802Y-97563227D01*
X165676464Y-97708898D01*
X165676461Y-97708910D01*
X165645700Y-97863553D01*
X165157433Y-97863553D01*
X165199148Y-97801122D01*
X165259491Y-97655440D01*
X165290254Y-97500785D01*
X165290254Y-97343101D01*
X165290254Y-97343098D01*
X165290253Y-97343096D01*
X165278814Y-97285588D01*
X165259491Y-97188446D01*
X165234370Y-97127797D01*
X165199151Y-97042770D01*
X165199144Y-97042757D01*
X165111543Y-96911654D01*
X165111540Y-96911650D01*
X165000046Y-96800156D01*
X165000042Y-96800153D01*
X164868939Y-96712552D01*
X164868926Y-96712545D01*
X164723255Y-96652207D01*
X164723243Y-96652204D01*
X164568599Y-96621443D01*
X164568596Y-96621443D01*
X164410912Y-96621443D01*
X164410909Y-96621443D01*
X164256264Y-96652204D01*
X164256252Y-96652207D01*
X164110580Y-96712546D01*
X164107431Y-96714230D01*
X164105591Y-96714612D01*
X164104947Y-96714880D01*
X164104896Y-96714757D01*
X164039028Y-96728472D01*
X164001525Y-96719433D01*
X163878241Y-96668367D01*
X163878229Y-96668364D01*
X163723585Y-96637603D01*
X163723582Y-96637603D01*
X163565898Y-96637603D01*
X163565895Y-96637603D01*
X163411250Y-96668364D01*
X163411238Y-96668367D01*
X163265567Y-96728705D01*
X163265554Y-96728712D01*
X163134451Y-96816313D01*
X163134447Y-96816316D01*
X163022953Y-96927810D01*
X163022950Y-96927814D01*
X162935349Y-97058917D01*
X162935344Y-97058927D01*
X162890902Y-97166220D01*
X162871592Y-97190181D01*
X162854006Y-97215432D01*
X162849198Y-97217970D01*
X162847061Y-97220623D01*
X162823626Y-97233397D01*
X162817304Y-97236004D01*
X162816503Y-97236164D01*
X162716820Y-97277453D01*
X162715486Y-97278004D01*
X162715206Y-97278121D01*
X162715204Y-97278121D01*
X162715040Y-97278189D01*
X162680561Y-97281844D01*
X162645736Y-97285588D01*
X162645609Y-97285550D01*
X162645560Y-97285556D01*
X162645465Y-97285508D01*
X162620303Y-97278120D01*
X162483633Y-97221510D01*
X162483621Y-97221507D01*
X162328977Y-97190746D01*
X162328974Y-97190746D01*
X162171290Y-97190746D01*
X162171287Y-97190746D01*
X162016642Y-97221507D01*
X162016639Y-97221508D01*
X162016638Y-97221508D01*
X162016635Y-97221509D01*
X161937001Y-97254494D01*
X161894911Y-97271928D01*
X161825441Y-97279396D01*
X161800007Y-97271927D01*
X161683633Y-97223724D01*
X161683621Y-97223721D01*
X161528977Y-97192960D01*
X161528974Y-97192960D01*
X161371290Y-97192960D01*
X161371287Y-97192960D01*
X161216642Y-97223721D01*
X161216630Y-97223724D01*
X161070959Y-97284062D01*
X161070946Y-97284069D01*
X160939843Y-97371670D01*
X160939839Y-97371673D01*
X160828345Y-97483167D01*
X160822820Y-97491437D01*
X160769207Y-97536241D01*
X160719718Y-97546545D01*
X160653665Y-97546545D01*
X160499020Y-97577306D01*
X160499008Y-97577309D01*
X160353337Y-97637647D01*
X160353324Y-97637654D01*
X160222221Y-97725255D01*
X160222217Y-97725258D01*
X160110723Y-97836752D01*
X160110720Y-97836756D01*
X160023119Y-97967859D01*
X160023112Y-97967872D01*
X159962774Y-98113543D01*
X159962771Y-98113555D01*
X159932010Y-98268198D01*
X155110500Y-98268198D01*
X155110500Y-98193340D01*
X155130185Y-98126301D01*
X155146814Y-98105663D01*
X155231589Y-98020889D01*
X155319194Y-97889779D01*
X155379537Y-97744097D01*
X155410300Y-97589442D01*
X155410300Y-97431758D01*
X155410300Y-97431755D01*
X155410299Y-97431753D01*
X155404423Y-97402215D01*
X155379537Y-97277103D01*
X155379464Y-97276926D01*
X155319197Y-97131427D01*
X155319190Y-97131414D01*
X155231589Y-97000311D01*
X155231586Y-97000307D01*
X155120092Y-96888813D01*
X155120088Y-96888810D01*
X154988985Y-96801209D01*
X154988972Y-96801202D01*
X154843301Y-96740864D01*
X154843289Y-96740861D01*
X154688645Y-96710100D01*
X154688642Y-96710100D01*
X154530958Y-96710100D01*
X154530955Y-96710100D01*
X154376310Y-96740861D01*
X154376298Y-96740864D01*
X154230627Y-96801202D01*
X154230616Y-96801208D01*
X154190647Y-96827915D01*
X154123969Y-96848792D01*
X154056589Y-96830307D01*
X154018655Y-96793703D01*
X153986989Y-96746311D01*
X153986987Y-96746308D01*
X153875492Y-96634813D01*
X153875488Y-96634810D01*
X153744385Y-96547209D01*
X153744372Y-96547202D01*
X153598701Y-96486864D01*
X153598689Y-96486861D01*
X153444045Y-96456100D01*
X153444042Y-96456100D01*
X153286358Y-96456100D01*
X153286355Y-96456100D01*
X153131710Y-96486861D01*
X153131698Y-96486864D01*
X152986027Y-96547202D01*
X152986014Y-96547209D01*
X152854911Y-96634810D01*
X152854907Y-96634813D01*
X152743413Y-96746307D01*
X152743408Y-96746313D01*
X152714997Y-96788833D01*
X152661384Y-96833638D01*
X152592059Y-96842344D01*
X152564444Y-96834502D01*
X152433501Y-96780264D01*
X152433489Y-96780261D01*
X152278845Y-96749500D01*
X152278842Y-96749500D01*
X152121158Y-96749500D01*
X152121155Y-96749500D01*
X151966510Y-96780261D01*
X151966498Y-96780264D01*
X151820827Y-96840602D01*
X151820814Y-96840609D01*
X151689711Y-96928210D01*
X151689707Y-96928213D01*
X151578213Y-97039707D01*
X151578207Y-97039715D01*
X151490607Y-97170818D01*
X151490604Y-97170824D01*
X151472267Y-97215092D01*
X151445389Y-97255318D01*
X151264723Y-97435985D01*
X151193531Y-97542532D01*
X151190662Y-97547901D01*
X151188553Y-97546774D01*
X151151327Y-97592949D01*
X151085028Y-97614999D01*
X151017332Y-97597705D01*
X151011738Y-97594179D01*
X150879185Y-97505609D01*
X150879172Y-97505602D01*
X150733501Y-97445264D01*
X150733489Y-97445261D01*
X150578845Y-97414500D01*
X150578842Y-97414500D01*
X150421158Y-97414500D01*
X150421155Y-97414500D01*
X150266510Y-97445261D01*
X150266498Y-97445264D01*
X150120827Y-97505602D01*
X150120814Y-97505609D01*
X149989711Y-97593210D01*
X149989707Y-97593213D01*
X149878217Y-97704704D01*
X149878213Y-97704708D01*
X149878211Y-97704711D01*
X149851696Y-97744392D01*
X149798085Y-97789196D01*
X149748596Y-97799500D01*
X149621155Y-97799500D01*
X149466510Y-97830261D01*
X149466498Y-97830264D01*
X149320827Y-97890602D01*
X149320814Y-97890609D01*
X149189711Y-97978210D01*
X149189707Y-97978213D01*
X149078213Y-98089707D01*
X149078210Y-98089711D01*
X148990609Y-98220814D01*
X148990602Y-98220827D01*
X148930264Y-98366498D01*
X148930261Y-98366510D01*
X148899500Y-98521153D01*
X144614890Y-98521153D01*
X144638687Y-98511046D01*
X144647681Y-98509258D01*
X144772018Y-98457756D01*
X144793356Y-98448918D01*
X144793356Y-98448917D01*
X144793363Y-98448915D01*
X144795102Y-98447753D01*
X144848665Y-98411964D01*
X144888909Y-98385073D01*
X144924473Y-98361310D01*
X145035973Y-98249810D01*
X145123578Y-98118700D01*
X145133981Y-98093586D01*
X145146405Y-98063590D01*
X145183921Y-97973018D01*
X145214684Y-97818363D01*
X145214684Y-97660679D01*
X145214684Y-97660676D01*
X145214683Y-97660674D01*
X145205598Y-97614999D01*
X145183921Y-97506024D01*
X145174455Y-97483171D01*
X145140923Y-97402215D01*
X145137642Y-97371699D01*
X145132195Y-97341507D01*
X145133743Y-97335439D01*
X145133454Y-97332746D01*
X145140921Y-97307315D01*
X145148868Y-97288129D01*
X145192709Y-97233728D01*
X145239237Y-97213968D01*
X145252180Y-97211393D01*
X145369097Y-97188137D01*
X145506023Y-97131421D01*
X145514772Y-97127797D01*
X145514772Y-97127796D01*
X145514779Y-97127794D01*
X145645889Y-97040189D01*
X145757389Y-96928689D01*
X145844994Y-96797579D01*
X145905337Y-96651897D01*
X145905339Y-96651886D01*
X145907106Y-96646064D01*
X145909670Y-96646841D01*
X145936628Y-96595204D01*
X145978473Y-96566676D01*
X146052919Y-96535840D01*
X146184029Y-96448235D01*
X146295529Y-96336735D01*
X146383134Y-96205625D01*
X146443477Y-96059943D01*
X146474240Y-95905288D01*
X146474240Y-95747604D01*
X146474240Y-95747601D01*
X146474239Y-95747599D01*
X146444199Y-95596579D01*
X146443477Y-95592949D01*
X146443475Y-95592944D01*
X146383137Y-95447273D01*
X146383130Y-95447260D01*
X146295529Y-95316157D01*
X146295526Y-95316153D01*
X146184032Y-95204659D01*
X146184024Y-95204653D01*
X146173814Y-95197830D01*
X146129011Y-95144216D01*
X146120306Y-95074891D01*
X146150464Y-95011865D01*
X146155009Y-95007068D01*
X146214589Y-94947489D01*
X146302194Y-94816379D01*
X146362537Y-94670697D01*
X146393300Y-94516042D01*
X146393300Y-94358358D01*
X146393300Y-94358355D01*
X146393299Y-94358353D01*
X146362538Y-94203710D01*
X146362537Y-94203703D01*
X146362535Y-94203698D01*
X146302197Y-94058027D01*
X146302190Y-94058014D01*
X146214589Y-93926911D01*
X146214586Y-93926907D01*
X146103092Y-93815413D01*
X146103088Y-93815410D01*
X145971985Y-93727809D01*
X145971972Y-93727802D01*
X145826301Y-93667464D01*
X145826289Y-93667461D01*
X145671645Y-93636700D01*
X145671642Y-93636700D01*
X145513958Y-93636700D01*
X145513955Y-93636700D01*
X145359310Y-93667461D01*
X145359298Y-93667464D01*
X145213627Y-93727802D01*
X145213614Y-93727809D01*
X145082511Y-93815410D01*
X145082507Y-93815413D01*
X144971013Y-93926907D01*
X144971010Y-93926911D01*
X144883409Y-94058014D01*
X144883402Y-94058027D01*
X144823064Y-94203698D01*
X144823061Y-94203710D01*
X144792300Y-94358353D01*
X144792300Y-94372918D01*
X144772615Y-94439957D01*
X144719811Y-94485712D01*
X144715754Y-94487479D01*
X144666197Y-94508006D01*
X144666191Y-94508009D01*
X144535088Y-94595610D01*
X144535084Y-94595613D01*
X144423590Y-94707107D01*
X144423587Y-94707111D01*
X144335986Y-94838214D01*
X144335979Y-94838227D01*
X144275641Y-94983898D01*
X144275638Y-94983910D01*
X144244877Y-95138553D01*
X144244877Y-95296246D01*
X144275638Y-95450889D01*
X144275641Y-95450901D01*
X144335979Y-95596572D01*
X144335986Y-95596585D01*
X144423587Y-95727688D01*
X144423590Y-95727692D01*
X144477980Y-95782081D01*
X144491773Y-95807340D01*
X144508100Y-95831045D01*
X144508310Y-95837625D01*
X144511466Y-95843404D01*
X144509413Y-95872110D01*
X144510333Y-95900879D01*
X144506790Y-95908782D01*
X144506482Y-95913096D01*
X144496704Y-95933435D01*
X144495108Y-95936100D01*
X144426206Y-96039221D01*
X144410023Y-96078288D01*
X144405345Y-96086107D01*
X144386100Y-96103889D01*
X144369658Y-96124293D01*
X144359228Y-96128722D01*
X144354030Y-96133526D01*
X144343568Y-96135373D01*
X144323133Y-96144052D01*
X144193278Y-96169882D01*
X144193268Y-96169885D01*
X144047597Y-96230223D01*
X144047584Y-96230230D01*
X143916481Y-96317831D01*
X143916477Y-96317834D01*
X143804983Y-96429328D01*
X143804980Y-96429332D01*
X143717379Y-96560435D01*
X143717372Y-96560448D01*
X143657034Y-96706119D01*
X143657031Y-96706131D01*
X143626270Y-96860774D01*
X143626270Y-97018467D01*
X143657031Y-97173110D01*
X143657034Y-97173122D01*
X143700031Y-97276926D01*
X143703311Y-97307441D01*
X143708759Y-97337634D01*
X143707210Y-97343701D01*
X143707500Y-97346395D01*
X143700031Y-97371832D01*
X143665867Y-97454309D01*
X143622025Y-97508712D01*
X143575507Y-97528470D01*
X143566514Y-97530259D01*
X143566500Y-97530263D01*
X143420827Y-97590602D01*
X143420814Y-97590609D01*
X143289711Y-97678210D01*
X143289707Y-97678213D01*
X143178213Y-97789707D01*
X143178210Y-97789711D01*
X143090609Y-97920814D01*
X143090603Y-97920826D01*
X143078473Y-97950110D01*
X143034631Y-98004512D01*
X142968337Y-98026576D01*
X142939730Y-98022897D01*
X142939472Y-98024197D01*
X142778845Y-97992246D01*
X142778842Y-97992246D01*
X142621158Y-97992246D01*
X142621155Y-97992246D01*
X142466510Y-98023007D01*
X142466498Y-98023010D01*
X142320827Y-98083348D01*
X142320814Y-98083355D01*
X142189711Y-98170956D01*
X142189707Y-98170959D01*
X142078213Y-98282453D01*
X142078210Y-98282457D01*
X141990609Y-98413560D01*
X141990602Y-98413573D01*
X141930264Y-98559244D01*
X141930261Y-98559256D01*
X141899500Y-98713899D01*
X141227072Y-98713899D01*
X141209397Y-98671227D01*
X141209390Y-98671214D01*
X141121789Y-98540111D01*
X141121786Y-98540107D01*
X141010292Y-98428613D01*
X141010288Y-98428610D01*
X140879185Y-98341009D01*
X140879172Y-98341002D01*
X140733501Y-98280664D01*
X140733489Y-98280661D01*
X140578845Y-98249900D01*
X140578842Y-98249900D01*
X140421158Y-98249900D01*
X140421155Y-98249900D01*
X140266510Y-98280661D01*
X140266498Y-98280664D01*
X140120827Y-98341002D01*
X140120814Y-98341009D01*
X139989711Y-98428610D01*
X139989707Y-98428613D01*
X139878213Y-98540107D01*
X139878210Y-98540111D01*
X139790609Y-98671214D01*
X139790602Y-98671227D01*
X139730264Y-98816898D01*
X139730261Y-98816910D01*
X139699500Y-98971553D01*
X139699500Y-99129246D01*
X139730261Y-99283889D01*
X139730264Y-99283901D01*
X139775874Y-99394014D01*
X139783343Y-99463483D01*
X139764415Y-99510357D01*
X139690609Y-99620814D01*
X139690602Y-99620827D01*
X139630264Y-99766498D01*
X139630261Y-99766510D01*
X139599500Y-99921153D01*
X136255500Y-99921153D01*
X136255500Y-99342456D01*
X136234323Y-99235997D01*
X136230245Y-99215494D01*
X136217051Y-99149164D01*
X136170545Y-99036889D01*
X136141632Y-98967086D01*
X136134666Y-98956661D01*
X136032140Y-98803219D01*
X135971820Y-98742899D01*
X135892782Y-98663861D01*
X135892781Y-98663860D01*
X135856608Y-98627687D01*
X135801109Y-98572188D01*
X135770859Y-98522823D01*
X135766873Y-98510555D01*
X135702941Y-98385080D01*
X135688233Y-98356213D01*
X135663074Y-98321585D01*
X135586414Y-98216072D01*
X135463928Y-98093586D01*
X135323788Y-97991768D01*
X135169445Y-97913127D01*
X135004701Y-97859598D01*
X135004699Y-97859597D01*
X135004698Y-97859597D01*
X134860457Y-97836752D01*
X134833611Y-97832500D01*
X134660389Y-97832500D01*
X134633543Y-97836752D01*
X134489302Y-97859597D01*
X134324552Y-97913128D01*
X134170211Y-97991768D01*
X134127211Y-98023010D01*
X134030072Y-98093586D01*
X134030070Y-98093588D01*
X134030069Y-98093588D01*
X133907588Y-98216069D01*
X133907588Y-98216070D01*
X133907586Y-98216072D01*
X133865814Y-98273566D01*
X133805768Y-98356211D01*
X133727128Y-98510552D01*
X133673597Y-98675302D01*
X133653172Y-98804264D01*
X133646500Y-98846389D01*
X132226673Y-98846389D01*
X132232188Y-98836836D01*
X132268000Y-98703183D01*
X132268000Y-98564817D01*
X132232188Y-98431164D01*
X132180137Y-98341009D01*
X132163007Y-98311338D01*
X132163003Y-98311333D01*
X132065164Y-98213494D01*
X132054499Y-98207337D01*
X132006284Y-98156769D01*
X131992500Y-98099950D01*
X131992500Y-97603999D01*
X132492500Y-97603999D01*
X132492500Y-98304000D01*
X132729071Y-98304000D01*
X132900084Y-98276914D01*
X133064757Y-98223408D01*
X133219024Y-98144804D01*
X133359102Y-98043032D01*
X133481532Y-97920602D01*
X133583304Y-97780524D01*
X133661908Y-97626255D01*
X133715414Y-97461584D01*
X133716615Y-97454000D01*
X132958196Y-97454000D01*
X132962591Y-97449605D01*
X133015252Y-97358394D01*
X133042511Y-97256661D01*
X133042511Y-97151339D01*
X133015252Y-97049606D01*
X132962591Y-96958395D01*
X132958196Y-96954000D01*
X133716615Y-96954000D01*
X133716615Y-96953999D01*
X133715414Y-96946415D01*
X133661908Y-96781744D01*
X133583304Y-96627475D01*
X133481532Y-96487397D01*
X133359102Y-96364967D01*
X133219024Y-96263195D01*
X133064757Y-96184591D01*
X132900084Y-96131085D01*
X132729071Y-96104000D01*
X132492500Y-96104000D01*
X132492500Y-96804001D01*
X131992500Y-96804001D01*
X131992500Y-96104000D01*
X131755929Y-96104000D01*
X131584915Y-96131085D01*
X131420242Y-96184591D01*
X131265975Y-96263195D01*
X131125897Y-96364967D01*
X131003467Y-96487397D01*
X130901695Y-96627475D01*
X130823091Y-96781744D01*
X130769585Y-96946415D01*
X130768384Y-96953999D01*
X129436615Y-96953999D01*
X129435414Y-96946415D01*
X129381908Y-96781744D01*
X129303304Y-96627475D01*
X129201532Y-96487397D01*
X129079102Y-96364967D01*
X128939024Y-96263195D01*
X128784757Y-96184591D01*
X128620084Y-96131085D01*
X128449071Y-96104000D01*
X128312500Y-96104000D01*
X128312500Y-96804001D01*
X127812500Y-96804001D01*
X127812500Y-96104000D01*
X127675929Y-96104000D01*
X127504915Y-96131085D01*
X127340242Y-96184591D01*
X127185975Y-96263195D01*
X127045897Y-96364967D01*
X126923467Y-96487397D01*
X126821695Y-96627475D01*
X126743091Y-96781744D01*
X126689585Y-96946415D01*
X126688384Y-96953999D01*
X125100500Y-96953999D01*
X125100500Y-94026064D01*
X125120185Y-93959025D01*
X125172989Y-93913270D01*
X125242147Y-93903326D01*
X125305703Y-93932351D01*
X125342429Y-93987743D01*
X125345127Y-93996045D01*
X125345129Y-93996050D01*
X125345130Y-93996051D01*
X125376705Y-94058021D01*
X125423768Y-94150388D01*
X125525586Y-94290528D01*
X125648072Y-94413014D01*
X125788212Y-94514832D01*
X125942555Y-94593473D01*
X126107299Y-94647002D01*
X126278389Y-94674100D01*
X126278390Y-94674100D01*
X126451610Y-94674100D01*
X126451611Y-94674100D01*
X126622701Y-94647002D01*
X126787445Y-94593473D01*
X126941788Y-94514832D01*
X127081928Y-94413014D01*
X127204414Y-94290528D01*
X127306232Y-94150388D01*
X127384873Y-93996045D01*
X127438402Y-93831301D01*
X127465500Y-93660211D01*
X127465500Y-93486989D01*
X127438402Y-93315899D01*
X127384873Y-93151155D01*
X127306232Y-92996812D01*
X127204414Y-92856672D01*
X127081928Y-92734186D01*
X126941788Y-92632368D01*
X126787445Y-92553727D01*
X126622701Y-92500198D01*
X126622699Y-92500197D01*
X126622698Y-92500197D01*
X126491271Y-92479381D01*
X126451611Y-92473100D01*
X126278389Y-92473100D01*
X126238728Y-92479381D01*
X126107302Y-92500197D01*
X125942552Y-92553728D01*
X125788211Y-92632368D01*
X125708256Y-92690459D01*
X125648072Y-92734186D01*
X125648070Y-92734188D01*
X125648069Y-92734188D01*
X125525588Y-92856669D01*
X125525588Y-92856670D01*
X125525586Y-92856672D01*
X125481859Y-92916856D01*
X125423768Y-92996811D01*
X125345128Y-93151150D01*
X125343669Y-93155641D01*
X125342429Y-93159455D01*
X125302993Y-93217129D01*
X125238634Y-93244327D01*
X125169788Y-93232412D01*
X125118312Y-93185167D01*
X125100500Y-93121135D01*
X125100500Y-90181153D01*
X145649500Y-90181153D01*
X145649500Y-90338846D01*
X145680261Y-90493489D01*
X145680264Y-90493501D01*
X145740602Y-90639172D01*
X145740609Y-90639185D01*
X145828210Y-90770288D01*
X145828213Y-90770292D01*
X145939707Y-90881786D01*
X145939711Y-90881789D01*
X146070814Y-90969390D01*
X146070827Y-90969397D01*
X146192363Y-91019738D01*
X146216503Y-91029737D01*
X146371153Y-91060499D01*
X146371156Y-91060500D01*
X146371158Y-91060500D01*
X146528844Y-91060500D01*
X146528845Y-91060499D01*
X146683497Y-91029737D01*
X146809416Y-90977580D01*
X146816087Y-90974817D01*
X146885556Y-90967348D01*
X146914978Y-90977580D01*
X146915193Y-90977063D01*
X147042363Y-91029738D01*
X147066503Y-91039737D01*
X147221153Y-91070499D01*
X147221156Y-91070500D01*
X147221158Y-91070500D01*
X147378844Y-91070500D01*
X147378845Y-91070499D01*
X147533497Y-91039737D01*
X147589120Y-91016697D01*
X147684808Y-90977063D01*
X147685397Y-90978486D01*
X147746385Y-90965776D01*
X147783912Y-90974817D01*
X147892363Y-91019738D01*
X147916503Y-91029737D01*
X148071153Y-91060499D01*
X148071156Y-91060500D01*
X148071158Y-91060500D01*
X148228844Y-91060500D01*
X148228845Y-91060499D01*
X148383497Y-91029737D01*
X148509416Y-90977580D01*
X148516087Y-90974817D01*
X148585556Y-90967348D01*
X148614978Y-90977580D01*
X148615193Y-90977063D01*
X148742363Y-91029738D01*
X148766503Y-91039737D01*
X148921153Y-91070499D01*
X148921156Y-91070500D01*
X148921158Y-91070500D01*
X149078844Y-91070500D01*
X149078845Y-91070499D01*
X149233497Y-91039737D01*
X149379179Y-90979394D01*
X149379184Y-90979390D01*
X149384546Y-90976525D01*
X149385346Y-90978022D01*
X149444268Y-90959559D01*
X149493958Y-90968977D01*
X149616503Y-91019737D01*
X149771153Y-91050499D01*
X149771156Y-91050500D01*
X149771158Y-91050500D01*
X149928844Y-91050500D01*
X149928845Y-91050499D01*
X150083497Y-91019737D01*
X150196166Y-90973067D01*
X150229172Y-90959397D01*
X150229172Y-90959396D01*
X150229179Y-90959394D01*
X150360289Y-90871789D01*
X150471789Y-90760289D01*
X150559394Y-90629179D01*
X150619737Y-90483497D01*
X150650500Y-90328842D01*
X150650500Y-90171158D01*
X150650500Y-90171155D01*
X150650499Y-90171153D01*
X150619737Y-90016503D01*
X150563539Y-89880827D01*
X150559397Y-89870827D01*
X150559390Y-89870814D01*
X150471789Y-89739711D01*
X150471786Y-89739707D01*
X150360292Y-89628213D01*
X150360288Y-89628210D01*
X150229185Y-89540609D01*
X150229172Y-89540602D01*
X150083501Y-89480264D01*
X150083489Y-89480261D01*
X149928845Y-89449500D01*
X149928842Y-89449500D01*
X149771158Y-89449500D01*
X149771155Y-89449500D01*
X149616510Y-89480261D01*
X149616498Y-89480264D01*
X149470823Y-89540604D01*
X149465452Y-89543476D01*
X149464655Y-89541986D01*
X149405682Y-89560441D01*
X149356040Y-89551021D01*
X149233501Y-89500264D01*
X149233489Y-89500261D01*
X149078845Y-89469500D01*
X149078842Y-89469500D01*
X148921158Y-89469500D01*
X148921155Y-89469500D01*
X148766510Y-89500261D01*
X148766498Y-89500264D01*
X148633913Y-89555182D01*
X148564443Y-89562651D01*
X148535020Y-89552421D01*
X148534807Y-89552937D01*
X148383501Y-89490264D01*
X148383489Y-89490261D01*
X148228845Y-89459500D01*
X148228842Y-89459500D01*
X148071158Y-89459500D01*
X148071155Y-89459500D01*
X147916510Y-89490261D01*
X147916498Y-89490264D01*
X147765193Y-89552937D01*
X147764606Y-89551522D01*
X147703566Y-89564219D01*
X147666087Y-89555182D01*
X147533501Y-89500264D01*
X147533489Y-89500261D01*
X147378845Y-89469500D01*
X147378842Y-89469500D01*
X147221158Y-89469500D01*
X147221155Y-89469500D01*
X147066510Y-89500261D01*
X147066498Y-89500264D01*
X146933913Y-89555182D01*
X146864443Y-89562651D01*
X146835020Y-89552421D01*
X146834807Y-89552937D01*
X146683501Y-89490264D01*
X146683489Y-89490261D01*
X146528845Y-89459500D01*
X146528842Y-89459500D01*
X146371158Y-89459500D01*
X146371155Y-89459500D01*
X146216510Y-89490261D01*
X146216498Y-89490264D01*
X146070827Y-89550602D01*
X146070814Y-89550609D01*
X145939711Y-89638210D01*
X145939707Y-89638213D01*
X145828213Y-89749707D01*
X145828210Y-89749711D01*
X145740609Y-89880814D01*
X145740602Y-89880827D01*
X145680264Y-90026498D01*
X145680261Y-90026510D01*
X145649500Y-90181153D01*
X125100500Y-90181153D01*
X125100500Y-88371153D01*
X143269500Y-88371153D01*
X143269500Y-88528846D01*
X143300261Y-88683489D01*
X143300264Y-88683501D01*
X143360602Y-88829172D01*
X143360609Y-88829185D01*
X143448210Y-88960288D01*
X143448213Y-88960292D01*
X143559707Y-89071786D01*
X143559711Y-89071789D01*
X143690814Y-89159390D01*
X143690827Y-89159397D01*
X143836498Y-89219735D01*
X143836503Y-89219737D01*
X143991153Y-89250499D01*
X143991156Y-89250500D01*
X143991158Y-89250500D01*
X144148844Y-89250500D01*
X144148845Y-89250499D01*
X144303497Y-89219737D01*
X144449179Y-89159394D01*
X144580289Y-89071789D01*
X144691789Y-88960289D01*
X144779394Y-88829179D01*
X144839737Y-88683497D01*
X144870500Y-88528842D01*
X144870500Y-88371158D01*
X144870500Y-88371155D01*
X144870499Y-88371153D01*
X144839738Y-88216510D01*
X144839737Y-88216503D01*
X144839735Y-88216498D01*
X144779397Y-88070827D01*
X144779390Y-88070814D01*
X144691789Y-87939711D01*
X144691786Y-87939707D01*
X144580292Y-87828213D01*
X144580288Y-87828210D01*
X144449185Y-87740609D01*
X144449172Y-87740602D01*
X144303501Y-87680264D01*
X144303489Y-87680261D01*
X144148845Y-87649500D01*
X144148842Y-87649500D01*
X143991158Y-87649500D01*
X143991155Y-87649500D01*
X143836510Y-87680261D01*
X143836498Y-87680264D01*
X143690827Y-87740602D01*
X143690814Y-87740609D01*
X143559711Y-87828210D01*
X143559707Y-87828213D01*
X143448213Y-87939707D01*
X143448210Y-87939711D01*
X143360609Y-88070814D01*
X143360602Y-88070827D01*
X143300264Y-88216498D01*
X143300261Y-88216510D01*
X143269500Y-88371153D01*
X125100500Y-88371153D01*
X125100500Y-86433553D01*
X160184700Y-86433553D01*
X160184700Y-86591246D01*
X160215461Y-86745889D01*
X160215464Y-86745901D01*
X160275802Y-86891572D01*
X160275809Y-86891585D01*
X160363410Y-87022688D01*
X160363413Y-87022692D01*
X160474907Y-87134186D01*
X160474911Y-87134189D01*
X160606014Y-87221790D01*
X160606027Y-87221797D01*
X160751698Y-87282135D01*
X160751703Y-87282137D01*
X160906353Y-87312899D01*
X160906356Y-87312900D01*
X160906358Y-87312900D01*
X161064044Y-87312900D01*
X161064045Y-87312899D01*
X161218697Y-87282137D01*
X161364379Y-87221794D01*
X161495489Y-87134189D01*
X161606989Y-87022689D01*
X161694594Y-86891579D01*
X161754937Y-86745897D01*
X161785700Y-86591242D01*
X161785700Y-86521153D01*
X166899500Y-86521153D01*
X166899500Y-86678846D01*
X166930261Y-86833489D01*
X166930264Y-86833501D01*
X166990602Y-86979172D01*
X166990609Y-86979185D01*
X167078210Y-87110288D01*
X167078213Y-87110292D01*
X167189707Y-87221786D01*
X167189711Y-87221789D01*
X167320814Y-87309390D01*
X167320827Y-87309397D01*
X167466498Y-87369735D01*
X167466503Y-87369737D01*
X167621153Y-87400499D01*
X167621156Y-87400500D01*
X167621158Y-87400500D01*
X167778844Y-87400500D01*
X167778845Y-87400499D01*
X167933497Y-87369737D01*
X168079179Y-87309394D01*
X168210289Y-87221789D01*
X168321789Y-87110289D01*
X168409394Y-86979179D01*
X168469737Y-86833497D01*
X168489113Y-86736085D01*
X168500638Y-86678150D01*
X168533023Y-86616239D01*
X168534519Y-86614715D01*
X169035845Y-86113389D01*
X171399500Y-86113389D01*
X171399500Y-86286610D01*
X171422773Y-86433555D01*
X171426598Y-86457701D01*
X171480127Y-86622445D01*
X171558768Y-86776788D01*
X171660586Y-86916928D01*
X171783072Y-87039414D01*
X171923212Y-87141232D01*
X172077555Y-87219873D01*
X172242299Y-87273402D01*
X172413389Y-87300500D01*
X172413390Y-87300500D01*
X172586610Y-87300500D01*
X172586611Y-87300500D01*
X172757701Y-87273402D01*
X172922445Y-87219873D01*
X173076788Y-87141232D01*
X173216928Y-87039414D01*
X173339414Y-86916928D01*
X173441232Y-86776788D01*
X173519873Y-86622445D01*
X173573402Y-86457701D01*
X173600500Y-86286611D01*
X173600500Y-86113389D01*
X173573402Y-85942299D01*
X173519873Y-85777555D01*
X173441232Y-85623212D01*
X173339414Y-85483072D01*
X173216928Y-85360586D01*
X173076788Y-85258768D01*
X172922445Y-85180127D01*
X172757701Y-85126598D01*
X172757699Y-85126597D01*
X172757698Y-85126597D01*
X172626271Y-85105781D01*
X172586611Y-85099500D01*
X172413389Y-85099500D01*
X172373728Y-85105781D01*
X172242302Y-85126597D01*
X172077552Y-85180128D01*
X171923211Y-85258768D01*
X171843256Y-85316859D01*
X171783072Y-85360586D01*
X171783070Y-85360588D01*
X171783069Y-85360588D01*
X171660588Y-85483069D01*
X171660588Y-85483070D01*
X171660586Y-85483072D01*
X171619653Y-85539411D01*
X171558768Y-85623211D01*
X171480128Y-85777552D01*
X171426597Y-85942302D01*
X171399500Y-86113389D01*
X169035845Y-86113389D01*
X170535844Y-84613389D01*
X176699500Y-84613389D01*
X176699500Y-84786611D01*
X176726598Y-84957701D01*
X176780127Y-85122445D01*
X176858768Y-85276788D01*
X176960586Y-85416928D01*
X177083072Y-85539414D01*
X177223212Y-85641232D01*
X177377555Y-85719873D01*
X177542299Y-85773402D01*
X177713389Y-85800500D01*
X177713390Y-85800500D01*
X177886610Y-85800500D01*
X177886611Y-85800500D01*
X178057701Y-85773402D01*
X178222445Y-85719873D01*
X178376788Y-85641232D01*
X178516928Y-85539414D01*
X178639414Y-85416928D01*
X178741232Y-85276788D01*
X178819873Y-85122445D01*
X178873402Y-84957701D01*
X178900500Y-84786611D01*
X178900500Y-84613389D01*
X178873402Y-84442299D01*
X178819873Y-84277555D01*
X178741232Y-84123212D01*
X178639414Y-83983072D01*
X178516928Y-83860586D01*
X178376788Y-83758768D01*
X178222445Y-83680127D01*
X178057701Y-83626598D01*
X178057699Y-83626597D01*
X178057698Y-83626597D01*
X177926271Y-83605781D01*
X177886611Y-83599500D01*
X177713389Y-83599500D01*
X177673728Y-83605781D01*
X177542302Y-83626597D01*
X177377552Y-83680128D01*
X177223211Y-83758768D01*
X177143256Y-83816859D01*
X177083072Y-83860586D01*
X177083070Y-83860588D01*
X177083069Y-83860588D01*
X176960588Y-83983069D01*
X176960588Y-83983070D01*
X176960586Y-83983072D01*
X176940949Y-84010100D01*
X176858768Y-84123211D01*
X176780128Y-84277552D01*
X176726597Y-84442302D01*
X176706414Y-84569735D01*
X176699500Y-84613389D01*
X170535844Y-84613389D01*
X170604973Y-84544260D01*
X170666294Y-84510777D01*
X170735986Y-84515761D01*
X170740104Y-84517382D01*
X170866498Y-84569735D01*
X170866503Y-84569737D01*
X171021153Y-84600499D01*
X171021156Y-84600500D01*
X171021158Y-84600500D01*
X171178844Y-84600500D01*
X171178845Y-84600499D01*
X171333497Y-84569737D01*
X171479179Y-84509394D01*
X171479185Y-84509390D01*
X171485135Y-84505415D01*
X171579589Y-84442302D01*
X171610289Y-84421789D01*
X171721789Y-84310289D01*
X171809394Y-84179179D01*
X171869737Y-84033497D01*
X171900500Y-83878842D01*
X171900500Y-83721158D01*
X171900500Y-83721155D01*
X171900499Y-83721153D01*
X171869737Y-83566503D01*
X171813728Y-83431284D01*
X171809397Y-83420827D01*
X171809390Y-83420814D01*
X171721789Y-83289711D01*
X171721786Y-83289707D01*
X171610292Y-83178213D01*
X171610288Y-83178210D01*
X171479185Y-83090609D01*
X171479172Y-83090602D01*
X171333501Y-83030264D01*
X171333489Y-83030261D01*
X171178845Y-82999500D01*
X171178842Y-82999500D01*
X171021158Y-82999500D01*
X171021155Y-82999500D01*
X170866510Y-83030261D01*
X170866498Y-83030264D01*
X170720827Y-83090602D01*
X170720814Y-83090609D01*
X170589127Y-83178601D01*
X170522450Y-83199479D01*
X170520236Y-83199499D01*
X170420943Y-83199499D01*
X170313587Y-83228265D01*
X170268210Y-83240424D01*
X170268209Y-83240425D01*
X170218096Y-83269359D01*
X170218095Y-83269360D01*
X170182853Y-83289707D01*
X170131285Y-83319479D01*
X170131282Y-83319481D01*
X167685339Y-85765425D01*
X167624016Y-85798910D01*
X167621850Y-85799361D01*
X167466508Y-85830261D01*
X167466498Y-85830264D01*
X167320827Y-85890602D01*
X167320814Y-85890609D01*
X167189711Y-85978210D01*
X167189707Y-85978213D01*
X167078213Y-86089707D01*
X167078210Y-86089711D01*
X166990609Y-86220814D01*
X166990602Y-86220827D01*
X166930264Y-86366498D01*
X166930261Y-86366510D01*
X166899500Y-86521153D01*
X161785700Y-86521153D01*
X161785700Y-86433558D01*
X161785700Y-86433555D01*
X161785699Y-86433553D01*
X161754938Y-86278910D01*
X161754937Y-86278903D01*
X161705991Y-86160737D01*
X161698523Y-86091270D01*
X161717449Y-86044399D01*
X161745394Y-86002579D01*
X161805737Y-85856897D01*
X161836500Y-85702242D01*
X161836500Y-85544558D01*
X161836500Y-85544555D01*
X161836499Y-85544553D01*
X161835476Y-85539411D01*
X161805737Y-85389903D01*
X161805735Y-85389898D01*
X161776277Y-85318779D01*
X161768808Y-85249310D01*
X161787735Y-85202438D01*
X161796194Y-85189779D01*
X161856537Y-85044097D01*
X161887300Y-84889442D01*
X161887300Y-84731758D01*
X161887300Y-84731755D01*
X161887299Y-84731753D01*
X161856537Y-84577103D01*
X161829064Y-84510777D01*
X161796197Y-84431427D01*
X161796190Y-84431414D01*
X161708589Y-84300311D01*
X161708586Y-84300307D01*
X161597092Y-84188813D01*
X161597088Y-84188810D01*
X161465985Y-84101209D01*
X161465972Y-84101202D01*
X161320301Y-84040864D01*
X161320289Y-84040861D01*
X161165645Y-84010100D01*
X161165642Y-84010100D01*
X161007958Y-84010100D01*
X161007955Y-84010100D01*
X160853310Y-84040861D01*
X160853298Y-84040864D01*
X160707627Y-84101202D01*
X160707614Y-84101209D01*
X160576511Y-84188810D01*
X160576507Y-84188813D01*
X160465013Y-84300307D01*
X160465010Y-84300311D01*
X160377409Y-84431414D01*
X160377402Y-84431427D01*
X160317064Y-84577098D01*
X160317061Y-84577110D01*
X160286300Y-84731753D01*
X160286300Y-84889446D01*
X160317060Y-85044088D01*
X160317061Y-85044089D01*
X160317063Y-85044097D01*
X160346523Y-85115221D01*
X160353991Y-85184689D01*
X160335067Y-85231556D01*
X160326611Y-85244212D01*
X160326602Y-85244228D01*
X160266264Y-85389898D01*
X160266261Y-85389910D01*
X160235500Y-85544553D01*
X160235500Y-85702246D01*
X160266261Y-85856889D01*
X160266264Y-85856901D01*
X160315206Y-85975059D01*
X160322675Y-86044529D01*
X160303749Y-86091399D01*
X160275810Y-86133214D01*
X160275802Y-86133228D01*
X160215464Y-86278898D01*
X160215461Y-86278910D01*
X160184700Y-86433553D01*
X125100500Y-86433553D01*
X125100500Y-79102706D01*
X125100618Y-79097297D01*
X125105817Y-78978213D01*
X125108437Y-78918209D01*
X126199500Y-78918209D01*
X126199500Y-79281790D01*
X126235137Y-79643630D01*
X126306064Y-80000212D01*
X126306067Y-80000223D01*
X126411614Y-80348165D01*
X126550754Y-80684078D01*
X126550756Y-80684083D01*
X126722140Y-81004720D01*
X126722151Y-81004738D01*
X126924140Y-81307035D01*
X126924150Y-81307049D01*
X127154807Y-81588106D01*
X127411893Y-81845192D01*
X127411898Y-81845196D01*
X127411899Y-81845197D01*
X127692956Y-82075854D01*
X127995268Y-82277853D01*
X127995277Y-82277858D01*
X127995279Y-82277859D01*
X128315916Y-82449243D01*
X128315918Y-82449243D01*
X128315924Y-82449247D01*
X128651836Y-82588386D01*
X128999767Y-82693930D01*
X128999773Y-82693931D01*
X128999776Y-82693932D01*
X128999787Y-82693935D01*
X129356369Y-82764862D01*
X129718206Y-82800500D01*
X129718209Y-82800500D01*
X130081791Y-82800500D01*
X130081794Y-82800500D01*
X130443631Y-82764862D01*
X130513045Y-82751054D01*
X130800212Y-82693935D01*
X130800223Y-82693932D01*
X130800223Y-82693931D01*
X130800233Y-82693930D01*
X131148164Y-82588386D01*
X131484076Y-82449247D01*
X131804732Y-82277853D01*
X132107044Y-82075854D01*
X132388101Y-81845197D01*
X132645197Y-81588101D01*
X132875854Y-81307044D01*
X133077853Y-81004732D01*
X133248545Y-80685389D01*
X161967500Y-80685389D01*
X161967500Y-80858611D01*
X161994598Y-81029701D01*
X162048127Y-81194445D01*
X162126768Y-81348788D01*
X162228586Y-81488928D01*
X162351072Y-81611414D01*
X162491212Y-81713232D01*
X162645555Y-81791873D01*
X162810299Y-81845402D01*
X162981389Y-81872500D01*
X162981390Y-81872500D01*
X163154610Y-81872500D01*
X163154611Y-81872500D01*
X163325701Y-81845402D01*
X163490445Y-81791873D01*
X163644788Y-81713232D01*
X163784928Y-81611414D01*
X163907414Y-81488928D01*
X164009232Y-81348788D01*
X164087873Y-81194445D01*
X164141402Y-81029701D01*
X164168500Y-80858611D01*
X164168500Y-80685389D01*
X164141402Y-80514299D01*
X164087873Y-80349555D01*
X164009232Y-80195212D01*
X163907414Y-80055072D01*
X163784928Y-79932586D01*
X163644788Y-79830768D01*
X163490445Y-79752127D01*
X163325701Y-79698598D01*
X163325699Y-79698597D01*
X163325698Y-79698597D01*
X163194271Y-79677781D01*
X163154611Y-79671500D01*
X162981389Y-79671500D01*
X162941728Y-79677781D01*
X162810302Y-79698597D01*
X162645552Y-79752128D01*
X162491211Y-79830768D01*
X162411256Y-79888859D01*
X162351072Y-79932586D01*
X162351070Y-79932588D01*
X162351069Y-79932588D01*
X162228588Y-80055069D01*
X162228588Y-80055070D01*
X162228586Y-80055072D01*
X162188469Y-80110288D01*
X162126768Y-80195211D01*
X162048128Y-80349552D01*
X161994597Y-80514302D01*
X161975787Y-80633064D01*
X161967500Y-80685389D01*
X133248545Y-80685389D01*
X133249247Y-80684076D01*
X133388386Y-80348164D01*
X133493930Y-80000233D01*
X133493932Y-80000223D01*
X133493935Y-80000212D01*
X133557858Y-79678842D01*
X133564862Y-79643631D01*
X133600500Y-79281794D01*
X133600500Y-78918206D01*
X133564862Y-78556369D01*
X133546368Y-78463389D01*
X139499500Y-78463389D01*
X139499500Y-78636611D01*
X139526598Y-78807701D01*
X139580127Y-78972445D01*
X139658768Y-79126788D01*
X139760586Y-79266928D01*
X139883072Y-79389414D01*
X140023212Y-79491232D01*
X140177555Y-79569873D01*
X140342299Y-79623402D01*
X140513389Y-79650500D01*
X140513390Y-79650500D01*
X140686610Y-79650500D01*
X140686611Y-79650500D01*
X140857701Y-79623402D01*
X141022445Y-79569873D01*
X141118064Y-79521153D01*
X143349500Y-79521153D01*
X143349500Y-79678846D01*
X143380261Y-79833489D01*
X143380264Y-79833501D01*
X143440602Y-79979172D01*
X143440609Y-79979185D01*
X143528210Y-80110288D01*
X143528213Y-80110292D01*
X143639707Y-80221786D01*
X143639711Y-80221789D01*
X143770814Y-80309390D01*
X143770827Y-80309397D01*
X143916498Y-80369735D01*
X143916503Y-80369737D01*
X144071153Y-80400499D01*
X144071156Y-80400500D01*
X144071158Y-80400500D01*
X144228844Y-80400500D01*
X144228845Y-80400499D01*
X144383497Y-80369737D01*
X144529179Y-80309394D01*
X144660289Y-80221789D01*
X144771789Y-80110289D01*
X144859394Y-79979179D01*
X144919737Y-79833497D01*
X144950500Y-79678842D01*
X144950500Y-79521158D01*
X144950500Y-79521155D01*
X144950499Y-79521153D01*
X144944547Y-79491231D01*
X144919737Y-79366503D01*
X144878493Y-79266930D01*
X144859397Y-79220827D01*
X144859390Y-79220814D01*
X144771789Y-79089711D01*
X144771786Y-79089707D01*
X144660292Y-78978213D01*
X144660288Y-78978210D01*
X144570491Y-78918209D01*
X171199500Y-78918209D01*
X171199500Y-79281790D01*
X171235137Y-79643630D01*
X171306064Y-80000212D01*
X171306067Y-80000223D01*
X171411614Y-80348165D01*
X171550754Y-80684078D01*
X171550756Y-80684083D01*
X171722140Y-81004720D01*
X171722151Y-81004738D01*
X171924140Y-81307035D01*
X171924150Y-81307049D01*
X172154807Y-81588106D01*
X172411893Y-81845192D01*
X172411898Y-81845196D01*
X172411899Y-81845197D01*
X172692956Y-82075854D01*
X172995268Y-82277853D01*
X172995277Y-82277858D01*
X172995279Y-82277859D01*
X173315916Y-82449243D01*
X173315918Y-82449243D01*
X173315924Y-82449247D01*
X173651836Y-82588386D01*
X173999767Y-82693930D01*
X173999773Y-82693931D01*
X173999776Y-82693932D01*
X173999787Y-82693935D01*
X174356369Y-82764862D01*
X174718206Y-82800500D01*
X174718209Y-82800500D01*
X175081791Y-82800500D01*
X175081794Y-82800500D01*
X175443631Y-82764862D01*
X175513045Y-82751054D01*
X175800212Y-82693935D01*
X175800223Y-82693932D01*
X175800223Y-82693931D01*
X175800233Y-82693930D01*
X176148164Y-82588386D01*
X176484076Y-82449247D01*
X176804732Y-82277853D01*
X177107044Y-82075854D01*
X177388101Y-81845197D01*
X177645197Y-81588101D01*
X177875854Y-81307044D01*
X178077853Y-81004732D01*
X178249247Y-80684076D01*
X178388386Y-80348164D01*
X178493930Y-80000233D01*
X178493932Y-80000223D01*
X178493935Y-80000212D01*
X178557858Y-79678842D01*
X178564862Y-79643631D01*
X178600500Y-79281794D01*
X178600500Y-78918206D01*
X178564862Y-78556369D01*
X178550210Y-78482708D01*
X178493935Y-78199787D01*
X178493932Y-78199776D01*
X178493931Y-78199773D01*
X178493930Y-78199767D01*
X178388386Y-77851836D01*
X178249247Y-77515924D01*
X178228226Y-77476597D01*
X178077859Y-77195279D01*
X178077858Y-77195277D01*
X178077853Y-77195268D01*
X177875854Y-76892956D01*
X177645197Y-76611899D01*
X177645196Y-76611898D01*
X177645192Y-76611893D01*
X177388106Y-76354807D01*
X177107049Y-76124150D01*
X177107048Y-76124149D01*
X177107044Y-76124146D01*
X176804732Y-75922147D01*
X176804727Y-75922144D01*
X176804720Y-75922140D01*
X176484083Y-75750756D01*
X176484078Y-75750754D01*
X176148165Y-75611614D01*
X175800223Y-75506067D01*
X175800212Y-75506064D01*
X175443630Y-75435137D01*
X175171111Y-75408296D01*
X175081794Y-75399500D01*
X174718206Y-75399500D01*
X174635679Y-75407628D01*
X174356369Y-75435137D01*
X173999787Y-75506064D01*
X173999776Y-75506067D01*
X173651834Y-75611614D01*
X173315921Y-75750754D01*
X173315916Y-75750756D01*
X172995279Y-75922140D01*
X172995261Y-75922151D01*
X172692964Y-76124140D01*
X172692950Y-76124150D01*
X172411893Y-76354807D01*
X172154807Y-76611893D01*
X171924150Y-76892950D01*
X171924140Y-76892964D01*
X171722151Y-77195261D01*
X171722140Y-77195279D01*
X171550756Y-77515916D01*
X171550754Y-77515921D01*
X171411614Y-77851834D01*
X171306067Y-78199776D01*
X171306064Y-78199787D01*
X171235137Y-78556369D01*
X171210384Y-78807697D01*
X171202219Y-78890606D01*
X171199500Y-78918209D01*
X144570491Y-78918209D01*
X144529185Y-78890609D01*
X144529172Y-78890602D01*
X144383501Y-78830264D01*
X144383489Y-78830261D01*
X144228845Y-78799500D01*
X144228842Y-78799500D01*
X144071158Y-78799500D01*
X144071155Y-78799500D01*
X143916510Y-78830261D01*
X143916498Y-78830264D01*
X143770827Y-78890602D01*
X143770814Y-78890609D01*
X143639711Y-78978210D01*
X143639707Y-78978213D01*
X143528213Y-79089707D01*
X143528210Y-79089711D01*
X143440609Y-79220814D01*
X143440602Y-79220827D01*
X143380264Y-79366498D01*
X143380261Y-79366510D01*
X143349500Y-79521153D01*
X141118064Y-79521153D01*
X141176788Y-79491232D01*
X141316928Y-79389414D01*
X141439414Y-79266928D01*
X141541232Y-79126788D01*
X141619873Y-78972445D01*
X141673402Y-78807701D01*
X141700500Y-78636611D01*
X141700500Y-78463389D01*
X141673402Y-78292299D01*
X141619873Y-78127555D01*
X141541232Y-77973212D01*
X141439414Y-77833072D01*
X141316928Y-77710586D01*
X141176788Y-77608768D01*
X141022445Y-77530127D01*
X140857701Y-77476598D01*
X140857699Y-77476597D01*
X140857698Y-77476597D01*
X140726271Y-77455781D01*
X140686611Y-77449500D01*
X140513389Y-77449500D01*
X140473728Y-77455781D01*
X140342302Y-77476597D01*
X140177552Y-77530128D01*
X140023211Y-77608768D01*
X139943256Y-77666859D01*
X139883072Y-77710586D01*
X139883070Y-77710588D01*
X139883069Y-77710588D01*
X139760588Y-77833069D01*
X139760588Y-77833070D01*
X139760586Y-77833072D01*
X139716859Y-77893256D01*
X139658768Y-77973211D01*
X139580128Y-78127552D01*
X139526597Y-78292302D01*
X139500641Y-78456187D01*
X139499500Y-78463389D01*
X133546368Y-78463389D01*
X133544935Y-78456187D01*
X133493935Y-78199787D01*
X133493932Y-78199776D01*
X133493931Y-78199773D01*
X133493930Y-78199767D01*
X133388386Y-77851836D01*
X133249247Y-77515924D01*
X133228226Y-77476597D01*
X133077859Y-77195279D01*
X133077858Y-77195277D01*
X133077853Y-77195268D01*
X132875854Y-76892956D01*
X132645197Y-76611899D01*
X132645196Y-76611898D01*
X132645192Y-76611893D01*
X132388106Y-76354807D01*
X132107049Y-76124150D01*
X132107048Y-76124149D01*
X132107044Y-76124146D01*
X131804732Y-75922147D01*
X131804727Y-75922144D01*
X131804720Y-75922140D01*
X131484083Y-75750756D01*
X131484078Y-75750754D01*
X131148165Y-75611614D01*
X130800223Y-75506067D01*
X130800212Y-75506064D01*
X130443630Y-75435137D01*
X130171111Y-75408296D01*
X130081794Y-75399500D01*
X129718206Y-75399500D01*
X129635679Y-75407628D01*
X129356369Y-75435137D01*
X128999787Y-75506064D01*
X128999776Y-75506067D01*
X128651834Y-75611614D01*
X128315921Y-75750754D01*
X128315916Y-75750756D01*
X127995279Y-75922140D01*
X127995261Y-75922151D01*
X127692964Y-76124140D01*
X127692950Y-76124150D01*
X127411893Y-76354807D01*
X127154807Y-76611893D01*
X126924150Y-76892950D01*
X126924140Y-76892964D01*
X126722151Y-77195261D01*
X126722140Y-77195279D01*
X126550756Y-77515916D01*
X126550754Y-77515921D01*
X126411614Y-77851834D01*
X126306067Y-78199776D01*
X126306064Y-78199787D01*
X126235137Y-78556369D01*
X126210384Y-78807697D01*
X126202219Y-78890606D01*
X126199500Y-78918209D01*
X125108437Y-78918209D01*
X125118528Y-78687080D01*
X125119468Y-78676347D01*
X125172709Y-78271938D01*
X125174582Y-78261308D01*
X125262870Y-77863068D01*
X125265668Y-77852630D01*
X125388319Y-77463629D01*
X125392016Y-77453473D01*
X125498964Y-77195279D01*
X125548111Y-77076627D01*
X125552669Y-77066853D01*
X125741025Y-76705024D01*
X125746407Y-76695703D01*
X125965574Y-76351680D01*
X125971765Y-76342837D01*
X126220083Y-76019224D01*
X126227021Y-76010955D01*
X126502594Y-75710220D01*
X126510220Y-75702594D01*
X126810955Y-75427021D01*
X126819224Y-75420083D01*
X127142837Y-75171765D01*
X127151680Y-75165574D01*
X127495703Y-74946407D01*
X127505024Y-74941025D01*
X127866853Y-74752669D01*
X127876627Y-74748111D01*
X128253482Y-74592012D01*
X128263629Y-74588319D01*
X128652639Y-74465665D01*
X128663068Y-74462870D01*
X129061308Y-74374582D01*
X129071938Y-74372709D01*
X129476347Y-74319468D01*
X129487080Y-74318528D01*
X129897297Y-74300617D01*
X129902706Y-74300500D01*
X129939882Y-74300500D01*
X174860118Y-74300500D01*
X174897294Y-74300500D01*
X174902702Y-74300617D01*
G37*
%TD.AperFunction*%
%TD*%
M02*
