%TF.GenerationSoftware,KiCad,Pcbnew,9.0.7*%
%TF.CreationDate,2026-05-08T10:50:19+02:00*%
%TF.ProjectId,MiniMotorkontrollerV1,4d696e69-4d6f-4746-9f72-6b6f6e74726f,rev?*%
%TF.SameCoordinates,Original*%
%TF.FileFunction,Paste,Top*%
%TF.FilePolarity,Positive*%
%FSLAX46Y46*%
G04 Gerber Fmt 4.6, Leading zero omitted, Abs format (unit mm)*
G04 Created by KiCad (PCBNEW 9.0.7) date 2026-05-08 10:50:19*
%MOMM*%
%LPD*%
G01*
G04 APERTURE LIST*
%ADD10R,0.570000X0.540000*%
%ADD11R,1.000000X1.400000*%
%ADD12R,0.900000X0.800000*%
%ADD13R,0.800000X0.900000*%
%ADD14R,1.400000X0.600000*%
%ADD15R,1.300000X0.300000*%
%ADD16R,0.800000X0.400000*%
%ADD17R,0.400000X0.800000*%
%ADD18R,0.800000X0.800000*%
%ADD19R,1.200000X1.200000*%
%ADD20R,0.250000X0.600000*%
%ADD21R,0.600000X0.250000*%
%ADD22R,5.700000X3.700000*%
%ADD23R,0.540000X0.500000*%
%ADD24R,1.000000X0.700000*%
%ADD25R,1.200000X2.700000*%
%ADD26R,0.500000X0.540000*%
%ADD27R,0.540000X0.570000*%
%ADD28R,0.860000X0.810000*%
%ADD29R,1.350000X1.410000*%
%ADD30R,1.250000X1.700000*%
%ADD31R,1.070000X0.530000*%
%ADD32R,0.700000X1.250000*%
%ADD33R,0.810000X0.860000*%
%ADD34R,1.410000X1.350000*%
%ADD35R,0.900000X0.310000*%
%ADD36R,1.000000X0.310000*%
%ADD37R,1.850000X2.450000*%
%ADD38R,1.230000X1.860000*%
%ADD39O,0.700000X0.280000*%
%ADD40O,0.280000X0.700000*%
%ADD41R,2.800000X2.800000*%
G04 APERTURE END LIST*
D10*
%TO.C,R21*%
X165686000Y-96393000D03*
X166546000Y-96393000D03*
%TD*%
D11*
%TO.C,LED2*%
X136940000Y-79248000D03*
X134840000Y-79248000D03*
%TD*%
D12*
%TO.C,C33*%
X158267400Y-107605600D03*
X158267400Y-109005600D03*
%TD*%
D13*
%TO.C,C9*%
X139800000Y-113300000D03*
X141200000Y-113300000D03*
%TD*%
D14*
%TO.C,USBC1*%
X133002500Y-98334000D03*
X133002500Y-99134000D03*
D15*
X133002500Y-100284000D03*
X133002500Y-101284000D03*
X133002500Y-101784000D03*
X133002500Y-102784000D03*
D14*
X133002500Y-104734000D03*
X133002500Y-103934000D03*
D15*
X133002500Y-103284000D03*
X133002500Y-102284000D03*
X133002500Y-100784000D03*
X133002500Y-99784000D03*
%TD*%
D16*
%TO.C,U4*%
X145420000Y-76150000D03*
X145420000Y-77000000D03*
X145420000Y-77850000D03*
X145420000Y-78700000D03*
X145420000Y-79550000D03*
X145420000Y-80400000D03*
X145420000Y-81250000D03*
X145420000Y-82100000D03*
X145420000Y-82950000D03*
X145420000Y-83800000D03*
X145420000Y-84650000D03*
X145420000Y-85500000D03*
X145420000Y-86350000D03*
X145420000Y-87200000D03*
X145420000Y-88050000D03*
D17*
X146450000Y-89130000D03*
X147300000Y-89130000D03*
X148150000Y-89130000D03*
X149000000Y-89130000D03*
X149850000Y-89130000D03*
X150700000Y-89130000D03*
X151550000Y-89130000D03*
X152400000Y-89130000D03*
X153250000Y-89130000D03*
X154100000Y-89130000D03*
X154950000Y-89130000D03*
X155800000Y-89130000D03*
X156650000Y-89130000D03*
X157500000Y-89130000D03*
X158350000Y-89130000D03*
D16*
X159380000Y-88050000D03*
X159380000Y-87200000D03*
X159380000Y-86350000D03*
X159380000Y-85500000D03*
X159380000Y-84650000D03*
X159380000Y-83800000D03*
X159380000Y-82950000D03*
X159380000Y-82100000D03*
X159380000Y-81250000D03*
X159380000Y-80400000D03*
X159380000Y-79550000D03*
X159380000Y-78700000D03*
X159380000Y-77850000D03*
X159380000Y-77000000D03*
X159380000Y-76150000D03*
D17*
X158350000Y-75070000D03*
X157500000Y-75070000D03*
X156650000Y-75070000D03*
X155800000Y-75070000D03*
X154950000Y-75070000D03*
X154100000Y-75070000D03*
X153250000Y-75070000D03*
X152400000Y-75070000D03*
X151550000Y-75070000D03*
X150700000Y-75070000D03*
X149850000Y-75070000D03*
X149000000Y-75070000D03*
X148150000Y-75070000D03*
X147300000Y-75070000D03*
X146450000Y-75070000D03*
D18*
X145400000Y-75100000D03*
X145400000Y-89100000D03*
D19*
X150750000Y-80450000D03*
X150750000Y-82100000D03*
X150750000Y-83750000D03*
X152400000Y-80450000D03*
X152400000Y-82100000D03*
X152400000Y-83750000D03*
X154050000Y-80450000D03*
X154050000Y-82100000D03*
X154050000Y-83750000D03*
D18*
X159400000Y-75100000D03*
X159400000Y-89100000D03*
%TD*%
D20*
%TO.C,IC1*%
X161650000Y-104000000D03*
X162150000Y-104000000D03*
X162650000Y-104000000D03*
X163150000Y-104000000D03*
X163650000Y-104000000D03*
X164150000Y-104000000D03*
X164650000Y-104000000D03*
X165150000Y-104000000D03*
X165650000Y-104000000D03*
X166150000Y-104000000D03*
X166650000Y-104000000D03*
X167150000Y-104000000D03*
D21*
X167800000Y-103350000D03*
X167800001Y-102850000D03*
X167800000Y-102350000D03*
X167800000Y-101850000D03*
X167800000Y-101350000D03*
X167800000Y-100850000D03*
X167800001Y-100350000D03*
X167800000Y-99850000D03*
D20*
X167150000Y-99200000D03*
X166650000Y-99200000D03*
X166150000Y-99200000D03*
X165650000Y-99200000D03*
X165150000Y-99200000D03*
X164650000Y-99200000D03*
X164150000Y-99200000D03*
X163650000Y-99200000D03*
X163150000Y-99200000D03*
X162650000Y-99200000D03*
X162150000Y-99200000D03*
X161650000Y-99200000D03*
D21*
X161000000Y-99850000D03*
X160999999Y-100350000D03*
X161000000Y-100850000D03*
X161000000Y-101350000D03*
X161000000Y-101850000D03*
X161000000Y-102350000D03*
X160999999Y-102850000D03*
X161000000Y-103350000D03*
D22*
X164400000Y-101600000D03*
%TD*%
D12*
%TO.C,C19*%
X141732000Y-77408000D03*
X141732000Y-76008000D03*
%TD*%
D23*
%TO.C,C5*%
X164827400Y-84156200D03*
X164827400Y-84996200D03*
%TD*%
D10*
%TO.C,R10*%
X142534600Y-82849000D03*
X141674600Y-82849000D03*
%TD*%
D24*
%TO.C,D4*%
X135991600Y-105572000D03*
X135991600Y-106772000D03*
%TD*%
D12*
%TO.C,C17*%
X176478400Y-90660200D03*
X176478400Y-92060200D03*
%TD*%
D10*
%TO.C,R19*%
X138762000Y-79756000D03*
X139622000Y-79756000D03*
%TD*%
D25*
%TO.C,L1*%
X174542400Y-87504200D03*
X177042400Y-87504200D03*
%TD*%
D26*
%TO.C,C6*%
X138670000Y-81260000D03*
X137830000Y-81260000D03*
%TD*%
D27*
%TO.C,R25*%
X160096200Y-108303800D03*
X160096200Y-107443800D03*
%TD*%
D10*
%TO.C,R1*%
X136730000Y-99822000D03*
X137590000Y-99822000D03*
%TD*%
D28*
%TO.C,R5*%
X166899000Y-87770200D03*
X166899000Y-89270200D03*
%TD*%
D23*
%TO.C,C26*%
X140210000Y-91050000D03*
X140210000Y-91890000D03*
%TD*%
D10*
%TO.C,R7*%
X145530000Y-110300000D03*
X144670000Y-110300000D03*
%TD*%
D13*
%TO.C,C11*%
X137430000Y-84840000D03*
X138830000Y-84840000D03*
%TD*%
D27*
%TO.C,R13*%
X140850000Y-119270000D03*
X140850000Y-120130000D03*
%TD*%
D10*
%TO.C,R15*%
X173230000Y-83700000D03*
X172370000Y-83700000D03*
%TD*%
D23*
%TO.C,C18*%
X153100000Y-95380000D03*
X153100000Y-96220000D03*
%TD*%
D14*
%TO.C,USBC2*%
X132956000Y-109334000D03*
X132956000Y-110134000D03*
D15*
X132956000Y-111284000D03*
X132956000Y-112284000D03*
X132956000Y-112784000D03*
X132956000Y-113784000D03*
D14*
X132956000Y-115734000D03*
X132956000Y-114934000D03*
D15*
X132956000Y-114284000D03*
X132956000Y-113284000D03*
X132956000Y-111784000D03*
X132956000Y-110784000D03*
%TD*%
D23*
%TO.C,C3*%
X169500000Y-115580000D03*
X169500000Y-116420000D03*
%TD*%
%TO.C,C31*%
X165531800Y-107606200D03*
X165531800Y-108446200D03*
%TD*%
D29*
%TO.C,C4*%
X166478400Y-82560200D03*
X166478400Y-84560200D03*
%TD*%
D30*
%TO.C,D3*%
X127898800Y-93624400D03*
X132298800Y-93624400D03*
%TD*%
D10*
%TO.C,R11*%
X142534600Y-84024800D03*
X141674600Y-84024800D03*
%TD*%
D13*
%TO.C,C13*%
X137430000Y-88683333D03*
X138830000Y-88683333D03*
%TD*%
D24*
%TO.C,D6*%
X171000000Y-116000000D03*
X171000000Y-117200000D03*
%TD*%
D23*
%TO.C,C15*%
X147300000Y-104580000D03*
X147300000Y-105420000D03*
%TD*%
D12*
%TO.C,C16*%
X178383400Y-90660200D03*
X178383400Y-92060200D03*
%TD*%
D10*
%TO.C,R23*%
X142560000Y-87500000D03*
X141700000Y-87500000D03*
%TD*%
D13*
%TO.C,C7*%
X141200000Y-109900000D03*
X139800000Y-109900000D03*
%TD*%
D31*
%TO.C,U2*%
X171228400Y-88910200D03*
X171228400Y-87960200D03*
X171228400Y-87010200D03*
X168928400Y-87010200D03*
X168928400Y-87960200D03*
X168928400Y-88910200D03*
%TD*%
D12*
%TO.C,C23*%
X161391600Y-80151200D03*
X161391600Y-78751200D03*
%TD*%
D32*
%TO.C,D1*%
X138900000Y-121323000D03*
X137000000Y-121323000D03*
X137950000Y-123323000D03*
%TD*%
D10*
%TO.C,R24*%
X142560000Y-88650000D03*
X141700000Y-88650000D03*
%TD*%
D26*
%TO.C,C24*%
X168949000Y-96393000D03*
X168109000Y-96393000D03*
%TD*%
D10*
%TO.C,R12*%
X142558200Y-85193200D03*
X141698200Y-85193200D03*
%TD*%
D23*
%TO.C,C27*%
X141810000Y-91050000D03*
X141810000Y-91890000D03*
%TD*%
D10*
%TO.C,R22*%
X142560000Y-86350000D03*
X141700000Y-86350000D03*
%TD*%
D33*
%TO.C,R6*%
X166649000Y-91120200D03*
X165149000Y-91120200D03*
%TD*%
D34*
%TO.C,C30*%
X167757600Y-108077000D03*
X169757600Y-108077000D03*
%TD*%
D24*
%TO.C,D2*%
X135000000Y-117600000D03*
X135000000Y-118800000D03*
%TD*%
D12*
%TO.C,C29*%
X163830000Y-107351600D03*
X163830000Y-108751600D03*
%TD*%
D35*
%TO.C,Q1*%
X142970000Y-106520000D03*
X142970000Y-107180000D03*
X142970000Y-107830000D03*
X142970000Y-108480000D03*
D36*
X146030000Y-108480000D03*
X146030000Y-107830000D03*
X146030000Y-107170000D03*
X146030000Y-106520000D03*
D37*
X144700000Y-107500000D03*
%TD*%
D27*
%TO.C,R18*%
X174878400Y-90530200D03*
X174878400Y-91390200D03*
%TD*%
%TO.C,R8*%
X149600000Y-112170000D03*
X149600000Y-113030000D03*
%TD*%
D23*
%TO.C,C25*%
X138560000Y-91050000D03*
X138560000Y-91890000D03*
%TD*%
D28*
%TO.C,R4*%
X165099000Y-87770200D03*
X165099000Y-89270200D03*
%TD*%
D30*
%TO.C,D7*%
X154720000Y-109000000D03*
X150320000Y-109000000D03*
%TD*%
D38*
%TO.C,SW2*%
X134832000Y-76200000D03*
X139192000Y-76200000D03*
%TD*%
D12*
%TO.C,C28*%
X161848800Y-107478600D03*
X161848800Y-108878600D03*
%TD*%
D23*
%TO.C,C1*%
X136550000Y-117180000D03*
X136550000Y-118020000D03*
%TD*%
D13*
%TO.C,C12*%
X137430000Y-86761666D03*
X138830000Y-86761666D03*
%TD*%
D27*
%TO.C,R20*%
X163068000Y-78614800D03*
X163068000Y-79474800D03*
%TD*%
D10*
%TO.C,R9*%
X142534600Y-81688000D03*
X141674600Y-81688000D03*
%TD*%
D27*
%TO.C,R14*%
X148900000Y-106050000D03*
X148900000Y-105190000D03*
%TD*%
D39*
%TO.C,U1*%
X142100000Y-115440000D03*
X142100000Y-115940000D03*
X142100000Y-116440000D03*
X142100000Y-116940000D03*
X142100000Y-117440000D03*
X142100000Y-117940000D03*
D40*
X142850000Y-118690000D03*
X143350000Y-118690000D03*
X143850000Y-118690000D03*
X144350000Y-118690000D03*
X144850000Y-118690000D03*
X145350000Y-118690000D03*
D39*
X146100000Y-117940000D03*
X146100000Y-117440000D03*
X146100000Y-116940000D03*
X146100000Y-116440000D03*
X146100000Y-115940000D03*
X146100000Y-115440000D03*
D40*
X145350000Y-114690000D03*
X144850000Y-114690000D03*
X144350000Y-114690000D03*
X143850000Y-114690000D03*
X143350000Y-114690000D03*
X142850000Y-114690000D03*
D41*
X144100000Y-116700000D03*
%TD*%
D23*
%TO.C,C22*%
X158191200Y-100812600D03*
X158191200Y-99972600D03*
%TD*%
D13*
%TO.C,C10*%
X137430000Y-82918333D03*
X138830000Y-82918333D03*
%TD*%
D10*
%TO.C,R2*%
X136730000Y-102362000D03*
X137590000Y-102362000D03*
%TD*%
D13*
%TO.C,C32*%
X169686200Y-94945200D03*
X168286200Y-94945200D03*
%TD*%
D23*
%TO.C,C20*%
X143368400Y-76701600D03*
X143368400Y-77541600D03*
%TD*%
D28*
%TO.C,R3*%
X148000000Y-112050000D03*
X148000000Y-113550000D03*
%TD*%
D26*
%TO.C,C21*%
X165647000Y-78511400D03*
X164807000Y-78511400D03*
%TD*%
%TO.C,C2*%
X136638400Y-103632000D03*
X137478400Y-103632000D03*
%TD*%
D10*
%TO.C,R16*%
X169900000Y-83700000D03*
X169040000Y-83700000D03*
%TD*%
D13*
%TO.C,C8*%
X141200000Y-111600000D03*
X139800000Y-111600000D03*
%TD*%
D38*
%TO.C,SW1*%
X169312000Y-76200000D03*
X164952000Y-76200000D03*
%TD*%
D30*
%TO.C,D5*%
X167000000Y-112200000D03*
X171400000Y-112200000D03*
%TD*%
D28*
%TO.C,R17*%
X151000000Y-112650000D03*
X151000000Y-114150000D03*
%TD*%
D26*
%TO.C,C14*%
X169276400Y-90552200D03*
X170116400Y-90552200D03*
%TD*%
D18*
%TO.C,LED1*%
X173078400Y-92110200D03*
X173078400Y-90610200D03*
%TD*%
M02*
