M48
; DRILL file {KiCad 9.0.7} date 2026-05-08T10:51:53+0200
; FORMAT={-:-/ absolute / metric / decimal}
; #@! TF.CreationDate,2026-05-08T10:51:53+02:00
; #@! TF.GenerationSoftware,Kicad,Pcbnew,9.0.7
; #@! TF.FileFunction,Plated,1,6,PTH
FMAT,2
METRIC
; #@! TA.AperFunction,Plated,PTH,ViaDrill
T1C0.300
; #@! TA.AperFunction,Plated,PTH,ComponentDrill
T2C0.500
; #@! TA.AperFunction,Plated,PTH,ViaDrill
T3C0.700
; #@! TA.AperFunction,Plated,PTH,ComponentDrill
T4C0.800
; #@! TA.AperFunction,Plated,PTH,ComponentDrill
T5C1.200
; #@! TA.AperFunction,Plated,PTH,ComponentDrill
T6C3.200
%
G90
G05
T1
X125.8Y-83.5
X125.8Y-91.6
X128.067Y-107.036
X128.35Y-118.25
X128.65Y-95.8
X131.4Y-83.5
X131.4Y-91.6
X132.232Y-107.036
X132.455Y-95.195
X132.7Y-118.15
X133.65Y-76.35
X133.65Y-77.6
X133.731Y-97.536
X134.2Y-105.4
X134.2Y-116.1
X134.3Y-109.0
X135.0Y-119.95
X135.2Y-90.0
X135.941Y-107.848
X136.042Y-86.766
X136.042Y-88.646
X136.093Y-84.836
X136.144Y-82.956
X136.2Y-97.15
X136.5Y-116.1
X136.55Y-119.15
X136.804Y-81.28
X136.9Y-92.5
X137.6Y-90.0
X137.95Y-124.65
X138.481Y-103.632
X138.55Y-113.25
X138.582Y-92.812
X138.6Y-109.95
X138.6Y-111.6
X138.6Y-117.0
X138.684Y-99.822
X138.684Y-102.362
X139.75Y-118.7
X140.208Y-92.913
X140.3Y-115.25
X140.4Y-100.0
X140.5Y-99.05
X140.85Y-121.4
X141.16Y-117.94
X141.3Y-102.3
X141.75Y-74.8
X141.834Y-92.964
X142.1Y-119.5
X142.55Y-114.05
X142.69Y-110.51
X142.7Y-98.793
X142.8Y-122.5
X142.8Y-127.4
X143.1Y-120.1
X143.3Y-75.9
X143.3Y-90.8
X143.3Y-93.2
X143.55Y-113.15
X143.8Y-98.3
X144.07Y-88.45
X144.15Y-79.6
X144.272Y-74.93
X144.414Y-97.74
X144.427Y-96.94
X145.045Y-95.217
X145.136Y-96.418
X145.288Y-90.17
X145.3Y-93.2
X145.593Y-94.437
X145.674Y-95.826
X146.4Y-119.5
X146.45Y-90.26
X146.456Y-76.048
X146.456Y-76.962
X147.3Y-90.27
X147.32Y-75.997
X147.6Y-117.7
X147.65Y-109.25
X147.8Y-119.6
X148.133Y-75.997
X148.15Y-90.26
X148.996Y-75.997
X149.0Y-90.27
X149.2Y-107.2
X149.7Y-98.6
X149.8Y-115.7
X149.8Y-117.4
X149.8Y-119.1
X149.85Y-90.25
X149.86Y-75.997
X150.495Y-105.943
X150.724Y-75.997
X151.0Y-122.5
X151.0Y-127.4
X151.587Y-75.997
X151.79Y-105.969
X152.2Y-97.55
X152.451Y-76.048
X152.5Y-111.2
X152.5Y-115.7
X153.264Y-76.048
X153.365Y-97.257
X153.772Y-105.893
X154.127Y-76.048
X154.61Y-97.511
X154.991Y-75.997
X155.042Y-105.791
X155.4Y-98.8
X155.4Y-99.6
X155.854Y-75.997
X156.667Y-75.997
X156.8Y-107.2
X156.8Y-111.2
X156.8Y-115.7
X157.531Y-75.997
X157.6Y-103.8
X158.267Y-110.338
X158.344Y-75.997
X158.496Y-77.826
X158.496Y-78.689
X159.131Y-101.6
X159.207Y-102.54
X159.258Y-103.429
X159.512Y-90.17
X159.626Y-104.139
X160.68Y-74.93
X160.733Y-98.347
X160.833Y-104.699
X160.985Y-86.512
X161.036Y-85.623
X161.087Y-84.811
X161.341Y-81.407
X161.45Y-97.993
X162.25Y-97.991
X163.017Y-104.927
X163.05Y-98.006
X163.645Y-97.438
X163.9Y-91.1
X164.49Y-97.422
X164.8Y-82.9
X165.532Y-109.576
X166.35Y-94.35
X166.446Y-97.942
X166.5Y-81.0
X166.624Y-78.537
X167.31Y-98.095
X167.7Y-86.6
X167.97Y-104.318
X168.046Y-98.527
X168.7Y-82.5
X169.316Y-102.641
X169.367Y-100.533
X169.5Y-117.5
X170.028Y-96.393
X170.5Y-78.5
X170.84Y-76.225
X170.993Y-94.945
X171.0Y-118.4
X171.1Y-83.8
X171.298Y-108.077
X171.9Y-106.3
X171.9Y-110.1
X172.201Y-89.001
X172.89Y-100.32
X172.92Y-102.88
X173.1Y-93.7
X175.05Y-102.85
X175.15Y-100.3
X176.4Y-93.4
X178.4Y-93.5
X179.0Y-106.3
X179.0Y-110.1
T2
X127.5Y-79.1
X127.5Y-124.1
X128.203Y-77.403
X128.203Y-80.797
X128.203Y-122.403
X128.203Y-125.797
X129.9Y-76.7
X129.9Y-81.5
X129.9Y-121.7
X129.9Y-126.5
X131.597Y-77.403
X131.597Y-80.797
X131.597Y-122.403
X131.597Y-125.797
X132.3Y-79.1
X132.3Y-124.1
X172.5Y-79.1
X172.5Y-124.1
X173.203Y-77.403
X173.203Y-80.797
X173.203Y-122.403
X173.203Y-125.797
X174.9Y-76.7
X174.9Y-81.5
X174.9Y-121.7
X174.9Y-126.5
X176.597Y-77.403
X176.597Y-80.797
X176.597Y-122.403
X176.597Y-125.797
X177.3Y-79.1
X177.3Y-124.1
T3
X126.365Y-93.574
X134.747Y-98.933
X135.2Y-110.15
X135.255Y-103.632
X135.4Y-115.184
X140.6Y-78.55
X149.25Y-80.467
X149.25Y-82.093
X149.25Y-83.769
X150.774Y-79.096
X150.774Y-85.242
X152.349Y-79.096
X152.4Y-85.242
X154.026Y-79.146
X154.076Y-85.293
X155.499Y-83.82
X155.55Y-80.416
X155.55Y-82.042
X156.4Y-108.98
X163.068Y-80.772
X165.1Y-112.95
X165.989Y-106.02
X167.361Y-106.045
X172.5Y-86.2
X177.2Y-117.2
X177.8Y-84.7
T5
X176.6Y-99.06
X176.6Y-101.6
X176.6Y-104.14
X176.65Y-112.23
X176.65Y-114.77
T6
X129.9Y-79.1
X129.9Y-124.1
X174.9Y-79.1
X174.9Y-124.1
T4
X128.316Y-108.204G85X127.716Y-108.204
G05
X128.316Y-116.864G85X127.716Y-116.864
G05
X128.362Y-97.204G85X127.763Y-97.204
G05
X128.362Y-105.864G85X127.763Y-105.864
G05
X132.596Y-108.204G85X131.796Y-108.204
G05
X132.596Y-116.864G85X131.796Y-116.864
G05
X132.643Y-97.204G85X131.842Y-97.204
G05
X132.642Y-105.864G85X131.843Y-105.864
G05
M30
