%TF.GenerationSoftware,KiCad,Pcbnew,9.0.7*%
%TF.CreationDate,2026-05-08T10:50:18+02:00*%
%TF.ProjectId,MiniMotorkontrollerV1,4d696e69-4d6f-4746-9f72-6b6f6e74726f,rev?*%
%TF.SameCoordinates,Original*%
%TF.FileFunction,Copper,L3,Inr*%
%TF.FilePolarity,Positive*%
%FSLAX46Y46*%
G04 Gerber Fmt 4.6, Leading zero omitted, Abs format (unit mm)*
G04 Created by KiCad (PCBNEW 9.0.7) date 2026-05-08 10:50:18*
%MOMM*%
%LPD*%
G01*
G04 APERTURE LIST*
%TA.AperFunction,ComponentPad*%
%ADD10C,2.000000*%
%TD*%
%TA.AperFunction,ComponentPad*%
%ADD11O,2.000000X1.200000*%
%TD*%
%TA.AperFunction,ComponentPad*%
%ADD12O,1.800000X1.200000*%
%TD*%
%TA.AperFunction,ComponentPad*%
%ADD13C,0.800000*%
%TD*%
%TA.AperFunction,ComponentPad*%
%ADD14C,6.400000*%
%TD*%
%TA.AperFunction,ViaPad*%
%ADD15C,0.600000*%
%TD*%
%TA.AperFunction,ViaPad*%
%ADD16C,1.200000*%
%TD*%
%TA.AperFunction,Conductor*%
%ADD17C,0.300000*%
%TD*%
%TA.AperFunction,Conductor*%
%ADD18C,0.200000*%
%TD*%
G04 APERTURE END LIST*
D10*
%TO.N,Net-(J2-A)*%
%TO.C,J2*%
X176600000Y-104140000D03*
%TO.N,Net-(J2-B)*%
X176600000Y-101600000D03*
%TO.N,Net-(J2-C)*%
X176600000Y-99060000D03*
%TD*%
%TO.N,+VCC_DC*%
%TO.C,J1*%
X176650000Y-112230000D03*
%TO.N,GND*%
X176650000Y-114770000D03*
%TD*%
D11*
%TO.N,GND*%
%TO.C,USBC1*%
X132242500Y-105864000D03*
D12*
X128062500Y-105864000D03*
X128062500Y-97204000D03*
D11*
X132242500Y-97204000D03*
%TD*%
%TO.N,GND*%
%TO.C,USBC2*%
X132196000Y-116864000D03*
D12*
X128016000Y-116864000D03*
X128016000Y-108204000D03*
D11*
X132196000Y-108204000D03*
%TD*%
D13*
%TO.N,MOUNTING_PIN*%
%TO.C,H4*%
X127500000Y-124100000D03*
X128202944Y-122402944D03*
X128202944Y-125797056D03*
X129900000Y-121700000D03*
D14*
X129900000Y-124100000D03*
D13*
X129900000Y-126500000D03*
X131597056Y-122402944D03*
X131597056Y-125797056D03*
X132300000Y-124100000D03*
%TD*%
%TO.N,MOUNTING_PIN*%
%TO.C,H1*%
X127500000Y-79100000D03*
X128202944Y-77402944D03*
X128202944Y-80797056D03*
X129900000Y-76700000D03*
D14*
X129900000Y-79100000D03*
D13*
X129900000Y-81500000D03*
X131597056Y-77402944D03*
X131597056Y-80797056D03*
X132300000Y-79100000D03*
%TD*%
%TO.N,MOUNTING_PIN*%
%TO.C,H3*%
X172500000Y-124100000D03*
X173202944Y-122402944D03*
X173202944Y-125797056D03*
X174900000Y-121700000D03*
D14*
X174900000Y-124100000D03*
D13*
X174900000Y-126500000D03*
X176597056Y-122402944D03*
X176597056Y-125797056D03*
X177300000Y-124100000D03*
%TD*%
%TO.N,MOUNTING_PIN*%
%TO.C,H2*%
X172500000Y-79100000D03*
X173202944Y-77402944D03*
X173202944Y-80797056D03*
X174900000Y-76700000D03*
D14*
X174900000Y-79100000D03*
D13*
X174900000Y-81500000D03*
X176597056Y-77402944D03*
X176597056Y-80797056D03*
X177300000Y-79100000D03*
%TD*%
D15*
%TO.N,GND*%
X169367200Y-100533200D03*
D16*
X149250400Y-82092800D03*
D15*
X172200707Y-89000707D03*
X148996400Y-75996800D03*
X165531800Y-109575600D03*
X178400000Y-93500000D03*
X146400000Y-119500000D03*
X158496000Y-78689200D03*
X169500000Y-117500000D03*
X170027600Y-96393000D03*
X152450800Y-76047600D03*
X134300000Y-109000000D03*
X170500000Y-78500000D03*
X173100000Y-93700000D03*
X128650000Y-95800000D03*
X151587200Y-75996800D03*
X146456400Y-76047600D03*
X156800000Y-115700000D03*
X136042400Y-86766400D03*
X179000000Y-110100000D03*
X146456400Y-76962000D03*
X143300000Y-93200000D03*
X136804400Y-81280000D03*
X150495000Y-105943400D03*
X141833600Y-92964000D03*
X136144000Y-82956400D03*
X160680400Y-74930000D03*
X138600000Y-111600000D03*
X169316400Y-102641400D03*
X175150000Y-100300000D03*
X136500000Y-116100000D03*
X137600000Y-90000000D03*
X157530800Y-75996800D03*
X131400000Y-91600000D03*
X142800000Y-122500000D03*
X144272000Y-74930000D03*
X148132800Y-75996800D03*
X147600000Y-117700000D03*
X149800000Y-117400000D03*
X131400000Y-83500000D03*
X152500000Y-111200000D03*
X128350000Y-118250000D03*
X155400000Y-98800000D03*
X151000000Y-122500000D03*
X170992800Y-94945200D03*
X147320000Y-75996800D03*
D16*
X155549600Y-82042000D03*
D15*
X138600000Y-109950000D03*
X163017200Y-104927400D03*
D16*
X155549600Y-80416400D03*
D15*
X143300000Y-90800000D03*
X156800000Y-111200000D03*
X132455093Y-95194907D03*
X160832800Y-104698800D03*
D16*
X152349200Y-79095600D03*
D15*
X154127200Y-76047600D03*
X176400000Y-93400000D03*
X154990800Y-75996800D03*
X166500000Y-81000000D03*
X171297600Y-108077000D03*
X140850000Y-121400000D03*
X138600000Y-117000000D03*
X145288000Y-90170000D03*
X147800000Y-119600000D03*
X149860000Y-75996800D03*
X138550000Y-113250000D03*
X149800000Y-115700000D03*
X142800000Y-127400000D03*
D16*
X152400000Y-85242400D03*
D15*
X157600000Y-103800000D03*
X172890000Y-100320000D03*
X149800000Y-119100000D03*
X132232400Y-107035600D03*
X133650000Y-76350000D03*
X134200000Y-116100000D03*
X156667200Y-75996800D03*
X167970200Y-104317800D03*
X136200000Y-97150000D03*
D16*
X154025600Y-79146400D03*
D15*
X132700000Y-118150000D03*
X166624000Y-78536800D03*
X133650000Y-77600000D03*
X163900000Y-91100000D03*
X137950000Y-124650000D03*
X133731000Y-97536000D03*
X164800000Y-82900000D03*
X143300000Y-75900000D03*
D16*
X150774400Y-85242400D03*
D15*
X152500000Y-115700000D03*
X171000000Y-118400000D03*
X153263600Y-76047600D03*
X161340800Y-81407000D03*
X136550000Y-119150000D03*
X150723600Y-75996800D03*
X134200000Y-105400000D03*
X175050000Y-102850000D03*
X155400000Y-99600000D03*
D16*
X154076400Y-85293200D03*
X177200000Y-117200000D03*
X155498800Y-83820000D03*
D15*
X172920000Y-102880000D03*
D16*
X149250400Y-83769200D03*
D15*
X158343600Y-75996800D03*
X145300000Y-93200000D03*
X171900000Y-106300000D03*
X135940800Y-107848400D03*
X159512000Y-90170000D03*
X136093200Y-84836000D03*
X168700000Y-82500000D03*
X136900000Y-92500000D03*
X179000000Y-106300000D03*
X138684000Y-102362000D03*
X151790400Y-105968800D03*
X156800000Y-107200000D03*
X141750000Y-74800000D03*
X171900000Y-110100000D03*
X158267400Y-110337600D03*
X166350000Y-94350000D03*
X138684000Y-99822000D03*
X158496000Y-77825600D03*
X136042400Y-88646000D03*
X135000000Y-119950000D03*
X138582400Y-92811600D03*
X138480800Y-103632000D03*
X125800000Y-91600000D03*
X128066800Y-107035600D03*
X151000000Y-127400000D03*
D16*
X150774400Y-79095600D03*
D15*
X155854400Y-75996800D03*
X170840400Y-76225400D03*
X135200000Y-90000000D03*
D16*
X149250400Y-80467200D03*
D15*
X140208000Y-92913200D03*
X125800000Y-83500000D03*
D16*
%TO.N,+VCC_USBCPD*%
X135200000Y-110150000D03*
D15*
X142690380Y-110509620D03*
X142550000Y-114050000D03*
D16*
X135400000Y-115184000D03*
%TO.N,+VCC_USBC*%
X134747000Y-98933000D03*
X135255000Y-103632000D03*
%TO.N,+3V3*%
X163068000Y-80772000D03*
X140600000Y-78550000D03*
D15*
X152200000Y-97550000D03*
D16*
X177800000Y-84700000D03*
D15*
X143550000Y-113150000D03*
X144150000Y-79600000D03*
X159131000Y-101600000D03*
D16*
%TO.N,+VCC*%
X167360600Y-106045000D03*
X156400000Y-108980000D03*
X172500000Y-86200000D03*
X165100000Y-112950000D03*
X126365000Y-93573600D03*
X165989000Y-106019600D03*
D15*
%TO.N,ENK_Vgmr*%
X142700000Y-98792746D03*
X149700000Y-98600000D03*
%TO.N,CC1*%
X139750000Y-118700000D03*
X140300000Y-115250000D03*
%TO.N,PWM_LA*%
X149000000Y-90270000D03*
X163644740Y-97438103D03*
%TO.N,Net-(IC1-SOC)*%
X145592800Y-94437200D03*
X159207200Y-102539800D03*
%TO.N,PWM_LC*%
X144070000Y-88450000D03*
X160732510Y-98347045D03*
%TO.N,Net-(IC1-SOB)*%
X159258000Y-103428800D03*
X145045377Y-95217400D03*
%TO.N,PWM_HB*%
X163050000Y-98005901D03*
X148150000Y-90260000D03*
%TO.N,PWM_LB*%
X162250132Y-97991246D03*
X147300000Y-90270000D03*
%TO.N,CTR_nSLEEP*%
X166446200Y-97942400D03*
X160985200Y-86512400D03*
%TO.N,CTR_nFAULT*%
X167309800Y-98094800D03*
X161036000Y-85623400D03*
%TO.N,Net-(IC1-SOA)*%
X159626255Y-104139006D03*
X145673740Y-95826446D03*
%TO.N,PWM_HC*%
X146450000Y-90260000D03*
X161450132Y-97993460D03*
%TO.N,CTR_DRVOFF*%
X161086800Y-84810600D03*
X168046400Y-98526600D03*
%TO.N,PWM_HA*%
X164489754Y-97421943D03*
X149850000Y-90250000D03*
%TO.N,MCURST*%
X141160000Y-117940000D03*
X141300000Y-102300000D03*
%TO.N,SIN_N*%
X153365200Y-97256600D03*
X143800000Y-98300000D03*
%TO.N,SIN_P*%
X144414184Y-97739521D03*
X154609800Y-97510600D03*
%TO.N,COS_P*%
X144426770Y-96939621D03*
X155041600Y-105791000D03*
%TO.N,COS_N*%
X153771600Y-105892600D03*
X145135600Y-96418400D03*
%TO.N,Net-(U2-FB)*%
X167700000Y-86600000D03*
X171100000Y-83800000D03*
%TO.N,MCUSDA*%
X140500000Y-99050400D03*
X143100000Y-120100000D03*
%TO.N,MCUSCL*%
X140400000Y-100000000D03*
X142100000Y-119500000D03*
%TO.N,Net-(Q1-G)*%
X147650000Y-109250000D03*
X149200000Y-107200000D03*
%TD*%
D17*
%TO.N,ENK_Vgmr*%
X149700000Y-98600000D02*
X149349000Y-98951000D01*
X142858254Y-98951000D02*
X142700000Y-98792746D01*
D18*
X142700000Y-98792746D02*
X142808254Y-98901000D01*
D17*
X149349000Y-98951000D02*
X142858254Y-98951000D01*
%TO.N,PWM_LA*%
X157676200Y-91077400D02*
X163644740Y-97045940D01*
X149000000Y-90270000D02*
X149000000Y-90326000D01*
X149000000Y-90320654D02*
X149756746Y-91077400D01*
X163644740Y-97045940D02*
X163644740Y-97438103D01*
X149000000Y-90270000D02*
X149000000Y-90320654D01*
X149756746Y-91077400D02*
X157676200Y-91077400D01*
%TO.N,Net-(IC1-SOC)*%
X146412600Y-93617400D02*
X145592800Y-94437200D01*
X159207200Y-102539800D02*
X159150146Y-102539800D01*
X158262340Y-96537660D02*
X155342080Y-93617400D01*
X155342080Y-93617400D02*
X146412600Y-93617400D01*
X159150146Y-102539800D02*
X158262340Y-101651994D01*
D18*
X145592800Y-94437200D02*
X145643600Y-94437200D01*
D17*
X158262340Y-101651994D02*
X158262340Y-96537660D01*
%TO.N,PWM_LC*%
X144070000Y-88450000D02*
X144070000Y-89872654D01*
X144070000Y-89872654D02*
X147313746Y-93116400D01*
X160732510Y-98299310D02*
X160732510Y-98347045D01*
X147313746Y-93116400D02*
X155549600Y-93116400D01*
X155549600Y-93116400D02*
X160732510Y-98299310D01*
%TO.N,Net-(IC1-SOB)*%
X145862454Y-95088200D02*
X145174577Y-95088200D01*
X159258000Y-103428800D02*
X159028800Y-103428800D01*
X157600000Y-102000000D02*
X157600000Y-96583840D01*
X157600000Y-96583840D02*
X155134560Y-94118400D01*
X145174577Y-95088200D02*
X145045377Y-95217400D01*
X155134560Y-94118400D02*
X146832254Y-94118400D01*
X159028800Y-103428800D02*
X157600000Y-102000000D01*
X146832254Y-94118400D02*
X145862454Y-95088200D01*
D18*
X159246257Y-103428800D02*
X159258000Y-103428800D01*
D17*
%TO.N,PWM_HB*%
X148150000Y-90260000D02*
X148150000Y-90340654D01*
X163050000Y-97746600D02*
X163050000Y-98005901D01*
X156881800Y-91578400D02*
X163050000Y-97746600D01*
X148150000Y-90340654D02*
X149387746Y-91578400D01*
X149387746Y-91578400D02*
X156881800Y-91578400D01*
%TO.N,PWM_LB*%
X147300000Y-90270000D02*
X147300000Y-90330654D01*
X147300000Y-90330654D02*
X149048746Y-92079400D01*
X149048746Y-92079400D02*
X156456726Y-92079400D01*
X156456726Y-92079400D02*
X162250132Y-97872806D01*
X162250132Y-97872806D02*
X162250132Y-97991246D01*
%TO.N,CTR_nSLEEP*%
X160985200Y-86512400D02*
X160985200Y-92481400D01*
X160985200Y-92481400D02*
X166446200Y-97942400D01*
%TO.N,CTR_nFAULT*%
X161636200Y-86850000D02*
X161486200Y-87000000D01*
X161636200Y-86223600D02*
X161636200Y-86850000D01*
X161036000Y-85623400D02*
X161636200Y-86223600D01*
X161486200Y-92061746D02*
X167309800Y-97885346D01*
X161486200Y-87000000D02*
X161486200Y-92061746D01*
X167309800Y-97885346D02*
X167309800Y-98094800D01*
%TO.N,Net-(IC1-SOA)*%
X154927040Y-94619400D02*
X147039774Y-94619400D01*
D18*
X145673740Y-95826446D02*
X145862854Y-95826446D01*
D17*
X157099000Y-96791360D02*
X154927040Y-94619400D01*
X147039774Y-94619400D02*
X145832728Y-95826446D01*
X145832728Y-95826446D02*
X145673740Y-95826446D01*
X159626255Y-104139006D02*
X159685461Y-104079800D01*
X157099000Y-102207521D02*
X157099000Y-96791360D01*
X159685461Y-104079800D02*
X158971279Y-104079800D01*
X158971279Y-104079800D02*
X157099000Y-102207521D01*
%TO.N,PWM_HC*%
X146450000Y-90340654D02*
X148692346Y-92583000D01*
X146450000Y-90260000D02*
X146450000Y-90340654D01*
X148692346Y-92583000D02*
X156039672Y-92583000D01*
X156039672Y-92583000D02*
X161450132Y-97993460D01*
%TO.N,CTR_DRVOFF*%
X162137200Y-87250000D02*
X162137200Y-85803946D01*
X161987200Y-91787200D02*
X161987200Y-87400000D01*
X161987200Y-87400000D02*
X162137200Y-87250000D01*
X168046400Y-98526600D02*
X168046400Y-97846400D01*
X168046400Y-97846400D02*
X161987200Y-91787200D01*
X161143854Y-84810600D02*
X161086800Y-84810600D01*
X162137200Y-85803946D02*
X161143854Y-84810600D01*
%TO.N,PWM_HA*%
X164489754Y-96747954D02*
X164489754Y-97421943D01*
X149850000Y-90363200D02*
X150063200Y-90576400D01*
X158318200Y-90576400D02*
X164489754Y-96747954D01*
X150063200Y-90576400D02*
X158318200Y-90576400D01*
X149850000Y-90250000D02*
X149850000Y-90363200D01*
D18*
%TO.N,MCURST*%
X141160000Y-117940000D02*
X138408100Y-117940000D01*
X140102000Y-102798000D02*
X140600000Y-102300000D01*
X140600000Y-102300000D02*
X141300000Y-102300000D01*
X137902000Y-108032200D02*
X140102000Y-105832200D01*
X138408100Y-117940000D02*
X137902000Y-117433900D01*
X140102000Y-105832200D02*
X140102000Y-102798000D01*
X137902000Y-117433900D02*
X137902000Y-108032200D01*
D17*
%TO.N,SIN_N*%
X148015040Y-96623400D02*
X146247919Y-98390521D01*
X152732000Y-96623400D02*
X148015040Y-96623400D01*
D18*
X153365200Y-97256600D02*
X153593800Y-97256600D01*
D17*
X143890521Y-98390521D02*
X143800000Y-98300000D01*
X146247919Y-98390521D02*
X143890521Y-98390521D01*
X153365200Y-97256600D02*
X152732000Y-96623400D01*
D18*
X143840521Y-98340521D02*
X143800000Y-98300000D01*
D17*
%TO.N,SIN_P*%
X154609800Y-97510600D02*
X154800000Y-97320400D01*
X146190399Y-97739521D02*
X144414184Y-97739521D01*
X154800000Y-96617920D02*
X154304480Y-96122400D01*
X154304480Y-96122400D02*
X147807520Y-96122400D01*
X147807520Y-96122400D02*
X146190399Y-97739521D01*
D18*
X144455157Y-97698548D02*
X144414184Y-97739521D01*
D17*
X154800000Y-97320400D02*
X154800000Y-96617920D01*
%TO.N,COS_P*%
X146152000Y-97069400D02*
X144556549Y-97069400D01*
X156097000Y-97206400D02*
X154512000Y-95621400D01*
X156097000Y-105103000D02*
X156097000Y-97206400D01*
X147600000Y-95621400D02*
X146152000Y-97069400D01*
D18*
X144506549Y-97019400D02*
X144426770Y-96939621D01*
D17*
X155041600Y-105791000D02*
X155409000Y-105791000D01*
X144556549Y-97069400D02*
X144426770Y-96939621D01*
X155409000Y-105791000D02*
X156097000Y-105103000D01*
X154512000Y-95621400D02*
X147600000Y-95621400D01*
%TO.N,COS_N*%
X147200000Y-95200000D02*
X147200000Y-95220840D01*
D18*
X145135600Y-96418400D02*
X145144646Y-96427446D01*
D17*
X147279600Y-95120400D02*
X147200000Y-95200000D01*
X153771600Y-105892600D02*
X154879000Y-107000000D01*
X155890000Y-107000000D02*
X156184600Y-106705400D01*
X145943394Y-96477446D02*
X145194646Y-96477446D01*
X154719520Y-95120400D02*
X147279600Y-95120400D01*
X156598000Y-96998880D02*
X154719520Y-95120400D01*
X156598000Y-106292000D02*
X156598000Y-96998880D01*
X156184600Y-106705400D02*
X156598000Y-106292000D01*
X145194646Y-96477446D02*
X145135600Y-96418400D01*
X154879000Y-107000000D02*
X155890000Y-107000000D01*
X147200000Y-95220840D02*
X145943394Y-96477446D01*
D18*
%TO.N,MCUSDA*%
X140500000Y-99050400D02*
X139300000Y-100250400D01*
X139300000Y-100250400D02*
X139300000Y-105500000D01*
X137100000Y-107700000D02*
X137100000Y-118000000D01*
X137100000Y-118000000D02*
X139200000Y-120100000D01*
X139200000Y-120100000D02*
X143100000Y-120100000D01*
X139300000Y-105500000D02*
X137100000Y-107700000D01*
%TO.N,MCUSCL*%
X139401000Y-119500000D02*
X142100000Y-119500000D01*
X139701000Y-100692632D02*
X139701000Y-105666100D01*
X139707368Y-100692632D02*
X140400000Y-100000000D01*
X137501000Y-107866100D02*
X137501000Y-117600000D01*
X139701000Y-100692632D02*
X139707368Y-100692632D01*
X137501000Y-117600000D02*
X139401000Y-119500000D01*
X139701000Y-105666100D02*
X137501000Y-107866100D01*
%TD*%
M02*
