%TF.GenerationSoftware,KiCad,Pcbnew,9.0.7*%
%TF.CreationDate,2026-05-08T10:50:19+02:00*%
%TF.ProjectId,MiniMotorkontrollerV1,4d696e69-4d6f-4746-9f72-6b6f6e74726f,rev?*%
%TF.SameCoordinates,Original*%
%TF.FileFunction,Soldermask,Bot*%
%TF.FilePolarity,Negative*%
%FSLAX46Y46*%
G04 Gerber Fmt 4.6, Leading zero omitted, Abs format (unit mm)*
G04 Created by KiCad (PCBNEW 9.0.7) date 2026-05-08 10:50:19*
%MOMM*%
%LPD*%
G01*
G04 APERTURE LIST*
G04 APERTURE END LIST*
G36*
X130436020Y-120945213D02*
G01*
X130785874Y-121025065D01*
X131124587Y-121143585D01*
X131447900Y-121299285D01*
X131751748Y-121490205D01*
X132032309Y-121713945D01*
X132286055Y-121967691D01*
X132509795Y-122248252D01*
X132700715Y-122552100D01*
X132856415Y-122875413D01*
X132974935Y-123214126D01*
X133054787Y-123563980D01*
X133094966Y-123920575D01*
X133094966Y-124279425D01*
X133054787Y-124636020D01*
X132974935Y-124985874D01*
X132856415Y-125324587D01*
X132700715Y-125647900D01*
X132509795Y-125951748D01*
X132286055Y-126232309D01*
X132032309Y-126486055D01*
X131751748Y-126709795D01*
X131447900Y-126900715D01*
X131124587Y-127056415D01*
X130785874Y-127174935D01*
X130436020Y-127254787D01*
X130079425Y-127294966D01*
X129720575Y-127294966D01*
X129363980Y-127254787D01*
X129014126Y-127174935D01*
X128675413Y-127056415D01*
X128352100Y-126900715D01*
X128048252Y-126709795D01*
X127767691Y-126486055D01*
X127513945Y-126232309D01*
X127290205Y-125951748D01*
X127099285Y-125647900D01*
X126943585Y-125324587D01*
X126825065Y-124985874D01*
X126745213Y-124636020D01*
X126705034Y-124279425D01*
X126705034Y-123920575D01*
X126745213Y-123563980D01*
X126825065Y-123214126D01*
X126943585Y-122875413D01*
X127099285Y-122552100D01*
X127290205Y-122248252D01*
X127513945Y-121967691D01*
X127767691Y-121713945D01*
X128048252Y-121490205D01*
X128352100Y-121299285D01*
X128675413Y-121143585D01*
X129014126Y-121025065D01*
X129363980Y-120945213D01*
X129720575Y-120905034D01*
X130079425Y-120905034D01*
X130436020Y-120945213D01*
G37*
G36*
X175436020Y-120945213D02*
G01*
X175785874Y-121025065D01*
X176124587Y-121143585D01*
X176447900Y-121299285D01*
X176751748Y-121490205D01*
X177032309Y-121713945D01*
X177286055Y-121967691D01*
X177509795Y-122248252D01*
X177700715Y-122552100D01*
X177856415Y-122875413D01*
X177974935Y-123214126D01*
X178054787Y-123563980D01*
X178094966Y-123920575D01*
X178094966Y-124279425D01*
X178054787Y-124636020D01*
X177974935Y-124985874D01*
X177856415Y-125324587D01*
X177700715Y-125647900D01*
X177509795Y-125951748D01*
X177286055Y-126232309D01*
X177032309Y-126486055D01*
X176751748Y-126709795D01*
X176447900Y-126900715D01*
X176124587Y-127056415D01*
X175785874Y-127174935D01*
X175436020Y-127254787D01*
X175079425Y-127294966D01*
X174720575Y-127294966D01*
X174363980Y-127254787D01*
X174014126Y-127174935D01*
X173675413Y-127056415D01*
X173352100Y-126900715D01*
X173048252Y-126709795D01*
X172767691Y-126486055D01*
X172513945Y-126232309D01*
X172290205Y-125951748D01*
X172099285Y-125647900D01*
X171943585Y-125324587D01*
X171825065Y-124985874D01*
X171745213Y-124636020D01*
X171705034Y-124279425D01*
X171705034Y-123920575D01*
X171745213Y-123563980D01*
X171825065Y-123214126D01*
X171943585Y-122875413D01*
X172099285Y-122552100D01*
X172290205Y-122248252D01*
X172513945Y-121967691D01*
X172767691Y-121713945D01*
X173048252Y-121490205D01*
X173352100Y-121299285D01*
X173675413Y-121143585D01*
X174014126Y-121025065D01*
X174363980Y-120945213D01*
X174720575Y-120905034D01*
X175079425Y-120905034D01*
X175436020Y-120945213D01*
G37*
G36*
X128317837Y-116264120D02*
G01*
X128374179Y-116266887D01*
X128381123Y-116268268D01*
X128394316Y-116269133D01*
X128419804Y-116275962D01*
X128490133Y-116289952D01*
X128523324Y-116303700D01*
X128545610Y-116309672D01*
X128565591Y-116321208D01*
X128598783Y-116334957D01*
X128658397Y-116374790D01*
X128681257Y-116387988D01*
X128687514Y-116394245D01*
X128696555Y-116400286D01*
X128779713Y-116483444D01*
X128785753Y-116492484D01*
X128792012Y-116498743D01*
X128805212Y-116521606D01*
X128845042Y-116581216D01*
X128858789Y-116614404D01*
X128870328Y-116634390D01*
X128876300Y-116656679D01*
X128890047Y-116689866D01*
X128904034Y-116760185D01*
X128910867Y-116785684D01*
X128910867Y-116794533D01*
X128912989Y-116805201D01*
X128912989Y-116922798D01*
X128910867Y-116933465D01*
X128910867Y-116942316D01*
X128904033Y-116967817D01*
X128890047Y-117038133D01*
X128876301Y-117071318D01*
X128870328Y-117093610D01*
X128858787Y-117113598D01*
X128845042Y-117146783D01*
X128805216Y-117206386D01*
X128792012Y-117229257D01*
X128785751Y-117235517D01*
X128779713Y-117244555D01*
X128696555Y-117327713D01*
X128687517Y-117333751D01*
X128681257Y-117340012D01*
X128658386Y-117353216D01*
X128598783Y-117393042D01*
X128565598Y-117406787D01*
X128545610Y-117418328D01*
X128523318Y-117424301D01*
X128490133Y-117438047D01*
X128419818Y-117452033D01*
X128394316Y-117458867D01*
X128381115Y-117459732D01*
X128374179Y-117461112D01*
X128317839Y-117463879D01*
X128316000Y-117464000D01*
X128315385Y-117464000D01*
X127716615Y-117464000D01*
X127716000Y-117464000D01*
X127714160Y-117463879D01*
X127657820Y-117461112D01*
X127650882Y-117459732D01*
X127637684Y-117458867D01*
X127612183Y-117452034D01*
X127541866Y-117438047D01*
X127508679Y-117424300D01*
X127486390Y-117418328D01*
X127466404Y-117406789D01*
X127433216Y-117393042D01*
X127373606Y-117353212D01*
X127350743Y-117340012D01*
X127344484Y-117333753D01*
X127335444Y-117327713D01*
X127252286Y-117244555D01*
X127246245Y-117235514D01*
X127239988Y-117229257D01*
X127226790Y-117206397D01*
X127186957Y-117146783D01*
X127173208Y-117113591D01*
X127161672Y-117093610D01*
X127155700Y-117071324D01*
X127141952Y-117038133D01*
X127127964Y-116967812D01*
X127121133Y-116942316D01*
X127121133Y-116933466D01*
X127119011Y-116922798D01*
X127119011Y-116805201D01*
X127121133Y-116794532D01*
X127121133Y-116785684D01*
X127127963Y-116760190D01*
X127141952Y-116689866D01*
X127155701Y-116656672D01*
X127161672Y-116634390D01*
X127173207Y-116614410D01*
X127186957Y-116581216D01*
X127226794Y-116521595D01*
X127239988Y-116498743D01*
X127246243Y-116492487D01*
X127252286Y-116483444D01*
X127335444Y-116400286D01*
X127344487Y-116394243D01*
X127350743Y-116387988D01*
X127373595Y-116374794D01*
X127433216Y-116334957D01*
X127466410Y-116321207D01*
X127486390Y-116309672D01*
X127508672Y-116303701D01*
X127541866Y-116289952D01*
X127612198Y-116275961D01*
X127637684Y-116269133D01*
X127650875Y-116268268D01*
X127657820Y-116266887D01*
X127714163Y-116264120D01*
X127716000Y-116264000D01*
X128316000Y-116264000D01*
X128317837Y-116264120D01*
G37*
G36*
X132597837Y-116264120D02*
G01*
X132654179Y-116266887D01*
X132661123Y-116268268D01*
X132674316Y-116269133D01*
X132699804Y-116275962D01*
X132770133Y-116289952D01*
X132803324Y-116303700D01*
X132825610Y-116309672D01*
X132845591Y-116321208D01*
X132878783Y-116334957D01*
X132938397Y-116374790D01*
X132961257Y-116387988D01*
X132967514Y-116394245D01*
X132976555Y-116400286D01*
X133059713Y-116483444D01*
X133065753Y-116492484D01*
X133072012Y-116498743D01*
X133085212Y-116521606D01*
X133125042Y-116581216D01*
X133138789Y-116614404D01*
X133150328Y-116634390D01*
X133156300Y-116656679D01*
X133170047Y-116689866D01*
X133184034Y-116760185D01*
X133190867Y-116785684D01*
X133190867Y-116794533D01*
X133192989Y-116805201D01*
X133192989Y-116922798D01*
X133190867Y-116933465D01*
X133190867Y-116942316D01*
X133184033Y-116967817D01*
X133170047Y-117038133D01*
X133156301Y-117071318D01*
X133150328Y-117093610D01*
X133138787Y-117113598D01*
X133125042Y-117146783D01*
X133085216Y-117206386D01*
X133072012Y-117229257D01*
X133065751Y-117235517D01*
X133059713Y-117244555D01*
X132976555Y-117327713D01*
X132967517Y-117333751D01*
X132961257Y-117340012D01*
X132938386Y-117353216D01*
X132878783Y-117393042D01*
X132845598Y-117406787D01*
X132825610Y-117418328D01*
X132803318Y-117424301D01*
X132770133Y-117438047D01*
X132699818Y-117452033D01*
X132674316Y-117458867D01*
X132661115Y-117459732D01*
X132654179Y-117461112D01*
X132597839Y-117463879D01*
X132596000Y-117464000D01*
X132595385Y-117464000D01*
X131796615Y-117464000D01*
X131796000Y-117464000D01*
X131794160Y-117463879D01*
X131737820Y-117461112D01*
X131730882Y-117459732D01*
X131717684Y-117458867D01*
X131692183Y-117452034D01*
X131621866Y-117438047D01*
X131588679Y-117424300D01*
X131566390Y-117418328D01*
X131546404Y-117406789D01*
X131513216Y-117393042D01*
X131453606Y-117353212D01*
X131430743Y-117340012D01*
X131424484Y-117333753D01*
X131415444Y-117327713D01*
X131332286Y-117244555D01*
X131326245Y-117235514D01*
X131319988Y-117229257D01*
X131306790Y-117206397D01*
X131266957Y-117146783D01*
X131253208Y-117113591D01*
X131241672Y-117093610D01*
X131235700Y-117071324D01*
X131221952Y-117038133D01*
X131207964Y-116967812D01*
X131201133Y-116942316D01*
X131201133Y-116933466D01*
X131199011Y-116922798D01*
X131199011Y-116805201D01*
X131201133Y-116794532D01*
X131201133Y-116785684D01*
X131207963Y-116760190D01*
X131221952Y-116689866D01*
X131235701Y-116656672D01*
X131241672Y-116634390D01*
X131253207Y-116614410D01*
X131266957Y-116581216D01*
X131306794Y-116521595D01*
X131319988Y-116498743D01*
X131326243Y-116492487D01*
X131332286Y-116483444D01*
X131415444Y-116400286D01*
X131424487Y-116394243D01*
X131430743Y-116387988D01*
X131453595Y-116374794D01*
X131513216Y-116334957D01*
X131546410Y-116321207D01*
X131566390Y-116309672D01*
X131588672Y-116303701D01*
X131621866Y-116289952D01*
X131692198Y-116275961D01*
X131717684Y-116269133D01*
X131730875Y-116268268D01*
X131737820Y-116266887D01*
X131794163Y-116264120D01*
X131796000Y-116264000D01*
X132596000Y-116264000D01*
X132597837Y-116264120D01*
G37*
G36*
X176940285Y-113813060D02*
G01*
X177121397Y-113888079D01*
X177284393Y-113996990D01*
X177423010Y-114135607D01*
X177531921Y-114298603D01*
X177606940Y-114479715D01*
X177645185Y-114671983D01*
X177645185Y-114868017D01*
X177606940Y-115060285D01*
X177531921Y-115241397D01*
X177423010Y-115404393D01*
X177284393Y-115543010D01*
X177121397Y-115651921D01*
X176940285Y-115726940D01*
X176748017Y-115765185D01*
X176551983Y-115765185D01*
X176359715Y-115726940D01*
X176178603Y-115651921D01*
X176015607Y-115543010D01*
X175876990Y-115404393D01*
X175768079Y-115241397D01*
X175693060Y-115060285D01*
X175654815Y-114868017D01*
X175654815Y-114671983D01*
X175693060Y-114479715D01*
X175768079Y-114298603D01*
X175876990Y-114135607D01*
X176015607Y-113996990D01*
X176178603Y-113888079D01*
X176359715Y-113813060D01*
X176551983Y-113774815D01*
X176748017Y-113774815D01*
X176940285Y-113813060D01*
G37*
G36*
X131820372Y-115133739D02*
G01*
X131893847Y-115176160D01*
X131953840Y-115236153D01*
X131996261Y-115309628D01*
X132018220Y-115391579D01*
X132018220Y-115476421D01*
X131996261Y-115558372D01*
X131953840Y-115631847D01*
X131893847Y-115691840D01*
X131820372Y-115734261D01*
X131738421Y-115756220D01*
X131653579Y-115756220D01*
X131571628Y-115734261D01*
X131498153Y-115691840D01*
X131438160Y-115631847D01*
X131395739Y-115558372D01*
X131373780Y-115476421D01*
X131373780Y-115391579D01*
X131395739Y-115309628D01*
X131438160Y-115236153D01*
X131498153Y-115176160D01*
X131571628Y-115133739D01*
X131653579Y-115111780D01*
X131738421Y-115111780D01*
X131820372Y-115133739D01*
G37*
G36*
X176940285Y-111273060D02*
G01*
X177121397Y-111348079D01*
X177284393Y-111456990D01*
X177423010Y-111595607D01*
X177531921Y-111758603D01*
X177606940Y-111939715D01*
X177645185Y-112131983D01*
X177645185Y-112328017D01*
X177606940Y-112520285D01*
X177531921Y-112701397D01*
X177423010Y-112864393D01*
X177284393Y-113003010D01*
X177121397Y-113111921D01*
X176940285Y-113186940D01*
X176748017Y-113225185D01*
X176551983Y-113225185D01*
X176359715Y-113186940D01*
X176178603Y-113111921D01*
X176015607Y-113003010D01*
X175876990Y-112864393D01*
X175768079Y-112701397D01*
X175693060Y-112520285D01*
X175654815Y-112328017D01*
X175654815Y-112131983D01*
X175693060Y-111939715D01*
X175768079Y-111758603D01*
X175876990Y-111595607D01*
X176015607Y-111456990D01*
X176178603Y-111348079D01*
X176359715Y-111273060D01*
X176551983Y-111234815D01*
X176748017Y-111234815D01*
X176940285Y-111273060D01*
G37*
G36*
X131820372Y-109333739D02*
G01*
X131893847Y-109376160D01*
X131953840Y-109436153D01*
X131996261Y-109509628D01*
X132018220Y-109591579D01*
X132018220Y-109676421D01*
X131996261Y-109758372D01*
X131953840Y-109831847D01*
X131893847Y-109891840D01*
X131820372Y-109934261D01*
X131738421Y-109956220D01*
X131653579Y-109956220D01*
X131571628Y-109934261D01*
X131498153Y-109891840D01*
X131438160Y-109831847D01*
X131395739Y-109758372D01*
X131373780Y-109676421D01*
X131373780Y-109591579D01*
X131395739Y-109509628D01*
X131438160Y-109436153D01*
X131498153Y-109376160D01*
X131571628Y-109333739D01*
X131653579Y-109311780D01*
X131738421Y-109311780D01*
X131820372Y-109333739D01*
G37*
G36*
X128317837Y-107604120D02*
G01*
X128374179Y-107606887D01*
X128381123Y-107608268D01*
X128394316Y-107609133D01*
X128419804Y-107615962D01*
X128490133Y-107629952D01*
X128523324Y-107643700D01*
X128545610Y-107649672D01*
X128565591Y-107661208D01*
X128598783Y-107674957D01*
X128658397Y-107714790D01*
X128681257Y-107727988D01*
X128687514Y-107734245D01*
X128696555Y-107740286D01*
X128779713Y-107823444D01*
X128785753Y-107832484D01*
X128792012Y-107838743D01*
X128805212Y-107861606D01*
X128845042Y-107921216D01*
X128858789Y-107954404D01*
X128870328Y-107974390D01*
X128876300Y-107996679D01*
X128890047Y-108029866D01*
X128904034Y-108100185D01*
X128910867Y-108125684D01*
X128910867Y-108134533D01*
X128912989Y-108145201D01*
X128912989Y-108262798D01*
X128910867Y-108273465D01*
X128910867Y-108282316D01*
X128904033Y-108307817D01*
X128890047Y-108378133D01*
X128876301Y-108411318D01*
X128870328Y-108433610D01*
X128858787Y-108453598D01*
X128845042Y-108486783D01*
X128805216Y-108546386D01*
X128792012Y-108569257D01*
X128785751Y-108575517D01*
X128779713Y-108584555D01*
X128696555Y-108667713D01*
X128687517Y-108673751D01*
X128681257Y-108680012D01*
X128658386Y-108693216D01*
X128598783Y-108733042D01*
X128565598Y-108746787D01*
X128545610Y-108758328D01*
X128523318Y-108764301D01*
X128490133Y-108778047D01*
X128419818Y-108792033D01*
X128394316Y-108798867D01*
X128381115Y-108799732D01*
X128374179Y-108801112D01*
X128317839Y-108803879D01*
X128316000Y-108804000D01*
X128315385Y-108804000D01*
X127716615Y-108804000D01*
X127716000Y-108804000D01*
X127714160Y-108803879D01*
X127657820Y-108801112D01*
X127650882Y-108799732D01*
X127637684Y-108798867D01*
X127612183Y-108792034D01*
X127541866Y-108778047D01*
X127508679Y-108764300D01*
X127486390Y-108758328D01*
X127466404Y-108746789D01*
X127433216Y-108733042D01*
X127373606Y-108693212D01*
X127350743Y-108680012D01*
X127344484Y-108673753D01*
X127335444Y-108667713D01*
X127252286Y-108584555D01*
X127246245Y-108575514D01*
X127239988Y-108569257D01*
X127226790Y-108546397D01*
X127186957Y-108486783D01*
X127173208Y-108453591D01*
X127161672Y-108433610D01*
X127155700Y-108411324D01*
X127141952Y-108378133D01*
X127127964Y-108307812D01*
X127121133Y-108282316D01*
X127121133Y-108273466D01*
X127119011Y-108262798D01*
X127119011Y-108145201D01*
X127121133Y-108134532D01*
X127121133Y-108125684D01*
X127127963Y-108100190D01*
X127141952Y-108029866D01*
X127155701Y-107996672D01*
X127161672Y-107974390D01*
X127173207Y-107954410D01*
X127186957Y-107921216D01*
X127226794Y-107861595D01*
X127239988Y-107838743D01*
X127246243Y-107832487D01*
X127252286Y-107823444D01*
X127335444Y-107740286D01*
X127344487Y-107734243D01*
X127350743Y-107727988D01*
X127373595Y-107714794D01*
X127433216Y-107674957D01*
X127466410Y-107661207D01*
X127486390Y-107649672D01*
X127508672Y-107643701D01*
X127541866Y-107629952D01*
X127612198Y-107615961D01*
X127637684Y-107609133D01*
X127650875Y-107608268D01*
X127657820Y-107606887D01*
X127714163Y-107604120D01*
X127716000Y-107604000D01*
X128316000Y-107604000D01*
X128317837Y-107604120D01*
G37*
G36*
X132597837Y-107604120D02*
G01*
X132654179Y-107606887D01*
X132661123Y-107608268D01*
X132674316Y-107609133D01*
X132699804Y-107615962D01*
X132770133Y-107629952D01*
X132803324Y-107643700D01*
X132825610Y-107649672D01*
X132845591Y-107661208D01*
X132878783Y-107674957D01*
X132938397Y-107714790D01*
X132961257Y-107727988D01*
X132967514Y-107734245D01*
X132976555Y-107740286D01*
X133059713Y-107823444D01*
X133065753Y-107832484D01*
X133072012Y-107838743D01*
X133085212Y-107861606D01*
X133125042Y-107921216D01*
X133138789Y-107954404D01*
X133150328Y-107974390D01*
X133156300Y-107996679D01*
X133170047Y-108029866D01*
X133184034Y-108100185D01*
X133190867Y-108125684D01*
X133190867Y-108134533D01*
X133192989Y-108145201D01*
X133192989Y-108262798D01*
X133190867Y-108273465D01*
X133190867Y-108282316D01*
X133184033Y-108307817D01*
X133170047Y-108378133D01*
X133156301Y-108411318D01*
X133150328Y-108433610D01*
X133138787Y-108453598D01*
X133125042Y-108486783D01*
X133085216Y-108546386D01*
X133072012Y-108569257D01*
X133065751Y-108575517D01*
X133059713Y-108584555D01*
X132976555Y-108667713D01*
X132967517Y-108673751D01*
X132961257Y-108680012D01*
X132938386Y-108693216D01*
X132878783Y-108733042D01*
X132845598Y-108746787D01*
X132825610Y-108758328D01*
X132803318Y-108764301D01*
X132770133Y-108778047D01*
X132699818Y-108792033D01*
X132674316Y-108798867D01*
X132661115Y-108799732D01*
X132654179Y-108801112D01*
X132597839Y-108803879D01*
X132596000Y-108804000D01*
X132595385Y-108804000D01*
X131796615Y-108804000D01*
X131796000Y-108804000D01*
X131794160Y-108803879D01*
X131737820Y-108801112D01*
X131730882Y-108799732D01*
X131717684Y-108798867D01*
X131692183Y-108792034D01*
X131621866Y-108778047D01*
X131588679Y-108764300D01*
X131566390Y-108758328D01*
X131546404Y-108746789D01*
X131513216Y-108733042D01*
X131453606Y-108693212D01*
X131430743Y-108680012D01*
X131424484Y-108673753D01*
X131415444Y-108667713D01*
X131332286Y-108584555D01*
X131326245Y-108575514D01*
X131319988Y-108569257D01*
X131306790Y-108546397D01*
X131266957Y-108486783D01*
X131253208Y-108453591D01*
X131241672Y-108433610D01*
X131235700Y-108411324D01*
X131221952Y-108378133D01*
X131207964Y-108307812D01*
X131201133Y-108282316D01*
X131201133Y-108273466D01*
X131199011Y-108262798D01*
X131199011Y-108145201D01*
X131201133Y-108134532D01*
X131201133Y-108125684D01*
X131207963Y-108100190D01*
X131221952Y-108029866D01*
X131235701Y-107996672D01*
X131241672Y-107974390D01*
X131253207Y-107954410D01*
X131266957Y-107921216D01*
X131306794Y-107861595D01*
X131319988Y-107838743D01*
X131326243Y-107832487D01*
X131332286Y-107823444D01*
X131415444Y-107740286D01*
X131424487Y-107734243D01*
X131430743Y-107727988D01*
X131453595Y-107714794D01*
X131513216Y-107674957D01*
X131546410Y-107661207D01*
X131566390Y-107649672D01*
X131588672Y-107643701D01*
X131621866Y-107629952D01*
X131692198Y-107615961D01*
X131717684Y-107609133D01*
X131730875Y-107608268D01*
X131737820Y-107606887D01*
X131794163Y-107604120D01*
X131796000Y-107604000D01*
X132596000Y-107604000D01*
X132597837Y-107604120D01*
G37*
G36*
X128364337Y-105264120D02*
G01*
X128420679Y-105266887D01*
X128427623Y-105268268D01*
X128440816Y-105269133D01*
X128466304Y-105275962D01*
X128536633Y-105289952D01*
X128569824Y-105303700D01*
X128592110Y-105309672D01*
X128612091Y-105321208D01*
X128645283Y-105334957D01*
X128704897Y-105374790D01*
X128727757Y-105387988D01*
X128734014Y-105394245D01*
X128743055Y-105400286D01*
X128826213Y-105483444D01*
X128832253Y-105492484D01*
X128838512Y-105498743D01*
X128851712Y-105521606D01*
X128891542Y-105581216D01*
X128905289Y-105614404D01*
X128916828Y-105634390D01*
X128922800Y-105656679D01*
X128936547Y-105689866D01*
X128950534Y-105760185D01*
X128957367Y-105785684D01*
X128957367Y-105794533D01*
X128959489Y-105805201D01*
X128959489Y-105922798D01*
X128957367Y-105933465D01*
X128957367Y-105942316D01*
X128950533Y-105967817D01*
X128936547Y-106038133D01*
X128922801Y-106071318D01*
X128916828Y-106093610D01*
X128905287Y-106113598D01*
X128891542Y-106146783D01*
X128851716Y-106206386D01*
X128838512Y-106229257D01*
X128832251Y-106235517D01*
X128826213Y-106244555D01*
X128743055Y-106327713D01*
X128734017Y-106333751D01*
X128727757Y-106340012D01*
X128704886Y-106353216D01*
X128645283Y-106393042D01*
X128612098Y-106406787D01*
X128592110Y-106418328D01*
X128569818Y-106424301D01*
X128536633Y-106438047D01*
X128466318Y-106452033D01*
X128440816Y-106458867D01*
X128427615Y-106459732D01*
X128420679Y-106461112D01*
X128364339Y-106463879D01*
X128362500Y-106464000D01*
X128361885Y-106464000D01*
X127763115Y-106464000D01*
X127762500Y-106464000D01*
X127760660Y-106463879D01*
X127704320Y-106461112D01*
X127697382Y-106459732D01*
X127684184Y-106458867D01*
X127658683Y-106452034D01*
X127588366Y-106438047D01*
X127555179Y-106424300D01*
X127532890Y-106418328D01*
X127512904Y-106406789D01*
X127479716Y-106393042D01*
X127420106Y-106353212D01*
X127397243Y-106340012D01*
X127390984Y-106333753D01*
X127381944Y-106327713D01*
X127298786Y-106244555D01*
X127292745Y-106235514D01*
X127286488Y-106229257D01*
X127273290Y-106206397D01*
X127233457Y-106146783D01*
X127219708Y-106113591D01*
X127208172Y-106093610D01*
X127202200Y-106071324D01*
X127188452Y-106038133D01*
X127174464Y-105967812D01*
X127167633Y-105942316D01*
X127167633Y-105933466D01*
X127165511Y-105922798D01*
X127165511Y-105805201D01*
X127167633Y-105794532D01*
X127167633Y-105785684D01*
X127174463Y-105760190D01*
X127188452Y-105689866D01*
X127202201Y-105656672D01*
X127208172Y-105634390D01*
X127219707Y-105614410D01*
X127233457Y-105581216D01*
X127273294Y-105521595D01*
X127286488Y-105498743D01*
X127292743Y-105492487D01*
X127298786Y-105483444D01*
X127381944Y-105400286D01*
X127390987Y-105394243D01*
X127397243Y-105387988D01*
X127420095Y-105374794D01*
X127479716Y-105334957D01*
X127512910Y-105321207D01*
X127532890Y-105309672D01*
X127555172Y-105303701D01*
X127588366Y-105289952D01*
X127658698Y-105275961D01*
X127684184Y-105269133D01*
X127697375Y-105268268D01*
X127704320Y-105266887D01*
X127760663Y-105264120D01*
X127762500Y-105264000D01*
X128362500Y-105264000D01*
X128364337Y-105264120D01*
G37*
G36*
X132644337Y-105264120D02*
G01*
X132700679Y-105266887D01*
X132707623Y-105268268D01*
X132720816Y-105269133D01*
X132746304Y-105275962D01*
X132816633Y-105289952D01*
X132849824Y-105303700D01*
X132872110Y-105309672D01*
X132892091Y-105321208D01*
X132925283Y-105334957D01*
X132984897Y-105374790D01*
X133007757Y-105387988D01*
X133014014Y-105394245D01*
X133023055Y-105400286D01*
X133106213Y-105483444D01*
X133112253Y-105492484D01*
X133118512Y-105498743D01*
X133131712Y-105521606D01*
X133171542Y-105581216D01*
X133185289Y-105614404D01*
X133196828Y-105634390D01*
X133202800Y-105656679D01*
X133216547Y-105689866D01*
X133230534Y-105760185D01*
X133237367Y-105785684D01*
X133237367Y-105794533D01*
X133239489Y-105805201D01*
X133239489Y-105922798D01*
X133237367Y-105933465D01*
X133237367Y-105942316D01*
X133230533Y-105967817D01*
X133216547Y-106038133D01*
X133202801Y-106071318D01*
X133196828Y-106093610D01*
X133185287Y-106113598D01*
X133171542Y-106146783D01*
X133131716Y-106206386D01*
X133118512Y-106229257D01*
X133112251Y-106235517D01*
X133106213Y-106244555D01*
X133023055Y-106327713D01*
X133014017Y-106333751D01*
X133007757Y-106340012D01*
X132984886Y-106353216D01*
X132925283Y-106393042D01*
X132892098Y-106406787D01*
X132872110Y-106418328D01*
X132849818Y-106424301D01*
X132816633Y-106438047D01*
X132746318Y-106452033D01*
X132720816Y-106458867D01*
X132707615Y-106459732D01*
X132700679Y-106461112D01*
X132644339Y-106463879D01*
X132642500Y-106464000D01*
X132641885Y-106464000D01*
X131843115Y-106464000D01*
X131842500Y-106464000D01*
X131840660Y-106463879D01*
X131784320Y-106461112D01*
X131777382Y-106459732D01*
X131764184Y-106458867D01*
X131738683Y-106452034D01*
X131668366Y-106438047D01*
X131635179Y-106424300D01*
X131612890Y-106418328D01*
X131592904Y-106406789D01*
X131559716Y-106393042D01*
X131500106Y-106353212D01*
X131477243Y-106340012D01*
X131470984Y-106333753D01*
X131461944Y-106327713D01*
X131378786Y-106244555D01*
X131372745Y-106235514D01*
X131366488Y-106229257D01*
X131353290Y-106206397D01*
X131313457Y-106146783D01*
X131299708Y-106113591D01*
X131288172Y-106093610D01*
X131282200Y-106071324D01*
X131268452Y-106038133D01*
X131254464Y-105967812D01*
X131247633Y-105942316D01*
X131247633Y-105933466D01*
X131245511Y-105922798D01*
X131245511Y-105805201D01*
X131247633Y-105794532D01*
X131247633Y-105785684D01*
X131254463Y-105760190D01*
X131268452Y-105689866D01*
X131282201Y-105656672D01*
X131288172Y-105634390D01*
X131299707Y-105614410D01*
X131313457Y-105581216D01*
X131353294Y-105521595D01*
X131366488Y-105498743D01*
X131372743Y-105492487D01*
X131378786Y-105483444D01*
X131461944Y-105400286D01*
X131470987Y-105394243D01*
X131477243Y-105387988D01*
X131500095Y-105374794D01*
X131559716Y-105334957D01*
X131592910Y-105321207D01*
X131612890Y-105309672D01*
X131635172Y-105303701D01*
X131668366Y-105289952D01*
X131738698Y-105275961D01*
X131764184Y-105269133D01*
X131777375Y-105268268D01*
X131784320Y-105266887D01*
X131840663Y-105264120D01*
X131842500Y-105264000D01*
X132642500Y-105264000D01*
X132644337Y-105264120D01*
G37*
G36*
X150614805Y-103417836D02*
G01*
X150682628Y-103456994D01*
X150738006Y-103512372D01*
X150777164Y-103580195D01*
X150797433Y-103655842D01*
X150800000Y-103695000D01*
X150800000Y-104985000D01*
X150797433Y-105024158D01*
X150777164Y-105099805D01*
X150738006Y-105167628D01*
X150682628Y-105223006D01*
X150614805Y-105262164D01*
X150539158Y-105282433D01*
X150460842Y-105282433D01*
X150385195Y-105262164D01*
X150317372Y-105223006D01*
X150261994Y-105167628D01*
X150222836Y-105099805D01*
X150202567Y-105024158D01*
X150200000Y-104985000D01*
X150200000Y-103695000D01*
X150202567Y-103655842D01*
X150222836Y-103580195D01*
X150261994Y-103512372D01*
X150317372Y-103456994D01*
X150385195Y-103417836D01*
X150460842Y-103397567D01*
X150539158Y-103397567D01*
X150614805Y-103417836D01*
G37*
G36*
X151884805Y-103417836D02*
G01*
X151952628Y-103456994D01*
X152008006Y-103512372D01*
X152047164Y-103580195D01*
X152067433Y-103655842D01*
X152070000Y-103695000D01*
X152070000Y-104985000D01*
X152067433Y-105024158D01*
X152047164Y-105099805D01*
X152008006Y-105167628D01*
X151952628Y-105223006D01*
X151884805Y-105262164D01*
X151809158Y-105282433D01*
X151730842Y-105282433D01*
X151655195Y-105262164D01*
X151587372Y-105223006D01*
X151531994Y-105167628D01*
X151492836Y-105099805D01*
X151472567Y-105024158D01*
X151470000Y-104985000D01*
X151470000Y-103695000D01*
X151472567Y-103655842D01*
X151492836Y-103580195D01*
X151531994Y-103512372D01*
X151587372Y-103456994D01*
X151655195Y-103417836D01*
X151730842Y-103397567D01*
X151809158Y-103397567D01*
X151884805Y-103417836D01*
G37*
G36*
X153144805Y-103417836D02*
G01*
X153212628Y-103456994D01*
X153268006Y-103512372D01*
X153307164Y-103580195D01*
X153327433Y-103655842D01*
X153330000Y-103695000D01*
X153330000Y-104985000D01*
X153327433Y-105024158D01*
X153307164Y-105099805D01*
X153268006Y-105167628D01*
X153212628Y-105223006D01*
X153144805Y-105262164D01*
X153069158Y-105282433D01*
X152990842Y-105282433D01*
X152915195Y-105262164D01*
X152847372Y-105223006D01*
X152791994Y-105167628D01*
X152752836Y-105099805D01*
X152732567Y-105024158D01*
X152730000Y-104985000D01*
X152730000Y-103695000D01*
X152732567Y-103655842D01*
X152752836Y-103580195D01*
X152791994Y-103512372D01*
X152847372Y-103456994D01*
X152915195Y-103417836D01*
X152990842Y-103397567D01*
X153069158Y-103397567D01*
X153144805Y-103417836D01*
G37*
G36*
X154424805Y-103417836D02*
G01*
X154492628Y-103456994D01*
X154548006Y-103512372D01*
X154587164Y-103580195D01*
X154607433Y-103655842D01*
X154610000Y-103695000D01*
X154610000Y-104985000D01*
X154607433Y-105024158D01*
X154587164Y-105099805D01*
X154548006Y-105167628D01*
X154492628Y-105223006D01*
X154424805Y-105262164D01*
X154349158Y-105282433D01*
X154270842Y-105282433D01*
X154195195Y-105262164D01*
X154127372Y-105223006D01*
X154071994Y-105167628D01*
X154032836Y-105099805D01*
X154012567Y-105024158D01*
X154010000Y-104985000D01*
X154010000Y-103695000D01*
X154012567Y-103655842D01*
X154032836Y-103580195D01*
X154071994Y-103512372D01*
X154127372Y-103456994D01*
X154195195Y-103417836D01*
X154270842Y-103397567D01*
X154349158Y-103397567D01*
X154424805Y-103417836D01*
G37*
G36*
X176890285Y-103183060D02*
G01*
X177071397Y-103258079D01*
X177234393Y-103366990D01*
X177373010Y-103505607D01*
X177481921Y-103668603D01*
X177556940Y-103849715D01*
X177595185Y-104041983D01*
X177595185Y-104238017D01*
X177556940Y-104430285D01*
X177481921Y-104611397D01*
X177373010Y-104774393D01*
X177234393Y-104913010D01*
X177071397Y-105021921D01*
X176890285Y-105096940D01*
X176698017Y-105135185D01*
X176501983Y-105135185D01*
X176309715Y-105096940D01*
X176128603Y-105021921D01*
X175965607Y-104913010D01*
X175826990Y-104774393D01*
X175718079Y-104611397D01*
X175643060Y-104430285D01*
X175604815Y-104238017D01*
X175604815Y-104041983D01*
X175643060Y-103849715D01*
X175718079Y-103668603D01*
X175826990Y-103505607D01*
X175965607Y-103366990D01*
X176128603Y-103258079D01*
X176309715Y-103183060D01*
X176501983Y-103144815D01*
X176698017Y-103144815D01*
X176890285Y-103183060D01*
G37*
G36*
X131866872Y-104133739D02*
G01*
X131940347Y-104176160D01*
X132000340Y-104236153D01*
X132042761Y-104309628D01*
X132064720Y-104391579D01*
X132064720Y-104476421D01*
X132042761Y-104558372D01*
X132000340Y-104631847D01*
X131940347Y-104691840D01*
X131866872Y-104734261D01*
X131784921Y-104756220D01*
X131700079Y-104756220D01*
X131618128Y-104734261D01*
X131544653Y-104691840D01*
X131484660Y-104631847D01*
X131442239Y-104558372D01*
X131420280Y-104476421D01*
X131420280Y-104391579D01*
X131442239Y-104309628D01*
X131484660Y-104236153D01*
X131544653Y-104176160D01*
X131618128Y-104133739D01*
X131700079Y-104111780D01*
X131784921Y-104111780D01*
X131866872Y-104133739D01*
G37*
G36*
X176890285Y-100643060D02*
G01*
X177071397Y-100718079D01*
X177234393Y-100826990D01*
X177373010Y-100965607D01*
X177481921Y-101128603D01*
X177556940Y-101309715D01*
X177595185Y-101501983D01*
X177595185Y-101698017D01*
X177556940Y-101890285D01*
X177481921Y-102071397D01*
X177373010Y-102234393D01*
X177234393Y-102373010D01*
X177071397Y-102481921D01*
X176890285Y-102556940D01*
X176698017Y-102595185D01*
X176501983Y-102595185D01*
X176309715Y-102556940D01*
X176128603Y-102481921D01*
X175965607Y-102373010D01*
X175826990Y-102234393D01*
X175718079Y-102071397D01*
X175643060Y-101890285D01*
X175604815Y-101698017D01*
X175604815Y-101501983D01*
X175643060Y-101309715D01*
X175718079Y-101128603D01*
X175826990Y-100965607D01*
X175965607Y-100826990D01*
X176128603Y-100718079D01*
X176309715Y-100643060D01*
X176501983Y-100604815D01*
X176698017Y-100604815D01*
X176890285Y-100643060D01*
G37*
G36*
X176890285Y-98103060D02*
G01*
X177071397Y-98178079D01*
X177234393Y-98286990D01*
X177373010Y-98425607D01*
X177481921Y-98588603D01*
X177556940Y-98769715D01*
X177595185Y-98961983D01*
X177595185Y-99158017D01*
X177556940Y-99350285D01*
X177481921Y-99531397D01*
X177373010Y-99694393D01*
X177234393Y-99833010D01*
X177071397Y-99941921D01*
X176890285Y-100016940D01*
X176698017Y-100055185D01*
X176501983Y-100055185D01*
X176309715Y-100016940D01*
X176128603Y-99941921D01*
X175965607Y-99833010D01*
X175826990Y-99694393D01*
X175718079Y-99531397D01*
X175643060Y-99350285D01*
X175604815Y-99158017D01*
X175604815Y-98961983D01*
X175643060Y-98769715D01*
X175718079Y-98588603D01*
X175826990Y-98425607D01*
X175965607Y-98286990D01*
X176128603Y-98178079D01*
X176309715Y-98103060D01*
X176501983Y-98064815D01*
X176698017Y-98064815D01*
X176890285Y-98103060D01*
G37*
G36*
X150614805Y-97937836D02*
G01*
X150682628Y-97976994D01*
X150738006Y-98032372D01*
X150777164Y-98100195D01*
X150797433Y-98175842D01*
X150800000Y-98215000D01*
X150800000Y-99505000D01*
X150797433Y-99544158D01*
X150777164Y-99619805D01*
X150738006Y-99687628D01*
X150682628Y-99743006D01*
X150614805Y-99782164D01*
X150539158Y-99802433D01*
X150460842Y-99802433D01*
X150385195Y-99782164D01*
X150317372Y-99743006D01*
X150261994Y-99687628D01*
X150222836Y-99619805D01*
X150202567Y-99544158D01*
X150200000Y-99505000D01*
X150200000Y-98215000D01*
X150202567Y-98175842D01*
X150222836Y-98100195D01*
X150261994Y-98032372D01*
X150317372Y-97976994D01*
X150385195Y-97937836D01*
X150460842Y-97917567D01*
X150539158Y-97917567D01*
X150614805Y-97937836D01*
G37*
G36*
X151884805Y-97937836D02*
G01*
X151952628Y-97976994D01*
X152008006Y-98032372D01*
X152047164Y-98100195D01*
X152067433Y-98175842D01*
X152070000Y-98215000D01*
X152070000Y-99505000D01*
X152067433Y-99544158D01*
X152047164Y-99619805D01*
X152008006Y-99687628D01*
X151952628Y-99743006D01*
X151884805Y-99782164D01*
X151809158Y-99802433D01*
X151730842Y-99802433D01*
X151655195Y-99782164D01*
X151587372Y-99743006D01*
X151531994Y-99687628D01*
X151492836Y-99619805D01*
X151472567Y-99544158D01*
X151470000Y-99505000D01*
X151470000Y-98215000D01*
X151472567Y-98175842D01*
X151492836Y-98100195D01*
X151531994Y-98032372D01*
X151587372Y-97976994D01*
X151655195Y-97937836D01*
X151730842Y-97917567D01*
X151809158Y-97917567D01*
X151884805Y-97937836D01*
G37*
G36*
X153144805Y-97937836D02*
G01*
X153212628Y-97976994D01*
X153268006Y-98032372D01*
X153307164Y-98100195D01*
X153327433Y-98175842D01*
X153330000Y-98215000D01*
X153330000Y-99505000D01*
X153327433Y-99544158D01*
X153307164Y-99619805D01*
X153268006Y-99687628D01*
X153212628Y-99743006D01*
X153144805Y-99782164D01*
X153069158Y-99802433D01*
X152990842Y-99802433D01*
X152915195Y-99782164D01*
X152847372Y-99743006D01*
X152791994Y-99687628D01*
X152752836Y-99619805D01*
X152732567Y-99544158D01*
X152730000Y-99505000D01*
X152730000Y-98215000D01*
X152732567Y-98175842D01*
X152752836Y-98100195D01*
X152791994Y-98032372D01*
X152847372Y-97976994D01*
X152915195Y-97937836D01*
X152990842Y-97917567D01*
X153069158Y-97917567D01*
X153144805Y-97937836D01*
G37*
G36*
X154424805Y-97937836D02*
G01*
X154492628Y-97976994D01*
X154548006Y-98032372D01*
X154587164Y-98100195D01*
X154607433Y-98175842D01*
X154610000Y-98215000D01*
X154610000Y-99505000D01*
X154607433Y-99544158D01*
X154587164Y-99619805D01*
X154548006Y-99687628D01*
X154492628Y-99743006D01*
X154424805Y-99782164D01*
X154349158Y-99802433D01*
X154270842Y-99802433D01*
X154195195Y-99782164D01*
X154127372Y-99743006D01*
X154071994Y-99687628D01*
X154032836Y-99619805D01*
X154012567Y-99544158D01*
X154010000Y-99505000D01*
X154010000Y-98215000D01*
X154012567Y-98175842D01*
X154032836Y-98100195D01*
X154071994Y-98032372D01*
X154127372Y-97976994D01*
X154195195Y-97937836D01*
X154270842Y-97917567D01*
X154349158Y-97917567D01*
X154424805Y-97937836D01*
G37*
G36*
X131866872Y-98333739D02*
G01*
X131940347Y-98376160D01*
X132000340Y-98436153D01*
X132042761Y-98509628D01*
X132064720Y-98591579D01*
X132064720Y-98676421D01*
X132042761Y-98758372D01*
X132000340Y-98831847D01*
X131940347Y-98891840D01*
X131866872Y-98934261D01*
X131784921Y-98956220D01*
X131700079Y-98956220D01*
X131618128Y-98934261D01*
X131544653Y-98891840D01*
X131484660Y-98831847D01*
X131442239Y-98758372D01*
X131420280Y-98676421D01*
X131420280Y-98591579D01*
X131442239Y-98509628D01*
X131484660Y-98436153D01*
X131544653Y-98376160D01*
X131618128Y-98333739D01*
X131700079Y-98311780D01*
X131784921Y-98311780D01*
X131866872Y-98333739D01*
G37*
G36*
X128364337Y-96604120D02*
G01*
X128420679Y-96606887D01*
X128427623Y-96608268D01*
X128440816Y-96609133D01*
X128466304Y-96615962D01*
X128536633Y-96629952D01*
X128569824Y-96643700D01*
X128592110Y-96649672D01*
X128612091Y-96661208D01*
X128645283Y-96674957D01*
X128704897Y-96714790D01*
X128727757Y-96727988D01*
X128734014Y-96734245D01*
X128743055Y-96740286D01*
X128826213Y-96823444D01*
X128832253Y-96832484D01*
X128838512Y-96838743D01*
X128851712Y-96861606D01*
X128891542Y-96921216D01*
X128905289Y-96954404D01*
X128916828Y-96974390D01*
X128922800Y-96996679D01*
X128936547Y-97029866D01*
X128950534Y-97100185D01*
X128957367Y-97125684D01*
X128957367Y-97134533D01*
X128959489Y-97145201D01*
X128959489Y-97262798D01*
X128957367Y-97273465D01*
X128957367Y-97282316D01*
X128950533Y-97307817D01*
X128936547Y-97378133D01*
X128922801Y-97411318D01*
X128916828Y-97433610D01*
X128905287Y-97453598D01*
X128891542Y-97486783D01*
X128851716Y-97546386D01*
X128838512Y-97569257D01*
X128832251Y-97575517D01*
X128826213Y-97584555D01*
X128743055Y-97667713D01*
X128734017Y-97673751D01*
X128727757Y-97680012D01*
X128704886Y-97693216D01*
X128645283Y-97733042D01*
X128612098Y-97746787D01*
X128592110Y-97758328D01*
X128569818Y-97764301D01*
X128536633Y-97778047D01*
X128466318Y-97792033D01*
X128440816Y-97798867D01*
X128427615Y-97799732D01*
X128420679Y-97801112D01*
X128364339Y-97803879D01*
X128362500Y-97804000D01*
X128361885Y-97804000D01*
X127763115Y-97804000D01*
X127762500Y-97804000D01*
X127760660Y-97803879D01*
X127704320Y-97801112D01*
X127697382Y-97799732D01*
X127684184Y-97798867D01*
X127658683Y-97792034D01*
X127588366Y-97778047D01*
X127555179Y-97764300D01*
X127532890Y-97758328D01*
X127512904Y-97746789D01*
X127479716Y-97733042D01*
X127420106Y-97693212D01*
X127397243Y-97680012D01*
X127390984Y-97673753D01*
X127381944Y-97667713D01*
X127298786Y-97584555D01*
X127292745Y-97575514D01*
X127286488Y-97569257D01*
X127273290Y-97546397D01*
X127233457Y-97486783D01*
X127219708Y-97453591D01*
X127208172Y-97433610D01*
X127202200Y-97411324D01*
X127188452Y-97378133D01*
X127174464Y-97307812D01*
X127167633Y-97282316D01*
X127167633Y-97273466D01*
X127165511Y-97262798D01*
X127165511Y-97145201D01*
X127167633Y-97134532D01*
X127167633Y-97125684D01*
X127174463Y-97100190D01*
X127188452Y-97029866D01*
X127202201Y-96996672D01*
X127208172Y-96974390D01*
X127219707Y-96954410D01*
X127233457Y-96921216D01*
X127273294Y-96861595D01*
X127286488Y-96838743D01*
X127292743Y-96832487D01*
X127298786Y-96823444D01*
X127381944Y-96740286D01*
X127390987Y-96734243D01*
X127397243Y-96727988D01*
X127420095Y-96714794D01*
X127479716Y-96674957D01*
X127512910Y-96661207D01*
X127532890Y-96649672D01*
X127555172Y-96643701D01*
X127588366Y-96629952D01*
X127658698Y-96615961D01*
X127684184Y-96609133D01*
X127697375Y-96608268D01*
X127704320Y-96606887D01*
X127760663Y-96604120D01*
X127762500Y-96604000D01*
X128362500Y-96604000D01*
X128364337Y-96604120D01*
G37*
G36*
X132644337Y-96604120D02*
G01*
X132700679Y-96606887D01*
X132707623Y-96608268D01*
X132720816Y-96609133D01*
X132746304Y-96615962D01*
X132816633Y-96629952D01*
X132849824Y-96643700D01*
X132872110Y-96649672D01*
X132892091Y-96661208D01*
X132925283Y-96674957D01*
X132984897Y-96714790D01*
X133007757Y-96727988D01*
X133014014Y-96734245D01*
X133023055Y-96740286D01*
X133106213Y-96823444D01*
X133112253Y-96832484D01*
X133118512Y-96838743D01*
X133131712Y-96861606D01*
X133171542Y-96921216D01*
X133185289Y-96954404D01*
X133196828Y-96974390D01*
X133202800Y-96996679D01*
X133216547Y-97029866D01*
X133230534Y-97100185D01*
X133237367Y-97125684D01*
X133237367Y-97134533D01*
X133239489Y-97145201D01*
X133239489Y-97262798D01*
X133237367Y-97273465D01*
X133237367Y-97282316D01*
X133230533Y-97307817D01*
X133216547Y-97378133D01*
X133202801Y-97411318D01*
X133196828Y-97433610D01*
X133185287Y-97453598D01*
X133171542Y-97486783D01*
X133131716Y-97546386D01*
X133118512Y-97569257D01*
X133112251Y-97575517D01*
X133106213Y-97584555D01*
X133023055Y-97667713D01*
X133014017Y-97673751D01*
X133007757Y-97680012D01*
X132984886Y-97693216D01*
X132925283Y-97733042D01*
X132892098Y-97746787D01*
X132872110Y-97758328D01*
X132849818Y-97764301D01*
X132816633Y-97778047D01*
X132746318Y-97792033D01*
X132720816Y-97798867D01*
X132707615Y-97799732D01*
X132700679Y-97801112D01*
X132644339Y-97803879D01*
X132642500Y-97804000D01*
X132641885Y-97804000D01*
X131843115Y-97804000D01*
X131842500Y-97804000D01*
X131840660Y-97803879D01*
X131784320Y-97801112D01*
X131777382Y-97799732D01*
X131764184Y-97798867D01*
X131738683Y-97792034D01*
X131668366Y-97778047D01*
X131635179Y-97764300D01*
X131612890Y-97758328D01*
X131592904Y-97746789D01*
X131559716Y-97733042D01*
X131500106Y-97693212D01*
X131477243Y-97680012D01*
X131470984Y-97673753D01*
X131461944Y-97667713D01*
X131378786Y-97584555D01*
X131372745Y-97575514D01*
X131366488Y-97569257D01*
X131353290Y-97546397D01*
X131313457Y-97486783D01*
X131299708Y-97453591D01*
X131288172Y-97433610D01*
X131282200Y-97411324D01*
X131268452Y-97378133D01*
X131254464Y-97307812D01*
X131247633Y-97282316D01*
X131247633Y-97273466D01*
X131245511Y-97262798D01*
X131245511Y-97145201D01*
X131247633Y-97134532D01*
X131247633Y-97125684D01*
X131254463Y-97100190D01*
X131268452Y-97029866D01*
X131282201Y-96996672D01*
X131288172Y-96974390D01*
X131299707Y-96954410D01*
X131313457Y-96921216D01*
X131353294Y-96861595D01*
X131366488Y-96838743D01*
X131372743Y-96832487D01*
X131378786Y-96823444D01*
X131461944Y-96740286D01*
X131470987Y-96734243D01*
X131477243Y-96727988D01*
X131500095Y-96714794D01*
X131559716Y-96674957D01*
X131592910Y-96661207D01*
X131612890Y-96649672D01*
X131635172Y-96643701D01*
X131668366Y-96629952D01*
X131738698Y-96615961D01*
X131764184Y-96609133D01*
X131777375Y-96608268D01*
X131784320Y-96606887D01*
X131840663Y-96604120D01*
X131842500Y-96604000D01*
X132642500Y-96604000D01*
X132644337Y-96604120D01*
G37*
G36*
X130436020Y-75945213D02*
G01*
X130785874Y-76025065D01*
X131124587Y-76143585D01*
X131447900Y-76299285D01*
X131751748Y-76490205D01*
X132032309Y-76713945D01*
X132286055Y-76967691D01*
X132509795Y-77248252D01*
X132700715Y-77552100D01*
X132856415Y-77875413D01*
X132974935Y-78214126D01*
X133054787Y-78563980D01*
X133094966Y-78920575D01*
X133094966Y-79279425D01*
X133054787Y-79636020D01*
X132974935Y-79985874D01*
X132856415Y-80324587D01*
X132700715Y-80647900D01*
X132509795Y-80951748D01*
X132286055Y-81232309D01*
X132032309Y-81486055D01*
X131751748Y-81709795D01*
X131447900Y-81900715D01*
X131124587Y-82056415D01*
X130785874Y-82174935D01*
X130436020Y-82254787D01*
X130079425Y-82294966D01*
X129720575Y-82294966D01*
X129363980Y-82254787D01*
X129014126Y-82174935D01*
X128675413Y-82056415D01*
X128352100Y-81900715D01*
X128048252Y-81709795D01*
X127767691Y-81486055D01*
X127513945Y-81232309D01*
X127290205Y-80951748D01*
X127099285Y-80647900D01*
X126943585Y-80324587D01*
X126825065Y-79985874D01*
X126745213Y-79636020D01*
X126705034Y-79279425D01*
X126705034Y-78920575D01*
X126745213Y-78563980D01*
X126825065Y-78214126D01*
X126943585Y-77875413D01*
X127099285Y-77552100D01*
X127290205Y-77248252D01*
X127513945Y-76967691D01*
X127767691Y-76713945D01*
X128048252Y-76490205D01*
X128352100Y-76299285D01*
X128675413Y-76143585D01*
X129014126Y-76025065D01*
X129363980Y-75945213D01*
X129720575Y-75905034D01*
X130079425Y-75905034D01*
X130436020Y-75945213D01*
G37*
G36*
X175436020Y-75945213D02*
G01*
X175785874Y-76025065D01*
X176124587Y-76143585D01*
X176447900Y-76299285D01*
X176751748Y-76490205D01*
X177032309Y-76713945D01*
X177286055Y-76967691D01*
X177509795Y-77248252D01*
X177700715Y-77552100D01*
X177856415Y-77875413D01*
X177974935Y-78214126D01*
X178054787Y-78563980D01*
X178094966Y-78920575D01*
X178094966Y-79279425D01*
X178054787Y-79636020D01*
X177974935Y-79985874D01*
X177856415Y-80324587D01*
X177700715Y-80647900D01*
X177509795Y-80951748D01*
X177286055Y-81232309D01*
X177032309Y-81486055D01*
X176751748Y-81709795D01*
X176447900Y-81900715D01*
X176124587Y-82056415D01*
X175785874Y-82174935D01*
X175436020Y-82254787D01*
X175079425Y-82294966D01*
X174720575Y-82294966D01*
X174363980Y-82254787D01*
X174014126Y-82174935D01*
X173675413Y-82056415D01*
X173352100Y-81900715D01*
X173048252Y-81709795D01*
X172767691Y-81486055D01*
X172513945Y-81232309D01*
X172290205Y-80951748D01*
X172099285Y-80647900D01*
X171943585Y-80324587D01*
X171825065Y-79985874D01*
X171745213Y-79636020D01*
X171705034Y-79279425D01*
X171705034Y-78920575D01*
X171745213Y-78563980D01*
X171825065Y-78214126D01*
X171943585Y-77875413D01*
X172099285Y-77552100D01*
X172290205Y-77248252D01*
X172513945Y-76967691D01*
X172767691Y-76713945D01*
X173048252Y-76490205D01*
X173352100Y-76299285D01*
X173675413Y-76143585D01*
X174014126Y-76025065D01*
X174363980Y-75945213D01*
X174720575Y-75905034D01*
X175079425Y-75905034D01*
X175436020Y-75945213D01*
G37*
M02*
