%TF.GenerationSoftware,KiCad,Pcbnew,9.0.7*%
%TF.CreationDate,2026-05-08T10:50:19+02:00*%
%TF.ProjectId,MiniMotorkontrollerV1,4d696e69-4d6f-4746-9f72-6b6f6e74726f,rev?*%
%TF.SameCoordinates,Original*%
%TF.FileFunction,Legend,Top*%
%TF.FilePolarity,Positive*%
%FSLAX46Y46*%
G04 Gerber Fmt 4.6, Leading zero omitted, Abs format (unit mm)*
G04 Created by KiCad (PCBNEW 9.0.7) date 2026-05-08 10:50:19*
%MOMM*%
%LPD*%
G01*
G04 APERTURE LIST*
%ADD10C,0.100000*%
%ADD11C,0.153000*%
%ADD12C,0.200000*%
%ADD13C,0.150000*%
%ADD14C,0.250000*%
%ADD15C,0.180000*%
%ADD16C,0.300000*%
%ADD17C,0.000000*%
G04 APERTURE END LIST*
D10*
X153975000Y-116090000D02*
X166925000Y-116090000D01*
X166925000Y-125600000D01*
X153975000Y-125600000D01*
X153975000Y-116090000D01*
D11*
X149850000Y-100050000D02*
X155000000Y-100050000D01*
X155000000Y-100050000D02*
X155000000Y-103150000D01*
X149850000Y-103150000D02*
X149850000Y-100050000D01*
X155000000Y-103150000D02*
X149850000Y-103150000D01*
D10*
X153475000Y-115600000D02*
X167475000Y-115600000D01*
X167475000Y-126000000D01*
X153475000Y-126000000D01*
X153475000Y-115600000D01*
D11*
X131500657Y-75015853D02*
X131600657Y-75063472D01*
X131600657Y-75063472D02*
X131633990Y-75111091D01*
X131633990Y-75111091D02*
X131667323Y-75206329D01*
X131667323Y-75206329D02*
X131667323Y-75349186D01*
X131667323Y-75349186D02*
X131633990Y-75444424D01*
X131633990Y-75444424D02*
X131600657Y-75492044D01*
X131600657Y-75492044D02*
X131533990Y-75539663D01*
X131533990Y-75539663D02*
X131267323Y-75539663D01*
X131267323Y-75539663D02*
X131267323Y-74539663D01*
X131267323Y-74539663D02*
X131500657Y-74539663D01*
X131500657Y-74539663D02*
X131567323Y-74587282D01*
X131567323Y-74587282D02*
X131600657Y-74634901D01*
X131600657Y-74634901D02*
X131633990Y-74730139D01*
X131633990Y-74730139D02*
X131633990Y-74825377D01*
X131633990Y-74825377D02*
X131600657Y-74920615D01*
X131600657Y-74920615D02*
X131567323Y-74968234D01*
X131567323Y-74968234D02*
X131500657Y-75015853D01*
X131500657Y-75015853D02*
X131267323Y-75015853D01*
X132100657Y-74539663D02*
X132233990Y-74539663D01*
X132233990Y-74539663D02*
X132300657Y-74587282D01*
X132300657Y-74587282D02*
X132367323Y-74682520D01*
X132367323Y-74682520D02*
X132400657Y-74872996D01*
X132400657Y-74872996D02*
X132400657Y-75206329D01*
X132400657Y-75206329D02*
X132367323Y-75396805D01*
X132367323Y-75396805D02*
X132300657Y-75492044D01*
X132300657Y-75492044D02*
X132233990Y-75539663D01*
X132233990Y-75539663D02*
X132100657Y-75539663D01*
X132100657Y-75539663D02*
X132033990Y-75492044D01*
X132033990Y-75492044D02*
X131967323Y-75396805D01*
X131967323Y-75396805D02*
X131933990Y-75206329D01*
X131933990Y-75206329D02*
X131933990Y-74872996D01*
X131933990Y-74872996D02*
X131967323Y-74682520D01*
X131967323Y-74682520D02*
X132033990Y-74587282D01*
X132033990Y-74587282D02*
X132100657Y-74539663D01*
X132833990Y-74539663D02*
X132967323Y-74539663D01*
X132967323Y-74539663D02*
X133033990Y-74587282D01*
X133033990Y-74587282D02*
X133100656Y-74682520D01*
X133100656Y-74682520D02*
X133133990Y-74872996D01*
X133133990Y-74872996D02*
X133133990Y-75206329D01*
X133133990Y-75206329D02*
X133100656Y-75396805D01*
X133100656Y-75396805D02*
X133033990Y-75492044D01*
X133033990Y-75492044D02*
X132967323Y-75539663D01*
X132967323Y-75539663D02*
X132833990Y-75539663D01*
X132833990Y-75539663D02*
X132767323Y-75492044D01*
X132767323Y-75492044D02*
X132700656Y-75396805D01*
X132700656Y-75396805D02*
X132667323Y-75206329D01*
X132667323Y-75206329D02*
X132667323Y-74872996D01*
X132667323Y-74872996D02*
X132700656Y-74682520D01*
X132700656Y-74682520D02*
X132767323Y-74587282D01*
X132767323Y-74587282D02*
X132833990Y-74539663D01*
X133333989Y-74539663D02*
X133733989Y-74539663D01*
X133533989Y-75539663D02*
X133533989Y-74539663D01*
X133967322Y-75444424D02*
X134000656Y-75492044D01*
X134000656Y-75492044D02*
X133967322Y-75539663D01*
X133967322Y-75539663D02*
X133933989Y-75492044D01*
X133933989Y-75492044D02*
X133967322Y-75444424D01*
X133967322Y-75444424D02*
X133967322Y-75539663D01*
X133967322Y-74920615D02*
X134000656Y-74968234D01*
X134000656Y-74968234D02*
X133967322Y-75015853D01*
X133967322Y-75015853D02*
X133933989Y-74968234D01*
X133933989Y-74968234D02*
X133967322Y-74920615D01*
X133967322Y-74920615D02*
X133967322Y-75015853D01*
X125567323Y-95319663D02*
X125567323Y-96129186D01*
X125567323Y-96129186D02*
X125600657Y-96224424D01*
X125600657Y-96224424D02*
X125633990Y-96272044D01*
X125633990Y-96272044D02*
X125700657Y-96319663D01*
X125700657Y-96319663D02*
X125833990Y-96319663D01*
X125833990Y-96319663D02*
X125900657Y-96272044D01*
X125900657Y-96272044D02*
X125933990Y-96224424D01*
X125933990Y-96224424D02*
X125967323Y-96129186D01*
X125967323Y-96129186D02*
X125967323Y-95319663D01*
X126267323Y-96272044D02*
X126367323Y-96319663D01*
X126367323Y-96319663D02*
X126533990Y-96319663D01*
X126533990Y-96319663D02*
X126600656Y-96272044D01*
X126600656Y-96272044D02*
X126633990Y-96224424D01*
X126633990Y-96224424D02*
X126667323Y-96129186D01*
X126667323Y-96129186D02*
X126667323Y-96033948D01*
X126667323Y-96033948D02*
X126633990Y-95938710D01*
X126633990Y-95938710D02*
X126600656Y-95891091D01*
X126600656Y-95891091D02*
X126533990Y-95843472D01*
X126533990Y-95843472D02*
X126400656Y-95795853D01*
X126400656Y-95795853D02*
X126333990Y-95748234D01*
X126333990Y-95748234D02*
X126300656Y-95700615D01*
X126300656Y-95700615D02*
X126267323Y-95605377D01*
X126267323Y-95605377D02*
X126267323Y-95510139D01*
X126267323Y-95510139D02*
X126300656Y-95414901D01*
X126300656Y-95414901D02*
X126333990Y-95367282D01*
X126333990Y-95367282D02*
X126400656Y-95319663D01*
X126400656Y-95319663D02*
X126567323Y-95319663D01*
X126567323Y-95319663D02*
X126667323Y-95367282D01*
X127200657Y-95795853D02*
X127300657Y-95843472D01*
X127300657Y-95843472D02*
X127333990Y-95891091D01*
X127333990Y-95891091D02*
X127367323Y-95986329D01*
X127367323Y-95986329D02*
X127367323Y-96129186D01*
X127367323Y-96129186D02*
X127333990Y-96224424D01*
X127333990Y-96224424D02*
X127300657Y-96272044D01*
X127300657Y-96272044D02*
X127233990Y-96319663D01*
X127233990Y-96319663D02*
X126967323Y-96319663D01*
X126967323Y-96319663D02*
X126967323Y-95319663D01*
X126967323Y-95319663D02*
X127200657Y-95319663D01*
X127200657Y-95319663D02*
X127267323Y-95367282D01*
X127267323Y-95367282D02*
X127300657Y-95414901D01*
X127300657Y-95414901D02*
X127333990Y-95510139D01*
X127333990Y-95510139D02*
X127333990Y-95605377D01*
X127333990Y-95605377D02*
X127300657Y-95700615D01*
X127300657Y-95700615D02*
X127267323Y-95748234D01*
X127267323Y-95748234D02*
X127200657Y-95795853D01*
X127200657Y-95795853D02*
X126967323Y-95795853D01*
X127500657Y-96414901D02*
X128033990Y-96414901D01*
X128600656Y-96224424D02*
X128567323Y-96272044D01*
X128567323Y-96272044D02*
X128467323Y-96319663D01*
X128467323Y-96319663D02*
X128400656Y-96319663D01*
X128400656Y-96319663D02*
X128300656Y-96272044D01*
X128300656Y-96272044D02*
X128233990Y-96176805D01*
X128233990Y-96176805D02*
X128200656Y-96081567D01*
X128200656Y-96081567D02*
X128167323Y-95891091D01*
X128167323Y-95891091D02*
X128167323Y-95748234D01*
X128167323Y-95748234D02*
X128200656Y-95557758D01*
X128200656Y-95557758D02*
X128233990Y-95462520D01*
X128233990Y-95462520D02*
X128300656Y-95367282D01*
X128300656Y-95367282D02*
X128400656Y-95319663D01*
X128400656Y-95319663D02*
X128467323Y-95319663D01*
X128467323Y-95319663D02*
X128567323Y-95367282D01*
X128567323Y-95367282D02*
X128600656Y-95414901D01*
X129433989Y-95652996D02*
X129433989Y-96652996D01*
X129433989Y-95700615D02*
X129500656Y-95652996D01*
X129500656Y-95652996D02*
X129633989Y-95652996D01*
X129633989Y-95652996D02*
X129700656Y-95700615D01*
X129700656Y-95700615D02*
X129733989Y-95748234D01*
X129733989Y-95748234D02*
X129767323Y-95843472D01*
X129767323Y-95843472D02*
X129767323Y-96129186D01*
X129767323Y-96129186D02*
X129733989Y-96224424D01*
X129733989Y-96224424D02*
X129700656Y-96272044D01*
X129700656Y-96272044D02*
X129633989Y-96319663D01*
X129633989Y-96319663D02*
X129500656Y-96319663D01*
X129500656Y-96319663D02*
X129433989Y-96272044D01*
X130067322Y-96319663D02*
X130067322Y-95652996D01*
X130067322Y-95843472D02*
X130100656Y-95748234D01*
X130100656Y-95748234D02*
X130133989Y-95700615D01*
X130133989Y-95700615D02*
X130200656Y-95652996D01*
X130200656Y-95652996D02*
X130267322Y-95652996D01*
X130600655Y-96319663D02*
X130533989Y-96272044D01*
X130533989Y-96272044D02*
X130500655Y-96224424D01*
X130500655Y-96224424D02*
X130467322Y-96129186D01*
X130467322Y-96129186D02*
X130467322Y-95843472D01*
X130467322Y-95843472D02*
X130500655Y-95748234D01*
X130500655Y-95748234D02*
X130533989Y-95700615D01*
X130533989Y-95700615D02*
X130600655Y-95652996D01*
X130600655Y-95652996D02*
X130700655Y-95652996D01*
X130700655Y-95652996D02*
X130767322Y-95700615D01*
X130767322Y-95700615D02*
X130800655Y-95748234D01*
X130800655Y-95748234D02*
X130833989Y-95843472D01*
X130833989Y-95843472D02*
X130833989Y-96129186D01*
X130833989Y-96129186D02*
X130800655Y-96224424D01*
X130800655Y-96224424D02*
X130767322Y-96272044D01*
X130767322Y-96272044D02*
X130700655Y-96319663D01*
X130700655Y-96319663D02*
X130600655Y-96319663D01*
X131433988Y-95652996D02*
X131433988Y-96462520D01*
X131433988Y-96462520D02*
X131400655Y-96557758D01*
X131400655Y-96557758D02*
X131367322Y-96605377D01*
X131367322Y-96605377D02*
X131300655Y-96652996D01*
X131300655Y-96652996D02*
X131200655Y-96652996D01*
X131200655Y-96652996D02*
X131133988Y-96605377D01*
X131433988Y-96272044D02*
X131367322Y-96319663D01*
X131367322Y-96319663D02*
X131233988Y-96319663D01*
X131233988Y-96319663D02*
X131167322Y-96272044D01*
X131167322Y-96272044D02*
X131133988Y-96224424D01*
X131133988Y-96224424D02*
X131100655Y-96129186D01*
X131100655Y-96129186D02*
X131100655Y-95843472D01*
X131100655Y-95843472D02*
X131133988Y-95748234D01*
X131133988Y-95748234D02*
X131167322Y-95700615D01*
X131167322Y-95700615D02*
X131233988Y-95652996D01*
X131233988Y-95652996D02*
X131367322Y-95652996D01*
X131367322Y-95652996D02*
X131433988Y-95700615D01*
D12*
X161047054Y-122969600D02*
X161189911Y-123017219D01*
X161189911Y-123017219D02*
X161428006Y-123017219D01*
X161428006Y-123017219D02*
X161523244Y-122969600D01*
X161523244Y-122969600D02*
X161570863Y-122921980D01*
X161570863Y-122921980D02*
X161618482Y-122826742D01*
X161618482Y-122826742D02*
X161618482Y-122731504D01*
X161618482Y-122731504D02*
X161570863Y-122636266D01*
X161570863Y-122636266D02*
X161523244Y-122588647D01*
X161523244Y-122588647D02*
X161428006Y-122541028D01*
X161428006Y-122541028D02*
X161237530Y-122493409D01*
X161237530Y-122493409D02*
X161142292Y-122445790D01*
X161142292Y-122445790D02*
X161094673Y-122398171D01*
X161094673Y-122398171D02*
X161047054Y-122302933D01*
X161047054Y-122302933D02*
X161047054Y-122207695D01*
X161047054Y-122207695D02*
X161094673Y-122112457D01*
X161094673Y-122112457D02*
X161142292Y-122064838D01*
X161142292Y-122064838D02*
X161237530Y-122017219D01*
X161237530Y-122017219D02*
X161475625Y-122017219D01*
X161475625Y-122017219D02*
X161618482Y-122064838D01*
X162047054Y-122350552D02*
X162047054Y-123017219D01*
X162047054Y-122445790D02*
X162094673Y-122398171D01*
X162094673Y-122398171D02*
X162189911Y-122350552D01*
X162189911Y-122350552D02*
X162332768Y-122350552D01*
X162332768Y-122350552D02*
X162428006Y-122398171D01*
X162428006Y-122398171D02*
X162475625Y-122493409D01*
X162475625Y-122493409D02*
X162475625Y-123017219D01*
X163380387Y-123017219D02*
X163380387Y-122493409D01*
X163380387Y-122493409D02*
X163332768Y-122398171D01*
X163332768Y-122398171D02*
X163237530Y-122350552D01*
X163237530Y-122350552D02*
X163047054Y-122350552D01*
X163047054Y-122350552D02*
X162951816Y-122398171D01*
X163380387Y-122969600D02*
X163285149Y-123017219D01*
X163285149Y-123017219D02*
X163047054Y-123017219D01*
X163047054Y-123017219D02*
X162951816Y-122969600D01*
X162951816Y-122969600D02*
X162904197Y-122874361D01*
X162904197Y-122874361D02*
X162904197Y-122779123D01*
X162904197Y-122779123D02*
X162951816Y-122683885D01*
X162951816Y-122683885D02*
X163047054Y-122636266D01*
X163047054Y-122636266D02*
X163285149Y-122636266D01*
X163285149Y-122636266D02*
X163380387Y-122588647D01*
X163856578Y-123017219D02*
X163856578Y-122017219D01*
X163856578Y-122398171D02*
X163951816Y-122350552D01*
X163951816Y-122350552D02*
X164142292Y-122350552D01*
X164142292Y-122350552D02*
X164237530Y-122398171D01*
X164237530Y-122398171D02*
X164285149Y-122445790D01*
X164285149Y-122445790D02*
X164332768Y-122541028D01*
X164332768Y-122541028D02*
X164332768Y-122826742D01*
X164332768Y-122826742D02*
X164285149Y-122921980D01*
X164285149Y-122921980D02*
X164237530Y-122969600D01*
X164237530Y-122969600D02*
X164142292Y-123017219D01*
X164142292Y-123017219D02*
X163951816Y-123017219D01*
X163951816Y-123017219D02*
X163856578Y-122969600D01*
X164761340Y-123017219D02*
X164761340Y-122017219D01*
X164761340Y-122398171D02*
X164856578Y-122350552D01*
X164856578Y-122350552D02*
X165047054Y-122350552D01*
X165047054Y-122350552D02*
X165142292Y-122398171D01*
X165142292Y-122398171D02*
X165189911Y-122445790D01*
X165189911Y-122445790D02*
X165237530Y-122541028D01*
X165237530Y-122541028D02*
X165237530Y-122826742D01*
X165237530Y-122826742D02*
X165189911Y-122921980D01*
X165189911Y-122921980D02*
X165142292Y-122969600D01*
X165142292Y-122969600D02*
X165047054Y-123017219D01*
X165047054Y-123017219D02*
X164856578Y-123017219D01*
X164856578Y-123017219D02*
X164761340Y-122969600D01*
X158697054Y-124819600D02*
X158839911Y-124867219D01*
X158839911Y-124867219D02*
X159078006Y-124867219D01*
X159078006Y-124867219D02*
X159173244Y-124819600D01*
X159173244Y-124819600D02*
X159220863Y-124771980D01*
X159220863Y-124771980D02*
X159268482Y-124676742D01*
X159268482Y-124676742D02*
X159268482Y-124581504D01*
X159268482Y-124581504D02*
X159220863Y-124486266D01*
X159220863Y-124486266D02*
X159173244Y-124438647D01*
X159173244Y-124438647D02*
X159078006Y-124391028D01*
X159078006Y-124391028D02*
X158887530Y-124343409D01*
X158887530Y-124343409D02*
X158792292Y-124295790D01*
X158792292Y-124295790D02*
X158744673Y-124248171D01*
X158744673Y-124248171D02*
X158697054Y-124152933D01*
X158697054Y-124152933D02*
X158697054Y-124057695D01*
X158697054Y-124057695D02*
X158744673Y-123962457D01*
X158744673Y-123962457D02*
X158792292Y-123914838D01*
X158792292Y-123914838D02*
X158887530Y-123867219D01*
X158887530Y-123867219D02*
X159125625Y-123867219D01*
X159125625Y-123867219D02*
X159268482Y-123914838D01*
X159697054Y-124200552D02*
X159697054Y-124867219D01*
X159697054Y-124295790D02*
X159744673Y-124248171D01*
X159744673Y-124248171D02*
X159839911Y-124200552D01*
X159839911Y-124200552D02*
X159982768Y-124200552D01*
X159982768Y-124200552D02*
X160078006Y-124248171D01*
X160078006Y-124248171D02*
X160125625Y-124343409D01*
X160125625Y-124343409D02*
X160125625Y-124867219D01*
X161030387Y-124200552D02*
X161030387Y-124867219D01*
X160601816Y-124200552D02*
X160601816Y-124724361D01*
X160601816Y-124724361D02*
X160649435Y-124819600D01*
X160649435Y-124819600D02*
X160744673Y-124867219D01*
X160744673Y-124867219D02*
X160887530Y-124867219D01*
X160887530Y-124867219D02*
X160982768Y-124819600D01*
X160982768Y-124819600D02*
X161030387Y-124771980D01*
X161363721Y-124200552D02*
X161744673Y-124200552D01*
X161506578Y-123867219D02*
X161506578Y-124724361D01*
X161506578Y-124724361D02*
X161554197Y-124819600D01*
X161554197Y-124819600D02*
X161649435Y-124867219D01*
X161649435Y-124867219D02*
X161744673Y-124867219D01*
X162458959Y-124819600D02*
X162363721Y-124867219D01*
X162363721Y-124867219D02*
X162173245Y-124867219D01*
X162173245Y-124867219D02*
X162078007Y-124819600D01*
X162078007Y-124819600D02*
X162030388Y-124724361D01*
X162030388Y-124724361D02*
X162030388Y-124343409D01*
X162030388Y-124343409D02*
X162078007Y-124248171D01*
X162078007Y-124248171D02*
X162173245Y-124200552D01*
X162173245Y-124200552D02*
X162363721Y-124200552D01*
X162363721Y-124200552D02*
X162458959Y-124248171D01*
X162458959Y-124248171D02*
X162506578Y-124343409D01*
X162506578Y-124343409D02*
X162506578Y-124438647D01*
X162506578Y-124438647D02*
X162030388Y-124533885D01*
X155997054Y-122969600D02*
X156139911Y-123017219D01*
X156139911Y-123017219D02*
X156378006Y-123017219D01*
X156378006Y-123017219D02*
X156473244Y-122969600D01*
X156473244Y-122969600D02*
X156520863Y-122921980D01*
X156520863Y-122921980D02*
X156568482Y-122826742D01*
X156568482Y-122826742D02*
X156568482Y-122731504D01*
X156568482Y-122731504D02*
X156520863Y-122636266D01*
X156520863Y-122636266D02*
X156473244Y-122588647D01*
X156473244Y-122588647D02*
X156378006Y-122541028D01*
X156378006Y-122541028D02*
X156187530Y-122493409D01*
X156187530Y-122493409D02*
X156092292Y-122445790D01*
X156092292Y-122445790D02*
X156044673Y-122398171D01*
X156044673Y-122398171D02*
X155997054Y-122302933D01*
X155997054Y-122302933D02*
X155997054Y-122207695D01*
X155997054Y-122207695D02*
X156044673Y-122112457D01*
X156044673Y-122112457D02*
X156092292Y-122064838D01*
X156092292Y-122064838D02*
X156187530Y-122017219D01*
X156187530Y-122017219D02*
X156425625Y-122017219D01*
X156425625Y-122017219D02*
X156568482Y-122064838D01*
X156997054Y-122350552D02*
X156997054Y-123017219D01*
X156997054Y-122445790D02*
X157044673Y-122398171D01*
X157044673Y-122398171D02*
X157139911Y-122350552D01*
X157139911Y-122350552D02*
X157282768Y-122350552D01*
X157282768Y-122350552D02*
X157378006Y-122398171D01*
X157378006Y-122398171D02*
X157425625Y-122493409D01*
X157425625Y-122493409D02*
X157425625Y-123017219D01*
X157901816Y-123017219D02*
X157901816Y-122350552D01*
X157901816Y-122017219D02*
X157854197Y-122064838D01*
X157854197Y-122064838D02*
X157901816Y-122112457D01*
X157901816Y-122112457D02*
X157949435Y-122064838D01*
X157949435Y-122064838D02*
X157901816Y-122017219D01*
X157901816Y-122017219D02*
X157901816Y-122112457D01*
X158378006Y-123017219D02*
X158378006Y-122017219D01*
X158378006Y-122398171D02*
X158473244Y-122350552D01*
X158473244Y-122350552D02*
X158663720Y-122350552D01*
X158663720Y-122350552D02*
X158758958Y-122398171D01*
X158758958Y-122398171D02*
X158806577Y-122445790D01*
X158806577Y-122445790D02*
X158854196Y-122541028D01*
X158854196Y-122541028D02*
X158854196Y-122826742D01*
X158854196Y-122826742D02*
X158806577Y-122921980D01*
X158806577Y-122921980D02*
X158758958Y-122969600D01*
X158758958Y-122969600D02*
X158663720Y-123017219D01*
X158663720Y-123017219D02*
X158473244Y-123017219D01*
X158473244Y-123017219D02*
X158378006Y-122969600D01*
X159282768Y-123017219D02*
X159282768Y-122017219D01*
X159282768Y-122398171D02*
X159378006Y-122350552D01*
X159378006Y-122350552D02*
X159568482Y-122350552D01*
X159568482Y-122350552D02*
X159663720Y-122398171D01*
X159663720Y-122398171D02*
X159711339Y-122445790D01*
X159711339Y-122445790D02*
X159758958Y-122541028D01*
X159758958Y-122541028D02*
X159758958Y-122826742D01*
X159758958Y-122826742D02*
X159711339Y-122921980D01*
X159711339Y-122921980D02*
X159663720Y-122969600D01*
X159663720Y-122969600D02*
X159568482Y-123017219D01*
X159568482Y-123017219D02*
X159378006Y-123017219D01*
X159378006Y-123017219D02*
X159282768Y-122969600D01*
D11*
X174433990Y-116717282D02*
X174367323Y-116669663D01*
X174367323Y-116669663D02*
X174267323Y-116669663D01*
X174267323Y-116669663D02*
X174167323Y-116717282D01*
X174167323Y-116717282D02*
X174100657Y-116812520D01*
X174100657Y-116812520D02*
X174067323Y-116907758D01*
X174067323Y-116907758D02*
X174033990Y-117098234D01*
X174033990Y-117098234D02*
X174033990Y-117241091D01*
X174033990Y-117241091D02*
X174067323Y-117431567D01*
X174067323Y-117431567D02*
X174100657Y-117526805D01*
X174100657Y-117526805D02*
X174167323Y-117622044D01*
X174167323Y-117622044D02*
X174267323Y-117669663D01*
X174267323Y-117669663D02*
X174333990Y-117669663D01*
X174333990Y-117669663D02*
X174433990Y-117622044D01*
X174433990Y-117622044D02*
X174467323Y-117574424D01*
X174467323Y-117574424D02*
X174467323Y-117241091D01*
X174467323Y-117241091D02*
X174333990Y-117241091D01*
X174767323Y-117669663D02*
X174767323Y-116669663D01*
X174767323Y-116669663D02*
X175167323Y-117669663D01*
X175167323Y-117669663D02*
X175167323Y-116669663D01*
X175500656Y-117669663D02*
X175500656Y-116669663D01*
X175500656Y-116669663D02*
X175667323Y-116669663D01*
X175667323Y-116669663D02*
X175767323Y-116717282D01*
X175767323Y-116717282D02*
X175833990Y-116812520D01*
X175833990Y-116812520D02*
X175867323Y-116907758D01*
X175867323Y-116907758D02*
X175900656Y-117098234D01*
X175900656Y-117098234D02*
X175900656Y-117241091D01*
X175900656Y-117241091D02*
X175867323Y-117431567D01*
X175867323Y-117431567D02*
X175833990Y-117526805D01*
X175833990Y-117526805D02*
X175767323Y-117622044D01*
X175767323Y-117622044D02*
X175667323Y-117669663D01*
X175667323Y-117669663D02*
X175500656Y-117669663D01*
X150567323Y-101495853D02*
X150800657Y-101495853D01*
X150900657Y-102019663D02*
X150567323Y-102019663D01*
X150567323Y-102019663D02*
X150567323Y-101019663D01*
X150567323Y-101019663D02*
X150900657Y-101019663D01*
X151200656Y-101352996D02*
X151200656Y-102019663D01*
X151200656Y-101448234D02*
X151233990Y-101400615D01*
X151233990Y-101400615D02*
X151300656Y-101352996D01*
X151300656Y-101352996D02*
X151400656Y-101352996D01*
X151400656Y-101352996D02*
X151467323Y-101400615D01*
X151467323Y-101400615D02*
X151500656Y-101495853D01*
X151500656Y-101495853D02*
X151500656Y-102019663D01*
X151833989Y-102019663D02*
X151833989Y-101019663D01*
X151900656Y-101638710D02*
X152100656Y-102019663D01*
X152100656Y-101352996D02*
X151833989Y-101733948D01*
X152500656Y-102019663D02*
X152433990Y-101972044D01*
X152433990Y-101972044D02*
X152400656Y-101924424D01*
X152400656Y-101924424D02*
X152367323Y-101829186D01*
X152367323Y-101829186D02*
X152367323Y-101543472D01*
X152367323Y-101543472D02*
X152400656Y-101448234D01*
X152400656Y-101448234D02*
X152433990Y-101400615D01*
X152433990Y-101400615D02*
X152500656Y-101352996D01*
X152500656Y-101352996D02*
X152600656Y-101352996D01*
X152600656Y-101352996D02*
X152667323Y-101400615D01*
X152667323Y-101400615D02*
X152700656Y-101448234D01*
X152700656Y-101448234D02*
X152733990Y-101543472D01*
X152733990Y-101543472D02*
X152733990Y-101829186D01*
X152733990Y-101829186D02*
X152700656Y-101924424D01*
X152700656Y-101924424D02*
X152667323Y-101972044D01*
X152667323Y-101972044D02*
X152600656Y-102019663D01*
X152600656Y-102019663D02*
X152500656Y-102019663D01*
X153333989Y-102019663D02*
X153333989Y-101019663D01*
X153333989Y-101972044D02*
X153267323Y-102019663D01*
X153267323Y-102019663D02*
X153133989Y-102019663D01*
X153133989Y-102019663D02*
X153067323Y-101972044D01*
X153067323Y-101972044D02*
X153033989Y-101924424D01*
X153033989Y-101924424D02*
X153000656Y-101829186D01*
X153000656Y-101829186D02*
X153000656Y-101543472D01*
X153000656Y-101543472D02*
X153033989Y-101448234D01*
X153033989Y-101448234D02*
X153067323Y-101400615D01*
X153067323Y-101400615D02*
X153133989Y-101352996D01*
X153133989Y-101352996D02*
X153267323Y-101352996D01*
X153267323Y-101352996D02*
X153333989Y-101400615D01*
X153933989Y-101972044D02*
X153867322Y-102019663D01*
X153867322Y-102019663D02*
X153733989Y-102019663D01*
X153733989Y-102019663D02*
X153667322Y-101972044D01*
X153667322Y-101972044D02*
X153633989Y-101876805D01*
X153633989Y-101876805D02*
X153633989Y-101495853D01*
X153633989Y-101495853D02*
X153667322Y-101400615D01*
X153667322Y-101400615D02*
X153733989Y-101352996D01*
X153733989Y-101352996D02*
X153867322Y-101352996D01*
X153867322Y-101352996D02*
X153933989Y-101400615D01*
X153933989Y-101400615D02*
X153967322Y-101495853D01*
X153967322Y-101495853D02*
X153967322Y-101591091D01*
X153967322Y-101591091D02*
X153633989Y-101686329D01*
X154267322Y-102019663D02*
X154267322Y-101352996D01*
X154267322Y-101543472D02*
X154300656Y-101448234D01*
X154300656Y-101448234D02*
X154333989Y-101400615D01*
X154333989Y-101400615D02*
X154400656Y-101352996D01*
X154400656Y-101352996D02*
X154467322Y-101352996D01*
X162347323Y-75439663D02*
X162113990Y-74963472D01*
X161947323Y-75439663D02*
X161947323Y-74439663D01*
X161947323Y-74439663D02*
X162213990Y-74439663D01*
X162213990Y-74439663D02*
X162280657Y-74487282D01*
X162280657Y-74487282D02*
X162313990Y-74534901D01*
X162313990Y-74534901D02*
X162347323Y-74630139D01*
X162347323Y-74630139D02*
X162347323Y-74772996D01*
X162347323Y-74772996D02*
X162313990Y-74868234D01*
X162313990Y-74868234D02*
X162280657Y-74915853D01*
X162280657Y-74915853D02*
X162213990Y-74963472D01*
X162213990Y-74963472D02*
X161947323Y-74963472D01*
X162613990Y-75392044D02*
X162713990Y-75439663D01*
X162713990Y-75439663D02*
X162880657Y-75439663D01*
X162880657Y-75439663D02*
X162947323Y-75392044D01*
X162947323Y-75392044D02*
X162980657Y-75344424D01*
X162980657Y-75344424D02*
X163013990Y-75249186D01*
X163013990Y-75249186D02*
X163013990Y-75153948D01*
X163013990Y-75153948D02*
X162980657Y-75058710D01*
X162980657Y-75058710D02*
X162947323Y-75011091D01*
X162947323Y-75011091D02*
X162880657Y-74963472D01*
X162880657Y-74963472D02*
X162747323Y-74915853D01*
X162747323Y-74915853D02*
X162680657Y-74868234D01*
X162680657Y-74868234D02*
X162647323Y-74820615D01*
X162647323Y-74820615D02*
X162613990Y-74725377D01*
X162613990Y-74725377D02*
X162613990Y-74630139D01*
X162613990Y-74630139D02*
X162647323Y-74534901D01*
X162647323Y-74534901D02*
X162680657Y-74487282D01*
X162680657Y-74487282D02*
X162747323Y-74439663D01*
X162747323Y-74439663D02*
X162913990Y-74439663D01*
X162913990Y-74439663D02*
X163013990Y-74487282D01*
X163213990Y-74439663D02*
X163613990Y-74439663D01*
X163413990Y-75439663D02*
X163413990Y-74439663D01*
X163847323Y-75344424D02*
X163880657Y-75392044D01*
X163880657Y-75392044D02*
X163847323Y-75439663D01*
X163847323Y-75439663D02*
X163813990Y-75392044D01*
X163813990Y-75392044D02*
X163847323Y-75344424D01*
X163847323Y-75344424D02*
X163847323Y-75439663D01*
X163847323Y-74820615D02*
X163880657Y-74868234D01*
X163880657Y-74868234D02*
X163847323Y-74915853D01*
X163847323Y-74915853D02*
X163813990Y-74868234D01*
X163813990Y-74868234D02*
X163847323Y-74820615D01*
X163847323Y-74820615D02*
X163847323Y-74915853D01*
X126167323Y-117669663D02*
X126167323Y-118479186D01*
X126167323Y-118479186D02*
X126200657Y-118574424D01*
X126200657Y-118574424D02*
X126233990Y-118622044D01*
X126233990Y-118622044D02*
X126300657Y-118669663D01*
X126300657Y-118669663D02*
X126433990Y-118669663D01*
X126433990Y-118669663D02*
X126500657Y-118622044D01*
X126500657Y-118622044D02*
X126533990Y-118574424D01*
X126533990Y-118574424D02*
X126567323Y-118479186D01*
X126567323Y-118479186D02*
X126567323Y-117669663D01*
X126867323Y-118622044D02*
X126967323Y-118669663D01*
X126967323Y-118669663D02*
X127133990Y-118669663D01*
X127133990Y-118669663D02*
X127200656Y-118622044D01*
X127200656Y-118622044D02*
X127233990Y-118574424D01*
X127233990Y-118574424D02*
X127267323Y-118479186D01*
X127267323Y-118479186D02*
X127267323Y-118383948D01*
X127267323Y-118383948D02*
X127233990Y-118288710D01*
X127233990Y-118288710D02*
X127200656Y-118241091D01*
X127200656Y-118241091D02*
X127133990Y-118193472D01*
X127133990Y-118193472D02*
X127000656Y-118145853D01*
X127000656Y-118145853D02*
X126933990Y-118098234D01*
X126933990Y-118098234D02*
X126900656Y-118050615D01*
X126900656Y-118050615D02*
X126867323Y-117955377D01*
X126867323Y-117955377D02*
X126867323Y-117860139D01*
X126867323Y-117860139D02*
X126900656Y-117764901D01*
X126900656Y-117764901D02*
X126933990Y-117717282D01*
X126933990Y-117717282D02*
X127000656Y-117669663D01*
X127000656Y-117669663D02*
X127167323Y-117669663D01*
X127167323Y-117669663D02*
X127267323Y-117717282D01*
X127800657Y-118145853D02*
X127900657Y-118193472D01*
X127900657Y-118193472D02*
X127933990Y-118241091D01*
X127933990Y-118241091D02*
X127967323Y-118336329D01*
X127967323Y-118336329D02*
X127967323Y-118479186D01*
X127967323Y-118479186D02*
X127933990Y-118574424D01*
X127933990Y-118574424D02*
X127900657Y-118622044D01*
X127900657Y-118622044D02*
X127833990Y-118669663D01*
X127833990Y-118669663D02*
X127567323Y-118669663D01*
X127567323Y-118669663D02*
X127567323Y-117669663D01*
X127567323Y-117669663D02*
X127800657Y-117669663D01*
X127800657Y-117669663D02*
X127867323Y-117717282D01*
X127867323Y-117717282D02*
X127900657Y-117764901D01*
X127900657Y-117764901D02*
X127933990Y-117860139D01*
X127933990Y-117860139D02*
X127933990Y-117955377D01*
X127933990Y-117955377D02*
X127900657Y-118050615D01*
X127900657Y-118050615D02*
X127867323Y-118098234D01*
X127867323Y-118098234D02*
X127800657Y-118145853D01*
X127800657Y-118145853D02*
X127567323Y-118145853D01*
X128100657Y-118764901D02*
X128633990Y-118764901D01*
X129200656Y-118574424D02*
X129167323Y-118622044D01*
X129167323Y-118622044D02*
X129067323Y-118669663D01*
X129067323Y-118669663D02*
X129000656Y-118669663D01*
X129000656Y-118669663D02*
X128900656Y-118622044D01*
X128900656Y-118622044D02*
X128833990Y-118526805D01*
X128833990Y-118526805D02*
X128800656Y-118431567D01*
X128800656Y-118431567D02*
X128767323Y-118241091D01*
X128767323Y-118241091D02*
X128767323Y-118098234D01*
X128767323Y-118098234D02*
X128800656Y-117907758D01*
X128800656Y-117907758D02*
X128833990Y-117812520D01*
X128833990Y-117812520D02*
X128900656Y-117717282D01*
X128900656Y-117717282D02*
X129000656Y-117669663D01*
X129000656Y-117669663D02*
X129067323Y-117669663D01*
X129067323Y-117669663D02*
X129167323Y-117717282D01*
X129167323Y-117717282D02*
X129200656Y-117764901D01*
X130033989Y-118669663D02*
X130033989Y-117669663D01*
X130033989Y-117669663D02*
X130300656Y-117669663D01*
X130300656Y-117669663D02*
X130367323Y-117717282D01*
X130367323Y-117717282D02*
X130400656Y-117764901D01*
X130400656Y-117764901D02*
X130433989Y-117860139D01*
X130433989Y-117860139D02*
X130433989Y-118002996D01*
X130433989Y-118002996D02*
X130400656Y-118098234D01*
X130400656Y-118098234D02*
X130367323Y-118145853D01*
X130367323Y-118145853D02*
X130300656Y-118193472D01*
X130300656Y-118193472D02*
X130033989Y-118193472D01*
X130733989Y-118669663D02*
X130733989Y-117669663D01*
X130733989Y-117669663D02*
X130900656Y-117669663D01*
X130900656Y-117669663D02*
X131000656Y-117717282D01*
X131000656Y-117717282D02*
X131067323Y-117812520D01*
X131067323Y-117812520D02*
X131100656Y-117907758D01*
X131100656Y-117907758D02*
X131133989Y-118098234D01*
X131133989Y-118098234D02*
X131133989Y-118241091D01*
X131133989Y-118241091D02*
X131100656Y-118431567D01*
X131100656Y-118431567D02*
X131067323Y-118526805D01*
X131067323Y-118526805D02*
X131000656Y-118622044D01*
X131000656Y-118622044D02*
X130900656Y-118669663D01*
X130900656Y-118669663D02*
X130733989Y-118669663D01*
X173738752Y-109888710D02*
X174500657Y-109888710D01*
X174119704Y-110269663D02*
X174119704Y-109507758D01*
D13*
X162958542Y-96873219D02*
X162625209Y-96397028D01*
X162387114Y-96873219D02*
X162387114Y-95873219D01*
X162387114Y-95873219D02*
X162768066Y-95873219D01*
X162768066Y-95873219D02*
X162863304Y-95920838D01*
X162863304Y-95920838D02*
X162910923Y-95968457D01*
X162910923Y-95968457D02*
X162958542Y-96063695D01*
X162958542Y-96063695D02*
X162958542Y-96206552D01*
X162958542Y-96206552D02*
X162910923Y-96301790D01*
X162910923Y-96301790D02*
X162863304Y-96349409D01*
X162863304Y-96349409D02*
X162768066Y-96397028D01*
X162768066Y-96397028D02*
X162387114Y-96397028D01*
X163339495Y-95968457D02*
X163387114Y-95920838D01*
X163387114Y-95920838D02*
X163482352Y-95873219D01*
X163482352Y-95873219D02*
X163720447Y-95873219D01*
X163720447Y-95873219D02*
X163815685Y-95920838D01*
X163815685Y-95920838D02*
X163863304Y-95968457D01*
X163863304Y-95968457D02*
X163910923Y-96063695D01*
X163910923Y-96063695D02*
X163910923Y-96158933D01*
X163910923Y-96158933D02*
X163863304Y-96301790D01*
X163863304Y-96301790D02*
X163291876Y-96873219D01*
X163291876Y-96873219D02*
X163910923Y-96873219D01*
X164863304Y-96873219D02*
X164291876Y-96873219D01*
X164577590Y-96873219D02*
X164577590Y-95873219D01*
X164577590Y-95873219D02*
X164482352Y-96016076D01*
X164482352Y-96016076D02*
X164387114Y-96111314D01*
X164387114Y-96111314D02*
X164291876Y-96158933D01*
X133580952Y-81704819D02*
X133104762Y-81704819D01*
X133104762Y-81704819D02*
X133104762Y-80704819D01*
X133914286Y-81181009D02*
X134247619Y-81181009D01*
X134390476Y-81704819D02*
X133914286Y-81704819D01*
X133914286Y-81704819D02*
X133914286Y-80704819D01*
X133914286Y-80704819D02*
X134390476Y-80704819D01*
X134819048Y-81704819D02*
X134819048Y-80704819D01*
X134819048Y-80704819D02*
X135057143Y-80704819D01*
X135057143Y-80704819D02*
X135200000Y-80752438D01*
X135200000Y-80752438D02*
X135295238Y-80847676D01*
X135295238Y-80847676D02*
X135342857Y-80942914D01*
X135342857Y-80942914D02*
X135390476Y-81133390D01*
X135390476Y-81133390D02*
X135390476Y-81276247D01*
X135390476Y-81276247D02*
X135342857Y-81466723D01*
X135342857Y-81466723D02*
X135295238Y-81561961D01*
X135295238Y-81561961D02*
X135200000Y-81657200D01*
X135200000Y-81657200D02*
X135057143Y-81704819D01*
X135057143Y-81704819D02*
X134819048Y-81704819D01*
X135771429Y-80800057D02*
X135819048Y-80752438D01*
X135819048Y-80752438D02*
X135914286Y-80704819D01*
X135914286Y-80704819D02*
X136152381Y-80704819D01*
X136152381Y-80704819D02*
X136247619Y-80752438D01*
X136247619Y-80752438D02*
X136295238Y-80800057D01*
X136295238Y-80800057D02*
X136342857Y-80895295D01*
X136342857Y-80895295D02*
X136342857Y-80990533D01*
X136342857Y-80990533D02*
X136295238Y-81133390D01*
X136295238Y-81133390D02*
X135723810Y-81704819D01*
X135723810Y-81704819D02*
X136342857Y-81704819D01*
X158659580Y-112817857D02*
X158707200Y-112865476D01*
X158707200Y-112865476D02*
X158754819Y-113008333D01*
X158754819Y-113008333D02*
X158754819Y-113103571D01*
X158754819Y-113103571D02*
X158707200Y-113246428D01*
X158707200Y-113246428D02*
X158611961Y-113341666D01*
X158611961Y-113341666D02*
X158516723Y-113389285D01*
X158516723Y-113389285D02*
X158326247Y-113436904D01*
X158326247Y-113436904D02*
X158183390Y-113436904D01*
X158183390Y-113436904D02*
X157992914Y-113389285D01*
X157992914Y-113389285D02*
X157897676Y-113341666D01*
X157897676Y-113341666D02*
X157802438Y-113246428D01*
X157802438Y-113246428D02*
X157754819Y-113103571D01*
X157754819Y-113103571D02*
X157754819Y-113008333D01*
X157754819Y-113008333D02*
X157802438Y-112865476D01*
X157802438Y-112865476D02*
X157850057Y-112817857D01*
X157754819Y-112484523D02*
X157754819Y-111865476D01*
X157754819Y-111865476D02*
X158135771Y-112198809D01*
X158135771Y-112198809D02*
X158135771Y-112055952D01*
X158135771Y-112055952D02*
X158183390Y-111960714D01*
X158183390Y-111960714D02*
X158231009Y-111913095D01*
X158231009Y-111913095D02*
X158326247Y-111865476D01*
X158326247Y-111865476D02*
X158564342Y-111865476D01*
X158564342Y-111865476D02*
X158659580Y-111913095D01*
X158659580Y-111913095D02*
X158707200Y-111960714D01*
X158707200Y-111960714D02*
X158754819Y-112055952D01*
X158754819Y-112055952D02*
X158754819Y-112341666D01*
X158754819Y-112341666D02*
X158707200Y-112436904D01*
X158707200Y-112436904D02*
X158659580Y-112484523D01*
X157754819Y-111532142D02*
X157754819Y-110913095D01*
X157754819Y-110913095D02*
X158135771Y-111246428D01*
X158135771Y-111246428D02*
X158135771Y-111103571D01*
X158135771Y-111103571D02*
X158183390Y-111008333D01*
X158183390Y-111008333D02*
X158231009Y-110960714D01*
X158231009Y-110960714D02*
X158326247Y-110913095D01*
X158326247Y-110913095D02*
X158564342Y-110913095D01*
X158564342Y-110913095D02*
X158659580Y-110960714D01*
X158659580Y-110960714D02*
X158707200Y-111008333D01*
X158707200Y-111008333D02*
X158754819Y-111103571D01*
X158754819Y-111103571D02*
X158754819Y-111389285D01*
X158754819Y-111389285D02*
X158707200Y-111484523D01*
X158707200Y-111484523D02*
X158659580Y-111532142D01*
X137158333Y-113634580D02*
X137110714Y-113682200D01*
X137110714Y-113682200D02*
X136967857Y-113729819D01*
X136967857Y-113729819D02*
X136872619Y-113729819D01*
X136872619Y-113729819D02*
X136729762Y-113682200D01*
X136729762Y-113682200D02*
X136634524Y-113586961D01*
X136634524Y-113586961D02*
X136586905Y-113491723D01*
X136586905Y-113491723D02*
X136539286Y-113301247D01*
X136539286Y-113301247D02*
X136539286Y-113158390D01*
X136539286Y-113158390D02*
X136586905Y-112967914D01*
X136586905Y-112967914D02*
X136634524Y-112872676D01*
X136634524Y-112872676D02*
X136729762Y-112777438D01*
X136729762Y-112777438D02*
X136872619Y-112729819D01*
X136872619Y-112729819D02*
X136967857Y-112729819D01*
X136967857Y-112729819D02*
X137110714Y-112777438D01*
X137110714Y-112777438D02*
X137158333Y-112825057D01*
X137634524Y-113729819D02*
X137825000Y-113729819D01*
X137825000Y-113729819D02*
X137920238Y-113682200D01*
X137920238Y-113682200D02*
X137967857Y-113634580D01*
X137967857Y-113634580D02*
X138063095Y-113491723D01*
X138063095Y-113491723D02*
X138110714Y-113301247D01*
X138110714Y-113301247D02*
X138110714Y-112920295D01*
X138110714Y-112920295D02*
X138063095Y-112825057D01*
X138063095Y-112825057D02*
X138015476Y-112777438D01*
X138015476Y-112777438D02*
X137920238Y-112729819D01*
X137920238Y-112729819D02*
X137729762Y-112729819D01*
X137729762Y-112729819D02*
X137634524Y-112777438D01*
X137634524Y-112777438D02*
X137586905Y-112825057D01*
X137586905Y-112825057D02*
X137539286Y-112920295D01*
X137539286Y-112920295D02*
X137539286Y-113158390D01*
X137539286Y-113158390D02*
X137586905Y-113253628D01*
X137586905Y-113253628D02*
X137634524Y-113301247D01*
X137634524Y-113301247D02*
X137729762Y-113348866D01*
X137729762Y-113348866D02*
X137920238Y-113348866D01*
X137920238Y-113348866D02*
X138015476Y-113301247D01*
X138015476Y-113301247D02*
X138063095Y-113253628D01*
X138063095Y-113253628D02*
X138110714Y-113158390D01*
X128608519Y-104104094D02*
X129418042Y-104104094D01*
X129418042Y-104104094D02*
X129513280Y-104056475D01*
X129513280Y-104056475D02*
X129560900Y-104008856D01*
X129560900Y-104008856D02*
X129608519Y-103913618D01*
X129608519Y-103913618D02*
X129608519Y-103723142D01*
X129608519Y-103723142D02*
X129560900Y-103627904D01*
X129560900Y-103627904D02*
X129513280Y-103580285D01*
X129513280Y-103580285D02*
X129418042Y-103532666D01*
X129418042Y-103532666D02*
X128608519Y-103532666D01*
X129560900Y-103104094D02*
X129608519Y-102961237D01*
X129608519Y-102961237D02*
X129608519Y-102723142D01*
X129608519Y-102723142D02*
X129560900Y-102627904D01*
X129560900Y-102627904D02*
X129513280Y-102580285D01*
X129513280Y-102580285D02*
X129418042Y-102532666D01*
X129418042Y-102532666D02*
X129322804Y-102532666D01*
X129322804Y-102532666D02*
X129227566Y-102580285D01*
X129227566Y-102580285D02*
X129179947Y-102627904D01*
X129179947Y-102627904D02*
X129132328Y-102723142D01*
X129132328Y-102723142D02*
X129084709Y-102913618D01*
X129084709Y-102913618D02*
X129037090Y-103008856D01*
X129037090Y-103008856D02*
X128989471Y-103056475D01*
X128989471Y-103056475D02*
X128894233Y-103104094D01*
X128894233Y-103104094D02*
X128798995Y-103104094D01*
X128798995Y-103104094D02*
X128703757Y-103056475D01*
X128703757Y-103056475D02*
X128656138Y-103008856D01*
X128656138Y-103008856D02*
X128608519Y-102913618D01*
X128608519Y-102913618D02*
X128608519Y-102675523D01*
X128608519Y-102675523D02*
X128656138Y-102532666D01*
X129084709Y-101770761D02*
X129132328Y-101627904D01*
X129132328Y-101627904D02*
X129179947Y-101580285D01*
X129179947Y-101580285D02*
X129275185Y-101532666D01*
X129275185Y-101532666D02*
X129418042Y-101532666D01*
X129418042Y-101532666D02*
X129513280Y-101580285D01*
X129513280Y-101580285D02*
X129560900Y-101627904D01*
X129560900Y-101627904D02*
X129608519Y-101723142D01*
X129608519Y-101723142D02*
X129608519Y-102104094D01*
X129608519Y-102104094D02*
X128608519Y-102104094D01*
X128608519Y-102104094D02*
X128608519Y-101770761D01*
X128608519Y-101770761D02*
X128656138Y-101675523D01*
X128656138Y-101675523D02*
X128703757Y-101627904D01*
X128703757Y-101627904D02*
X128798995Y-101580285D01*
X128798995Y-101580285D02*
X128894233Y-101580285D01*
X128894233Y-101580285D02*
X128989471Y-101627904D01*
X128989471Y-101627904D02*
X129037090Y-101675523D01*
X129037090Y-101675523D02*
X129084709Y-101770761D01*
X129084709Y-101770761D02*
X129084709Y-102104094D01*
X129513280Y-100532666D02*
X129560900Y-100580285D01*
X129560900Y-100580285D02*
X129608519Y-100723142D01*
X129608519Y-100723142D02*
X129608519Y-100818380D01*
X129608519Y-100818380D02*
X129560900Y-100961237D01*
X129560900Y-100961237D02*
X129465661Y-101056475D01*
X129465661Y-101056475D02*
X129370423Y-101104094D01*
X129370423Y-101104094D02*
X129179947Y-101151713D01*
X129179947Y-101151713D02*
X129037090Y-101151713D01*
X129037090Y-101151713D02*
X128846614Y-101104094D01*
X128846614Y-101104094D02*
X128751376Y-101056475D01*
X128751376Y-101056475D02*
X128656138Y-100961237D01*
X128656138Y-100961237D02*
X128608519Y-100818380D01*
X128608519Y-100818380D02*
X128608519Y-100723142D01*
X128608519Y-100723142D02*
X128656138Y-100580285D01*
X128656138Y-100580285D02*
X128703757Y-100532666D01*
X129608519Y-99580285D02*
X129608519Y-100151713D01*
X129608519Y-99865999D02*
X128608519Y-99865999D01*
X128608519Y-99865999D02*
X128751376Y-99961237D01*
X128751376Y-99961237D02*
X128846614Y-100056475D01*
X128846614Y-100056475D02*
X128894233Y-100151713D01*
X142359580Y-79585714D02*
X142407200Y-79614286D01*
X142407200Y-79614286D02*
X142454819Y-79700000D01*
X142454819Y-79700000D02*
X142454819Y-79757143D01*
X142454819Y-79757143D02*
X142407200Y-79842857D01*
X142407200Y-79842857D02*
X142311961Y-79900000D01*
X142311961Y-79900000D02*
X142216723Y-79928571D01*
X142216723Y-79928571D02*
X142026247Y-79957143D01*
X142026247Y-79957143D02*
X141883390Y-79957143D01*
X141883390Y-79957143D02*
X141692914Y-79928571D01*
X141692914Y-79928571D02*
X141597676Y-79900000D01*
X141597676Y-79900000D02*
X141502438Y-79842857D01*
X141502438Y-79842857D02*
X141454819Y-79757143D01*
X141454819Y-79757143D02*
X141454819Y-79700000D01*
X141454819Y-79700000D02*
X141502438Y-79614286D01*
X141502438Y-79614286D02*
X141550057Y-79585714D01*
X142454819Y-79014286D02*
X142454819Y-79357143D01*
X142454819Y-79185714D02*
X141454819Y-79185714D01*
X141454819Y-79185714D02*
X141597676Y-79242857D01*
X141597676Y-79242857D02*
X141692914Y-79300000D01*
X141692914Y-79300000D02*
X141740533Y-79357143D01*
X142454819Y-78728571D02*
X142454819Y-78614285D01*
X142454819Y-78614285D02*
X142407200Y-78557142D01*
X142407200Y-78557142D02*
X142359580Y-78528571D01*
X142359580Y-78528571D02*
X142216723Y-78471428D01*
X142216723Y-78471428D02*
X142026247Y-78442857D01*
X142026247Y-78442857D02*
X141645295Y-78442857D01*
X141645295Y-78442857D02*
X141550057Y-78471428D01*
X141550057Y-78471428D02*
X141502438Y-78500000D01*
X141502438Y-78500000D02*
X141454819Y-78557142D01*
X141454819Y-78557142D02*
X141454819Y-78671428D01*
X141454819Y-78671428D02*
X141502438Y-78728571D01*
X141502438Y-78728571D02*
X141550057Y-78757142D01*
X141550057Y-78757142D02*
X141645295Y-78785714D01*
X141645295Y-78785714D02*
X141883390Y-78785714D01*
X141883390Y-78785714D02*
X141978628Y-78757142D01*
X141978628Y-78757142D02*
X142026247Y-78728571D01*
X142026247Y-78728571D02*
X142073866Y-78671428D01*
X142073866Y-78671428D02*
X142073866Y-78557142D01*
X142073866Y-78557142D02*
X142026247Y-78500000D01*
X142026247Y-78500000D02*
X141978628Y-78471428D01*
X141978628Y-78471428D02*
X141883390Y-78442857D01*
X165209580Y-81816666D02*
X165257200Y-81864285D01*
X165257200Y-81864285D02*
X165304819Y-82007142D01*
X165304819Y-82007142D02*
X165304819Y-82102380D01*
X165304819Y-82102380D02*
X165257200Y-82245237D01*
X165257200Y-82245237D02*
X165161961Y-82340475D01*
X165161961Y-82340475D02*
X165066723Y-82388094D01*
X165066723Y-82388094D02*
X164876247Y-82435713D01*
X164876247Y-82435713D02*
X164733390Y-82435713D01*
X164733390Y-82435713D02*
X164542914Y-82388094D01*
X164542914Y-82388094D02*
X164447676Y-82340475D01*
X164447676Y-82340475D02*
X164352438Y-82245237D01*
X164352438Y-82245237D02*
X164304819Y-82102380D01*
X164304819Y-82102380D02*
X164304819Y-82007142D01*
X164304819Y-82007142D02*
X164352438Y-81864285D01*
X164352438Y-81864285D02*
X164400057Y-81816666D01*
X164304819Y-80911904D02*
X164304819Y-81388094D01*
X164304819Y-81388094D02*
X164781009Y-81435713D01*
X164781009Y-81435713D02*
X164733390Y-81388094D01*
X164733390Y-81388094D02*
X164685771Y-81292856D01*
X164685771Y-81292856D02*
X164685771Y-81054761D01*
X164685771Y-81054761D02*
X164733390Y-80959523D01*
X164733390Y-80959523D02*
X164781009Y-80911904D01*
X164781009Y-80911904D02*
X164876247Y-80864285D01*
X164876247Y-80864285D02*
X165114342Y-80864285D01*
X165114342Y-80864285D02*
X165209580Y-80911904D01*
X165209580Y-80911904D02*
X165257200Y-80959523D01*
X165257200Y-80959523D02*
X165304819Y-81054761D01*
X165304819Y-81054761D02*
X165304819Y-81292856D01*
X165304819Y-81292856D02*
X165257200Y-81388094D01*
X165257200Y-81388094D02*
X165209580Y-81435713D01*
D11*
X140804663Y-83300000D02*
X140328472Y-83533333D01*
X140804663Y-83700000D02*
X139804663Y-83700000D01*
X139804663Y-83700000D02*
X139804663Y-83433333D01*
X139804663Y-83433333D02*
X139852282Y-83366667D01*
X139852282Y-83366667D02*
X139899901Y-83333333D01*
X139899901Y-83333333D02*
X139995139Y-83300000D01*
X139995139Y-83300000D02*
X140137996Y-83300000D01*
X140137996Y-83300000D02*
X140233234Y-83333333D01*
X140233234Y-83333333D02*
X140280853Y-83366667D01*
X140280853Y-83366667D02*
X140328472Y-83433333D01*
X140328472Y-83433333D02*
X140328472Y-83700000D01*
X140804663Y-82633333D02*
X140804663Y-83033333D01*
X140804663Y-82833333D02*
X139804663Y-82833333D01*
X139804663Y-82833333D02*
X139947520Y-82900000D01*
X139947520Y-82900000D02*
X140042758Y-82966667D01*
X140042758Y-82966667D02*
X140090377Y-83033333D01*
X139804663Y-82200000D02*
X139804663Y-82133333D01*
X139804663Y-82133333D02*
X139852282Y-82066666D01*
X139852282Y-82066666D02*
X139899901Y-82033333D01*
X139899901Y-82033333D02*
X139995139Y-82000000D01*
X139995139Y-82000000D02*
X140185615Y-81966666D01*
X140185615Y-81966666D02*
X140423710Y-81966666D01*
X140423710Y-81966666D02*
X140614186Y-82000000D01*
X140614186Y-82000000D02*
X140709424Y-82033333D01*
X140709424Y-82033333D02*
X140757044Y-82066666D01*
X140757044Y-82066666D02*
X140804663Y-82133333D01*
X140804663Y-82133333D02*
X140804663Y-82200000D01*
X140804663Y-82200000D02*
X140757044Y-82266666D01*
X140757044Y-82266666D02*
X140709424Y-82300000D01*
X140709424Y-82300000D02*
X140614186Y-82333333D01*
X140614186Y-82333333D02*
X140423710Y-82366666D01*
X140423710Y-82366666D02*
X140185615Y-82366666D01*
X140185615Y-82366666D02*
X139995139Y-82333333D01*
X139995139Y-82333333D02*
X139899901Y-82300000D01*
X139899901Y-82300000D02*
X139852282Y-82266666D01*
X139852282Y-82266666D02*
X139804663Y-82200000D01*
X136454663Y-109441666D02*
X135454663Y-109441666D01*
X135454663Y-109441666D02*
X135454663Y-109274999D01*
X135454663Y-109274999D02*
X135502282Y-109174999D01*
X135502282Y-109174999D02*
X135597520Y-109108333D01*
X135597520Y-109108333D02*
X135692758Y-109074999D01*
X135692758Y-109074999D02*
X135883234Y-109041666D01*
X135883234Y-109041666D02*
X136026091Y-109041666D01*
X136026091Y-109041666D02*
X136216567Y-109074999D01*
X136216567Y-109074999D02*
X136311805Y-109108333D01*
X136311805Y-109108333D02*
X136407044Y-109174999D01*
X136407044Y-109174999D02*
X136454663Y-109274999D01*
X136454663Y-109274999D02*
X136454663Y-109441666D01*
X135787996Y-108441666D02*
X136454663Y-108441666D01*
X135407044Y-108608333D02*
X136121329Y-108774999D01*
X136121329Y-108774999D02*
X136121329Y-108341666D01*
D13*
X176859580Y-95942857D02*
X176907200Y-95990476D01*
X176907200Y-95990476D02*
X176954819Y-96133333D01*
X176954819Y-96133333D02*
X176954819Y-96228571D01*
X176954819Y-96228571D02*
X176907200Y-96371428D01*
X176907200Y-96371428D02*
X176811961Y-96466666D01*
X176811961Y-96466666D02*
X176716723Y-96514285D01*
X176716723Y-96514285D02*
X176526247Y-96561904D01*
X176526247Y-96561904D02*
X176383390Y-96561904D01*
X176383390Y-96561904D02*
X176192914Y-96514285D01*
X176192914Y-96514285D02*
X176097676Y-96466666D01*
X176097676Y-96466666D02*
X176002438Y-96371428D01*
X176002438Y-96371428D02*
X175954819Y-96228571D01*
X175954819Y-96228571D02*
X175954819Y-96133333D01*
X175954819Y-96133333D02*
X176002438Y-95990476D01*
X176002438Y-95990476D02*
X176050057Y-95942857D01*
X176954819Y-94990476D02*
X176954819Y-95561904D01*
X176954819Y-95276190D02*
X175954819Y-95276190D01*
X175954819Y-95276190D02*
X176097676Y-95371428D01*
X176097676Y-95371428D02*
X176192914Y-95466666D01*
X176192914Y-95466666D02*
X176240533Y-95561904D01*
X175954819Y-94657142D02*
X175954819Y-93990476D01*
X175954819Y-93990476D02*
X176954819Y-94419047D01*
X138614285Y-79054819D02*
X138414285Y-78578628D01*
X138271428Y-79054819D02*
X138271428Y-78054819D01*
X138271428Y-78054819D02*
X138499999Y-78054819D01*
X138499999Y-78054819D02*
X138557142Y-78102438D01*
X138557142Y-78102438D02*
X138585713Y-78150057D01*
X138585713Y-78150057D02*
X138614285Y-78245295D01*
X138614285Y-78245295D02*
X138614285Y-78388152D01*
X138614285Y-78388152D02*
X138585713Y-78483390D01*
X138585713Y-78483390D02*
X138557142Y-78531009D01*
X138557142Y-78531009D02*
X138499999Y-78578628D01*
X138499999Y-78578628D02*
X138271428Y-78578628D01*
X139185713Y-79054819D02*
X138842856Y-79054819D01*
X139014285Y-79054819D02*
X139014285Y-78054819D01*
X139014285Y-78054819D02*
X138957142Y-78197676D01*
X138957142Y-78197676D02*
X138899999Y-78292914D01*
X138899999Y-78292914D02*
X138842856Y-78340533D01*
X139471428Y-79054819D02*
X139585714Y-79054819D01*
X139585714Y-79054819D02*
X139642857Y-79007200D01*
X139642857Y-79007200D02*
X139671428Y-78959580D01*
X139671428Y-78959580D02*
X139728571Y-78816723D01*
X139728571Y-78816723D02*
X139757142Y-78626247D01*
X139757142Y-78626247D02*
X139757142Y-78245295D01*
X139757142Y-78245295D02*
X139728571Y-78150057D01*
X139728571Y-78150057D02*
X139700000Y-78102438D01*
X139700000Y-78102438D02*
X139642857Y-78054819D01*
X139642857Y-78054819D02*
X139528571Y-78054819D01*
X139528571Y-78054819D02*
X139471428Y-78102438D01*
X139471428Y-78102438D02*
X139442857Y-78150057D01*
X139442857Y-78150057D02*
X139414285Y-78245295D01*
X139414285Y-78245295D02*
X139414285Y-78483390D01*
X139414285Y-78483390D02*
X139442857Y-78578628D01*
X139442857Y-78578628D02*
X139471428Y-78626247D01*
X139471428Y-78626247D02*
X139528571Y-78673866D01*
X139528571Y-78673866D02*
X139642857Y-78673866D01*
X139642857Y-78673866D02*
X139700000Y-78626247D01*
X139700000Y-78626247D02*
X139728571Y-78578628D01*
X139728571Y-78578628D02*
X139757142Y-78483390D01*
X175063333Y-85484819D02*
X174587143Y-85484819D01*
X174587143Y-85484819D02*
X174587143Y-84484819D01*
X175920476Y-85484819D02*
X175349048Y-85484819D01*
X175634762Y-85484819D02*
X175634762Y-84484819D01*
X175634762Y-84484819D02*
X175539524Y-84627676D01*
X175539524Y-84627676D02*
X175444286Y-84722914D01*
X175444286Y-84722914D02*
X175349048Y-84770533D01*
D11*
X139833333Y-81609424D02*
X139800000Y-81657044D01*
X139800000Y-81657044D02*
X139700000Y-81704663D01*
X139700000Y-81704663D02*
X139633333Y-81704663D01*
X139633333Y-81704663D02*
X139533333Y-81657044D01*
X139533333Y-81657044D02*
X139466667Y-81561805D01*
X139466667Y-81561805D02*
X139433333Y-81466567D01*
X139433333Y-81466567D02*
X139400000Y-81276091D01*
X139400000Y-81276091D02*
X139400000Y-81133234D01*
X139400000Y-81133234D02*
X139433333Y-80942758D01*
X139433333Y-80942758D02*
X139466667Y-80847520D01*
X139466667Y-80847520D02*
X139533333Y-80752282D01*
X139533333Y-80752282D02*
X139633333Y-80704663D01*
X139633333Y-80704663D02*
X139700000Y-80704663D01*
X139700000Y-80704663D02*
X139800000Y-80752282D01*
X139800000Y-80752282D02*
X139833333Y-80799901D01*
X140433333Y-80704663D02*
X140300000Y-80704663D01*
X140300000Y-80704663D02*
X140233333Y-80752282D01*
X140233333Y-80752282D02*
X140200000Y-80799901D01*
X140200000Y-80799901D02*
X140133333Y-80942758D01*
X140133333Y-80942758D02*
X140100000Y-81133234D01*
X140100000Y-81133234D02*
X140100000Y-81514186D01*
X140100000Y-81514186D02*
X140133333Y-81609424D01*
X140133333Y-81609424D02*
X140166667Y-81657044D01*
X140166667Y-81657044D02*
X140233333Y-81704663D01*
X140233333Y-81704663D02*
X140366667Y-81704663D01*
X140366667Y-81704663D02*
X140433333Y-81657044D01*
X140433333Y-81657044D02*
X140466667Y-81609424D01*
X140466667Y-81609424D02*
X140500000Y-81514186D01*
X140500000Y-81514186D02*
X140500000Y-81276091D01*
X140500000Y-81276091D02*
X140466667Y-81180853D01*
X140466667Y-81180853D02*
X140433333Y-81133234D01*
X140433333Y-81133234D02*
X140366667Y-81085615D01*
X140366667Y-81085615D02*
X140233333Y-81085615D01*
X140233333Y-81085615D02*
X140166667Y-81133234D01*
X140166667Y-81133234D02*
X140133333Y-81180853D01*
X140133333Y-81180853D02*
X140100000Y-81276091D01*
D13*
X160551019Y-111066657D02*
X160074828Y-111399990D01*
X160551019Y-111638085D02*
X159551019Y-111638085D01*
X159551019Y-111638085D02*
X159551019Y-111257133D01*
X159551019Y-111257133D02*
X159598638Y-111161895D01*
X159598638Y-111161895D02*
X159646257Y-111114276D01*
X159646257Y-111114276D02*
X159741495Y-111066657D01*
X159741495Y-111066657D02*
X159884352Y-111066657D01*
X159884352Y-111066657D02*
X159979590Y-111114276D01*
X159979590Y-111114276D02*
X160027209Y-111161895D01*
X160027209Y-111161895D02*
X160074828Y-111257133D01*
X160074828Y-111257133D02*
X160074828Y-111638085D01*
X159646257Y-110685704D02*
X159598638Y-110638085D01*
X159598638Y-110638085D02*
X159551019Y-110542847D01*
X159551019Y-110542847D02*
X159551019Y-110304752D01*
X159551019Y-110304752D02*
X159598638Y-110209514D01*
X159598638Y-110209514D02*
X159646257Y-110161895D01*
X159646257Y-110161895D02*
X159741495Y-110114276D01*
X159741495Y-110114276D02*
X159836733Y-110114276D01*
X159836733Y-110114276D02*
X159979590Y-110161895D01*
X159979590Y-110161895D02*
X160551019Y-110733323D01*
X160551019Y-110733323D02*
X160551019Y-110114276D01*
X159551019Y-109209514D02*
X159551019Y-109685704D01*
X159551019Y-109685704D02*
X160027209Y-109733323D01*
X160027209Y-109733323D02*
X159979590Y-109685704D01*
X159979590Y-109685704D02*
X159931971Y-109590466D01*
X159931971Y-109590466D02*
X159931971Y-109352371D01*
X159931971Y-109352371D02*
X159979590Y-109257133D01*
X159979590Y-109257133D02*
X160027209Y-109209514D01*
X160027209Y-109209514D02*
X160122447Y-109161895D01*
X160122447Y-109161895D02*
X160360542Y-109161895D01*
X160360542Y-109161895D02*
X160455780Y-109209514D01*
X160455780Y-109209514D02*
X160503400Y-109257133D01*
X160503400Y-109257133D02*
X160551019Y-109352371D01*
X160551019Y-109352371D02*
X160551019Y-109590466D01*
X160551019Y-109590466D02*
X160503400Y-109685704D01*
X160503400Y-109685704D02*
X160455780Y-109733323D01*
X136933333Y-98954819D02*
X136600000Y-98478628D01*
X136361905Y-98954819D02*
X136361905Y-97954819D01*
X136361905Y-97954819D02*
X136742857Y-97954819D01*
X136742857Y-97954819D02*
X136838095Y-98002438D01*
X136838095Y-98002438D02*
X136885714Y-98050057D01*
X136885714Y-98050057D02*
X136933333Y-98145295D01*
X136933333Y-98145295D02*
X136933333Y-98288152D01*
X136933333Y-98288152D02*
X136885714Y-98383390D01*
X136885714Y-98383390D02*
X136838095Y-98431009D01*
X136838095Y-98431009D02*
X136742857Y-98478628D01*
X136742857Y-98478628D02*
X136361905Y-98478628D01*
X137885714Y-98954819D02*
X137314286Y-98954819D01*
X137600000Y-98954819D02*
X137600000Y-97954819D01*
X137600000Y-97954819D02*
X137504762Y-98097676D01*
X137504762Y-98097676D02*
X137409524Y-98192914D01*
X137409524Y-98192914D02*
X137314286Y-98240533D01*
X168158333Y-86204819D02*
X167825000Y-85728628D01*
X167586905Y-86204819D02*
X167586905Y-85204819D01*
X167586905Y-85204819D02*
X167967857Y-85204819D01*
X167967857Y-85204819D02*
X168063095Y-85252438D01*
X168063095Y-85252438D02*
X168110714Y-85300057D01*
X168110714Y-85300057D02*
X168158333Y-85395295D01*
X168158333Y-85395295D02*
X168158333Y-85538152D01*
X168158333Y-85538152D02*
X168110714Y-85633390D01*
X168110714Y-85633390D02*
X168063095Y-85681009D01*
X168063095Y-85681009D02*
X167967857Y-85728628D01*
X167967857Y-85728628D02*
X167586905Y-85728628D01*
X169063095Y-85204819D02*
X168586905Y-85204819D01*
X168586905Y-85204819D02*
X168539286Y-85681009D01*
X168539286Y-85681009D02*
X168586905Y-85633390D01*
X168586905Y-85633390D02*
X168682143Y-85585771D01*
X168682143Y-85585771D02*
X168920238Y-85585771D01*
X168920238Y-85585771D02*
X169015476Y-85633390D01*
X169015476Y-85633390D02*
X169063095Y-85681009D01*
X169063095Y-85681009D02*
X169110714Y-85776247D01*
X169110714Y-85776247D02*
X169110714Y-86014342D01*
X169110714Y-86014342D02*
X169063095Y-86109580D01*
X169063095Y-86109580D02*
X169015476Y-86157200D01*
X169015476Y-86157200D02*
X168920238Y-86204819D01*
X168920238Y-86204819D02*
X168682143Y-86204819D01*
X168682143Y-86204819D02*
X168586905Y-86157200D01*
X168586905Y-86157200D02*
X168539286Y-86109580D01*
X140559580Y-95242857D02*
X140607200Y-95290476D01*
X140607200Y-95290476D02*
X140654819Y-95433333D01*
X140654819Y-95433333D02*
X140654819Y-95528571D01*
X140654819Y-95528571D02*
X140607200Y-95671428D01*
X140607200Y-95671428D02*
X140511961Y-95766666D01*
X140511961Y-95766666D02*
X140416723Y-95814285D01*
X140416723Y-95814285D02*
X140226247Y-95861904D01*
X140226247Y-95861904D02*
X140083390Y-95861904D01*
X140083390Y-95861904D02*
X139892914Y-95814285D01*
X139892914Y-95814285D02*
X139797676Y-95766666D01*
X139797676Y-95766666D02*
X139702438Y-95671428D01*
X139702438Y-95671428D02*
X139654819Y-95528571D01*
X139654819Y-95528571D02*
X139654819Y-95433333D01*
X139654819Y-95433333D02*
X139702438Y-95290476D01*
X139702438Y-95290476D02*
X139750057Y-95242857D01*
X139750057Y-94861904D02*
X139702438Y-94814285D01*
X139702438Y-94814285D02*
X139654819Y-94719047D01*
X139654819Y-94719047D02*
X139654819Y-94480952D01*
X139654819Y-94480952D02*
X139702438Y-94385714D01*
X139702438Y-94385714D02*
X139750057Y-94338095D01*
X139750057Y-94338095D02*
X139845295Y-94290476D01*
X139845295Y-94290476D02*
X139940533Y-94290476D01*
X139940533Y-94290476D02*
X140083390Y-94338095D01*
X140083390Y-94338095D02*
X140654819Y-94909523D01*
X140654819Y-94909523D02*
X140654819Y-94290476D01*
X139654819Y-93433333D02*
X139654819Y-93623809D01*
X139654819Y-93623809D02*
X139702438Y-93719047D01*
X139702438Y-93719047D02*
X139750057Y-93766666D01*
X139750057Y-93766666D02*
X139892914Y-93861904D01*
X139892914Y-93861904D02*
X140083390Y-93909523D01*
X140083390Y-93909523D02*
X140464342Y-93909523D01*
X140464342Y-93909523D02*
X140559580Y-93861904D01*
X140559580Y-93861904D02*
X140607200Y-93814285D01*
X140607200Y-93814285D02*
X140654819Y-93719047D01*
X140654819Y-93719047D02*
X140654819Y-93528571D01*
X140654819Y-93528571D02*
X140607200Y-93433333D01*
X140607200Y-93433333D02*
X140559580Y-93385714D01*
X140559580Y-93385714D02*
X140464342Y-93338095D01*
X140464342Y-93338095D02*
X140226247Y-93338095D01*
X140226247Y-93338095D02*
X140131009Y-93385714D01*
X140131009Y-93385714D02*
X140083390Y-93433333D01*
X140083390Y-93433333D02*
X140035771Y-93528571D01*
X140035771Y-93528571D02*
X140035771Y-93719047D01*
X140035771Y-93719047D02*
X140083390Y-93814285D01*
X140083390Y-93814285D02*
X140131009Y-93861904D01*
X140131009Y-93861904D02*
X140226247Y-93909523D01*
X146933333Y-110854819D02*
X146600000Y-110378628D01*
X146361905Y-110854819D02*
X146361905Y-109854819D01*
X146361905Y-109854819D02*
X146742857Y-109854819D01*
X146742857Y-109854819D02*
X146838095Y-109902438D01*
X146838095Y-109902438D02*
X146885714Y-109950057D01*
X146885714Y-109950057D02*
X146933333Y-110045295D01*
X146933333Y-110045295D02*
X146933333Y-110188152D01*
X146933333Y-110188152D02*
X146885714Y-110283390D01*
X146885714Y-110283390D02*
X146838095Y-110331009D01*
X146838095Y-110331009D02*
X146742857Y-110378628D01*
X146742857Y-110378628D02*
X146361905Y-110378628D01*
X147266667Y-109854819D02*
X147933333Y-109854819D01*
X147933333Y-109854819D02*
X147504762Y-110854819D01*
X133557142Y-85159580D02*
X133509523Y-85207200D01*
X133509523Y-85207200D02*
X133366666Y-85254819D01*
X133366666Y-85254819D02*
X133271428Y-85254819D01*
X133271428Y-85254819D02*
X133128571Y-85207200D01*
X133128571Y-85207200D02*
X133033333Y-85111961D01*
X133033333Y-85111961D02*
X132985714Y-85016723D01*
X132985714Y-85016723D02*
X132938095Y-84826247D01*
X132938095Y-84826247D02*
X132938095Y-84683390D01*
X132938095Y-84683390D02*
X132985714Y-84492914D01*
X132985714Y-84492914D02*
X133033333Y-84397676D01*
X133033333Y-84397676D02*
X133128571Y-84302438D01*
X133128571Y-84302438D02*
X133271428Y-84254819D01*
X133271428Y-84254819D02*
X133366666Y-84254819D01*
X133366666Y-84254819D02*
X133509523Y-84302438D01*
X133509523Y-84302438D02*
X133557142Y-84350057D01*
X134509523Y-85254819D02*
X133938095Y-85254819D01*
X134223809Y-85254819D02*
X134223809Y-84254819D01*
X134223809Y-84254819D02*
X134128571Y-84397676D01*
X134128571Y-84397676D02*
X134033333Y-84492914D01*
X134033333Y-84492914D02*
X133938095Y-84540533D01*
X135461904Y-85254819D02*
X134890476Y-85254819D01*
X135176190Y-85254819D02*
X135176190Y-84254819D01*
X135176190Y-84254819D02*
X135080952Y-84397676D01*
X135080952Y-84397676D02*
X134985714Y-84492914D01*
X134985714Y-84492914D02*
X134890476Y-84540533D01*
X141304819Y-123742857D02*
X140828628Y-124076190D01*
X141304819Y-124314285D02*
X140304819Y-124314285D01*
X140304819Y-124314285D02*
X140304819Y-123933333D01*
X140304819Y-123933333D02*
X140352438Y-123838095D01*
X140352438Y-123838095D02*
X140400057Y-123790476D01*
X140400057Y-123790476D02*
X140495295Y-123742857D01*
X140495295Y-123742857D02*
X140638152Y-123742857D01*
X140638152Y-123742857D02*
X140733390Y-123790476D01*
X140733390Y-123790476D02*
X140781009Y-123838095D01*
X140781009Y-123838095D02*
X140828628Y-123933333D01*
X140828628Y-123933333D02*
X140828628Y-124314285D01*
X141304819Y-122790476D02*
X141304819Y-123361904D01*
X141304819Y-123076190D02*
X140304819Y-123076190D01*
X140304819Y-123076190D02*
X140447676Y-123171428D01*
X140447676Y-123171428D02*
X140542914Y-123266666D01*
X140542914Y-123266666D02*
X140590533Y-123361904D01*
X140304819Y-122457142D02*
X140304819Y-121838095D01*
X140304819Y-121838095D02*
X140685771Y-122171428D01*
X140685771Y-122171428D02*
X140685771Y-122028571D01*
X140685771Y-122028571D02*
X140733390Y-121933333D01*
X140733390Y-121933333D02*
X140781009Y-121885714D01*
X140781009Y-121885714D02*
X140876247Y-121838095D01*
X140876247Y-121838095D02*
X141114342Y-121838095D01*
X141114342Y-121838095D02*
X141209580Y-121885714D01*
X141209580Y-121885714D02*
X141257200Y-121933333D01*
X141257200Y-121933333D02*
X141304819Y-122028571D01*
X141304819Y-122028571D02*
X141304819Y-122314285D01*
X141304819Y-122314285D02*
X141257200Y-122409523D01*
X141257200Y-122409523D02*
X141209580Y-122457142D01*
D11*
X171124999Y-82979663D02*
X170891666Y-82503472D01*
X170724999Y-82979663D02*
X170724999Y-81979663D01*
X170724999Y-81979663D02*
X170991666Y-81979663D01*
X170991666Y-81979663D02*
X171058333Y-82027282D01*
X171058333Y-82027282D02*
X171091666Y-82074901D01*
X171091666Y-82074901D02*
X171124999Y-82170139D01*
X171124999Y-82170139D02*
X171124999Y-82312996D01*
X171124999Y-82312996D02*
X171091666Y-82408234D01*
X171091666Y-82408234D02*
X171058333Y-82455853D01*
X171058333Y-82455853D02*
X170991666Y-82503472D01*
X170991666Y-82503472D02*
X170724999Y-82503472D01*
X171791666Y-82979663D02*
X171391666Y-82979663D01*
X171591666Y-82979663D02*
X171591666Y-81979663D01*
X171591666Y-81979663D02*
X171524999Y-82122520D01*
X171524999Y-82122520D02*
X171458333Y-82217758D01*
X171458333Y-82217758D02*
X171391666Y-82265377D01*
X172425000Y-81979663D02*
X172091666Y-81979663D01*
X172091666Y-81979663D02*
X172058333Y-82455853D01*
X172058333Y-82455853D02*
X172091666Y-82408234D01*
X172091666Y-82408234D02*
X172158333Y-82360615D01*
X172158333Y-82360615D02*
X172325000Y-82360615D01*
X172325000Y-82360615D02*
X172391666Y-82408234D01*
X172391666Y-82408234D02*
X172425000Y-82455853D01*
X172425000Y-82455853D02*
X172458333Y-82551091D01*
X172458333Y-82551091D02*
X172458333Y-82789186D01*
X172458333Y-82789186D02*
X172425000Y-82884424D01*
X172425000Y-82884424D02*
X172391666Y-82932044D01*
X172391666Y-82932044D02*
X172325000Y-82979663D01*
X172325000Y-82979663D02*
X172158333Y-82979663D01*
X172158333Y-82979663D02*
X172091666Y-82932044D01*
X172091666Y-82932044D02*
X172058333Y-82884424D01*
D13*
X153510380Y-94080657D02*
X153558000Y-94128276D01*
X153558000Y-94128276D02*
X153605619Y-94271133D01*
X153605619Y-94271133D02*
X153605619Y-94366371D01*
X153605619Y-94366371D02*
X153558000Y-94509228D01*
X153558000Y-94509228D02*
X153462761Y-94604466D01*
X153462761Y-94604466D02*
X153367523Y-94652085D01*
X153367523Y-94652085D02*
X153177047Y-94699704D01*
X153177047Y-94699704D02*
X153034190Y-94699704D01*
X153034190Y-94699704D02*
X152843714Y-94652085D01*
X152843714Y-94652085D02*
X152748476Y-94604466D01*
X152748476Y-94604466D02*
X152653238Y-94509228D01*
X152653238Y-94509228D02*
X152605619Y-94366371D01*
X152605619Y-94366371D02*
X152605619Y-94271133D01*
X152605619Y-94271133D02*
X152653238Y-94128276D01*
X152653238Y-94128276D02*
X152700857Y-94080657D01*
X153605619Y-93128276D02*
X153605619Y-93699704D01*
X153605619Y-93413990D02*
X152605619Y-93413990D01*
X152605619Y-93413990D02*
X152748476Y-93509228D01*
X152748476Y-93509228D02*
X152843714Y-93604466D01*
X152843714Y-93604466D02*
X152891333Y-93699704D01*
X153034190Y-92556847D02*
X152986571Y-92652085D01*
X152986571Y-92652085D02*
X152938952Y-92699704D01*
X152938952Y-92699704D02*
X152843714Y-92747323D01*
X152843714Y-92747323D02*
X152796095Y-92747323D01*
X152796095Y-92747323D02*
X152700857Y-92699704D01*
X152700857Y-92699704D02*
X152653238Y-92652085D01*
X152653238Y-92652085D02*
X152605619Y-92556847D01*
X152605619Y-92556847D02*
X152605619Y-92366371D01*
X152605619Y-92366371D02*
X152653238Y-92271133D01*
X152653238Y-92271133D02*
X152700857Y-92223514D01*
X152700857Y-92223514D02*
X152796095Y-92175895D01*
X152796095Y-92175895D02*
X152843714Y-92175895D01*
X152843714Y-92175895D02*
X152938952Y-92223514D01*
X152938952Y-92223514D02*
X152986571Y-92271133D01*
X152986571Y-92271133D02*
X153034190Y-92366371D01*
X153034190Y-92366371D02*
X153034190Y-92556847D01*
X153034190Y-92556847D02*
X153081809Y-92652085D01*
X153081809Y-92652085D02*
X153129428Y-92699704D01*
X153129428Y-92699704D02*
X153224666Y-92747323D01*
X153224666Y-92747323D02*
X153415142Y-92747323D01*
X153415142Y-92747323D02*
X153510380Y-92699704D01*
X153510380Y-92699704D02*
X153558000Y-92652085D01*
X153558000Y-92652085D02*
X153605619Y-92556847D01*
X153605619Y-92556847D02*
X153605619Y-92366371D01*
X153605619Y-92366371D02*
X153558000Y-92271133D01*
X153558000Y-92271133D02*
X153510380Y-92223514D01*
X153510380Y-92223514D02*
X153415142Y-92175895D01*
X153415142Y-92175895D02*
X153224666Y-92175895D01*
X153224666Y-92175895D02*
X153129428Y-92223514D01*
X153129428Y-92223514D02*
X153081809Y-92271133D01*
X153081809Y-92271133D02*
X153034190Y-92366371D01*
X128913319Y-114772094D02*
X129722842Y-114772094D01*
X129722842Y-114772094D02*
X129818080Y-114724475D01*
X129818080Y-114724475D02*
X129865700Y-114676856D01*
X129865700Y-114676856D02*
X129913319Y-114581618D01*
X129913319Y-114581618D02*
X129913319Y-114391142D01*
X129913319Y-114391142D02*
X129865700Y-114295904D01*
X129865700Y-114295904D02*
X129818080Y-114248285D01*
X129818080Y-114248285D02*
X129722842Y-114200666D01*
X129722842Y-114200666D02*
X128913319Y-114200666D01*
X129865700Y-113772094D02*
X129913319Y-113629237D01*
X129913319Y-113629237D02*
X129913319Y-113391142D01*
X129913319Y-113391142D02*
X129865700Y-113295904D01*
X129865700Y-113295904D02*
X129818080Y-113248285D01*
X129818080Y-113248285D02*
X129722842Y-113200666D01*
X129722842Y-113200666D02*
X129627604Y-113200666D01*
X129627604Y-113200666D02*
X129532366Y-113248285D01*
X129532366Y-113248285D02*
X129484747Y-113295904D01*
X129484747Y-113295904D02*
X129437128Y-113391142D01*
X129437128Y-113391142D02*
X129389509Y-113581618D01*
X129389509Y-113581618D02*
X129341890Y-113676856D01*
X129341890Y-113676856D02*
X129294271Y-113724475D01*
X129294271Y-113724475D02*
X129199033Y-113772094D01*
X129199033Y-113772094D02*
X129103795Y-113772094D01*
X129103795Y-113772094D02*
X129008557Y-113724475D01*
X129008557Y-113724475D02*
X128960938Y-113676856D01*
X128960938Y-113676856D02*
X128913319Y-113581618D01*
X128913319Y-113581618D02*
X128913319Y-113343523D01*
X128913319Y-113343523D02*
X128960938Y-113200666D01*
X129389509Y-112438761D02*
X129437128Y-112295904D01*
X129437128Y-112295904D02*
X129484747Y-112248285D01*
X129484747Y-112248285D02*
X129579985Y-112200666D01*
X129579985Y-112200666D02*
X129722842Y-112200666D01*
X129722842Y-112200666D02*
X129818080Y-112248285D01*
X129818080Y-112248285D02*
X129865700Y-112295904D01*
X129865700Y-112295904D02*
X129913319Y-112391142D01*
X129913319Y-112391142D02*
X129913319Y-112772094D01*
X129913319Y-112772094D02*
X128913319Y-112772094D01*
X128913319Y-112772094D02*
X128913319Y-112438761D01*
X128913319Y-112438761D02*
X128960938Y-112343523D01*
X128960938Y-112343523D02*
X129008557Y-112295904D01*
X129008557Y-112295904D02*
X129103795Y-112248285D01*
X129103795Y-112248285D02*
X129199033Y-112248285D01*
X129199033Y-112248285D02*
X129294271Y-112295904D01*
X129294271Y-112295904D02*
X129341890Y-112343523D01*
X129341890Y-112343523D02*
X129389509Y-112438761D01*
X129389509Y-112438761D02*
X129389509Y-112772094D01*
X129818080Y-111200666D02*
X129865700Y-111248285D01*
X129865700Y-111248285D02*
X129913319Y-111391142D01*
X129913319Y-111391142D02*
X129913319Y-111486380D01*
X129913319Y-111486380D02*
X129865700Y-111629237D01*
X129865700Y-111629237D02*
X129770461Y-111724475D01*
X129770461Y-111724475D02*
X129675223Y-111772094D01*
X129675223Y-111772094D02*
X129484747Y-111819713D01*
X129484747Y-111819713D02*
X129341890Y-111819713D01*
X129341890Y-111819713D02*
X129151414Y-111772094D01*
X129151414Y-111772094D02*
X129056176Y-111724475D01*
X129056176Y-111724475D02*
X128960938Y-111629237D01*
X128960938Y-111629237D02*
X128913319Y-111486380D01*
X128913319Y-111486380D02*
X128913319Y-111391142D01*
X128913319Y-111391142D02*
X128960938Y-111248285D01*
X128960938Y-111248285D02*
X129008557Y-111200666D01*
X129008557Y-110819713D02*
X128960938Y-110772094D01*
X128960938Y-110772094D02*
X128913319Y-110676856D01*
X128913319Y-110676856D02*
X128913319Y-110438761D01*
X128913319Y-110438761D02*
X128960938Y-110343523D01*
X128960938Y-110343523D02*
X129008557Y-110295904D01*
X129008557Y-110295904D02*
X129103795Y-110248285D01*
X129103795Y-110248285D02*
X129199033Y-110248285D01*
X129199033Y-110248285D02*
X129341890Y-110295904D01*
X129341890Y-110295904D02*
X129913319Y-110867332D01*
X129913319Y-110867332D02*
X129913319Y-110248285D01*
X169859580Y-119066666D02*
X169907200Y-119114285D01*
X169907200Y-119114285D02*
X169954819Y-119257142D01*
X169954819Y-119257142D02*
X169954819Y-119352380D01*
X169954819Y-119352380D02*
X169907200Y-119495237D01*
X169907200Y-119495237D02*
X169811961Y-119590475D01*
X169811961Y-119590475D02*
X169716723Y-119638094D01*
X169716723Y-119638094D02*
X169526247Y-119685713D01*
X169526247Y-119685713D02*
X169383390Y-119685713D01*
X169383390Y-119685713D02*
X169192914Y-119638094D01*
X169192914Y-119638094D02*
X169097676Y-119590475D01*
X169097676Y-119590475D02*
X169002438Y-119495237D01*
X169002438Y-119495237D02*
X168954819Y-119352380D01*
X168954819Y-119352380D02*
X168954819Y-119257142D01*
X168954819Y-119257142D02*
X169002438Y-119114285D01*
X169002438Y-119114285D02*
X169050057Y-119066666D01*
X168954819Y-118733332D02*
X168954819Y-118114285D01*
X168954819Y-118114285D02*
X169335771Y-118447618D01*
X169335771Y-118447618D02*
X169335771Y-118304761D01*
X169335771Y-118304761D02*
X169383390Y-118209523D01*
X169383390Y-118209523D02*
X169431009Y-118161904D01*
X169431009Y-118161904D02*
X169526247Y-118114285D01*
X169526247Y-118114285D02*
X169764342Y-118114285D01*
X169764342Y-118114285D02*
X169859580Y-118161904D01*
X169859580Y-118161904D02*
X169907200Y-118209523D01*
X169907200Y-118209523D02*
X169954819Y-118304761D01*
X169954819Y-118304761D02*
X169954819Y-118590475D01*
X169954819Y-118590475D02*
X169907200Y-118685713D01*
X169907200Y-118685713D02*
X169859580Y-118733332D01*
D11*
X165891224Y-111275000D02*
X165938844Y-111308333D01*
X165938844Y-111308333D02*
X165986463Y-111408333D01*
X165986463Y-111408333D02*
X165986463Y-111475000D01*
X165986463Y-111475000D02*
X165938844Y-111575000D01*
X165938844Y-111575000D02*
X165843605Y-111641667D01*
X165843605Y-111641667D02*
X165748367Y-111675000D01*
X165748367Y-111675000D02*
X165557891Y-111708333D01*
X165557891Y-111708333D02*
X165415034Y-111708333D01*
X165415034Y-111708333D02*
X165224558Y-111675000D01*
X165224558Y-111675000D02*
X165129320Y-111641667D01*
X165129320Y-111641667D02*
X165034082Y-111575000D01*
X165034082Y-111575000D02*
X164986463Y-111475000D01*
X164986463Y-111475000D02*
X164986463Y-111408333D01*
X164986463Y-111408333D02*
X165034082Y-111308333D01*
X165034082Y-111308333D02*
X165081701Y-111275000D01*
X164986463Y-111041667D02*
X164986463Y-110608333D01*
X164986463Y-110608333D02*
X165367415Y-110841667D01*
X165367415Y-110841667D02*
X165367415Y-110741667D01*
X165367415Y-110741667D02*
X165415034Y-110675000D01*
X165415034Y-110675000D02*
X165462653Y-110641667D01*
X165462653Y-110641667D02*
X165557891Y-110608333D01*
X165557891Y-110608333D02*
X165795986Y-110608333D01*
X165795986Y-110608333D02*
X165891224Y-110641667D01*
X165891224Y-110641667D02*
X165938844Y-110675000D01*
X165938844Y-110675000D02*
X165986463Y-110741667D01*
X165986463Y-110741667D02*
X165986463Y-110941667D01*
X165986463Y-110941667D02*
X165938844Y-111008333D01*
X165938844Y-111008333D02*
X165891224Y-111041667D01*
X165986463Y-109941666D02*
X165986463Y-110341666D01*
X165986463Y-110141666D02*
X164986463Y-110141666D01*
X164986463Y-110141666D02*
X165129320Y-110208333D01*
X165129320Y-110208333D02*
X165224558Y-110275000D01*
X165224558Y-110275000D02*
X165272177Y-110341666D01*
X166837824Y-80016666D02*
X166885444Y-80049999D01*
X166885444Y-80049999D02*
X166933063Y-80149999D01*
X166933063Y-80149999D02*
X166933063Y-80216666D01*
X166933063Y-80216666D02*
X166885444Y-80316666D01*
X166885444Y-80316666D02*
X166790205Y-80383333D01*
X166790205Y-80383333D02*
X166694967Y-80416666D01*
X166694967Y-80416666D02*
X166504491Y-80449999D01*
X166504491Y-80449999D02*
X166361634Y-80449999D01*
X166361634Y-80449999D02*
X166171158Y-80416666D01*
X166171158Y-80416666D02*
X166075920Y-80383333D01*
X166075920Y-80383333D02*
X165980682Y-80316666D01*
X165980682Y-80316666D02*
X165933063Y-80216666D01*
X165933063Y-80216666D02*
X165933063Y-80149999D01*
X165933063Y-80149999D02*
X165980682Y-80049999D01*
X165980682Y-80049999D02*
X166028301Y-80016666D01*
X166266396Y-79416666D02*
X166933063Y-79416666D01*
X165885444Y-79583333D02*
X166599729Y-79749999D01*
X166599729Y-79749999D02*
X166599729Y-79316666D01*
D13*
X129360705Y-94079219D02*
X129360705Y-93079219D01*
X129360705Y-93079219D02*
X129598800Y-93079219D01*
X129598800Y-93079219D02*
X129741657Y-93126838D01*
X129741657Y-93126838D02*
X129836895Y-93222076D01*
X129836895Y-93222076D02*
X129884514Y-93317314D01*
X129884514Y-93317314D02*
X129932133Y-93507790D01*
X129932133Y-93507790D02*
X129932133Y-93650647D01*
X129932133Y-93650647D02*
X129884514Y-93841123D01*
X129884514Y-93841123D02*
X129836895Y-93936361D01*
X129836895Y-93936361D02*
X129741657Y-94031600D01*
X129741657Y-94031600D02*
X129598800Y-94079219D01*
X129598800Y-94079219D02*
X129360705Y-94079219D01*
X130265467Y-93079219D02*
X130884514Y-93079219D01*
X130884514Y-93079219D02*
X130551181Y-93460171D01*
X130551181Y-93460171D02*
X130694038Y-93460171D01*
X130694038Y-93460171D02*
X130789276Y-93507790D01*
X130789276Y-93507790D02*
X130836895Y-93555409D01*
X130836895Y-93555409D02*
X130884514Y-93650647D01*
X130884514Y-93650647D02*
X130884514Y-93888742D01*
X130884514Y-93888742D02*
X130836895Y-93983980D01*
X130836895Y-93983980D02*
X130789276Y-94031600D01*
X130789276Y-94031600D02*
X130694038Y-94079219D01*
X130694038Y-94079219D02*
X130408324Y-94079219D01*
X130408324Y-94079219D02*
X130313086Y-94031600D01*
X130313086Y-94031600D02*
X130265467Y-93983980D01*
D11*
X144304663Y-84400000D02*
X143828472Y-84633333D01*
X144304663Y-84800000D02*
X143304663Y-84800000D01*
X143304663Y-84800000D02*
X143304663Y-84533333D01*
X143304663Y-84533333D02*
X143352282Y-84466667D01*
X143352282Y-84466667D02*
X143399901Y-84433333D01*
X143399901Y-84433333D02*
X143495139Y-84400000D01*
X143495139Y-84400000D02*
X143637996Y-84400000D01*
X143637996Y-84400000D02*
X143733234Y-84433333D01*
X143733234Y-84433333D02*
X143780853Y-84466667D01*
X143780853Y-84466667D02*
X143828472Y-84533333D01*
X143828472Y-84533333D02*
X143828472Y-84800000D01*
X144304663Y-83733333D02*
X144304663Y-84133333D01*
X144304663Y-83933333D02*
X143304663Y-83933333D01*
X143304663Y-83933333D02*
X143447520Y-84000000D01*
X143447520Y-84000000D02*
X143542758Y-84066667D01*
X143542758Y-84066667D02*
X143590377Y-84133333D01*
X144304663Y-83066666D02*
X144304663Y-83466666D01*
X144304663Y-83266666D02*
X143304663Y-83266666D01*
X143304663Y-83266666D02*
X143447520Y-83333333D01*
X143447520Y-83333333D02*
X143542758Y-83400000D01*
X143542758Y-83400000D02*
X143590377Y-83466666D01*
D13*
X133557142Y-88959580D02*
X133509523Y-89007200D01*
X133509523Y-89007200D02*
X133366666Y-89054819D01*
X133366666Y-89054819D02*
X133271428Y-89054819D01*
X133271428Y-89054819D02*
X133128571Y-89007200D01*
X133128571Y-89007200D02*
X133033333Y-88911961D01*
X133033333Y-88911961D02*
X132985714Y-88816723D01*
X132985714Y-88816723D02*
X132938095Y-88626247D01*
X132938095Y-88626247D02*
X132938095Y-88483390D01*
X132938095Y-88483390D02*
X132985714Y-88292914D01*
X132985714Y-88292914D02*
X133033333Y-88197676D01*
X133033333Y-88197676D02*
X133128571Y-88102438D01*
X133128571Y-88102438D02*
X133271428Y-88054819D01*
X133271428Y-88054819D02*
X133366666Y-88054819D01*
X133366666Y-88054819D02*
X133509523Y-88102438D01*
X133509523Y-88102438D02*
X133557142Y-88150057D01*
X134509523Y-89054819D02*
X133938095Y-89054819D01*
X134223809Y-89054819D02*
X134223809Y-88054819D01*
X134223809Y-88054819D02*
X134128571Y-88197676D01*
X134128571Y-88197676D02*
X134033333Y-88292914D01*
X134033333Y-88292914D02*
X133938095Y-88340533D01*
X134842857Y-88054819D02*
X135461904Y-88054819D01*
X135461904Y-88054819D02*
X135128571Y-88435771D01*
X135128571Y-88435771D02*
X135271428Y-88435771D01*
X135271428Y-88435771D02*
X135366666Y-88483390D01*
X135366666Y-88483390D02*
X135414285Y-88531009D01*
X135414285Y-88531009D02*
X135461904Y-88626247D01*
X135461904Y-88626247D02*
X135461904Y-88864342D01*
X135461904Y-88864342D02*
X135414285Y-88959580D01*
X135414285Y-88959580D02*
X135366666Y-89007200D01*
X135366666Y-89007200D02*
X135271428Y-89054819D01*
X135271428Y-89054819D02*
X134985714Y-89054819D01*
X134985714Y-89054819D02*
X134890476Y-89007200D01*
X134890476Y-89007200D02*
X134842857Y-88959580D01*
D11*
X171454663Y-120588094D02*
X170454663Y-120588094D01*
X170454663Y-120588094D02*
X170454663Y-120349999D01*
X170454663Y-120349999D02*
X170502282Y-120207142D01*
X170502282Y-120207142D02*
X170597520Y-120111904D01*
X170597520Y-120111904D02*
X170692758Y-120064285D01*
X170692758Y-120064285D02*
X170883234Y-120016666D01*
X170883234Y-120016666D02*
X171026091Y-120016666D01*
X171026091Y-120016666D02*
X171216567Y-120064285D01*
X171216567Y-120064285D02*
X171311805Y-120111904D01*
X171311805Y-120111904D02*
X171407044Y-120207142D01*
X171407044Y-120207142D02*
X171454663Y-120349999D01*
X171454663Y-120349999D02*
X171454663Y-120588094D01*
X170454663Y-119159523D02*
X170454663Y-119349999D01*
X170454663Y-119349999D02*
X170502282Y-119445237D01*
X170502282Y-119445237D02*
X170549901Y-119492856D01*
X170549901Y-119492856D02*
X170692758Y-119588094D01*
X170692758Y-119588094D02*
X170883234Y-119635713D01*
X170883234Y-119635713D02*
X171264186Y-119635713D01*
X171264186Y-119635713D02*
X171359424Y-119588094D01*
X171359424Y-119588094D02*
X171407044Y-119540475D01*
X171407044Y-119540475D02*
X171454663Y-119445237D01*
X171454663Y-119445237D02*
X171454663Y-119254761D01*
X171454663Y-119254761D02*
X171407044Y-119159523D01*
X171407044Y-119159523D02*
X171359424Y-119111904D01*
X171359424Y-119111904D02*
X171264186Y-119064285D01*
X171264186Y-119064285D02*
X171026091Y-119064285D01*
X171026091Y-119064285D02*
X170930853Y-119111904D01*
X170930853Y-119111904D02*
X170883234Y-119159523D01*
X170883234Y-119159523D02*
X170835615Y-119254761D01*
X170835615Y-119254761D02*
X170835615Y-119445237D01*
X170835615Y-119445237D02*
X170883234Y-119540475D01*
X170883234Y-119540475D02*
X170930853Y-119588094D01*
X170930853Y-119588094D02*
X171026091Y-119635713D01*
D13*
X147659580Y-103142857D02*
X147707200Y-103190476D01*
X147707200Y-103190476D02*
X147754819Y-103333333D01*
X147754819Y-103333333D02*
X147754819Y-103428571D01*
X147754819Y-103428571D02*
X147707200Y-103571428D01*
X147707200Y-103571428D02*
X147611961Y-103666666D01*
X147611961Y-103666666D02*
X147516723Y-103714285D01*
X147516723Y-103714285D02*
X147326247Y-103761904D01*
X147326247Y-103761904D02*
X147183390Y-103761904D01*
X147183390Y-103761904D02*
X146992914Y-103714285D01*
X146992914Y-103714285D02*
X146897676Y-103666666D01*
X146897676Y-103666666D02*
X146802438Y-103571428D01*
X146802438Y-103571428D02*
X146754819Y-103428571D01*
X146754819Y-103428571D02*
X146754819Y-103333333D01*
X146754819Y-103333333D02*
X146802438Y-103190476D01*
X146802438Y-103190476D02*
X146850057Y-103142857D01*
X147754819Y-102190476D02*
X147754819Y-102761904D01*
X147754819Y-102476190D02*
X146754819Y-102476190D01*
X146754819Y-102476190D02*
X146897676Y-102571428D01*
X146897676Y-102571428D02*
X146992914Y-102666666D01*
X146992914Y-102666666D02*
X147040533Y-102761904D01*
X146754819Y-101285714D02*
X146754819Y-101761904D01*
X146754819Y-101761904D02*
X147231009Y-101809523D01*
X147231009Y-101809523D02*
X147183390Y-101761904D01*
X147183390Y-101761904D02*
X147135771Y-101666666D01*
X147135771Y-101666666D02*
X147135771Y-101428571D01*
X147135771Y-101428571D02*
X147183390Y-101333333D01*
X147183390Y-101333333D02*
X147231009Y-101285714D01*
X147231009Y-101285714D02*
X147326247Y-101238095D01*
X147326247Y-101238095D02*
X147564342Y-101238095D01*
X147564342Y-101238095D02*
X147659580Y-101285714D01*
X147659580Y-101285714D02*
X147707200Y-101333333D01*
X147707200Y-101333333D02*
X147754819Y-101428571D01*
X147754819Y-101428571D02*
X147754819Y-101666666D01*
X147754819Y-101666666D02*
X147707200Y-101761904D01*
X147707200Y-101761904D02*
X147659580Y-101809523D01*
X178742980Y-96042857D02*
X178790600Y-96090476D01*
X178790600Y-96090476D02*
X178838219Y-96233333D01*
X178838219Y-96233333D02*
X178838219Y-96328571D01*
X178838219Y-96328571D02*
X178790600Y-96471428D01*
X178790600Y-96471428D02*
X178695361Y-96566666D01*
X178695361Y-96566666D02*
X178600123Y-96614285D01*
X178600123Y-96614285D02*
X178409647Y-96661904D01*
X178409647Y-96661904D02*
X178266790Y-96661904D01*
X178266790Y-96661904D02*
X178076314Y-96614285D01*
X178076314Y-96614285D02*
X177981076Y-96566666D01*
X177981076Y-96566666D02*
X177885838Y-96471428D01*
X177885838Y-96471428D02*
X177838219Y-96328571D01*
X177838219Y-96328571D02*
X177838219Y-96233333D01*
X177838219Y-96233333D02*
X177885838Y-96090476D01*
X177885838Y-96090476D02*
X177933457Y-96042857D01*
X178838219Y-95090476D02*
X178838219Y-95661904D01*
X178838219Y-95376190D02*
X177838219Y-95376190D01*
X177838219Y-95376190D02*
X177981076Y-95471428D01*
X177981076Y-95471428D02*
X178076314Y-95566666D01*
X178076314Y-95566666D02*
X178123933Y-95661904D01*
X177838219Y-94233333D02*
X177838219Y-94423809D01*
X177838219Y-94423809D02*
X177885838Y-94519047D01*
X177885838Y-94519047D02*
X177933457Y-94566666D01*
X177933457Y-94566666D02*
X178076314Y-94661904D01*
X178076314Y-94661904D02*
X178266790Y-94709523D01*
X178266790Y-94709523D02*
X178647742Y-94709523D01*
X178647742Y-94709523D02*
X178742980Y-94661904D01*
X178742980Y-94661904D02*
X178790600Y-94614285D01*
X178790600Y-94614285D02*
X178838219Y-94519047D01*
X178838219Y-94519047D02*
X178838219Y-94328571D01*
X178838219Y-94328571D02*
X178790600Y-94233333D01*
X178790600Y-94233333D02*
X178742980Y-94185714D01*
X178742980Y-94185714D02*
X178647742Y-94138095D01*
X178647742Y-94138095D02*
X178409647Y-94138095D01*
X178409647Y-94138095D02*
X178314409Y-94185714D01*
X178314409Y-94185714D02*
X178266790Y-94233333D01*
X178266790Y-94233333D02*
X178219171Y-94328571D01*
X178219171Y-94328571D02*
X178219171Y-94519047D01*
X178219171Y-94519047D02*
X178266790Y-94614285D01*
X178266790Y-94614285D02*
X178314409Y-94661904D01*
X178314409Y-94661904D02*
X178409647Y-94709523D01*
D11*
X140904663Y-87900000D02*
X140428472Y-88133333D01*
X140904663Y-88300000D02*
X139904663Y-88300000D01*
X139904663Y-88300000D02*
X139904663Y-88033333D01*
X139904663Y-88033333D02*
X139952282Y-87966667D01*
X139952282Y-87966667D02*
X139999901Y-87933333D01*
X139999901Y-87933333D02*
X140095139Y-87900000D01*
X140095139Y-87900000D02*
X140237996Y-87900000D01*
X140237996Y-87900000D02*
X140333234Y-87933333D01*
X140333234Y-87933333D02*
X140380853Y-87966667D01*
X140380853Y-87966667D02*
X140428472Y-88033333D01*
X140428472Y-88033333D02*
X140428472Y-88300000D01*
X139999901Y-87633333D02*
X139952282Y-87600000D01*
X139952282Y-87600000D02*
X139904663Y-87533333D01*
X139904663Y-87533333D02*
X139904663Y-87366667D01*
X139904663Y-87366667D02*
X139952282Y-87300000D01*
X139952282Y-87300000D02*
X139999901Y-87266667D01*
X139999901Y-87266667D02*
X140095139Y-87233333D01*
X140095139Y-87233333D02*
X140190377Y-87233333D01*
X140190377Y-87233333D02*
X140333234Y-87266667D01*
X140333234Y-87266667D02*
X140904663Y-87666667D01*
X140904663Y-87666667D02*
X140904663Y-87233333D01*
X139904663Y-87000000D02*
X139904663Y-86566666D01*
X139904663Y-86566666D02*
X140285615Y-86800000D01*
X140285615Y-86800000D02*
X140285615Y-86700000D01*
X140285615Y-86700000D02*
X140333234Y-86633333D01*
X140333234Y-86633333D02*
X140380853Y-86600000D01*
X140380853Y-86600000D02*
X140476091Y-86566666D01*
X140476091Y-86566666D02*
X140714186Y-86566666D01*
X140714186Y-86566666D02*
X140809424Y-86600000D01*
X140809424Y-86600000D02*
X140857044Y-86633333D01*
X140857044Y-86633333D02*
X140904663Y-86700000D01*
X140904663Y-86700000D02*
X140904663Y-86900000D01*
X140904663Y-86900000D02*
X140857044Y-86966666D01*
X140857044Y-86966666D02*
X140809424Y-87000000D01*
D13*
X137158333Y-110461580D02*
X137110714Y-110509200D01*
X137110714Y-110509200D02*
X136967857Y-110556819D01*
X136967857Y-110556819D02*
X136872619Y-110556819D01*
X136872619Y-110556819D02*
X136729762Y-110509200D01*
X136729762Y-110509200D02*
X136634524Y-110413961D01*
X136634524Y-110413961D02*
X136586905Y-110318723D01*
X136586905Y-110318723D02*
X136539286Y-110128247D01*
X136539286Y-110128247D02*
X136539286Y-109985390D01*
X136539286Y-109985390D02*
X136586905Y-109794914D01*
X136586905Y-109794914D02*
X136634524Y-109699676D01*
X136634524Y-109699676D02*
X136729762Y-109604438D01*
X136729762Y-109604438D02*
X136872619Y-109556819D01*
X136872619Y-109556819D02*
X136967857Y-109556819D01*
X136967857Y-109556819D02*
X137110714Y-109604438D01*
X137110714Y-109604438D02*
X137158333Y-109652057D01*
X137491667Y-109556819D02*
X138158333Y-109556819D01*
X138158333Y-109556819D02*
X137729762Y-110556819D01*
X169640695Y-88569723D02*
X170288314Y-88569723D01*
X170288314Y-88569723D02*
X170364504Y-88531628D01*
X170364504Y-88531628D02*
X170402600Y-88493533D01*
X170402600Y-88493533D02*
X170440695Y-88417342D01*
X170440695Y-88417342D02*
X170440695Y-88264961D01*
X170440695Y-88264961D02*
X170402600Y-88188771D01*
X170402600Y-88188771D02*
X170364504Y-88150676D01*
X170364504Y-88150676D02*
X170288314Y-88112580D01*
X170288314Y-88112580D02*
X169640695Y-88112580D01*
X169716885Y-87769724D02*
X169678790Y-87731628D01*
X169678790Y-87731628D02*
X169640695Y-87655438D01*
X169640695Y-87655438D02*
X169640695Y-87464962D01*
X169640695Y-87464962D02*
X169678790Y-87388771D01*
X169678790Y-87388771D02*
X169716885Y-87350676D01*
X169716885Y-87350676D02*
X169793076Y-87312581D01*
X169793076Y-87312581D02*
X169869266Y-87312581D01*
X169869266Y-87312581D02*
X169983552Y-87350676D01*
X169983552Y-87350676D02*
X170440695Y-87807819D01*
X170440695Y-87807819D02*
X170440695Y-87312581D01*
X161709580Y-83742857D02*
X161757200Y-83790476D01*
X161757200Y-83790476D02*
X161804819Y-83933333D01*
X161804819Y-83933333D02*
X161804819Y-84028571D01*
X161804819Y-84028571D02*
X161757200Y-84171428D01*
X161757200Y-84171428D02*
X161661961Y-84266666D01*
X161661961Y-84266666D02*
X161566723Y-84314285D01*
X161566723Y-84314285D02*
X161376247Y-84361904D01*
X161376247Y-84361904D02*
X161233390Y-84361904D01*
X161233390Y-84361904D02*
X161042914Y-84314285D01*
X161042914Y-84314285D02*
X160947676Y-84266666D01*
X160947676Y-84266666D02*
X160852438Y-84171428D01*
X160852438Y-84171428D02*
X160804819Y-84028571D01*
X160804819Y-84028571D02*
X160804819Y-83933333D01*
X160804819Y-83933333D02*
X160852438Y-83790476D01*
X160852438Y-83790476D02*
X160900057Y-83742857D01*
X160900057Y-83361904D02*
X160852438Y-83314285D01*
X160852438Y-83314285D02*
X160804819Y-83219047D01*
X160804819Y-83219047D02*
X160804819Y-82980952D01*
X160804819Y-82980952D02*
X160852438Y-82885714D01*
X160852438Y-82885714D02*
X160900057Y-82838095D01*
X160900057Y-82838095D02*
X160995295Y-82790476D01*
X160995295Y-82790476D02*
X161090533Y-82790476D01*
X161090533Y-82790476D02*
X161233390Y-82838095D01*
X161233390Y-82838095D02*
X161804819Y-83409523D01*
X161804819Y-83409523D02*
X161804819Y-82790476D01*
X160804819Y-82457142D02*
X160804819Y-81838095D01*
X160804819Y-81838095D02*
X161185771Y-82171428D01*
X161185771Y-82171428D02*
X161185771Y-82028571D01*
X161185771Y-82028571D02*
X161233390Y-81933333D01*
X161233390Y-81933333D02*
X161281009Y-81885714D01*
X161281009Y-81885714D02*
X161376247Y-81838095D01*
X161376247Y-81838095D02*
X161614342Y-81838095D01*
X161614342Y-81838095D02*
X161709580Y-81885714D01*
X161709580Y-81885714D02*
X161757200Y-81933333D01*
X161757200Y-81933333D02*
X161804819Y-82028571D01*
X161804819Y-82028571D02*
X161804819Y-82314285D01*
X161804819Y-82314285D02*
X161757200Y-82409523D01*
X161757200Y-82409523D02*
X161709580Y-82457142D01*
X138404819Y-126513094D02*
X137404819Y-126513094D01*
X137404819Y-126513094D02*
X137404819Y-126274999D01*
X137404819Y-126274999D02*
X137452438Y-126132142D01*
X137452438Y-126132142D02*
X137547676Y-126036904D01*
X137547676Y-126036904D02*
X137642914Y-125989285D01*
X137642914Y-125989285D02*
X137833390Y-125941666D01*
X137833390Y-125941666D02*
X137976247Y-125941666D01*
X137976247Y-125941666D02*
X138166723Y-125989285D01*
X138166723Y-125989285D02*
X138261961Y-126036904D01*
X138261961Y-126036904D02*
X138357200Y-126132142D01*
X138357200Y-126132142D02*
X138404819Y-126274999D01*
X138404819Y-126274999D02*
X138404819Y-126513094D01*
X138404819Y-124989285D02*
X138404819Y-125560713D01*
X138404819Y-125274999D02*
X137404819Y-125274999D01*
X137404819Y-125274999D02*
X137547676Y-125370237D01*
X137547676Y-125370237D02*
X137642914Y-125465475D01*
X137642914Y-125465475D02*
X137690533Y-125560713D01*
D11*
X144354663Y-89050000D02*
X143878472Y-89283333D01*
X144354663Y-89450000D02*
X143354663Y-89450000D01*
X143354663Y-89450000D02*
X143354663Y-89183333D01*
X143354663Y-89183333D02*
X143402282Y-89116667D01*
X143402282Y-89116667D02*
X143449901Y-89083333D01*
X143449901Y-89083333D02*
X143545139Y-89050000D01*
X143545139Y-89050000D02*
X143687996Y-89050000D01*
X143687996Y-89050000D02*
X143783234Y-89083333D01*
X143783234Y-89083333D02*
X143830853Y-89116667D01*
X143830853Y-89116667D02*
X143878472Y-89183333D01*
X143878472Y-89183333D02*
X143878472Y-89450000D01*
X143449901Y-88783333D02*
X143402282Y-88750000D01*
X143402282Y-88750000D02*
X143354663Y-88683333D01*
X143354663Y-88683333D02*
X143354663Y-88516667D01*
X143354663Y-88516667D02*
X143402282Y-88450000D01*
X143402282Y-88450000D02*
X143449901Y-88416667D01*
X143449901Y-88416667D02*
X143545139Y-88383333D01*
X143545139Y-88383333D02*
X143640377Y-88383333D01*
X143640377Y-88383333D02*
X143783234Y-88416667D01*
X143783234Y-88416667D02*
X144354663Y-88816667D01*
X144354663Y-88816667D02*
X144354663Y-88383333D01*
X143687996Y-87783333D02*
X144354663Y-87783333D01*
X143307044Y-87950000D02*
X144021329Y-88116666D01*
X144021329Y-88116666D02*
X144021329Y-87683333D01*
D13*
X170237142Y-96839580D02*
X170189523Y-96887200D01*
X170189523Y-96887200D02*
X170046666Y-96934819D01*
X170046666Y-96934819D02*
X169951428Y-96934819D01*
X169951428Y-96934819D02*
X169808571Y-96887200D01*
X169808571Y-96887200D02*
X169713333Y-96791961D01*
X169713333Y-96791961D02*
X169665714Y-96696723D01*
X169665714Y-96696723D02*
X169618095Y-96506247D01*
X169618095Y-96506247D02*
X169618095Y-96363390D01*
X169618095Y-96363390D02*
X169665714Y-96172914D01*
X169665714Y-96172914D02*
X169713333Y-96077676D01*
X169713333Y-96077676D02*
X169808571Y-95982438D01*
X169808571Y-95982438D02*
X169951428Y-95934819D01*
X169951428Y-95934819D02*
X170046666Y-95934819D01*
X170046666Y-95934819D02*
X170189523Y-95982438D01*
X170189523Y-95982438D02*
X170237142Y-96030057D01*
X170618095Y-96030057D02*
X170665714Y-95982438D01*
X170665714Y-95982438D02*
X170760952Y-95934819D01*
X170760952Y-95934819D02*
X170999047Y-95934819D01*
X170999047Y-95934819D02*
X171094285Y-95982438D01*
X171094285Y-95982438D02*
X171141904Y-96030057D01*
X171141904Y-96030057D02*
X171189523Y-96125295D01*
X171189523Y-96125295D02*
X171189523Y-96220533D01*
X171189523Y-96220533D02*
X171141904Y-96363390D01*
X171141904Y-96363390D02*
X170570476Y-96934819D01*
X170570476Y-96934819D02*
X171189523Y-96934819D01*
X172046666Y-96268152D02*
X172046666Y-96934819D01*
X171808571Y-95887200D02*
X171570476Y-96601485D01*
X171570476Y-96601485D02*
X172189523Y-96601485D01*
D11*
X140854663Y-85600000D02*
X140378472Y-85833333D01*
X140854663Y-86000000D02*
X139854663Y-86000000D01*
X139854663Y-86000000D02*
X139854663Y-85733333D01*
X139854663Y-85733333D02*
X139902282Y-85666667D01*
X139902282Y-85666667D02*
X139949901Y-85633333D01*
X139949901Y-85633333D02*
X140045139Y-85600000D01*
X140045139Y-85600000D02*
X140187996Y-85600000D01*
X140187996Y-85600000D02*
X140283234Y-85633333D01*
X140283234Y-85633333D02*
X140330853Y-85666667D01*
X140330853Y-85666667D02*
X140378472Y-85733333D01*
X140378472Y-85733333D02*
X140378472Y-86000000D01*
X140854663Y-84933333D02*
X140854663Y-85333333D01*
X140854663Y-85133333D02*
X139854663Y-85133333D01*
X139854663Y-85133333D02*
X139997520Y-85200000D01*
X139997520Y-85200000D02*
X140092758Y-85266667D01*
X140092758Y-85266667D02*
X140140377Y-85333333D01*
X139949901Y-84666666D02*
X139902282Y-84633333D01*
X139902282Y-84633333D02*
X139854663Y-84566666D01*
X139854663Y-84566666D02*
X139854663Y-84400000D01*
X139854663Y-84400000D02*
X139902282Y-84333333D01*
X139902282Y-84333333D02*
X139949901Y-84300000D01*
X139949901Y-84300000D02*
X140045139Y-84266666D01*
X140045139Y-84266666D02*
X140140377Y-84266666D01*
X140140377Y-84266666D02*
X140283234Y-84300000D01*
X140283234Y-84300000D02*
X140854663Y-84700000D01*
X140854663Y-84700000D02*
X140854663Y-84266666D01*
D13*
X142159580Y-95242857D02*
X142207200Y-95290476D01*
X142207200Y-95290476D02*
X142254819Y-95433333D01*
X142254819Y-95433333D02*
X142254819Y-95528571D01*
X142254819Y-95528571D02*
X142207200Y-95671428D01*
X142207200Y-95671428D02*
X142111961Y-95766666D01*
X142111961Y-95766666D02*
X142016723Y-95814285D01*
X142016723Y-95814285D02*
X141826247Y-95861904D01*
X141826247Y-95861904D02*
X141683390Y-95861904D01*
X141683390Y-95861904D02*
X141492914Y-95814285D01*
X141492914Y-95814285D02*
X141397676Y-95766666D01*
X141397676Y-95766666D02*
X141302438Y-95671428D01*
X141302438Y-95671428D02*
X141254819Y-95528571D01*
X141254819Y-95528571D02*
X141254819Y-95433333D01*
X141254819Y-95433333D02*
X141302438Y-95290476D01*
X141302438Y-95290476D02*
X141350057Y-95242857D01*
X141350057Y-94861904D02*
X141302438Y-94814285D01*
X141302438Y-94814285D02*
X141254819Y-94719047D01*
X141254819Y-94719047D02*
X141254819Y-94480952D01*
X141254819Y-94480952D02*
X141302438Y-94385714D01*
X141302438Y-94385714D02*
X141350057Y-94338095D01*
X141350057Y-94338095D02*
X141445295Y-94290476D01*
X141445295Y-94290476D02*
X141540533Y-94290476D01*
X141540533Y-94290476D02*
X141683390Y-94338095D01*
X141683390Y-94338095D02*
X142254819Y-94909523D01*
X142254819Y-94909523D02*
X142254819Y-94290476D01*
X141254819Y-93957142D02*
X141254819Y-93290476D01*
X141254819Y-93290476D02*
X142254819Y-93719047D01*
D11*
X144354663Y-86800000D02*
X143878472Y-87033333D01*
X144354663Y-87200000D02*
X143354663Y-87200000D01*
X143354663Y-87200000D02*
X143354663Y-86933333D01*
X143354663Y-86933333D02*
X143402282Y-86866667D01*
X143402282Y-86866667D02*
X143449901Y-86833333D01*
X143449901Y-86833333D02*
X143545139Y-86800000D01*
X143545139Y-86800000D02*
X143687996Y-86800000D01*
X143687996Y-86800000D02*
X143783234Y-86833333D01*
X143783234Y-86833333D02*
X143830853Y-86866667D01*
X143830853Y-86866667D02*
X143878472Y-86933333D01*
X143878472Y-86933333D02*
X143878472Y-87200000D01*
X143449901Y-86533333D02*
X143402282Y-86500000D01*
X143402282Y-86500000D02*
X143354663Y-86433333D01*
X143354663Y-86433333D02*
X143354663Y-86266667D01*
X143354663Y-86266667D02*
X143402282Y-86200000D01*
X143402282Y-86200000D02*
X143449901Y-86166667D01*
X143449901Y-86166667D02*
X143545139Y-86133333D01*
X143545139Y-86133333D02*
X143640377Y-86133333D01*
X143640377Y-86133333D02*
X143783234Y-86166667D01*
X143783234Y-86166667D02*
X144354663Y-86566667D01*
X144354663Y-86566667D02*
X144354663Y-86133333D01*
X143449901Y-85866666D02*
X143402282Y-85833333D01*
X143402282Y-85833333D02*
X143354663Y-85766666D01*
X143354663Y-85766666D02*
X143354663Y-85600000D01*
X143354663Y-85600000D02*
X143402282Y-85533333D01*
X143402282Y-85533333D02*
X143449901Y-85500000D01*
X143449901Y-85500000D02*
X143545139Y-85466666D01*
X143545139Y-85466666D02*
X143640377Y-85466666D01*
X143640377Y-85466666D02*
X143783234Y-85500000D01*
X143783234Y-85500000D02*
X144354663Y-85900000D01*
X144354663Y-85900000D02*
X144354663Y-85466666D01*
D13*
X165746133Y-93037819D02*
X165412800Y-92561628D01*
X165174705Y-93037819D02*
X165174705Y-92037819D01*
X165174705Y-92037819D02*
X165555657Y-92037819D01*
X165555657Y-92037819D02*
X165650895Y-92085438D01*
X165650895Y-92085438D02*
X165698514Y-92133057D01*
X165698514Y-92133057D02*
X165746133Y-92228295D01*
X165746133Y-92228295D02*
X165746133Y-92371152D01*
X165746133Y-92371152D02*
X165698514Y-92466390D01*
X165698514Y-92466390D02*
X165650895Y-92514009D01*
X165650895Y-92514009D02*
X165555657Y-92561628D01*
X165555657Y-92561628D02*
X165174705Y-92561628D01*
X166603276Y-92037819D02*
X166412800Y-92037819D01*
X166412800Y-92037819D02*
X166317562Y-92085438D01*
X166317562Y-92085438D02*
X166269943Y-92133057D01*
X166269943Y-92133057D02*
X166174705Y-92275914D01*
X166174705Y-92275914D02*
X166127086Y-92466390D01*
X166127086Y-92466390D02*
X166127086Y-92847342D01*
X166127086Y-92847342D02*
X166174705Y-92942580D01*
X166174705Y-92942580D02*
X166222324Y-92990200D01*
X166222324Y-92990200D02*
X166317562Y-93037819D01*
X166317562Y-93037819D02*
X166508038Y-93037819D01*
X166508038Y-93037819D02*
X166603276Y-92990200D01*
X166603276Y-92990200D02*
X166650895Y-92942580D01*
X166650895Y-92942580D02*
X166698514Y-92847342D01*
X166698514Y-92847342D02*
X166698514Y-92609247D01*
X166698514Y-92609247D02*
X166650895Y-92514009D01*
X166650895Y-92514009D02*
X166603276Y-92466390D01*
X166603276Y-92466390D02*
X166508038Y-92418771D01*
X166508038Y-92418771D02*
X166317562Y-92418771D01*
X166317562Y-92418771D02*
X166222324Y-92466390D01*
X166222324Y-92466390D02*
X166174705Y-92514009D01*
X166174705Y-92514009D02*
X166127086Y-92609247D01*
X172482142Y-108436580D02*
X172434523Y-108484200D01*
X172434523Y-108484200D02*
X172291666Y-108531819D01*
X172291666Y-108531819D02*
X172196428Y-108531819D01*
X172196428Y-108531819D02*
X172053571Y-108484200D01*
X172053571Y-108484200D02*
X171958333Y-108388961D01*
X171958333Y-108388961D02*
X171910714Y-108293723D01*
X171910714Y-108293723D02*
X171863095Y-108103247D01*
X171863095Y-108103247D02*
X171863095Y-107960390D01*
X171863095Y-107960390D02*
X171910714Y-107769914D01*
X171910714Y-107769914D02*
X171958333Y-107674676D01*
X171958333Y-107674676D02*
X172053571Y-107579438D01*
X172053571Y-107579438D02*
X172196428Y-107531819D01*
X172196428Y-107531819D02*
X172291666Y-107531819D01*
X172291666Y-107531819D02*
X172434523Y-107579438D01*
X172434523Y-107579438D02*
X172482142Y-107627057D01*
X172815476Y-107531819D02*
X173434523Y-107531819D01*
X173434523Y-107531819D02*
X173101190Y-107912771D01*
X173101190Y-107912771D02*
X173244047Y-107912771D01*
X173244047Y-107912771D02*
X173339285Y-107960390D01*
X173339285Y-107960390D02*
X173386904Y-108008009D01*
X173386904Y-108008009D02*
X173434523Y-108103247D01*
X173434523Y-108103247D02*
X173434523Y-108341342D01*
X173434523Y-108341342D02*
X173386904Y-108436580D01*
X173386904Y-108436580D02*
X173339285Y-108484200D01*
X173339285Y-108484200D02*
X173244047Y-108531819D01*
X173244047Y-108531819D02*
X172958333Y-108531819D01*
X172958333Y-108531819D02*
X172863095Y-108484200D01*
X172863095Y-108484200D02*
X172815476Y-108436580D01*
X174053571Y-107531819D02*
X174148809Y-107531819D01*
X174148809Y-107531819D02*
X174244047Y-107579438D01*
X174244047Y-107579438D02*
X174291666Y-107627057D01*
X174291666Y-107627057D02*
X174339285Y-107722295D01*
X174339285Y-107722295D02*
X174386904Y-107912771D01*
X174386904Y-107912771D02*
X174386904Y-108150866D01*
X174386904Y-108150866D02*
X174339285Y-108341342D01*
X174339285Y-108341342D02*
X174291666Y-108436580D01*
X174291666Y-108436580D02*
X174244047Y-108484200D01*
X174244047Y-108484200D02*
X174148809Y-108531819D01*
X174148809Y-108531819D02*
X174053571Y-108531819D01*
X174053571Y-108531819D02*
X173958333Y-108484200D01*
X173958333Y-108484200D02*
X173910714Y-108436580D01*
X173910714Y-108436580D02*
X173863095Y-108341342D01*
X173863095Y-108341342D02*
X173815476Y-108150866D01*
X173815476Y-108150866D02*
X173815476Y-107912771D01*
X173815476Y-107912771D02*
X173863095Y-107722295D01*
X173863095Y-107722295D02*
X173910714Y-107627057D01*
X173910714Y-107627057D02*
X173958333Y-107579438D01*
X173958333Y-107579438D02*
X174053571Y-107531819D01*
X135454819Y-122038094D02*
X134454819Y-122038094D01*
X134454819Y-122038094D02*
X134454819Y-121799999D01*
X134454819Y-121799999D02*
X134502438Y-121657142D01*
X134502438Y-121657142D02*
X134597676Y-121561904D01*
X134597676Y-121561904D02*
X134692914Y-121514285D01*
X134692914Y-121514285D02*
X134883390Y-121466666D01*
X134883390Y-121466666D02*
X135026247Y-121466666D01*
X135026247Y-121466666D02*
X135216723Y-121514285D01*
X135216723Y-121514285D02*
X135311961Y-121561904D01*
X135311961Y-121561904D02*
X135407200Y-121657142D01*
X135407200Y-121657142D02*
X135454819Y-121799999D01*
X135454819Y-121799999D02*
X135454819Y-122038094D01*
X134550057Y-121085713D02*
X134502438Y-121038094D01*
X134502438Y-121038094D02*
X134454819Y-120942856D01*
X134454819Y-120942856D02*
X134454819Y-120704761D01*
X134454819Y-120704761D02*
X134502438Y-120609523D01*
X134502438Y-120609523D02*
X134550057Y-120561904D01*
X134550057Y-120561904D02*
X134645295Y-120514285D01*
X134645295Y-120514285D02*
X134740533Y-120514285D01*
X134740533Y-120514285D02*
X134883390Y-120561904D01*
X134883390Y-120561904D02*
X135454819Y-121133332D01*
X135454819Y-121133332D02*
X135454819Y-120514285D01*
X164189580Y-111691657D02*
X164237200Y-111739276D01*
X164237200Y-111739276D02*
X164284819Y-111882133D01*
X164284819Y-111882133D02*
X164284819Y-111977371D01*
X164284819Y-111977371D02*
X164237200Y-112120228D01*
X164237200Y-112120228D02*
X164141961Y-112215466D01*
X164141961Y-112215466D02*
X164046723Y-112263085D01*
X164046723Y-112263085D02*
X163856247Y-112310704D01*
X163856247Y-112310704D02*
X163713390Y-112310704D01*
X163713390Y-112310704D02*
X163522914Y-112263085D01*
X163522914Y-112263085D02*
X163427676Y-112215466D01*
X163427676Y-112215466D02*
X163332438Y-112120228D01*
X163332438Y-112120228D02*
X163284819Y-111977371D01*
X163284819Y-111977371D02*
X163284819Y-111882133D01*
X163284819Y-111882133D02*
X163332438Y-111739276D01*
X163332438Y-111739276D02*
X163380057Y-111691657D01*
X163380057Y-111310704D02*
X163332438Y-111263085D01*
X163332438Y-111263085D02*
X163284819Y-111167847D01*
X163284819Y-111167847D02*
X163284819Y-110929752D01*
X163284819Y-110929752D02*
X163332438Y-110834514D01*
X163332438Y-110834514D02*
X163380057Y-110786895D01*
X163380057Y-110786895D02*
X163475295Y-110739276D01*
X163475295Y-110739276D02*
X163570533Y-110739276D01*
X163570533Y-110739276D02*
X163713390Y-110786895D01*
X163713390Y-110786895D02*
X164284819Y-111358323D01*
X164284819Y-111358323D02*
X164284819Y-110739276D01*
X164284819Y-110263085D02*
X164284819Y-110072609D01*
X164284819Y-110072609D02*
X164237200Y-109977371D01*
X164237200Y-109977371D02*
X164189580Y-109929752D01*
X164189580Y-109929752D02*
X164046723Y-109834514D01*
X164046723Y-109834514D02*
X163856247Y-109786895D01*
X163856247Y-109786895D02*
X163475295Y-109786895D01*
X163475295Y-109786895D02*
X163380057Y-109834514D01*
X163380057Y-109834514D02*
X163332438Y-109882133D01*
X163332438Y-109882133D02*
X163284819Y-109977371D01*
X163284819Y-109977371D02*
X163284819Y-110167847D01*
X163284819Y-110167847D02*
X163332438Y-110263085D01*
X163332438Y-110263085D02*
X163380057Y-110310704D01*
X163380057Y-110310704D02*
X163475295Y-110358323D01*
X163475295Y-110358323D02*
X163713390Y-110358323D01*
X163713390Y-110358323D02*
X163808628Y-110310704D01*
X163808628Y-110310704D02*
X163856247Y-110263085D01*
X163856247Y-110263085D02*
X163903866Y-110167847D01*
X163903866Y-110167847D02*
X163903866Y-109977371D01*
X163903866Y-109977371D02*
X163856247Y-109882133D01*
X163856247Y-109882133D02*
X163808628Y-109834514D01*
X163808628Y-109834514D02*
X163713390Y-109786895D01*
X175435419Y-94140257D02*
X174959228Y-94473590D01*
X175435419Y-94711685D02*
X174435419Y-94711685D01*
X174435419Y-94711685D02*
X174435419Y-94330733D01*
X174435419Y-94330733D02*
X174483038Y-94235495D01*
X174483038Y-94235495D02*
X174530657Y-94187876D01*
X174530657Y-94187876D02*
X174625895Y-94140257D01*
X174625895Y-94140257D02*
X174768752Y-94140257D01*
X174768752Y-94140257D02*
X174863990Y-94187876D01*
X174863990Y-94187876D02*
X174911609Y-94235495D01*
X174911609Y-94235495D02*
X174959228Y-94330733D01*
X174959228Y-94330733D02*
X174959228Y-94711685D01*
X175435419Y-93187876D02*
X175435419Y-93759304D01*
X175435419Y-93473590D02*
X174435419Y-93473590D01*
X174435419Y-93473590D02*
X174578276Y-93568828D01*
X174578276Y-93568828D02*
X174673514Y-93664066D01*
X174673514Y-93664066D02*
X174721133Y-93759304D01*
X174863990Y-92616447D02*
X174816371Y-92711685D01*
X174816371Y-92711685D02*
X174768752Y-92759304D01*
X174768752Y-92759304D02*
X174673514Y-92806923D01*
X174673514Y-92806923D02*
X174625895Y-92806923D01*
X174625895Y-92806923D02*
X174530657Y-92759304D01*
X174530657Y-92759304D02*
X174483038Y-92711685D01*
X174483038Y-92711685D02*
X174435419Y-92616447D01*
X174435419Y-92616447D02*
X174435419Y-92425971D01*
X174435419Y-92425971D02*
X174483038Y-92330733D01*
X174483038Y-92330733D02*
X174530657Y-92283114D01*
X174530657Y-92283114D02*
X174625895Y-92235495D01*
X174625895Y-92235495D02*
X174673514Y-92235495D01*
X174673514Y-92235495D02*
X174768752Y-92283114D01*
X174768752Y-92283114D02*
X174816371Y-92330733D01*
X174816371Y-92330733D02*
X174863990Y-92425971D01*
X174863990Y-92425971D02*
X174863990Y-92616447D01*
X174863990Y-92616447D02*
X174911609Y-92711685D01*
X174911609Y-92711685D02*
X174959228Y-92759304D01*
X174959228Y-92759304D02*
X175054466Y-92806923D01*
X175054466Y-92806923D02*
X175244942Y-92806923D01*
X175244942Y-92806923D02*
X175340180Y-92759304D01*
X175340180Y-92759304D02*
X175387800Y-92711685D01*
X175387800Y-92711685D02*
X175435419Y-92616447D01*
X175435419Y-92616447D02*
X175435419Y-92425971D01*
X175435419Y-92425971D02*
X175387800Y-92330733D01*
X175387800Y-92330733D02*
X175340180Y-92283114D01*
X175340180Y-92283114D02*
X175244942Y-92235495D01*
X175244942Y-92235495D02*
X175054466Y-92235495D01*
X175054466Y-92235495D02*
X174959228Y-92283114D01*
X174959228Y-92283114D02*
X174911609Y-92330733D01*
X174911609Y-92330733D02*
X174863990Y-92425971D01*
D11*
X150054663Y-114716666D02*
X149578472Y-114949999D01*
X150054663Y-115116666D02*
X149054663Y-115116666D01*
X149054663Y-115116666D02*
X149054663Y-114849999D01*
X149054663Y-114849999D02*
X149102282Y-114783333D01*
X149102282Y-114783333D02*
X149149901Y-114749999D01*
X149149901Y-114749999D02*
X149245139Y-114716666D01*
X149245139Y-114716666D02*
X149387996Y-114716666D01*
X149387996Y-114716666D02*
X149483234Y-114749999D01*
X149483234Y-114749999D02*
X149530853Y-114783333D01*
X149530853Y-114783333D02*
X149578472Y-114849999D01*
X149578472Y-114849999D02*
X149578472Y-115116666D01*
X149483234Y-114316666D02*
X149435615Y-114383333D01*
X149435615Y-114383333D02*
X149387996Y-114416666D01*
X149387996Y-114416666D02*
X149292758Y-114449999D01*
X149292758Y-114449999D02*
X149245139Y-114449999D01*
X149245139Y-114449999D02*
X149149901Y-114416666D01*
X149149901Y-114416666D02*
X149102282Y-114383333D01*
X149102282Y-114383333D02*
X149054663Y-114316666D01*
X149054663Y-114316666D02*
X149054663Y-114183333D01*
X149054663Y-114183333D02*
X149102282Y-114116666D01*
X149102282Y-114116666D02*
X149149901Y-114083333D01*
X149149901Y-114083333D02*
X149245139Y-114049999D01*
X149245139Y-114049999D02*
X149292758Y-114049999D01*
X149292758Y-114049999D02*
X149387996Y-114083333D01*
X149387996Y-114083333D02*
X149435615Y-114116666D01*
X149435615Y-114116666D02*
X149483234Y-114183333D01*
X149483234Y-114183333D02*
X149483234Y-114316666D01*
X149483234Y-114316666D02*
X149530853Y-114383333D01*
X149530853Y-114383333D02*
X149578472Y-114416666D01*
X149578472Y-114416666D02*
X149673710Y-114449999D01*
X149673710Y-114449999D02*
X149864186Y-114449999D01*
X149864186Y-114449999D02*
X149959424Y-114416666D01*
X149959424Y-114416666D02*
X150007044Y-114383333D01*
X150007044Y-114383333D02*
X150054663Y-114316666D01*
X150054663Y-114316666D02*
X150054663Y-114183333D01*
X150054663Y-114183333D02*
X150007044Y-114116666D01*
X150007044Y-114116666D02*
X149959424Y-114083333D01*
X149959424Y-114083333D02*
X149864186Y-114049999D01*
X149864186Y-114049999D02*
X149673710Y-114049999D01*
X149673710Y-114049999D02*
X149578472Y-114083333D01*
X149578472Y-114083333D02*
X149530853Y-114116666D01*
X149530853Y-114116666D02*
X149483234Y-114183333D01*
D13*
X138959580Y-95242857D02*
X139007200Y-95290476D01*
X139007200Y-95290476D02*
X139054819Y-95433333D01*
X139054819Y-95433333D02*
X139054819Y-95528571D01*
X139054819Y-95528571D02*
X139007200Y-95671428D01*
X139007200Y-95671428D02*
X138911961Y-95766666D01*
X138911961Y-95766666D02*
X138816723Y-95814285D01*
X138816723Y-95814285D02*
X138626247Y-95861904D01*
X138626247Y-95861904D02*
X138483390Y-95861904D01*
X138483390Y-95861904D02*
X138292914Y-95814285D01*
X138292914Y-95814285D02*
X138197676Y-95766666D01*
X138197676Y-95766666D02*
X138102438Y-95671428D01*
X138102438Y-95671428D02*
X138054819Y-95528571D01*
X138054819Y-95528571D02*
X138054819Y-95433333D01*
X138054819Y-95433333D02*
X138102438Y-95290476D01*
X138102438Y-95290476D02*
X138150057Y-95242857D01*
X138150057Y-94861904D02*
X138102438Y-94814285D01*
X138102438Y-94814285D02*
X138054819Y-94719047D01*
X138054819Y-94719047D02*
X138054819Y-94480952D01*
X138054819Y-94480952D02*
X138102438Y-94385714D01*
X138102438Y-94385714D02*
X138150057Y-94338095D01*
X138150057Y-94338095D02*
X138245295Y-94290476D01*
X138245295Y-94290476D02*
X138340533Y-94290476D01*
X138340533Y-94290476D02*
X138483390Y-94338095D01*
X138483390Y-94338095D02*
X139054819Y-94909523D01*
X139054819Y-94909523D02*
X139054819Y-94290476D01*
X138054819Y-93385714D02*
X138054819Y-93861904D01*
X138054819Y-93861904D02*
X138531009Y-93909523D01*
X138531009Y-93909523D02*
X138483390Y-93861904D01*
X138483390Y-93861904D02*
X138435771Y-93766666D01*
X138435771Y-93766666D02*
X138435771Y-93528571D01*
X138435771Y-93528571D02*
X138483390Y-93433333D01*
X138483390Y-93433333D02*
X138531009Y-93385714D01*
X138531009Y-93385714D02*
X138626247Y-93338095D01*
X138626247Y-93338095D02*
X138864342Y-93338095D01*
X138864342Y-93338095D02*
X138959580Y-93385714D01*
X138959580Y-93385714D02*
X139007200Y-93433333D01*
X139007200Y-93433333D02*
X139054819Y-93528571D01*
X139054819Y-93528571D02*
X139054819Y-93766666D01*
X139054819Y-93766666D02*
X139007200Y-93861904D01*
X139007200Y-93861904D02*
X138959580Y-93909523D01*
X164933333Y-86840219D02*
X164600000Y-86364028D01*
X164361905Y-86840219D02*
X164361905Y-85840219D01*
X164361905Y-85840219D02*
X164742857Y-85840219D01*
X164742857Y-85840219D02*
X164838095Y-85887838D01*
X164838095Y-85887838D02*
X164885714Y-85935457D01*
X164885714Y-85935457D02*
X164933333Y-86030695D01*
X164933333Y-86030695D02*
X164933333Y-86173552D01*
X164933333Y-86173552D02*
X164885714Y-86268790D01*
X164885714Y-86268790D02*
X164838095Y-86316409D01*
X164838095Y-86316409D02*
X164742857Y-86364028D01*
X164742857Y-86364028D02*
X164361905Y-86364028D01*
X165790476Y-86173552D02*
X165790476Y-86840219D01*
X165552381Y-85792600D02*
X165314286Y-86506885D01*
X165314286Y-86506885D02*
X165933333Y-86506885D01*
X151781905Y-109454819D02*
X151781905Y-108454819D01*
X151781905Y-108454819D02*
X152020000Y-108454819D01*
X152020000Y-108454819D02*
X152162857Y-108502438D01*
X152162857Y-108502438D02*
X152258095Y-108597676D01*
X152258095Y-108597676D02*
X152305714Y-108692914D01*
X152305714Y-108692914D02*
X152353333Y-108883390D01*
X152353333Y-108883390D02*
X152353333Y-109026247D01*
X152353333Y-109026247D02*
X152305714Y-109216723D01*
X152305714Y-109216723D02*
X152258095Y-109311961D01*
X152258095Y-109311961D02*
X152162857Y-109407200D01*
X152162857Y-109407200D02*
X152020000Y-109454819D01*
X152020000Y-109454819D02*
X151781905Y-109454819D01*
X152686667Y-108454819D02*
X153353333Y-108454819D01*
X153353333Y-108454819D02*
X152924762Y-109454819D01*
X162233780Y-111767857D02*
X162281400Y-111815476D01*
X162281400Y-111815476D02*
X162329019Y-111958333D01*
X162329019Y-111958333D02*
X162329019Y-112053571D01*
X162329019Y-112053571D02*
X162281400Y-112196428D01*
X162281400Y-112196428D02*
X162186161Y-112291666D01*
X162186161Y-112291666D02*
X162090923Y-112339285D01*
X162090923Y-112339285D02*
X161900447Y-112386904D01*
X161900447Y-112386904D02*
X161757590Y-112386904D01*
X161757590Y-112386904D02*
X161567114Y-112339285D01*
X161567114Y-112339285D02*
X161471876Y-112291666D01*
X161471876Y-112291666D02*
X161376638Y-112196428D01*
X161376638Y-112196428D02*
X161329019Y-112053571D01*
X161329019Y-112053571D02*
X161329019Y-111958333D01*
X161329019Y-111958333D02*
X161376638Y-111815476D01*
X161376638Y-111815476D02*
X161424257Y-111767857D01*
X161424257Y-111386904D02*
X161376638Y-111339285D01*
X161376638Y-111339285D02*
X161329019Y-111244047D01*
X161329019Y-111244047D02*
X161329019Y-111005952D01*
X161329019Y-111005952D02*
X161376638Y-110910714D01*
X161376638Y-110910714D02*
X161424257Y-110863095D01*
X161424257Y-110863095D02*
X161519495Y-110815476D01*
X161519495Y-110815476D02*
X161614733Y-110815476D01*
X161614733Y-110815476D02*
X161757590Y-110863095D01*
X161757590Y-110863095D02*
X162329019Y-111434523D01*
X162329019Y-111434523D02*
X162329019Y-110815476D01*
X161757590Y-110244047D02*
X161709971Y-110339285D01*
X161709971Y-110339285D02*
X161662352Y-110386904D01*
X161662352Y-110386904D02*
X161567114Y-110434523D01*
X161567114Y-110434523D02*
X161519495Y-110434523D01*
X161519495Y-110434523D02*
X161424257Y-110386904D01*
X161424257Y-110386904D02*
X161376638Y-110339285D01*
X161376638Y-110339285D02*
X161329019Y-110244047D01*
X161329019Y-110244047D02*
X161329019Y-110053571D01*
X161329019Y-110053571D02*
X161376638Y-109958333D01*
X161376638Y-109958333D02*
X161424257Y-109910714D01*
X161424257Y-109910714D02*
X161519495Y-109863095D01*
X161519495Y-109863095D02*
X161567114Y-109863095D01*
X161567114Y-109863095D02*
X161662352Y-109910714D01*
X161662352Y-109910714D02*
X161709971Y-109958333D01*
X161709971Y-109958333D02*
X161757590Y-110053571D01*
X161757590Y-110053571D02*
X161757590Y-110244047D01*
X161757590Y-110244047D02*
X161805209Y-110339285D01*
X161805209Y-110339285D02*
X161852828Y-110386904D01*
X161852828Y-110386904D02*
X161948066Y-110434523D01*
X161948066Y-110434523D02*
X162138542Y-110434523D01*
X162138542Y-110434523D02*
X162233780Y-110386904D01*
X162233780Y-110386904D02*
X162281400Y-110339285D01*
X162281400Y-110339285D02*
X162329019Y-110244047D01*
X162329019Y-110244047D02*
X162329019Y-110053571D01*
X162329019Y-110053571D02*
X162281400Y-109958333D01*
X162281400Y-109958333D02*
X162233780Y-109910714D01*
X162233780Y-109910714D02*
X162138542Y-109863095D01*
X162138542Y-109863095D02*
X161948066Y-109863095D01*
X161948066Y-109863095D02*
X161852828Y-109910714D01*
X161852828Y-109910714D02*
X161805209Y-109958333D01*
X161805209Y-109958333D02*
X161757590Y-110053571D01*
X138209580Y-117766666D02*
X138257200Y-117814285D01*
X138257200Y-117814285D02*
X138304819Y-117957142D01*
X138304819Y-117957142D02*
X138304819Y-118052380D01*
X138304819Y-118052380D02*
X138257200Y-118195237D01*
X138257200Y-118195237D02*
X138161961Y-118290475D01*
X138161961Y-118290475D02*
X138066723Y-118338094D01*
X138066723Y-118338094D02*
X137876247Y-118385713D01*
X137876247Y-118385713D02*
X137733390Y-118385713D01*
X137733390Y-118385713D02*
X137542914Y-118338094D01*
X137542914Y-118338094D02*
X137447676Y-118290475D01*
X137447676Y-118290475D02*
X137352438Y-118195237D01*
X137352438Y-118195237D02*
X137304819Y-118052380D01*
X137304819Y-118052380D02*
X137304819Y-117957142D01*
X137304819Y-117957142D02*
X137352438Y-117814285D01*
X137352438Y-117814285D02*
X137400057Y-117766666D01*
X138304819Y-116814285D02*
X138304819Y-117385713D01*
X138304819Y-117099999D02*
X137304819Y-117099999D01*
X137304819Y-117099999D02*
X137447676Y-117195237D01*
X137447676Y-117195237D02*
X137542914Y-117290475D01*
X137542914Y-117290475D02*
X137590533Y-117385713D01*
X133557142Y-87059580D02*
X133509523Y-87107200D01*
X133509523Y-87107200D02*
X133366666Y-87154819D01*
X133366666Y-87154819D02*
X133271428Y-87154819D01*
X133271428Y-87154819D02*
X133128571Y-87107200D01*
X133128571Y-87107200D02*
X133033333Y-87011961D01*
X133033333Y-87011961D02*
X132985714Y-86916723D01*
X132985714Y-86916723D02*
X132938095Y-86726247D01*
X132938095Y-86726247D02*
X132938095Y-86583390D01*
X132938095Y-86583390D02*
X132985714Y-86392914D01*
X132985714Y-86392914D02*
X133033333Y-86297676D01*
X133033333Y-86297676D02*
X133128571Y-86202438D01*
X133128571Y-86202438D02*
X133271428Y-86154819D01*
X133271428Y-86154819D02*
X133366666Y-86154819D01*
X133366666Y-86154819D02*
X133509523Y-86202438D01*
X133509523Y-86202438D02*
X133557142Y-86250057D01*
X134509523Y-87154819D02*
X133938095Y-87154819D01*
X134223809Y-87154819D02*
X134223809Y-86154819D01*
X134223809Y-86154819D02*
X134128571Y-86297676D01*
X134128571Y-86297676D02*
X134033333Y-86392914D01*
X134033333Y-86392914D02*
X133938095Y-86440533D01*
X134890476Y-86250057D02*
X134938095Y-86202438D01*
X134938095Y-86202438D02*
X135033333Y-86154819D01*
X135033333Y-86154819D02*
X135271428Y-86154819D01*
X135271428Y-86154819D02*
X135366666Y-86202438D01*
X135366666Y-86202438D02*
X135414285Y-86250057D01*
X135414285Y-86250057D02*
X135461904Y-86345295D01*
X135461904Y-86345295D02*
X135461904Y-86440533D01*
X135461904Y-86440533D02*
X135414285Y-86583390D01*
X135414285Y-86583390D02*
X134842857Y-87154819D01*
X134842857Y-87154819D02*
X135461904Y-87154819D01*
X163522819Y-83442857D02*
X163046628Y-83776190D01*
X163522819Y-84014285D02*
X162522819Y-84014285D01*
X162522819Y-84014285D02*
X162522819Y-83633333D01*
X162522819Y-83633333D02*
X162570438Y-83538095D01*
X162570438Y-83538095D02*
X162618057Y-83490476D01*
X162618057Y-83490476D02*
X162713295Y-83442857D01*
X162713295Y-83442857D02*
X162856152Y-83442857D01*
X162856152Y-83442857D02*
X162951390Y-83490476D01*
X162951390Y-83490476D02*
X162999009Y-83538095D01*
X162999009Y-83538095D02*
X163046628Y-83633333D01*
X163046628Y-83633333D02*
X163046628Y-84014285D01*
X162618057Y-83061904D02*
X162570438Y-83014285D01*
X162570438Y-83014285D02*
X162522819Y-82919047D01*
X162522819Y-82919047D02*
X162522819Y-82680952D01*
X162522819Y-82680952D02*
X162570438Y-82585714D01*
X162570438Y-82585714D02*
X162618057Y-82538095D01*
X162618057Y-82538095D02*
X162713295Y-82490476D01*
X162713295Y-82490476D02*
X162808533Y-82490476D01*
X162808533Y-82490476D02*
X162951390Y-82538095D01*
X162951390Y-82538095D02*
X163522819Y-83109523D01*
X163522819Y-83109523D02*
X163522819Y-82490476D01*
X162522819Y-81871428D02*
X162522819Y-81776190D01*
X162522819Y-81776190D02*
X162570438Y-81680952D01*
X162570438Y-81680952D02*
X162618057Y-81633333D01*
X162618057Y-81633333D02*
X162713295Y-81585714D01*
X162713295Y-81585714D02*
X162903771Y-81538095D01*
X162903771Y-81538095D02*
X163141866Y-81538095D01*
X163141866Y-81538095D02*
X163332342Y-81585714D01*
X163332342Y-81585714D02*
X163427580Y-81633333D01*
X163427580Y-81633333D02*
X163475200Y-81680952D01*
X163475200Y-81680952D02*
X163522819Y-81776190D01*
X163522819Y-81776190D02*
X163522819Y-81871428D01*
X163522819Y-81871428D02*
X163475200Y-81966666D01*
X163475200Y-81966666D02*
X163427580Y-82014285D01*
X163427580Y-82014285D02*
X163332342Y-82061904D01*
X163332342Y-82061904D02*
X163141866Y-82109523D01*
X163141866Y-82109523D02*
X162903771Y-82109523D01*
X162903771Y-82109523D02*
X162713295Y-82061904D01*
X162713295Y-82061904D02*
X162618057Y-82014285D01*
X162618057Y-82014285D02*
X162570438Y-81966666D01*
X162570438Y-81966666D02*
X162522819Y-81871428D01*
D11*
X144304663Y-81816666D02*
X143828472Y-82049999D01*
X144304663Y-82216666D02*
X143304663Y-82216666D01*
X143304663Y-82216666D02*
X143304663Y-81949999D01*
X143304663Y-81949999D02*
X143352282Y-81883333D01*
X143352282Y-81883333D02*
X143399901Y-81849999D01*
X143399901Y-81849999D02*
X143495139Y-81816666D01*
X143495139Y-81816666D02*
X143637996Y-81816666D01*
X143637996Y-81816666D02*
X143733234Y-81849999D01*
X143733234Y-81849999D02*
X143780853Y-81883333D01*
X143780853Y-81883333D02*
X143828472Y-81949999D01*
X143828472Y-81949999D02*
X143828472Y-82216666D01*
X144304663Y-81483333D02*
X144304663Y-81349999D01*
X144304663Y-81349999D02*
X144257044Y-81283333D01*
X144257044Y-81283333D02*
X144209424Y-81249999D01*
X144209424Y-81249999D02*
X144066567Y-81183333D01*
X144066567Y-81183333D02*
X143876091Y-81149999D01*
X143876091Y-81149999D02*
X143495139Y-81149999D01*
X143495139Y-81149999D02*
X143399901Y-81183333D01*
X143399901Y-81183333D02*
X143352282Y-81216666D01*
X143352282Y-81216666D02*
X143304663Y-81283333D01*
X143304663Y-81283333D02*
X143304663Y-81416666D01*
X143304663Y-81416666D02*
X143352282Y-81483333D01*
X143352282Y-81483333D02*
X143399901Y-81516666D01*
X143399901Y-81516666D02*
X143495139Y-81549999D01*
X143495139Y-81549999D02*
X143733234Y-81549999D01*
X143733234Y-81549999D02*
X143828472Y-81516666D01*
X143828472Y-81516666D02*
X143876091Y-81483333D01*
X143876091Y-81483333D02*
X143923710Y-81416666D01*
X143923710Y-81416666D02*
X143923710Y-81283333D01*
X143923710Y-81283333D02*
X143876091Y-81216666D01*
X143876091Y-81216666D02*
X143828472Y-81183333D01*
X143828472Y-81183333D02*
X143733234Y-81149999D01*
D13*
X149454819Y-103742857D02*
X148978628Y-104076190D01*
X149454819Y-104314285D02*
X148454819Y-104314285D01*
X148454819Y-104314285D02*
X148454819Y-103933333D01*
X148454819Y-103933333D02*
X148502438Y-103838095D01*
X148502438Y-103838095D02*
X148550057Y-103790476D01*
X148550057Y-103790476D02*
X148645295Y-103742857D01*
X148645295Y-103742857D02*
X148788152Y-103742857D01*
X148788152Y-103742857D02*
X148883390Y-103790476D01*
X148883390Y-103790476D02*
X148931009Y-103838095D01*
X148931009Y-103838095D02*
X148978628Y-103933333D01*
X148978628Y-103933333D02*
X148978628Y-104314285D01*
X149454819Y-102790476D02*
X149454819Y-103361904D01*
X149454819Y-103076190D02*
X148454819Y-103076190D01*
X148454819Y-103076190D02*
X148597676Y-103171428D01*
X148597676Y-103171428D02*
X148692914Y-103266666D01*
X148692914Y-103266666D02*
X148740533Y-103361904D01*
X148788152Y-101933333D02*
X149454819Y-101933333D01*
X148407200Y-102171428D02*
X149121485Y-102409523D01*
X149121485Y-102409523D02*
X149121485Y-101790476D01*
X158550780Y-98535457D02*
X158598400Y-98583076D01*
X158598400Y-98583076D02*
X158646019Y-98725933D01*
X158646019Y-98725933D02*
X158646019Y-98821171D01*
X158646019Y-98821171D02*
X158598400Y-98964028D01*
X158598400Y-98964028D02*
X158503161Y-99059266D01*
X158503161Y-99059266D02*
X158407923Y-99106885D01*
X158407923Y-99106885D02*
X158217447Y-99154504D01*
X158217447Y-99154504D02*
X158074590Y-99154504D01*
X158074590Y-99154504D02*
X157884114Y-99106885D01*
X157884114Y-99106885D02*
X157788876Y-99059266D01*
X157788876Y-99059266D02*
X157693638Y-98964028D01*
X157693638Y-98964028D02*
X157646019Y-98821171D01*
X157646019Y-98821171D02*
X157646019Y-98725933D01*
X157646019Y-98725933D02*
X157693638Y-98583076D01*
X157693638Y-98583076D02*
X157741257Y-98535457D01*
X157741257Y-98154504D02*
X157693638Y-98106885D01*
X157693638Y-98106885D02*
X157646019Y-98011647D01*
X157646019Y-98011647D02*
X157646019Y-97773552D01*
X157646019Y-97773552D02*
X157693638Y-97678314D01*
X157693638Y-97678314D02*
X157741257Y-97630695D01*
X157741257Y-97630695D02*
X157836495Y-97583076D01*
X157836495Y-97583076D02*
X157931733Y-97583076D01*
X157931733Y-97583076D02*
X158074590Y-97630695D01*
X158074590Y-97630695D02*
X158646019Y-98202123D01*
X158646019Y-98202123D02*
X158646019Y-97583076D01*
X157741257Y-97202123D02*
X157693638Y-97154504D01*
X157693638Y-97154504D02*
X157646019Y-97059266D01*
X157646019Y-97059266D02*
X157646019Y-96821171D01*
X157646019Y-96821171D02*
X157693638Y-96725933D01*
X157693638Y-96725933D02*
X157741257Y-96678314D01*
X157741257Y-96678314D02*
X157836495Y-96630695D01*
X157836495Y-96630695D02*
X157931733Y-96630695D01*
X157931733Y-96630695D02*
X158074590Y-96678314D01*
X158074590Y-96678314D02*
X158646019Y-97249742D01*
X158646019Y-97249742D02*
X158646019Y-96630695D01*
X133557142Y-83259580D02*
X133509523Y-83307200D01*
X133509523Y-83307200D02*
X133366666Y-83354819D01*
X133366666Y-83354819D02*
X133271428Y-83354819D01*
X133271428Y-83354819D02*
X133128571Y-83307200D01*
X133128571Y-83307200D02*
X133033333Y-83211961D01*
X133033333Y-83211961D02*
X132985714Y-83116723D01*
X132985714Y-83116723D02*
X132938095Y-82926247D01*
X132938095Y-82926247D02*
X132938095Y-82783390D01*
X132938095Y-82783390D02*
X132985714Y-82592914D01*
X132985714Y-82592914D02*
X133033333Y-82497676D01*
X133033333Y-82497676D02*
X133128571Y-82402438D01*
X133128571Y-82402438D02*
X133271428Y-82354819D01*
X133271428Y-82354819D02*
X133366666Y-82354819D01*
X133366666Y-82354819D02*
X133509523Y-82402438D01*
X133509523Y-82402438D02*
X133557142Y-82450057D01*
X134509523Y-83354819D02*
X133938095Y-83354819D01*
X134223809Y-83354819D02*
X134223809Y-82354819D01*
X134223809Y-82354819D02*
X134128571Y-82497676D01*
X134128571Y-82497676D02*
X134033333Y-82592914D01*
X134033333Y-82592914D02*
X133938095Y-82640533D01*
X135128571Y-82354819D02*
X135223809Y-82354819D01*
X135223809Y-82354819D02*
X135319047Y-82402438D01*
X135319047Y-82402438D02*
X135366666Y-82450057D01*
X135366666Y-82450057D02*
X135414285Y-82545295D01*
X135414285Y-82545295D02*
X135461904Y-82735771D01*
X135461904Y-82735771D02*
X135461904Y-82973866D01*
X135461904Y-82973866D02*
X135414285Y-83164342D01*
X135414285Y-83164342D02*
X135366666Y-83259580D01*
X135366666Y-83259580D02*
X135319047Y-83307200D01*
X135319047Y-83307200D02*
X135223809Y-83354819D01*
X135223809Y-83354819D02*
X135128571Y-83354819D01*
X135128571Y-83354819D02*
X135033333Y-83307200D01*
X135033333Y-83307200D02*
X134985714Y-83259580D01*
X134985714Y-83259580D02*
X134938095Y-83164342D01*
X134938095Y-83164342D02*
X134890476Y-82973866D01*
X134890476Y-82973866D02*
X134890476Y-82735771D01*
X134890476Y-82735771D02*
X134938095Y-82545295D01*
X134938095Y-82545295D02*
X134985714Y-82450057D01*
X134985714Y-82450057D02*
X135033333Y-82402438D01*
X135033333Y-82402438D02*
X135128571Y-82354819D01*
X139733333Y-102854819D02*
X139400000Y-102378628D01*
X139161905Y-102854819D02*
X139161905Y-101854819D01*
X139161905Y-101854819D02*
X139542857Y-101854819D01*
X139542857Y-101854819D02*
X139638095Y-101902438D01*
X139638095Y-101902438D02*
X139685714Y-101950057D01*
X139685714Y-101950057D02*
X139733333Y-102045295D01*
X139733333Y-102045295D02*
X139733333Y-102188152D01*
X139733333Y-102188152D02*
X139685714Y-102283390D01*
X139685714Y-102283390D02*
X139638095Y-102331009D01*
X139638095Y-102331009D02*
X139542857Y-102378628D01*
X139542857Y-102378628D02*
X139161905Y-102378628D01*
X140114286Y-101950057D02*
X140161905Y-101902438D01*
X140161905Y-101902438D02*
X140257143Y-101854819D01*
X140257143Y-101854819D02*
X140495238Y-101854819D01*
X140495238Y-101854819D02*
X140590476Y-101902438D01*
X140590476Y-101902438D02*
X140638095Y-101950057D01*
X140638095Y-101950057D02*
X140685714Y-102045295D01*
X140685714Y-102045295D02*
X140685714Y-102140533D01*
X140685714Y-102140533D02*
X140638095Y-102283390D01*
X140638095Y-102283390D02*
X140066667Y-102854819D01*
X140066667Y-102854819D02*
X140685714Y-102854819D01*
X168216342Y-93831580D02*
X168168723Y-93879200D01*
X168168723Y-93879200D02*
X168025866Y-93926819D01*
X168025866Y-93926819D02*
X167930628Y-93926819D01*
X167930628Y-93926819D02*
X167787771Y-93879200D01*
X167787771Y-93879200D02*
X167692533Y-93783961D01*
X167692533Y-93783961D02*
X167644914Y-93688723D01*
X167644914Y-93688723D02*
X167597295Y-93498247D01*
X167597295Y-93498247D02*
X167597295Y-93355390D01*
X167597295Y-93355390D02*
X167644914Y-93164914D01*
X167644914Y-93164914D02*
X167692533Y-93069676D01*
X167692533Y-93069676D02*
X167787771Y-92974438D01*
X167787771Y-92974438D02*
X167930628Y-92926819D01*
X167930628Y-92926819D02*
X168025866Y-92926819D01*
X168025866Y-92926819D02*
X168168723Y-92974438D01*
X168168723Y-92974438D02*
X168216342Y-93022057D01*
X168549676Y-92926819D02*
X169168723Y-92926819D01*
X169168723Y-92926819D02*
X168835390Y-93307771D01*
X168835390Y-93307771D02*
X168978247Y-93307771D01*
X168978247Y-93307771D02*
X169073485Y-93355390D01*
X169073485Y-93355390D02*
X169121104Y-93403009D01*
X169121104Y-93403009D02*
X169168723Y-93498247D01*
X169168723Y-93498247D02*
X169168723Y-93736342D01*
X169168723Y-93736342D02*
X169121104Y-93831580D01*
X169121104Y-93831580D02*
X169073485Y-93879200D01*
X169073485Y-93879200D02*
X168978247Y-93926819D01*
X168978247Y-93926819D02*
X168692533Y-93926819D01*
X168692533Y-93926819D02*
X168597295Y-93879200D01*
X168597295Y-93879200D02*
X168549676Y-93831580D01*
X169549676Y-93022057D02*
X169597295Y-92974438D01*
X169597295Y-92974438D02*
X169692533Y-92926819D01*
X169692533Y-92926819D02*
X169930628Y-92926819D01*
X169930628Y-92926819D02*
X170025866Y-92974438D01*
X170025866Y-92974438D02*
X170073485Y-93022057D01*
X170073485Y-93022057D02*
X170121104Y-93117295D01*
X170121104Y-93117295D02*
X170121104Y-93212533D01*
X170121104Y-93212533D02*
X170073485Y-93355390D01*
X170073485Y-93355390D02*
X169502057Y-93926819D01*
X169502057Y-93926819D02*
X170121104Y-93926819D01*
D11*
X143609424Y-79900000D02*
X143657044Y-79933333D01*
X143657044Y-79933333D02*
X143704663Y-80033333D01*
X143704663Y-80033333D02*
X143704663Y-80100000D01*
X143704663Y-80100000D02*
X143657044Y-80200000D01*
X143657044Y-80200000D02*
X143561805Y-80266667D01*
X143561805Y-80266667D02*
X143466567Y-80300000D01*
X143466567Y-80300000D02*
X143276091Y-80333333D01*
X143276091Y-80333333D02*
X143133234Y-80333333D01*
X143133234Y-80333333D02*
X142942758Y-80300000D01*
X142942758Y-80300000D02*
X142847520Y-80266667D01*
X142847520Y-80266667D02*
X142752282Y-80200000D01*
X142752282Y-80200000D02*
X142704663Y-80100000D01*
X142704663Y-80100000D02*
X142704663Y-80033333D01*
X142704663Y-80033333D02*
X142752282Y-79933333D01*
X142752282Y-79933333D02*
X142799901Y-79900000D01*
X142799901Y-79633333D02*
X142752282Y-79600000D01*
X142752282Y-79600000D02*
X142704663Y-79533333D01*
X142704663Y-79533333D02*
X142704663Y-79366667D01*
X142704663Y-79366667D02*
X142752282Y-79300000D01*
X142752282Y-79300000D02*
X142799901Y-79266667D01*
X142799901Y-79266667D02*
X142895139Y-79233333D01*
X142895139Y-79233333D02*
X142990377Y-79233333D01*
X142990377Y-79233333D02*
X143133234Y-79266667D01*
X143133234Y-79266667D02*
X143704663Y-79666667D01*
X143704663Y-79666667D02*
X143704663Y-79233333D01*
X142704663Y-78800000D02*
X142704663Y-78733333D01*
X142704663Y-78733333D02*
X142752282Y-78666666D01*
X142752282Y-78666666D02*
X142799901Y-78633333D01*
X142799901Y-78633333D02*
X142895139Y-78600000D01*
X142895139Y-78600000D02*
X143085615Y-78566666D01*
X143085615Y-78566666D02*
X143323710Y-78566666D01*
X143323710Y-78566666D02*
X143514186Y-78600000D01*
X143514186Y-78600000D02*
X143609424Y-78633333D01*
X143609424Y-78633333D02*
X143657044Y-78666666D01*
X143657044Y-78666666D02*
X143704663Y-78733333D01*
X143704663Y-78733333D02*
X143704663Y-78800000D01*
X143704663Y-78800000D02*
X143657044Y-78866666D01*
X143657044Y-78866666D02*
X143609424Y-78900000D01*
X143609424Y-78900000D02*
X143514186Y-78933333D01*
X143514186Y-78933333D02*
X143323710Y-78966666D01*
X143323710Y-78966666D02*
X143085615Y-78966666D01*
X143085615Y-78966666D02*
X142895139Y-78933333D01*
X142895139Y-78933333D02*
X142799901Y-78900000D01*
X142799901Y-78900000D02*
X142752282Y-78866666D01*
X142752282Y-78866666D02*
X142704663Y-78800000D01*
D13*
X148581819Y-115494666D02*
X148105628Y-115827999D01*
X148581819Y-116066094D02*
X147581819Y-116066094D01*
X147581819Y-116066094D02*
X147581819Y-115685142D01*
X147581819Y-115685142D02*
X147629438Y-115589904D01*
X147629438Y-115589904D02*
X147677057Y-115542285D01*
X147677057Y-115542285D02*
X147772295Y-115494666D01*
X147772295Y-115494666D02*
X147915152Y-115494666D01*
X147915152Y-115494666D02*
X148010390Y-115542285D01*
X148010390Y-115542285D02*
X148058009Y-115589904D01*
X148058009Y-115589904D02*
X148105628Y-115685142D01*
X148105628Y-115685142D02*
X148105628Y-116066094D01*
X147581819Y-115161332D02*
X147581819Y-114542285D01*
X147581819Y-114542285D02*
X147962771Y-114875618D01*
X147962771Y-114875618D02*
X147962771Y-114732761D01*
X147962771Y-114732761D02*
X148010390Y-114637523D01*
X148010390Y-114637523D02*
X148058009Y-114589904D01*
X148058009Y-114589904D02*
X148153247Y-114542285D01*
X148153247Y-114542285D02*
X148391342Y-114542285D01*
X148391342Y-114542285D02*
X148486580Y-114589904D01*
X148486580Y-114589904D02*
X148534200Y-114637523D01*
X148534200Y-114637523D02*
X148581819Y-114732761D01*
X148581819Y-114732761D02*
X148581819Y-115018475D01*
X148581819Y-115018475D02*
X148534200Y-115113713D01*
X148534200Y-115113713D02*
X148486580Y-115161332D01*
X167807142Y-78909580D02*
X167759523Y-78957200D01*
X167759523Y-78957200D02*
X167616666Y-79004819D01*
X167616666Y-79004819D02*
X167521428Y-79004819D01*
X167521428Y-79004819D02*
X167378571Y-78957200D01*
X167378571Y-78957200D02*
X167283333Y-78861961D01*
X167283333Y-78861961D02*
X167235714Y-78766723D01*
X167235714Y-78766723D02*
X167188095Y-78576247D01*
X167188095Y-78576247D02*
X167188095Y-78433390D01*
X167188095Y-78433390D02*
X167235714Y-78242914D01*
X167235714Y-78242914D02*
X167283333Y-78147676D01*
X167283333Y-78147676D02*
X167378571Y-78052438D01*
X167378571Y-78052438D02*
X167521428Y-78004819D01*
X167521428Y-78004819D02*
X167616666Y-78004819D01*
X167616666Y-78004819D02*
X167759523Y-78052438D01*
X167759523Y-78052438D02*
X167807142Y-78100057D01*
X168188095Y-78100057D02*
X168235714Y-78052438D01*
X168235714Y-78052438D02*
X168330952Y-78004819D01*
X168330952Y-78004819D02*
X168569047Y-78004819D01*
X168569047Y-78004819D02*
X168664285Y-78052438D01*
X168664285Y-78052438D02*
X168711904Y-78100057D01*
X168711904Y-78100057D02*
X168759523Y-78195295D01*
X168759523Y-78195295D02*
X168759523Y-78290533D01*
X168759523Y-78290533D02*
X168711904Y-78433390D01*
X168711904Y-78433390D02*
X168140476Y-79004819D01*
X168140476Y-79004819D02*
X168759523Y-79004819D01*
X169711904Y-79004819D02*
X169140476Y-79004819D01*
X169426190Y-79004819D02*
X169426190Y-78004819D01*
X169426190Y-78004819D02*
X169330952Y-78147676D01*
X169330952Y-78147676D02*
X169235714Y-78242914D01*
X169235714Y-78242914D02*
X169140476Y-78290533D01*
X139733333Y-103991580D02*
X139685714Y-104039200D01*
X139685714Y-104039200D02*
X139542857Y-104086819D01*
X139542857Y-104086819D02*
X139447619Y-104086819D01*
X139447619Y-104086819D02*
X139304762Y-104039200D01*
X139304762Y-104039200D02*
X139209524Y-103943961D01*
X139209524Y-103943961D02*
X139161905Y-103848723D01*
X139161905Y-103848723D02*
X139114286Y-103658247D01*
X139114286Y-103658247D02*
X139114286Y-103515390D01*
X139114286Y-103515390D02*
X139161905Y-103324914D01*
X139161905Y-103324914D02*
X139209524Y-103229676D01*
X139209524Y-103229676D02*
X139304762Y-103134438D01*
X139304762Y-103134438D02*
X139447619Y-103086819D01*
X139447619Y-103086819D02*
X139542857Y-103086819D01*
X139542857Y-103086819D02*
X139685714Y-103134438D01*
X139685714Y-103134438D02*
X139733333Y-103182057D01*
X140114286Y-103182057D02*
X140161905Y-103134438D01*
X140161905Y-103134438D02*
X140257143Y-103086819D01*
X140257143Y-103086819D02*
X140495238Y-103086819D01*
X140495238Y-103086819D02*
X140590476Y-103134438D01*
X140590476Y-103134438D02*
X140638095Y-103182057D01*
X140638095Y-103182057D02*
X140685714Y-103277295D01*
X140685714Y-103277295D02*
X140685714Y-103372533D01*
X140685714Y-103372533D02*
X140638095Y-103515390D01*
X140638095Y-103515390D02*
X140066667Y-104086819D01*
X140066667Y-104086819D02*
X140685714Y-104086819D01*
X170354819Y-82242857D02*
X169878628Y-82576190D01*
X170354819Y-82814285D02*
X169354819Y-82814285D01*
X169354819Y-82814285D02*
X169354819Y-82433333D01*
X169354819Y-82433333D02*
X169402438Y-82338095D01*
X169402438Y-82338095D02*
X169450057Y-82290476D01*
X169450057Y-82290476D02*
X169545295Y-82242857D01*
X169545295Y-82242857D02*
X169688152Y-82242857D01*
X169688152Y-82242857D02*
X169783390Y-82290476D01*
X169783390Y-82290476D02*
X169831009Y-82338095D01*
X169831009Y-82338095D02*
X169878628Y-82433333D01*
X169878628Y-82433333D02*
X169878628Y-82814285D01*
X170354819Y-81290476D02*
X170354819Y-81861904D01*
X170354819Y-81576190D02*
X169354819Y-81576190D01*
X169354819Y-81576190D02*
X169497676Y-81671428D01*
X169497676Y-81671428D02*
X169592914Y-81766666D01*
X169592914Y-81766666D02*
X169640533Y-81861904D01*
X169354819Y-80433333D02*
X169354819Y-80623809D01*
X169354819Y-80623809D02*
X169402438Y-80719047D01*
X169402438Y-80719047D02*
X169450057Y-80766666D01*
X169450057Y-80766666D02*
X169592914Y-80861904D01*
X169592914Y-80861904D02*
X169783390Y-80909523D01*
X169783390Y-80909523D02*
X170164342Y-80909523D01*
X170164342Y-80909523D02*
X170259580Y-80861904D01*
X170259580Y-80861904D02*
X170307200Y-80814285D01*
X170307200Y-80814285D02*
X170354819Y-80719047D01*
X170354819Y-80719047D02*
X170354819Y-80528571D01*
X170354819Y-80528571D02*
X170307200Y-80433333D01*
X170307200Y-80433333D02*
X170259580Y-80385714D01*
X170259580Y-80385714D02*
X170164342Y-80338095D01*
X170164342Y-80338095D02*
X169926247Y-80338095D01*
X169926247Y-80338095D02*
X169831009Y-80385714D01*
X169831009Y-80385714D02*
X169783390Y-80433333D01*
X169783390Y-80433333D02*
X169735771Y-80528571D01*
X169735771Y-80528571D02*
X169735771Y-80719047D01*
X169735771Y-80719047D02*
X169783390Y-80814285D01*
X169783390Y-80814285D02*
X169831009Y-80861904D01*
X169831009Y-80861904D02*
X169926247Y-80909523D01*
X137158333Y-112048080D02*
X137110714Y-112095700D01*
X137110714Y-112095700D02*
X136967857Y-112143319D01*
X136967857Y-112143319D02*
X136872619Y-112143319D01*
X136872619Y-112143319D02*
X136729762Y-112095700D01*
X136729762Y-112095700D02*
X136634524Y-112000461D01*
X136634524Y-112000461D02*
X136586905Y-111905223D01*
X136586905Y-111905223D02*
X136539286Y-111714747D01*
X136539286Y-111714747D02*
X136539286Y-111571890D01*
X136539286Y-111571890D02*
X136586905Y-111381414D01*
X136586905Y-111381414D02*
X136634524Y-111286176D01*
X136634524Y-111286176D02*
X136729762Y-111190938D01*
X136729762Y-111190938D02*
X136872619Y-111143319D01*
X136872619Y-111143319D02*
X136967857Y-111143319D01*
X136967857Y-111143319D02*
X137110714Y-111190938D01*
X137110714Y-111190938D02*
X137158333Y-111238557D01*
X137729762Y-111571890D02*
X137634524Y-111524271D01*
X137634524Y-111524271D02*
X137586905Y-111476652D01*
X137586905Y-111476652D02*
X137539286Y-111381414D01*
X137539286Y-111381414D02*
X137539286Y-111333795D01*
X137539286Y-111333795D02*
X137586905Y-111238557D01*
X137586905Y-111238557D02*
X137634524Y-111190938D01*
X137634524Y-111190938D02*
X137729762Y-111143319D01*
X137729762Y-111143319D02*
X137920238Y-111143319D01*
X137920238Y-111143319D02*
X138015476Y-111190938D01*
X138015476Y-111190938D02*
X138063095Y-111238557D01*
X138063095Y-111238557D02*
X138110714Y-111333795D01*
X138110714Y-111333795D02*
X138110714Y-111381414D01*
X138110714Y-111381414D02*
X138063095Y-111476652D01*
X138063095Y-111476652D02*
X138015476Y-111524271D01*
X138015476Y-111524271D02*
X137920238Y-111571890D01*
X137920238Y-111571890D02*
X137729762Y-111571890D01*
X137729762Y-111571890D02*
X137634524Y-111619509D01*
X137634524Y-111619509D02*
X137586905Y-111667128D01*
X137586905Y-111667128D02*
X137539286Y-111762366D01*
X137539286Y-111762366D02*
X137539286Y-111952842D01*
X137539286Y-111952842D02*
X137586905Y-112048080D01*
X137586905Y-112048080D02*
X137634524Y-112095700D01*
X137634524Y-112095700D02*
X137729762Y-112143319D01*
X137729762Y-112143319D02*
X137920238Y-112143319D01*
X137920238Y-112143319D02*
X138015476Y-112095700D01*
X138015476Y-112095700D02*
X138063095Y-112048080D01*
X138063095Y-112048080D02*
X138110714Y-111952842D01*
X138110714Y-111952842D02*
X138110714Y-111762366D01*
X138110714Y-111762366D02*
X138063095Y-111667128D01*
X138063095Y-111667128D02*
X138015476Y-111619509D01*
X138015476Y-111619509D02*
X137920238Y-111571890D01*
X168536905Y-112629819D02*
X168536905Y-111629819D01*
X168536905Y-111629819D02*
X168775000Y-111629819D01*
X168775000Y-111629819D02*
X168917857Y-111677438D01*
X168917857Y-111677438D02*
X169013095Y-111772676D01*
X169013095Y-111772676D02*
X169060714Y-111867914D01*
X169060714Y-111867914D02*
X169108333Y-112058390D01*
X169108333Y-112058390D02*
X169108333Y-112201247D01*
X169108333Y-112201247D02*
X169060714Y-112391723D01*
X169060714Y-112391723D02*
X169013095Y-112486961D01*
X169013095Y-112486961D02*
X168917857Y-112582200D01*
X168917857Y-112582200D02*
X168775000Y-112629819D01*
X168775000Y-112629819D02*
X168536905Y-112629819D01*
X170013095Y-111629819D02*
X169536905Y-111629819D01*
X169536905Y-111629819D02*
X169489286Y-112106009D01*
X169489286Y-112106009D02*
X169536905Y-112058390D01*
X169536905Y-112058390D02*
X169632143Y-112010771D01*
X169632143Y-112010771D02*
X169870238Y-112010771D01*
X169870238Y-112010771D02*
X169965476Y-112058390D01*
X169965476Y-112058390D02*
X170013095Y-112106009D01*
X170013095Y-112106009D02*
X170060714Y-112201247D01*
X170060714Y-112201247D02*
X170060714Y-112439342D01*
X170060714Y-112439342D02*
X170013095Y-112534580D01*
X170013095Y-112534580D02*
X169965476Y-112582200D01*
X169965476Y-112582200D02*
X169870238Y-112629819D01*
X169870238Y-112629819D02*
X169632143Y-112629819D01*
X169632143Y-112629819D02*
X169536905Y-112582200D01*
X169536905Y-112582200D02*
X169489286Y-112534580D01*
X151454819Y-117142857D02*
X150978628Y-117476190D01*
X151454819Y-117714285D02*
X150454819Y-117714285D01*
X150454819Y-117714285D02*
X150454819Y-117333333D01*
X150454819Y-117333333D02*
X150502438Y-117238095D01*
X150502438Y-117238095D02*
X150550057Y-117190476D01*
X150550057Y-117190476D02*
X150645295Y-117142857D01*
X150645295Y-117142857D02*
X150788152Y-117142857D01*
X150788152Y-117142857D02*
X150883390Y-117190476D01*
X150883390Y-117190476D02*
X150931009Y-117238095D01*
X150931009Y-117238095D02*
X150978628Y-117333333D01*
X150978628Y-117333333D02*
X150978628Y-117714285D01*
X151454819Y-116190476D02*
X151454819Y-116761904D01*
X151454819Y-116476190D02*
X150454819Y-116476190D01*
X150454819Y-116476190D02*
X150597676Y-116571428D01*
X150597676Y-116571428D02*
X150692914Y-116666666D01*
X150692914Y-116666666D02*
X150740533Y-116761904D01*
X150454819Y-115857142D02*
X150454819Y-115190476D01*
X150454819Y-115190476D02*
X151454819Y-115619047D01*
X168926542Y-92181780D02*
X168878923Y-92229400D01*
X168878923Y-92229400D02*
X168736066Y-92277019D01*
X168736066Y-92277019D02*
X168640828Y-92277019D01*
X168640828Y-92277019D02*
X168497971Y-92229400D01*
X168497971Y-92229400D02*
X168402733Y-92134161D01*
X168402733Y-92134161D02*
X168355114Y-92038923D01*
X168355114Y-92038923D02*
X168307495Y-91848447D01*
X168307495Y-91848447D02*
X168307495Y-91705590D01*
X168307495Y-91705590D02*
X168355114Y-91515114D01*
X168355114Y-91515114D02*
X168402733Y-91419876D01*
X168402733Y-91419876D02*
X168497971Y-91324638D01*
X168497971Y-91324638D02*
X168640828Y-91277019D01*
X168640828Y-91277019D02*
X168736066Y-91277019D01*
X168736066Y-91277019D02*
X168878923Y-91324638D01*
X168878923Y-91324638D02*
X168926542Y-91372257D01*
X169878923Y-92277019D02*
X169307495Y-92277019D01*
X169593209Y-92277019D02*
X169593209Y-91277019D01*
X169593209Y-91277019D02*
X169497971Y-91419876D01*
X169497971Y-91419876D02*
X169402733Y-91515114D01*
X169402733Y-91515114D02*
X169307495Y-91562733D01*
X170736066Y-91610352D02*
X170736066Y-92277019D01*
X170497971Y-91229400D02*
X170259876Y-91943685D01*
X170259876Y-91943685D02*
X170878923Y-91943685D01*
X173632019Y-96769047D02*
X173632019Y-97245237D01*
X173632019Y-97245237D02*
X172632019Y-97245237D01*
X173108209Y-96435713D02*
X173108209Y-96102380D01*
X173632019Y-95959523D02*
X173632019Y-96435713D01*
X173632019Y-96435713D02*
X172632019Y-96435713D01*
X172632019Y-96435713D02*
X172632019Y-95959523D01*
X173632019Y-95530951D02*
X172632019Y-95530951D01*
X172632019Y-95530951D02*
X172632019Y-95292856D01*
X172632019Y-95292856D02*
X172679638Y-95149999D01*
X172679638Y-95149999D02*
X172774876Y-95054761D01*
X172774876Y-95054761D02*
X172870114Y-95007142D01*
X172870114Y-95007142D02*
X173060590Y-94959523D01*
X173060590Y-94959523D02*
X173203447Y-94959523D01*
X173203447Y-94959523D02*
X173393923Y-95007142D01*
X173393923Y-95007142D02*
X173489161Y-95054761D01*
X173489161Y-95054761D02*
X173584400Y-95149999D01*
X173584400Y-95149999D02*
X173632019Y-95292856D01*
X173632019Y-95292856D02*
X173632019Y-95530951D01*
X173632019Y-94007142D02*
X173632019Y-94578570D01*
X173632019Y-94292856D02*
X172632019Y-94292856D01*
X172632019Y-94292856D02*
X172774876Y-94388094D01*
X172774876Y-94388094D02*
X172870114Y-94483332D01*
X172870114Y-94483332D02*
X172917733Y-94578570D01*
%TO.C,R21*%
X165176000Y-95893000D02*
X165886000Y-95893000D01*
X165176000Y-96893000D02*
X165176000Y-95893000D01*
X165886000Y-96893000D02*
X165176000Y-96893000D01*
X166346000Y-96893000D02*
X167056000Y-96893000D01*
X167056000Y-95893000D02*
X166346000Y-95893000D01*
X167056000Y-96893000D02*
X167056000Y-95893000D01*
D14*
%TO.C,LED2*%
X133670000Y-78608000D02*
X134050000Y-78228000D01*
X133670000Y-79878000D02*
X133670000Y-78608000D01*
X134050000Y-78228000D02*
X135570000Y-78228000D01*
X134080000Y-80288000D02*
X133670000Y-79878000D01*
X135550000Y-80288000D02*
X134080000Y-80288000D01*
X135590000Y-79248000D02*
X135690000Y-79348000D01*
X135690000Y-79148000D02*
X135590000Y-79248000D01*
X135690000Y-79348000D02*
X136090000Y-79748000D01*
X136090000Y-78748000D02*
X135690000Y-79148000D01*
X136090000Y-78748000D02*
X136090000Y-79748000D01*
X136340000Y-80268000D02*
X137890000Y-80268000D01*
X137890000Y-78228000D02*
X136340000Y-78228000D01*
X137890000Y-80268000D02*
X137890000Y-78228000D01*
D11*
%TO.C,J2*%
X178124000Y-98552000D02*
X178124000Y-99568000D01*
X178124000Y-99568000D02*
X178632000Y-99568000D01*
X178124000Y-101092000D02*
X178124000Y-102108000D01*
X178124000Y-102108000D02*
X178632000Y-102108000D01*
X178124000Y-103632000D02*
X178124000Y-104648000D01*
X178124000Y-104648000D02*
X178632000Y-104648000D01*
X178632000Y-98552000D02*
X178124000Y-98552000D01*
X178632000Y-101092000D02*
X178124000Y-101092000D01*
X178632000Y-103632000D02*
X178124000Y-103632000D01*
X173460000Y-97550000D02*
X179740000Y-97550000D01*
X179740000Y-105650000D01*
X173460000Y-105650000D01*
X173460000Y-97550000D01*
%TO.C,J1*%
X178047000Y-111722000D02*
X178047000Y-112738000D01*
X178047000Y-112738000D02*
X178555000Y-112738000D01*
X178047000Y-114262000D02*
X178047000Y-115278000D01*
X178047000Y-115278000D02*
X178555000Y-115278000D01*
X178555000Y-111722000D02*
X178047000Y-111722000D01*
X178555000Y-114262000D02*
X178047000Y-114262000D01*
X179790000Y-116280000D02*
X173510000Y-116280000D01*
X173510000Y-110720000D01*
X179790000Y-110720000D01*
X179790000Y-116280000D01*
D14*
%TO.C,C33*%
X157557400Y-108025600D02*
X157557400Y-107225600D01*
X157557400Y-108585600D02*
X157557400Y-109385600D01*
X157867400Y-106915600D02*
X158667400Y-106915600D01*
X158667400Y-109695600D02*
X157867400Y-109695600D01*
X158977400Y-108025600D02*
X158977400Y-107225600D01*
X158977400Y-108585600D02*
X158977400Y-109385600D01*
X157557400Y-107225600D02*
G75*
G02*
X157867400Y-106915600I310000J0D01*
G01*
X157867400Y-109695600D02*
G75*
G02*
X157557400Y-109385600I0J310000D01*
G01*
X158667400Y-106915600D02*
G75*
G02*
X158977400Y-107225600I0J-310000D01*
G01*
X158977400Y-109385600D02*
G75*
G02*
X158667400Y-109695600I-310000J0D01*
G01*
%TO.C,C9*%
X139110000Y-113700000D02*
X139110000Y-112900000D01*
X140220000Y-112590000D02*
X139420000Y-112590000D01*
X140220000Y-114010000D02*
X139420000Y-114010000D01*
X140780000Y-112590000D02*
X141580000Y-112590000D01*
X140780000Y-114010000D02*
X141580000Y-114010000D01*
X141890000Y-112900000D02*
X141890000Y-113700000D01*
X139110000Y-112900000D02*
G75*
G02*
X139420000Y-112590000I310000J0D01*
G01*
X139420000Y-114010000D02*
G75*
G02*
X139110000Y-113700000I0J310000D01*
G01*
X141580000Y-112590000D02*
G75*
G02*
X141890000Y-112900000I0J-310000D01*
G01*
X141890000Y-113700000D02*
G75*
G02*
X141580000Y-114010000I-310000J0D01*
G01*
%TO.C,USBC1*%
X125432500Y-97064000D02*
X126912500Y-97064000D01*
X125432500Y-106004000D02*
X125432500Y-97064000D01*
X125432500Y-106004000D02*
X126912500Y-106004000D01*
X129152500Y-97064000D02*
X131012500Y-97064000D01*
X129152500Y-106004000D02*
X131012500Y-106004000D01*
%TO.C,U4*%
X144700000Y-74350000D02*
X160200000Y-74350000D01*
X144700000Y-89800000D02*
X144700000Y-74350000D01*
X160200000Y-74350000D02*
X160200000Y-89800000D01*
X160200000Y-74525000D02*
X160200000Y-74350000D01*
X160200000Y-89800000D02*
X144700000Y-89800000D01*
X144340000Y-75800000D02*
G75*
G02*
X144060000Y-75800000I-140000J0D01*
G01*
X144060000Y-75800000D02*
G75*
G02*
X144340000Y-75800000I140000J0D01*
G01*
%TO.C,IC1*%
X160900000Y-99110000D02*
X160900000Y-99500000D01*
X160900000Y-103710000D02*
X160900000Y-104100000D01*
X160900000Y-104100000D02*
X161200000Y-104100000D01*
X161200000Y-99110000D02*
X160900000Y-99110000D01*
X167600000Y-104100000D02*
X167900000Y-104100000D01*
X167900000Y-99100000D02*
X167600000Y-99100000D01*
X167900000Y-99500000D02*
X167900000Y-99100000D01*
X167900000Y-104100000D02*
X167900000Y-103710000D01*
X161880000Y-104690000D02*
G75*
G02*
X161640000Y-104690000I-120000J0D01*
G01*
X161640000Y-104690000D02*
G75*
G02*
X161880000Y-104690000I120000J0D01*
G01*
%TO.C,C19*%
X141022000Y-76428000D02*
X141022000Y-75628000D01*
X141022000Y-76988000D02*
X141022000Y-77788000D01*
X141332000Y-75318000D02*
X142132000Y-75318000D01*
X142132000Y-78098000D02*
X141332000Y-78098000D01*
X142442000Y-76428000D02*
X142442000Y-75628000D01*
X142442000Y-76988000D02*
X142442000Y-77788000D01*
X141022000Y-75628000D02*
G75*
G02*
X141332000Y-75318000I310000J0D01*
G01*
X141332000Y-78098000D02*
G75*
G02*
X141022000Y-77788000I0J310000D01*
G01*
X142132000Y-75318000D02*
G75*
G02*
X142442000Y-75628000I0J-310000D01*
G01*
X142442000Y-77788000D02*
G75*
G02*
X142132000Y-78098000I-310000J0D01*
G01*
D13*
%TO.C,C5*%
X164327400Y-84356200D02*
X164327400Y-83856200D01*
X164327400Y-85296200D02*
X164327400Y-84796200D01*
X164477400Y-83706200D02*
X165177400Y-83706200D01*
X165177400Y-85446200D02*
X164477400Y-85446200D01*
X165327400Y-83856200D02*
X165327400Y-84356200D01*
X165327400Y-84796200D02*
X165327400Y-85296200D01*
X164327400Y-83856200D02*
G75*
G02*
X164477400Y-83706200I150000J0D01*
G01*
X164477400Y-85446200D02*
G75*
G02*
X164327400Y-85296200I0J150000D01*
G01*
X165177400Y-83706200D02*
G75*
G02*
X165327400Y-83856200I0J-150000D01*
G01*
X165327400Y-85296200D02*
G75*
G02*
X165177400Y-85446200I-150000J0D01*
G01*
%TO.C,R10*%
X141164600Y-82349000D02*
X141164600Y-83349000D01*
X141164600Y-83349000D02*
X141874600Y-83349000D01*
X141874600Y-82349000D02*
X141164600Y-82349000D01*
X142334600Y-82349000D02*
X143044600Y-82349000D01*
X143044600Y-82349000D02*
X143044600Y-83349000D01*
X143044600Y-83349000D02*
X142334600Y-83349000D01*
D15*
%TO.C,D4*%
X135291600Y-104772000D02*
X135291600Y-107322000D01*
X136691600Y-104772000D02*
X135291600Y-104772000D01*
X136691600Y-104772000D02*
X136691600Y-107322000D01*
X136691600Y-105022000D02*
X135291600Y-105022000D01*
X136691600Y-107322000D02*
X135291600Y-107322000D01*
D14*
%TO.C,C17*%
X175768400Y-91080200D02*
X175768400Y-90280200D01*
X175768400Y-91640200D02*
X175768400Y-92440200D01*
X176078400Y-89970200D02*
X176878400Y-89970200D01*
X176878400Y-92750200D02*
X176078400Y-92750200D01*
X177188400Y-91080200D02*
X177188400Y-90280200D01*
X177188400Y-91640200D02*
X177188400Y-92440200D01*
X175768400Y-90280200D02*
G75*
G02*
X176078400Y-89970200I310000J0D01*
G01*
X176078400Y-92750200D02*
G75*
G02*
X175768400Y-92440200I0J310000D01*
G01*
X176878400Y-89970200D02*
G75*
G02*
X177188400Y-90280200I0J-310000D01*
G01*
X177188400Y-92440200D02*
G75*
G02*
X176878400Y-92750200I-310000J0D01*
G01*
D13*
%TO.C,R19*%
X138252000Y-79256000D02*
X138962000Y-79256000D01*
X138252000Y-80256000D02*
X138252000Y-79256000D01*
X138962000Y-80256000D02*
X138252000Y-80256000D01*
X139422000Y-80256000D02*
X140132000Y-80256000D01*
X140132000Y-79256000D02*
X139422000Y-79256000D01*
X140132000Y-80256000D02*
X140132000Y-79256000D01*
%TO.C,L1*%
X173692400Y-86154200D02*
X173922400Y-85924200D01*
X173692400Y-88854200D02*
X173692400Y-86154200D01*
X173922400Y-85924200D02*
X175312400Y-85924200D01*
X173922400Y-89084200D02*
X173692400Y-88854200D01*
X175312400Y-89084200D02*
X173922400Y-89084200D01*
X176272400Y-85924200D02*
X177662400Y-85924200D01*
X177662400Y-85924200D02*
X177892400Y-86154200D01*
X177662400Y-89084200D02*
X176272400Y-89084200D01*
X177892400Y-86154200D02*
X177892400Y-88854200D01*
X177892400Y-88854200D02*
X177662400Y-89084200D01*
%TO.C,C6*%
X137380000Y-81610000D02*
X137380000Y-80910000D01*
X137530000Y-80760000D02*
X138030000Y-80760000D01*
X138030000Y-81760000D02*
X137530000Y-81760000D01*
X138470000Y-80760000D02*
X138970000Y-80760000D01*
X138970000Y-81760000D02*
X138470000Y-81760000D01*
X139120000Y-80910000D02*
X139120000Y-81610000D01*
X137380000Y-80910000D02*
G75*
G02*
X137530000Y-80760000I150000J0D01*
G01*
X137530000Y-81760000D02*
G75*
G02*
X137380000Y-81610000I0J150000D01*
G01*
X138970000Y-80760000D02*
G75*
G02*
X139120000Y-80910000I0J-150000D01*
G01*
X139120000Y-81610000D02*
G75*
G02*
X138970000Y-81760000I-150000J0D01*
G01*
%TO.C,R25*%
X159596200Y-106933800D02*
X159596200Y-107643800D01*
X159596200Y-108813800D02*
X159596200Y-108103800D01*
X160596200Y-106933800D02*
X159596200Y-106933800D01*
X160596200Y-107643800D02*
X160596200Y-106933800D01*
X160596200Y-108103800D02*
X160596200Y-108813800D01*
X160596200Y-108813800D02*
X159596200Y-108813800D01*
%TO.C,R1*%
X136220000Y-99322000D02*
X136930000Y-99322000D01*
X136220000Y-100322000D02*
X136220000Y-99322000D01*
X136930000Y-100322000D02*
X136220000Y-100322000D01*
X137390000Y-100322000D02*
X138100000Y-100322000D01*
X138100000Y-99322000D02*
X137390000Y-99322000D01*
X138100000Y-100322000D02*
X138100000Y-99322000D01*
%TO.C,R5*%
X166239000Y-87130200D02*
X167559000Y-87130200D01*
X166239000Y-88090200D02*
X166239000Y-87130200D01*
X166239000Y-88950200D02*
X166239000Y-89910200D01*
X166239000Y-89910200D02*
X167559000Y-89910200D01*
X167559000Y-87130200D02*
X167559000Y-88090200D01*
X167559000Y-89910200D02*
X167559000Y-88950200D01*
%TO.C,C26*%
X139710000Y-91250000D02*
X139710000Y-90750001D01*
X139710000Y-92189999D02*
X139710000Y-91690000D01*
X139860001Y-90600000D02*
X140559999Y-90600000D01*
X140559999Y-92340000D02*
X139860001Y-92340000D01*
X140710000Y-90750001D02*
X140710000Y-91250000D01*
X140710000Y-91690000D02*
X140710000Y-92189999D01*
X139710000Y-90750001D02*
G75*
G02*
X139860001Y-90600000I150002J-1D01*
G01*
X139860001Y-92340000D02*
G75*
G02*
X139710000Y-92189999I-1J150000D01*
G01*
X140559999Y-90600000D02*
G75*
G02*
X140710000Y-90750001I-1J-150002D01*
G01*
X140710000Y-92189999D02*
G75*
G02*
X140559999Y-92340000I-150000J-1D01*
G01*
%TO.C,R7*%
X144160000Y-109800000D02*
X144160000Y-110800000D01*
X144160000Y-110800000D02*
X144870000Y-110800000D01*
X144870000Y-109800000D02*
X144160000Y-109800000D01*
X145330000Y-109800000D02*
X146040000Y-109800000D01*
X146040000Y-109800000D02*
X146040000Y-110800000D01*
X146040000Y-110800000D02*
X145330000Y-110800000D01*
D14*
%TO.C,C11*%
X136740000Y-85240000D02*
X136740000Y-84440000D01*
X137850000Y-84130000D02*
X137050000Y-84130000D01*
X137850000Y-85550000D02*
X137050000Y-85550000D01*
X138410000Y-84130000D02*
X139210000Y-84130000D01*
X138410000Y-85550000D02*
X139210000Y-85550000D01*
X139520000Y-84440000D02*
X139520000Y-85240000D01*
X136740000Y-84440000D02*
G75*
G02*
X137050000Y-84130000I310000J0D01*
G01*
X137050000Y-85550000D02*
G75*
G02*
X136740000Y-85240000I0J310000D01*
G01*
X139210000Y-84130000D02*
G75*
G02*
X139520000Y-84440000I0J-310000D01*
G01*
X139520000Y-85240000D02*
G75*
G02*
X139210000Y-85550000I-310000J0D01*
G01*
D13*
%TO.C,R13*%
X140350000Y-118760000D02*
X141350000Y-118760000D01*
X140350000Y-119470000D02*
X140350000Y-118760000D01*
X140350000Y-119930000D02*
X140350000Y-120640000D01*
X140350000Y-120640000D02*
X141350000Y-120640000D01*
X141350000Y-118760000D02*
X141350000Y-119470000D01*
X141350000Y-120640000D02*
X141350000Y-119930000D01*
%TO.C,R15*%
X171860000Y-83200000D02*
X171860000Y-84200000D01*
X171860000Y-84200000D02*
X172570000Y-84200000D01*
X172570000Y-83200000D02*
X171860000Y-83200000D01*
X173030000Y-83200000D02*
X173740000Y-83200000D01*
X173740000Y-83200000D02*
X173740000Y-84200000D01*
X173740000Y-84200000D02*
X173030000Y-84200000D01*
%TO.C,C18*%
X152600000Y-95580000D02*
X152600000Y-95080000D01*
X152600000Y-96520000D02*
X152600000Y-96020000D01*
X152750000Y-94930000D02*
X153450000Y-94930000D01*
X153450000Y-96670000D02*
X152750000Y-96670000D01*
X153600000Y-95080000D02*
X153600000Y-95580000D01*
X153600000Y-96020000D02*
X153600000Y-96520000D01*
X152600000Y-95080000D02*
G75*
G02*
X152750000Y-94930000I150000J0D01*
G01*
X152750000Y-96670000D02*
G75*
G02*
X152600000Y-96520000I0J150000D01*
G01*
X153450000Y-94930000D02*
G75*
G02*
X153600000Y-95080000I0J-150000D01*
G01*
X153600000Y-96520000D02*
G75*
G02*
X153450000Y-96670000I-150000J0D01*
G01*
D14*
%TO.C,USBC2*%
X125386000Y-108064000D02*
X126866000Y-108064000D01*
X125386000Y-117004000D02*
X125386000Y-108064000D01*
X125386000Y-117004000D02*
X126866000Y-117004000D01*
X129106000Y-108064000D02*
X130966000Y-108064000D01*
X129106000Y-117004000D02*
X130966000Y-117004000D01*
D13*
%TO.C,C3*%
X169000000Y-115780000D02*
X169000000Y-115280000D01*
X169000000Y-116720000D02*
X169000000Y-116220000D01*
X169150000Y-115130000D02*
X169850000Y-115130000D01*
X169850000Y-116870000D02*
X169150000Y-116870000D01*
X170000000Y-115280000D02*
X170000000Y-115780000D01*
X170000000Y-116220000D02*
X170000000Y-116720000D01*
X169000000Y-115280000D02*
G75*
G02*
X169150000Y-115130000I150000J0D01*
G01*
X169150000Y-116870000D02*
G75*
G02*
X169000000Y-116720000I0J150000D01*
G01*
X169850000Y-115130000D02*
G75*
G02*
X170000000Y-115280000I0J-150000D01*
G01*
X170000000Y-116720000D02*
G75*
G02*
X169850000Y-116870000I-150000J0D01*
G01*
%TO.C,C31*%
X165031800Y-107806200D02*
X165031800Y-107306200D01*
X165031800Y-108746200D02*
X165031800Y-108246200D01*
X165181800Y-107156200D02*
X165881800Y-107156200D01*
X165881800Y-108896200D02*
X165181800Y-108896200D01*
X166031800Y-107306200D02*
X166031800Y-107806200D01*
X166031800Y-108246200D02*
X166031800Y-108746200D01*
X165031800Y-107306200D02*
G75*
G02*
X165181800Y-107156200I150000J0D01*
G01*
X165181800Y-108896200D02*
G75*
G02*
X165031800Y-108746200I0J150000D01*
G01*
X165881800Y-107156200D02*
G75*
G02*
X166031800Y-107306200I0J-150000D01*
G01*
X166031800Y-108746200D02*
G75*
G02*
X165881800Y-108896200I-150000J0D01*
G01*
%TO.C,C4*%
X165578400Y-83160200D02*
X165578400Y-81750200D01*
X165578400Y-83960200D02*
X165578400Y-85370200D01*
X165728400Y-81600200D02*
X167228400Y-81600200D01*
X165728400Y-85520200D02*
X167228400Y-85520200D01*
X167378400Y-81750200D02*
X167378400Y-83160200D01*
X167378400Y-85370200D02*
X167378400Y-83960200D01*
X165578400Y-81750200D02*
G75*
G02*
X165728400Y-81600200I150000J0D01*
G01*
X165728400Y-85520200D02*
G75*
G02*
X165578400Y-85370200I0J150000D01*
G01*
X167228400Y-81600200D02*
G75*
G02*
X167378400Y-81750200I0J-150000D01*
G01*
X167378400Y-85370200D02*
G75*
G02*
X167228400Y-85520200I-150000J0D01*
G01*
%TO.C,D3*%
X128118800Y-92324400D02*
X132078800Y-92324400D01*
X128118800Y-94924400D02*
X132078800Y-94924400D01*
X128628800Y-92324400D02*
X128628800Y-94924400D01*
X132078800Y-92324400D02*
X132078800Y-92514400D01*
X132078800Y-94924400D02*
X132078800Y-94734400D01*
%TO.C,R11*%
X141164600Y-83524800D02*
X141164600Y-84524800D01*
X141164600Y-84524800D02*
X141874600Y-84524800D01*
X141874600Y-83524800D02*
X141164600Y-83524800D01*
X142334600Y-83524800D02*
X143044600Y-83524800D01*
X143044600Y-83524800D02*
X143044600Y-84524800D01*
X143044600Y-84524800D02*
X142334600Y-84524800D01*
D14*
%TO.C,C13*%
X136740000Y-89083333D02*
X136740000Y-88283333D01*
X137850000Y-87973333D02*
X137050000Y-87973333D01*
X137850000Y-89393333D02*
X137050000Y-89393333D01*
X138410000Y-87973333D02*
X139210000Y-87973333D01*
X138410000Y-89393333D02*
X139210000Y-89393333D01*
X139520000Y-88283333D02*
X139520000Y-89083333D01*
X136740000Y-88283333D02*
G75*
G02*
X137050000Y-87973333I310000J0D01*
G01*
X137050000Y-89393333D02*
G75*
G02*
X136740000Y-89083333I0J310000D01*
G01*
X139210000Y-87973333D02*
G75*
G02*
X139520000Y-88283333I0J-310000D01*
G01*
X139520000Y-89083333D02*
G75*
G02*
X139210000Y-89393333I-310000J0D01*
G01*
D15*
%TO.C,D6*%
X170300000Y-115200000D02*
X170300000Y-117750000D01*
X171700000Y-115200000D02*
X170300000Y-115200000D01*
X171700000Y-115200000D02*
X171700000Y-117750000D01*
X171700000Y-115450000D02*
X170300000Y-115450000D01*
X171700000Y-117750000D02*
X170300000Y-117750000D01*
D13*
%TO.C,C15*%
X146800000Y-104780000D02*
X146800000Y-104280000D01*
X146800000Y-105720000D02*
X146800000Y-105220000D01*
X146950000Y-104130000D02*
X147650000Y-104130000D01*
X147650000Y-105870000D02*
X146950000Y-105870000D01*
X147800000Y-104280000D02*
X147800000Y-104780000D01*
X147800000Y-105220000D02*
X147800000Y-105720000D01*
X146800000Y-104280000D02*
G75*
G02*
X146950000Y-104130000I150000J0D01*
G01*
X146950000Y-105870000D02*
G75*
G02*
X146800000Y-105720000I0J150000D01*
G01*
X147650000Y-104130000D02*
G75*
G02*
X147800000Y-104280000I0J-150000D01*
G01*
X147800000Y-105720000D02*
G75*
G02*
X147650000Y-105870000I-150000J0D01*
G01*
D14*
%TO.C,C16*%
X177673400Y-91080200D02*
X177673400Y-90280200D01*
X177673400Y-91640200D02*
X177673400Y-92440200D01*
X177983400Y-89970200D02*
X178783400Y-89970200D01*
X178783400Y-92750200D02*
X177983400Y-92750200D01*
X179093400Y-91080200D02*
X179093400Y-90280200D01*
X179093400Y-91640200D02*
X179093400Y-92440200D01*
X177673400Y-90280200D02*
G75*
G02*
X177983400Y-89970200I310000J0D01*
G01*
X177983400Y-92750200D02*
G75*
G02*
X177673400Y-92440200I0J310000D01*
G01*
X178783400Y-89970200D02*
G75*
G02*
X179093400Y-90280200I0J-310000D01*
G01*
X179093400Y-92440200D02*
G75*
G02*
X178783400Y-92750200I-310000J0D01*
G01*
D13*
%TO.C,R23*%
X141190000Y-87000000D02*
X141190000Y-88000000D01*
X141190000Y-88000000D02*
X141900000Y-88000000D01*
X141900000Y-87000000D02*
X141190000Y-87000000D01*
X142360000Y-87000000D02*
X143070000Y-87000000D01*
X143070000Y-87000000D02*
X143070000Y-88000000D01*
X143070000Y-88000000D02*
X142360000Y-88000000D01*
D14*
%TO.C,C7*%
X139110000Y-110300000D02*
X139110000Y-109500000D01*
X140220000Y-109190000D02*
X139420000Y-109190000D01*
X140220000Y-110610000D02*
X139420000Y-110610000D01*
X140780000Y-109190000D02*
X141580000Y-109190000D01*
X140780000Y-110610000D02*
X141580000Y-110610000D01*
X141890000Y-109500000D02*
X141890000Y-110300000D01*
X139110000Y-109500000D02*
G75*
G02*
X139420000Y-109190000I310000J0D01*
G01*
X139420000Y-110610000D02*
G75*
G02*
X139110000Y-110300000I0J310000D01*
G01*
X141580000Y-109190000D02*
G75*
G02*
X141890000Y-109500000I0J-310000D01*
G01*
X141890000Y-110300000D02*
G75*
G02*
X141580000Y-110610000I-310000J0D01*
G01*
D13*
%TO.C,U2*%
X170968400Y-86420200D02*
X169188400Y-86420200D01*
X170968400Y-89500200D02*
X169188400Y-89500200D01*
D16*
X171528400Y-89630200D02*
G75*
G02*
X171228400Y-89630200I-150000J0D01*
G01*
X171228400Y-89630200D02*
G75*
G02*
X171528400Y-89630200I150000J0D01*
G01*
D14*
%TO.C,C23*%
X160681600Y-79171200D02*
X160681600Y-78371200D01*
X160681600Y-79731200D02*
X160681600Y-80531200D01*
X160991600Y-78061200D02*
X161791600Y-78061200D01*
X161791600Y-80841200D02*
X160991600Y-80841200D01*
X162101600Y-79171200D02*
X162101600Y-78371200D01*
X162101600Y-79731200D02*
X162101600Y-80531200D01*
X160681600Y-78371200D02*
G75*
G02*
X160991600Y-78061200I310000J0D01*
G01*
X160991600Y-80841200D02*
G75*
G02*
X160681600Y-80531200I0J310000D01*
G01*
X161791600Y-78061200D02*
G75*
G02*
X162101600Y-78371200I0J-310000D01*
G01*
X162101600Y-80531200D02*
G75*
G02*
X161791600Y-80841200I-310000J0D01*
G01*
D13*
%TO.C,D1*%
X136420000Y-121593000D02*
X136420000Y-123053000D01*
X136420000Y-123053000D02*
X137460000Y-123053000D01*
X137490000Y-121593000D02*
X138410000Y-121593000D01*
X139480000Y-121593000D02*
X139480000Y-123053000D01*
X139480000Y-123053000D02*
X138440000Y-123053000D01*
%TO.C,R24*%
X141190000Y-88150000D02*
X141190000Y-89150000D01*
X141190000Y-89150000D02*
X141900000Y-89150000D01*
X141900000Y-88150000D02*
X141190000Y-88150000D01*
X142360000Y-88150000D02*
X143070000Y-88150000D01*
X143070000Y-88150000D02*
X143070000Y-89150000D01*
X143070000Y-89150000D02*
X142360000Y-89150000D01*
%TO.C,C24*%
X167659000Y-96743000D02*
X167659000Y-96043000D01*
X167809000Y-95893000D02*
X168309000Y-95893000D01*
X168309000Y-96893000D02*
X167809000Y-96893000D01*
X168749000Y-95893000D02*
X169249000Y-95893000D01*
X169249000Y-96893000D02*
X168749000Y-96893000D01*
X169399000Y-96043000D02*
X169399000Y-96743000D01*
X167659000Y-96043000D02*
G75*
G02*
X167809000Y-95893000I150000J0D01*
G01*
X167809000Y-96893000D02*
G75*
G02*
X167659000Y-96743000I0J150000D01*
G01*
X169249000Y-95893000D02*
G75*
G02*
X169399000Y-96043000I0J-150000D01*
G01*
X169399000Y-96743000D02*
G75*
G02*
X169249000Y-96893000I-150000J0D01*
G01*
%TO.C,R12*%
X141188200Y-84693200D02*
X141188200Y-85693200D01*
X141188200Y-85693200D02*
X141898200Y-85693200D01*
X141898200Y-84693200D02*
X141188200Y-84693200D01*
X142358200Y-84693200D02*
X143068200Y-84693200D01*
X143068200Y-84693200D02*
X143068200Y-85693200D01*
X143068200Y-85693200D02*
X142358200Y-85693200D01*
%TO.C,C27*%
X141310000Y-91250000D02*
X141310000Y-90750001D01*
X141310000Y-92189999D02*
X141310000Y-91690000D01*
X141460001Y-90600000D02*
X142159999Y-90600000D01*
X142159999Y-92340000D02*
X141460001Y-92340000D01*
X142310000Y-90750001D02*
X142310000Y-91250000D01*
X142310000Y-91690000D02*
X142310000Y-92189999D01*
X141310000Y-90750001D02*
G75*
G02*
X141460001Y-90600000I150002J-1D01*
G01*
X141460001Y-92340000D02*
G75*
G02*
X141310000Y-92189999I-1J150000D01*
G01*
X142159999Y-90600000D02*
G75*
G02*
X142310000Y-90750001I-1J-150002D01*
G01*
X142310000Y-92189999D02*
G75*
G02*
X142159999Y-92340000I-150000J-1D01*
G01*
%TO.C,R22*%
X141190000Y-85850000D02*
X141190000Y-86850000D01*
X141190000Y-86850000D02*
X141900000Y-86850000D01*
X141900000Y-85850000D02*
X141190000Y-85850000D01*
X142360000Y-85850000D02*
X143070000Y-85850000D01*
X143070000Y-85850000D02*
X143070000Y-86850000D01*
X143070000Y-86850000D02*
X142360000Y-86850000D01*
%TO.C,R6*%
X164509000Y-90460200D02*
X164509000Y-91780200D01*
X164509000Y-91780200D02*
X165469000Y-91780200D01*
X165469000Y-90460200D02*
X164509000Y-90460200D01*
X166329000Y-90460200D02*
X167289000Y-90460200D01*
X167289000Y-90460200D02*
X167289000Y-91780200D01*
X167289000Y-91780200D02*
X166329000Y-91780200D01*
D17*
%TO.C,G\u002A\u002A\u002A*%
G36*
X159269275Y-118342075D02*
G01*
X159358402Y-118397414D01*
X159429949Y-118492740D01*
X159443002Y-118521056D01*
X159468019Y-118631844D01*
X159465112Y-118756520D01*
X159437261Y-118873057D01*
X159387443Y-118959426D01*
X159383132Y-118963849D01*
X159283150Y-119030917D01*
X159175832Y-119049609D01*
X159110340Y-119034588D01*
X159048009Y-118991466D01*
X159001762Y-118938373D01*
X158961828Y-118892756D01*
X158908864Y-118875588D01*
X158836369Y-118877008D01*
X158779635Y-118879812D01*
X158673651Y-118883569D01*
X158526104Y-118888064D01*
X158344683Y-118893081D01*
X158137074Y-118898404D01*
X157910967Y-118903819D01*
X157755757Y-118907328D01*
X157495499Y-118912913D01*
X157286188Y-118916848D01*
X157121841Y-118918957D01*
X156996472Y-118919063D01*
X156904099Y-118916990D01*
X156838736Y-118912562D01*
X156794401Y-118905602D01*
X156765108Y-118895934D01*
X156744873Y-118883381D01*
X156737764Y-118877322D01*
X156687906Y-118805844D01*
X156694978Y-118733434D01*
X156741060Y-118675601D01*
X156759315Y-118661627D01*
X156783946Y-118650190D01*
X156820594Y-118640974D01*
X156874901Y-118633667D01*
X156952508Y-118627954D01*
X157059056Y-118623521D01*
X157200185Y-118620055D01*
X157381537Y-118617241D01*
X157608753Y-118614767D01*
X157876881Y-118612405D01*
X158952799Y-118603455D01*
X158969340Y-118520750D01*
X159012600Y-118416062D01*
X159084755Y-118351392D01*
X159174186Y-118326732D01*
X159269275Y-118342075D01*
G37*
G36*
X154551407Y-118220554D02*
G01*
X154606839Y-118265414D01*
X154661950Y-118313985D01*
X154716828Y-118339692D01*
X154792836Y-118349572D01*
X154866210Y-118350840D01*
X154975169Y-118346218D01*
X155046731Y-118329083D01*
X155099942Y-118294533D01*
X155105829Y-118289143D01*
X155199921Y-118234773D01*
X155300956Y-118232399D01*
X155394602Y-118281190D01*
X155420593Y-118307388D01*
X155469794Y-118400260D01*
X155464658Y-118493707D01*
X155405871Y-118577128D01*
X155403047Y-118579568D01*
X155374366Y-118619455D01*
X155354359Y-118688864D01*
X155340323Y-118799080D01*
X155335479Y-118861384D01*
X155319154Y-119099561D01*
X155420395Y-119195044D01*
X155471178Y-119240621D01*
X155515812Y-119268750D01*
X155569918Y-119283639D01*
X155649114Y-119289495D01*
X155769021Y-119290525D01*
X155774824Y-119290526D01*
X155901913Y-119288511D01*
X155982494Y-119281351D01*
X156026903Y-119267370D01*
X156044807Y-119246760D01*
X156088148Y-119196455D01*
X156165268Y-119151520D01*
X156253343Y-119123607D01*
X156293739Y-119119674D01*
X156388947Y-119145509D01*
X156467670Y-119212483D01*
X156514750Y-119304801D01*
X156521696Y-119357245D01*
X156498506Y-119469506D01*
X156437036Y-119550798D01*
X156349436Y-119596614D01*
X156247857Y-119602444D01*
X156144449Y-119563780D01*
X156087557Y-119518329D01*
X156042555Y-119476685D01*
X155999491Y-119451371D01*
X155942801Y-119438338D01*
X155856922Y-119433537D01*
X155759194Y-119432903D01*
X155638056Y-119434410D01*
X155558822Y-119441202D01*
X155506477Y-119456682D01*
X155466004Y-119484251D01*
X155445069Y-119504091D01*
X155349329Y-119563864D01*
X155241575Y-119574971D01*
X155138752Y-119537349D01*
X155099482Y-119505385D01*
X155043335Y-119414403D01*
X155040235Y-119357021D01*
X156168602Y-119357021D01*
X156188082Y-119437911D01*
X156237263Y-119480688D01*
X156302254Y-119478667D01*
X156351658Y-119445106D01*
X156387965Y-119392674D01*
X156396405Y-119361714D01*
X156379052Y-119316799D01*
X156340498Y-119266322D01*
X156300997Y-119235345D01*
X156292835Y-119233575D01*
X156231733Y-119257049D01*
X156182633Y-119311045D01*
X156168602Y-119357021D01*
X155040235Y-119357021D01*
X155037924Y-119314256D01*
X155081472Y-119217819D01*
X155148009Y-119153653D01*
X155174711Y-119125440D01*
X155190694Y-119078881D01*
X155198442Y-119001074D01*
X155200440Y-118881346D01*
X155199068Y-118763525D01*
X155192286Y-118687048D01*
X155176099Y-118636323D01*
X155146512Y-118595762D01*
X155120575Y-118569732D01*
X155067431Y-118526312D01*
X155010377Y-118503154D01*
X154929012Y-118494236D01*
X154861289Y-118493216D01*
X154752909Y-118497150D01*
X154679646Y-118512923D01*
X154619971Y-118546495D01*
X154593907Y-118567231D01*
X154495532Y-118620788D01*
X154395440Y-118628378D01*
X154304848Y-118597102D01*
X154234971Y-118534061D01*
X154197027Y-118446358D01*
X154197847Y-118429766D01*
X155173397Y-118429766D01*
X155185379Y-118479298D01*
X155204757Y-118496887D01*
X155270071Y-118516239D01*
X155315638Y-118487914D01*
X155328579Y-118435876D01*
X155316642Y-118381859D01*
X155269899Y-118365337D01*
X155257781Y-118365077D01*
X155200332Y-118384730D01*
X155173397Y-118429766D01*
X154197847Y-118429766D01*
X154202229Y-118341094D01*
X154207909Y-118322829D01*
X154264503Y-118233072D01*
X154349132Y-118184882D01*
X154449023Y-118180097D01*
X154551407Y-118220554D01*
G37*
G36*
X159880296Y-116790118D02*
G01*
X160163821Y-116792775D01*
X160494123Y-116796963D01*
X160875645Y-116802457D01*
X160995171Y-116804244D01*
X162846068Y-116832024D01*
X163052976Y-116905352D01*
X163178059Y-116955275D01*
X163303542Y-117014376D01*
X163397956Y-117067280D01*
X163510268Y-117150753D01*
X163636094Y-117261854D01*
X163757623Y-117383383D01*
X163857041Y-117498138D01*
X163888445Y-117540951D01*
X164031257Y-117791711D01*
X164145274Y-118074562D01*
X164222997Y-118368779D01*
X164248434Y-118535929D01*
X164269835Y-118735257D01*
X164583064Y-118743173D01*
X164896292Y-118751089D01*
X164934562Y-118664214D01*
X165003717Y-118570451D01*
X165103409Y-118513834D01*
X165219794Y-118495821D01*
X165339025Y-118517870D01*
X165447257Y-118581443D01*
X165474137Y-118607345D01*
X165537733Y-118710920D01*
X165552974Y-118821901D01*
X165525386Y-118929238D01*
X165460493Y-119021884D01*
X165363818Y-119088788D01*
X165240886Y-119118901D01*
X165218054Y-119119567D01*
X165119402Y-119101760D01*
X165023649Y-119056325D01*
X164951014Y-118994921D01*
X164925391Y-118950787D01*
X164913399Y-118925144D01*
X164889943Y-118908246D01*
X164844651Y-118898286D01*
X164767149Y-118893456D01*
X164647066Y-118891949D01*
X164587333Y-118891871D01*
X164267974Y-118891871D01*
X164236338Y-119155268D01*
X164173396Y-119489163D01*
X164069752Y-119787508D01*
X163926712Y-120048231D01*
X163745584Y-120269258D01*
X163527675Y-120448519D01*
X163360018Y-120545075D01*
X163234291Y-120601305D01*
X163105802Y-120649717D01*
X162998050Y-120681659D01*
X162977439Y-120685995D01*
X162920261Y-120691174D01*
X162812291Y-120695743D01*
X162659686Y-120699703D01*
X162468602Y-120703057D01*
X162245194Y-120705805D01*
X161995621Y-120707950D01*
X161726036Y-120709494D01*
X161442597Y-120710438D01*
X161151459Y-120710784D01*
X160858779Y-120710535D01*
X160570712Y-120709691D01*
X160293416Y-120708254D01*
X160033045Y-120706227D01*
X159795757Y-120703612D01*
X159587706Y-120700409D01*
X159415050Y-120696621D01*
X159283944Y-120692249D01*
X159200545Y-120687296D01*
X159180250Y-120684883D01*
X158883987Y-120609035D01*
X158620911Y-120486944D01*
X158391208Y-120318779D01*
X158195060Y-120104710D01*
X158032654Y-119844907D01*
X157904173Y-119539539D01*
X157890527Y-119498233D01*
X157857472Y-119408845D01*
X157820305Y-119355897D01*
X157762207Y-119320317D01*
X157717642Y-119302156D01*
X157626352Y-119259585D01*
X157590858Y-119224185D01*
X157610285Y-119197533D01*
X157683753Y-119181206D01*
X157787513Y-119176624D01*
X157982657Y-119176624D01*
X158061147Y-119417914D01*
X158132218Y-119600786D01*
X158225738Y-119790317D01*
X158331496Y-119968410D01*
X158439280Y-120116969D01*
X158484361Y-120167945D01*
X158680894Y-120336046D01*
X158895811Y-120454040D01*
X159122342Y-120521914D01*
X159353716Y-120539657D01*
X159583163Y-120507259D01*
X159803912Y-120424708D01*
X160009194Y-120291993D01*
X160138729Y-120170682D01*
X160306618Y-119959220D01*
X160433171Y-119729140D01*
X160520833Y-119473269D01*
X160572051Y-119184434D01*
X160589269Y-118855461D01*
X160589282Y-118849158D01*
X160569852Y-118471998D01*
X160509867Y-118133250D01*
X160408378Y-117830402D01*
X160264432Y-117560940D01*
X160077077Y-117322348D01*
X159972282Y-117218812D01*
X159820599Y-117097388D01*
X159667628Y-117014835D01*
X159564119Y-116984829D01*
X160482615Y-116984829D01*
X160647002Y-117129735D01*
X160866682Y-117359399D01*
X161051976Y-117627084D01*
X161195329Y-117920576D01*
X161264942Y-118128467D01*
X161334923Y-118466600D01*
X161361081Y-118801354D01*
X161345072Y-119126699D01*
X161288554Y-119436607D01*
X161193183Y-119725047D01*
X161060615Y-119985992D01*
X160892508Y-120213411D01*
X160690517Y-120401276D01*
X160628183Y-120445921D01*
X160483376Y-120543441D01*
X161611003Y-120543441D01*
X161883692Y-120542694D01*
X162137182Y-120540550D01*
X162365117Y-120537154D01*
X162561139Y-120532649D01*
X162718889Y-120527180D01*
X162832012Y-120520891D01*
X162891890Y-120514376D01*
X163150035Y-120437853D01*
X163381135Y-120313191D01*
X163582621Y-120143673D01*
X163751924Y-119932582D01*
X163886476Y-119683200D01*
X163983707Y-119398812D01*
X164041049Y-119082701D01*
X164045375Y-119040135D01*
X164064448Y-118834920D01*
X163390048Y-118834920D01*
X162715648Y-118834920D01*
X162607296Y-118948822D01*
X162535220Y-119017477D01*
X162474620Y-119051588D01*
X162403055Y-119062362D01*
X162379220Y-119062723D01*
X162281171Y-119052544D01*
X162192596Y-119027438D01*
X162179323Y-119021265D01*
X162106956Y-118959342D01*
X162045511Y-118865675D01*
X162009805Y-118765336D01*
X162007927Y-118746702D01*
X162231190Y-118746702D01*
X162249723Y-118814915D01*
X162296719Y-118868858D01*
X162364693Y-118891005D01*
X162405749Y-118872442D01*
X162445496Y-118837039D01*
X162463779Y-118799558D01*
X165024431Y-118799558D01*
X165046898Y-118881076D01*
X165102777Y-118954081D01*
X165174789Y-118999438D01*
X165210645Y-119005772D01*
X165276469Y-118988554D01*
X165347601Y-118947113D01*
X165348058Y-118946755D01*
X165411165Y-118867464D01*
X165423086Y-118806445D01*
X165398467Y-118727635D01*
X165337597Y-118656581D01*
X165259955Y-118612764D01*
X165223759Y-118607118D01*
X165148530Y-118630523D01*
X165078052Y-118688014D01*
X165032095Y-118760506D01*
X165024431Y-118799558D01*
X162463779Y-118799558D01*
X162479784Y-118766747D01*
X162468871Y-118698799D01*
X162423258Y-118647402D01*
X162353446Y-118626762D01*
X162297918Y-118637384D01*
X162245721Y-118681699D01*
X162231190Y-118746702D01*
X162007927Y-118746702D01*
X162006046Y-118728046D01*
X162030382Y-118639810D01*
X162093643Y-118549414D01*
X162181209Y-118474096D01*
X162251396Y-118438776D01*
X162331211Y-118415743D01*
X162391820Y-118417686D01*
X162465000Y-118446597D01*
X162478270Y-118453014D01*
X162564324Y-118510333D01*
X162635851Y-118583114D01*
X162646741Y-118598902D01*
X162703692Y-118690350D01*
X163382653Y-118691447D01*
X164061614Y-118692544D01*
X164041170Y-118543048D01*
X163975315Y-118224771D01*
X163870191Y-117933312D01*
X163729095Y-117673888D01*
X163555321Y-117451711D01*
X163352167Y-117271996D01*
X163167465Y-117160707D01*
X163077486Y-117118331D01*
X162991938Y-117083330D01*
X162904345Y-117055005D01*
X162808232Y-117032658D01*
X162697121Y-117015591D01*
X162564536Y-117003106D01*
X162404001Y-116994506D01*
X162209040Y-116989093D01*
X161973176Y-116986168D01*
X161689933Y-116985034D01*
X161536203Y-116984921D01*
X160482615Y-116984829D01*
X159564119Y-116984829D01*
X159498149Y-116965705D01*
X159296942Y-116944547D01*
X159201225Y-116942691D01*
X159065209Y-116944083D01*
X158967368Y-116950904D01*
X158888956Y-116966784D01*
X158811226Y-116995351D01*
X158727346Y-117034429D01*
X158521055Y-117164826D01*
X158384707Y-117292179D01*
X158290203Y-117407998D01*
X158193226Y-117549734D01*
X158104914Y-117698995D01*
X158036402Y-117837388D01*
X158006599Y-117916591D01*
X157999347Y-117955882D01*
X158017681Y-117974622D01*
X158074402Y-117980335D01*
X158115574Y-117980660D01*
X158243962Y-117980660D01*
X158337677Y-117802690D01*
X158439084Y-117641411D01*
X158562734Y-117493301D01*
X158696764Y-117370114D01*
X158829311Y-117283600D01*
X158885950Y-117259548D01*
X159057819Y-117222297D01*
X159249319Y-117214589D01*
X159433022Y-117236498D01*
X159511388Y-117257900D01*
X159634133Y-117319814D01*
X159768239Y-117420614D01*
X159900203Y-117547950D01*
X160016524Y-117689471D01*
X160067607Y-117766658D01*
X160124511Y-117875952D01*
X160183394Y-118012627D01*
X160232354Y-118148830D01*
X160236185Y-118161150D01*
X160265708Y-118265468D01*
X160286031Y-118361507D01*
X160298884Y-118464504D01*
X160305997Y-118589697D01*
X160309103Y-118752324D01*
X160309489Y-118806445D01*
X160307946Y-119014078D01*
X160298847Y-119179287D01*
X160279353Y-119316404D01*
X160246621Y-119439761D01*
X160197810Y-119563688D01*
X160132925Y-119697004D01*
X160007275Y-119893107D01*
X159854615Y-120052539D01*
X159682403Y-120169992D01*
X159498097Y-120240159D01*
X159343698Y-120258687D01*
X159165378Y-120236844D01*
X158982720Y-120177447D01*
X158823905Y-120089697D01*
X158822108Y-120088401D01*
X158681910Y-119961643D01*
X158546522Y-119793692D01*
X158425571Y-119600106D01*
X158328683Y-119396438D01*
X158265482Y-119198244D01*
X158262307Y-119183743D01*
X158242776Y-119091198D01*
X158416761Y-119091198D01*
X158516408Y-119093796D01*
X158579902Y-119106729D01*
X158627981Y-119137711D01*
X158675094Y-119187266D01*
X158804644Y-119295711D01*
X158962396Y-119367440D01*
X159134344Y-119400554D01*
X159306478Y-119393155D01*
X159464791Y-119343344D01*
X159532269Y-119303451D01*
X159617623Y-119226111D01*
X159700495Y-119124049D01*
X159735346Y-119069107D01*
X159802546Y-118896702D01*
X159824109Y-118711220D01*
X159803294Y-118523917D01*
X159743362Y-118346053D01*
X159647570Y-118188885D01*
X159519178Y-118063672D01*
X159428431Y-118008847D01*
X159277639Y-117960121D01*
X159116718Y-117948714D01*
X158960841Y-117972490D01*
X158825185Y-118029312D01*
X158733109Y-118106718D01*
X158716791Y-118119269D01*
X158687020Y-118129278D01*
X158637932Y-118137022D01*
X158563662Y-118142779D01*
X158458345Y-118146825D01*
X158316117Y-118149437D01*
X158131112Y-118150892D01*
X157897467Y-118151467D01*
X157784415Y-118151512D01*
X156872897Y-118151512D01*
X156480092Y-117948271D01*
X156087287Y-117745029D01*
X155972132Y-117791105D01*
X155833454Y-117822341D01*
X155710573Y-117799143D01*
X155614429Y-117731950D01*
X155542347Y-117624752D01*
X155525309Y-117526095D01*
X155714156Y-117526095D01*
X155735047Y-117590696D01*
X155747167Y-117604786D01*
X155813678Y-117636834D01*
X155883898Y-117621293D01*
X155911190Y-117597610D01*
X155932007Y-117534572D01*
X155910784Y-117469117D01*
X155855761Y-117425573D01*
X155852550Y-117424495D01*
X155783117Y-117425529D01*
X155733582Y-117465218D01*
X155714156Y-117526095D01*
X155525309Y-117526095D01*
X155522147Y-117507787D01*
X155553178Y-117393271D01*
X155634785Y-117293420D01*
X155638022Y-117290767D01*
X155713207Y-117257098D01*
X155816775Y-117241882D01*
X155922732Y-117246642D01*
X155999327Y-117269621D01*
X156060964Y-117327173D01*
X156112022Y-117416038D01*
X156138820Y-117510662D01*
X156140127Y-117532617D01*
X156146682Y-117562825D01*
X156171266Y-117594356D01*
X156221255Y-117632393D01*
X156304024Y-117682121D01*
X156426951Y-117748723D01*
X156507806Y-117791026D01*
X156875485Y-117982095D01*
X157336297Y-117974259D01*
X157797108Y-117966423D01*
X157860783Y-117765492D01*
X157970417Y-117507890D01*
X158124178Y-117280848D01*
X158316862Y-117090467D01*
X158543259Y-116942847D01*
X158577426Y-116925902D01*
X158639794Y-116896957D01*
X158700042Y-116872003D01*
X158762615Y-116850816D01*
X158831957Y-116833174D01*
X158912514Y-116818852D01*
X159008731Y-116807626D01*
X159125053Y-116799273D01*
X159265925Y-116793570D01*
X159435793Y-116790292D01*
X159639102Y-116789216D01*
X159880296Y-116790118D01*
G37*
D13*
%TO.C,C30*%
X166797600Y-108827000D02*
X166797600Y-107327000D01*
X166947600Y-107177000D02*
X168357600Y-107177000D01*
X168357600Y-108977000D02*
X166947600Y-108977000D01*
X169157600Y-108977000D02*
X170567600Y-108977000D01*
X170567600Y-107177000D02*
X169157600Y-107177000D01*
X170717600Y-108827000D02*
X170717600Y-107327000D01*
X166797600Y-107327000D02*
G75*
G02*
X166947600Y-107177000I150000J0D01*
G01*
X166947600Y-108977000D02*
G75*
G02*
X166797600Y-108827000I0J150000D01*
G01*
X170567600Y-107177000D02*
G75*
G02*
X170717600Y-107327000I0J-150000D01*
G01*
X170717600Y-108827000D02*
G75*
G02*
X170567600Y-108977000I-150000J0D01*
G01*
D15*
%TO.C,D2*%
X134300000Y-116800000D02*
X134300000Y-119350000D01*
X135700000Y-116800000D02*
X134300000Y-116800000D01*
X135700000Y-116800000D02*
X135700000Y-119350000D01*
X135700000Y-117050000D02*
X134300000Y-117050000D01*
X135700000Y-119350000D02*
X134300000Y-119350000D01*
D14*
%TO.C,C29*%
X163120000Y-107771600D02*
X163120000Y-106971600D01*
X163120000Y-108331600D02*
X163120000Y-109131600D01*
X163430000Y-106661600D02*
X164230000Y-106661600D01*
X164230000Y-109441600D02*
X163430000Y-109441600D01*
X164540000Y-107771600D02*
X164540000Y-106971600D01*
X164540000Y-108331600D02*
X164540000Y-109131600D01*
X163120000Y-106971600D02*
G75*
G02*
X163430000Y-106661600I310000J0D01*
G01*
X163430000Y-109441600D02*
G75*
G02*
X163120000Y-109131600I0J310000D01*
G01*
X164230000Y-106661600D02*
G75*
G02*
X164540000Y-106971600I0J-310000D01*
G01*
X164540000Y-109131600D02*
G75*
G02*
X164230000Y-109441600I-310000J0D01*
G01*
%TO.C,Q1*%
X143030000Y-106000000D02*
X143030000Y-106130000D01*
X143030000Y-108870000D02*
X143030000Y-109000000D01*
X143030000Y-109000000D02*
X146030000Y-109000000D01*
X146030000Y-106000000D02*
X143030000Y-106000000D01*
X146030000Y-106130000D02*
X146030000Y-106000000D01*
X146030000Y-109000000D02*
X146030000Y-108870000D01*
X142300000Y-106520000D02*
G75*
G02*
X142040000Y-106520000I-130000J0D01*
G01*
X142040000Y-106520000D02*
G75*
G02*
X142300000Y-106520000I130000J0D01*
G01*
D13*
%TO.C,R18*%
X174378400Y-90020200D02*
X175378400Y-90020200D01*
X174378400Y-90730200D02*
X174378400Y-90020200D01*
X174378400Y-91190200D02*
X174378400Y-91900200D01*
X174378400Y-91900200D02*
X175378400Y-91900200D01*
X175378400Y-90020200D02*
X175378400Y-90730200D01*
X175378400Y-91900200D02*
X175378400Y-91190200D01*
%TO.C,R8*%
X149100000Y-111660000D02*
X150100000Y-111660000D01*
X149100000Y-112370000D02*
X149100000Y-111660000D01*
X149100000Y-112830000D02*
X149100000Y-113540000D01*
X149100000Y-113540000D02*
X150100000Y-113540000D01*
X150100000Y-111660000D02*
X150100000Y-112370000D01*
X150100000Y-113540000D02*
X150100000Y-112830000D01*
%TO.C,C25*%
X138060000Y-91250000D02*
X138060000Y-90750001D01*
X138060000Y-92189999D02*
X138060000Y-91690000D01*
X138210001Y-90600000D02*
X138909999Y-90600000D01*
X138909999Y-92340000D02*
X138210001Y-92340000D01*
X139060000Y-90750001D02*
X139060000Y-91250000D01*
X139060000Y-91690000D02*
X139060000Y-92189999D01*
X138060000Y-90750001D02*
G75*
G02*
X138210001Y-90600000I150002J-1D01*
G01*
X138210001Y-92340000D02*
G75*
G02*
X138060000Y-92189999I-1J150000D01*
G01*
X138909999Y-90600000D02*
G75*
G02*
X139060000Y-90750001I-1J-150002D01*
G01*
X139060000Y-92189999D02*
G75*
G02*
X138909999Y-92340000I-150000J-1D01*
G01*
%TO.C,R4*%
X164439000Y-87130200D02*
X165759000Y-87130200D01*
X164439000Y-88090200D02*
X164439000Y-87130200D01*
X164439000Y-88950200D02*
X164439000Y-89910200D01*
X164439000Y-89910200D02*
X165759000Y-89910200D01*
X165759000Y-87130200D02*
X165759000Y-88090200D01*
X165759000Y-89910200D02*
X165759000Y-88950200D01*
%TO.C,D7*%
X150540000Y-107700000D02*
X150540000Y-107890000D01*
X150540000Y-110300000D02*
X150540000Y-110110000D01*
X153990000Y-110300000D02*
X153990000Y-107700000D01*
X154500000Y-107700000D02*
X150540000Y-107700000D01*
X154500000Y-110300000D02*
X150540000Y-110300000D01*
%TO.C,SW2*%
X134982000Y-74660000D02*
X134982000Y-75090000D01*
X134982000Y-77740000D02*
X134982000Y-77310000D01*
X139042000Y-74660000D02*
X134982000Y-74660000D01*
X139042000Y-74660000D02*
X139042000Y-75090000D01*
X139042000Y-77310000D02*
X139042000Y-77740000D01*
X139042000Y-77740000D02*
X134982000Y-77740000D01*
D14*
X137912000Y-76200000D02*
G75*
G02*
X136112000Y-76200000I-900000J0D01*
G01*
X136112000Y-76200000D02*
G75*
G02*
X137912000Y-76200000I900000J0D01*
G01*
%TO.C,C28*%
X161138800Y-107898600D02*
X161138800Y-107098600D01*
X161138800Y-108458600D02*
X161138800Y-109258600D01*
X161448800Y-106788600D02*
X162248800Y-106788600D01*
X162248800Y-109568600D02*
X161448800Y-109568600D01*
X162558800Y-107898600D02*
X162558800Y-107098600D01*
X162558800Y-108458600D02*
X162558800Y-109258600D01*
X161138800Y-107098600D02*
G75*
G02*
X161448800Y-106788600I310000J0D01*
G01*
X161448800Y-109568600D02*
G75*
G02*
X161138800Y-109258600I0J310000D01*
G01*
X162248800Y-106788600D02*
G75*
G02*
X162558800Y-107098600I0J-310000D01*
G01*
X162558800Y-109258600D02*
G75*
G02*
X162248800Y-109568600I-310000J0D01*
G01*
D13*
%TO.C,C1*%
X136050000Y-117380000D02*
X136050000Y-116880000D01*
X136050000Y-118320000D02*
X136050000Y-117820000D01*
X136200000Y-116730000D02*
X136900000Y-116730000D01*
X136900000Y-118470000D02*
X136200000Y-118470000D01*
X137050000Y-116880000D02*
X137050000Y-117380000D01*
X137050000Y-117820000D02*
X137050000Y-118320000D01*
X136050000Y-116880000D02*
G75*
G02*
X136200000Y-116730000I150000J0D01*
G01*
X136200000Y-118470000D02*
G75*
G02*
X136050000Y-118320000I0J150000D01*
G01*
X136900000Y-116730000D02*
G75*
G02*
X137050000Y-116880000I0J-150000D01*
G01*
X137050000Y-118320000D02*
G75*
G02*
X136900000Y-118470000I-150000J0D01*
G01*
D14*
%TO.C,C12*%
X136740000Y-87161666D02*
X136740000Y-86361666D01*
X137850000Y-86051666D02*
X137050000Y-86051666D01*
X137850000Y-87471666D02*
X137050000Y-87471666D01*
X138410000Y-86051666D02*
X139210000Y-86051666D01*
X138410000Y-87471666D02*
X139210000Y-87471666D01*
X139520000Y-86361666D02*
X139520000Y-87161666D01*
X136740000Y-86361666D02*
G75*
G02*
X137050000Y-86051666I310000J0D01*
G01*
X137050000Y-87471666D02*
G75*
G02*
X136740000Y-87161666I0J310000D01*
G01*
X139210000Y-86051666D02*
G75*
G02*
X139520000Y-86361666I0J-310000D01*
G01*
X139520000Y-87161666D02*
G75*
G02*
X139210000Y-87471666I-310000J0D01*
G01*
D13*
%TO.C,R20*%
X162568000Y-78104800D02*
X163568000Y-78104800D01*
X162568000Y-78814800D02*
X162568000Y-78104800D01*
X162568000Y-79274800D02*
X162568000Y-79984800D01*
X162568000Y-79984800D02*
X163568000Y-79984800D01*
X163568000Y-78104800D02*
X163568000Y-78814800D01*
X163568000Y-79984800D02*
X163568000Y-79274800D01*
%TO.C,R9*%
X141164600Y-81188000D02*
X141164600Y-82188000D01*
X141164600Y-82188000D02*
X141874600Y-82188000D01*
X141874600Y-81188000D02*
X141164600Y-81188000D01*
X142334600Y-81188000D02*
X143044600Y-81188000D01*
X143044600Y-81188000D02*
X143044600Y-82188000D01*
X143044600Y-82188000D02*
X142334600Y-82188000D01*
%TO.C,R14*%
X148400000Y-104680000D02*
X148400000Y-105390000D01*
X148400000Y-106560000D02*
X148400000Y-105850000D01*
X149400000Y-104680000D02*
X148400000Y-104680000D01*
X149400000Y-105390000D02*
X149400000Y-104680000D01*
X149400000Y-105850000D02*
X149400000Y-106560000D01*
X149400000Y-106560000D02*
X148400000Y-106560000D01*
D12*
%TO.C,U1*%
X141950000Y-114550000D02*
X142350000Y-114550000D01*
X141950000Y-114950000D02*
X141950000Y-114550000D01*
X141950000Y-118850000D02*
X141950000Y-118450000D01*
X142350000Y-118850000D02*
X141950000Y-118850000D01*
X145850000Y-114550000D02*
X146250000Y-114550000D01*
X145850000Y-118850000D02*
X146250000Y-118850000D01*
X146250000Y-114550000D02*
X146250000Y-114950000D01*
X146250000Y-118850000D02*
X146250000Y-118450000D01*
D13*
%TO.C,C22*%
X157691200Y-100172600D02*
X157691200Y-99672600D01*
X157691200Y-101112600D02*
X157691200Y-100612600D01*
X157841200Y-99522600D02*
X158541200Y-99522600D01*
X158541200Y-101262600D02*
X157841200Y-101262600D01*
X158691200Y-99672600D02*
X158691200Y-100172600D01*
X158691200Y-100612600D02*
X158691200Y-101112600D01*
X157691200Y-99672600D02*
G75*
G02*
X157841200Y-99522600I150000J0D01*
G01*
X157841200Y-101262600D02*
G75*
G02*
X157691200Y-101112600I0J150000D01*
G01*
X158541200Y-99522600D02*
G75*
G02*
X158691200Y-99672600I0J-150000D01*
G01*
X158691200Y-101112600D02*
G75*
G02*
X158541200Y-101262600I-150000J0D01*
G01*
D14*
%TO.C,C10*%
X136740000Y-83318333D02*
X136740000Y-82518333D01*
X137850000Y-82208333D02*
X137050000Y-82208333D01*
X137850000Y-83628333D02*
X137050000Y-83628333D01*
X138410000Y-82208333D02*
X139210000Y-82208333D01*
X138410000Y-83628333D02*
X139210000Y-83628333D01*
X139520000Y-82518333D02*
X139520000Y-83318333D01*
X136740000Y-82518333D02*
G75*
G02*
X137050000Y-82208333I310000J0D01*
G01*
X137050000Y-83628333D02*
G75*
G02*
X136740000Y-83318333I0J310000D01*
G01*
X139210000Y-82208333D02*
G75*
G02*
X139520000Y-82518333I0J-310000D01*
G01*
X139520000Y-83318333D02*
G75*
G02*
X139210000Y-83628333I-310000J0D01*
G01*
D13*
%TO.C,R2*%
X136220000Y-101862000D02*
X136930000Y-101862000D01*
X136220000Y-102862000D02*
X136220000Y-101862000D01*
X136930000Y-102862000D02*
X136220000Y-102862000D01*
X137390000Y-102862000D02*
X138100000Y-102862000D01*
X138100000Y-101862000D02*
X137390000Y-101862000D01*
X138100000Y-102862000D02*
X138100000Y-101862000D01*
D14*
%TO.C,C32*%
X167596200Y-95345200D02*
X167596200Y-94545200D01*
X168706200Y-94235200D02*
X167906200Y-94235200D01*
X168706200Y-95655200D02*
X167906200Y-95655200D01*
X169266200Y-94235200D02*
X170066200Y-94235200D01*
X169266200Y-95655200D02*
X170066200Y-95655200D01*
X170376200Y-94545200D02*
X170376200Y-95345200D01*
X167596200Y-94545200D02*
G75*
G02*
X167906200Y-94235200I310000J0D01*
G01*
X167906200Y-95655200D02*
G75*
G02*
X167596200Y-95345200I0J310000D01*
G01*
X170066200Y-94235200D02*
G75*
G02*
X170376200Y-94545200I0J-310000D01*
G01*
X170376200Y-95345200D02*
G75*
G02*
X170066200Y-95655200I-310000J0D01*
G01*
D13*
%TO.C,C20*%
X142868400Y-76901600D02*
X142868400Y-76401600D01*
X142868400Y-77841600D02*
X142868400Y-77341600D01*
X143018400Y-76251600D02*
X143718400Y-76251600D01*
X143718400Y-77991600D02*
X143018400Y-77991600D01*
X143868400Y-76401600D02*
X143868400Y-76901600D01*
X143868400Y-77341600D02*
X143868400Y-77841600D01*
X142868400Y-76401600D02*
G75*
G02*
X143018400Y-76251600I150000J0D01*
G01*
X143018400Y-77991600D02*
G75*
G02*
X142868400Y-77841600I0J150000D01*
G01*
X143718400Y-76251600D02*
G75*
G02*
X143868400Y-76401600I0J-150000D01*
G01*
X143868400Y-77841600D02*
G75*
G02*
X143718400Y-77991600I-150000J0D01*
G01*
%TO.C,R3*%
X147340000Y-111410000D02*
X148660000Y-111410000D01*
X147340000Y-112370000D02*
X147340000Y-111410000D01*
X147340000Y-113230000D02*
X147340000Y-114190000D01*
X147340000Y-114190000D02*
X148660000Y-114190000D01*
X148660000Y-111410000D02*
X148660000Y-112370000D01*
X148660000Y-114190000D02*
X148660000Y-113230000D01*
%TO.C,C21*%
X164357000Y-78861400D02*
X164357000Y-78161400D01*
X164507000Y-78011400D02*
X165007000Y-78011400D01*
X165007000Y-79011400D02*
X164507000Y-79011400D01*
X165447000Y-78011400D02*
X165947000Y-78011400D01*
X165947000Y-79011400D02*
X165447000Y-79011400D01*
X166097000Y-78161400D02*
X166097000Y-78861400D01*
X164357000Y-78161400D02*
G75*
G02*
X164507000Y-78011400I150000J0D01*
G01*
X164507000Y-79011400D02*
G75*
G02*
X164357000Y-78861400I0J150000D01*
G01*
X165947000Y-78011400D02*
G75*
G02*
X166097000Y-78161400I0J-150000D01*
G01*
X166097000Y-78861400D02*
G75*
G02*
X165947000Y-79011400I-150000J0D01*
G01*
%TO.C,C2*%
X136188400Y-103982000D02*
X136188400Y-103282000D01*
X136338400Y-103132000D02*
X136838400Y-103132000D01*
X136838400Y-104132000D02*
X136338400Y-104132000D01*
X137278400Y-103132000D02*
X137778400Y-103132000D01*
X137778400Y-104132000D02*
X137278400Y-104132000D01*
X137928400Y-103282000D02*
X137928400Y-103982000D01*
X136188400Y-103282000D02*
G75*
G02*
X136338400Y-103132000I150000J0D01*
G01*
X136338400Y-104132000D02*
G75*
G02*
X136188400Y-103982000I0J150000D01*
G01*
X137778400Y-103132000D02*
G75*
G02*
X137928400Y-103282000I0J-150000D01*
G01*
X137928400Y-103982000D02*
G75*
G02*
X137778400Y-104132000I-150000J0D01*
G01*
%TO.C,R16*%
X168530000Y-83200000D02*
X168530000Y-84200000D01*
X168530000Y-84200000D02*
X169240000Y-84200000D01*
X169240000Y-83200000D02*
X168530000Y-83200000D01*
X169700000Y-83200000D02*
X170410000Y-83200000D01*
X170410000Y-83200000D02*
X170410000Y-84200000D01*
X170410000Y-84200000D02*
X169700000Y-84200000D01*
D14*
%TO.C,C8*%
X139110000Y-112000000D02*
X139110000Y-111200000D01*
X140220000Y-110890000D02*
X139420000Y-110890000D01*
X140220000Y-112310000D02*
X139420000Y-112310000D01*
X140780000Y-110890000D02*
X141580000Y-110890000D01*
X140780000Y-112310000D02*
X141580000Y-112310000D01*
X141890000Y-111200000D02*
X141890000Y-112000000D01*
X139110000Y-111200000D02*
G75*
G02*
X139420000Y-110890000I310000J0D01*
G01*
X139420000Y-112310000D02*
G75*
G02*
X139110000Y-112000000I0J310000D01*
G01*
X141580000Y-110890000D02*
G75*
G02*
X141890000Y-111200000I0J-310000D01*
G01*
X141890000Y-112000000D02*
G75*
G02*
X141580000Y-112310000I-310000J0D01*
G01*
D13*
%TO.C,SW1*%
X165102000Y-74660000D02*
X169162000Y-74660000D01*
X165102000Y-75090000D02*
X165102000Y-74660000D01*
X165102000Y-77740000D02*
X165102000Y-77310000D01*
X165102000Y-77740000D02*
X169162000Y-77740000D01*
X169162000Y-74660000D02*
X169162000Y-75090000D01*
X169162000Y-77740000D02*
X169162000Y-77310000D01*
D14*
X168032000Y-76200000D02*
G75*
G02*
X166232000Y-76200000I-900000J0D01*
G01*
X166232000Y-76200000D02*
G75*
G02*
X168032000Y-76200000I900000J0D01*
G01*
D13*
%TO.C,D5*%
X167220000Y-110900000D02*
X171180000Y-110900000D01*
X167220000Y-113500000D02*
X171180000Y-113500000D01*
X167730000Y-110900000D02*
X167730000Y-113500000D01*
X171180000Y-110900000D02*
X171180000Y-111090000D01*
X171180000Y-113500000D02*
X171180000Y-113310000D01*
%TO.C,R17*%
X150340000Y-112010000D02*
X151660000Y-112010000D01*
X150340000Y-112970000D02*
X150340000Y-112010000D01*
X150340000Y-113830000D02*
X150340000Y-114790000D01*
X150340000Y-114790000D02*
X151660000Y-114790000D01*
X151660000Y-112010000D02*
X151660000Y-112970000D01*
X151660000Y-114790000D02*
X151660000Y-113830000D01*
%TO.C,C14*%
X168826400Y-90902200D02*
X168826400Y-90202200D01*
X168976400Y-90052200D02*
X169476400Y-90052200D01*
X169476400Y-91052200D02*
X168976400Y-91052200D01*
X169916400Y-90052200D02*
X170416400Y-90052200D01*
X170416400Y-91052200D02*
X169916400Y-91052200D01*
X170566400Y-90202200D02*
X170566400Y-90902200D01*
X168826400Y-90202200D02*
G75*
G02*
X168976400Y-90052200I150000J0D01*
G01*
X168976400Y-91052200D02*
G75*
G02*
X168826400Y-90902200I0J150000D01*
G01*
X170416400Y-90052200D02*
G75*
G02*
X170566400Y-90202200I0J-150000D01*
G01*
X170566400Y-90902200D02*
G75*
G02*
X170416400Y-91052200I-150000J0D01*
G01*
%TO.C,LED1*%
X172318400Y-89970200D02*
X173798400Y-89970200D01*
X172318400Y-91120200D02*
X172318400Y-89970200D01*
X172318400Y-91500200D02*
X172318400Y-92550200D01*
X172618400Y-92850200D02*
X172318400Y-92550200D01*
X172718400Y-91140200D02*
X172728400Y-91140200D01*
X172718400Y-91140200D02*
X173398400Y-91140200D01*
X172718400Y-92850200D02*
X172618400Y-92850200D01*
X172718400Y-92850200D02*
X173418400Y-92850200D01*
X172728400Y-91140200D02*
X173068400Y-91480200D01*
X173068400Y-91140200D02*
X173068400Y-91480200D01*
X173398400Y-91140200D02*
X173398400Y-91150200D01*
X173398400Y-91150200D02*
X173068400Y-91480200D01*
X173418400Y-92850200D02*
X173518400Y-92850200D01*
X173518400Y-92850200D02*
X173818400Y-92550200D01*
X173818400Y-91120200D02*
X173818400Y-89970200D01*
X173818400Y-91500200D02*
X173818400Y-92550200D01*
%TD*%
M02*
