%TF.GenerationSoftware,KiCad,Pcbnew,9.0.7*%
%TF.CreationDate,2026-05-08T08:55:40+02:00*%
%TF.ProjectId,MiniMotorkontrollerV1,4d696e69-4d6f-4746-9f72-6b6f6e74726f,rev?*%
%TF.SameCoordinates,Original*%
%TF.FileFunction,Copper,L6,Bot*%
%TF.FilePolarity,Positive*%
%FSLAX46Y46*%
G04 Gerber Fmt 4.6, Leading zero omitted, Abs format (unit mm)*
G04 Created by KiCad (PCBNEW 9.0.7) date 2026-05-08 08:55:40*
%MOMM*%
%LPD*%
G01*
G04 APERTURE LIST*
%TA.AperFunction,ComponentPad*%
%ADD10C,2.000000*%
%TD*%
%TA.AperFunction,ComponentPad*%
%ADD11O,2.000000X1.200000*%
%TD*%
%TA.AperFunction,ComponentPad*%
%ADD12O,1.800000X1.200000*%
%TD*%
%TA.AperFunction,ComponentPad*%
%ADD13C,0.800000*%
%TD*%
%TA.AperFunction,ComponentPad*%
%ADD14C,6.400000*%
%TD*%
%TA.AperFunction,SMDPad,CuDef*%
%ADD15O,0.600000X1.890000*%
%TD*%
%TA.AperFunction,ViaPad*%
%ADD16C,0.600000*%
%TD*%
%TA.AperFunction,ViaPad*%
%ADD17C,1.200000*%
%TD*%
%TA.AperFunction,Conductor*%
%ADD18C,0.500000*%
%TD*%
%TA.AperFunction,Conductor*%
%ADD19C,0.300000*%
%TD*%
%TA.AperFunction,Conductor*%
%ADD20C,1.000000*%
%TD*%
%TA.AperFunction,Conductor*%
%ADD21C,0.200000*%
%TD*%
G04 APERTURE END LIST*
D10*
%TO.P,J2,1,A*%
%TO.N,Net-(J2-A)*%
X24200000Y-2540000D03*
%TO.P,J2,2,B*%
%TO.N,Net-(J2-B)*%
X24200000Y0D03*
%TO.P,J2,3,C*%
%TO.N,Net-(J2-C)*%
X24200000Y2540000D03*
%TD*%
%TO.P,J1,1*%
%TO.N,+VCC_DC*%
X24250000Y-10630000D03*
%TO.P,J1,2*%
%TO.N,GND*%
X24250000Y-13170000D03*
%TD*%
D11*
%TO.P,USBC1,1,EH*%
%TO.N,GND*%
X-20157500Y-4264000D03*
D12*
%TO.P,USBC1,2,EH*%
X-24337500Y-4264000D03*
%TO.P,USBC1,3,EH*%
X-24337500Y4396000D03*
D11*
%TO.P,USBC1,4,EH*%
X-20157500Y4396000D03*
%TD*%
%TO.P,USBC2,1,EH*%
%TO.N,GND*%
X-20204000Y-15264000D03*
D12*
%TO.P,USBC2,2,EH*%
X-24384000Y-15264000D03*
%TO.P,USBC2,3,EH*%
X-24384000Y-6604000D03*
D11*
%TO.P,USBC2,4,EH*%
X-20204000Y-6604000D03*
%TD*%
D13*
%TO.P,H4,1,MP*%
%TO.N,MOUNTING_PIN*%
X-24900000Y-22500000D03*
X-24197056Y-20802944D03*
X-24197056Y-24197056D03*
X-22500000Y-20100000D03*
D14*
X-22500000Y-22500000D03*
D13*
X-22500000Y-24900000D03*
X-20802944Y-20802944D03*
X-20802944Y-24197056D03*
X-20100000Y-22500000D03*
%TD*%
%TO.P,H1,1,MP*%
%TO.N,MOUNTING_PIN*%
X-24900000Y22500000D03*
X-24197056Y24197056D03*
X-24197056Y20802944D03*
X-22500000Y24900000D03*
D14*
X-22500000Y22500000D03*
D13*
X-22500000Y20100000D03*
X-20802944Y24197056D03*
X-20802944Y20802944D03*
X-20100000Y22500000D03*
%TD*%
%TO.P,H3,1,MP*%
%TO.N,MOUNTING_PIN*%
X20100000Y-22500000D03*
X20802944Y-20802944D03*
X20802944Y-24197056D03*
X22500000Y-20100000D03*
D14*
X22500000Y-22500000D03*
D13*
X22500000Y-24900000D03*
X24197056Y-20802944D03*
X24197056Y-24197056D03*
X24900000Y-22500000D03*
%TD*%
%TO.P,H2,1,MP*%
%TO.N,MOUNTING_PIN*%
X20100000Y22500000D03*
X20802944Y24197056D03*
X20802944Y20802944D03*
X22500000Y24900000D03*
D14*
X22500000Y22500000D03*
D13*
X22500000Y20100000D03*
X24197056Y24197056D03*
X24197056Y20802944D03*
X24900000Y22500000D03*
%TD*%
D15*
%TO.P,U3,1,COS_P*%
%TO.N,COS_P*%
X1910000Y-2740000D03*
%TO.P,U3,2,COS_N*%
%TO.N,COS_N*%
X630000Y-2740000D03*
%TO.P,U3,3,GND2*%
%TO.N,GND*%
X-630000Y-2740000D03*
%TO.P,U3,4,GND1*%
X-1900000Y-2740000D03*
%TO.P,U3,5,VGMR*%
%TO.N,ENK_Vgmr*%
X-1900000Y2740000D03*
%TO.P,U3,6,VDD*%
%TO.N,+3V3*%
X-630000Y2740000D03*
%TO.P,U3,7,SIN_N*%
%TO.N,SIN_N*%
X630000Y2740000D03*
%TO.P,U3,8,SIN_P*%
%TO.N,SIN_P*%
X1910000Y2740000D03*
%TD*%
D16*
%TO.N,GND*%
X16967200Y1066800D03*
D17*
X-3149600Y19507200D03*
D16*
X19800707Y12599293D03*
X-3403600Y25603200D03*
X13131800Y-7975600D03*
X26000000Y8100000D03*
X-6000000Y-17900000D03*
X6096000Y22910800D03*
X17100000Y-15900000D03*
X17627600Y5207000D03*
X50800Y25552400D03*
X-18100000Y-7400000D03*
X18100000Y23100000D03*
X20700000Y7900000D03*
X-23750000Y5800000D03*
X-812800Y25603200D03*
X-5943600Y25552400D03*
X4400000Y-14100000D03*
X-16357600Y14833600D03*
X26600000Y-8500000D03*
X-5943600Y24638000D03*
X-9100000Y8400000D03*
X-15595600Y20320000D03*
X-1905000Y-4343400D03*
X-10566400Y8636000D03*
X-16256000Y18643600D03*
X8280400Y26670000D03*
X-13800000Y-10000000D03*
X16916400Y-1041400D03*
X22750000Y1300000D03*
X-15900000Y-14500000D03*
X-14800000Y11600000D03*
X5130800Y25603200D03*
X-21000000Y10000000D03*
X-9600000Y-20900000D03*
X-8128000Y26670000D03*
X-4267200Y25603200D03*
X-4800000Y-16100000D03*
X-2600000Y-15800000D03*
X-21000000Y18100000D03*
X100000Y-9600000D03*
X-24050000Y-16650000D03*
X3000000Y2800000D03*
X-1400000Y-20900000D03*
X18592800Y6654800D03*
X-5080000Y25603200D03*
D17*
X3149600Y19558000D03*
D16*
X-13800000Y-8350000D03*
X10617200Y-3327400D03*
D17*
X3149600Y21183600D03*
D16*
X-9100000Y10800000D03*
X4400000Y-9600000D03*
X-19944907Y6405093D03*
X8432800Y-3098800D03*
D17*
X-50800Y22504400D03*
D16*
X1727200Y25552400D03*
X24000000Y8200000D03*
X2590800Y25603200D03*
X14100000Y20600000D03*
X18897600Y-6477000D03*
X-11550000Y-19800000D03*
X-13800000Y-15400000D03*
X-7112000Y11430000D03*
X-4600000Y-18000000D03*
X-2540000Y25603200D03*
X-13850000Y-11650000D03*
X-2600000Y-14100000D03*
X-9600000Y-25800000D03*
D17*
X0Y16357600D03*
D16*
X5200000Y-2200000D03*
X20490000Y1280000D03*
X-2600000Y-17500000D03*
X-20167600Y-5435600D03*
X-18750000Y25250000D03*
X-18200000Y-14500000D03*
X4267200Y25603200D03*
X15570200Y-2717800D03*
X-16200000Y4450000D03*
D17*
X1625600Y22453600D03*
D16*
X-19700000Y-16550000D03*
X14224000Y23063200D03*
X-18750000Y24000000D03*
X11500000Y10500000D03*
X-14450000Y-23050000D03*
X-18669000Y4064000D03*
X12400000Y18700000D03*
X-9100000Y25700000D03*
D17*
X-1625600Y16357600D03*
D16*
X100000Y-14100000D03*
X18600000Y-16800000D03*
X863600Y25552400D03*
X8940800Y20193000D03*
X-15850000Y-17550000D03*
X-1676400Y25603200D03*
X-18200000Y-3800000D03*
X22650000Y-1250000D03*
X3000000Y2000000D03*
D17*
X1676400Y16306800D03*
X24800000Y-15600000D03*
X3098800Y17780000D03*
D16*
X20520000Y-1280000D03*
D17*
X-3149600Y17830800D03*
D16*
X5943600Y25603200D03*
X-7100000Y8400000D03*
X19500000Y-4700000D03*
X-16459200Y-6248400D03*
X7112000Y11430000D03*
X-16306800Y16764000D03*
X16300000Y19100000D03*
X-15500000Y9100000D03*
X26600000Y-4700000D03*
X-13716000Y-762000D03*
X-609600Y-4368800D03*
X4400000Y-5600000D03*
X-10650000Y26800000D03*
X19500000Y-8500000D03*
X5867400Y-8737600D03*
X13950000Y7250000D03*
X-13716000Y1778000D03*
X6096000Y23774400D03*
X-16357600Y12954000D03*
X-17400000Y-18350000D03*
X-13817600Y8788400D03*
X-13919200Y-2032000D03*
X-26600000Y10000000D03*
X-24333200Y-5435600D03*
X-1400000Y-25800000D03*
D17*
X-1625600Y22504400D03*
D16*
X3454400Y25603200D03*
X18440400Y25374600D03*
X-17200000Y11600000D03*
D17*
X-3149600Y21132800D03*
D16*
X-12192000Y8686800D03*
X-26600000Y18100000D03*
D17*
%TO.N,+VCC_USBCPD*%
X-17200000Y-8550000D03*
D16*
X-9709620Y-8909620D03*
X-9850000Y-12450000D03*
D17*
X-17000000Y-13584000D03*
%TO.N,+VCC_USBC*%
X-17653000Y2667000D03*
X-17145000Y-2032000D03*
%TO.N,+3V3*%
X10668000Y20828000D03*
X-11800000Y23050000D03*
D16*
X-200000Y4050000D03*
D17*
X25400000Y16900000D03*
D16*
X-8850000Y-11550000D03*
X-8250000Y22000000D03*
X6731000Y0D03*
D17*
%TO.N,+VCC*%
X14960600Y-4445000D03*
X4000000Y-7380000D03*
X20100000Y15400000D03*
X12700000Y-11350000D03*
X-26035000Y8026400D03*
X13589000Y-4419600D03*
D16*
%TO.N,ENK_Vgmr*%
X-9700000Y2807254D03*
X-2700000Y3000000D03*
%TO.N,CC1*%
X-12650000Y-17100000D03*
X-12100000Y-13650000D03*
%TO.N,PWM_LA*%
X-3400000Y11330000D03*
X11244740Y4161897D03*
%TO.N,Net-(IC1-SOC)*%
X-6807200Y7162800D03*
X6807200Y-939800D03*
%TO.N,PWM_LC*%
X-8330000Y13150000D03*
X8332510Y3252955D03*
%TO.N,Net-(IC1-SOB)*%
X6858000Y-1828800D03*
X-7354623Y6382600D03*
%TO.N,PWM_HB*%
X10650000Y3594099D03*
X-4250000Y11340000D03*
%TO.N,PWM_LB*%
X9850132Y3608754D03*
X-5100000Y11330000D03*
%TO.N,CTR_nSLEEP*%
X14046200Y3657600D03*
X8585200Y15087600D03*
%TO.N,CTR_nFAULT*%
X14909800Y3505200D03*
X8636000Y15976600D03*
%TO.N,Net-(IC1-SOA)*%
X7226255Y-2539006D03*
X-6726260Y5773554D03*
%TO.N,PWM_HC*%
X-5950000Y11340000D03*
X9050132Y3606540D03*
%TO.N,CTR_DRVOFF*%
X8686800Y16789400D03*
X15646400Y3073400D03*
%TO.N,PWM_HA*%
X12089754Y4178057D03*
X-2550000Y11350000D03*
%TO.N,MCURST*%
X-11240000Y-16340000D03*
X-11100000Y-700000D03*
%TO.N,SIN_N*%
X965200Y4343400D03*
X-8600000Y3300000D03*
%TO.N,SIN_P*%
X-7985816Y3860479D03*
X2209800Y4089400D03*
%TO.N,COS_P*%
X-7973230Y4660379D03*
X2641600Y-4191000D03*
%TO.N,COS_N*%
X1371600Y-4292600D03*
X-7264400Y5181600D03*
%TO.N,Net-(U2-FB)*%
X15300000Y15000000D03*
X18700000Y17800000D03*
%TO.N,MCUSDA*%
X-11900000Y2549600D03*
X-9300000Y-18500000D03*
%TO.N,MCUSCL*%
X-12000000Y1600000D03*
X-10300000Y-17900000D03*
%TO.N,Net-(Q1-G)*%
X-4750000Y-7650000D03*
X-3200000Y-5600000D03*
%TD*%
D18*
%TO.N,GND*%
X-1900000Y-4338400D02*
X-1905000Y-4343400D01*
X-630000Y-4348400D02*
X-609600Y-4368800D01*
X-630000Y-2740000D02*
X-630000Y-4348400D01*
X-1900000Y-2740000D02*
X-1900000Y-4338400D01*
D19*
%TO.N,+VCC_USBCPD*%
X-9709620Y-8909620D02*
X-9709620Y-12309620D01*
D20*
X-17200000Y-8550000D02*
X-17600000Y-8950000D01*
D19*
X-9709620Y-12309620D02*
X-9850000Y-12450000D01*
D20*
X-17600000Y-12984000D02*
X-17000000Y-13584000D01*
X-17600000Y-8950000D02*
X-17600000Y-12984000D01*
%TO.N,+VCC_USBC*%
X-17145000Y-2032000D02*
X-17145000Y1905000D01*
X-17145000Y2159000D02*
X-17653000Y2667000D01*
X-17145000Y1905000D02*
X-17145000Y2159000D01*
D19*
%TO.N,+3V3*%
X-630000Y3749346D02*
X-630000Y2740000D01*
D18*
X-609600Y2760400D02*
X-630000Y2740000D01*
D19*
X-200000Y4050000D02*
X-329346Y4050000D01*
X-329346Y4050000D02*
X-630000Y3749346D01*
%TO.N,ENK_Vgmr*%
X-2700000Y3000000D02*
X-2400000Y2700000D01*
X-1940000Y2700000D02*
X-1900000Y2740000D01*
X-2400000Y2700000D02*
X-1940000Y2700000D01*
%TO.N,CC1*%
X-12100000Y-16550000D02*
X-12100000Y-13650000D01*
X-12650000Y-17100000D02*
X-12100000Y-16550000D01*
%TO.N,SIN_N*%
X630000Y4008200D02*
X965200Y4343400D01*
X630000Y2740000D02*
X630000Y4008200D01*
%TO.N,SIN_P*%
X1910000Y2740000D02*
X1910000Y3789600D01*
X1910000Y3789600D02*
X2209800Y4089400D01*
%TO.N,COS_P*%
X1910000Y-2740000D02*
X1910000Y-3459400D01*
X1910000Y-3459400D02*
X2641600Y-4191000D01*
%TO.N,COS_N*%
X630000Y-3551000D02*
X1371600Y-4292600D01*
X630000Y-2740000D02*
X630000Y-3551000D01*
D21*
%TO.N,Net-(U2-FB)*%
X15300000Y15000000D02*
X18100000Y17800000D01*
X18100000Y17800000D02*
X18700000Y17800000D01*
D19*
%TO.N,Net-(Q1-G)*%
X-3200000Y-5600000D02*
X-3200000Y-6100000D01*
X-3200000Y-6100000D02*
X-4750000Y-7650000D01*
%TD*%
%TA.AperFunction,Conductor*%
%TO.N,GND*%
G36*
X-19907500Y-5406138D02*
G01*
X-19927185Y-5473177D01*
X-19943819Y-5493819D01*
X-19954000Y-5504000D01*
X-19954000Y-6204001D01*
X-20454000Y-6204001D01*
X-20454000Y-5461862D01*
X-20445356Y-5432421D01*
X-20438832Y-5402435D01*
X-20435078Y-5397419D01*
X-20434315Y-5394823D01*
X-20417681Y-5374181D01*
X-20407500Y-5364000D01*
X-20407500Y-4663999D01*
X-19907500Y-4663999D01*
X-19907500Y-5406138D01*
G37*
%TD.AperFunction*%
%TA.AperFunction,Conductor*%
G36*
X-24087500Y-5406138D02*
G01*
X-24107185Y-5473177D01*
X-24123819Y-5493819D01*
X-24134000Y-5504000D01*
X-24134000Y-6204001D01*
X-24634000Y-6204001D01*
X-24634000Y-5461862D01*
X-24625356Y-5432421D01*
X-24618832Y-5402435D01*
X-24615078Y-5397419D01*
X-24614315Y-5394823D01*
X-24597681Y-5374181D01*
X-24587500Y-5364000D01*
X-24587500Y-4663999D01*
X-24087500Y-4663999D01*
X-24087500Y-5406138D01*
G37*
%TD.AperFunction*%
%TA.AperFunction,Conductor*%
G36*
X22502702Y27299383D02*
G01*
X22912917Y27281472D01*
X22923654Y27280532D01*
X23328057Y27227292D01*
X23338695Y27225417D01*
X23736925Y27137131D01*
X23747365Y27134333D01*
X24136363Y27011683D01*
X24146524Y27007985D01*
X24523363Y26851892D01*
X24533155Y26847326D01*
X24894965Y26658980D01*
X24904305Y26653587D01*
X25189636Y26471811D01*
X25248309Y26434432D01*
X25257170Y26428228D01*
X25580766Y26179924D01*
X25589053Y26172970D01*
X25889767Y25897417D01*
X25897416Y25889768D01*
X26172969Y25589054D01*
X26179923Y25580767D01*
X26428227Y25257171D01*
X26434431Y25248310D01*
X26436417Y25245193D01*
X26600199Y24988107D01*
X26653578Y24904320D01*
X26658987Y24894952D01*
X26847322Y24533162D01*
X26851894Y24523358D01*
X27007983Y24146527D01*
X27011683Y24136361D01*
X27134331Y23747370D01*
X27137131Y23736922D01*
X27225414Y23338704D01*
X27227292Y23328050D01*
X27280529Y22923674D01*
X27281472Y22912898D01*
X27299382Y22502703D01*
X27299500Y22497294D01*
X27299500Y-22497293D01*
X27299382Y-22502702D01*
X27281472Y-22912897D01*
X27280529Y-22923673D01*
X27227292Y-23328049D01*
X27225414Y-23338703D01*
X27137131Y-23736921D01*
X27134331Y-23747369D01*
X27011683Y-24136360D01*
X27007983Y-24146526D01*
X26851894Y-24523357D01*
X26847322Y-24533161D01*
X26658987Y-24894951D01*
X26653578Y-24904319D01*
X26434431Y-25248309D01*
X26428227Y-25257170D01*
X26179923Y-25580766D01*
X26172969Y-25589053D01*
X25897416Y-25889767D01*
X25889767Y-25897416D01*
X25589053Y-26172969D01*
X25580766Y-26179923D01*
X25257170Y-26428227D01*
X25248309Y-26434431D01*
X24904319Y-26653578D01*
X24894951Y-26658987D01*
X24533161Y-26847322D01*
X24523357Y-26851894D01*
X24146526Y-27007983D01*
X24136360Y-27011683D01*
X23747369Y-27134331D01*
X23736921Y-27137131D01*
X23338703Y-27225414D01*
X23328049Y-27227292D01*
X22923673Y-27280529D01*
X22912897Y-27281472D01*
X22502703Y-27299382D01*
X22497294Y-27299500D01*
X-22497294Y-27299500D01*
X-22502703Y-27299382D01*
X-22912898Y-27281472D01*
X-22923674Y-27280529D01*
X-23328050Y-27227292D01*
X-23338704Y-27225414D01*
X-23736922Y-27137131D01*
X-23747370Y-27134331D01*
X-24136361Y-27011683D01*
X-24146527Y-27007983D01*
X-24523358Y-26851894D01*
X-24533162Y-26847322D01*
X-24652874Y-26785004D01*
X-24894958Y-26658983D01*
X-24904314Y-26653582D01*
X-25076315Y-26544004D01*
X-25248310Y-26434431D01*
X-25257171Y-26428227D01*
X-25580767Y-26179923D01*
X-25589054Y-26172969D01*
X-25889768Y-25897416D01*
X-25897417Y-25889767D01*
X-26172970Y-25589053D01*
X-26179924Y-25580766D01*
X-26428228Y-25257170D01*
X-26434432Y-25248309D01*
X-26487930Y-25164334D01*
X-26653587Y-24904305D01*
X-26658980Y-24894965D01*
X-26847326Y-24533155D01*
X-26851895Y-24523357D01*
X-26901029Y-24404738D01*
X-27007985Y-24146524D01*
X-27011684Y-24136360D01*
X-27134332Y-23747369D01*
X-27137132Y-23736921D01*
X-27211776Y-23400223D01*
X-27225417Y-23338695D01*
X-27227293Y-23328049D01*
X-27280532Y-22923654D01*
X-27281472Y-22912917D01*
X-27299382Y-22502702D01*
X-27299500Y-22497293D01*
X-27299500Y-22318209D01*
X-26200500Y-22318209D01*
X-26200500Y-22681790D01*
X-26164863Y-23043630D01*
X-26093936Y-23400212D01*
X-26093933Y-23400223D01*
X-25988386Y-23748165D01*
X-25849246Y-24084078D01*
X-25849244Y-24084083D01*
X-25677860Y-24404720D01*
X-25677849Y-24404738D01*
X-25475860Y-24707035D01*
X-25475850Y-24707049D01*
X-25245193Y-24988106D01*
X-24988107Y-25245192D01*
X-24988102Y-25245196D01*
X-24988101Y-25245197D01*
X-24707044Y-25475854D01*
X-24404732Y-25677853D01*
X-24404723Y-25677858D01*
X-24404721Y-25677859D01*
X-24084084Y-25849243D01*
X-24084082Y-25849243D01*
X-24084076Y-25849247D01*
X-23748164Y-25988386D01*
X-23400233Y-26093930D01*
X-23400227Y-26093931D01*
X-23400224Y-26093932D01*
X-23400213Y-26093935D01*
X-23043631Y-26164862D01*
X-22681794Y-26200500D01*
X-22681791Y-26200500D01*
X-22318209Y-26200500D01*
X-22318206Y-26200500D01*
X-21956369Y-26164862D01*
X-21886955Y-26151054D01*
X-21599788Y-26093935D01*
X-21599777Y-26093932D01*
X-21599777Y-26093931D01*
X-21599767Y-26093930D01*
X-21251836Y-25988386D01*
X-20915924Y-25849247D01*
X-20595268Y-25677853D01*
X-20292956Y-25475854D01*
X-20011899Y-25245197D01*
X-19754803Y-24988101D01*
X-19524146Y-24707044D01*
X-19322147Y-24404732D01*
X-19150753Y-24084076D01*
X-19011614Y-23748164D01*
X-18906070Y-23400233D01*
X-18906068Y-23400223D01*
X-18906065Y-23400212D01*
X-18835138Y-23043630D01*
X-18823323Y-22923673D01*
X-18799500Y-22681794D01*
X-18799500Y-22318209D01*
X18799500Y-22318209D01*
X18799500Y-22681790D01*
X18835137Y-23043630D01*
X18906064Y-23400212D01*
X18906067Y-23400223D01*
X19011614Y-23748165D01*
X19150754Y-24084078D01*
X19150756Y-24084083D01*
X19322140Y-24404720D01*
X19322151Y-24404738D01*
X19524140Y-24707035D01*
X19524150Y-24707049D01*
X19754807Y-24988106D01*
X20011893Y-25245192D01*
X20011898Y-25245196D01*
X20011899Y-25245197D01*
X20292956Y-25475854D01*
X20595268Y-25677853D01*
X20595277Y-25677858D01*
X20595279Y-25677859D01*
X20915916Y-25849243D01*
X20915918Y-25849243D01*
X20915924Y-25849247D01*
X21251836Y-25988386D01*
X21599767Y-26093930D01*
X21599773Y-26093931D01*
X21599776Y-26093932D01*
X21599787Y-26093935D01*
X21956369Y-26164862D01*
X22318206Y-26200500D01*
X22318209Y-26200500D01*
X22681791Y-26200500D01*
X22681794Y-26200500D01*
X23043631Y-26164862D01*
X23113045Y-26151054D01*
X23400212Y-26093935D01*
X23400223Y-26093932D01*
X23400223Y-26093931D01*
X23400233Y-26093930D01*
X23748164Y-25988386D01*
X24084076Y-25849247D01*
X24404732Y-25677853D01*
X24707044Y-25475854D01*
X24988101Y-25245197D01*
X25245197Y-24988101D01*
X25475854Y-24707044D01*
X25677853Y-24404732D01*
X25849247Y-24084076D01*
X25988386Y-23748164D01*
X26093930Y-23400233D01*
X26093932Y-23400223D01*
X26093935Y-23400212D01*
X26164862Y-23043630D01*
X26176677Y-22923673D01*
X26200500Y-22681794D01*
X26200500Y-22318206D01*
X26164862Y-21956369D01*
X26093935Y-21599787D01*
X26093932Y-21599776D01*
X26093931Y-21599773D01*
X26093930Y-21599767D01*
X25988386Y-21251836D01*
X25849247Y-20915924D01*
X25677853Y-20595268D01*
X25475854Y-20292956D01*
X25245197Y-20011899D01*
X25245196Y-20011898D01*
X25245192Y-20011893D01*
X24988106Y-19754807D01*
X24707049Y-19524150D01*
X24707048Y-19524149D01*
X24707044Y-19524146D01*
X24404732Y-19322147D01*
X24404727Y-19322144D01*
X24404720Y-19322140D01*
X24084083Y-19150756D01*
X24084078Y-19150754D01*
X24014150Y-19121789D01*
X23985690Y-19110000D01*
X23748165Y-19011614D01*
X23400223Y-18906067D01*
X23400212Y-18906064D01*
X23043630Y-18835137D01*
X22771111Y-18808296D01*
X22681794Y-18799500D01*
X22318206Y-18799500D01*
X22235679Y-18807628D01*
X21956369Y-18835137D01*
X21599787Y-18906064D01*
X21599776Y-18906067D01*
X21251834Y-19011614D01*
X20915921Y-19150754D01*
X20915916Y-19150756D01*
X20595279Y-19322140D01*
X20595261Y-19322151D01*
X20292964Y-19524140D01*
X20292950Y-19524150D01*
X20011893Y-19754807D01*
X19754807Y-20011893D01*
X19524150Y-20292950D01*
X19524140Y-20292964D01*
X19322151Y-20595261D01*
X19322140Y-20595279D01*
X19150756Y-20915916D01*
X19150754Y-20915921D01*
X19011614Y-21251834D01*
X18906067Y-21599776D01*
X18906064Y-21599787D01*
X18835137Y-21956369D01*
X18799500Y-22318209D01*
X-18799500Y-22318209D01*
X-18799500Y-22318206D01*
X-18835138Y-21956369D01*
X-18906065Y-21599787D01*
X-18906068Y-21599776D01*
X-18906069Y-21599773D01*
X-18906070Y-21599767D01*
X-19011614Y-21251836D01*
X-19150753Y-20915924D01*
X-19322147Y-20595268D01*
X-19524146Y-20292956D01*
X-19754803Y-20011899D01*
X-19754804Y-20011898D01*
X-19754808Y-20011893D01*
X-20011894Y-19754807D01*
X-20292951Y-19524150D01*
X-20292952Y-19524149D01*
X-20292956Y-19524146D01*
X-20595268Y-19322147D01*
X-20595273Y-19322144D01*
X-20595280Y-19322140D01*
X-20915917Y-19150756D01*
X-20915922Y-19150754D01*
X-20985850Y-19121789D01*
X-21014310Y-19110000D01*
X-21251835Y-19011614D01*
X-21599777Y-18906067D01*
X-21599788Y-18906064D01*
X-21956370Y-18835137D01*
X-22228889Y-18808296D01*
X-22318206Y-18799500D01*
X-22681794Y-18799500D01*
X-22764321Y-18807628D01*
X-23043631Y-18835137D01*
X-23400213Y-18906064D01*
X-23400224Y-18906067D01*
X-23748166Y-19011614D01*
X-24084079Y-19150754D01*
X-24084084Y-19150756D01*
X-24404721Y-19322140D01*
X-24404739Y-19322151D01*
X-24707036Y-19524140D01*
X-24707050Y-19524150D01*
X-24988107Y-19754807D01*
X-25245193Y-20011893D01*
X-25475850Y-20292950D01*
X-25475860Y-20292964D01*
X-25677849Y-20595261D01*
X-25677860Y-20595279D01*
X-25849244Y-20915916D01*
X-25849246Y-20915921D01*
X-25988386Y-21251834D01*
X-26093933Y-21599776D01*
X-26093936Y-21599787D01*
X-26164863Y-21956369D01*
X-26200500Y-22318209D01*
X-27299500Y-22318209D01*
X-27299500Y-17021153D01*
X-13450500Y-17021153D01*
X-13450500Y-17178846D01*
X-13419739Y-17333489D01*
X-13419736Y-17333501D01*
X-13359398Y-17479172D01*
X-13359391Y-17479185D01*
X-13271790Y-17610288D01*
X-13271787Y-17610292D01*
X-13160293Y-17721786D01*
X-13160289Y-17721789D01*
X-13029186Y-17809390D01*
X-13029173Y-17809397D01*
X-12883502Y-17869735D01*
X-12883497Y-17869737D01*
X-12728847Y-17900499D01*
X-12728844Y-17900500D01*
X-12728842Y-17900500D01*
X-12571156Y-17900500D01*
X-12571155Y-17900499D01*
X-12416503Y-17869737D01*
X-12270821Y-17809394D01*
X-12139711Y-17721789D01*
X-12028211Y-17610289D01*
X-11940606Y-17479179D01*
X-11880263Y-17333497D01*
X-11866921Y-17266416D01*
X-11858156Y-17249661D01*
X-11854136Y-17231183D01*
X-11835394Y-17206146D01*
X-11834537Y-17204509D01*
X-11833041Y-17202985D01*
X-11720382Y-17090326D01*
X-11659061Y-17056843D01*
X-11589369Y-17061827D01*
X-11585251Y-17063448D01*
X-11473502Y-17109735D01*
X-11473497Y-17109737D01*
X-11370301Y-17130264D01*
X-11318847Y-17140499D01*
X-11318844Y-17140500D01*
X-11318842Y-17140500D01*
X-11161156Y-17140500D01*
X-11161155Y-17140499D01*
X-11006503Y-17109737D01*
X-10959879Y-17090424D01*
X-10890412Y-17082956D01*
X-10827933Y-17114231D01*
X-10792280Y-17174319D01*
X-10794773Y-17244144D01*
X-10824746Y-17292667D01*
X-10921790Y-17389711D01*
X-11009391Y-17520814D01*
X-11009398Y-17520827D01*
X-11069736Y-17666498D01*
X-11069739Y-17666510D01*
X-11100500Y-17821153D01*
X-11100500Y-17978846D01*
X-11069739Y-18133489D01*
X-11069736Y-18133501D01*
X-11009398Y-18279172D01*
X-11009391Y-18279185D01*
X-10921790Y-18410288D01*
X-10921787Y-18410292D01*
X-10810293Y-18521786D01*
X-10810289Y-18521789D01*
X-10679186Y-18609390D01*
X-10679173Y-18609397D01*
X-10533502Y-18669735D01*
X-10533497Y-18669737D01*
X-10406301Y-18695038D01*
X-10378847Y-18700499D01*
X-10378844Y-18700500D01*
X-10378842Y-18700500D01*
X-10221159Y-18700500D01*
X-10221158Y-18700500D01*
X-10193701Y-18695038D01*
X-10124112Y-18701264D01*
X-10068933Y-18744125D01*
X-10054948Y-18769202D01*
X-10009396Y-18879176D01*
X-10009391Y-18879185D01*
X-9921790Y-19010288D01*
X-9921787Y-19010292D01*
X-9810293Y-19121786D01*
X-9810289Y-19121789D01*
X-9679186Y-19209390D01*
X-9679173Y-19209397D01*
X-9533502Y-19269735D01*
X-9533497Y-19269737D01*
X-9378847Y-19300499D01*
X-9378844Y-19300500D01*
X-9378842Y-19300500D01*
X-9221156Y-19300500D01*
X-9221155Y-19300499D01*
X-9066503Y-19269737D01*
X-8920821Y-19209394D01*
X-8789711Y-19121789D01*
X-8678211Y-19010289D01*
X-8590606Y-18879179D01*
X-8530263Y-18733497D01*
X-8499500Y-18578842D01*
X-8499500Y-18421158D01*
X-8499500Y-18421155D01*
X-8499501Y-18421153D01*
X-8501662Y-18410288D01*
X-8530263Y-18266503D01*
X-8530265Y-18266498D01*
X-8590603Y-18120827D01*
X-8590610Y-18120814D01*
X-8678211Y-17989711D01*
X-8678214Y-17989707D01*
X-8789708Y-17878213D01*
X-8789712Y-17878210D01*
X-8920815Y-17790609D01*
X-8920828Y-17790602D01*
X-9066499Y-17730264D01*
X-9066511Y-17730261D01*
X-9221155Y-17699500D01*
X-9221158Y-17699500D01*
X-9378842Y-17699500D01*
X-9406302Y-17704962D01*
X-9475894Y-17698733D01*
X-9531071Y-17655870D01*
X-9545053Y-17630796D01*
X-9590603Y-17520827D01*
X-9590610Y-17520814D01*
X-9678211Y-17389711D01*
X-9678214Y-17389707D01*
X-9789708Y-17278213D01*
X-9789712Y-17278210D01*
X-9920815Y-17190609D01*
X-9920828Y-17190602D01*
X-10066499Y-17130264D01*
X-10066511Y-17130261D01*
X-10221155Y-17099500D01*
X-10221158Y-17099500D01*
X-10378842Y-17099500D01*
X-10378845Y-17099500D01*
X-10533490Y-17130261D01*
X-10533498Y-17130263D01*
X-10580122Y-17149575D01*
X-10649592Y-17157042D01*
X-10712070Y-17125766D01*
X-10747722Y-17065677D01*
X-10745227Y-16995852D01*
X-10715256Y-16947333D01*
X-10618211Y-16850289D01*
X-10530606Y-16719179D01*
X-10470263Y-16573497D01*
X-10439500Y-16418842D01*
X-10439500Y-16261158D01*
X-10439500Y-16261155D01*
X-10439501Y-16261153D01*
X-10470262Y-16106510D01*
X-10470263Y-16106503D01*
X-10471701Y-16103032D01*
X-10530603Y-15960827D01*
X-10530610Y-15960814D01*
X-10618211Y-15829711D01*
X-10618214Y-15829707D01*
X-10729708Y-15718213D01*
X-10729712Y-15718210D01*
X-10860815Y-15630609D01*
X-10860828Y-15630602D01*
X-11006499Y-15570264D01*
X-11006511Y-15570261D01*
X-11161155Y-15539500D01*
X-11161158Y-15539500D01*
X-11318842Y-15539500D01*
X-11324934Y-15539500D01*
X-11324934Y-15536791D01*
X-11382136Y-15525865D01*
X-11432784Y-15477734D01*
X-11449500Y-15415555D01*
X-11449500Y-14154935D01*
X-11429815Y-14087896D01*
X-11428634Y-14086090D01*
X-11390606Y-14029179D01*
X-11330263Y-13883497D01*
X-11299500Y-13728842D01*
X-11299500Y-13571158D01*
X-11299500Y-13571155D01*
X-11299501Y-13571153D01*
X-11330263Y-13416503D01*
X-11330265Y-13416498D01*
X-11390603Y-13270827D01*
X-11390610Y-13270814D01*
X-11478211Y-13139711D01*
X-11478214Y-13139707D01*
X-11589708Y-13028213D01*
X-11589712Y-13028210D01*
X-11720815Y-12940609D01*
X-11720828Y-12940602D01*
X-11866499Y-12880264D01*
X-11866511Y-12880261D01*
X-12021155Y-12849500D01*
X-12021158Y-12849500D01*
X-12178842Y-12849500D01*
X-12178845Y-12849500D01*
X-12333490Y-12880261D01*
X-12333502Y-12880264D01*
X-12479173Y-12940602D01*
X-12479186Y-12940609D01*
X-12610289Y-13028210D01*
X-12610293Y-13028213D01*
X-12721787Y-13139707D01*
X-12721790Y-13139711D01*
X-12809391Y-13270814D01*
X-12809398Y-13270827D01*
X-12869736Y-13416498D01*
X-12869739Y-13416510D01*
X-12900500Y-13571153D01*
X-12900500Y-13728846D01*
X-12869739Y-13883489D01*
X-12869736Y-13883501D01*
X-12809398Y-14029172D01*
X-12809394Y-14029179D01*
X-12771398Y-14086044D01*
X-12750520Y-14152721D01*
X-12750500Y-14154935D01*
X-12750500Y-16202043D01*
X-12770185Y-16269082D01*
X-12822989Y-16314837D01*
X-12850306Y-16323660D01*
X-12883494Y-16330262D01*
X-12883502Y-16330264D01*
X-13029173Y-16390602D01*
X-13029186Y-16390609D01*
X-13160289Y-16478210D01*
X-13160293Y-16478213D01*
X-13271787Y-16589707D01*
X-13271790Y-16589711D01*
X-13359391Y-16720814D01*
X-13359398Y-16720827D01*
X-13419736Y-16866498D01*
X-13419739Y-16866510D01*
X-13450500Y-17021153D01*
X-27299500Y-17021153D01*
X-27299500Y-15013999D01*
X-25758116Y-15013999D01*
X-25758115Y-15014000D01*
X-24999684Y-15014000D01*
X-25004079Y-15018395D01*
X-25056740Y-15109606D01*
X-25083999Y-15211339D01*
X-25083999Y-15316661D01*
X-25056740Y-15418394D01*
X-25004079Y-15509605D01*
X-24999684Y-15514000D01*
X-25758115Y-15514000D01*
X-25756915Y-15521584D01*
X-25703409Y-15686255D01*
X-25624805Y-15840524D01*
X-25523033Y-15980602D01*
X-25400603Y-16103032D01*
X-25260525Y-16204804D01*
X-25106258Y-16283408D01*
X-24941585Y-16336914D01*
X-24770571Y-16364000D01*
X-24634000Y-16364000D01*
X-24634000Y-15663999D01*
X-24134000Y-15663999D01*
X-24134000Y-16364000D01*
X-23997429Y-16364000D01*
X-23826416Y-16336914D01*
X-23661743Y-16283408D01*
X-23507476Y-16204804D01*
X-23367398Y-16103032D01*
X-23244968Y-15980602D01*
X-23143196Y-15840524D01*
X-23064592Y-15686255D01*
X-23011086Y-15521584D01*
X-23009885Y-15514000D01*
X-23768316Y-15514000D01*
X-23763921Y-15509605D01*
X-23711260Y-15418394D01*
X-23684001Y-15316661D01*
X-23684001Y-15211339D01*
X-23711260Y-15109606D01*
X-23763921Y-15018395D01*
X-23768316Y-15014000D01*
X-23009885Y-15014000D01*
X-23009885Y-15013999D01*
X-21678116Y-15013999D01*
X-21678115Y-15014000D01*
X-20919671Y-15014000D01*
X-20924066Y-15018395D01*
X-20976727Y-15109606D01*
X-21003986Y-15211339D01*
X-21003986Y-15316661D01*
X-20976727Y-15418394D01*
X-20924066Y-15509605D01*
X-20919671Y-15514000D01*
X-21678115Y-15514000D01*
X-21676915Y-15521584D01*
X-21623409Y-15686255D01*
X-21544805Y-15840524D01*
X-21443033Y-15980602D01*
X-21320603Y-16103032D01*
X-21180525Y-16204804D01*
X-21026258Y-16283408D01*
X-20861585Y-16336914D01*
X-20690571Y-16364000D01*
X-20454000Y-16364000D01*
X-20454000Y-15663999D01*
X-19954000Y-15663999D01*
X-19954000Y-16364000D01*
X-19717429Y-16364000D01*
X-19546416Y-16336914D01*
X-19381743Y-16283408D01*
X-19227476Y-16204804D01*
X-19087398Y-16103032D01*
X-18964968Y-15980602D01*
X-18863196Y-15840524D01*
X-18784592Y-15686255D01*
X-18731086Y-15521584D01*
X-18729885Y-15514000D01*
X-19488329Y-15514000D01*
X-19483934Y-15509605D01*
X-19431273Y-15418394D01*
X-19404014Y-15316661D01*
X-19404014Y-15211339D01*
X-19431273Y-15109606D01*
X-19483934Y-15018395D01*
X-19488329Y-15014000D01*
X-18729885Y-15014000D01*
X-18729885Y-15013999D01*
X-18731086Y-15006415D01*
X-18784592Y-14841744D01*
X-18863196Y-14687475D01*
X-18964968Y-14547397D01*
X-19087398Y-14424967D01*
X-19227476Y-14323195D01*
X-19381743Y-14244591D01*
X-19546416Y-14191085D01*
X-19717429Y-14164000D01*
X-19954000Y-14164000D01*
X-19954000Y-14864001D01*
X-20454000Y-14864001D01*
X-20454000Y-14368049D01*
X-20434315Y-14301010D01*
X-20391996Y-14260660D01*
X-20381335Y-14254505D01*
X-20283495Y-14156665D01*
X-20243791Y-14087896D01*
X-20222280Y-14050638D01*
X-20222280Y-14050637D01*
X-20214312Y-14036836D01*
X-20178500Y-13903183D01*
X-20178500Y-13764817D01*
X-20214312Y-13631164D01*
X-20283495Y-13511335D01*
X-20381335Y-13413495D01*
X-20381336Y-13413494D01*
X-20381339Y-13413492D01*
X-20501162Y-13344313D01*
X-20501163Y-13344312D01*
X-20501164Y-13344312D01*
X-20634817Y-13308500D01*
X-20773183Y-13308500D01*
X-20906836Y-13344312D01*
X-20906839Y-13344313D01*
X-21026662Y-13413492D01*
X-21026667Y-13413496D01*
X-21124504Y-13511333D01*
X-21124508Y-13511338D01*
X-21193687Y-13631161D01*
X-21193688Y-13631164D01*
X-21229500Y-13764817D01*
X-21229500Y-13903183D01*
X-21195739Y-14029179D01*
X-21193688Y-14036835D01*
X-21193685Y-14036842D01*
X-21128282Y-14150125D01*
X-21111809Y-14218025D01*
X-21134662Y-14284052D01*
X-21176625Y-14320241D01*
X-21176373Y-14320651D01*
X-21178884Y-14322189D01*
X-21179363Y-14322603D01*
X-21180521Y-14323192D01*
X-21320603Y-14424967D01*
X-21443033Y-14547397D01*
X-21544805Y-14687475D01*
X-21623409Y-14841744D01*
X-21676915Y-15006415D01*
X-21678116Y-15013999D01*
X-23009885Y-15013999D01*
X-23011086Y-15006415D01*
X-23064592Y-14841744D01*
X-23143196Y-14687475D01*
X-23244968Y-14547397D01*
X-23367398Y-14424967D01*
X-23507476Y-14323195D01*
X-23661743Y-14244591D01*
X-23826416Y-14191085D01*
X-23997429Y-14164000D01*
X-24134000Y-14164000D01*
X-24134000Y-14864001D01*
X-24634000Y-14864001D01*
X-24634000Y-14164000D01*
X-24770571Y-14164000D01*
X-24941585Y-14191085D01*
X-25106258Y-14244591D01*
X-25260525Y-14323195D01*
X-25400603Y-14424967D01*
X-25523033Y-14547397D01*
X-25624805Y-14687475D01*
X-25703409Y-14841744D01*
X-25756915Y-15006415D01*
X-25758116Y-15013999D01*
X-27299500Y-15013999D01*
X-27299500Y-8851456D01*
X-18600500Y-8851456D01*
X-18600500Y-13082544D01*
X-18562053Y-13275828D01*
X-18562051Y-13275836D01*
X-18548521Y-13308500D01*
X-18548521Y-13308501D01*
X-18486636Y-13457907D01*
X-18486629Y-13457920D01*
X-18377140Y-13621781D01*
X-18377137Y-13621785D01*
X-18233463Y-13765459D01*
X-18233441Y-13765479D01*
X-18054111Y-13944809D01*
X-18023862Y-13994168D01*
X-18019872Y-14006448D01*
X-17997356Y-14050638D01*
X-17941232Y-14160788D01*
X-17839414Y-14300928D01*
X-17716928Y-14423414D01*
X-17576788Y-14525232D01*
X-17422445Y-14603873D01*
X-17257701Y-14657402D01*
X-17086611Y-14684500D01*
X-17086610Y-14684500D01*
X-16913390Y-14684500D01*
X-16913389Y-14684500D01*
X-16742299Y-14657402D01*
X-16577555Y-14603873D01*
X-16423212Y-14525232D01*
X-16283072Y-14423414D01*
X-16160586Y-14300928D01*
X-16058768Y-14160788D01*
X-15980127Y-14006445D01*
X-15926598Y-13841701D01*
X-15899500Y-13670611D01*
X-15899500Y-13497389D01*
X-15926598Y-13326299D01*
X-15980127Y-13161555D01*
X-16058768Y-13007212D01*
X-16160586Y-12867072D01*
X-16283072Y-12744586D01*
X-16367148Y-12683501D01*
X-16423214Y-12642766D01*
X-16531794Y-12587443D01*
X-16542859Y-12576993D01*
X-16556703Y-12570671D01*
X-16567744Y-12553491D01*
X-16582591Y-12539469D01*
X-16586833Y-12523787D01*
X-16594477Y-12511893D01*
X-16599500Y-12476958D01*
X-16599500Y-12371153D01*
X-10650500Y-12371153D01*
X-10650500Y-12528846D01*
X-10619739Y-12683489D01*
X-10619736Y-12683501D01*
X-10559398Y-12829172D01*
X-10559391Y-12829185D01*
X-10471790Y-12960288D01*
X-10471787Y-12960292D01*
X-10360293Y-13071786D01*
X-10360289Y-13071789D01*
X-10229186Y-13159390D01*
X-10229173Y-13159397D01*
X-10083502Y-13219735D01*
X-10083497Y-13219737D01*
X-9936428Y-13248991D01*
X-9928847Y-13250499D01*
X-9928844Y-13250500D01*
X-9928842Y-13250500D01*
X-9771156Y-13250500D01*
X-9771155Y-13250499D01*
X-9616503Y-13219737D01*
X-9470821Y-13159394D01*
X-9339711Y-13071789D01*
X-9228211Y-12960289D01*
X-9140606Y-12829179D01*
X-9080263Y-12683497D01*
X-9049500Y-12528842D01*
X-9049500Y-12474500D01*
X-9029815Y-12407461D01*
X-8977011Y-12361706D01*
X-8925500Y-12350500D01*
X-8771156Y-12350500D01*
X-8771155Y-12350499D01*
X-8616503Y-12319737D01*
X-8470821Y-12259394D01*
X-8339711Y-12171789D01*
X-8228211Y-12060289D01*
X-8140606Y-11929179D01*
X-8080263Y-11783497D01*
X-8049500Y-11628842D01*
X-8049500Y-11471158D01*
X-8049500Y-11471155D01*
X-8049501Y-11471153D01*
X-8080262Y-11316510D01*
X-8080263Y-11316503D01*
X-8102263Y-11263389D01*
X11599500Y-11263389D01*
X11599500Y-11436610D01*
X11626567Y-11607510D01*
X11626598Y-11607701D01*
X11680127Y-11772445D01*
X11758768Y-11926788D01*
X11860586Y-12066928D01*
X11983072Y-12189414D01*
X12123212Y-12291232D01*
X12277555Y-12369873D01*
X12442299Y-12423402D01*
X12613389Y-12450500D01*
X12613390Y-12450500D01*
X12786610Y-12450500D01*
X12786611Y-12450500D01*
X12957701Y-12423402D01*
X13122445Y-12369873D01*
X13276788Y-12291232D01*
X13416928Y-12189414D01*
X13539414Y-12066928D01*
X13641232Y-11926788D01*
X13719873Y-11772445D01*
X13773402Y-11607701D01*
X13800500Y-11436611D01*
X13800500Y-11263389D01*
X13773402Y-11092299D01*
X13719873Y-10927555D01*
X13641232Y-10773212D01*
X13539414Y-10633072D01*
X13418244Y-10511902D01*
X22749500Y-10511902D01*
X22749500Y-10748097D01*
X22786446Y-10981368D01*
X22859433Y-11205996D01*
X22966657Y-11416433D01*
X23105483Y-11607510D01*
X23272490Y-11774517D01*
X23331716Y-11817547D01*
X23374381Y-11872875D01*
X23382448Y-11927593D01*
X23380893Y-11947340D01*
X24038941Y-12605387D01*
X24018409Y-12610889D01*
X23881592Y-12689881D01*
X23769881Y-12801592D01*
X23690889Y-12938409D01*
X23685387Y-12958941D01*
X23027340Y-12300894D01*
X22967084Y-12383830D01*
X22859897Y-12594197D01*
X22786934Y-12818752D01*
X22750000Y-13051947D01*
X22750000Y-13288052D01*
X22786934Y-13521247D01*
X22859897Y-13745802D01*
X22967087Y-13956174D01*
X23027338Y-14039104D01*
X23027340Y-14039105D01*
X23685387Y-13381058D01*
X23690889Y-13401591D01*
X23769881Y-13538408D01*
X23881592Y-13650119D01*
X24018409Y-13729111D01*
X24038940Y-13734612D01*
X23380893Y-14392658D01*
X23463828Y-14452914D01*
X23674197Y-14560102D01*
X23898752Y-14633065D01*
X23898751Y-14633065D01*
X24131948Y-14670000D01*
X24368052Y-14670000D01*
X24601247Y-14633065D01*
X24825802Y-14560102D01*
X25036163Y-14452918D01*
X25036169Y-14452914D01*
X25119104Y-14392658D01*
X25119105Y-14392658D01*
X24461058Y-13734612D01*
X24481591Y-13729111D01*
X24618408Y-13650119D01*
X24730119Y-13538408D01*
X24809111Y-13401591D01*
X24814612Y-13381058D01*
X25472658Y-14039105D01*
X25472658Y-14039104D01*
X25532914Y-13956169D01*
X25532918Y-13956163D01*
X25640102Y-13745802D01*
X25713065Y-13521247D01*
X25750000Y-13288052D01*
X25750000Y-13051947D01*
X25713065Y-12818752D01*
X25640102Y-12594197D01*
X25532914Y-12383828D01*
X25472658Y-12300894D01*
X25472658Y-12300893D01*
X24814612Y-12958940D01*
X24809111Y-12938409D01*
X24730119Y-12801592D01*
X24618408Y-12689881D01*
X24481591Y-12610889D01*
X24461059Y-12605387D01*
X25119105Y-11947340D01*
X25117551Y-11927594D01*
X25131915Y-11859216D01*
X25168284Y-11817547D01*
X25227510Y-11774517D01*
X25394517Y-11607510D01*
X25533343Y-11416433D01*
X25640568Y-11205992D01*
X25713553Y-10981368D01*
X25721972Y-10928211D01*
X25750500Y-10748097D01*
X25750500Y-10511902D01*
X25713553Y-10278631D01*
X25640566Y-10054003D01*
X25533342Y-9843566D01*
X25394517Y-9652490D01*
X25227510Y-9485483D01*
X25036433Y-9346657D01*
X25034482Y-9345663D01*
X24825996Y-9239433D01*
X24601368Y-9166446D01*
X24368097Y-9129500D01*
X24368092Y-9129500D01*
X24131908Y-9129500D01*
X24131903Y-9129500D01*
X23898631Y-9166446D01*
X23674003Y-9239433D01*
X23463566Y-9346657D01*
X23404717Y-9389414D01*
X23272490Y-9485483D01*
X23272488Y-9485485D01*
X23272487Y-9485485D01*
X23105485Y-9652487D01*
X23105485Y-9652488D01*
X23105483Y-9652490D01*
X23045862Y-9734550D01*
X22966657Y-9843566D01*
X22859433Y-10054003D01*
X22786446Y-10278631D01*
X22749500Y-10511902D01*
X13418244Y-10511902D01*
X13416928Y-10510586D01*
X13276788Y-10408768D01*
X13122445Y-10330127D01*
X12957701Y-10276598D01*
X12957699Y-10276597D01*
X12957698Y-10276597D01*
X12826271Y-10255781D01*
X12786611Y-10249500D01*
X12613389Y-10249500D01*
X12573728Y-10255781D01*
X12442302Y-10276597D01*
X12277552Y-10330128D01*
X12123211Y-10408768D01*
X12043256Y-10466859D01*
X11983072Y-10510586D01*
X11983070Y-10510588D01*
X11983069Y-10510588D01*
X11860588Y-10633069D01*
X11860588Y-10633070D01*
X11860586Y-10633072D01*
X11820929Y-10687655D01*
X11758768Y-10773211D01*
X11680128Y-10927552D01*
X11626597Y-11092302D01*
X11599500Y-11263389D01*
X-8102263Y-11263389D01*
X-8126036Y-11205996D01*
X-8140603Y-11170827D01*
X-8140610Y-11170814D01*
X-8228211Y-11039711D01*
X-8228214Y-11039707D01*
X-8339708Y-10928213D01*
X-8339712Y-10928210D01*
X-8470815Y-10840609D01*
X-8470828Y-10840602D01*
X-8616499Y-10780264D01*
X-8616511Y-10780261D01*
X-8771155Y-10749500D01*
X-8771158Y-10749500D01*
X-8928842Y-10749500D01*
X-8934934Y-10749500D01*
X-8934934Y-10746690D01*
X-8991800Y-10735806D01*
X-9042428Y-10687655D01*
X-9059120Y-10625518D01*
X-9059120Y-9414555D01*
X-9039435Y-9347516D01*
X-9038254Y-9345710D01*
X-9000226Y-9288799D01*
X-8939883Y-9143117D01*
X-8909120Y-8988462D01*
X-8909120Y-8830778D01*
X-8909120Y-8830775D01*
X-8909121Y-8830773D01*
X-8939882Y-8676130D01*
X-8939883Y-8676123D01*
X-8988189Y-8559500D01*
X-9000223Y-8530447D01*
X-9000230Y-8530434D01*
X-9087831Y-8399331D01*
X-9087834Y-8399327D01*
X-9199328Y-8287833D01*
X-9199332Y-8287830D01*
X-9330435Y-8200229D01*
X-9330448Y-8200222D01*
X-9476119Y-8139884D01*
X-9476131Y-8139881D01*
X-9630775Y-8109120D01*
X-9630778Y-8109120D01*
X-9788462Y-8109120D01*
X-9788465Y-8109120D01*
X-9943110Y-8139881D01*
X-9943122Y-8139884D01*
X-10088793Y-8200222D01*
X-10088806Y-8200229D01*
X-10219909Y-8287830D01*
X-10219913Y-8287833D01*
X-10331407Y-8399327D01*
X-10331410Y-8399331D01*
X-10419011Y-8530434D01*
X-10419018Y-8530447D01*
X-10479356Y-8676118D01*
X-10479359Y-8676130D01*
X-10510120Y-8830773D01*
X-10510120Y-8988466D01*
X-10479359Y-9143109D01*
X-10479356Y-9143121D01*
X-10419018Y-9288792D01*
X-10419014Y-9288799D01*
X-10381018Y-9345664D01*
X-10360140Y-9412341D01*
X-10360120Y-9414555D01*
X-10360120Y-11776679D01*
X-10379805Y-11843718D01*
X-10396439Y-11864360D01*
X-10471787Y-11939707D01*
X-10471790Y-11939711D01*
X-10559391Y-12070814D01*
X-10559398Y-12070827D01*
X-10619736Y-12216498D01*
X-10619739Y-12216510D01*
X-10650500Y-12371153D01*
X-16599500Y-12371153D01*
X-16599500Y-9537184D01*
X-16579815Y-9470145D01*
X-16548391Y-9436870D01*
X-16483072Y-9389414D01*
X-16360586Y-9266928D01*
X-16258768Y-9126788D01*
X-16180127Y-8972445D01*
X-16126598Y-8807701D01*
X-16099500Y-8636611D01*
X-16099500Y-8463389D01*
X-16126598Y-8292299D01*
X-16180127Y-8127555D01*
X-16258768Y-7973212D01*
X-16360586Y-7833072D01*
X-16483072Y-7710586D01*
X-16623212Y-7608768D01*
X-16697037Y-7571153D01*
X-5550500Y-7571153D01*
X-5550500Y-7728846D01*
X-5519739Y-7883489D01*
X-5519736Y-7883501D01*
X-5459398Y-8029172D01*
X-5459391Y-8029185D01*
X-5371790Y-8160288D01*
X-5371787Y-8160292D01*
X-5260293Y-8271786D01*
X-5260289Y-8271789D01*
X-5129186Y-8359390D01*
X-5129173Y-8359397D01*
X-4983502Y-8419735D01*
X-4983497Y-8419737D01*
X-4828847Y-8450499D01*
X-4828844Y-8450500D01*
X-4828842Y-8450500D01*
X-4671156Y-8450500D01*
X-4671155Y-8450499D01*
X-4516503Y-8419737D01*
X-4370821Y-8359394D01*
X-4239711Y-8271789D01*
X-4128211Y-8160289D01*
X-4040606Y-8029179D01*
X-3980263Y-7883497D01*
X-3966921Y-7816416D01*
X-3934537Y-7754509D01*
X-3933042Y-7752986D01*
X-3473444Y-7293389D01*
X2899500Y-7293389D01*
X2899500Y-7466610D01*
X2916058Y-7571158D01*
X2926598Y-7637701D01*
X2980127Y-7802445D01*
X3058768Y-7956788D01*
X3160586Y-8096928D01*
X3283072Y-8219414D01*
X3423212Y-8321232D01*
X3577555Y-8399873D01*
X3742299Y-8453402D01*
X3913389Y-8480500D01*
X3913390Y-8480500D01*
X4086610Y-8480500D01*
X4086611Y-8480500D01*
X4257701Y-8453402D01*
X4422445Y-8399873D01*
X4576788Y-8321232D01*
X4716928Y-8219414D01*
X4839414Y-8096928D01*
X4941232Y-7956788D01*
X5019873Y-7802445D01*
X5073402Y-7637701D01*
X5100500Y-7466611D01*
X5100500Y-7293389D01*
X5073402Y-7122299D01*
X5019873Y-6957555D01*
X4941232Y-6803212D01*
X4839414Y-6663072D01*
X4716928Y-6540586D01*
X4576788Y-6438768D01*
X4422445Y-6360127D01*
X4257701Y-6306598D01*
X4257699Y-6306597D01*
X4257698Y-6306597D01*
X4114524Y-6283921D01*
X4086611Y-6279500D01*
X3913389Y-6279500D01*
X3885476Y-6283921D01*
X3742302Y-6306597D01*
X3577552Y-6360128D01*
X3423211Y-6438768D01*
X3343256Y-6496859D01*
X3283072Y-6540586D01*
X3283070Y-6540588D01*
X3283069Y-6540588D01*
X3160588Y-6663069D01*
X3160588Y-6663070D01*
X3160586Y-6663072D01*
X3116859Y-6723256D01*
X3058768Y-6803211D01*
X2980128Y-6957552D01*
X2926597Y-7122302D01*
X2899500Y-7293389D01*
X-3473444Y-7293389D01*
X-2694723Y-6514669D01*
X-2623535Y-6408127D01*
X-2574499Y-6289744D01*
X-2560982Y-6221789D01*
X-2549500Y-6164069D01*
X-2549500Y-6098856D01*
X-2548905Y-6092804D01*
X-2538013Y-6065814D01*
X-2529815Y-6037896D01*
X-2528634Y-6036090D01*
X-2490606Y-5979179D01*
X-2430263Y-5833497D01*
X-2399500Y-5678842D01*
X-2399500Y-5521158D01*
X-2399500Y-5521155D01*
X-2399501Y-5521153D01*
X-2417151Y-5432421D01*
X-2430263Y-5366503D01*
X-2448024Y-5323623D01*
X-2490603Y-5220827D01*
X-2490610Y-5220814D01*
X-2578211Y-5089711D01*
X-2578214Y-5089707D01*
X-2689708Y-4978213D01*
X-2689712Y-4978210D01*
X-2820815Y-4890609D01*
X-2820828Y-4890602D01*
X-2966499Y-4830264D01*
X-2966511Y-4830261D01*
X-3121155Y-4799500D01*
X-3121158Y-4799500D01*
X-3278842Y-4799500D01*
X-3278845Y-4799500D01*
X-3433490Y-4830261D01*
X-3433502Y-4830264D01*
X-3579173Y-4890602D01*
X-3579186Y-4890609D01*
X-3710289Y-4978210D01*
X-3710293Y-4978213D01*
X-3821787Y-5089707D01*
X-3821790Y-5089711D01*
X-3909391Y-5220814D01*
X-3909398Y-5220827D01*
X-3969736Y-5366498D01*
X-3969739Y-5366510D01*
X-4000500Y-5521153D01*
X-4000500Y-5678846D01*
X-3969740Y-5833488D01*
X-3969737Y-5833496D01*
X-3967379Y-5839190D01*
X-3959916Y-5908660D01*
X-3991195Y-5971137D01*
X-3994263Y-5974315D01*
X-4852932Y-6832984D01*
X-4914255Y-6866469D01*
X-4916421Y-6866920D01*
X-4983492Y-6880261D01*
X-4983502Y-6880264D01*
X-5129173Y-6940602D01*
X-5129186Y-6940609D01*
X-5260289Y-7028210D01*
X-5260293Y-7028213D01*
X-5371787Y-7139707D01*
X-5371790Y-7139711D01*
X-5459391Y-7270814D01*
X-5459398Y-7270827D01*
X-5519736Y-7416498D01*
X-5519739Y-7416510D01*
X-5550500Y-7571153D01*
X-16697037Y-7571153D01*
X-16748748Y-7544805D01*
X-16777553Y-7530128D01*
X-16777554Y-7530127D01*
X-16777555Y-7530127D01*
X-16942299Y-7476598D01*
X-16942301Y-7476597D01*
X-16942302Y-7476597D01*
X-17073729Y-7455781D01*
X-17113389Y-7449500D01*
X-17286611Y-7449500D01*
X-17326272Y-7455781D01*
X-17457698Y-7476597D01*
X-17622448Y-7530128D01*
X-17776789Y-7608768D01*
X-17816611Y-7637701D01*
X-17916928Y-7710586D01*
X-17916930Y-7710588D01*
X-17916931Y-7710588D01*
X-18039412Y-7833069D01*
X-18039412Y-7833070D01*
X-18039414Y-7833072D01*
X-18076044Y-7883489D01*
X-18141232Y-7973211D01*
X-18219874Y-8127556D01*
X-18223864Y-8139834D01*
X-18254111Y-8189189D01*
X-18377137Y-8312214D01*
X-18377140Y-8312218D01*
X-18486629Y-8476079D01*
X-18486636Y-8476092D01*
X-18562050Y-8658160D01*
X-18562053Y-8658170D01*
X-18600500Y-8851456D01*
X-27299500Y-8851456D01*
X-27299500Y-6353999D01*
X-25758116Y-6353999D01*
X-25758115Y-6354000D01*
X-24999684Y-6354000D01*
X-25004079Y-6358395D01*
X-25056740Y-6449606D01*
X-25083999Y-6551339D01*
X-25083999Y-6656661D01*
X-25056740Y-6758394D01*
X-25004079Y-6849605D01*
X-24999684Y-6854000D01*
X-25758115Y-6854000D01*
X-25756915Y-6861584D01*
X-25703409Y-7026255D01*
X-25624805Y-7180524D01*
X-25523033Y-7320602D01*
X-25400603Y-7443032D01*
X-25260525Y-7544804D01*
X-25106258Y-7623408D01*
X-24941585Y-7676914D01*
X-24770571Y-7704000D01*
X-24634000Y-7704000D01*
X-24634000Y-7003999D01*
X-24134000Y-7003999D01*
X-24134000Y-7704000D01*
X-23997429Y-7704000D01*
X-23826416Y-7676914D01*
X-23661743Y-7623408D01*
X-23507476Y-7544804D01*
X-23367398Y-7443032D01*
X-23244968Y-7320602D01*
X-23143196Y-7180524D01*
X-23064592Y-7026255D01*
X-23011086Y-6861584D01*
X-23009885Y-6854000D01*
X-23768316Y-6854000D01*
X-23763921Y-6849605D01*
X-23711260Y-6758394D01*
X-23684001Y-6656661D01*
X-23684001Y-6551339D01*
X-23711260Y-6449606D01*
X-23763921Y-6358395D01*
X-23768316Y-6354000D01*
X-23009885Y-6354000D01*
X-23009885Y-6353999D01*
X-21678116Y-6353999D01*
X-21678115Y-6354000D01*
X-20919696Y-6354000D01*
X-20924091Y-6358395D01*
X-20976752Y-6449606D01*
X-21004011Y-6551339D01*
X-21004011Y-6656661D01*
X-20976752Y-6758394D01*
X-20924091Y-6849605D01*
X-20919696Y-6854000D01*
X-21678115Y-6854000D01*
X-21676915Y-6861584D01*
X-21623409Y-7026255D01*
X-21544805Y-7180524D01*
X-21443033Y-7320602D01*
X-21320603Y-7443032D01*
X-21180524Y-7544805D01*
X-21179379Y-7545388D01*
X-21179021Y-7545726D01*
X-21176373Y-7547349D01*
X-21176714Y-7547905D01*
X-21128581Y-7593360D01*
X-21111783Y-7661180D01*
X-21128281Y-7717874D01*
X-21193688Y-7831163D01*
X-21193688Y-7831164D01*
X-21229500Y-7964817D01*
X-21229500Y-8103183D01*
X-21203496Y-8200229D01*
X-21193688Y-8236835D01*
X-21193687Y-8236838D01*
X-21124508Y-8356661D01*
X-21124506Y-8356664D01*
X-21124505Y-8356665D01*
X-21026665Y-8454505D01*
X-21026664Y-8454506D01*
X-21026662Y-8454507D01*
X-20989275Y-8476092D01*
X-20906836Y-8523688D01*
X-20773183Y-8559500D01*
X-20773181Y-8559500D01*
X-20634819Y-8559500D01*
X-20634817Y-8559500D01*
X-20501164Y-8523688D01*
X-20381335Y-8454505D01*
X-20283495Y-8356665D01*
X-20214312Y-8236836D01*
X-20178500Y-8103183D01*
X-20178500Y-7964817D01*
X-20214312Y-7831164D01*
X-20273387Y-7728842D01*
X-20283493Y-7711338D01*
X-20283497Y-7711333D01*
X-20381336Y-7613494D01*
X-20392001Y-7607337D01*
X-20440216Y-7556769D01*
X-20454000Y-7499950D01*
X-20454000Y-7003999D01*
X-19954000Y-7003999D01*
X-19954000Y-7704000D01*
X-19717429Y-7704000D01*
X-19546416Y-7676914D01*
X-19381743Y-7623408D01*
X-19227476Y-7544804D01*
X-19087398Y-7443032D01*
X-18964968Y-7320602D01*
X-18863196Y-7180524D01*
X-18784592Y-7026255D01*
X-18731086Y-6861584D01*
X-18729885Y-6854000D01*
X-19488304Y-6854000D01*
X-19483909Y-6849605D01*
X-19431248Y-6758394D01*
X-19403989Y-6656661D01*
X-19403989Y-6551339D01*
X-19431248Y-6449606D01*
X-19483909Y-6358395D01*
X-19488304Y-6354000D01*
X-18729885Y-6354000D01*
X-18729885Y-6353999D01*
X-18731086Y-6346415D01*
X-18784592Y-6181744D01*
X-18863196Y-6027475D01*
X-18964968Y-5887397D01*
X-19087398Y-5764967D01*
X-19227476Y-5663195D01*
X-19381744Y-5584591D01*
X-19459012Y-5559485D01*
X-19516687Y-5520047D01*
X-19543885Y-5455688D01*
X-19531970Y-5386842D01*
X-19484725Y-5335366D01*
X-19459011Y-5323623D01*
X-19335245Y-5283408D01*
X-19180976Y-5204804D01*
X-19040898Y-5103032D01*
X-18918468Y-4980602D01*
X-18816696Y-4840524D01*
X-18738092Y-4686255D01*
X-18684586Y-4521584D01*
X-18683385Y-4514000D01*
X-19441829Y-4514000D01*
X-19437434Y-4509605D01*
X-19384773Y-4418394D01*
X-19357514Y-4316661D01*
X-19357514Y-4211339D01*
X-19384773Y-4109606D01*
X-19437434Y-4018395D01*
X-19441829Y-4014000D01*
X-18683385Y-4014000D01*
X-18683385Y-4013999D01*
X-18684586Y-4006415D01*
X-18738092Y-3841744D01*
X-18816696Y-3687475D01*
X-18918468Y-3547397D01*
X-19002068Y-3463797D01*
X-2700000Y-3463797D01*
X-2669259Y-3618343D01*
X-2669257Y-3618351D01*
X-2608953Y-3763939D01*
X-2608948Y-3763948D01*
X-2521402Y-3894969D01*
X-2521399Y-3894973D01*
X-2409974Y-4006398D01*
X-2409966Y-4006404D01*
X-2278953Y-4093944D01*
X-2278935Y-4093954D01*
X-2150001Y-4147360D01*
X-2150000Y-4147360D01*
X-1650000Y-4147360D01*
X-1521066Y-4093954D01*
X-1521048Y-4093944D01*
X-1390035Y-4006404D01*
X-1390027Y-4006398D01*
X-1352682Y-3969053D01*
X-1291360Y-3935567D01*
X-1221668Y-3940551D01*
X-1177318Y-3969053D01*
X-1139974Y-4006398D01*
X-1139966Y-4006404D01*
X-1008953Y-4093944D01*
X-1008935Y-4093954D01*
X-880001Y-4147360D01*
X-880000Y-4147360D01*
X-880000Y-2990000D01*
X-1650000Y-2990000D01*
X-1650000Y-4147360D01*
X-2150000Y-4147360D01*
X-2150000Y-2990000D01*
X-2700000Y-2990000D01*
X-2700000Y-3463797D01*
X-19002068Y-3463797D01*
X-19040898Y-3424967D01*
X-19180976Y-3323195D01*
X-19335243Y-3244591D01*
X-19499916Y-3191085D01*
X-19670929Y-3164000D01*
X-19907500Y-3164000D01*
X-19907500Y-3864001D01*
X-20407500Y-3864001D01*
X-20407500Y-3368049D01*
X-20387815Y-3301010D01*
X-20345496Y-3260660D01*
X-20334835Y-3254505D01*
X-20236995Y-3156665D01*
X-20207398Y-3105402D01*
X-20175780Y-3050638D01*
X-20175780Y-3050637D01*
X-20175005Y-3049294D01*
X-20167812Y-3036836D01*
X-20132000Y-2903183D01*
X-20132000Y-2764817D01*
X-20167812Y-2631164D01*
X-20236995Y-2511335D01*
X-20334835Y-2413495D01*
X-20334836Y-2413494D01*
X-20334839Y-2413492D01*
X-20454662Y-2344313D01*
X-20454663Y-2344312D01*
X-20454664Y-2344312D01*
X-20588317Y-2308500D01*
X-20726683Y-2308500D01*
X-20860336Y-2344312D01*
X-20860339Y-2344313D01*
X-20980162Y-2413492D01*
X-20980167Y-2413496D01*
X-21078004Y-2511333D01*
X-21078008Y-2511338D01*
X-21147187Y-2631161D01*
X-21147188Y-2631164D01*
X-21183000Y-2764817D01*
X-21183000Y-2903183D01*
X-21159737Y-2990000D01*
X-21147188Y-3036835D01*
X-21147185Y-3036842D01*
X-21081782Y-3150125D01*
X-21065309Y-3218025D01*
X-21088162Y-3284052D01*
X-21130125Y-3320241D01*
X-21129873Y-3320651D01*
X-21132384Y-3322189D01*
X-21132863Y-3322603D01*
X-21134021Y-3323192D01*
X-21274103Y-3424967D01*
X-21396533Y-3547397D01*
X-21498305Y-3687475D01*
X-21576909Y-3841744D01*
X-21630415Y-4006415D01*
X-21631616Y-4013999D01*
X-21631615Y-4014000D01*
X-20873171Y-4014000D01*
X-20877566Y-4018395D01*
X-20930227Y-4109606D01*
X-20957486Y-4211339D01*
X-20957486Y-4316661D01*
X-20930227Y-4418394D01*
X-20877566Y-4509605D01*
X-20873171Y-4514000D01*
X-21631615Y-4514000D01*
X-21630415Y-4521584D01*
X-21576909Y-4686255D01*
X-21498305Y-4840524D01*
X-21396533Y-4980602D01*
X-21274103Y-5103032D01*
X-21134025Y-5204804D01*
X-20979756Y-5283408D01*
X-20902490Y-5308514D01*
X-20844814Y-5347952D01*
X-20817616Y-5412310D01*
X-20829531Y-5481156D01*
X-20876775Y-5532632D01*
X-20902489Y-5544376D01*
X-21026257Y-5584591D01*
X-21180525Y-5663195D01*
X-21320603Y-5764967D01*
X-21443033Y-5887397D01*
X-21544805Y-6027475D01*
X-21623409Y-6181744D01*
X-21676915Y-6346415D01*
X-21678116Y-6353999D01*
X-23009885Y-6353999D01*
X-23011086Y-6346415D01*
X-23064592Y-6181744D01*
X-23143196Y-6027475D01*
X-23244968Y-5887397D01*
X-23367398Y-5764967D01*
X-23507476Y-5663195D01*
X-23661744Y-5584591D01*
X-23739012Y-5559485D01*
X-23796687Y-5520047D01*
X-23823885Y-5455688D01*
X-23811970Y-5386842D01*
X-23764725Y-5335366D01*
X-23739011Y-5323623D01*
X-23615245Y-5283408D01*
X-23460976Y-5204804D01*
X-23320898Y-5103032D01*
X-23198468Y-4980602D01*
X-23096696Y-4840524D01*
X-23018092Y-4686255D01*
X-22964586Y-4521584D01*
X-22963385Y-4514000D01*
X-23721816Y-4514000D01*
X-23717421Y-4509605D01*
X-23664760Y-4418394D01*
X-23637501Y-4316661D01*
X-23637501Y-4211339D01*
X-23664760Y-4109606D01*
X-23717421Y-4018395D01*
X-23721816Y-4014000D01*
X-22963385Y-4014000D01*
X-22963385Y-4013999D01*
X-22964586Y-4006415D01*
X-23018092Y-3841744D01*
X-23096696Y-3687475D01*
X-23198468Y-3547397D01*
X-23320898Y-3424967D01*
X-23460976Y-3323195D01*
X-23615243Y-3244591D01*
X-23779916Y-3191085D01*
X-23950929Y-3164000D01*
X-24087500Y-3164000D01*
X-24087500Y-3864001D01*
X-24587500Y-3864001D01*
X-24587500Y-3164000D01*
X-24724071Y-3164000D01*
X-24895085Y-3191085D01*
X-25059758Y-3244591D01*
X-25214025Y-3323195D01*
X-25354103Y-3424967D01*
X-25476533Y-3547397D01*
X-25578305Y-3687475D01*
X-25656909Y-3841744D01*
X-25710415Y-4006415D01*
X-25711616Y-4013999D01*
X-25711615Y-4014000D01*
X-24953184Y-4014000D01*
X-24957579Y-4018395D01*
X-25010240Y-4109606D01*
X-25037499Y-4211339D01*
X-25037499Y-4316661D01*
X-25010240Y-4418394D01*
X-24957579Y-4509605D01*
X-24953184Y-4514000D01*
X-25711615Y-4514000D01*
X-25710415Y-4521584D01*
X-25656909Y-4686255D01*
X-25578305Y-4840524D01*
X-25476533Y-4980602D01*
X-25354103Y-5103032D01*
X-25214025Y-5204804D01*
X-25059756Y-5283408D01*
X-24982490Y-5308514D01*
X-24924814Y-5347952D01*
X-24897616Y-5412310D01*
X-24909531Y-5481156D01*
X-24956775Y-5532632D01*
X-24982489Y-5544376D01*
X-25106257Y-5584591D01*
X-25260525Y-5663195D01*
X-25400603Y-5764967D01*
X-25523033Y-5887397D01*
X-25624805Y-6027475D01*
X-25703409Y-6181744D01*
X-25756915Y-6346415D01*
X-25758116Y-6353999D01*
X-27299500Y-6353999D01*
X-27299500Y4646001D01*
X-25711616Y4646001D01*
X-25711615Y4646000D01*
X-24953184Y4646000D01*
X-24957579Y4641605D01*
X-25010240Y4550394D01*
X-25037499Y4448661D01*
X-25037499Y4343339D01*
X-25010240Y4241606D01*
X-24957579Y4150395D01*
X-24953184Y4146000D01*
X-25711615Y4146000D01*
X-25710415Y4138416D01*
X-25656909Y3973745D01*
X-25578305Y3819476D01*
X-25476533Y3679398D01*
X-25354103Y3556968D01*
X-25214025Y3455196D01*
X-25059758Y3376592D01*
X-24895085Y3323086D01*
X-24724071Y3296000D01*
X-24587500Y3296000D01*
X-24587500Y3996001D01*
X-24087500Y3996001D01*
X-24087500Y3296000D01*
X-23950929Y3296000D01*
X-23779916Y3323086D01*
X-23615243Y3376592D01*
X-23460976Y3455196D01*
X-23320898Y3556968D01*
X-23198468Y3679398D01*
X-23096696Y3819476D01*
X-23018092Y3973745D01*
X-22964586Y4138416D01*
X-22963385Y4146000D01*
X-23721816Y4146000D01*
X-23717421Y4150395D01*
X-23664760Y4241606D01*
X-23637501Y4343339D01*
X-23637501Y4448661D01*
X-23664760Y4550394D01*
X-23717421Y4641605D01*
X-23721816Y4646000D01*
X-22963385Y4646000D01*
X-22963385Y4646001D01*
X-21631616Y4646001D01*
X-21631615Y4646000D01*
X-20873196Y4646000D01*
X-20877591Y4641605D01*
X-20930252Y4550394D01*
X-20957511Y4448661D01*
X-20957511Y4343339D01*
X-20930252Y4241606D01*
X-20877591Y4150395D01*
X-20873196Y4146000D01*
X-21631615Y4146000D01*
X-21630415Y4138416D01*
X-21576909Y3973745D01*
X-21498305Y3819476D01*
X-21396533Y3679398D01*
X-21274103Y3556968D01*
X-21134024Y3455195D01*
X-21132879Y3454612D01*
X-21132521Y3454274D01*
X-21129873Y3452651D01*
X-21130214Y3452095D01*
X-21082081Y3406640D01*
X-21065283Y3338820D01*
X-21081781Y3282126D01*
X-21147188Y3168837D01*
X-21147188Y3168836D01*
X-21183000Y3035183D01*
X-21183000Y2896817D01*
X-21148081Y2766499D01*
X-21147188Y2763165D01*
X-21147187Y2763162D01*
X-21078008Y2643339D01*
X-21078006Y2643336D01*
X-21078005Y2643335D01*
X-20980165Y2545495D01*
X-20980164Y2545494D01*
X-20980162Y2545493D01*
X-20953781Y2530262D01*
X-20860336Y2476312D01*
X-20726683Y2440500D01*
X-20726681Y2440500D01*
X-20588319Y2440500D01*
X-20588317Y2440500D01*
X-20454664Y2476312D01*
X-20334835Y2545495D01*
X-20236995Y2643335D01*
X-20173327Y2753611D01*
X-18753500Y2753611D01*
X-18753500Y2580389D01*
X-18746126Y2533832D01*
X-18728399Y2421903D01*
X-18726402Y2409299D01*
X-18689903Y2296966D01*
X-18672872Y2244553D01*
X-18655054Y2209583D01*
X-18594232Y2090212D01*
X-18492414Y1950072D01*
X-18369928Y1827586D01*
X-18229788Y1725768D01*
X-18213207Y1717320D01*
X-18162411Y1669349D01*
X-18145500Y1606835D01*
X-18145500Y-1541763D01*
X-18159016Y-1598059D01*
X-18164872Y-1609550D01*
X-18218403Y-1774302D01*
X-18245500Y-1945389D01*
X-18245500Y-2118610D01*
X-18231346Y-2207979D01*
X-18218402Y-2289701D01*
X-18164873Y-2454445D01*
X-18086232Y-2608788D01*
X-17984414Y-2748928D01*
X-17861928Y-2871414D01*
X-17721788Y-2973232D01*
X-17567445Y-3051873D01*
X-17402701Y-3105402D01*
X-17231611Y-3132500D01*
X-17231610Y-3132500D01*
X-17058390Y-3132500D01*
X-17058389Y-3132500D01*
X-16887299Y-3105402D01*
X-16722555Y-3051873D01*
X-16568212Y-2973232D01*
X-16428072Y-2871414D01*
X-16305586Y-2748928D01*
X-16203768Y-2608788D01*
X-16125127Y-2454445D01*
X-16071598Y-2289701D01*
X-16044500Y-2118611D01*
X-16044500Y-2016202D01*
X-2700000Y-2016202D01*
X-2700000Y-2490000D01*
X-2150000Y-2490000D01*
X-2150000Y-1332639D01*
X-1650000Y-1332639D01*
X-1650000Y-2490000D01*
X-880000Y-2490000D01*
X-880000Y-1332639D01*
X-380000Y-1332639D01*
X-380000Y-4147360D01*
X-251066Y-4093954D01*
X-251048Y-4093944D01*
X-120035Y-4006404D01*
X-120027Y-4006398D01*
X-88036Y-3974407D01*
X-26714Y-3940921D01*
X42978Y-3945905D01*
X73649Y-3962590D01*
X80919Y-3967997D01*
X119711Y-4006789D01*
X250821Y-4094394D01*
X250906Y-4094429D01*
X253697Y-4096505D01*
X254862Y-4098051D01*
X267375Y-4108321D01*
X554584Y-4395530D01*
X588069Y-4456853D01*
X588520Y-4459020D01*
X601861Y-4526089D01*
X601864Y-4526101D01*
X662202Y-4671772D01*
X662209Y-4671785D01*
X749810Y-4802888D01*
X749813Y-4802892D01*
X861307Y-4914386D01*
X861311Y-4914389D01*
X992414Y-5001990D01*
X992427Y-5001997D01*
X1138098Y-5062335D01*
X1138103Y-5062337D01*
X1292753Y-5093099D01*
X1292756Y-5093100D01*
X1292758Y-5093100D01*
X1450444Y-5093100D01*
X1450445Y-5093099D01*
X1605097Y-5062337D01*
X1750779Y-5001994D01*
X1881889Y-4914389D01*
X1970741Y-4825536D01*
X2032062Y-4792053D01*
X2101754Y-4797037D01*
X2127312Y-4810117D01*
X2262414Y-4900390D01*
X2262427Y-4900397D01*
X2408098Y-4960735D01*
X2408103Y-4960737D01*
X2562753Y-4991499D01*
X2562756Y-4991500D01*
X2562758Y-4991500D01*
X2720444Y-4991500D01*
X2720445Y-4991499D01*
X2875097Y-4960737D01*
X3020779Y-4900394D01*
X3151889Y-4812789D01*
X3263389Y-4701289D01*
X3350994Y-4570179D01*
X3411337Y-4424497D01*
X3424487Y-4358389D01*
X3429540Y-4332989D01*
X12488500Y-4332989D01*
X12488500Y-4506211D01*
X12515598Y-4677301D01*
X12569127Y-4842045D01*
X12647768Y-4996388D01*
X12749586Y-5136528D01*
X12872072Y-5259014D01*
X13012212Y-5360832D01*
X13166555Y-5439473D01*
X13331299Y-5493002D01*
X13502389Y-5520100D01*
X13502390Y-5520100D01*
X13675610Y-5520100D01*
X13675611Y-5520100D01*
X13846701Y-5493002D01*
X14011445Y-5439473D01*
X14165788Y-5360832D01*
X14184435Y-5347283D01*
X14250238Y-5323804D01*
X14318292Y-5339628D01*
X14330205Y-5347284D01*
X14348851Y-5360831D01*
X14383812Y-5386232D01*
X14538155Y-5464873D01*
X14702899Y-5518402D01*
X14873989Y-5545500D01*
X14873990Y-5545500D01*
X15047210Y-5545500D01*
X15047211Y-5545500D01*
X15218301Y-5518402D01*
X15383045Y-5464873D01*
X15537388Y-5386232D01*
X15677528Y-5284414D01*
X15800014Y-5161928D01*
X15901832Y-5021788D01*
X15980473Y-4867445D01*
X16034002Y-4702701D01*
X16061100Y-4531611D01*
X16061100Y-4358389D01*
X16034002Y-4187299D01*
X15980473Y-4022555D01*
X15901832Y-3868212D01*
X15800014Y-3728072D01*
X15677528Y-3605586D01*
X15537388Y-3503768D01*
X15383045Y-3425127D01*
X15218301Y-3371598D01*
X15218299Y-3371597D01*
X15218298Y-3371597D01*
X15086871Y-3350781D01*
X15047211Y-3344500D01*
X14873989Y-3344500D01*
X14834328Y-3350781D01*
X14702902Y-3371597D01*
X14702899Y-3371598D01*
X14538648Y-3424967D01*
X14538152Y-3425128D01*
X14383810Y-3503769D01*
X14365163Y-3517317D01*
X14299356Y-3540795D01*
X14231302Y-3524968D01*
X14219395Y-3517315D01*
X14165791Y-3478370D01*
X14165790Y-3478369D01*
X14165788Y-3478368D01*
X14011445Y-3399727D01*
X13846701Y-3346198D01*
X13846699Y-3346197D01*
X13846698Y-3346197D01*
X13704578Y-3323688D01*
X13675611Y-3319100D01*
X13502389Y-3319100D01*
X13473422Y-3323688D01*
X13331302Y-3346197D01*
X13166552Y-3399728D01*
X13012211Y-3478368D01*
X12958606Y-3517315D01*
X12872072Y-3580186D01*
X12872070Y-3580188D01*
X12872069Y-3580188D01*
X12749588Y-3702669D01*
X12749588Y-3702670D01*
X12749586Y-3702672D01*
X12731132Y-3728072D01*
X12647768Y-3842811D01*
X12569128Y-3997152D01*
X12515597Y-4161902D01*
X12498501Y-4269844D01*
X12488500Y-4332989D01*
X3429540Y-4332989D01*
X3435321Y-4303925D01*
X3435321Y-4303924D01*
X3442099Y-4269846D01*
X3442100Y-4269844D01*
X3442100Y-4112155D01*
X3442099Y-4112153D01*
X3422575Y-4013999D01*
X3411337Y-3957503D01*
X3400180Y-3930568D01*
X3350997Y-3811827D01*
X3350990Y-3811814D01*
X3263389Y-3680711D01*
X3263386Y-3680707D01*
X3151892Y-3569213D01*
X3151888Y-3569210D01*
X3020785Y-3481609D01*
X3020772Y-3481602D01*
X2875101Y-3421264D01*
X2875091Y-3421261D01*
X2810308Y-3408375D01*
X2748397Y-3375990D01*
X2713823Y-3315274D01*
X2710500Y-3286758D01*
X2710500Y-2016155D01*
X2710499Y-2016153D01*
X2696423Y-1945389D01*
X2679737Y-1861503D01*
X2653760Y-1798789D01*
X2619397Y-1715827D01*
X2619390Y-1715814D01*
X2531789Y-1584711D01*
X2531786Y-1584707D01*
X2420292Y-1473213D01*
X2420288Y-1473210D01*
X2289185Y-1385609D01*
X2289172Y-1385602D01*
X2143501Y-1325264D01*
X2143489Y-1325261D01*
X1988845Y-1294500D01*
X1988842Y-1294500D01*
X1831158Y-1294500D01*
X1831155Y-1294500D01*
X1676510Y-1325261D01*
X1676498Y-1325264D01*
X1530827Y-1385602D01*
X1530814Y-1385609D01*
X1399711Y-1473210D01*
X1399707Y-1473213D01*
X1357681Y-1515240D01*
X1296358Y-1548725D01*
X1226666Y-1543741D01*
X1182319Y-1515240D01*
X1140292Y-1473213D01*
X1140288Y-1473210D01*
X1009185Y-1385609D01*
X1009172Y-1385602D01*
X863501Y-1325264D01*
X863489Y-1325261D01*
X708845Y-1294500D01*
X708842Y-1294500D01*
X551158Y-1294500D01*
X551155Y-1294500D01*
X396510Y-1325261D01*
X396498Y-1325264D01*
X250827Y-1385602D01*
X250814Y-1385609D01*
X119711Y-1473210D01*
X119706Y-1473214D01*
X87326Y-1505594D01*
X26002Y-1539079D01*
X-43689Y-1534093D01*
X-88035Y-1505593D01*
X-120027Y-1473601D01*
X-120031Y-1473598D01*
X-251052Y-1386052D01*
X-251062Y-1386047D01*
X-380000Y-1332639D01*
X-880000Y-1332639D01*
X-880001Y-1332639D01*
X-1008939Y-1386047D01*
X-1008949Y-1386052D01*
X-1139970Y-1473598D01*
X-1139974Y-1473601D01*
X-1177319Y-1510947D01*
X-1238642Y-1544432D01*
X-1308334Y-1539448D01*
X-1352681Y-1510947D01*
X-1390027Y-1473601D01*
X-1390031Y-1473598D01*
X-1521052Y-1386052D01*
X-1521062Y-1386047D01*
X-1650000Y-1332639D01*
X-2150000Y-1332639D01*
X-2150001Y-1332639D01*
X-2278939Y-1386047D01*
X-2278949Y-1386052D01*
X-2409970Y-1473598D01*
X-2409974Y-1473601D01*
X-2521399Y-1585026D01*
X-2521402Y-1585030D01*
X-2608948Y-1716051D01*
X-2608953Y-1716060D01*
X-2669257Y-1861648D01*
X-2669259Y-1861656D01*
X-2700000Y-2016202D01*
X-16044500Y-2016202D01*
X-16044500Y-1945389D01*
X-16071598Y-1774299D01*
X-16125127Y-1609555D01*
X-16125129Y-1609552D01*
X-16125129Y-1609550D01*
X-16130984Y-1598059D01*
X-16144500Y-1541763D01*
X-16144500Y-621153D01*
X-11900500Y-621153D01*
X-11900500Y-778846D01*
X-11869739Y-933489D01*
X-11869736Y-933501D01*
X-11809398Y-1079172D01*
X-11809391Y-1079185D01*
X-11721790Y-1210288D01*
X-11721787Y-1210292D01*
X-11610293Y-1321786D01*
X-11610289Y-1321789D01*
X-11479186Y-1409390D01*
X-11479173Y-1409397D01*
X-11333502Y-1469735D01*
X-11333497Y-1469737D01*
X-11178847Y-1500499D01*
X-11178844Y-1500500D01*
X-11178842Y-1500500D01*
X-11021156Y-1500500D01*
X-11021155Y-1500499D01*
X-10866503Y-1469737D01*
X-10720821Y-1409394D01*
X-10589711Y-1321789D01*
X-10478211Y-1210289D01*
X-10390606Y-1079179D01*
X-10330263Y-933497D01*
X-10299500Y-778842D01*
X-10299500Y-621158D01*
X-10299500Y-621155D01*
X-10299501Y-621153D01*
X-10308484Y-575992D01*
X-10330263Y-466503D01*
X-10330265Y-466498D01*
X-10390603Y-320827D01*
X-10390610Y-320814D01*
X-10478211Y-189711D01*
X-10478214Y-189707D01*
X-10589708Y-78213D01*
X-10589712Y-78210D01*
X-10679571Y-18168D01*
X-10720815Y9391D01*
X-10720828Y9398D01*
X-10866499Y69736D01*
X-10866511Y69739D01*
X-10912299Y78847D01*
X5930500Y78847D01*
X5930500Y-78846D01*
X5961261Y-233489D01*
X5961264Y-233501D01*
X6021602Y-379172D01*
X6021609Y-379185D01*
X6078217Y-463904D01*
X6099095Y-530581D01*
X6089676Y-580247D01*
X6037464Y-706298D01*
X6037461Y-706310D01*
X6006700Y-860953D01*
X6006700Y-1018646D01*
X6037461Y-1173289D01*
X6037464Y-1173301D01*
X6097802Y-1318972D01*
X6097812Y-1318990D01*
X6125747Y-1360798D01*
X6146625Y-1427475D01*
X6137207Y-1477140D01*
X6088263Y-1595303D01*
X6088262Y-1595306D01*
X6088262Y-1595307D01*
X6088261Y-1595310D01*
X6057500Y-1749953D01*
X6057500Y-1907646D01*
X6088261Y-2062289D01*
X6088264Y-2062301D01*
X6148602Y-2207972D01*
X6148609Y-2207985D01*
X6236210Y-2339088D01*
X6236213Y-2339092D01*
X6347709Y-2450588D01*
X6353482Y-2454445D01*
X6370644Y-2465912D01*
X6415450Y-2519522D01*
X6425755Y-2569015D01*
X6425755Y-2617852D01*
X6456516Y-2772495D01*
X6456519Y-2772507D01*
X6516857Y-2918178D01*
X6516864Y-2918191D01*
X6604465Y-3049294D01*
X6604468Y-3049298D01*
X6715962Y-3160792D01*
X6715966Y-3160795D01*
X6847069Y-3248396D01*
X6847082Y-3248403D01*
X6992753Y-3308741D01*
X6992758Y-3308743D01*
X7147408Y-3339505D01*
X7147411Y-3339506D01*
X7147413Y-3339506D01*
X7305099Y-3339506D01*
X7305100Y-3339505D01*
X7459752Y-3308743D01*
X7605434Y-3248400D01*
X7736544Y-3160795D01*
X7848044Y-3049295D01*
X7935649Y-2918185D01*
X7995992Y-2772503D01*
X8026755Y-2617848D01*
X8026755Y-2460164D01*
X8026755Y-2460161D01*
X8026754Y-2460159D01*
X8017471Y-2413492D01*
X7995992Y-2305509D01*
X7955594Y-2207979D01*
X7935652Y-2159833D01*
X7935645Y-2159820D01*
X7848044Y-2028717D01*
X7848041Y-2028713D01*
X7736547Y-1917219D01*
X7736544Y-1917217D01*
X7713607Y-1901890D01*
X7668803Y-1848276D01*
X7658500Y-1798789D01*
X7658500Y-1749955D01*
X7658499Y-1749953D01*
X7627738Y-1595310D01*
X7627737Y-1595303D01*
X7606666Y-1544432D01*
X7567396Y-1449625D01*
X7567394Y-1449622D01*
X7567394Y-1449621D01*
X7539451Y-1407802D01*
X7518573Y-1341127D01*
X7527991Y-1291463D01*
X7576937Y-1173297D01*
X7607700Y-1018642D01*
X7607700Y-860958D01*
X7607700Y-860955D01*
X7607699Y-860953D01*
X7576938Y-706310D01*
X7576937Y-706303D01*
X7541667Y-621153D01*
X7516597Y-560627D01*
X7516590Y-560614D01*
X7459982Y-475895D01*
X7439104Y-409218D01*
X7448522Y-359555D01*
X7500737Y-233497D01*
X7531500Y-78842D01*
X7531500Y78842D01*
X7531500Y78845D01*
X7531499Y78847D01*
X7500738Y233490D01*
X7500737Y233497D01*
X7451914Y351368D01*
X7440397Y379173D01*
X7440390Y379186D01*
X7352789Y510289D01*
X7352786Y510293D01*
X7241292Y621787D01*
X7241288Y621790D01*
X7110185Y709391D01*
X7110172Y709398D01*
X6964501Y769736D01*
X6964489Y769739D01*
X6809845Y800500D01*
X6809842Y800500D01*
X6652158Y800500D01*
X6652155Y800500D01*
X6497510Y769739D01*
X6497498Y769736D01*
X6351827Y709398D01*
X6351814Y709391D01*
X6220711Y621790D01*
X6220707Y621787D01*
X6109213Y510293D01*
X6109210Y510289D01*
X6021609Y379186D01*
X6021602Y379173D01*
X5961264Y233502D01*
X5961261Y233490D01*
X5930500Y78847D01*
X-10912299Y78847D01*
X-11021155Y100500D01*
X-11021158Y100500D01*
X-11178842Y100500D01*
X-11178845Y100500D01*
X-11333490Y69739D01*
X-11333502Y69736D01*
X-11479173Y9398D01*
X-11479186Y9391D01*
X-11610289Y-78210D01*
X-11610293Y-78213D01*
X-11721787Y-189707D01*
X-11721790Y-189711D01*
X-11809391Y-320814D01*
X-11809398Y-320827D01*
X-11869736Y-466498D01*
X-11869739Y-466510D01*
X-11900500Y-621153D01*
X-16144500Y-621153D01*
X-16144500Y1678847D01*
X-12800500Y1678847D01*
X-12800500Y1521154D01*
X-12769739Y1366511D01*
X-12769736Y1366499D01*
X-12709398Y1220828D01*
X-12709391Y1220815D01*
X-12621790Y1089712D01*
X-12621787Y1089708D01*
X-12510293Y978214D01*
X-12510289Y978211D01*
X-12379186Y890610D01*
X-12379173Y890603D01*
X-12233502Y830265D01*
X-12233497Y830263D01*
X-12083869Y800500D01*
X-12078847Y799501D01*
X-12078844Y799500D01*
X-12078842Y799500D01*
X-11921156Y799500D01*
X-11921155Y799501D01*
X-11766503Y830263D01*
X-11620821Y890606D01*
X-11489711Y978211D01*
X-11378211Y1089711D01*
X-11290606Y1220821D01*
X-11230263Y1366503D01*
X-11199500Y1521158D01*
X-11199500Y1678842D01*
X-11199500Y1678845D01*
X-11199501Y1678847D01*
X-11200292Y1682822D01*
X-11230263Y1833497D01*
X-11275876Y1943616D01*
X-11283344Y2013082D01*
X-11264416Y2059957D01*
X-11190606Y2170421D01*
X-11130263Y2316103D01*
X-11099500Y2470758D01*
X-11099500Y2628442D01*
X-11099500Y2628445D01*
X-11099501Y2628447D01*
X-11112583Y2694215D01*
X-11130263Y2783097D01*
X-11133001Y2789708D01*
X-11155794Y2844736D01*
X-11172928Y2886101D01*
X-10500500Y2886101D01*
X-10500500Y2728408D01*
X-10469739Y2573765D01*
X-10469736Y2573753D01*
X-10409398Y2428082D01*
X-10409391Y2428069D01*
X-10321790Y2296966D01*
X-10321787Y2296962D01*
X-10210293Y2185468D01*
X-10210289Y2185465D01*
X-10079186Y2097864D01*
X-10079173Y2097857D01*
X-9937828Y2039311D01*
X-9933497Y2037517D01*
X-9784080Y2007796D01*
X-9778847Y2006755D01*
X-9778844Y2006754D01*
X-9778842Y2006754D01*
X-9621156Y2006754D01*
X-9621155Y2006755D01*
X-9466503Y2037517D01*
X-9320821Y2097860D01*
X-9189711Y2185465D01*
X-9078211Y2296965D01*
X-8990606Y2428075D01*
X-8978475Y2457364D01*
X-8934639Y2511764D01*
X-8868346Y2533832D01*
X-8839745Y2530082D01*
X-8839472Y2531451D01*
X-8678847Y2499501D01*
X-8678844Y2499500D01*
X-8678842Y2499500D01*
X-8521156Y2499500D01*
X-8521155Y2499501D01*
X-8366503Y2530263D01*
X-8220821Y2590606D01*
X-8089711Y2678211D01*
X-7978211Y2789711D01*
X-7890606Y2920821D01*
X-7851683Y3014792D01*
X-7807846Y3069191D01*
X-7785110Y3078847D01*
X-3500500Y3078847D01*
X-3500500Y2921154D01*
X-3469739Y2766511D01*
X-3469736Y2766499D01*
X-3409398Y2620828D01*
X-3409391Y2620815D01*
X-3321790Y2489712D01*
X-3321787Y2489708D01*
X-3210293Y2378214D01*
X-3210289Y2378211D01*
X-3079186Y2290610D01*
X-3079173Y2290603D01*
X-2991770Y2254401D01*
X-2933497Y2230263D01*
X-2864225Y2216485D01*
X-2856526Y2213296D01*
X-2851367Y2213203D01*
X-2819529Y2197970D01*
X-2755610Y2155261D01*
X-2710804Y2101649D01*
X-2700500Y2052159D01*
X-2700500Y2016154D01*
X-2669739Y1861511D01*
X-2669736Y1861499D01*
X-2609398Y1715828D01*
X-2609391Y1715815D01*
X-2521790Y1584712D01*
X-2521787Y1584708D01*
X-2410293Y1473214D01*
X-2410289Y1473211D01*
X-2279186Y1385610D01*
X-2279173Y1385603D01*
X-2133502Y1325265D01*
X-2133497Y1325263D01*
X-1979470Y1294625D01*
X-1978847Y1294501D01*
X-1978844Y1294500D01*
X-1978842Y1294500D01*
X-1821156Y1294500D01*
X-1821155Y1294501D01*
X-1666503Y1325263D01*
X-1520821Y1385606D01*
X-1389711Y1473211D01*
X-1389708Y1473214D01*
X-1352681Y1510240D01*
X-1291358Y1543725D01*
X-1221666Y1538741D01*
X-1177319Y1510240D01*
X-1140293Y1473214D01*
X-1140289Y1473211D01*
X-1009186Y1385610D01*
X-1009173Y1385603D01*
X-863502Y1325265D01*
X-863497Y1325263D01*
X-709470Y1294625D01*
X-708847Y1294501D01*
X-708844Y1294500D01*
X-708842Y1294500D01*
X-551156Y1294500D01*
X-551155Y1294501D01*
X-396503Y1325263D01*
X-250821Y1385606D01*
X-119711Y1473211D01*
X-87682Y1505240D01*
X-26360Y1538726D01*
X43332Y1533742D01*
X87682Y1505240D01*
X119707Y1473214D01*
X119711Y1473211D01*
X250814Y1385610D01*
X250827Y1385603D01*
X396498Y1325265D01*
X396503Y1325263D01*
X550530Y1294625D01*
X551153Y1294501D01*
X551156Y1294500D01*
X551158Y1294500D01*
X708844Y1294500D01*
X708845Y1294501D01*
X863497Y1325263D01*
X1009179Y1385606D01*
X1140289Y1473211D01*
X1140292Y1473214D01*
X1182319Y1515240D01*
X1243642Y1548725D01*
X1313334Y1543741D01*
X1357681Y1515240D01*
X1399707Y1473214D01*
X1399711Y1473211D01*
X1530814Y1385610D01*
X1530827Y1385603D01*
X1676498Y1325265D01*
X1676503Y1325263D01*
X1830530Y1294625D01*
X1831153Y1294501D01*
X1831156Y1294500D01*
X1831158Y1294500D01*
X1988844Y1294500D01*
X1988845Y1294501D01*
X2143497Y1325263D01*
X2289179Y1385606D01*
X2420289Y1473211D01*
X2531789Y1584711D01*
X2619394Y1715821D01*
X2679737Y1861503D01*
X2710500Y2016158D01*
X2710500Y3331802D01*
X7532010Y3331802D01*
X7532010Y3174109D01*
X7562771Y3019466D01*
X7562774Y3019454D01*
X7623112Y2873783D01*
X7623119Y2873770D01*
X7710720Y2742667D01*
X7710723Y2742663D01*
X7822217Y2631169D01*
X7822221Y2631166D01*
X7953324Y2543565D01*
X7953337Y2543558D01*
X8099008Y2483220D01*
X8099013Y2483218D01*
X8229014Y2457359D01*
X8253663Y2452456D01*
X8253666Y2452455D01*
X8253668Y2452455D01*
X8411354Y2452455D01*
X8411355Y2452456D01*
X8566007Y2483218D01*
X8711689Y2543561D01*
X8842799Y2631166D01*
X8954299Y2742666D01*
X8959822Y2750933D01*
X9013435Y2795736D01*
X9062924Y2806040D01*
X9128976Y2806040D01*
X9128977Y2806041D01*
X9283629Y2836803D01*
X9405352Y2887223D01*
X9474819Y2894691D01*
X9500255Y2887222D01*
X9616630Y2839019D01*
X9616635Y2839017D01*
X9771285Y2808255D01*
X9771288Y2808254D01*
X9771290Y2808254D01*
X9928976Y2808254D01*
X9928977Y2808255D01*
X10083629Y2839017D01*
X10184926Y2880976D01*
X10254391Y2888444D01*
X10279821Y2880977D01*
X10416503Y2824362D01*
X10555156Y2796782D01*
X10571153Y2793600D01*
X10571156Y2793599D01*
X10571158Y2793599D01*
X10728844Y2793599D01*
X10728845Y2793600D01*
X10883497Y2824362D01*
X11029179Y2884705D01*
X11160289Y2972310D01*
X11271789Y3083810D01*
X11359394Y3214920D01*
X11371351Y3243787D01*
X11403837Y3322215D01*
X11422931Y3345912D01*
X11440179Y3370980D01*
X11445345Y3373726D01*
X11447677Y3376619D01*
X11470455Y3389120D01*
X11477227Y3391960D01*
X11478237Y3392160D01*
X11623919Y3452503D01*
X11627756Y3455068D01*
X11637574Y3459183D01*
X11666734Y3462445D01*
X11695460Y3468427D01*
X11703310Y3466536D01*
X11707011Y3466949D01*
X11712147Y3464406D01*
X11732969Y3459387D01*
X11818134Y3424111D01*
X11856257Y3408320D01*
X11965923Y3386506D01*
X12010907Y3377558D01*
X12010910Y3377557D01*
X12010912Y3377557D01*
X12168598Y3377557D01*
X12168599Y3377558D01*
X12323251Y3408320D01*
X12468933Y3468663D01*
X12600043Y3556268D01*
X12711543Y3667768D01*
X12757433Y3736447D01*
X13245700Y3736447D01*
X13245700Y3578754D01*
X13276461Y3424111D01*
X13276464Y3424099D01*
X13336802Y3278428D01*
X13336809Y3278415D01*
X13424410Y3147312D01*
X13424413Y3147308D01*
X13535907Y3035814D01*
X13535911Y3035811D01*
X13667014Y2948210D01*
X13667027Y2948203D01*
X13804241Y2891368D01*
X13812703Y2887863D01*
X13967353Y2857101D01*
X13967356Y2857100D01*
X13967358Y2857100D01*
X14125044Y2857100D01*
X14125045Y2857101D01*
X14279697Y2887863D01*
X14288311Y2891432D01*
X14357779Y2898901D01*
X14404656Y2879973D01*
X14530614Y2795810D01*
X14530627Y2795803D01*
X14676298Y2735465D01*
X14676303Y2735463D01*
X14802197Y2710421D01*
X14830953Y2704701D01*
X14830956Y2704700D01*
X14830958Y2704700D01*
X14863725Y2704700D01*
X14930764Y2685015D01*
X14966827Y2649590D01*
X15024607Y2563116D01*
X15024613Y2563108D01*
X15136107Y2451614D01*
X15136111Y2451611D01*
X15267214Y2364010D01*
X15267227Y2364003D01*
X15412898Y2303665D01*
X15412903Y2303663D01*
X15567553Y2272901D01*
X15567556Y2272900D01*
X15567558Y2272900D01*
X15725244Y2272900D01*
X15725245Y2272901D01*
X15879897Y2303663D01*
X16025579Y2364006D01*
X16156689Y2451611D01*
X16268189Y2563111D01*
X16331657Y2658098D01*
X22699500Y2658098D01*
X22699500Y2421903D01*
X22736446Y2188632D01*
X22809433Y1964004D01*
X22875934Y1833490D01*
X22916657Y1753567D01*
X23055483Y1562490D01*
X23222490Y1395483D01*
X23257127Y1370317D01*
X23299792Y1314987D01*
X23305771Y1245374D01*
X23273165Y1183579D01*
X23257130Y1169685D01*
X23239365Y1156778D01*
X23222488Y1144516D01*
X23055485Y977513D01*
X23055485Y977512D01*
X23055483Y977510D01*
X22995862Y895450D01*
X22916657Y786434D01*
X22809433Y575997D01*
X22736446Y351369D01*
X22699500Y118098D01*
X22699500Y-118097D01*
X22736446Y-351368D01*
X22809433Y-575996D01*
X22875832Y-706310D01*
X22916657Y-786433D01*
X23055483Y-977510D01*
X23222490Y-1144517D01*
X23257127Y-1169683D01*
X23299792Y-1225013D01*
X23305771Y-1294626D01*
X23273165Y-1356421D01*
X23257130Y-1370315D01*
X23239365Y-1383222D01*
X23222488Y-1395484D01*
X23055485Y-1562487D01*
X23055485Y-1562488D01*
X23055483Y-1562490D01*
X23039110Y-1585026D01*
X22916657Y-1753566D01*
X22809433Y-1964003D01*
X22736446Y-2188631D01*
X22699500Y-2421902D01*
X22699500Y-2658097D01*
X22736446Y-2891368D01*
X22809433Y-3115996D01*
X22915006Y-3323192D01*
X22916657Y-3326433D01*
X23055483Y-3517510D01*
X23222490Y-3684517D01*
X23413567Y-3823343D01*
X23512991Y-3874002D01*
X23624003Y-3930566D01*
X23624005Y-3930566D01*
X23624008Y-3930568D01*
X23706890Y-3957498D01*
X23848631Y-4003553D01*
X24081903Y-4040500D01*
X24081908Y-4040500D01*
X24318097Y-4040500D01*
X24551368Y-4003553D01*
X24571068Y-3997152D01*
X24775992Y-3930568D01*
X24986433Y-3823343D01*
X25177510Y-3684517D01*
X25344517Y-3517510D01*
X25483343Y-3326433D01*
X25590568Y-3115992D01*
X25663553Y-2891368D01*
X25666714Y-2871411D01*
X25700500Y-2658097D01*
X25700500Y-2421902D01*
X25663553Y-2188631D01*
X25622504Y-2062297D01*
X25590568Y-1964008D01*
X25590566Y-1964005D01*
X25590566Y-1964003D01*
X25531600Y-1848276D01*
X25483343Y-1753567D01*
X25344517Y-1562490D01*
X25177510Y-1395483D01*
X25142872Y-1370317D01*
X25100207Y-1314989D01*
X25094228Y-1245375D01*
X25126833Y-1183580D01*
X25142873Y-1169682D01*
X25177510Y-1144517D01*
X25344517Y-977510D01*
X25483343Y-786433D01*
X25590568Y-575992D01*
X25663553Y-351368D01*
X25668392Y-320814D01*
X25700500Y-118097D01*
X25700500Y118098D01*
X25663553Y351369D01*
X25590566Y575997D01*
X25522594Y709398D01*
X25483343Y786433D01*
X25344517Y977510D01*
X25177510Y1144517D01*
X25142872Y1169683D01*
X25100207Y1225011D01*
X25094228Y1294625D01*
X25126833Y1356420D01*
X25142873Y1370318D01*
X25177510Y1395483D01*
X25344517Y1562490D01*
X25483343Y1753567D01*
X25590568Y1964008D01*
X25663553Y2188632D01*
X25676900Y2272901D01*
X25700500Y2421903D01*
X25700500Y2658098D01*
X25663553Y2891369D01*
X25621931Y3019466D01*
X25590568Y3115992D01*
X25590566Y3115995D01*
X25590566Y3115997D01*
X25507803Y3278428D01*
X25483343Y3326433D01*
X25344517Y3517510D01*
X25177510Y3684517D01*
X24986433Y3823343D01*
X24947585Y3843137D01*
X24775996Y3930567D01*
X24551368Y4003554D01*
X24318097Y4040500D01*
X24318092Y4040500D01*
X24081908Y4040500D01*
X24081903Y4040500D01*
X23848631Y4003554D01*
X23624003Y3930567D01*
X23413566Y3823343D01*
X23330848Y3763244D01*
X23222490Y3684517D01*
X23222488Y3684515D01*
X23222487Y3684515D01*
X23055485Y3517513D01*
X23055485Y3517512D01*
X23055483Y3517510D01*
X23019822Y3468427D01*
X22916657Y3326434D01*
X22809433Y3115997D01*
X22736446Y2891369D01*
X22699500Y2658098D01*
X16331657Y2658098D01*
X16355794Y2694221D01*
X16416137Y2839903D01*
X16446900Y2994558D01*
X16446900Y3152242D01*
X16446900Y3152245D01*
X16446899Y3152247D01*
X16442550Y3174109D01*
X16416137Y3306897D01*
X16410984Y3319337D01*
X16355797Y3452573D01*
X16355790Y3452586D01*
X16268189Y3583689D01*
X16268186Y3583693D01*
X16156692Y3695187D01*
X16156688Y3695190D01*
X16025585Y3782791D01*
X16025572Y3782798D01*
X15879901Y3843136D01*
X15879889Y3843139D01*
X15725245Y3873900D01*
X15725242Y3873900D01*
X15692475Y3873900D01*
X15625436Y3893585D01*
X15589373Y3929010D01*
X15531592Y4015485D01*
X15531586Y4015493D01*
X15420092Y4126987D01*
X15420088Y4126990D01*
X15288985Y4214591D01*
X15288972Y4214598D01*
X15143301Y4274936D01*
X15143289Y4274939D01*
X14988645Y4305700D01*
X14988642Y4305700D01*
X14830958Y4305700D01*
X14830955Y4305700D01*
X14676305Y4274939D01*
X14676297Y4274936D01*
X14667684Y4271368D01*
X14598214Y4263901D01*
X14551343Y4282828D01*
X14425385Y4366991D01*
X14425372Y4366998D01*
X14279701Y4427336D01*
X14279689Y4427339D01*
X14125045Y4458100D01*
X14125042Y4458100D01*
X13967358Y4458100D01*
X13967355Y4458100D01*
X13812710Y4427339D01*
X13812698Y4427336D01*
X13667027Y4366998D01*
X13667014Y4366991D01*
X13535911Y4279390D01*
X13535907Y4279387D01*
X13424413Y4167893D01*
X13424410Y4167889D01*
X13336809Y4036786D01*
X13336802Y4036773D01*
X13276464Y3891102D01*
X13276461Y3891090D01*
X13245700Y3736447D01*
X12757433Y3736447D01*
X12799148Y3798878D01*
X12859491Y3944560D01*
X12890254Y4099215D01*
X12890254Y4256899D01*
X12890254Y4256902D01*
X12890253Y4256904D01*
X12878814Y4314412D01*
X12859491Y4411554D01*
X12834370Y4472203D01*
X12799151Y4557230D01*
X12799144Y4557243D01*
X12711543Y4688346D01*
X12711540Y4688350D01*
X12600046Y4799844D01*
X12600042Y4799847D01*
X12468939Y4887448D01*
X12468926Y4887455D01*
X12323255Y4947793D01*
X12323243Y4947796D01*
X12168599Y4978557D01*
X12168596Y4978557D01*
X12010912Y4978557D01*
X12010909Y4978557D01*
X11856264Y4947796D01*
X11856252Y4947793D01*
X11710580Y4887454D01*
X11707431Y4885770D01*
X11705591Y4885388D01*
X11704947Y4885120D01*
X11704896Y4885243D01*
X11639028Y4871528D01*
X11601525Y4880567D01*
X11478241Y4931633D01*
X11478229Y4931636D01*
X11323585Y4962397D01*
X11323582Y4962397D01*
X11165898Y4962397D01*
X11165895Y4962397D01*
X11011250Y4931636D01*
X11011238Y4931633D01*
X10865567Y4871295D01*
X10865554Y4871288D01*
X10734451Y4783687D01*
X10734447Y4783684D01*
X10622953Y4672190D01*
X10622950Y4672186D01*
X10535349Y4541083D01*
X10535344Y4541073D01*
X10490902Y4433780D01*
X10471592Y4409819D01*
X10454006Y4384568D01*
X10449198Y4382030D01*
X10447061Y4379377D01*
X10423626Y4366603D01*
X10417304Y4363996D01*
X10416503Y4363836D01*
X10316820Y4322547D01*
X10315486Y4321996D01*
X10315206Y4321879D01*
X10315204Y4321879D01*
X10315040Y4321811D01*
X10280561Y4318156D01*
X10245736Y4314412D01*
X10245609Y4314450D01*
X10245560Y4314444D01*
X10245465Y4314492D01*
X10220303Y4321880D01*
X10083633Y4378490D01*
X10083621Y4378493D01*
X9928977Y4409254D01*
X9928974Y4409254D01*
X9771290Y4409254D01*
X9771287Y4409254D01*
X9616642Y4378493D01*
X9616639Y4378492D01*
X9616638Y4378492D01*
X9616635Y4378491D01*
X9537001Y4345506D01*
X9494911Y4328072D01*
X9425441Y4320604D01*
X9400007Y4328073D01*
X9283633Y4376276D01*
X9283621Y4376279D01*
X9128977Y4407040D01*
X9128974Y4407040D01*
X8971290Y4407040D01*
X8971287Y4407040D01*
X8816642Y4376279D01*
X8816630Y4376276D01*
X8670959Y4315938D01*
X8670946Y4315931D01*
X8539843Y4228330D01*
X8539839Y4228327D01*
X8428345Y4116833D01*
X8422820Y4108563D01*
X8369207Y4063759D01*
X8319718Y4053455D01*
X8253665Y4053455D01*
X8099020Y4022694D01*
X8099008Y4022691D01*
X7953337Y3962353D01*
X7953324Y3962346D01*
X7822221Y3874745D01*
X7822217Y3874742D01*
X7710723Y3763248D01*
X7710720Y3763244D01*
X7623119Y3632141D01*
X7623112Y3632128D01*
X7562774Y3486457D01*
X7562771Y3486445D01*
X7532010Y3331802D01*
X2710500Y3331802D01*
X2710500Y3406660D01*
X2730185Y3473699D01*
X2746814Y3494337D01*
X2831589Y3579111D01*
X2919194Y3710221D01*
X2979537Y3855903D01*
X3010300Y4010558D01*
X3010300Y4168242D01*
X3010300Y4168245D01*
X3010299Y4168247D01*
X3004423Y4197785D01*
X2979537Y4322897D01*
X2979464Y4323074D01*
X2919197Y4468573D01*
X2919190Y4468586D01*
X2831589Y4599689D01*
X2831586Y4599693D01*
X2720092Y4711187D01*
X2720088Y4711190D01*
X2588985Y4798791D01*
X2588972Y4798798D01*
X2443301Y4859136D01*
X2443289Y4859139D01*
X2288645Y4889900D01*
X2288642Y4889900D01*
X2130958Y4889900D01*
X2130955Y4889900D01*
X1976310Y4859139D01*
X1976298Y4859136D01*
X1830627Y4798798D01*
X1830616Y4798792D01*
X1790647Y4772085D01*
X1723969Y4751208D01*
X1656589Y4769693D01*
X1618655Y4806297D01*
X1586989Y4853689D01*
X1586987Y4853692D01*
X1475492Y4965187D01*
X1475488Y4965190D01*
X1344385Y5052791D01*
X1344372Y5052798D01*
X1198701Y5113136D01*
X1198689Y5113139D01*
X1044045Y5143900D01*
X1044042Y5143900D01*
X886358Y5143900D01*
X886355Y5143900D01*
X731710Y5113139D01*
X731698Y5113136D01*
X586027Y5052798D01*
X586014Y5052791D01*
X454911Y4965190D01*
X454907Y4965187D01*
X343413Y4853693D01*
X343408Y4853687D01*
X314997Y4811167D01*
X261384Y4766362D01*
X192059Y4757656D01*
X164444Y4765498D01*
X33501Y4819736D01*
X33489Y4819739D01*
X-121155Y4850500D01*
X-121158Y4850500D01*
X-278842Y4850500D01*
X-278845Y4850500D01*
X-433490Y4819739D01*
X-433502Y4819736D01*
X-579173Y4759398D01*
X-579186Y4759391D01*
X-710289Y4671790D01*
X-710293Y4671787D01*
X-821787Y4560293D01*
X-821793Y4560285D01*
X-909393Y4429182D01*
X-909396Y4429176D01*
X-927733Y4384908D01*
X-954611Y4344682D01*
X-1135277Y4164015D01*
X-1206469Y4057468D01*
X-1209338Y4052099D01*
X-1211447Y4053226D01*
X-1248673Y4007051D01*
X-1314972Y3985001D01*
X-1382668Y4002295D01*
X-1388262Y4005821D01*
X-1520815Y4094391D01*
X-1520828Y4094398D01*
X-1666499Y4154736D01*
X-1666511Y4154739D01*
X-1821155Y4185500D01*
X-1821158Y4185500D01*
X-1978842Y4185500D01*
X-1978845Y4185500D01*
X-2133490Y4154739D01*
X-2133502Y4154736D01*
X-2279173Y4094398D01*
X-2279186Y4094391D01*
X-2410289Y4006790D01*
X-2410293Y4006787D01*
X-2521783Y3895296D01*
X-2521787Y3895292D01*
X-2521789Y3895289D01*
X-2548304Y3855608D01*
X-2601915Y3810804D01*
X-2651404Y3800500D01*
X-2778845Y3800500D01*
X-2933490Y3769739D01*
X-2933502Y3769736D01*
X-3079173Y3709398D01*
X-3079186Y3709391D01*
X-3210289Y3621790D01*
X-3210293Y3621787D01*
X-3321787Y3510293D01*
X-3321790Y3510289D01*
X-3409391Y3379186D01*
X-3409398Y3379173D01*
X-3469736Y3233502D01*
X-3469739Y3233490D01*
X-3500500Y3078847D01*
X-7785110Y3078847D01*
X-7761313Y3088954D01*
X-7752319Y3090742D01*
X-7627982Y3142244D01*
X-7606644Y3151082D01*
X-7606644Y3151083D01*
X-7606637Y3151085D01*
X-7604898Y3152247D01*
X-7551335Y3188036D01*
X-7511091Y3214927D01*
X-7475527Y3238690D01*
X-7364027Y3350190D01*
X-7276422Y3481300D01*
X-7266019Y3506414D01*
X-7253595Y3536410D01*
X-7216079Y3626982D01*
X-7185316Y3781637D01*
X-7185316Y3939321D01*
X-7185316Y3939324D01*
X-7185317Y3939326D01*
X-7194402Y3985001D01*
X-7216079Y4093976D01*
X-7225545Y4116829D01*
X-7259077Y4197785D01*
X-7262358Y4228301D01*
X-7267805Y4258493D01*
X-7266257Y4264561D01*
X-7266546Y4267254D01*
X-7259079Y4292685D01*
X-7251132Y4311871D01*
X-7207291Y4366272D01*
X-7160763Y4386032D01*
X-7147820Y4388607D01*
X-7030903Y4411863D01*
X-6893977Y4468579D01*
X-6885228Y4472203D01*
X-6885228Y4472204D01*
X-6885221Y4472206D01*
X-6754111Y4559811D01*
X-6642611Y4671311D01*
X-6555006Y4802421D01*
X-6494663Y4948103D01*
X-6494661Y4948114D01*
X-6492894Y4953936D01*
X-6490330Y4953159D01*
X-6463372Y5004796D01*
X-6421527Y5033324D01*
X-6347081Y5064160D01*
X-6215971Y5151765D01*
X-6104471Y5263265D01*
X-6016866Y5394375D01*
X-5956523Y5540057D01*
X-5925760Y5694712D01*
X-5925760Y5852396D01*
X-5925760Y5852399D01*
X-5925761Y5852401D01*
X-5955801Y6003421D01*
X-5956523Y6007051D01*
X-5956525Y6007056D01*
X-6016863Y6152727D01*
X-6016870Y6152740D01*
X-6104471Y6283843D01*
X-6104474Y6283847D01*
X-6215968Y6395341D01*
X-6215976Y6395347D01*
X-6226186Y6402170D01*
X-6270989Y6455784D01*
X-6279694Y6525109D01*
X-6249536Y6588135D01*
X-6244991Y6592932D01*
X-6185411Y6652511D01*
X-6097806Y6783621D01*
X-6037463Y6929303D01*
X-6006700Y7083958D01*
X-6006700Y7241642D01*
X-6006700Y7241645D01*
X-6006701Y7241647D01*
X-6037462Y7396290D01*
X-6037463Y7396297D01*
X-6037465Y7396302D01*
X-6097803Y7541973D01*
X-6097810Y7541986D01*
X-6185411Y7673089D01*
X-6185414Y7673093D01*
X-6296908Y7784587D01*
X-6296912Y7784590D01*
X-6428015Y7872191D01*
X-6428028Y7872198D01*
X-6573699Y7932536D01*
X-6573711Y7932539D01*
X-6728355Y7963300D01*
X-6728358Y7963300D01*
X-6886042Y7963300D01*
X-6886045Y7963300D01*
X-7040690Y7932539D01*
X-7040702Y7932536D01*
X-7186373Y7872198D01*
X-7186386Y7872191D01*
X-7317489Y7784590D01*
X-7317493Y7784587D01*
X-7428987Y7673093D01*
X-7428990Y7673089D01*
X-7516591Y7541986D01*
X-7516598Y7541973D01*
X-7576936Y7396302D01*
X-7576939Y7396290D01*
X-7607700Y7241647D01*
X-7607700Y7227082D01*
X-7627385Y7160043D01*
X-7680189Y7114288D01*
X-7684246Y7112521D01*
X-7733803Y7091994D01*
X-7733809Y7091991D01*
X-7864912Y7004390D01*
X-7864916Y7004387D01*
X-7976410Y6892893D01*
X-7976413Y6892889D01*
X-8064014Y6761786D01*
X-8064021Y6761773D01*
X-8124359Y6616102D01*
X-8124362Y6616090D01*
X-8155123Y6461447D01*
X-8155123Y6303754D01*
X-8124362Y6149111D01*
X-8124359Y6149099D01*
X-8064021Y6003428D01*
X-8064014Y6003415D01*
X-7976413Y5872312D01*
X-7976410Y5872308D01*
X-7922020Y5817919D01*
X-7908227Y5792660D01*
X-7891900Y5768955D01*
X-7891690Y5762375D01*
X-7888534Y5756596D01*
X-7890587Y5727890D01*
X-7889667Y5699121D01*
X-7893210Y5691218D01*
X-7893518Y5686904D01*
X-7903296Y5666565D01*
X-7904892Y5663900D01*
X-7973794Y5560779D01*
X-7989977Y5521712D01*
X-7994655Y5513893D01*
X-8013900Y5496111D01*
X-8030342Y5475707D01*
X-8040772Y5471278D01*
X-8045970Y5466474D01*
X-8056432Y5464627D01*
X-8076867Y5455948D01*
X-8206722Y5430118D01*
X-8206732Y5430115D01*
X-8352403Y5369777D01*
X-8352416Y5369770D01*
X-8483519Y5282169D01*
X-8483523Y5282166D01*
X-8595017Y5170672D01*
X-8595020Y5170668D01*
X-8682621Y5039565D01*
X-8682628Y5039552D01*
X-8742966Y4893881D01*
X-8742969Y4893869D01*
X-8773730Y4739226D01*
X-8773730Y4581533D01*
X-8742969Y4426890D01*
X-8742966Y4426878D01*
X-8699969Y4323074D01*
X-8696689Y4292559D01*
X-8691241Y4262366D01*
X-8692790Y4256299D01*
X-8692500Y4253605D01*
X-8699969Y4228168D01*
X-8734133Y4145691D01*
X-8777975Y4091288D01*
X-8824493Y4071530D01*
X-8833486Y4069741D01*
X-8833500Y4069737D01*
X-8979173Y4009398D01*
X-8979186Y4009391D01*
X-9110289Y3921790D01*
X-9110293Y3921787D01*
X-9221787Y3810293D01*
X-9221790Y3810289D01*
X-9309391Y3679186D01*
X-9309397Y3679174D01*
X-9321527Y3649890D01*
X-9365369Y3595488D01*
X-9431663Y3573424D01*
X-9460270Y3577103D01*
X-9460528Y3575803D01*
X-9621155Y3607754D01*
X-9621158Y3607754D01*
X-9778842Y3607754D01*
X-9778845Y3607754D01*
X-9933490Y3576993D01*
X-9933502Y3576990D01*
X-10079173Y3516652D01*
X-10079186Y3516645D01*
X-10210289Y3429044D01*
X-10210293Y3429041D01*
X-10321787Y3317547D01*
X-10321790Y3317543D01*
X-10409391Y3186440D01*
X-10409398Y3186427D01*
X-10469736Y3040756D01*
X-10469739Y3040744D01*
X-10500500Y2886101D01*
X-11172928Y2886101D01*
X-11190603Y2928773D01*
X-11190610Y2928786D01*
X-11278211Y3059889D01*
X-11278214Y3059893D01*
X-11389708Y3171387D01*
X-11389712Y3171390D01*
X-11520815Y3258991D01*
X-11520828Y3258998D01*
X-11666499Y3319336D01*
X-11666511Y3319339D01*
X-11821155Y3350100D01*
X-11821158Y3350100D01*
X-11978842Y3350100D01*
X-11978845Y3350100D01*
X-12133490Y3319339D01*
X-12133502Y3319336D01*
X-12279173Y3258998D01*
X-12279186Y3258991D01*
X-12410289Y3171390D01*
X-12410293Y3171387D01*
X-12521787Y3059893D01*
X-12521790Y3059889D01*
X-12609391Y2928786D01*
X-12609398Y2928773D01*
X-12669736Y2783102D01*
X-12669739Y2783090D01*
X-12700500Y2628447D01*
X-12700500Y2470754D01*
X-12669739Y2316111D01*
X-12669736Y2316099D01*
X-12624126Y2205986D01*
X-12616657Y2136517D01*
X-12635585Y2089643D01*
X-12709391Y1979186D01*
X-12709398Y1979173D01*
X-12769736Y1833502D01*
X-12769739Y1833490D01*
X-12800500Y1678847D01*
X-16144500Y1678847D01*
X-16144500Y2257544D01*
X-16165677Y2364003D01*
X-16169755Y2384506D01*
X-16182949Y2450836D01*
X-16229455Y2563111D01*
X-16258368Y2632914D01*
X-16265334Y2643339D01*
X-16367860Y2796781D01*
X-16428180Y2857101D01*
X-16507218Y2936139D01*
X-16507219Y2936140D01*
X-16543392Y2972313D01*
X-16598891Y3027812D01*
X-16629141Y3077177D01*
X-16633127Y3089445D01*
X-16697059Y3214920D01*
X-16711767Y3243787D01*
X-16736926Y3278415D01*
X-16813586Y3383928D01*
X-16936072Y3506414D01*
X-17076212Y3608232D01*
X-17230555Y3686873D01*
X-17395299Y3740402D01*
X-17395301Y3740403D01*
X-17395302Y3740403D01*
X-17539543Y3763248D01*
X-17566389Y3767500D01*
X-17739611Y3767500D01*
X-17766457Y3763248D01*
X-17910698Y3740403D01*
X-18075448Y3686872D01*
X-18229789Y3608232D01*
X-18272789Y3576990D01*
X-18369928Y3506414D01*
X-18369930Y3506412D01*
X-18369931Y3506412D01*
X-18492412Y3383931D01*
X-18492412Y3383930D01*
X-18492414Y3383928D01*
X-18534186Y3326434D01*
X-18594232Y3243789D01*
X-18672872Y3089448D01*
X-18726403Y2924698D01*
X-18746828Y2795736D01*
X-18753500Y2753611D01*
X-20173327Y2753611D01*
X-20167812Y2763164D01*
X-20132000Y2896817D01*
X-20132000Y3035183D01*
X-20167812Y3168836D01*
X-20219863Y3258991D01*
X-20236993Y3288662D01*
X-20236997Y3288667D01*
X-20334836Y3386506D01*
X-20345501Y3392663D01*
X-20393716Y3443231D01*
X-20407500Y3500050D01*
X-20407500Y3996001D01*
X-19907500Y3996001D01*
X-19907500Y3296000D01*
X-19670929Y3296000D01*
X-19499916Y3323086D01*
X-19335243Y3376592D01*
X-19180976Y3455196D01*
X-19040898Y3556968D01*
X-18918468Y3679398D01*
X-18816696Y3819476D01*
X-18738092Y3973745D01*
X-18684586Y4138416D01*
X-18683385Y4146000D01*
X-19441804Y4146000D01*
X-19437409Y4150395D01*
X-19384748Y4241606D01*
X-19357489Y4343339D01*
X-19357489Y4448661D01*
X-19384748Y4550394D01*
X-19437409Y4641605D01*
X-19441804Y4646000D01*
X-18683385Y4646000D01*
X-18683385Y4646001D01*
X-18684586Y4653585D01*
X-18738092Y4818256D01*
X-18816696Y4972525D01*
X-18918468Y5112603D01*
X-19040898Y5235033D01*
X-19180976Y5336805D01*
X-19335243Y5415409D01*
X-19499916Y5468915D01*
X-19670929Y5496000D01*
X-19907500Y5496000D01*
X-19907500Y4795999D01*
X-20407500Y4795999D01*
X-20407500Y5496000D01*
X-20644071Y5496000D01*
X-20815085Y5468915D01*
X-20979758Y5415409D01*
X-21134025Y5336805D01*
X-21274103Y5235033D01*
X-21396533Y5112603D01*
X-21498305Y4972525D01*
X-21576909Y4818256D01*
X-21630415Y4653585D01*
X-21631616Y4646001D01*
X-22963385Y4646001D01*
X-22964586Y4653585D01*
X-23018092Y4818256D01*
X-23096696Y4972525D01*
X-23198468Y5112603D01*
X-23320898Y5235033D01*
X-23460976Y5336805D01*
X-23615243Y5415409D01*
X-23779916Y5468915D01*
X-23950929Y5496000D01*
X-24087500Y5496000D01*
X-24087500Y4795999D01*
X-24587500Y4795999D01*
X-24587500Y5496000D01*
X-24724071Y5496000D01*
X-24895085Y5468915D01*
X-25059758Y5415409D01*
X-25214025Y5336805D01*
X-25354103Y5235033D01*
X-25476533Y5112603D01*
X-25578305Y4972525D01*
X-25656909Y4818256D01*
X-25710415Y4653585D01*
X-25711616Y4646001D01*
X-27299500Y4646001D01*
X-27299500Y7573936D01*
X-27279815Y7640975D01*
X-27227011Y7686730D01*
X-27157853Y7696674D01*
X-27094297Y7667649D01*
X-27057571Y7612257D01*
X-27054873Y7603955D01*
X-27054871Y7603950D01*
X-27054870Y7603949D01*
X-27023295Y7541979D01*
X-26976232Y7449612D01*
X-26874414Y7309472D01*
X-26751928Y7186986D01*
X-26611788Y7085168D01*
X-26457445Y7006527D01*
X-26292701Y6952998D01*
X-26121611Y6925900D01*
X-26121610Y6925900D01*
X-25948390Y6925900D01*
X-25948389Y6925900D01*
X-25777299Y6952998D01*
X-25612555Y7006527D01*
X-25458212Y7085168D01*
X-25318072Y7186986D01*
X-25195586Y7309472D01*
X-25093768Y7449612D01*
X-25015127Y7603955D01*
X-24961598Y7768699D01*
X-24934500Y7939789D01*
X-24934500Y8113011D01*
X-24961598Y8284101D01*
X-25015127Y8448845D01*
X-25093768Y8603188D01*
X-25195586Y8743328D01*
X-25318072Y8865814D01*
X-25458212Y8967632D01*
X-25612555Y9046273D01*
X-25777299Y9099802D01*
X-25777301Y9099803D01*
X-25777302Y9099803D01*
X-25908729Y9120619D01*
X-25948389Y9126900D01*
X-26121611Y9126900D01*
X-26161272Y9120619D01*
X-26292698Y9099803D01*
X-26457448Y9046272D01*
X-26611789Y8967632D01*
X-26691744Y8909541D01*
X-26751928Y8865814D01*
X-26751930Y8865812D01*
X-26751931Y8865812D01*
X-26874412Y8743331D01*
X-26874412Y8743330D01*
X-26874414Y8743328D01*
X-26918141Y8683144D01*
X-26976232Y8603189D01*
X-27054872Y8448850D01*
X-27056331Y8444359D01*
X-27057571Y8440545D01*
X-27097007Y8382871D01*
X-27161366Y8355673D01*
X-27230212Y8367588D01*
X-27281688Y8414833D01*
X-27299500Y8478865D01*
X-27299500Y11418847D01*
X-6750500Y11418847D01*
X-6750500Y11261154D01*
X-6719739Y11106511D01*
X-6719736Y11106499D01*
X-6659398Y10960828D01*
X-6659391Y10960815D01*
X-6571790Y10829712D01*
X-6571787Y10829708D01*
X-6460293Y10718214D01*
X-6460289Y10718211D01*
X-6329186Y10630610D01*
X-6329173Y10630603D01*
X-6207637Y10580262D01*
X-6183497Y10570263D01*
X-6028847Y10539501D01*
X-6028844Y10539500D01*
X-6028842Y10539500D01*
X-5871156Y10539500D01*
X-5871155Y10539501D01*
X-5716503Y10570263D01*
X-5590584Y10622420D01*
X-5583913Y10625183D01*
X-5514444Y10632652D01*
X-5485022Y10622420D01*
X-5484807Y10622937D01*
X-5357637Y10570262D01*
X-5333497Y10560263D01*
X-5178847Y10529501D01*
X-5178844Y10529500D01*
X-5178842Y10529500D01*
X-5021156Y10529500D01*
X-5021155Y10529501D01*
X-4866503Y10560263D01*
X-4810880Y10583303D01*
X-4715192Y10622937D01*
X-4714603Y10621514D01*
X-4653615Y10634224D01*
X-4616088Y10625183D01*
X-4507637Y10580262D01*
X-4483497Y10570263D01*
X-4328847Y10539501D01*
X-4328844Y10539500D01*
X-4328842Y10539500D01*
X-4171156Y10539500D01*
X-4171155Y10539501D01*
X-4016503Y10570263D01*
X-3890584Y10622420D01*
X-3883913Y10625183D01*
X-3814444Y10632652D01*
X-3785022Y10622420D01*
X-3784807Y10622937D01*
X-3657637Y10570262D01*
X-3633497Y10560263D01*
X-3478847Y10529501D01*
X-3478844Y10529500D01*
X-3478842Y10529500D01*
X-3321156Y10529500D01*
X-3321155Y10529501D01*
X-3166503Y10560263D01*
X-3020821Y10620606D01*
X-3020816Y10620610D01*
X-3015454Y10623475D01*
X-3014654Y10621978D01*
X-2955732Y10640441D01*
X-2906042Y10631023D01*
X-2783497Y10580263D01*
X-2628847Y10549501D01*
X-2628844Y10549500D01*
X-2628842Y10549500D01*
X-2471156Y10549500D01*
X-2471155Y10549501D01*
X-2316503Y10580263D01*
X-2203834Y10626933D01*
X-2170828Y10640603D01*
X-2170828Y10640604D01*
X-2170821Y10640606D01*
X-2039711Y10728211D01*
X-1928211Y10839711D01*
X-1840606Y10970821D01*
X-1780263Y11116503D01*
X-1749500Y11271158D01*
X-1749500Y11428842D01*
X-1749500Y11428845D01*
X-1749501Y11428847D01*
X-1780263Y11583497D01*
X-1836461Y11719173D01*
X-1840603Y11729173D01*
X-1840610Y11729186D01*
X-1928211Y11860289D01*
X-1928214Y11860293D01*
X-2039708Y11971787D01*
X-2039712Y11971790D01*
X-2170815Y12059391D01*
X-2170828Y12059398D01*
X-2316499Y12119736D01*
X-2316511Y12119739D01*
X-2471155Y12150500D01*
X-2471158Y12150500D01*
X-2628842Y12150500D01*
X-2628845Y12150500D01*
X-2783490Y12119739D01*
X-2783502Y12119736D01*
X-2929177Y12059396D01*
X-2934548Y12056524D01*
X-2935345Y12058014D01*
X-2994318Y12039559D01*
X-3043960Y12048979D01*
X-3166499Y12099736D01*
X-3166511Y12099739D01*
X-3321155Y12130500D01*
X-3321158Y12130500D01*
X-3478842Y12130500D01*
X-3478845Y12130500D01*
X-3633490Y12099739D01*
X-3633502Y12099736D01*
X-3766087Y12044818D01*
X-3835557Y12037349D01*
X-3864980Y12047579D01*
X-3865193Y12047063D01*
X-4016499Y12109736D01*
X-4016511Y12109739D01*
X-4171155Y12140500D01*
X-4171158Y12140500D01*
X-4328842Y12140500D01*
X-4328845Y12140500D01*
X-4483490Y12109739D01*
X-4483502Y12109736D01*
X-4634807Y12047063D01*
X-4635394Y12048478D01*
X-4696434Y12035781D01*
X-4733913Y12044818D01*
X-4866499Y12099736D01*
X-4866511Y12099739D01*
X-5021155Y12130500D01*
X-5021158Y12130500D01*
X-5178842Y12130500D01*
X-5178845Y12130500D01*
X-5333490Y12099739D01*
X-5333502Y12099736D01*
X-5466087Y12044818D01*
X-5535557Y12037349D01*
X-5564980Y12047579D01*
X-5565193Y12047063D01*
X-5716499Y12109736D01*
X-5716511Y12109739D01*
X-5871155Y12140500D01*
X-5871158Y12140500D01*
X-6028842Y12140500D01*
X-6028845Y12140500D01*
X-6183490Y12109739D01*
X-6183502Y12109736D01*
X-6329173Y12049398D01*
X-6329186Y12049391D01*
X-6460289Y11961790D01*
X-6460293Y11961787D01*
X-6571787Y11850293D01*
X-6571790Y11850289D01*
X-6659391Y11719186D01*
X-6659398Y11719173D01*
X-6719736Y11573502D01*
X-6719739Y11573490D01*
X-6750500Y11418847D01*
X-27299500Y11418847D01*
X-27299500Y13228847D01*
X-9130500Y13228847D01*
X-9130500Y13071154D01*
X-9099739Y12916511D01*
X-9099736Y12916499D01*
X-9039398Y12770828D01*
X-9039391Y12770815D01*
X-8951790Y12639712D01*
X-8951787Y12639708D01*
X-8840293Y12528214D01*
X-8840289Y12528211D01*
X-8709186Y12440610D01*
X-8709173Y12440603D01*
X-8563502Y12380265D01*
X-8563497Y12380263D01*
X-8408847Y12349501D01*
X-8408844Y12349500D01*
X-8408842Y12349500D01*
X-8251156Y12349500D01*
X-8251155Y12349501D01*
X-8096503Y12380263D01*
X-7950821Y12440606D01*
X-7819711Y12528211D01*
X-7708211Y12639711D01*
X-7620606Y12770821D01*
X-7560263Y12916503D01*
X-7529500Y13071158D01*
X-7529500Y13228842D01*
X-7529500Y13228845D01*
X-7529501Y13228847D01*
X-7560262Y13383490D01*
X-7560263Y13383497D01*
X-7560265Y13383502D01*
X-7620603Y13529173D01*
X-7620610Y13529186D01*
X-7708211Y13660289D01*
X-7708214Y13660293D01*
X-7819708Y13771787D01*
X-7819712Y13771790D01*
X-7950815Y13859391D01*
X-7950828Y13859398D01*
X-8096499Y13919736D01*
X-8096511Y13919739D01*
X-8251155Y13950500D01*
X-8251158Y13950500D01*
X-8408842Y13950500D01*
X-8408845Y13950500D01*
X-8563490Y13919739D01*
X-8563502Y13919736D01*
X-8709173Y13859398D01*
X-8709186Y13859391D01*
X-8840289Y13771790D01*
X-8840293Y13771787D01*
X-8951787Y13660293D01*
X-8951790Y13660289D01*
X-9039391Y13529186D01*
X-9039398Y13529173D01*
X-9099736Y13383502D01*
X-9099739Y13383490D01*
X-9130500Y13228847D01*
X-27299500Y13228847D01*
X-27299500Y15166447D01*
X7784700Y15166447D01*
X7784700Y15008754D01*
X7815461Y14854111D01*
X7815464Y14854099D01*
X7875802Y14708428D01*
X7875809Y14708415D01*
X7963410Y14577312D01*
X7963413Y14577308D01*
X8074907Y14465814D01*
X8074911Y14465811D01*
X8206014Y14378210D01*
X8206027Y14378203D01*
X8351698Y14317865D01*
X8351703Y14317863D01*
X8506353Y14287101D01*
X8506356Y14287100D01*
X8506358Y14287100D01*
X8664044Y14287100D01*
X8664045Y14287101D01*
X8818697Y14317863D01*
X8964379Y14378206D01*
X9095489Y14465811D01*
X9206989Y14577311D01*
X9294594Y14708421D01*
X9354937Y14854103D01*
X9385700Y15008758D01*
X9385700Y15078847D01*
X14499500Y15078847D01*
X14499500Y14921154D01*
X14530261Y14766511D01*
X14530264Y14766499D01*
X14590602Y14620828D01*
X14590609Y14620815D01*
X14678210Y14489712D01*
X14678213Y14489708D01*
X14789707Y14378214D01*
X14789711Y14378211D01*
X14920814Y14290610D01*
X14920827Y14290603D01*
X15066498Y14230265D01*
X15066503Y14230263D01*
X15221153Y14199501D01*
X15221156Y14199500D01*
X15221158Y14199500D01*
X15378844Y14199500D01*
X15378845Y14199501D01*
X15533497Y14230263D01*
X15679179Y14290606D01*
X15810289Y14378211D01*
X15921789Y14489711D01*
X16009394Y14620821D01*
X16069737Y14766503D01*
X16089113Y14863915D01*
X16100638Y14921850D01*
X16133023Y14983761D01*
X16134519Y14985285D01*
X16635845Y15486611D01*
X18999500Y15486611D01*
X18999500Y15313390D01*
X19022773Y15166445D01*
X19026598Y15142299D01*
X19080127Y14977555D01*
X19158768Y14823212D01*
X19260586Y14683072D01*
X19383072Y14560586D01*
X19523212Y14458768D01*
X19677555Y14380127D01*
X19842299Y14326598D01*
X20013389Y14299500D01*
X20013390Y14299500D01*
X20186610Y14299500D01*
X20186611Y14299500D01*
X20357701Y14326598D01*
X20522445Y14380127D01*
X20676788Y14458768D01*
X20816928Y14560586D01*
X20939414Y14683072D01*
X21041232Y14823212D01*
X21119873Y14977555D01*
X21173402Y15142299D01*
X21200500Y15313389D01*
X21200500Y15486611D01*
X21173402Y15657701D01*
X21119873Y15822445D01*
X21041232Y15976788D01*
X20939414Y16116928D01*
X20816928Y16239414D01*
X20676788Y16341232D01*
X20522445Y16419873D01*
X20357701Y16473402D01*
X20357699Y16473403D01*
X20357698Y16473403D01*
X20226271Y16494219D01*
X20186611Y16500500D01*
X20013389Y16500500D01*
X19973728Y16494219D01*
X19842302Y16473403D01*
X19677552Y16419872D01*
X19523211Y16341232D01*
X19443256Y16283141D01*
X19383072Y16239414D01*
X19383070Y16239412D01*
X19383069Y16239412D01*
X19260588Y16116931D01*
X19260588Y16116930D01*
X19260586Y16116928D01*
X19219653Y16060589D01*
X19158768Y15976789D01*
X19080128Y15822448D01*
X19026597Y15657698D01*
X18999500Y15486611D01*
X16635845Y15486611D01*
X18135844Y16986611D01*
X24299500Y16986611D01*
X24299500Y16813389D01*
X24326598Y16642299D01*
X24380127Y16477555D01*
X24458768Y16323212D01*
X24560586Y16183072D01*
X24683072Y16060586D01*
X24823212Y15958768D01*
X24977555Y15880127D01*
X25142299Y15826598D01*
X25313389Y15799500D01*
X25313390Y15799500D01*
X25486610Y15799500D01*
X25486611Y15799500D01*
X25657701Y15826598D01*
X25822445Y15880127D01*
X25976788Y15958768D01*
X26116928Y16060586D01*
X26239414Y16183072D01*
X26341232Y16323212D01*
X26419873Y16477555D01*
X26473402Y16642299D01*
X26500500Y16813389D01*
X26500500Y16986611D01*
X26473402Y17157701D01*
X26419873Y17322445D01*
X26341232Y17476788D01*
X26239414Y17616928D01*
X26116928Y17739414D01*
X25976788Y17841232D01*
X25822445Y17919873D01*
X25657701Y17973402D01*
X25657699Y17973403D01*
X25657698Y17973403D01*
X25526271Y17994219D01*
X25486611Y18000500D01*
X25313389Y18000500D01*
X25273728Y17994219D01*
X25142302Y17973403D01*
X24977552Y17919872D01*
X24823211Y17841232D01*
X24743256Y17783141D01*
X24683072Y17739414D01*
X24683070Y17739412D01*
X24683069Y17739412D01*
X24560588Y17616931D01*
X24560588Y17616930D01*
X24560586Y17616928D01*
X24540949Y17589900D01*
X24458768Y17476789D01*
X24380128Y17322448D01*
X24326597Y17157698D01*
X24306414Y17030265D01*
X24299500Y16986611D01*
X18135844Y16986611D01*
X18204973Y17055740D01*
X18266294Y17089223D01*
X18335986Y17084239D01*
X18340104Y17082618D01*
X18466498Y17030265D01*
X18466503Y17030263D01*
X18621153Y16999501D01*
X18621156Y16999500D01*
X18621158Y16999500D01*
X18778844Y16999500D01*
X18778845Y16999501D01*
X18933497Y17030263D01*
X19079179Y17090606D01*
X19079185Y17090610D01*
X19085135Y17094585D01*
X19179589Y17157698D01*
X19210289Y17178211D01*
X19321789Y17289711D01*
X19409394Y17420821D01*
X19469737Y17566503D01*
X19500500Y17721158D01*
X19500500Y17878842D01*
X19500500Y17878845D01*
X19500499Y17878847D01*
X19469737Y18033497D01*
X19413728Y18168716D01*
X19409397Y18179173D01*
X19409390Y18179186D01*
X19321789Y18310289D01*
X19321786Y18310293D01*
X19210292Y18421787D01*
X19210288Y18421790D01*
X19079185Y18509391D01*
X19079172Y18509398D01*
X18933501Y18569736D01*
X18933489Y18569739D01*
X18778845Y18600500D01*
X18778842Y18600500D01*
X18621158Y18600500D01*
X18621155Y18600500D01*
X18466510Y18569739D01*
X18466498Y18569736D01*
X18320827Y18509398D01*
X18320814Y18509391D01*
X18189127Y18421399D01*
X18122450Y18400521D01*
X18120236Y18400501D01*
X18020943Y18400501D01*
X17913587Y18371735D01*
X17868210Y18359576D01*
X17868209Y18359575D01*
X17818096Y18330641D01*
X17818095Y18330640D01*
X17782853Y18310293D01*
X17731285Y18280521D01*
X17731282Y18280519D01*
X15285339Y15834575D01*
X15224016Y15801090D01*
X15221850Y15800639D01*
X15066508Y15769739D01*
X15066498Y15769736D01*
X14920827Y15709398D01*
X14920814Y15709391D01*
X14789711Y15621790D01*
X14789707Y15621787D01*
X14678213Y15510293D01*
X14678210Y15510289D01*
X14590609Y15379186D01*
X14590602Y15379173D01*
X14530264Y15233502D01*
X14530261Y15233490D01*
X14499500Y15078847D01*
X9385700Y15078847D01*
X9385700Y15166442D01*
X9385700Y15166445D01*
X9385699Y15166447D01*
X9354938Y15321090D01*
X9354937Y15321097D01*
X9305991Y15439263D01*
X9298523Y15508730D01*
X9317449Y15555601D01*
X9345394Y15597421D01*
X9405737Y15743103D01*
X9436500Y15897758D01*
X9436500Y16055442D01*
X9436500Y16055445D01*
X9436499Y16055447D01*
X9435476Y16060589D01*
X9405737Y16210097D01*
X9405735Y16210102D01*
X9376277Y16281221D01*
X9368808Y16350690D01*
X9387735Y16397562D01*
X9396194Y16410221D01*
X9456537Y16555903D01*
X9487300Y16710558D01*
X9487300Y16868242D01*
X9487300Y16868245D01*
X9487299Y16868247D01*
X9456537Y17022897D01*
X9429064Y17089223D01*
X9396197Y17168573D01*
X9396190Y17168586D01*
X9308589Y17299689D01*
X9308586Y17299693D01*
X9197092Y17411187D01*
X9197088Y17411190D01*
X9065985Y17498791D01*
X9065972Y17498798D01*
X8920301Y17559136D01*
X8920289Y17559139D01*
X8765645Y17589900D01*
X8765642Y17589900D01*
X8607958Y17589900D01*
X8607955Y17589900D01*
X8453310Y17559139D01*
X8453298Y17559136D01*
X8307627Y17498798D01*
X8307614Y17498791D01*
X8176511Y17411190D01*
X8176507Y17411187D01*
X8065013Y17299693D01*
X8065010Y17299689D01*
X7977409Y17168586D01*
X7977402Y17168573D01*
X7917064Y17022902D01*
X7917061Y17022890D01*
X7886300Y16868247D01*
X7886300Y16710554D01*
X7917060Y16555912D01*
X7917061Y16555911D01*
X7917063Y16555903D01*
X7946523Y16484779D01*
X7953991Y16415311D01*
X7935067Y16368444D01*
X7926611Y16355788D01*
X7926602Y16355772D01*
X7866264Y16210102D01*
X7866261Y16210090D01*
X7835500Y16055447D01*
X7835500Y15897754D01*
X7866261Y15743111D01*
X7866264Y15743099D01*
X7915206Y15624941D01*
X7922675Y15555471D01*
X7903749Y15508601D01*
X7875810Y15466786D01*
X7875802Y15466772D01*
X7815464Y15321102D01*
X7815461Y15321090D01*
X7784700Y15166447D01*
X-27299500Y15166447D01*
X-27299500Y22497294D01*
X-27299382Y22502703D01*
X-27294183Y22621787D01*
X-27291563Y22681791D01*
X-26200500Y22681791D01*
X-26200500Y22318210D01*
X-26164863Y21956370D01*
X-26093936Y21599788D01*
X-26093933Y21599777D01*
X-25988386Y21251835D01*
X-25849246Y20915922D01*
X-25849244Y20915917D01*
X-25677860Y20595280D01*
X-25677849Y20595262D01*
X-25475860Y20292965D01*
X-25475850Y20292951D01*
X-25245193Y20011894D01*
X-24988107Y19754808D01*
X-24988102Y19754804D01*
X-24988101Y19754803D01*
X-24707044Y19524146D01*
X-24404732Y19322147D01*
X-24404723Y19322142D01*
X-24404721Y19322141D01*
X-24084084Y19150757D01*
X-24084082Y19150757D01*
X-24084076Y19150753D01*
X-23748164Y19011614D01*
X-23400233Y18906070D01*
X-23400227Y18906069D01*
X-23400224Y18906068D01*
X-23400213Y18906065D01*
X-23043631Y18835138D01*
X-22681794Y18799500D01*
X-22681791Y18799500D01*
X-22318209Y18799500D01*
X-22318206Y18799500D01*
X-21956369Y18835138D01*
X-21886955Y18848946D01*
X-21599788Y18906065D01*
X-21599777Y18906068D01*
X-21599777Y18906069D01*
X-21599767Y18906070D01*
X-21251836Y19011614D01*
X-20915924Y19150753D01*
X-20595268Y19322147D01*
X-20292956Y19524146D01*
X-20011899Y19754803D01*
X-19754803Y20011899D01*
X-19524146Y20292956D01*
X-19322147Y20595268D01*
X-19151455Y20914611D01*
X9567500Y20914611D01*
X9567500Y20741389D01*
X9594598Y20570299D01*
X9648127Y20405555D01*
X9726768Y20251212D01*
X9828586Y20111072D01*
X9951072Y19988586D01*
X10091212Y19886768D01*
X10245555Y19808127D01*
X10410299Y19754598D01*
X10581389Y19727500D01*
X10581390Y19727500D01*
X10754610Y19727500D01*
X10754611Y19727500D01*
X10925701Y19754598D01*
X11090445Y19808127D01*
X11244788Y19886768D01*
X11384928Y19988586D01*
X11507414Y20111072D01*
X11609232Y20251212D01*
X11687873Y20405555D01*
X11741402Y20570299D01*
X11768500Y20741389D01*
X11768500Y20914611D01*
X11741402Y21085701D01*
X11687873Y21250445D01*
X11609232Y21404788D01*
X11507414Y21544928D01*
X11384928Y21667414D01*
X11244788Y21769232D01*
X11090445Y21847873D01*
X10925701Y21901402D01*
X10925699Y21901403D01*
X10925698Y21901403D01*
X10794271Y21922219D01*
X10754611Y21928500D01*
X10581389Y21928500D01*
X10541728Y21922219D01*
X10410302Y21901403D01*
X10245552Y21847872D01*
X10091211Y21769232D01*
X10011256Y21711141D01*
X9951072Y21667414D01*
X9951070Y21667412D01*
X9951069Y21667412D01*
X9828588Y21544931D01*
X9828588Y21544930D01*
X9828586Y21544928D01*
X9788469Y21489712D01*
X9726768Y21404789D01*
X9648128Y21250448D01*
X9594597Y21085698D01*
X9575787Y20966936D01*
X9567500Y20914611D01*
X-19151455Y20914611D01*
X-19150753Y20915924D01*
X-19011614Y21251836D01*
X-18906070Y21599767D01*
X-18906068Y21599777D01*
X-18906065Y21599788D01*
X-18842142Y21921158D01*
X-18835138Y21956369D01*
X-18799500Y22318206D01*
X-18799500Y22681794D01*
X-18835138Y23043631D01*
X-18853632Y23136611D01*
X-12900500Y23136611D01*
X-12900500Y22963389D01*
X-12873402Y22792299D01*
X-12819873Y22627555D01*
X-12741232Y22473212D01*
X-12639414Y22333072D01*
X-12516928Y22210586D01*
X-12376788Y22108768D01*
X-12222445Y22030127D01*
X-12057701Y21976598D01*
X-11886611Y21949500D01*
X-11886610Y21949500D01*
X-11713390Y21949500D01*
X-11713389Y21949500D01*
X-11542299Y21976598D01*
X-11377555Y22030127D01*
X-11281936Y22078847D01*
X-9050500Y22078847D01*
X-9050500Y21921154D01*
X-9019739Y21766511D01*
X-9019736Y21766499D01*
X-8959398Y21620828D01*
X-8959391Y21620815D01*
X-8871790Y21489712D01*
X-8871787Y21489708D01*
X-8760293Y21378214D01*
X-8760289Y21378211D01*
X-8629186Y21290610D01*
X-8629173Y21290603D01*
X-8483502Y21230265D01*
X-8483497Y21230263D01*
X-8328847Y21199501D01*
X-8328844Y21199500D01*
X-8328842Y21199500D01*
X-8171156Y21199500D01*
X-8171155Y21199501D01*
X-8016503Y21230263D01*
X-7870821Y21290606D01*
X-7739711Y21378211D01*
X-7628211Y21489711D01*
X-7540606Y21620821D01*
X-7480263Y21766503D01*
X-7449500Y21921158D01*
X-7449500Y22078842D01*
X-7449500Y22078845D01*
X-7449501Y22078847D01*
X-7455453Y22108769D01*
X-7480263Y22233497D01*
X-7521507Y22333070D01*
X-7540603Y22379173D01*
X-7540610Y22379186D01*
X-7628211Y22510289D01*
X-7628214Y22510293D01*
X-7739708Y22621787D01*
X-7739712Y22621790D01*
X-7829509Y22681791D01*
X18799500Y22681791D01*
X18799500Y22318210D01*
X18835137Y21956370D01*
X18906064Y21599788D01*
X18906067Y21599777D01*
X19011614Y21251835D01*
X19150754Y20915922D01*
X19150756Y20915917D01*
X19322140Y20595280D01*
X19322151Y20595262D01*
X19524140Y20292965D01*
X19524150Y20292951D01*
X19754807Y20011894D01*
X20011893Y19754808D01*
X20011898Y19754804D01*
X20011899Y19754803D01*
X20292956Y19524146D01*
X20595268Y19322147D01*
X20595277Y19322142D01*
X20595279Y19322141D01*
X20915916Y19150757D01*
X20915918Y19150757D01*
X20915924Y19150753D01*
X21251836Y19011614D01*
X21599767Y18906070D01*
X21599773Y18906069D01*
X21599776Y18906068D01*
X21599787Y18906065D01*
X21956369Y18835138D01*
X22318206Y18799500D01*
X22318209Y18799500D01*
X22681791Y18799500D01*
X22681794Y18799500D01*
X23043631Y18835138D01*
X23113045Y18848946D01*
X23400212Y18906065D01*
X23400223Y18906068D01*
X23400223Y18906069D01*
X23400233Y18906070D01*
X23748164Y19011614D01*
X24084076Y19150753D01*
X24404732Y19322147D01*
X24707044Y19524146D01*
X24988101Y19754803D01*
X25245197Y20011899D01*
X25475854Y20292956D01*
X25677853Y20595268D01*
X25849247Y20915924D01*
X25988386Y21251836D01*
X26093930Y21599767D01*
X26093932Y21599777D01*
X26093935Y21599788D01*
X26157858Y21921158D01*
X26164862Y21956369D01*
X26200500Y22318206D01*
X26200500Y22681794D01*
X26164862Y23043631D01*
X26150210Y23117292D01*
X26093935Y23400213D01*
X26093932Y23400224D01*
X26093931Y23400227D01*
X26093930Y23400233D01*
X25988386Y23748164D01*
X25849247Y24084076D01*
X25828226Y24123403D01*
X25677859Y24404721D01*
X25677858Y24404723D01*
X25677853Y24404732D01*
X25475854Y24707044D01*
X25245197Y24988101D01*
X25245196Y24988102D01*
X25245192Y24988107D01*
X24988106Y25245193D01*
X24707049Y25475850D01*
X24707048Y25475851D01*
X24707044Y25475854D01*
X24404732Y25677853D01*
X24404727Y25677856D01*
X24404720Y25677860D01*
X24084083Y25849244D01*
X24084078Y25849246D01*
X23748165Y25988386D01*
X23400223Y26093933D01*
X23400212Y26093936D01*
X23043630Y26164863D01*
X22771111Y26191704D01*
X22681794Y26200500D01*
X22318206Y26200500D01*
X22235679Y26192372D01*
X21956369Y26164863D01*
X21599787Y26093936D01*
X21599776Y26093933D01*
X21251834Y25988386D01*
X20915921Y25849246D01*
X20915916Y25849244D01*
X20595279Y25677860D01*
X20595261Y25677849D01*
X20292964Y25475860D01*
X20292950Y25475850D01*
X20011893Y25245193D01*
X19754807Y24988107D01*
X19524150Y24707050D01*
X19524140Y24707036D01*
X19322151Y24404739D01*
X19322140Y24404721D01*
X19150756Y24084084D01*
X19150754Y24084079D01*
X19011614Y23748166D01*
X18906067Y23400224D01*
X18906064Y23400213D01*
X18835137Y23043631D01*
X18810384Y22792303D01*
X18802219Y22709394D01*
X18799500Y22681791D01*
X-7829509Y22681791D01*
X-7870815Y22709391D01*
X-7870828Y22709398D01*
X-8016499Y22769736D01*
X-8016511Y22769739D01*
X-8171155Y22800500D01*
X-8171158Y22800500D01*
X-8328842Y22800500D01*
X-8328845Y22800500D01*
X-8483490Y22769739D01*
X-8483502Y22769736D01*
X-8629173Y22709398D01*
X-8629186Y22709391D01*
X-8760289Y22621790D01*
X-8760293Y22621787D01*
X-8871787Y22510293D01*
X-8871790Y22510289D01*
X-8959391Y22379186D01*
X-8959398Y22379173D01*
X-9019736Y22233502D01*
X-9019739Y22233490D01*
X-9050500Y22078847D01*
X-11281936Y22078847D01*
X-11223212Y22108768D01*
X-11083072Y22210586D01*
X-10960586Y22333072D01*
X-10858768Y22473212D01*
X-10780127Y22627555D01*
X-10726598Y22792299D01*
X-10699500Y22963389D01*
X-10699500Y23136611D01*
X-10726598Y23307701D01*
X-10780127Y23472445D01*
X-10858768Y23626788D01*
X-10960586Y23766928D01*
X-11083072Y23889414D01*
X-11223212Y23991232D01*
X-11377555Y24069873D01*
X-11542299Y24123402D01*
X-11542301Y24123403D01*
X-11542302Y24123403D01*
X-11673729Y24144219D01*
X-11713389Y24150500D01*
X-11886611Y24150500D01*
X-11926272Y24144219D01*
X-12057698Y24123403D01*
X-12222448Y24069872D01*
X-12376789Y23991232D01*
X-12456744Y23933141D01*
X-12516928Y23889414D01*
X-12516930Y23889412D01*
X-12516931Y23889412D01*
X-12639412Y23766931D01*
X-12639412Y23766930D01*
X-12639414Y23766928D01*
X-12683141Y23706744D01*
X-12741232Y23626789D01*
X-12819872Y23472448D01*
X-12873403Y23307698D01*
X-12899359Y23143813D01*
X-12900500Y23136611D01*
X-18853632Y23136611D01*
X-18855065Y23143813D01*
X-18906065Y23400213D01*
X-18906068Y23400224D01*
X-18906069Y23400227D01*
X-18906070Y23400233D01*
X-19011614Y23748164D01*
X-19150753Y24084076D01*
X-19171774Y24123403D01*
X-19322141Y24404721D01*
X-19322142Y24404723D01*
X-19322147Y24404732D01*
X-19524146Y24707044D01*
X-19754803Y24988101D01*
X-19754804Y24988102D01*
X-19754808Y24988107D01*
X-20011894Y25245193D01*
X-20292951Y25475850D01*
X-20292952Y25475851D01*
X-20292956Y25475854D01*
X-20595268Y25677853D01*
X-20595273Y25677856D01*
X-20595280Y25677860D01*
X-20915917Y25849244D01*
X-20915922Y25849246D01*
X-21251835Y25988386D01*
X-21599777Y26093933D01*
X-21599788Y26093936D01*
X-21956370Y26164863D01*
X-22228889Y26191704D01*
X-22318206Y26200500D01*
X-22681794Y26200500D01*
X-22764321Y26192372D01*
X-23043631Y26164863D01*
X-23400213Y26093936D01*
X-23400224Y26093933D01*
X-23748166Y25988386D01*
X-24084079Y25849246D01*
X-24084084Y25849244D01*
X-24404721Y25677860D01*
X-24404739Y25677849D01*
X-24707036Y25475860D01*
X-24707050Y25475850D01*
X-24988107Y25245193D01*
X-25245193Y24988107D01*
X-25475850Y24707050D01*
X-25475860Y24707036D01*
X-25677849Y24404739D01*
X-25677860Y24404721D01*
X-25849244Y24084084D01*
X-25849246Y24084079D01*
X-25988386Y23748166D01*
X-26093933Y23400224D01*
X-26093936Y23400213D01*
X-26164863Y23043631D01*
X-26189616Y22792303D01*
X-26197781Y22709394D01*
X-26200500Y22681791D01*
X-27291563Y22681791D01*
X-27281472Y22912920D01*
X-27280532Y22923653D01*
X-27227291Y23328062D01*
X-27225418Y23338692D01*
X-27137130Y23736932D01*
X-27134332Y23747370D01*
X-27011681Y24136371D01*
X-27007984Y24146527D01*
X-26901036Y24404721D01*
X-26851889Y24523373D01*
X-26847331Y24533147D01*
X-26658975Y24894976D01*
X-26653593Y24904297D01*
X-26434426Y25248320D01*
X-26428235Y25257163D01*
X-26179917Y25580776D01*
X-26172979Y25589045D01*
X-25897406Y25889780D01*
X-25889780Y25897406D01*
X-25589045Y26172979D01*
X-25580776Y26179917D01*
X-25257163Y26428235D01*
X-25248320Y26434426D01*
X-24904297Y26653593D01*
X-24894976Y26658975D01*
X-24533147Y26847331D01*
X-24523373Y26851889D01*
X-24146518Y27007988D01*
X-24136371Y27011681D01*
X-23747361Y27134335D01*
X-23736932Y27137130D01*
X-23338692Y27225418D01*
X-23328062Y27227291D01*
X-22923653Y27280532D01*
X-22912920Y27281472D01*
X-22502703Y27299383D01*
X-22497294Y27299500D01*
X-22460118Y27299500D01*
X22460118Y27299500D01*
X22497294Y27299500D01*
X22502702Y27299383D01*
G37*
%TD.AperFunction*%
%TD*%
M02*
