M48
; DRILL file {KiCad 9.0.7} date 2026-05-08T08:55:40+0200
; FORMAT={-:-/ absolute / inch / decimal}
; #@! TF.CreationDate,2026-05-08T08:55:40+02:00
; #@! TF.GenerationSoftware,Kicad,Pcbnew,9.0.7
; #@! TF.FileFunction,Plated,1,6,PTH
FMAT,2
INCH
; #@! TA.AperFunction,Plated,PTH,ViaDrill
T1C0.0118
; #@! TA.AperFunction,Plated,PTH,ComponentDrill
T2C0.0197
; #@! TA.AperFunction,Plated,PTH,ViaDrill
T3C0.0276
; #@! TA.AperFunction,Plated,PTH,ComponentDrill
T4C0.0315
; #@! TA.AperFunction,Plated,PTH,ComponentDrill
T5C0.0472
; #@! TA.AperFunction,Plated,PTH,ComponentDrill
T6C0.1260
%
G90
G05
T1
X-1.0472Y0.7126
X-1.0472Y0.3937
X-0.958Y-0.214
X-0.9469Y-0.6555
X-0.935Y0.2283
X-0.8268Y0.7126
X-0.8268Y0.3937
X-0.794Y-0.214
X-0.7852Y0.2522
X-0.7756Y-0.6516
X-0.7382Y0.9941
X-0.7382Y0.9449
X-0.735Y0.16
X-0.7165Y-0.1496
X-0.7165Y-0.5709
X-0.7126Y-0.2913
X-0.685Y-0.7224
X-0.6772Y0.4567
X-0.648Y-0.246
X-0.644Y0.584
X-0.644Y0.51
X-0.642Y0.66
X-0.64Y0.734
X-0.6378Y0.1752
X-0.626Y-0.5709
X-0.624Y-0.6909
X-0.614Y0.8
X-0.6102Y0.3583
X-0.5827Y0.4567
X-0.5689Y-0.9075
X-0.548Y-0.08
X-0.5453Y-0.4587
X-0.544Y0.346
X-0.5433Y-0.3287
X-0.5433Y-0.3937
X-0.5433Y-0.6063
X-0.54Y0.07
X-0.54Y-0.03
X-0.498Y-0.6732
X-0.48Y0.342
X-0.4764Y-0.5374
X-0.4724Y0.063
X-0.4685Y0.1004
X-0.4547Y-0.7795
X-0.4425Y-0.6433
X-0.437Y-0.0276
X-0.4193Y1.0551
X-0.416Y0.34
X-0.4055Y-0.7047
X-0.3878Y-0.4902
X-0.3823Y-0.3508
X-0.3819Y0.1105
X-0.378Y-0.8228
X-0.378Y-1.0157
X-0.3661Y-0.7283
X-0.3583Y1.0118
X-0.3583Y0.4252
X-0.3583Y0.3307
X-0.3484Y-0.4547
X-0.3386Y0.1299
X-0.328Y0.5177
X-0.3248Y0.8661
X-0.32Y1.05
X-0.3144Y0.152
X-0.3139Y0.1835
X-0.2896Y0.2513
X-0.286Y0.204
X-0.28Y0.45
X-0.2795Y0.3307
X-0.268Y0.282
X-0.2648Y0.2273
X-0.2362Y-0.7047
X-0.2343Y0.4465
X-0.234Y1.006
X-0.234Y0.97
X-0.2008Y0.4461
X-0.2Y1.008
X-0.189Y-0.6339
X-0.187Y-0.3012
X-0.1811Y-0.7087
X-0.168Y1.008
X-0.1673Y0.4465
X-0.134Y1.008
X-0.1339Y0.4461
X-0.126Y-0.2205
X-0.1063Y0.1181
X-0.1024Y-0.5551
X-0.1024Y-0.622
X-0.1024Y-0.689
X-0.1004Y0.4469
X-0.1Y1.008
X-0.075Y-0.171
X-0.066Y1.008
X-0.0551Y-0.8228
X-0.0551Y-1.0157
X-0.032Y1.008
X-0.024Y-0.172
X-0.0079Y0.1594
X0.002Y1.006
X0.0039Y-0.378
X0.0039Y-0.5551
X0.034Y1.006
X0.038Y0.171
X0.054Y-0.169
X0.068Y1.006
X0.087Y0.161
X0.102Y1.008
X0.104Y-0.165
X0.1181Y0.1102
X0.1181Y0.0787
X0.136Y1.008
X0.168Y1.008
X0.1732Y-0.2205
X0.1732Y-0.378
X0.1732Y-0.5551
X0.202Y1.008
X0.2047Y-0.0866
X0.231Y-0.344
X0.234Y1.008
X0.24Y0.936
X0.24Y0.902
X0.265Y0.0
X0.268Y-0.037
X0.27Y-0.072
X0.28Y0.45
X0.2845Y-0.1
X0.326Y1.05
X0.3281Y0.1281
X0.332Y-0.122
X0.338Y0.594
X0.34Y0.629
X0.342Y0.661
X0.352Y0.795
X0.3563Y0.142
X0.3878Y0.1421
X0.418Y-0.131
X0.4193Y0.1415
X0.4427Y0.1639
X0.4528Y0.4134
X0.476Y0.1645
X0.4882Y0.7362
X0.517Y-0.314
X0.5492Y0.2854
X0.553Y0.144
X0.5551Y0.811
X0.56Y0.908
X0.587Y0.138
X0.6024Y0.5906
X0.613Y-0.107
X0.616Y0.121
X0.6417Y0.752
X0.666Y-0.041
X0.668Y0.042
X0.6732Y-0.626
X0.694Y0.205
X0.7126Y0.9094
X0.726Y0.999
X0.732Y0.262
X0.7323Y-0.6614
X0.7362Y0.7008
X0.744Y-0.255
X0.7677Y-0.185
X0.7677Y-0.3346
X0.7796Y0.496
X0.8067Y0.0504
X0.8079Y-0.0504
X0.815Y0.311
X0.8917Y-0.0492
X0.8957Y0.0512
X0.9449Y0.3228
X1.0236Y0.3189
X1.0472Y-0.185
X1.0472Y-0.3346
T2
X-0.9803Y0.8858
X-0.9803Y-0.8858
X-0.9526Y0.9526
X-0.9526Y0.819
X-0.9526Y-0.819
X-0.9526Y-0.9526
X-0.8858Y0.9803
X-0.8858Y0.7913
X-0.8858Y-0.7913
X-0.8858Y-0.9803
X-0.819Y0.9526
X-0.819Y0.819
X-0.819Y-0.819
X-0.819Y-0.9526
X-0.7913Y0.8858
X-0.7913Y-0.8858
X0.7913Y0.8858
X0.7913Y-0.8858
X0.819Y0.9526
X0.819Y0.819
X0.819Y-0.819
X0.819Y-0.9526
X0.8858Y0.9803
X0.8858Y0.7913
X0.8858Y-0.7913
X0.8858Y-0.9803
X0.9526Y0.9526
X0.9526Y0.819
X0.9526Y-0.819
X0.9526Y-0.9526
X0.9803Y0.8858
X0.9803Y-0.8858
T3
X-1.025Y0.316
X-0.695Y0.105
X-0.6772Y-0.3366
X-0.675Y-0.08
X-0.6693Y-0.5348
X-0.4646Y0.9075
X-0.124Y0.832
X-0.124Y0.768
X-0.124Y0.702
X-0.064Y0.886
X-0.064Y0.644
X-0.002Y0.886
X0.0Y0.644
X0.064Y0.884
X0.066Y0.642
X0.122Y0.7
X0.124Y0.834
X0.124Y0.77
X0.1575Y-0.2906
X0.42Y0.82
X0.5Y-0.4469
X0.535Y-0.174
X0.589Y-0.175
X0.7913Y0.6063
X0.9764Y-0.6142
X1.0Y0.6654
T5
X0.9528Y0.1
X0.9528Y0.0
X0.9528Y-0.1
X0.9547Y-0.4185
X0.9547Y-0.5185
T6
X-0.8858Y0.8858
X-0.8858Y-0.8858
X0.8858Y0.8858
X0.8858Y-0.8858
T4
G00X-0.9482Y-0.26
M15
G01X-0.9718Y-0.26
M16
G05
G00X-0.9482Y-0.6009
M15
G01X-0.9718Y-0.6009
M16
G05
G00X-0.9464Y0.1731
M15
G01X-0.97Y0.1731
M16
G05
G00X-0.9464Y-0.1679
M15
G01X-0.97Y-0.1679
M16
G05
G00X-0.7797Y-0.26
M15
G01X-0.8112Y-0.26
M16
G05
G00X-0.7797Y-0.6009
M15
G01X-0.8112Y-0.6009
M16
G05
G00X-0.7779Y0.1731
M15
G01X-0.8094Y0.1731
M16
G05
G00X-0.7779Y-0.1679
M15
G01X-0.8093Y-0.1679
M16
G05
M30
