%TF.GenerationSoftware,KiCad,Pcbnew,9.0.7*%
%TF.CreationDate,2026-05-08T08:55:40+02:00*%
%TF.ProjectId,MiniMotorkontrollerV1,4d696e69-4d6f-4746-9f72-6b6f6e74726f,rev?*%
%TF.SameCoordinates,Original*%
%TF.FileFunction,Soldermask,Top*%
%TF.FilePolarity,Negative*%
%FSLAX46Y46*%
G04 Gerber Fmt 4.6, Leading zero omitted, Abs format (unit mm)*
G04 Created by KiCad (PCBNEW 9.0.7) date 2026-05-08 08:55:40*
%MOMM*%
%LPD*%
G01*
G04 APERTURE LIST*
G04 APERTURE END LIST*
G36*
X-21963980Y-19345213D02*
G01*
X-21614126Y-19425065D01*
X-21275413Y-19543585D01*
X-20952100Y-19699285D01*
X-20648252Y-19890205D01*
X-20367691Y-20113945D01*
X-20113945Y-20367691D01*
X-19890205Y-20648252D01*
X-19699285Y-20952100D01*
X-19543585Y-21275413D01*
X-19425065Y-21614126D01*
X-19345213Y-21963980D01*
X-19305034Y-22320575D01*
X-19305034Y-22679425D01*
X-19345213Y-23036020D01*
X-19425065Y-23385874D01*
X-19543585Y-23724587D01*
X-19699285Y-24047900D01*
X-19890205Y-24351748D01*
X-20113945Y-24632309D01*
X-20367691Y-24886055D01*
X-20648252Y-25109795D01*
X-20952100Y-25300715D01*
X-21275413Y-25456415D01*
X-21614126Y-25574935D01*
X-21963980Y-25654787D01*
X-22320575Y-25694966D01*
X-22679425Y-25694966D01*
X-23036020Y-25654787D01*
X-23385874Y-25574935D01*
X-23724587Y-25456415D01*
X-24047900Y-25300715D01*
X-24351748Y-25109795D01*
X-24632309Y-24886055D01*
X-24886055Y-24632309D01*
X-25109795Y-24351748D01*
X-25300715Y-24047900D01*
X-25456415Y-23724587D01*
X-25574935Y-23385874D01*
X-25654787Y-23036020D01*
X-25694966Y-22679425D01*
X-25694966Y-22320575D01*
X-25654787Y-21963980D01*
X-25574935Y-21614126D01*
X-25456415Y-21275413D01*
X-25300715Y-20952100D01*
X-25109795Y-20648252D01*
X-24886055Y-20367691D01*
X-24632309Y-20113945D01*
X-24351748Y-19890205D01*
X-24047900Y-19699285D01*
X-23724587Y-19543585D01*
X-23385874Y-19425065D01*
X-23036020Y-19345213D01*
X-22679425Y-19305034D01*
X-22320575Y-19305034D01*
X-21963980Y-19345213D01*
G37*
G36*
X23036020Y-19345213D02*
G01*
X23385874Y-19425065D01*
X23724587Y-19543585D01*
X24047900Y-19699285D01*
X24351748Y-19890205D01*
X24632309Y-20113945D01*
X24886055Y-20367691D01*
X25109795Y-20648252D01*
X25300715Y-20952100D01*
X25456415Y-21275413D01*
X25574935Y-21614126D01*
X25654787Y-21963980D01*
X25694966Y-22320575D01*
X25694966Y-22679425D01*
X25654787Y-23036020D01*
X25574935Y-23385874D01*
X25456415Y-23724587D01*
X25300715Y-24047900D01*
X25109795Y-24351748D01*
X24886055Y-24632309D01*
X24632309Y-24886055D01*
X24351748Y-25109795D01*
X24047900Y-25300715D01*
X23724587Y-25456415D01*
X23385874Y-25574935D01*
X23036020Y-25654787D01*
X22679425Y-25694966D01*
X22320575Y-25694966D01*
X21963980Y-25654787D01*
X21614126Y-25574935D01*
X21275413Y-25456415D01*
X20952100Y-25300715D01*
X20648252Y-25109795D01*
X20367691Y-24886055D01*
X20113945Y-24632309D01*
X19890205Y-24351748D01*
X19699285Y-24047900D01*
X19543585Y-23724587D01*
X19425065Y-23385874D01*
X19345213Y-23036020D01*
X19305034Y-22679425D01*
X19305034Y-22320575D01*
X19345213Y-21963980D01*
X19425065Y-21614126D01*
X19543585Y-21275413D01*
X19699285Y-20952100D01*
X19890205Y-20648252D01*
X20113945Y-20367691D01*
X20367691Y-20113945D01*
X20648252Y-19890205D01*
X20952100Y-19699285D01*
X21275413Y-19543585D01*
X21614126Y-19425065D01*
X21963980Y-19345213D01*
X22320575Y-19305034D01*
X22679425Y-19305034D01*
X23036020Y-19345213D01*
G37*
G36*
X-14100000Y-22348000D02*
G01*
X-14800000Y-22348000D01*
X-14800000Y-21098000D01*
X-14100000Y-21098000D01*
X-14100000Y-22348000D01*
G37*
G36*
X-15050000Y-20348000D02*
G01*
X-15750000Y-20348000D01*
X-15750000Y-19098000D01*
X-15050000Y-19098000D01*
X-15050000Y-20348000D01*
G37*
G36*
X-13150000Y-20348000D02*
G01*
X-13850000Y-20348000D01*
X-13850000Y-19098000D01*
X-13150000Y-19098000D01*
X-13150000Y-20348000D01*
G37*
G36*
X-11280000Y-18815000D02*
G01*
X-11820000Y-18815000D01*
X-11820000Y-18245000D01*
X-11280000Y-18245000D01*
X-11280000Y-18815000D01*
G37*
G36*
X-11280000Y-17955000D02*
G01*
X-11820000Y-17955000D01*
X-11820000Y-17385000D01*
X-11280000Y-17385000D01*
X-11280000Y-17955000D01*
G37*
G36*
X-16900000Y-17550000D02*
G01*
X-17900000Y-17550000D01*
X-17900000Y-16850000D01*
X-16900000Y-16850000D01*
X-16900000Y-17550000D01*
G37*
G36*
X-9472220Y-16763594D02*
G01*
X-9433594Y-16802220D01*
X-9412690Y-16852687D01*
X-9410000Y-16880000D01*
X-9410000Y-17300000D01*
X-9412690Y-17327313D01*
X-9433594Y-17377780D01*
X-9472220Y-17416406D01*
X-9522687Y-17437310D01*
X-9577313Y-17437310D01*
X-9627780Y-17416406D01*
X-9666406Y-17377780D01*
X-9687310Y-17327313D01*
X-9690000Y-17300000D01*
X-9690000Y-16880000D01*
X-9687310Y-16852687D01*
X-9666406Y-16802220D01*
X-9627780Y-16763594D01*
X-9577313Y-16742690D01*
X-9522687Y-16742690D01*
X-9472220Y-16763594D01*
G37*
G36*
X-8972220Y-16763594D02*
G01*
X-8933594Y-16802220D01*
X-8912690Y-16852687D01*
X-8910000Y-16880000D01*
X-8910000Y-17300000D01*
X-8912690Y-17327313D01*
X-8933594Y-17377780D01*
X-8972220Y-17416406D01*
X-9022687Y-17437310D01*
X-9077313Y-17437310D01*
X-9127780Y-17416406D01*
X-9166406Y-17377780D01*
X-9187310Y-17327313D01*
X-9190000Y-17300000D01*
X-9190000Y-16880000D01*
X-9187310Y-16852687D01*
X-9166406Y-16802220D01*
X-9127780Y-16763594D01*
X-9077313Y-16742690D01*
X-9022687Y-16742690D01*
X-8972220Y-16763594D01*
G37*
G36*
X-8472220Y-16763594D02*
G01*
X-8433594Y-16802220D01*
X-8412690Y-16852687D01*
X-8410000Y-16880000D01*
X-8410000Y-17300000D01*
X-8412690Y-17327313D01*
X-8433594Y-17377780D01*
X-8472220Y-17416406D01*
X-8522687Y-17437310D01*
X-8577313Y-17437310D01*
X-8627780Y-17416406D01*
X-8666406Y-17377780D01*
X-8687310Y-17327313D01*
X-8690000Y-17300000D01*
X-8690000Y-16880000D01*
X-8687310Y-16852687D01*
X-8666406Y-16802220D01*
X-8627780Y-16763594D01*
X-8577313Y-16742690D01*
X-8522687Y-16742690D01*
X-8472220Y-16763594D01*
G37*
G36*
X-7972220Y-16763594D02*
G01*
X-7933594Y-16802220D01*
X-7912690Y-16852687D01*
X-7910000Y-16880000D01*
X-7910000Y-17300000D01*
X-7912690Y-17327313D01*
X-7933594Y-17377780D01*
X-7972220Y-17416406D01*
X-8022687Y-17437310D01*
X-8077313Y-17437310D01*
X-8127780Y-17416406D01*
X-8166406Y-17377780D01*
X-8187310Y-17327313D01*
X-8190000Y-17300000D01*
X-8190000Y-16880000D01*
X-8187310Y-16852687D01*
X-8166406Y-16802220D01*
X-8127780Y-16763594D01*
X-8077313Y-16742690D01*
X-8022687Y-16742690D01*
X-7972220Y-16763594D01*
G37*
G36*
X-7472220Y-16763594D02*
G01*
X-7433594Y-16802220D01*
X-7412690Y-16852687D01*
X-7410000Y-16880000D01*
X-7410000Y-17300000D01*
X-7412690Y-17327313D01*
X-7433594Y-17377780D01*
X-7472220Y-17416406D01*
X-7522687Y-17437310D01*
X-7577313Y-17437310D01*
X-7627780Y-17416406D01*
X-7666406Y-17377780D01*
X-7687310Y-17327313D01*
X-7690000Y-17300000D01*
X-7690000Y-16880000D01*
X-7687310Y-16852687D01*
X-7666406Y-16802220D01*
X-7627780Y-16763594D01*
X-7577313Y-16742690D01*
X-7522687Y-16742690D01*
X-7472220Y-16763594D01*
G37*
G36*
X-6972220Y-16763594D02*
G01*
X-6933594Y-16802220D01*
X-6912690Y-16852687D01*
X-6910000Y-16880000D01*
X-6910000Y-17300000D01*
X-6912690Y-17327313D01*
X-6933594Y-17377780D01*
X-6972220Y-17416406D01*
X-7022687Y-17437310D01*
X-7077313Y-17437310D01*
X-7127780Y-17416406D01*
X-7166406Y-17377780D01*
X-7187310Y-17327313D01*
X-7190000Y-17300000D01*
X-7190000Y-16880000D01*
X-7187310Y-16852687D01*
X-7166406Y-16802220D01*
X-7127780Y-16763594D01*
X-7077313Y-16742690D01*
X-7022687Y-16742690D01*
X-6972220Y-16763594D01*
G37*
G36*
X-15580000Y-16670000D02*
G01*
X-16120000Y-16670000D01*
X-16120000Y-16170000D01*
X-15580000Y-16170000D01*
X-15580000Y-16670000D01*
G37*
G36*
X-6900000Y-16500000D02*
G01*
X-9700000Y-16500000D01*
X-9700000Y-13700000D01*
X-6900000Y-13700000D01*
X-6900000Y-16500000D01*
G37*
G36*
X-10062687Y-16202690D02*
G01*
X-10012220Y-16223594D01*
X-9973594Y-16262220D01*
X-9952690Y-16312687D01*
X-9952690Y-16367313D01*
X-9973594Y-16417780D01*
X-10012220Y-16456406D01*
X-10062687Y-16477310D01*
X-10090000Y-16480000D01*
X-10091250Y-16480000D01*
X-10508750Y-16480000D01*
X-10510000Y-16480000D01*
X-10537313Y-16477310D01*
X-10587780Y-16456406D01*
X-10626406Y-16417780D01*
X-10647310Y-16367313D01*
X-10647310Y-16312687D01*
X-10626406Y-16262220D01*
X-10587780Y-16223594D01*
X-10537313Y-16202690D01*
X-10510000Y-16200000D01*
X-10090000Y-16200000D01*
X-10062687Y-16202690D01*
G37*
G36*
X-6062687Y-16202690D02*
G01*
X-6012220Y-16223594D01*
X-5973594Y-16262220D01*
X-5952690Y-16312687D01*
X-5952690Y-16367313D01*
X-5973594Y-16417780D01*
X-6012220Y-16456406D01*
X-6062687Y-16477310D01*
X-6090000Y-16480000D01*
X-6091250Y-16480000D01*
X-6508750Y-16480000D01*
X-6510000Y-16480000D01*
X-6537313Y-16477310D01*
X-6587780Y-16456406D01*
X-6626406Y-16417780D01*
X-6647310Y-16367313D01*
X-6647310Y-16312687D01*
X-6626406Y-16262220D01*
X-6587780Y-16223594D01*
X-6537313Y-16202690D01*
X-6510000Y-16200000D01*
X-6090000Y-16200000D01*
X-6062687Y-16202690D01*
G37*
G36*
X-16900000Y-16350000D02*
G01*
X-17900000Y-16350000D01*
X-17900000Y-15650000D01*
X-16900000Y-15650000D01*
X-16900000Y-16350000D01*
G37*
G36*
X-10062687Y-15702690D02*
G01*
X-10012220Y-15723594D01*
X-9973594Y-15762220D01*
X-9952690Y-15812687D01*
X-9952690Y-15867313D01*
X-9973594Y-15917780D01*
X-10012220Y-15956406D01*
X-10062687Y-15977310D01*
X-10090000Y-15980000D01*
X-10091250Y-15980000D01*
X-10508750Y-15980000D01*
X-10510000Y-15980000D01*
X-10537313Y-15977310D01*
X-10587780Y-15956406D01*
X-10626406Y-15917780D01*
X-10647310Y-15867313D01*
X-10647310Y-15812687D01*
X-10626406Y-15762220D01*
X-10587780Y-15723594D01*
X-10537313Y-15702690D01*
X-10510000Y-15700000D01*
X-10090000Y-15700000D01*
X-10062687Y-15702690D01*
G37*
G36*
X-6062687Y-15702690D02*
G01*
X-6012220Y-15723594D01*
X-5973594Y-15762220D01*
X-5952690Y-15812687D01*
X-5952690Y-15867313D01*
X-5973594Y-15917780D01*
X-6012220Y-15956406D01*
X-6062687Y-15977310D01*
X-6090000Y-15980000D01*
X-6091250Y-15980000D01*
X-6508750Y-15980000D01*
X-6510000Y-15980000D01*
X-6537313Y-15977310D01*
X-6587780Y-15956406D01*
X-6626406Y-15917780D01*
X-6647310Y-15867313D01*
X-6647310Y-15812687D01*
X-6626406Y-15762220D01*
X-6587780Y-15723594D01*
X-6537313Y-15702690D01*
X-6510000Y-15700000D01*
X-6090000Y-15700000D01*
X-6062687Y-15702690D01*
G37*
G36*
X19100000Y-15950000D02*
G01*
X18100000Y-15950000D01*
X18100000Y-15250000D01*
X19100000Y-15250000D01*
X19100000Y-15950000D01*
G37*
G36*
X-24082163Y-14664120D02*
G01*
X-24025821Y-14666887D01*
X-24018877Y-14668268D01*
X-24005684Y-14669133D01*
X-23980196Y-14675962D01*
X-23909867Y-14689952D01*
X-23876676Y-14703700D01*
X-23854390Y-14709672D01*
X-23834409Y-14721208D01*
X-23801217Y-14734957D01*
X-23741603Y-14774790D01*
X-23718743Y-14787988D01*
X-23712486Y-14794245D01*
X-23703445Y-14800286D01*
X-23620287Y-14883444D01*
X-23614247Y-14892484D01*
X-23607988Y-14898743D01*
X-23594788Y-14921606D01*
X-23554958Y-14981216D01*
X-23541211Y-15014404D01*
X-23529672Y-15034390D01*
X-23523700Y-15056679D01*
X-23509953Y-15089866D01*
X-23495966Y-15160185D01*
X-23489133Y-15185684D01*
X-23489133Y-15194533D01*
X-23487011Y-15205201D01*
X-23487011Y-15322798D01*
X-23489133Y-15333465D01*
X-23489133Y-15342316D01*
X-23495967Y-15367817D01*
X-23509953Y-15438133D01*
X-23523699Y-15471318D01*
X-23529672Y-15493610D01*
X-23541213Y-15513598D01*
X-23554958Y-15546783D01*
X-23594784Y-15606386D01*
X-23607988Y-15629257D01*
X-23614249Y-15635517D01*
X-23620287Y-15644555D01*
X-23703445Y-15727713D01*
X-23712483Y-15733751D01*
X-23718743Y-15740012D01*
X-23741614Y-15753216D01*
X-23801217Y-15793042D01*
X-23834402Y-15806787D01*
X-23854390Y-15818328D01*
X-23876682Y-15824301D01*
X-23909867Y-15838047D01*
X-23980182Y-15852033D01*
X-24005684Y-15858867D01*
X-24018885Y-15859732D01*
X-24025821Y-15861112D01*
X-24082161Y-15863879D01*
X-24084000Y-15864000D01*
X-24084615Y-15864000D01*
X-24683385Y-15864000D01*
X-24684000Y-15864000D01*
X-24685840Y-15863879D01*
X-24742180Y-15861112D01*
X-24749118Y-15859732D01*
X-24762316Y-15858867D01*
X-24787817Y-15852034D01*
X-24858134Y-15838047D01*
X-24891321Y-15824300D01*
X-24913610Y-15818328D01*
X-24933596Y-15806789D01*
X-24966784Y-15793042D01*
X-25026394Y-15753212D01*
X-25049257Y-15740012D01*
X-25055516Y-15733753D01*
X-25064556Y-15727713D01*
X-25147714Y-15644555D01*
X-25153755Y-15635514D01*
X-25160012Y-15629257D01*
X-25173210Y-15606397D01*
X-25213043Y-15546783D01*
X-25226792Y-15513591D01*
X-25238328Y-15493610D01*
X-25244300Y-15471324D01*
X-25258048Y-15438133D01*
X-25272036Y-15367812D01*
X-25278867Y-15342316D01*
X-25278867Y-15333466D01*
X-25280989Y-15322798D01*
X-25280989Y-15205201D01*
X-25278867Y-15194532D01*
X-25278867Y-15185684D01*
X-25272037Y-15160190D01*
X-25258048Y-15089866D01*
X-25244299Y-15056672D01*
X-25238328Y-15034390D01*
X-25226793Y-15014410D01*
X-25213043Y-14981216D01*
X-25173206Y-14921595D01*
X-25160012Y-14898743D01*
X-25153757Y-14892487D01*
X-25147714Y-14883444D01*
X-25064556Y-14800286D01*
X-25055513Y-14794243D01*
X-25049257Y-14787988D01*
X-25026405Y-14774794D01*
X-24966784Y-14734957D01*
X-24933590Y-14721207D01*
X-24913610Y-14709672D01*
X-24891328Y-14703701D01*
X-24858134Y-14689952D01*
X-24787802Y-14675961D01*
X-24762316Y-14669133D01*
X-24749125Y-14668268D01*
X-24742180Y-14666887D01*
X-24685837Y-14664120D01*
X-24684000Y-14664000D01*
X-24084000Y-14664000D01*
X-24082163Y-14664120D01*
G37*
G36*
X-19802163Y-14664120D02*
G01*
X-19745821Y-14666887D01*
X-19738877Y-14668268D01*
X-19725684Y-14669133D01*
X-19700196Y-14675962D01*
X-19629867Y-14689952D01*
X-19596676Y-14703700D01*
X-19574390Y-14709672D01*
X-19554409Y-14721208D01*
X-19521217Y-14734957D01*
X-19461603Y-14774790D01*
X-19438743Y-14787988D01*
X-19432486Y-14794245D01*
X-19423445Y-14800286D01*
X-19340287Y-14883444D01*
X-19334247Y-14892484D01*
X-19327988Y-14898743D01*
X-19314788Y-14921606D01*
X-19274958Y-14981216D01*
X-19261211Y-15014404D01*
X-19249672Y-15034390D01*
X-19243700Y-15056679D01*
X-19229953Y-15089866D01*
X-19215966Y-15160185D01*
X-19209133Y-15185684D01*
X-19209133Y-15194533D01*
X-19207011Y-15205201D01*
X-19207011Y-15322798D01*
X-19209133Y-15333465D01*
X-19209133Y-15342316D01*
X-19215967Y-15367817D01*
X-19229953Y-15438133D01*
X-19243699Y-15471318D01*
X-19249672Y-15493610D01*
X-19261213Y-15513598D01*
X-19274958Y-15546783D01*
X-19314784Y-15606386D01*
X-19327988Y-15629257D01*
X-19334249Y-15635517D01*
X-19340287Y-15644555D01*
X-19423445Y-15727713D01*
X-19432483Y-15733751D01*
X-19438743Y-15740012D01*
X-19461614Y-15753216D01*
X-19521217Y-15793042D01*
X-19554402Y-15806787D01*
X-19574390Y-15818328D01*
X-19596682Y-15824301D01*
X-19629867Y-15838047D01*
X-19700182Y-15852033D01*
X-19725684Y-15858867D01*
X-19738885Y-15859732D01*
X-19745821Y-15861112D01*
X-19802161Y-15863879D01*
X-19804000Y-15864000D01*
X-19804615Y-15864000D01*
X-20603385Y-15864000D01*
X-20604000Y-15864000D01*
X-20605840Y-15863879D01*
X-20662180Y-15861112D01*
X-20669118Y-15859732D01*
X-20682316Y-15858867D01*
X-20707817Y-15852034D01*
X-20778134Y-15838047D01*
X-20811321Y-15824300D01*
X-20833610Y-15818328D01*
X-20853596Y-15806789D01*
X-20886784Y-15793042D01*
X-20946394Y-15753212D01*
X-20969257Y-15740012D01*
X-20975516Y-15733753D01*
X-20984556Y-15727713D01*
X-21067714Y-15644555D01*
X-21073755Y-15635514D01*
X-21080012Y-15629257D01*
X-21093210Y-15606397D01*
X-21133043Y-15546783D01*
X-21146792Y-15513591D01*
X-21158328Y-15493610D01*
X-21164300Y-15471324D01*
X-21178048Y-15438133D01*
X-21192036Y-15367812D01*
X-21198867Y-15342316D01*
X-21198867Y-15333466D01*
X-21200989Y-15322798D01*
X-21200989Y-15205201D01*
X-21198867Y-15194532D01*
X-21198867Y-15185684D01*
X-21192037Y-15160190D01*
X-21178048Y-15089866D01*
X-21164299Y-15056672D01*
X-21158328Y-15034390D01*
X-21146793Y-15014410D01*
X-21133043Y-14981216D01*
X-21093206Y-14921595D01*
X-21080012Y-14898743D01*
X-21073757Y-14892487D01*
X-21067714Y-14883444D01*
X-20984556Y-14800286D01*
X-20975513Y-14794243D01*
X-20969257Y-14787988D01*
X-20946405Y-14774794D01*
X-20886784Y-14734957D01*
X-20853590Y-14721207D01*
X-20833610Y-14709672D01*
X-20811328Y-14703701D01*
X-20778134Y-14689952D01*
X-20707802Y-14675961D01*
X-20682316Y-14669133D01*
X-20669125Y-14668268D01*
X-20662180Y-14666887D01*
X-20605837Y-14664120D01*
X-20604000Y-14664000D01*
X-19804000Y-14664000D01*
X-19802163Y-14664120D01*
G37*
G36*
X-15580000Y-15830000D02*
G01*
X-16120000Y-15830000D01*
X-16120000Y-15330000D01*
X-15580000Y-15330000D01*
X-15580000Y-15830000D01*
G37*
G36*
X-10062687Y-15202690D02*
G01*
X-10012220Y-15223594D01*
X-9973594Y-15262220D01*
X-9952690Y-15312687D01*
X-9952690Y-15367313D01*
X-9973594Y-15417780D01*
X-10012220Y-15456406D01*
X-10062687Y-15477310D01*
X-10090000Y-15480000D01*
X-10091250Y-15480000D01*
X-10508750Y-15480000D01*
X-10510000Y-15480000D01*
X-10537313Y-15477310D01*
X-10587780Y-15456406D01*
X-10626406Y-15417780D01*
X-10647310Y-15367313D01*
X-10647310Y-15312687D01*
X-10626406Y-15262220D01*
X-10587780Y-15223594D01*
X-10537313Y-15202690D01*
X-10510000Y-15200000D01*
X-10090000Y-15200000D01*
X-10062687Y-15202690D01*
G37*
G36*
X-6062687Y-15202690D02*
G01*
X-6012220Y-15223594D01*
X-5973594Y-15262220D01*
X-5952690Y-15312687D01*
X-5952690Y-15367313D01*
X-5973594Y-15417780D01*
X-6012220Y-15456406D01*
X-6062687Y-15477310D01*
X-6090000Y-15480000D01*
X-6091250Y-15480000D01*
X-6508750Y-15480000D01*
X-6510000Y-15480000D01*
X-6537313Y-15477310D01*
X-6587780Y-15456406D01*
X-6626406Y-15417780D01*
X-6647310Y-15367313D01*
X-6647310Y-15312687D01*
X-6626406Y-15262220D01*
X-6587780Y-15223594D01*
X-6537313Y-15202690D01*
X-6510000Y-15200000D01*
X-6090000Y-15200000D01*
X-6062687Y-15202690D01*
G37*
G36*
X17370000Y-15070000D02*
G01*
X16830000Y-15070000D01*
X16830000Y-14570000D01*
X17370000Y-14570000D01*
X17370000Y-15070000D01*
G37*
G36*
X-10062687Y-14702690D02*
G01*
X-10012220Y-14723594D01*
X-9973594Y-14762220D01*
X-9952690Y-14812687D01*
X-9952690Y-14867313D01*
X-9973594Y-14917780D01*
X-10012220Y-14956406D01*
X-10062687Y-14977310D01*
X-10090000Y-14980000D01*
X-10091250Y-14980000D01*
X-10508750Y-14980000D01*
X-10510000Y-14980000D01*
X-10537313Y-14977310D01*
X-10587780Y-14956406D01*
X-10626406Y-14917780D01*
X-10647310Y-14867313D01*
X-10647310Y-14812687D01*
X-10626406Y-14762220D01*
X-10587780Y-14723594D01*
X-10537313Y-14702690D01*
X-10510000Y-14700000D01*
X-10090000Y-14700000D01*
X-10062687Y-14702690D01*
G37*
G36*
X-6062687Y-14702690D02*
G01*
X-6012220Y-14723594D01*
X-5973594Y-14762220D01*
X-5952690Y-14812687D01*
X-5952690Y-14867313D01*
X-5973594Y-14917780D01*
X-6012220Y-14956406D01*
X-6062687Y-14977310D01*
X-6090000Y-14980000D01*
X-6091250Y-14980000D01*
X-6508750Y-14980000D01*
X-6510000Y-14980000D01*
X-6537313Y-14977310D01*
X-6587780Y-14956406D01*
X-6626406Y-14917780D01*
X-6647310Y-14867313D01*
X-6647310Y-14812687D01*
X-6626406Y-14762220D01*
X-6587780Y-14723594D01*
X-6537313Y-14702690D01*
X-6510000Y-14700000D01*
X-6090000Y-14700000D01*
X-6062687Y-14702690D01*
G37*
G36*
X19100000Y-14750000D02*
G01*
X18100000Y-14750000D01*
X18100000Y-14050000D01*
X19100000Y-14050000D01*
X19100000Y-14750000D01*
G37*
G36*
X-10062687Y-14202690D02*
G01*
X-10012220Y-14223594D01*
X-9973594Y-14262220D01*
X-9952690Y-14312687D01*
X-9952690Y-14367313D01*
X-9973594Y-14417780D01*
X-10012220Y-14456406D01*
X-10062687Y-14477310D01*
X-10090000Y-14480000D01*
X-10091250Y-14480000D01*
X-10508750Y-14480000D01*
X-10510000Y-14480000D01*
X-10537313Y-14477310D01*
X-10587780Y-14456406D01*
X-10626406Y-14417780D01*
X-10647310Y-14367313D01*
X-10647310Y-14312687D01*
X-10626406Y-14262220D01*
X-10587780Y-14223594D01*
X-10537313Y-14202690D01*
X-10510000Y-14200000D01*
X-10090000Y-14200000D01*
X-10062687Y-14202690D01*
G37*
G36*
X-6062687Y-14202690D02*
G01*
X-6012220Y-14223594D01*
X-5973594Y-14262220D01*
X-5952690Y-14312687D01*
X-5952690Y-14367313D01*
X-5973594Y-14417780D01*
X-6012220Y-14456406D01*
X-6062687Y-14477310D01*
X-6090000Y-14480000D01*
X-6091250Y-14480000D01*
X-6508750Y-14480000D01*
X-6510000Y-14480000D01*
X-6537313Y-14477310D01*
X-6587780Y-14456406D01*
X-6626406Y-14417780D01*
X-6647310Y-14367313D01*
X-6647310Y-14312687D01*
X-6626406Y-14262220D01*
X-6587780Y-14223594D01*
X-6537313Y-14202690D01*
X-6510000Y-14200000D01*
X-6090000Y-14200000D01*
X-6062687Y-14202690D01*
G37*
G36*
X-18744000Y-14434000D02*
G01*
X-20144000Y-14434000D01*
X-20144000Y-13834000D01*
X-18744000Y-13834000D01*
X-18744000Y-14434000D01*
G37*
G36*
X17370000Y-14230000D02*
G01*
X16830000Y-14230000D01*
X16830000Y-13730000D01*
X17370000Y-13730000D01*
X17370000Y-14230000D01*
G37*
G36*
X24540285Y-12213060D02*
G01*
X24721397Y-12288079D01*
X24884393Y-12396990D01*
X25023010Y-12535607D01*
X25131921Y-12698603D01*
X25206940Y-12879715D01*
X25245185Y-13071983D01*
X25245185Y-13268017D01*
X25206940Y-13460285D01*
X25131921Y-13641397D01*
X25023010Y-13804393D01*
X24884393Y-13943010D01*
X24721397Y-14051921D01*
X24540285Y-14126940D01*
X24348017Y-14165185D01*
X24151983Y-14165185D01*
X23959715Y-14126940D01*
X23778603Y-14051921D01*
X23615607Y-13943010D01*
X23476990Y-13804393D01*
X23368079Y-13641397D01*
X23293060Y-13460285D01*
X23254815Y-13268017D01*
X23254815Y-13071983D01*
X23293060Y-12879715D01*
X23368079Y-12698603D01*
X23476990Y-12535607D01*
X23615607Y-12396990D01*
X23778603Y-12288079D01*
X23959715Y-12213060D01*
X24151983Y-12174815D01*
X24348017Y-12174815D01*
X24540285Y-12213060D01*
G37*
G36*
X-20579628Y-13533739D02*
G01*
X-20506153Y-13576160D01*
X-20446160Y-13636153D01*
X-20403739Y-13709628D01*
X-20381780Y-13791579D01*
X-20381780Y-13876421D01*
X-20403739Y-13958372D01*
X-20446160Y-14031847D01*
X-20506153Y-14091840D01*
X-20579628Y-14134261D01*
X-20661579Y-14156220D01*
X-20746421Y-14156220D01*
X-20828372Y-14134261D01*
X-20901847Y-14091840D01*
X-20961840Y-14031847D01*
X-21004261Y-13958372D01*
X-21026220Y-13876421D01*
X-21026220Y-13791579D01*
X-21004261Y-13709628D01*
X-20961840Y-13636153D01*
X-20901847Y-13576160D01*
X-20828372Y-13533739D01*
X-20746421Y-13511780D01*
X-20661579Y-13511780D01*
X-20579628Y-13533739D01*
G37*
G36*
X-10062687Y-13702690D02*
G01*
X-10012220Y-13723594D01*
X-9973594Y-13762220D01*
X-9952690Y-13812687D01*
X-9952690Y-13867313D01*
X-9973594Y-13917780D01*
X-10012220Y-13956406D01*
X-10062687Y-13977310D01*
X-10090000Y-13980000D01*
X-10091250Y-13980000D01*
X-10508750Y-13980000D01*
X-10510000Y-13980000D01*
X-10537313Y-13977310D01*
X-10587780Y-13956406D01*
X-10626406Y-13917780D01*
X-10647310Y-13867313D01*
X-10647310Y-13812687D01*
X-10626406Y-13762220D01*
X-10587780Y-13723594D01*
X-10537313Y-13702690D01*
X-10510000Y-13700000D01*
X-10090000Y-13700000D01*
X-10062687Y-13702690D01*
G37*
G36*
X-6062687Y-13702690D02*
G01*
X-6012220Y-13723594D01*
X-5973594Y-13762220D01*
X-5952690Y-13812687D01*
X-5952690Y-13867313D01*
X-5973594Y-13917780D01*
X-6012220Y-13956406D01*
X-6062687Y-13977310D01*
X-6090000Y-13980000D01*
X-6091250Y-13980000D01*
X-6508750Y-13980000D01*
X-6510000Y-13980000D01*
X-6537313Y-13977310D01*
X-6587780Y-13956406D01*
X-6626406Y-13917780D01*
X-6647310Y-13867313D01*
X-6647310Y-13812687D01*
X-6626406Y-13762220D01*
X-6587780Y-13723594D01*
X-6537313Y-13702690D01*
X-6510000Y-13700000D01*
X-6090000Y-13700000D01*
X-6062687Y-13702690D01*
G37*
G36*
X-18744000Y-13634000D02*
G01*
X-20144000Y-13634000D01*
X-20144000Y-13034000D01*
X-18744000Y-13034000D01*
X-18744000Y-13634000D01*
G37*
G36*
X-9472220Y-12763594D02*
G01*
X-9433594Y-12802220D01*
X-9412690Y-12852687D01*
X-9410000Y-12880000D01*
X-9410000Y-13300000D01*
X-9412690Y-13327313D01*
X-9433594Y-13377780D01*
X-9472220Y-13416406D01*
X-9522687Y-13437310D01*
X-9577313Y-13437310D01*
X-9627780Y-13416406D01*
X-9666406Y-13377780D01*
X-9687310Y-13327313D01*
X-9690000Y-13300000D01*
X-9690000Y-12880000D01*
X-9687310Y-12852687D01*
X-9666406Y-12802220D01*
X-9627780Y-12763594D01*
X-9577313Y-12742690D01*
X-9522687Y-12742690D01*
X-9472220Y-12763594D01*
G37*
G36*
X-8972220Y-12763594D02*
G01*
X-8933594Y-12802220D01*
X-8912690Y-12852687D01*
X-8910000Y-12880000D01*
X-8910000Y-13300000D01*
X-8912690Y-13327313D01*
X-8933594Y-13377780D01*
X-8972220Y-13416406D01*
X-9022687Y-13437310D01*
X-9077313Y-13437310D01*
X-9127780Y-13416406D01*
X-9166406Y-13377780D01*
X-9187310Y-13327313D01*
X-9190000Y-13300000D01*
X-9190000Y-12880000D01*
X-9187310Y-12852687D01*
X-9166406Y-12802220D01*
X-9127780Y-12763594D01*
X-9077313Y-12742690D01*
X-9022687Y-12742690D01*
X-8972220Y-12763594D01*
G37*
G36*
X-8472220Y-12763594D02*
G01*
X-8433594Y-12802220D01*
X-8412690Y-12852687D01*
X-8410000Y-12880000D01*
X-8410000Y-13300000D01*
X-8412690Y-13327313D01*
X-8433594Y-13377780D01*
X-8472220Y-13416406D01*
X-8522687Y-13437310D01*
X-8577313Y-13437310D01*
X-8627780Y-13416406D01*
X-8666406Y-13377780D01*
X-8687310Y-13327313D01*
X-8690000Y-13300000D01*
X-8690000Y-12880000D01*
X-8687310Y-12852687D01*
X-8666406Y-12802220D01*
X-8627780Y-12763594D01*
X-8577313Y-12742690D01*
X-8522687Y-12742690D01*
X-8472220Y-12763594D01*
G37*
G36*
X-7972220Y-12763594D02*
G01*
X-7933594Y-12802220D01*
X-7912690Y-12852687D01*
X-7910000Y-12880000D01*
X-7910000Y-13300000D01*
X-7912690Y-13327313D01*
X-7933594Y-13377780D01*
X-7972220Y-13416406D01*
X-8022687Y-13437310D01*
X-8077313Y-13437310D01*
X-8127780Y-13416406D01*
X-8166406Y-13377780D01*
X-8187310Y-13327313D01*
X-8190000Y-13300000D01*
X-8190000Y-12880000D01*
X-8187310Y-12852687D01*
X-8166406Y-12802220D01*
X-8127780Y-12763594D01*
X-8077313Y-12742690D01*
X-8022687Y-12742690D01*
X-7972220Y-12763594D01*
G37*
G36*
X-7472220Y-12763594D02*
G01*
X-7433594Y-12802220D01*
X-7412690Y-12852687D01*
X-7410000Y-12880000D01*
X-7410000Y-13300000D01*
X-7412690Y-13327313D01*
X-7433594Y-13377780D01*
X-7472220Y-13416406D01*
X-7522687Y-13437310D01*
X-7577313Y-13437310D01*
X-7627780Y-13416406D01*
X-7666406Y-13377780D01*
X-7687310Y-13327313D01*
X-7690000Y-13300000D01*
X-7690000Y-12880000D01*
X-7687310Y-12852687D01*
X-7666406Y-12802220D01*
X-7627780Y-12763594D01*
X-7577313Y-12742690D01*
X-7522687Y-12742690D01*
X-7472220Y-12763594D01*
G37*
G36*
X-6972220Y-12763594D02*
G01*
X-6933594Y-12802220D01*
X-6912690Y-12852687D01*
X-6910000Y-12880000D01*
X-6910000Y-13300000D01*
X-6912690Y-13327313D01*
X-6933594Y-13377780D01*
X-6972220Y-13416406D01*
X-7022687Y-13437310D01*
X-7077313Y-13437310D01*
X-7127780Y-13416406D01*
X-7166406Y-13377780D01*
X-7187310Y-13327313D01*
X-7190000Y-13300000D01*
X-7190000Y-12880000D01*
X-7187310Y-12852687D01*
X-7166406Y-12802220D01*
X-7127780Y-12763594D01*
X-7077313Y-12742690D01*
X-7022687Y-12742690D01*
X-6972220Y-12763594D01*
G37*
G36*
X-970000Y-12955000D02*
G01*
X-1830000Y-12955000D01*
X-1830000Y-12145000D01*
X-970000Y-12145000D01*
X-970000Y-12955000D01*
G37*
G36*
X-18794000Y-12834000D02*
G01*
X-20094000Y-12834000D01*
X-20094000Y-12534000D01*
X-18794000Y-12534000D01*
X-18794000Y-12834000D01*
G37*
G36*
X-3970000Y-12355000D02*
G01*
X-4830000Y-12355000D01*
X-4830000Y-11545000D01*
X-3970000Y-11545000D01*
X-3970000Y-12355000D01*
G37*
G36*
X-18794000Y-12334000D02*
G01*
X-20094000Y-12334000D01*
X-20094000Y-12034000D01*
X-18794000Y-12034000D01*
X-18794000Y-12334000D01*
G37*
G36*
X-12200000Y-12150000D02*
G01*
X-13000000Y-12150000D01*
X-13000000Y-11250000D01*
X-12200000Y-11250000D01*
X-12200000Y-12150000D01*
G37*
G36*
X-10800000Y-12150000D02*
G01*
X-11600000Y-12150000D01*
X-11600000Y-11250000D01*
X-10800000Y-11250000D01*
X-10800000Y-12150000D01*
G37*
G36*
X-18794000Y-11834000D02*
G01*
X-20094000Y-11834000D01*
X-20094000Y-11534000D01*
X-18794000Y-11534000D01*
X-18794000Y-11834000D01*
G37*
G36*
X-2530000Y-11715000D02*
G01*
X-3070000Y-11715000D01*
X-3070000Y-11145000D01*
X-2530000Y-11145000D01*
X-2530000Y-11715000D01*
G37*
G36*
X24540285Y-9673060D02*
G01*
X24721397Y-9748079D01*
X24884393Y-9856990D01*
X25023010Y-9995607D01*
X25131921Y-10158603D01*
X25206940Y-10339715D01*
X25245185Y-10531983D01*
X25245185Y-10728017D01*
X25206940Y-10920285D01*
X25131921Y-11101397D01*
X25023010Y-11264393D01*
X24884393Y-11403010D01*
X24721397Y-11511921D01*
X24540285Y-11586940D01*
X24348017Y-11625185D01*
X24151983Y-11625185D01*
X23959715Y-11586940D01*
X23778603Y-11511921D01*
X23615607Y-11403010D01*
X23476990Y-11264393D01*
X23368079Y-11101397D01*
X23293060Y-10920285D01*
X23254815Y-10728017D01*
X23254815Y-10531983D01*
X23293060Y-10339715D01*
X23368079Y-10158603D01*
X23476990Y-9995607D01*
X23615607Y-9856990D01*
X23778603Y-9748079D01*
X23959715Y-9673060D01*
X24151983Y-9634815D01*
X24348017Y-9634815D01*
X24540285Y-9673060D01*
G37*
G36*
X-970000Y-11455000D02*
G01*
X-1830000Y-11455000D01*
X-1830000Y-10645000D01*
X-970000Y-10645000D01*
X-970000Y-11455000D01*
G37*
G36*
X15225000Y-11450000D02*
G01*
X13975000Y-11450000D01*
X13975000Y-9750000D01*
X15225000Y-9750000D01*
X15225000Y-11450000D01*
G37*
G36*
X19625000Y-11450000D02*
G01*
X18375000Y-11450000D01*
X18375000Y-9750000D01*
X19625000Y-9750000D01*
X19625000Y-11450000D01*
G37*
G36*
X-18794000Y-11334000D02*
G01*
X-20094000Y-11334000D01*
X-20094000Y-11034000D01*
X-18794000Y-11034000D01*
X-18794000Y-11334000D01*
G37*
G36*
X-3970000Y-10855000D02*
G01*
X-4830000Y-10855000D01*
X-4830000Y-10045000D01*
X-3970000Y-10045000D01*
X-3970000Y-10855000D01*
G37*
G36*
X-2530000Y-10855000D02*
G01*
X-3070000Y-10855000D01*
X-3070000Y-10285000D01*
X-2530000Y-10285000D01*
X-2530000Y-10855000D01*
G37*
G36*
X-18794000Y-10834000D02*
G01*
X-20094000Y-10834000D01*
X-20094000Y-10534000D01*
X-18794000Y-10534000D01*
X-18794000Y-10834000D01*
G37*
G36*
X-12200000Y-10450000D02*
G01*
X-13000000Y-10450000D01*
X-13000000Y-9550000D01*
X-12200000Y-9550000D01*
X-12200000Y-10450000D01*
G37*
G36*
X-10800000Y-10450000D02*
G01*
X-11600000Y-10450000D01*
X-11600000Y-9550000D01*
X-10800000Y-9550000D01*
X-10800000Y-10450000D01*
G37*
G36*
X-18794000Y-10334000D02*
G01*
X-20094000Y-10334000D01*
X-20094000Y-10034000D01*
X-18794000Y-10034000D01*
X-18794000Y-10334000D01*
G37*
G36*
X-18794000Y-9834000D02*
G01*
X-20094000Y-9834000D01*
X-20094000Y-9534000D01*
X-18794000Y-9534000D01*
X-18794000Y-9834000D01*
G37*
G36*
X-18794000Y-9334000D02*
G01*
X-20094000Y-9334000D01*
X-20094000Y-9034000D01*
X-18794000Y-9034000D01*
X-18794000Y-9334000D01*
G37*
G36*
X-7445000Y-8970000D02*
G01*
X-8015000Y-8970000D01*
X-8015000Y-8430000D01*
X-7445000Y-8430000D01*
X-7445000Y-8970000D01*
G37*
G36*
X-6585000Y-8970000D02*
G01*
X-7155000Y-8970000D01*
X-7155000Y-8430000D01*
X-6585000Y-8430000D01*
X-6585000Y-8970000D01*
G37*
G36*
X-18744000Y-8834000D02*
G01*
X-20144000Y-8834000D01*
X-20144000Y-8234000D01*
X-18744000Y-8234000D01*
X-18744000Y-8834000D01*
G37*
G36*
X-12200000Y-8750000D02*
G01*
X-13000000Y-8750000D01*
X-13000000Y-7850000D01*
X-12200000Y-7850000D01*
X-12200000Y-8750000D01*
G37*
G36*
X-10800000Y-8750000D02*
G01*
X-11600000Y-8750000D01*
X-11600000Y-7850000D01*
X-10800000Y-7850000D01*
X-10800000Y-8750000D01*
G37*
G36*
X-20579628Y-7733739D02*
G01*
X-20506153Y-7776160D01*
X-20446160Y-7836153D01*
X-20403739Y-7909628D01*
X-20381780Y-7991579D01*
X-20381780Y-8076421D01*
X-20403739Y-8158372D01*
X-20446160Y-8231847D01*
X-20506153Y-8291840D01*
X-20579628Y-8334261D01*
X-20661579Y-8356220D01*
X-20746421Y-8356220D01*
X-20828372Y-8334261D01*
X-20901847Y-8291840D01*
X-20961840Y-8231847D01*
X-21004261Y-8158372D01*
X-21026220Y-8076421D01*
X-21026220Y-7991579D01*
X-21004261Y-7909628D01*
X-20961840Y-7836153D01*
X-20901847Y-7776160D01*
X-20828372Y-7733739D01*
X-20746421Y-7711780D01*
X-20661579Y-7711780D01*
X-20579628Y-7733739D01*
G37*
G36*
X-1455000Y-8250000D02*
G01*
X-2705000Y-8250000D01*
X-2705000Y-6550000D01*
X-1455000Y-6550000D01*
X-1455000Y-8250000D01*
G37*
G36*
X2945000Y-8250000D02*
G01*
X1695000Y-8250000D01*
X1695000Y-6550000D01*
X2945000Y-6550000D01*
X2945000Y-8250000D01*
G37*
G36*
X-18744000Y-8034000D02*
G01*
X-20144000Y-8034000D01*
X-20144000Y-7434000D01*
X-18744000Y-7434000D01*
X-18744000Y-8034000D01*
G37*
G36*
X6317400Y-7805600D02*
G01*
X5417400Y-7805600D01*
X5417400Y-7005600D01*
X6317400Y-7005600D01*
X6317400Y-7805600D01*
G37*
G36*
X9898800Y-7678600D02*
G01*
X8998800Y-7678600D01*
X8998800Y-6878600D01*
X9898800Y-6878600D01*
X9898800Y-7678600D01*
G37*
G36*
X11880000Y-7551600D02*
G01*
X10980000Y-7551600D01*
X10980000Y-6751600D01*
X11880000Y-6751600D01*
X11880000Y-7551600D01*
G37*
G36*
X-24082163Y-6004120D02*
G01*
X-24025821Y-6006887D01*
X-24018877Y-6008268D01*
X-24005684Y-6009133D01*
X-23980196Y-6015962D01*
X-23909867Y-6029952D01*
X-23876676Y-6043700D01*
X-23854390Y-6049672D01*
X-23834409Y-6061208D01*
X-23801217Y-6074957D01*
X-23741603Y-6114790D01*
X-23718743Y-6127988D01*
X-23712486Y-6134245D01*
X-23703445Y-6140286D01*
X-23620287Y-6223444D01*
X-23614247Y-6232484D01*
X-23607988Y-6238743D01*
X-23594788Y-6261606D01*
X-23554958Y-6321216D01*
X-23541211Y-6354404D01*
X-23529672Y-6374390D01*
X-23523700Y-6396679D01*
X-23509953Y-6429866D01*
X-23495966Y-6500185D01*
X-23489133Y-6525684D01*
X-23489133Y-6534533D01*
X-23487011Y-6545201D01*
X-23487011Y-6662798D01*
X-23489133Y-6673465D01*
X-23489133Y-6682316D01*
X-23495967Y-6707817D01*
X-23509953Y-6778133D01*
X-23523699Y-6811318D01*
X-23529672Y-6833610D01*
X-23541213Y-6853598D01*
X-23554958Y-6886783D01*
X-23594784Y-6946386D01*
X-23607988Y-6969257D01*
X-23614249Y-6975517D01*
X-23620287Y-6984555D01*
X-23703445Y-7067713D01*
X-23712483Y-7073751D01*
X-23718743Y-7080012D01*
X-23741614Y-7093216D01*
X-23801217Y-7133042D01*
X-23834402Y-7146787D01*
X-23854390Y-7158328D01*
X-23876682Y-7164301D01*
X-23909867Y-7178047D01*
X-23980182Y-7192033D01*
X-24005684Y-7198867D01*
X-24018885Y-7199732D01*
X-24025821Y-7201112D01*
X-24082161Y-7203879D01*
X-24084000Y-7204000D01*
X-24084615Y-7204000D01*
X-24683385Y-7204000D01*
X-24684000Y-7204000D01*
X-24685840Y-7203879D01*
X-24742180Y-7201112D01*
X-24749118Y-7199732D01*
X-24762316Y-7198867D01*
X-24787817Y-7192034D01*
X-24858134Y-7178047D01*
X-24891321Y-7164300D01*
X-24913610Y-7158328D01*
X-24933596Y-7146789D01*
X-24966784Y-7133042D01*
X-25026394Y-7093212D01*
X-25049257Y-7080012D01*
X-25055516Y-7073753D01*
X-25064556Y-7067713D01*
X-25147714Y-6984555D01*
X-25153755Y-6975514D01*
X-25160012Y-6969257D01*
X-25173210Y-6946397D01*
X-25213043Y-6886783D01*
X-25226792Y-6853591D01*
X-25238328Y-6833610D01*
X-25244300Y-6811324D01*
X-25258048Y-6778133D01*
X-25272036Y-6707812D01*
X-25278867Y-6682316D01*
X-25278867Y-6673466D01*
X-25280989Y-6662798D01*
X-25280989Y-6545201D01*
X-25278867Y-6534532D01*
X-25278867Y-6525684D01*
X-25272037Y-6500190D01*
X-25258048Y-6429866D01*
X-25244299Y-6396672D01*
X-25238328Y-6374390D01*
X-25226793Y-6354410D01*
X-25213043Y-6321216D01*
X-25173206Y-6261595D01*
X-25160012Y-6238743D01*
X-25153757Y-6232487D01*
X-25147714Y-6223444D01*
X-25064556Y-6140286D01*
X-25055513Y-6134243D01*
X-25049257Y-6127988D01*
X-25026405Y-6114794D01*
X-24966784Y-6074957D01*
X-24933590Y-6061207D01*
X-24913610Y-6049672D01*
X-24891328Y-6043701D01*
X-24858134Y-6029952D01*
X-24787802Y-6015961D01*
X-24762316Y-6009133D01*
X-24749125Y-6008268D01*
X-24742180Y-6006887D01*
X-24685837Y-6004120D01*
X-24684000Y-6004000D01*
X-24084000Y-6004000D01*
X-24082163Y-6004120D01*
G37*
G36*
X-19802163Y-6004120D02*
G01*
X-19745821Y-6006887D01*
X-19738877Y-6008268D01*
X-19725684Y-6009133D01*
X-19700196Y-6015962D01*
X-19629867Y-6029952D01*
X-19596676Y-6043700D01*
X-19574390Y-6049672D01*
X-19554409Y-6061208D01*
X-19521217Y-6074957D01*
X-19461603Y-6114790D01*
X-19438743Y-6127988D01*
X-19432486Y-6134245D01*
X-19423445Y-6140286D01*
X-19340287Y-6223444D01*
X-19334247Y-6232484D01*
X-19327988Y-6238743D01*
X-19314788Y-6261606D01*
X-19274958Y-6321216D01*
X-19261211Y-6354404D01*
X-19249672Y-6374390D01*
X-19243700Y-6396679D01*
X-19229953Y-6429866D01*
X-19215966Y-6500185D01*
X-19209133Y-6525684D01*
X-19209133Y-6534533D01*
X-19207011Y-6545201D01*
X-19207011Y-6662798D01*
X-19209133Y-6673465D01*
X-19209133Y-6682316D01*
X-19215967Y-6707817D01*
X-19229953Y-6778133D01*
X-19243699Y-6811318D01*
X-19249672Y-6833610D01*
X-19261213Y-6853598D01*
X-19274958Y-6886783D01*
X-19314784Y-6946386D01*
X-19327988Y-6969257D01*
X-19334249Y-6975517D01*
X-19340287Y-6984555D01*
X-19423445Y-7067713D01*
X-19432483Y-7073751D01*
X-19438743Y-7080012D01*
X-19461614Y-7093216D01*
X-19521217Y-7133042D01*
X-19554402Y-7146787D01*
X-19574390Y-7158328D01*
X-19596682Y-7164301D01*
X-19629867Y-7178047D01*
X-19700182Y-7192033D01*
X-19725684Y-7198867D01*
X-19738885Y-7199732D01*
X-19745821Y-7201112D01*
X-19802161Y-7203879D01*
X-19804000Y-7204000D01*
X-19804615Y-7204000D01*
X-20603385Y-7204000D01*
X-20604000Y-7204000D01*
X-20605840Y-7203879D01*
X-20662180Y-7201112D01*
X-20669118Y-7199732D01*
X-20682316Y-7198867D01*
X-20707817Y-7192034D01*
X-20778134Y-7178047D01*
X-20811321Y-7164300D01*
X-20833610Y-7158328D01*
X-20853596Y-7146789D01*
X-20886784Y-7133042D01*
X-20946394Y-7093212D01*
X-20969257Y-7080012D01*
X-20975516Y-7073753D01*
X-20984556Y-7067713D01*
X-21067714Y-6984555D01*
X-21073755Y-6975514D01*
X-21080012Y-6969257D01*
X-21093210Y-6946397D01*
X-21133043Y-6886783D01*
X-21146792Y-6853591D01*
X-21158328Y-6833610D01*
X-21164300Y-6811324D01*
X-21178048Y-6778133D01*
X-21192036Y-6707812D01*
X-21198867Y-6682316D01*
X-21198867Y-6673466D01*
X-21200989Y-6662798D01*
X-21200989Y-6545201D01*
X-21198867Y-6534532D01*
X-21198867Y-6525684D01*
X-21192037Y-6500190D01*
X-21178048Y-6429866D01*
X-21164299Y-6396672D01*
X-21158328Y-6374390D01*
X-21146793Y-6354410D01*
X-21133043Y-6321216D01*
X-21093206Y-6261595D01*
X-21080012Y-6238743D01*
X-21073757Y-6232487D01*
X-21067714Y-6223444D01*
X-20984556Y-6140286D01*
X-20975513Y-6134243D01*
X-20969257Y-6127988D01*
X-20946405Y-6114794D01*
X-20886784Y-6074957D01*
X-20853590Y-6061207D01*
X-20833610Y-6049672D01*
X-20811328Y-6043701D01*
X-20778134Y-6029952D01*
X-20707802Y-6015961D01*
X-20682316Y-6009133D01*
X-20669125Y-6008268D01*
X-20662180Y-6006887D01*
X-20605837Y-6004120D01*
X-20604000Y-6004000D01*
X-19804000Y-6004000D01*
X-19802163Y-6004120D01*
G37*
G36*
X16062600Y-7152000D02*
G01*
X14652600Y-7152000D01*
X14652600Y-5802000D01*
X16062600Y-5802000D01*
X16062600Y-7152000D01*
G37*
G36*
X18062600Y-7152000D02*
G01*
X16652600Y-7152000D01*
X16652600Y-5802000D01*
X18062600Y-5802000D01*
X18062600Y-7152000D01*
G37*
G36*
X-6775000Y-4750123D02*
G01*
X-6760123Y-4765000D01*
X-5870000Y-4765000D01*
X-5870000Y-5075000D01*
X-6760124Y-5075000D01*
X-6775000Y-5089876D01*
X-6775000Y-5400123D01*
X-6760123Y-5415000D01*
X-5870000Y-5415000D01*
X-5870000Y-5725000D01*
X-6760124Y-5725000D01*
X-6775000Y-5739876D01*
X-6775000Y-6060123D01*
X-6760123Y-6075000D01*
X-5870000Y-6075000D01*
X-5870000Y-6385000D01*
X-6760124Y-6385000D01*
X-6775000Y-6399876D01*
X-6775000Y-6710123D01*
X-6760123Y-6725000D01*
X-5870000Y-6725000D01*
X-5870000Y-7035000D01*
X-6760124Y-7035000D01*
X-6775000Y-7049876D01*
X-6775000Y-7125000D01*
X-8625000Y-7125000D01*
X-8625000Y-4675000D01*
X-6775000Y-4675000D01*
X-6775000Y-4750123D01*
G37*
G36*
X13401800Y-7096200D02*
G01*
X12861800Y-7096200D01*
X12861800Y-6596200D01*
X13401800Y-6596200D01*
X13401800Y-7096200D01*
G37*
G36*
X-8980000Y-7035000D02*
G01*
X-9880000Y-7035000D01*
X-9880000Y-6725000D01*
X-8980000Y-6725000D01*
X-8980000Y-7035000D01*
G37*
G36*
X7966200Y-6988800D02*
G01*
X7426200Y-6988800D01*
X7426200Y-6418800D01*
X7966200Y-6418800D01*
X7966200Y-6988800D01*
G37*
G36*
X6317400Y-6405600D02*
G01*
X5417400Y-6405600D01*
X5417400Y-5605600D01*
X6317400Y-5605600D01*
X6317400Y-6405600D01*
G37*
G36*
X-8980000Y-6385000D02*
G01*
X-9880000Y-6385000D01*
X-9880000Y-6075000D01*
X-8980000Y-6075000D01*
X-8980000Y-6385000D01*
G37*
G36*
X9898800Y-6278600D02*
G01*
X8998800Y-6278600D01*
X8998800Y-5478600D01*
X9898800Y-5478600D01*
X9898800Y-6278600D01*
G37*
G36*
X13401800Y-6256200D02*
G01*
X12861800Y-6256200D01*
X12861800Y-5756200D01*
X13401800Y-5756200D01*
X13401800Y-6256200D01*
G37*
G36*
X11880000Y-6151600D02*
G01*
X10980000Y-6151600D01*
X10980000Y-5351600D01*
X11880000Y-5351600D01*
X11880000Y-6151600D01*
G37*
G36*
X7966200Y-6128800D02*
G01*
X7426200Y-6128800D01*
X7426200Y-5558800D01*
X7966200Y-5558800D01*
X7966200Y-6128800D01*
G37*
G36*
X-8980000Y-5735000D02*
G01*
X-9880000Y-5735000D01*
X-9880000Y-5425000D01*
X-8980000Y-5425000D01*
X-8980000Y-5735000D01*
G37*
G36*
X-15908400Y-5522000D02*
G01*
X-16908400Y-5522000D01*
X-16908400Y-4822000D01*
X-15908400Y-4822000D01*
X-15908400Y-5522000D01*
G37*
G36*
X-8980000Y-5075000D02*
G01*
X-9880000Y-5075000D01*
X-9880000Y-4765000D01*
X-8980000Y-4765000D01*
X-8980000Y-5075000D01*
G37*
G36*
X-24035663Y-3664120D02*
G01*
X-23979321Y-3666887D01*
X-23972377Y-3668268D01*
X-23959184Y-3669133D01*
X-23933696Y-3675962D01*
X-23863367Y-3689952D01*
X-23830176Y-3703700D01*
X-23807890Y-3709672D01*
X-23787909Y-3721208D01*
X-23754717Y-3734957D01*
X-23695103Y-3774790D01*
X-23672243Y-3787988D01*
X-23665986Y-3794245D01*
X-23656945Y-3800286D01*
X-23573787Y-3883444D01*
X-23567747Y-3892484D01*
X-23561488Y-3898743D01*
X-23548288Y-3921606D01*
X-23508458Y-3981216D01*
X-23494711Y-4014404D01*
X-23483172Y-4034390D01*
X-23477200Y-4056679D01*
X-23463453Y-4089866D01*
X-23449466Y-4160185D01*
X-23442633Y-4185684D01*
X-23442633Y-4194533D01*
X-23440511Y-4205201D01*
X-23440511Y-4322798D01*
X-23442633Y-4333465D01*
X-23442633Y-4342316D01*
X-23449467Y-4367817D01*
X-23463453Y-4438133D01*
X-23477199Y-4471318D01*
X-23483172Y-4493610D01*
X-23494713Y-4513598D01*
X-23508458Y-4546783D01*
X-23548284Y-4606386D01*
X-23561488Y-4629257D01*
X-23567749Y-4635517D01*
X-23573787Y-4644555D01*
X-23656945Y-4727713D01*
X-23665983Y-4733751D01*
X-23672243Y-4740012D01*
X-23695114Y-4753216D01*
X-23754717Y-4793042D01*
X-23787902Y-4806787D01*
X-23807890Y-4818328D01*
X-23830182Y-4824301D01*
X-23863367Y-4838047D01*
X-23933682Y-4852033D01*
X-23959184Y-4858867D01*
X-23972385Y-4859732D01*
X-23979321Y-4861112D01*
X-24035661Y-4863879D01*
X-24037500Y-4864000D01*
X-24038115Y-4864000D01*
X-24636885Y-4864000D01*
X-24637500Y-4864000D01*
X-24639340Y-4863879D01*
X-24695680Y-4861112D01*
X-24702618Y-4859732D01*
X-24715816Y-4858867D01*
X-24741317Y-4852034D01*
X-24811634Y-4838047D01*
X-24844821Y-4824300D01*
X-24867110Y-4818328D01*
X-24887096Y-4806789D01*
X-24920284Y-4793042D01*
X-24979894Y-4753212D01*
X-25002757Y-4740012D01*
X-25009016Y-4733753D01*
X-25018056Y-4727713D01*
X-25101214Y-4644555D01*
X-25107255Y-4635514D01*
X-25113512Y-4629257D01*
X-25126710Y-4606397D01*
X-25166543Y-4546783D01*
X-25180292Y-4513591D01*
X-25191828Y-4493610D01*
X-25197800Y-4471324D01*
X-25211548Y-4438133D01*
X-25225536Y-4367812D01*
X-25232367Y-4342316D01*
X-25232367Y-4333466D01*
X-25234489Y-4322798D01*
X-25234489Y-4205201D01*
X-25232367Y-4194532D01*
X-25232367Y-4185684D01*
X-25225537Y-4160190D01*
X-25211548Y-4089866D01*
X-25197799Y-4056672D01*
X-25191828Y-4034390D01*
X-25180293Y-4014410D01*
X-25166543Y-3981216D01*
X-25126706Y-3921595D01*
X-25113512Y-3898743D01*
X-25107257Y-3892487D01*
X-25101214Y-3883444D01*
X-25018056Y-3800286D01*
X-25009013Y-3794243D01*
X-25002757Y-3787988D01*
X-24979905Y-3774794D01*
X-24920284Y-3734957D01*
X-24887090Y-3721207D01*
X-24867110Y-3709672D01*
X-24844828Y-3703701D01*
X-24811634Y-3689952D01*
X-24741302Y-3675961D01*
X-24715816Y-3669133D01*
X-24702625Y-3668268D01*
X-24695680Y-3666887D01*
X-24639337Y-3664120D01*
X-24637500Y-3664000D01*
X-24037500Y-3664000D01*
X-24035663Y-3664120D01*
G37*
G36*
X-19755663Y-3664120D02*
G01*
X-19699321Y-3666887D01*
X-19692377Y-3668268D01*
X-19679184Y-3669133D01*
X-19653696Y-3675962D01*
X-19583367Y-3689952D01*
X-19550176Y-3703700D01*
X-19527890Y-3709672D01*
X-19507909Y-3721208D01*
X-19474717Y-3734957D01*
X-19415103Y-3774790D01*
X-19392243Y-3787988D01*
X-19385986Y-3794245D01*
X-19376945Y-3800286D01*
X-19293787Y-3883444D01*
X-19287747Y-3892484D01*
X-19281488Y-3898743D01*
X-19268288Y-3921606D01*
X-19228458Y-3981216D01*
X-19214711Y-4014404D01*
X-19203172Y-4034390D01*
X-19197200Y-4056679D01*
X-19183453Y-4089866D01*
X-19169466Y-4160185D01*
X-19162633Y-4185684D01*
X-19162633Y-4194533D01*
X-19160511Y-4205201D01*
X-19160511Y-4322798D01*
X-19162633Y-4333465D01*
X-19162633Y-4342316D01*
X-19169467Y-4367817D01*
X-19183453Y-4438133D01*
X-19197199Y-4471318D01*
X-19203172Y-4493610D01*
X-19214713Y-4513598D01*
X-19228458Y-4546783D01*
X-19268284Y-4606386D01*
X-19281488Y-4629257D01*
X-19287749Y-4635517D01*
X-19293787Y-4644555D01*
X-19376945Y-4727713D01*
X-19385983Y-4733751D01*
X-19392243Y-4740012D01*
X-19415114Y-4753216D01*
X-19474717Y-4793042D01*
X-19507902Y-4806787D01*
X-19527890Y-4818328D01*
X-19550182Y-4824301D01*
X-19583367Y-4838047D01*
X-19653682Y-4852033D01*
X-19679184Y-4858867D01*
X-19692385Y-4859732D01*
X-19699321Y-4861112D01*
X-19755661Y-4863879D01*
X-19757500Y-4864000D01*
X-19758115Y-4864000D01*
X-20556885Y-4864000D01*
X-20557500Y-4864000D01*
X-20559340Y-4863879D01*
X-20615680Y-4861112D01*
X-20622618Y-4859732D01*
X-20635816Y-4858867D01*
X-20661317Y-4852034D01*
X-20731634Y-4838047D01*
X-20764821Y-4824300D01*
X-20787110Y-4818328D01*
X-20807096Y-4806789D01*
X-20840284Y-4793042D01*
X-20899894Y-4753212D01*
X-20922757Y-4740012D01*
X-20929016Y-4733753D01*
X-20938056Y-4727713D01*
X-21021214Y-4644555D01*
X-21027255Y-4635514D01*
X-21033512Y-4629257D01*
X-21046710Y-4606397D01*
X-21086543Y-4546783D01*
X-21100292Y-4513591D01*
X-21111828Y-4493610D01*
X-21117800Y-4471324D01*
X-21131548Y-4438133D01*
X-21145536Y-4367812D01*
X-21152367Y-4342316D01*
X-21152367Y-4333466D01*
X-21154489Y-4322798D01*
X-21154489Y-4205201D01*
X-21152367Y-4194532D01*
X-21152367Y-4185684D01*
X-21145537Y-4160190D01*
X-21131548Y-4089866D01*
X-21117799Y-4056672D01*
X-21111828Y-4034390D01*
X-21100293Y-4014410D01*
X-21086543Y-3981216D01*
X-21046706Y-3921595D01*
X-21033512Y-3898743D01*
X-21027257Y-3892487D01*
X-21021214Y-3883444D01*
X-20938056Y-3800286D01*
X-20929013Y-3794243D01*
X-20922757Y-3787988D01*
X-20899905Y-3774794D01*
X-20840284Y-3734957D01*
X-20807090Y-3721207D01*
X-20787110Y-3709672D01*
X-20764828Y-3703701D01*
X-20731634Y-3689952D01*
X-20661302Y-3675961D01*
X-20635816Y-3669133D01*
X-20622625Y-3668268D01*
X-20615680Y-3666887D01*
X-20559337Y-3664120D01*
X-20557500Y-3664000D01*
X-19757500Y-3664000D01*
X-19755663Y-3664120D01*
G37*
G36*
X-3230000Y-4735000D02*
G01*
X-3770000Y-4735000D01*
X-3770000Y-4165000D01*
X-3230000Y-4165000D01*
X-3230000Y-4735000D01*
G37*
G36*
X-15908400Y-4322000D02*
G01*
X-16908400Y-4322000D01*
X-16908400Y-3622000D01*
X-15908400Y-3622000D01*
X-15908400Y-4322000D01*
G37*
G36*
X-4830000Y-4070000D02*
G01*
X-5370000Y-4070000D01*
X-5370000Y-3570000D01*
X-4830000Y-3570000D01*
X-4830000Y-4070000D01*
G37*
G36*
X-3230000Y-3875000D02*
G01*
X-3770000Y-3875000D01*
X-3770000Y-3305000D01*
X-3230000Y-3305000D01*
X-3230000Y-3875000D01*
G37*
G36*
X24490285Y-1583060D02*
G01*
X24671397Y-1658079D01*
X24834393Y-1766990D01*
X24973010Y-1905607D01*
X25081921Y-2068603D01*
X25156940Y-2249715D01*
X25195185Y-2441983D01*
X25195185Y-2638017D01*
X25156940Y-2830285D01*
X25081921Y-3011397D01*
X24973010Y-3174393D01*
X24834393Y-3313010D01*
X24671397Y-3421921D01*
X24490285Y-3496940D01*
X24298017Y-3535185D01*
X24101983Y-3535185D01*
X23909715Y-3496940D01*
X23728603Y-3421921D01*
X23565607Y-3313010D01*
X23426990Y-3174393D01*
X23318079Y-3011397D01*
X23243060Y-2830285D01*
X23204815Y-2638017D01*
X23204815Y-2441983D01*
X23243060Y-2249715D01*
X23318079Y-2068603D01*
X23426990Y-1905607D01*
X23565607Y-1766990D01*
X23728603Y-1658079D01*
X23909715Y-1583060D01*
X24101983Y-1544815D01*
X24298017Y-1544815D01*
X24490285Y-1583060D01*
G37*
G36*
X-18697500Y-3434000D02*
G01*
X-20097500Y-3434000D01*
X-20097500Y-2834000D01*
X-18697500Y-2834000D01*
X-18697500Y-3434000D01*
G37*
G36*
X-4830000Y-3230000D02*
G01*
X-5370000Y-3230000D01*
X-5370000Y-2730000D01*
X-4830000Y-2730000D01*
X-4830000Y-3230000D01*
G37*
G36*
X-20533128Y-2533739D02*
G01*
X-20459653Y-2576160D01*
X-20399660Y-2636153D01*
X-20357239Y-2709628D01*
X-20335280Y-2791579D01*
X-20335280Y-2876421D01*
X-20357239Y-2958372D01*
X-20399660Y-3031847D01*
X-20459653Y-3091840D01*
X-20533128Y-3134261D01*
X-20615079Y-3156220D01*
X-20699921Y-3156220D01*
X-20781872Y-3134261D01*
X-20855347Y-3091840D01*
X-20915340Y-3031847D01*
X-20957761Y-2958372D01*
X-20979720Y-2876421D01*
X-20979720Y-2791579D01*
X-20957761Y-2709628D01*
X-20915340Y-2636153D01*
X-20855347Y-2576160D01*
X-20781872Y-2533739D01*
X-20699921Y-2511780D01*
X-20615079Y-2511780D01*
X-20533128Y-2533739D01*
G37*
G36*
X9375000Y-2700000D02*
G01*
X9125000Y-2700000D01*
X9125000Y-2100000D01*
X9375000Y-2100000D01*
X9375000Y-2700000D01*
G37*
G36*
X9875000Y-2700000D02*
G01*
X9625000Y-2700000D01*
X9625000Y-2100000D01*
X9875000Y-2100000D01*
X9875000Y-2700000D01*
G37*
G36*
X10375000Y-2700000D02*
G01*
X10125000Y-2700000D01*
X10125000Y-2100000D01*
X10375000Y-2100000D01*
X10375000Y-2700000D01*
G37*
G36*
X10875000Y-2700000D02*
G01*
X10625000Y-2700000D01*
X10625000Y-2100000D01*
X10875000Y-2100000D01*
X10875000Y-2700000D01*
G37*
G36*
X11375000Y-2700000D02*
G01*
X11125000Y-2700000D01*
X11125000Y-2100000D01*
X11375000Y-2100000D01*
X11375000Y-2700000D01*
G37*
G36*
X11875000Y-2700000D02*
G01*
X11625000Y-2700000D01*
X11625000Y-2100000D01*
X11875000Y-2100000D01*
X11875000Y-2700000D01*
G37*
G36*
X12375000Y-2700000D02*
G01*
X12125000Y-2700000D01*
X12125000Y-2100000D01*
X12375000Y-2100000D01*
X12375000Y-2700000D01*
G37*
G36*
X12875000Y-2700000D02*
G01*
X12625000Y-2700000D01*
X12625000Y-2100000D01*
X12875000Y-2100000D01*
X12875000Y-2700000D01*
G37*
G36*
X13375000Y-2700000D02*
G01*
X13125000Y-2700000D01*
X13125000Y-2100000D01*
X13375000Y-2100000D01*
X13375000Y-2700000D01*
G37*
G36*
X13875000Y-2700000D02*
G01*
X13625000Y-2700000D01*
X13625000Y-2100000D01*
X13875000Y-2100000D01*
X13875000Y-2700000D01*
G37*
G36*
X14375000Y-2700000D02*
G01*
X14125000Y-2700000D01*
X14125000Y-2100000D01*
X14375000Y-2100000D01*
X14375000Y-2700000D01*
G37*
G36*
X14875000Y-2700000D02*
G01*
X14625000Y-2700000D01*
X14625000Y-2100000D01*
X14875000Y-2100000D01*
X14875000Y-2700000D01*
G37*
G36*
X-18697500Y-2634000D02*
G01*
X-20097500Y-2634000D01*
X-20097500Y-2034000D01*
X-18697500Y-2034000D01*
X-18697500Y-2634000D01*
G37*
G36*
X-15511600Y-2302000D02*
G01*
X-16011600Y-2302000D01*
X-16011600Y-1762000D01*
X-15511600Y-1762000D01*
X-15511600Y-2302000D01*
G37*
G36*
X-14671600Y-2302000D02*
G01*
X-15171600Y-2302000D01*
X-15171600Y-1762000D01*
X-14671600Y-1762000D01*
X-14671600Y-2302000D01*
G37*
G36*
X8900000Y-1875000D02*
G01*
X8300000Y-1875000D01*
X8300000Y-1625000D01*
X8900000Y-1625000D01*
X8900000Y-1875000D01*
G37*
G36*
X15700000Y-1875000D02*
G01*
X15100000Y-1875000D01*
X15100000Y-1625000D01*
X15700000Y-1625000D01*
X15700000Y-1875000D01*
G37*
G36*
X14850000Y-1850000D02*
G01*
X9150000Y-1850000D01*
X9150000Y1850000D01*
X14850000Y1850000D01*
X14850000Y-1850000D01*
G37*
G36*
X-18747500Y-1834000D02*
G01*
X-20047500Y-1834000D01*
X-20047500Y-1534000D01*
X-18747500Y-1534000D01*
X-18747500Y-1834000D01*
G37*
G36*
X8899999Y-1375000D02*
G01*
X8299999Y-1375000D01*
X8299999Y-1125000D01*
X8899999Y-1125000D01*
X8899999Y-1375000D01*
G37*
G36*
X15700001Y-1375000D02*
G01*
X15100001Y-1375000D01*
X15100001Y-1125000D01*
X15700001Y-1125000D01*
X15700001Y-1375000D01*
G37*
G36*
X-18747500Y-1334000D02*
G01*
X-20047500Y-1334000D01*
X-20047500Y-1034000D01*
X-18747500Y-1034000D01*
X-18747500Y-1334000D01*
G37*
G36*
X-15385000Y-1032000D02*
G01*
X-15955000Y-1032000D01*
X-15955000Y-492000D01*
X-15385000Y-492000D01*
X-15385000Y-1032000D01*
G37*
G36*
X-14525000Y-1032000D02*
G01*
X-15095000Y-1032000D01*
X-15095000Y-492000D01*
X-14525000Y-492000D01*
X-14525000Y-1032000D01*
G37*
G36*
X24490285Y956940D02*
G01*
X24671397Y881921D01*
X24834393Y773010D01*
X24973010Y634393D01*
X25081921Y471397D01*
X25156940Y290285D01*
X25195185Y98017D01*
X25195185Y-98017D01*
X25156940Y-290285D01*
X25081921Y-471397D01*
X24973010Y-634393D01*
X24834393Y-773010D01*
X24671397Y-881921D01*
X24490285Y-956940D01*
X24298017Y-995185D01*
X24101983Y-995185D01*
X23909715Y-956940D01*
X23728603Y-881921D01*
X23565607Y-773010D01*
X23426990Y-634393D01*
X23318079Y-471397D01*
X23243060Y-290285D01*
X23204815Y-98017D01*
X23204815Y98017D01*
X23243060Y290285D01*
X23318079Y471397D01*
X23426990Y634393D01*
X23565607Y773010D01*
X23728603Y881921D01*
X23909715Y956940D01*
X24101983Y995185D01*
X24298017Y995185D01*
X24490285Y956940D01*
G37*
G36*
X8900000Y-875000D02*
G01*
X8300000Y-875000D01*
X8300000Y-625000D01*
X8900000Y-625000D01*
X8900000Y-875000D01*
G37*
G36*
X15700000Y-875000D02*
G01*
X15100000Y-875000D01*
X15100000Y-625000D01*
X15700000Y-625000D01*
X15700000Y-875000D01*
G37*
G36*
X-18747500Y-834000D02*
G01*
X-20047500Y-834000D01*
X-20047500Y-534000D01*
X-18747500Y-534000D01*
X-18747500Y-834000D01*
G37*
G36*
X8900000Y-375000D02*
G01*
X8300000Y-375000D01*
X8300000Y-125000D01*
X8900000Y-125000D01*
X8900000Y-375000D01*
G37*
G36*
X15700000Y-375000D02*
G01*
X15100000Y-375000D01*
X15100000Y-125000D01*
X15700000Y-125000D01*
X15700000Y-375000D01*
G37*
G36*
X-18747500Y-334000D02*
G01*
X-20047500Y-334000D01*
X-20047500Y-34000D01*
X-18747500Y-34000D01*
X-18747500Y-334000D01*
G37*
G36*
X8900000Y125000D02*
G01*
X8300000Y125000D01*
X8300000Y375000D01*
X8900000Y375000D01*
X8900000Y125000D01*
G37*
G36*
X15700000Y125000D02*
G01*
X15100000Y125000D01*
X15100000Y375000D01*
X15700000Y375000D01*
X15700000Y125000D01*
G37*
G36*
X-18747500Y166000D02*
G01*
X-20047500Y166000D01*
X-20047500Y466000D01*
X-18747500Y466000D01*
X-18747500Y166000D01*
G37*
G36*
X6061200Y537400D02*
G01*
X5521200Y537400D01*
X5521200Y1037400D01*
X6061200Y1037400D01*
X6061200Y537400D01*
G37*
G36*
X8900000Y625000D02*
G01*
X8300000Y625000D01*
X8300000Y875000D01*
X8900000Y875000D01*
X8900000Y625000D01*
G37*
G36*
X15700000Y625000D02*
G01*
X15100000Y625000D01*
X15100000Y875000D01*
X15700000Y875000D01*
X15700000Y625000D01*
G37*
G36*
X-18747500Y666000D02*
G01*
X-20047500Y666000D01*
X-20047500Y966000D01*
X-18747500Y966000D01*
X-18747500Y666000D01*
G37*
G36*
X8899999Y1125000D02*
G01*
X8299999Y1125000D01*
X8299999Y1375000D01*
X8899999Y1375000D01*
X8899999Y1125000D01*
G37*
G36*
X15700001Y1125000D02*
G01*
X15100001Y1125000D01*
X15100001Y1375000D01*
X15700001Y1375000D01*
X15700001Y1125000D01*
G37*
G36*
X-18747500Y1166000D02*
G01*
X-20047500Y1166000D01*
X-20047500Y1466000D01*
X-18747500Y1466000D01*
X-18747500Y1166000D01*
G37*
G36*
X6061200Y1377400D02*
G01*
X5521200Y1377400D01*
X5521200Y1877400D01*
X6061200Y1877400D01*
X6061200Y1377400D01*
G37*
G36*
X-15385000Y1508000D02*
G01*
X-15955000Y1508000D01*
X-15955000Y2048000D01*
X-15385000Y2048000D01*
X-15385000Y1508000D01*
G37*
G36*
X-14525000Y1508000D02*
G01*
X-15095000Y1508000D01*
X-15095000Y2048000D01*
X-14525000Y2048000D01*
X-14525000Y1508000D01*
G37*
G36*
X24490285Y3496940D02*
G01*
X24671397Y3421921D01*
X24834393Y3313010D01*
X24973010Y3174393D01*
X25081921Y3011397D01*
X25156940Y2830285D01*
X25195185Y2638017D01*
X25195185Y2441983D01*
X25156940Y2249715D01*
X25081921Y2068603D01*
X24973010Y1905607D01*
X24834393Y1766990D01*
X24671397Y1658079D01*
X24490285Y1583060D01*
X24298017Y1544815D01*
X24101983Y1544815D01*
X23909715Y1583060D01*
X23728603Y1658079D01*
X23565607Y1766990D01*
X23426990Y1905607D01*
X23318079Y2068603D01*
X23243060Y2249715D01*
X23204815Y2441983D01*
X23204815Y2638017D01*
X23243060Y2830285D01*
X23318079Y3011397D01*
X23426990Y3174393D01*
X23565607Y3313010D01*
X23728603Y3421921D01*
X23909715Y3496940D01*
X24101983Y3535185D01*
X24298017Y3535185D01*
X24490285Y3496940D01*
G37*
G36*
X8900000Y1625000D02*
G01*
X8300000Y1625000D01*
X8300000Y1875000D01*
X8900000Y1875000D01*
X8900000Y1625000D01*
G37*
G36*
X15700000Y1625000D02*
G01*
X15100000Y1625000D01*
X15100000Y1875000D01*
X15700000Y1875000D01*
X15700000Y1625000D01*
G37*
G36*
X-18747500Y1666000D02*
G01*
X-20047500Y1666000D01*
X-20047500Y1966000D01*
X-18747500Y1966000D01*
X-18747500Y1666000D01*
G37*
G36*
X9375000Y2100000D02*
G01*
X9125000Y2100000D01*
X9125000Y2700000D01*
X9375000Y2700000D01*
X9375000Y2100000D01*
G37*
G36*
X9875000Y2100000D02*
G01*
X9625000Y2100000D01*
X9625000Y2700000D01*
X9875000Y2700000D01*
X9875000Y2100000D01*
G37*
G36*
X10375000Y2100000D02*
G01*
X10125000Y2100000D01*
X10125000Y2700000D01*
X10375000Y2700000D01*
X10375000Y2100000D01*
G37*
G36*
X10875000Y2100000D02*
G01*
X10625000Y2100000D01*
X10625000Y2700000D01*
X10875000Y2700000D01*
X10875000Y2100000D01*
G37*
G36*
X11375000Y2100000D02*
G01*
X11125000Y2100000D01*
X11125000Y2700000D01*
X11375000Y2700000D01*
X11375000Y2100000D01*
G37*
G36*
X11875000Y2100000D02*
G01*
X11625000Y2100000D01*
X11625000Y2700000D01*
X11875000Y2700000D01*
X11875000Y2100000D01*
G37*
G36*
X12375000Y2100000D02*
G01*
X12125000Y2100000D01*
X12125000Y2700000D01*
X12375000Y2700000D01*
X12375000Y2100000D01*
G37*
G36*
X12875000Y2100000D02*
G01*
X12625000Y2100000D01*
X12625000Y2700000D01*
X12875000Y2700000D01*
X12875000Y2100000D01*
G37*
G36*
X13375000Y2100000D02*
G01*
X13125000Y2100000D01*
X13125000Y2700000D01*
X13375000Y2700000D01*
X13375000Y2100000D01*
G37*
G36*
X13875000Y2100000D02*
G01*
X13625000Y2100000D01*
X13625000Y2700000D01*
X13875000Y2700000D01*
X13875000Y2100000D01*
G37*
G36*
X14375000Y2100000D02*
G01*
X14125000Y2100000D01*
X14125000Y2700000D01*
X14375000Y2700000D01*
X14375000Y2100000D01*
G37*
G36*
X14875000Y2100000D02*
G01*
X14625000Y2100000D01*
X14625000Y2700000D01*
X14875000Y2700000D01*
X14875000Y2100000D01*
G37*
G36*
X-18697500Y2166000D02*
G01*
X-20097500Y2166000D01*
X-20097500Y2766000D01*
X-18697500Y2766000D01*
X-18697500Y2166000D01*
G37*
G36*
X-20533128Y3266261D02*
G01*
X-20459653Y3223840D01*
X-20399660Y3163847D01*
X-20357239Y3090372D01*
X-20335280Y3008421D01*
X-20335280Y2923579D01*
X-20357239Y2841628D01*
X-20399660Y2768153D01*
X-20459653Y2708160D01*
X-20533128Y2665739D01*
X-20615079Y2643780D01*
X-20699921Y2643780D01*
X-20781872Y2665739D01*
X-20855347Y2708160D01*
X-20915340Y2768153D01*
X-20957761Y2841628D01*
X-20979720Y2923579D01*
X-20979720Y3008421D01*
X-20957761Y3090372D01*
X-20915340Y3163847D01*
X-20855347Y3223840D01*
X-20781872Y3266261D01*
X-20699921Y3288220D01*
X-20615079Y3288220D01*
X-20533128Y3266261D01*
G37*
G36*
X-18697500Y2966000D02*
G01*
X-20097500Y2966000D01*
X-20097500Y3566000D01*
X-18697500Y3566000D01*
X-18697500Y2966000D01*
G37*
G36*
X-24035663Y4995880D02*
G01*
X-23979321Y4993113D01*
X-23972377Y4991732D01*
X-23959184Y4990867D01*
X-23933696Y4984038D01*
X-23863367Y4970048D01*
X-23830176Y4956300D01*
X-23807890Y4950328D01*
X-23787909Y4938792D01*
X-23754717Y4925043D01*
X-23695103Y4885210D01*
X-23672243Y4872012D01*
X-23665986Y4865755D01*
X-23656945Y4859714D01*
X-23573787Y4776556D01*
X-23567747Y4767516D01*
X-23561488Y4761257D01*
X-23548288Y4738394D01*
X-23508458Y4678784D01*
X-23494711Y4645596D01*
X-23483172Y4625610D01*
X-23477200Y4603321D01*
X-23463453Y4570134D01*
X-23449466Y4499815D01*
X-23442633Y4474316D01*
X-23442633Y4465467D01*
X-23440511Y4454799D01*
X-23440511Y4337202D01*
X-23442633Y4326535D01*
X-23442633Y4317684D01*
X-23449467Y4292183D01*
X-23463453Y4221867D01*
X-23477199Y4188682D01*
X-23483172Y4166390D01*
X-23494713Y4146402D01*
X-23508458Y4113217D01*
X-23548284Y4053614D01*
X-23561488Y4030743D01*
X-23567749Y4024483D01*
X-23573787Y4015445D01*
X-23656945Y3932287D01*
X-23665983Y3926249D01*
X-23672243Y3919988D01*
X-23695114Y3906784D01*
X-23754717Y3866958D01*
X-23787902Y3853213D01*
X-23807890Y3841672D01*
X-23830182Y3835699D01*
X-23863367Y3821953D01*
X-23933682Y3807967D01*
X-23959184Y3801133D01*
X-23972385Y3800268D01*
X-23979321Y3798888D01*
X-24035661Y3796121D01*
X-24037500Y3796000D01*
X-24038115Y3796000D01*
X-24636885Y3796000D01*
X-24637500Y3796000D01*
X-24639340Y3796121D01*
X-24695680Y3798888D01*
X-24702618Y3800268D01*
X-24715816Y3801133D01*
X-24741317Y3807966D01*
X-24811634Y3821953D01*
X-24844821Y3835700D01*
X-24867110Y3841672D01*
X-24887096Y3853211D01*
X-24920284Y3866958D01*
X-24979894Y3906788D01*
X-25002757Y3919988D01*
X-25009016Y3926247D01*
X-25018056Y3932287D01*
X-25101214Y4015445D01*
X-25107255Y4024486D01*
X-25113512Y4030743D01*
X-25126710Y4053603D01*
X-25166543Y4113217D01*
X-25180292Y4146409D01*
X-25191828Y4166390D01*
X-25197800Y4188676D01*
X-25211548Y4221867D01*
X-25225536Y4292188D01*
X-25232367Y4317684D01*
X-25232367Y4326534D01*
X-25234489Y4337202D01*
X-25234489Y4454799D01*
X-25232367Y4465468D01*
X-25232367Y4474316D01*
X-25225537Y4499810D01*
X-25211548Y4570134D01*
X-25197799Y4603328D01*
X-25191828Y4625610D01*
X-25180293Y4645590D01*
X-25166543Y4678784D01*
X-25126706Y4738405D01*
X-25113512Y4761257D01*
X-25107257Y4767513D01*
X-25101214Y4776556D01*
X-25018056Y4859714D01*
X-25009013Y4865757D01*
X-25002757Y4872012D01*
X-24979905Y4885206D01*
X-24920284Y4925043D01*
X-24887090Y4938793D01*
X-24867110Y4950328D01*
X-24844828Y4956299D01*
X-24811634Y4970048D01*
X-24741302Y4984039D01*
X-24715816Y4990867D01*
X-24702625Y4991732D01*
X-24695680Y4993113D01*
X-24639337Y4995880D01*
X-24637500Y4996000D01*
X-24037500Y4996000D01*
X-24035663Y4995880D01*
G37*
G36*
X-19755663Y4995880D02*
G01*
X-19699321Y4993113D01*
X-19692377Y4991732D01*
X-19679184Y4990867D01*
X-19653696Y4984038D01*
X-19583367Y4970048D01*
X-19550176Y4956300D01*
X-19527890Y4950328D01*
X-19507909Y4938792D01*
X-19474717Y4925043D01*
X-19415103Y4885210D01*
X-19392243Y4872012D01*
X-19385986Y4865755D01*
X-19376945Y4859714D01*
X-19293787Y4776556D01*
X-19287747Y4767516D01*
X-19281488Y4761257D01*
X-19268288Y4738394D01*
X-19228458Y4678784D01*
X-19214711Y4645596D01*
X-19203172Y4625610D01*
X-19197200Y4603321D01*
X-19183453Y4570134D01*
X-19169466Y4499815D01*
X-19162633Y4474316D01*
X-19162633Y4465467D01*
X-19160511Y4454799D01*
X-19160511Y4337202D01*
X-19162633Y4326535D01*
X-19162633Y4317684D01*
X-19169467Y4292183D01*
X-19183453Y4221867D01*
X-19197199Y4188682D01*
X-19203172Y4166390D01*
X-19214713Y4146402D01*
X-19228458Y4113217D01*
X-19268284Y4053614D01*
X-19281488Y4030743D01*
X-19287749Y4024483D01*
X-19293787Y4015445D01*
X-19376945Y3932287D01*
X-19385983Y3926249D01*
X-19392243Y3919988D01*
X-19415114Y3906784D01*
X-19474717Y3866958D01*
X-19507902Y3853213D01*
X-19527890Y3841672D01*
X-19550182Y3835699D01*
X-19583367Y3821953D01*
X-19653682Y3807967D01*
X-19679184Y3801133D01*
X-19692385Y3800268D01*
X-19699321Y3798888D01*
X-19755661Y3796121D01*
X-19757500Y3796000D01*
X-19758115Y3796000D01*
X-20556885Y3796000D01*
X-20557500Y3796000D01*
X-20559340Y3796121D01*
X-20615680Y3798888D01*
X-20622618Y3800268D01*
X-20635816Y3801133D01*
X-20661317Y3807966D01*
X-20731634Y3821953D01*
X-20764821Y3835700D01*
X-20787110Y3841672D01*
X-20807096Y3853211D01*
X-20840284Y3866958D01*
X-20899894Y3906788D01*
X-20922757Y3919988D01*
X-20929016Y3926247D01*
X-20938056Y3932287D01*
X-21021214Y4015445D01*
X-21027255Y4024486D01*
X-21033512Y4030743D01*
X-21046710Y4053603D01*
X-21086543Y4113217D01*
X-21100292Y4146409D01*
X-21111828Y4166390D01*
X-21117800Y4188676D01*
X-21131548Y4221867D01*
X-21145536Y4292188D01*
X-21152367Y4317684D01*
X-21152367Y4326534D01*
X-21154489Y4337202D01*
X-21154489Y4454799D01*
X-21152367Y4465468D01*
X-21152367Y4474316D01*
X-21145537Y4499810D01*
X-21131548Y4570134D01*
X-21117799Y4603328D01*
X-21111828Y4625610D01*
X-21100293Y4645590D01*
X-21086543Y4678784D01*
X-21046706Y4738405D01*
X-21033512Y4761257D01*
X-21027257Y4767513D01*
X-21021214Y4776556D01*
X-20938056Y4859714D01*
X-20929013Y4865757D01*
X-20922757Y4872012D01*
X-20899905Y4885206D01*
X-20840284Y4925043D01*
X-20807090Y4938793D01*
X-20787110Y4950328D01*
X-20764828Y4956299D01*
X-20731634Y4970048D01*
X-20661302Y4984039D01*
X-20635816Y4990867D01*
X-20622625Y4991732D01*
X-20615680Y4993113D01*
X-20559337Y4995880D01*
X-20557500Y4996000D01*
X-19757500Y4996000D01*
X-19755663Y4995880D01*
G37*
G36*
X13571000Y4937000D02*
G01*
X13001000Y4937000D01*
X13001000Y5477000D01*
X13571000Y5477000D01*
X13571000Y4937000D01*
G37*
G36*
X14431000Y4937000D02*
G01*
X13861000Y4937000D01*
X13861000Y5477000D01*
X14431000Y5477000D01*
X14431000Y4937000D01*
G37*
G36*
X15959000Y4937000D02*
G01*
X15459000Y4937000D01*
X15459000Y5477000D01*
X15959000Y5477000D01*
X15959000Y4937000D01*
G37*
G36*
X16799000Y4937000D02*
G01*
X16299000Y4937000D01*
X16299000Y5477000D01*
X16799000Y5477000D01*
X16799000Y4937000D01*
G37*
G36*
X970000Y5130000D02*
G01*
X430000Y5130000D01*
X430000Y5630000D01*
X970000Y5630000D01*
X970000Y5130000D01*
G37*
G36*
X970000Y5970000D02*
G01*
X430000Y5970000D01*
X430000Y6470000D01*
X970000Y6470000D01*
X970000Y5970000D01*
G37*
G36*
X16286200Y6204800D02*
G01*
X15486200Y6204800D01*
X15486200Y7104800D01*
X16286200Y7104800D01*
X16286200Y6204800D01*
G37*
G36*
X17686200Y6204800D02*
G01*
X16886200Y6204800D01*
X16886200Y7104800D01*
X17686200Y7104800D01*
X17686200Y6204800D01*
G37*
G36*
X-23876200Y7125600D02*
G01*
X-25126200Y7125600D01*
X-25126200Y8825600D01*
X-23876200Y8825600D01*
X-23876200Y7125600D01*
G37*
G36*
X-19476200Y7125600D02*
G01*
X-20726200Y7125600D01*
X-20726200Y8825600D01*
X-19476200Y8825600D01*
X-19476200Y7125600D01*
G37*
G36*
X21078400Y9089800D02*
G01*
X20278400Y9089800D01*
X20278400Y9889800D01*
X21078400Y9889800D01*
X21078400Y9089800D01*
G37*
G36*
X24528400Y9139800D02*
G01*
X23628400Y9139800D01*
X23628400Y9939800D01*
X24528400Y9939800D01*
X24528400Y9139800D01*
G37*
G36*
X26433400Y9139800D02*
G01*
X25533400Y9139800D01*
X25533400Y9939800D01*
X26433400Y9939800D01*
X26433400Y9139800D01*
G37*
G36*
X-13570000Y9460000D02*
G01*
X-14110000Y9460000D01*
X-14110000Y9960000D01*
X-13570000Y9960000D01*
X-13570000Y9460000D01*
G37*
G36*
X-11920000Y9460000D02*
G01*
X-12460000Y9460000D01*
X-12460000Y9960000D01*
X-11920000Y9960000D01*
X-11920000Y9460000D01*
G37*
G36*
X-10320000Y9460000D02*
G01*
X-10860000Y9460000D01*
X-10860000Y9960000D01*
X-10320000Y9960000D01*
X-10320000Y9460000D01*
G37*
G36*
X22748400Y9924800D02*
G01*
X22208400Y9924800D01*
X22208400Y10494800D01*
X22748400Y10494800D01*
X22748400Y9924800D01*
G37*
G36*
X13154000Y10049800D02*
G01*
X12344000Y10049800D01*
X12344000Y10909800D01*
X13154000Y10909800D01*
X13154000Y10049800D01*
G37*
G36*
X14654000Y10049800D02*
G01*
X13844000Y10049800D01*
X13844000Y10909800D01*
X14654000Y10909800D01*
X14654000Y10049800D01*
G37*
G36*
X-13570000Y10300000D02*
G01*
X-14110000Y10300000D01*
X-14110000Y10800000D01*
X-13570000Y10800000D01*
X-13570000Y10300000D01*
G37*
G36*
X-11920000Y10300000D02*
G01*
X-12460000Y10300000D01*
X-12460000Y10800000D01*
X-11920000Y10800000D01*
X-11920000Y10300000D01*
G37*
G36*
X-10320000Y10300000D02*
G01*
X-10860000Y10300000D01*
X-10860000Y10800000D01*
X-10320000Y10800000D01*
X-10320000Y10300000D01*
G37*
G36*
X24528400Y10539800D02*
G01*
X23628400Y10539800D01*
X23628400Y11339800D01*
X24528400Y11339800D01*
X24528400Y10539800D01*
G37*
G36*
X26433400Y10539800D02*
G01*
X25533400Y10539800D01*
X25533400Y11339800D01*
X26433400Y11339800D01*
X26433400Y10539800D01*
G37*
G36*
X21078400Y10589800D02*
G01*
X20278400Y10589800D01*
X20278400Y11389800D01*
X21078400Y11389800D01*
X21078400Y10589800D01*
G37*
G36*
X17126400Y10777800D02*
G01*
X16626400Y10777800D01*
X16626400Y11317800D01*
X17126400Y11317800D01*
X17126400Y10777800D01*
G37*
G36*
X17966400Y10777800D02*
G01*
X17466400Y10777800D01*
X17466400Y11317800D01*
X17966400Y11317800D01*
X17966400Y10777800D01*
G37*
G36*
X22748400Y10784800D02*
G01*
X22208400Y10784800D01*
X22208400Y11354800D01*
X22748400Y11354800D01*
X22748400Y10784800D01*
G37*
G36*
X13129000Y11924800D02*
G01*
X12269000Y11924800D01*
X12269000Y12734800D01*
X13129000Y12734800D01*
X13129000Y11924800D01*
G37*
G36*
X14929000Y11924800D02*
G01*
X14069000Y11924800D01*
X14069000Y12734800D01*
X14929000Y12734800D01*
X14929000Y11924800D01*
G37*
G36*
X-5750000Y12070000D02*
G01*
X-6150000Y12070000D01*
X-6150000Y12870000D01*
X-5750000Y12870000D01*
X-5750000Y12070000D01*
G37*
G36*
X-4900000Y12070000D02*
G01*
X-5300000Y12070000D01*
X-5300000Y12870000D01*
X-4900000Y12870000D01*
X-4900000Y12070000D01*
G37*
G36*
X-4050000Y12070000D02*
G01*
X-4450000Y12070000D01*
X-4450000Y12870000D01*
X-4050000Y12870000D01*
X-4050000Y12070000D01*
G37*
G36*
X-3200000Y12070000D02*
G01*
X-3600000Y12070000D01*
X-3600000Y12870000D01*
X-3200000Y12870000D01*
X-3200000Y12070000D01*
G37*
G36*
X-2350000Y12070000D02*
G01*
X-2750000Y12070000D01*
X-2750000Y12870000D01*
X-2350000Y12870000D01*
X-2350000Y12070000D01*
G37*
G36*
X-1500000Y12070000D02*
G01*
X-1900000Y12070000D01*
X-1900000Y12870000D01*
X-1500000Y12870000D01*
X-1500000Y12070000D01*
G37*
G36*
X-650000Y12070000D02*
G01*
X-1050000Y12070000D01*
X-1050000Y12870000D01*
X-650000Y12870000D01*
X-650000Y12070000D01*
G37*
G36*
X200000Y12070000D02*
G01*
X-200000Y12070000D01*
X-200000Y12870000D01*
X200000Y12870000D01*
X200000Y12070000D01*
G37*
G36*
X1050000Y12070000D02*
G01*
X650000Y12070000D01*
X650000Y12870000D01*
X1050000Y12870000D01*
X1050000Y12070000D01*
G37*
G36*
X1900000Y12070000D02*
G01*
X1500000Y12070000D01*
X1500000Y12870000D01*
X1900000Y12870000D01*
X1900000Y12070000D01*
G37*
G36*
X2750000Y12070000D02*
G01*
X2350000Y12070000D01*
X2350000Y12870000D01*
X2750000Y12870000D01*
X2750000Y12070000D01*
G37*
G36*
X3600000Y12070000D02*
G01*
X3200000Y12070000D01*
X3200000Y12870000D01*
X3600000Y12870000D01*
X3600000Y12070000D01*
G37*
G36*
X4450000Y12070000D02*
G01*
X4050000Y12070000D01*
X4050000Y12870000D01*
X4450000Y12870000D01*
X4450000Y12070000D01*
G37*
G36*
X5300000Y12070000D02*
G01*
X4900000Y12070000D01*
X4900000Y12870000D01*
X5300000Y12870000D01*
X5300000Y12070000D01*
G37*
G36*
X6150000Y12070000D02*
G01*
X5750000Y12070000D01*
X5750000Y12870000D01*
X6150000Y12870000D01*
X6150000Y12070000D01*
G37*
G36*
X-6600000Y12100000D02*
G01*
X-7400000Y12100000D01*
X-7400000Y12900000D01*
X-6600000Y12900000D01*
X-6600000Y12100000D01*
G37*
G36*
X7400000Y12100000D02*
G01*
X6600000Y12100000D01*
X6600000Y12900000D01*
X7400000Y12900000D01*
X7400000Y12100000D01*
G37*
G36*
X17063400Y12424800D02*
G01*
X15993400Y12424800D01*
X15993400Y12954800D01*
X17063400Y12954800D01*
X17063400Y12424800D01*
G37*
G36*
X19363400Y12424800D02*
G01*
X18293400Y12424800D01*
X18293400Y12954800D01*
X19363400Y12954800D01*
X19363400Y12424800D01*
G37*
G36*
X-14570000Y12466667D02*
G01*
X-15370000Y12466667D01*
X-15370000Y13366667D01*
X-14570000Y13366667D01*
X-14570000Y12466667D01*
G37*
G36*
X-13170000Y12466667D02*
G01*
X-13970000Y12466667D01*
X-13970000Y13366667D01*
X-13170000Y13366667D01*
X-13170000Y12466667D01*
G37*
G36*
X-10415000Y12680000D02*
G01*
X-10985000Y12680000D01*
X-10985000Y13220000D01*
X-10415000Y13220000D01*
X-10415000Y12680000D01*
G37*
G36*
X-9555000Y12680000D02*
G01*
X-10125000Y12680000D01*
X-10125000Y13220000D01*
X-9555000Y13220000D01*
X-9555000Y12680000D01*
G37*
G36*
X22742400Y12745800D02*
G01*
X21542400Y12745800D01*
X21542400Y15445800D01*
X22742400Y15445800D01*
X22742400Y12745800D01*
G37*
G36*
X25242400Y12745800D02*
G01*
X24042400Y12745800D01*
X24042400Y15445800D01*
X25242400Y15445800D01*
X25242400Y12745800D01*
G37*
G36*
X-6580000Y13350000D02*
G01*
X-7380000Y13350000D01*
X-7380000Y13750000D01*
X-6580000Y13750000D01*
X-6580000Y13350000D01*
G37*
G36*
X7380000Y13350000D02*
G01*
X6580000Y13350000D01*
X6580000Y13750000D01*
X7380000Y13750000D01*
X7380000Y13350000D01*
G37*
G36*
X17063400Y13374800D02*
G01*
X15993400Y13374800D01*
X15993400Y13904800D01*
X17063400Y13904800D01*
X17063400Y13374800D01*
G37*
G36*
X19363400Y13374800D02*
G01*
X18293400Y13374800D01*
X18293400Y13904800D01*
X19363400Y13904800D01*
X19363400Y13374800D01*
G37*
G36*
X13129000Y13424800D02*
G01*
X12269000Y13424800D01*
X12269000Y14234800D01*
X13129000Y14234800D01*
X13129000Y13424800D01*
G37*
G36*
X14929000Y13424800D02*
G01*
X14069000Y13424800D01*
X14069000Y14234800D01*
X14929000Y14234800D01*
X14929000Y13424800D01*
G37*
G36*
X-10415000Y13830000D02*
G01*
X-10985000Y13830000D01*
X-10985000Y14370000D01*
X-10415000Y14370000D01*
X-10415000Y13830000D01*
G37*
G36*
X-9555000Y13830000D02*
G01*
X-10125000Y13830000D01*
X-10125000Y14370000D01*
X-9555000Y14370000D01*
X-9555000Y13830000D01*
G37*
G36*
X-6580000Y14200000D02*
G01*
X-7380000Y14200000D01*
X-7380000Y14600000D01*
X-6580000Y14600000D01*
X-6580000Y14200000D01*
G37*
G36*
X7380000Y14200000D02*
G01*
X6580000Y14200000D01*
X6580000Y14600000D01*
X7380000Y14600000D01*
X7380000Y14200000D01*
G37*
G36*
X17063400Y14324800D02*
G01*
X15993400Y14324800D01*
X15993400Y14854800D01*
X17063400Y14854800D01*
X17063400Y14324800D01*
G37*
G36*
X19363400Y14324800D02*
G01*
X18293400Y14324800D01*
X18293400Y14854800D01*
X19363400Y14854800D01*
X19363400Y14324800D01*
G37*
G36*
X-14570000Y14388334D02*
G01*
X-15370000Y14388334D01*
X-15370000Y15288334D01*
X-14570000Y15288334D01*
X-14570000Y14388334D01*
G37*
G36*
X-13170000Y14388334D02*
G01*
X-13970000Y14388334D01*
X-13970000Y15288334D01*
X-13170000Y15288334D01*
X-13170000Y14388334D01*
G37*
G36*
X-10415000Y14980000D02*
G01*
X-10985000Y14980000D01*
X-10985000Y15520000D01*
X-10415000Y15520000D01*
X-10415000Y14980000D01*
G37*
G36*
X-9555000Y14980000D02*
G01*
X-10125000Y14980000D01*
X-10125000Y15520000D01*
X-9555000Y15520000D01*
X-9555000Y14980000D01*
G37*
G36*
X-6580000Y15050000D02*
G01*
X-7380000Y15050000D01*
X-7380000Y15450000D01*
X-6580000Y15450000D01*
X-6580000Y15050000D01*
G37*
G36*
X7380000Y15050000D02*
G01*
X6580000Y15050000D01*
X6580000Y15450000D01*
X7380000Y15450000D01*
X7380000Y15050000D01*
G37*
G36*
X-6580000Y15900000D02*
G01*
X-7380000Y15900000D01*
X-7380000Y16300000D01*
X-6580000Y16300000D01*
X-6580000Y15900000D01*
G37*
G36*
X7380000Y15900000D02*
G01*
X6580000Y15900000D01*
X6580000Y16300000D01*
X7380000Y16300000D01*
X7380000Y15900000D01*
G37*
G36*
X-10416800Y16136800D02*
G01*
X-10986800Y16136800D01*
X-10986800Y16676800D01*
X-10416800Y16676800D01*
X-10416800Y16136800D01*
G37*
G36*
X-9556800Y16136800D02*
G01*
X-10126800Y16136800D01*
X-10126800Y16676800D01*
X-9556800Y16676800D01*
X-9556800Y16136800D01*
G37*
G36*
X-14570000Y16310000D02*
G01*
X-15370000Y16310000D01*
X-15370000Y17210000D01*
X-14570000Y17210000D01*
X-14570000Y16310000D01*
G37*
G36*
X-13170000Y16310000D02*
G01*
X-13970000Y16310000D01*
X-13970000Y17210000D01*
X-13170000Y17210000D01*
X-13170000Y16310000D01*
G37*
G36*
X14753400Y16334800D02*
G01*
X13403400Y16334800D01*
X13403400Y17744800D01*
X14753400Y17744800D01*
X14753400Y16334800D01*
G37*
G36*
X12697400Y16353800D02*
G01*
X12157400Y16353800D01*
X12157400Y16853800D01*
X12697400Y16853800D01*
X12697400Y16353800D01*
G37*
G36*
X-6580000Y16750000D02*
G01*
X-7380000Y16750000D01*
X-7380000Y17150000D01*
X-6580000Y17150000D01*
X-6580000Y16750000D01*
G37*
G36*
X7380000Y16750000D02*
G01*
X6580000Y16750000D01*
X6580000Y17150000D01*
X7380000Y17150000D01*
X7380000Y16750000D01*
G37*
G36*
X12697400Y17193800D02*
G01*
X12157400Y17193800D01*
X12157400Y17693800D01*
X12697400Y17693800D01*
X12697400Y17193800D01*
G37*
G36*
X-1050000Y17250000D02*
G01*
X-2250000Y17250000D01*
X-2250000Y18450000D01*
X-1050000Y18450000D01*
X-1050000Y17250000D01*
G37*
G36*
X600000Y17250000D02*
G01*
X-600000Y17250000D01*
X-600000Y18450000D01*
X600000Y18450000D01*
X600000Y17250000D01*
G37*
G36*
X2250000Y17250000D02*
G01*
X1050000Y17250000D01*
X1050000Y18450000D01*
X2250000Y18450000D01*
X2250000Y17250000D01*
G37*
G36*
X-10440400Y17305200D02*
G01*
X-11010400Y17305200D01*
X-11010400Y17845200D01*
X-10440400Y17845200D01*
X-10440400Y17305200D01*
G37*
G36*
X-9580400Y17305200D02*
G01*
X-10150400Y17305200D01*
X-10150400Y17845200D01*
X-9580400Y17845200D01*
X-9580400Y17305200D01*
G37*
G36*
X-6580000Y17600000D02*
G01*
X-7380000Y17600000D01*
X-7380000Y18000000D01*
X-6580000Y18000000D01*
X-6580000Y17600000D01*
G37*
G36*
X7380000Y17600000D02*
G01*
X6580000Y17600000D01*
X6580000Y18000000D01*
X7380000Y18000000D01*
X7380000Y17600000D01*
G37*
G36*
X16925000Y17630000D02*
G01*
X16355000Y17630000D01*
X16355000Y18170000D01*
X16925000Y18170000D01*
X16925000Y17630000D01*
G37*
G36*
X17785000Y17630000D02*
G01*
X17215000Y17630000D01*
X17215000Y18170000D01*
X17785000Y18170000D01*
X17785000Y17630000D01*
G37*
G36*
X20255000Y17630000D02*
G01*
X19685000Y17630000D01*
X19685000Y18170000D01*
X20255000Y18170000D01*
X20255000Y17630000D01*
G37*
G36*
X21115000Y17630000D02*
G01*
X20545000Y17630000D01*
X20545000Y18170000D01*
X21115000Y18170000D01*
X21115000Y17630000D01*
G37*
G36*
X-14570000Y18231667D02*
G01*
X-15370000Y18231667D01*
X-15370000Y19131667D01*
X-14570000Y19131667D01*
X-14570000Y18231667D01*
G37*
G36*
X-13170000Y18231667D02*
G01*
X-13970000Y18231667D01*
X-13970000Y19131667D01*
X-13170000Y19131667D01*
X-13170000Y18231667D01*
G37*
G36*
X14753400Y18334800D02*
G01*
X13403400Y18334800D01*
X13403400Y19744800D01*
X14753400Y19744800D01*
X14753400Y18334800D01*
G37*
G36*
X-6580000Y18450000D02*
G01*
X-7380000Y18450000D01*
X-7380000Y18850000D01*
X-6580000Y18850000D01*
X-6580000Y18450000D01*
G37*
G36*
X7380000Y18450000D02*
G01*
X6580000Y18450000D01*
X6580000Y18850000D01*
X7380000Y18850000D01*
X7380000Y18450000D01*
G37*
G36*
X-10440400Y18481000D02*
G01*
X-11010400Y18481000D01*
X-11010400Y19021000D01*
X-10440400Y19021000D01*
X-10440400Y18481000D01*
G37*
G36*
X-9580400Y18481000D02*
G01*
X-10150400Y18481000D01*
X-10150400Y19021000D01*
X-9580400Y19021000D01*
X-9580400Y18481000D01*
G37*
G36*
X-1050000Y18900000D02*
G01*
X-2250000Y18900000D01*
X-2250000Y20100000D01*
X-1050000Y20100000D01*
X-1050000Y18900000D01*
G37*
G36*
X600000Y18900000D02*
G01*
X-600000Y18900000D01*
X-600000Y20100000D01*
X600000Y20100000D01*
X600000Y18900000D01*
G37*
G36*
X2250000Y18900000D02*
G01*
X1050000Y18900000D01*
X1050000Y20100000D01*
X2250000Y20100000D01*
X2250000Y18900000D01*
G37*
G36*
X-6580000Y19300000D02*
G01*
X-7380000Y19300000D01*
X-7380000Y19700000D01*
X-6580000Y19700000D01*
X-6580000Y19300000D01*
G37*
G36*
X7380000Y19300000D02*
G01*
X6580000Y19300000D01*
X6580000Y19700000D01*
X7380000Y19700000D01*
X7380000Y19300000D01*
G37*
G36*
X-21963980Y25654787D02*
G01*
X-21614126Y25574935D01*
X-21275413Y25456415D01*
X-20952100Y25300715D01*
X-20648252Y25109795D01*
X-20367691Y24886055D01*
X-20113945Y24632309D01*
X-19890205Y24351748D01*
X-19699285Y24047900D01*
X-19543585Y23724587D01*
X-19425065Y23385874D01*
X-19345213Y23036020D01*
X-19305034Y22679425D01*
X-19305034Y22320575D01*
X-19345213Y21963980D01*
X-19425065Y21614126D01*
X-19543585Y21275413D01*
X-19699285Y20952100D01*
X-19890205Y20648252D01*
X-20113945Y20367691D01*
X-20367691Y20113945D01*
X-20648252Y19890205D01*
X-20952100Y19699285D01*
X-21275413Y19543585D01*
X-21614126Y19425065D01*
X-21963980Y19345213D01*
X-22320575Y19305034D01*
X-22679425Y19305034D01*
X-23036020Y19345213D01*
X-23385874Y19425065D01*
X-23724587Y19543585D01*
X-24047900Y19699285D01*
X-24351748Y19890205D01*
X-24632309Y20113945D01*
X-24886055Y20367691D01*
X-25109795Y20648252D01*
X-25300715Y20952100D01*
X-25456415Y21275413D01*
X-25574935Y21614126D01*
X-25654787Y21963980D01*
X-25694966Y22320575D01*
X-25694966Y22679425D01*
X-25654787Y23036020D01*
X-25574935Y23385874D01*
X-25456415Y23724587D01*
X-25300715Y24047900D01*
X-25109795Y24351748D01*
X-24886055Y24632309D01*
X-24632309Y24886055D01*
X-24351748Y25109795D01*
X-24047900Y25300715D01*
X-23724587Y25456415D01*
X-23385874Y25574935D01*
X-23036020Y25654787D01*
X-22679425Y25694966D01*
X-22320575Y25694966D01*
X-21963980Y25654787D01*
G37*
G36*
X23036020Y25654787D02*
G01*
X23385874Y25574935D01*
X23724587Y25456415D01*
X24047900Y25300715D01*
X24351748Y25109795D01*
X24632309Y24886055D01*
X24886055Y24632309D01*
X25109795Y24351748D01*
X25300715Y24047900D01*
X25456415Y23724587D01*
X25574935Y23385874D01*
X25654787Y23036020D01*
X25694966Y22679425D01*
X25694966Y22320575D01*
X25654787Y21963980D01*
X25574935Y21614126D01*
X25456415Y21275413D01*
X25300715Y20952100D01*
X25109795Y20648252D01*
X24886055Y20367691D01*
X24632309Y20113945D01*
X24351748Y19890205D01*
X24047900Y19699285D01*
X23724587Y19543585D01*
X23385874Y19425065D01*
X23036020Y19345213D01*
X22679425Y19305034D01*
X22320575Y19305034D01*
X21963980Y19345213D01*
X21614126Y19425065D01*
X21275413Y19543585D01*
X20952100Y19699285D01*
X20648252Y19890205D01*
X20367691Y20113945D01*
X20113945Y20367691D01*
X19890205Y20648252D01*
X19699285Y20952100D01*
X19543585Y21275413D01*
X19425065Y21614126D01*
X19345213Y21963980D01*
X19305034Y22320575D01*
X19305034Y22679425D01*
X19345213Y23036020D01*
X19425065Y23385874D01*
X19543585Y23724587D01*
X19699285Y24047900D01*
X19890205Y24351748D01*
X20113945Y24632309D01*
X20367691Y24886055D01*
X20648252Y25109795D01*
X20952100Y25300715D01*
X21275413Y25456415D01*
X21614126Y25574935D01*
X21963980Y25654787D01*
X22320575Y25694966D01*
X22679425Y25694966D01*
X23036020Y25654787D01*
G37*
G36*
X-10440400Y19642000D02*
G01*
X-11010400Y19642000D01*
X-11010400Y20182000D01*
X-10440400Y20182000D01*
X-10440400Y19642000D01*
G37*
G36*
X-9580400Y19642000D02*
G01*
X-10150400Y19642000D01*
X-10150400Y20182000D01*
X-9580400Y20182000D01*
X-9580400Y19642000D01*
G37*
G36*
X-14320000Y20070000D02*
G01*
X-14820000Y20070000D01*
X-14820000Y20610000D01*
X-14320000Y20610000D01*
X-14320000Y20070000D01*
G37*
G36*
X-13480000Y20070000D02*
G01*
X-13980000Y20070000D01*
X-13980000Y20610000D01*
X-13480000Y20610000D01*
X-13480000Y20070000D01*
G37*
G36*
X-6580000Y20150000D02*
G01*
X-7380000Y20150000D01*
X-7380000Y20550000D01*
X-6580000Y20550000D01*
X-6580000Y20150000D01*
G37*
G36*
X7380000Y20150000D02*
G01*
X6580000Y20150000D01*
X6580000Y20550000D01*
X7380000Y20550000D01*
X7380000Y20150000D01*
G37*
G36*
X-1050000Y20550000D02*
G01*
X-2250000Y20550000D01*
X-2250000Y21750000D01*
X-1050000Y21750000D01*
X-1050000Y20550000D01*
G37*
G36*
X600000Y20550000D02*
G01*
X-600000Y20550000D01*
X-600000Y21750000D01*
X600000Y21750000D01*
X600000Y20550000D01*
G37*
G36*
X2250000Y20550000D02*
G01*
X1050000Y20550000D01*
X1050000Y21750000D01*
X2250000Y21750000D01*
X2250000Y20550000D01*
G37*
G36*
X-6580000Y21000000D02*
G01*
X-7380000Y21000000D01*
X-7380000Y21400000D01*
X-6580000Y21400000D01*
X-6580000Y21000000D01*
G37*
G36*
X7380000Y21000000D02*
G01*
X6580000Y21000000D01*
X6580000Y21400000D01*
X7380000Y21400000D01*
X7380000Y21000000D01*
G37*
G36*
X9441600Y21048800D02*
G01*
X8541600Y21048800D01*
X8541600Y21848800D01*
X9441600Y21848800D01*
X9441600Y21048800D01*
G37*
G36*
X-13353000Y21574000D02*
G01*
X-13923000Y21574000D01*
X-13923000Y22114000D01*
X-13353000Y22114000D01*
X-13353000Y21574000D01*
G37*
G36*
X-12493000Y21574000D02*
G01*
X-13063000Y21574000D01*
X-13063000Y22114000D01*
X-12493000Y22114000D01*
X-12493000Y21574000D01*
G37*
G36*
X-17060000Y21652000D02*
G01*
X-18060000Y21652000D01*
X-18060000Y23052000D01*
X-17060000Y23052000D01*
X-17060000Y21652000D01*
G37*
G36*
X-14960000Y21652000D02*
G01*
X-15960000Y21652000D01*
X-15960000Y23052000D01*
X-14960000Y23052000D01*
X-14960000Y21652000D01*
G37*
G36*
X10938000Y21840200D02*
G01*
X10398000Y21840200D01*
X10398000Y22410200D01*
X10938000Y22410200D01*
X10938000Y21840200D01*
G37*
G36*
X-6580000Y21850000D02*
G01*
X-7380000Y21850000D01*
X-7380000Y22250000D01*
X-6580000Y22250000D01*
X-6580000Y21850000D01*
G37*
G36*
X7380000Y21850000D02*
G01*
X6580000Y21850000D01*
X6580000Y22250000D01*
X7380000Y22250000D01*
X7380000Y21850000D01*
G37*
G36*
X9441600Y22448800D02*
G01*
X8541600Y22448800D01*
X8541600Y23248800D01*
X9441600Y23248800D01*
X9441600Y22448800D01*
G37*
G36*
X-6580000Y22700000D02*
G01*
X-7380000Y22700000D01*
X-7380000Y23100000D01*
X-6580000Y23100000D01*
X-6580000Y22700000D01*
G37*
G36*
X7380000Y22700000D02*
G01*
X6580000Y22700000D01*
X6580000Y23100000D01*
X7380000Y23100000D01*
X7380000Y22700000D01*
G37*
G36*
X10938000Y22700200D02*
G01*
X10398000Y22700200D01*
X10398000Y23270200D01*
X10938000Y23270200D01*
X10938000Y22700200D01*
G37*
G36*
X12657000Y22818600D02*
G01*
X12157000Y22818600D01*
X12157000Y23358600D01*
X12657000Y23358600D01*
X12657000Y22818600D01*
G37*
G36*
X13497000Y22818600D02*
G01*
X12997000Y22818600D01*
X12997000Y23358600D01*
X13497000Y23358600D01*
X13497000Y22818600D01*
G37*
G36*
X-6580000Y23550000D02*
G01*
X-7380000Y23550000D01*
X-7380000Y23950000D01*
X-6580000Y23950000D01*
X-6580000Y23550000D01*
G37*
G36*
X7380000Y23550000D02*
G01*
X6580000Y23550000D01*
X6580000Y23950000D01*
X7380000Y23950000D01*
X7380000Y23550000D01*
G37*
G36*
X-10218000Y23792000D02*
G01*
X-11118000Y23792000D01*
X-11118000Y24592000D01*
X-10218000Y24592000D01*
X-10218000Y23792000D01*
G37*
G36*
X-8761600Y23808400D02*
G01*
X-9301600Y23808400D01*
X-9301600Y24308400D01*
X-8761600Y24308400D01*
X-8761600Y23808400D01*
G37*
G36*
X-6580000Y24400000D02*
G01*
X-7380000Y24400000D01*
X-7380000Y24800000D01*
X-6580000Y24800000D01*
X-6580000Y24400000D01*
G37*
G36*
X7380000Y24400000D02*
G01*
X6580000Y24400000D01*
X6580000Y24800000D01*
X7380000Y24800000D01*
X7380000Y24400000D01*
G37*
G36*
X-16953000Y24470000D02*
G01*
X-18183000Y24470000D01*
X-18183000Y26330000D01*
X-16953000Y26330000D01*
X-16953000Y24470000D01*
G37*
G36*
X-12593000Y24470000D02*
G01*
X-13823000Y24470000D01*
X-13823000Y26330000D01*
X-12593000Y26330000D01*
X-12593000Y24470000D01*
G37*
G36*
X13167000Y24470000D02*
G01*
X11937000Y24470000D01*
X11937000Y26330000D01*
X13167000Y26330000D01*
X13167000Y24470000D01*
G37*
G36*
X17527000Y24470000D02*
G01*
X16297000Y24470000D01*
X16297000Y26330000D01*
X17527000Y26330000D01*
X17527000Y24470000D01*
G37*
G36*
X-8761600Y24648400D02*
G01*
X-9301600Y24648400D01*
X-9301600Y25148400D01*
X-8761600Y25148400D01*
X-8761600Y24648400D01*
G37*
G36*
X-10218000Y25192000D02*
G01*
X-11118000Y25192000D01*
X-11118000Y25992000D01*
X-10218000Y25992000D01*
X-10218000Y25192000D01*
G37*
G36*
X-6580000Y25250000D02*
G01*
X-7380000Y25250000D01*
X-7380000Y25650000D01*
X-6580000Y25650000D01*
X-6580000Y25250000D01*
G37*
G36*
X7380000Y25250000D02*
G01*
X6580000Y25250000D01*
X6580000Y25650000D01*
X7380000Y25650000D01*
X7380000Y25250000D01*
G37*
G36*
X-6600000Y26100000D02*
G01*
X-7400000Y26100000D01*
X-7400000Y26900000D01*
X-6600000Y26900000D01*
X-6600000Y26100000D01*
G37*
G36*
X7400000Y26100000D02*
G01*
X6600000Y26100000D01*
X6600000Y26900000D01*
X7400000Y26900000D01*
X7400000Y26100000D01*
G37*
G36*
X-5750000Y26130000D02*
G01*
X-6150000Y26130000D01*
X-6150000Y26930000D01*
X-5750000Y26930000D01*
X-5750000Y26130000D01*
G37*
G36*
X-4900000Y26130000D02*
G01*
X-5300000Y26130000D01*
X-5300000Y26930000D01*
X-4900000Y26930000D01*
X-4900000Y26130000D01*
G37*
G36*
X-4050000Y26130000D02*
G01*
X-4450000Y26130000D01*
X-4450000Y26930000D01*
X-4050000Y26930000D01*
X-4050000Y26130000D01*
G37*
G36*
X-3200000Y26130000D02*
G01*
X-3600000Y26130000D01*
X-3600000Y26930000D01*
X-3200000Y26930000D01*
X-3200000Y26130000D01*
G37*
G36*
X-2350000Y26130000D02*
G01*
X-2750000Y26130000D01*
X-2750000Y26930000D01*
X-2350000Y26930000D01*
X-2350000Y26130000D01*
G37*
G36*
X-1500000Y26130000D02*
G01*
X-1900000Y26130000D01*
X-1900000Y26930000D01*
X-1500000Y26930000D01*
X-1500000Y26130000D01*
G37*
G36*
X-650000Y26130000D02*
G01*
X-1050000Y26130000D01*
X-1050000Y26930000D01*
X-650000Y26930000D01*
X-650000Y26130000D01*
G37*
G36*
X200000Y26130000D02*
G01*
X-200000Y26130000D01*
X-200000Y26930000D01*
X200000Y26930000D01*
X200000Y26130000D01*
G37*
G36*
X1050000Y26130000D02*
G01*
X650000Y26130000D01*
X650000Y26930000D01*
X1050000Y26930000D01*
X1050000Y26130000D01*
G37*
G36*
X1900000Y26130000D02*
G01*
X1500000Y26130000D01*
X1500000Y26930000D01*
X1900000Y26930000D01*
X1900000Y26130000D01*
G37*
G36*
X2750000Y26130000D02*
G01*
X2350000Y26130000D01*
X2350000Y26930000D01*
X2750000Y26930000D01*
X2750000Y26130000D01*
G37*
G36*
X3600000Y26130000D02*
G01*
X3200000Y26130000D01*
X3200000Y26930000D01*
X3600000Y26930000D01*
X3600000Y26130000D01*
G37*
G36*
X4450000Y26130000D02*
G01*
X4050000Y26130000D01*
X4050000Y26930000D01*
X4450000Y26930000D01*
X4450000Y26130000D01*
G37*
G36*
X5300000Y26130000D02*
G01*
X4900000Y26130000D01*
X4900000Y26930000D01*
X5300000Y26930000D01*
X5300000Y26130000D01*
G37*
G36*
X6150000Y26130000D02*
G01*
X5750000Y26130000D01*
X5750000Y26930000D01*
X6150000Y26930000D01*
X6150000Y26130000D01*
G37*
M02*
