%TF.GenerationSoftware,KiCad,Pcbnew,9.0.7*%
%TF.CreationDate,2026-05-08T08:55:40+02:00*%
%TF.ProjectId,MiniMotorkontrollerV1,4d696e69-4d6f-4746-9f72-6b6f6e74726f,rev?*%
%TF.SameCoordinates,Original*%
%TF.FileFunction,Copper,L3,Inr*%
%TF.FilePolarity,Positive*%
%FSLAX46Y46*%
G04 Gerber Fmt 4.6, Leading zero omitted, Abs format (unit mm)*
G04 Created by KiCad (PCBNEW 9.0.7) date 2026-05-08 08:55:40*
%MOMM*%
%LPD*%
G01*
G04 APERTURE LIST*
%TA.AperFunction,ComponentPad*%
%ADD10C,2.000000*%
%TD*%
%TA.AperFunction,ComponentPad*%
%ADD11O,2.000000X1.200000*%
%TD*%
%TA.AperFunction,ComponentPad*%
%ADD12O,1.800000X1.200000*%
%TD*%
%TA.AperFunction,ComponentPad*%
%ADD13C,0.800000*%
%TD*%
%TA.AperFunction,ComponentPad*%
%ADD14C,6.400000*%
%TD*%
%TA.AperFunction,ViaPad*%
%ADD15C,0.600000*%
%TD*%
%TA.AperFunction,ViaPad*%
%ADD16C,1.200000*%
%TD*%
%TA.AperFunction,Conductor*%
%ADD17C,0.300000*%
%TD*%
%TA.AperFunction,Conductor*%
%ADD18C,0.200000*%
%TD*%
G04 APERTURE END LIST*
D10*
%TO.N,Net-(J2-A)*%
%TO.C,J2*%
X24200000Y-2540000D03*
%TO.N,Net-(J2-B)*%
X24200000Y0D03*
%TO.N,Net-(J2-C)*%
X24200000Y2540000D03*
%TD*%
%TO.N,+VCC_DC*%
%TO.C,J1*%
X24250000Y-10630000D03*
%TO.N,GND*%
X24250000Y-13170000D03*
%TD*%
D11*
%TO.N,GND*%
%TO.C,USBC1*%
X-20157500Y-4264000D03*
D12*
X-24337500Y-4264000D03*
X-24337500Y4396000D03*
D11*
X-20157500Y4396000D03*
%TD*%
%TO.N,GND*%
%TO.C,USBC2*%
X-20204000Y-15264000D03*
D12*
X-24384000Y-15264000D03*
X-24384000Y-6604000D03*
D11*
X-20204000Y-6604000D03*
%TD*%
D13*
%TO.N,MOUNTING_PIN*%
%TO.C,H4*%
X-24900000Y-22500000D03*
X-24197056Y-20802944D03*
X-24197056Y-24197056D03*
X-22500000Y-20100000D03*
D14*
X-22500000Y-22500000D03*
D13*
X-22500000Y-24900000D03*
X-20802944Y-20802944D03*
X-20802944Y-24197056D03*
X-20100000Y-22500000D03*
%TD*%
%TO.N,MOUNTING_PIN*%
%TO.C,H1*%
X-24900000Y22500000D03*
X-24197056Y24197056D03*
X-24197056Y20802944D03*
X-22500000Y24900000D03*
D14*
X-22500000Y22500000D03*
D13*
X-22500000Y20100000D03*
X-20802944Y24197056D03*
X-20802944Y20802944D03*
X-20100000Y22500000D03*
%TD*%
%TO.N,MOUNTING_PIN*%
%TO.C,H3*%
X20100000Y-22500000D03*
X20802944Y-20802944D03*
X20802944Y-24197056D03*
X22500000Y-20100000D03*
D14*
X22500000Y-22500000D03*
D13*
X22500000Y-24900000D03*
X24197056Y-20802944D03*
X24197056Y-24197056D03*
X24900000Y-22500000D03*
%TD*%
%TO.N,MOUNTING_PIN*%
%TO.C,H2*%
X20100000Y22500000D03*
X20802944Y24197056D03*
X20802944Y20802944D03*
X22500000Y24900000D03*
D14*
X22500000Y22500000D03*
D13*
X22500000Y20100000D03*
X24197056Y24197056D03*
X24197056Y20802944D03*
X24900000Y22500000D03*
%TD*%
D15*
%TO.N,GND*%
X16967200Y1066800D03*
D16*
X-3149600Y19507200D03*
D15*
X19800707Y12599293D03*
X-3403600Y25603200D03*
X13131800Y-7975600D03*
X26000000Y8100000D03*
X-6000000Y-17900000D03*
X6096000Y22910800D03*
X17100000Y-15900000D03*
X17627600Y5207000D03*
X50800Y25552400D03*
X-18100000Y-7400000D03*
X18100000Y23100000D03*
X20700000Y7900000D03*
X-23750000Y5800000D03*
X-812800Y25603200D03*
X-5943600Y25552400D03*
X4400000Y-14100000D03*
X-16357600Y14833600D03*
X26600000Y-8500000D03*
X-5943600Y24638000D03*
X-9100000Y8400000D03*
X-15595600Y20320000D03*
X-1905000Y-4343400D03*
X-10566400Y8636000D03*
X-16256000Y18643600D03*
X8280400Y26670000D03*
X-13800000Y-10000000D03*
X16916400Y-1041400D03*
X22750000Y1300000D03*
X-15900000Y-14500000D03*
X-14800000Y11600000D03*
X5130800Y25603200D03*
X-21000000Y10000000D03*
X-9600000Y-20900000D03*
X-8128000Y26670000D03*
X-4267200Y25603200D03*
X-4800000Y-16100000D03*
X-2600000Y-15800000D03*
X-21000000Y18100000D03*
X100000Y-9600000D03*
X-24050000Y-16650000D03*
X3000000Y2800000D03*
X-1400000Y-20900000D03*
X18592800Y6654800D03*
X-5080000Y25603200D03*
D16*
X3149600Y19558000D03*
D15*
X-13800000Y-8350000D03*
X10617200Y-3327400D03*
D16*
X3149600Y21183600D03*
D15*
X-9100000Y10800000D03*
X4400000Y-9600000D03*
X-19944907Y6405093D03*
X8432800Y-3098800D03*
D16*
X-50800Y22504400D03*
D15*
X1727200Y25552400D03*
X24000000Y8200000D03*
X2590800Y25603200D03*
X14100000Y20600000D03*
X18897600Y-6477000D03*
X-11550000Y-19800000D03*
X-13800000Y-15400000D03*
X-7112000Y11430000D03*
X-4600000Y-18000000D03*
X-2540000Y25603200D03*
X-13850000Y-11650000D03*
X-2600000Y-14100000D03*
X-9600000Y-25800000D03*
D16*
X0Y16357600D03*
D15*
X5200000Y-2200000D03*
X20490000Y1280000D03*
X-2600000Y-17500000D03*
X-20167600Y-5435600D03*
X-18750000Y25250000D03*
X-18200000Y-14500000D03*
X4267200Y25603200D03*
X15570200Y-2717800D03*
X-16200000Y4450000D03*
D16*
X1625600Y22453600D03*
D15*
X-19700000Y-16550000D03*
X14224000Y23063200D03*
X-18750000Y24000000D03*
X11500000Y10500000D03*
X-14450000Y-23050000D03*
X-18669000Y4064000D03*
X12400000Y18700000D03*
X-9100000Y25700000D03*
D16*
X-1625600Y16357600D03*
D15*
X100000Y-14100000D03*
X18600000Y-16800000D03*
X863600Y25552400D03*
X8940800Y20193000D03*
X-15850000Y-17550000D03*
X-1676400Y25603200D03*
X-18200000Y-3800000D03*
X22650000Y-1250000D03*
X3000000Y2000000D03*
D16*
X1676400Y16306800D03*
X24800000Y-15600000D03*
X3098800Y17780000D03*
D15*
X20520000Y-1280000D03*
D16*
X-3149600Y17830800D03*
D15*
X5943600Y25603200D03*
X-7100000Y8400000D03*
X19500000Y-4700000D03*
X-16459200Y-6248400D03*
X7112000Y11430000D03*
X-16306800Y16764000D03*
X16300000Y19100000D03*
X-15500000Y9100000D03*
X26600000Y-4700000D03*
X-13716000Y-762000D03*
X-609600Y-4368800D03*
X4400000Y-5600000D03*
X-10650000Y26800000D03*
X19500000Y-8500000D03*
X5867400Y-8737600D03*
X13950000Y7250000D03*
X-13716000Y1778000D03*
X6096000Y23774400D03*
X-16357600Y12954000D03*
X-17400000Y-18350000D03*
X-13817600Y8788400D03*
X-13919200Y-2032000D03*
X-26600000Y10000000D03*
X-24333200Y-5435600D03*
X-1400000Y-25800000D03*
D16*
X-1625600Y22504400D03*
D15*
X3454400Y25603200D03*
X18440400Y25374600D03*
X-17200000Y11600000D03*
D16*
X-3149600Y21132800D03*
D15*
X-12192000Y8686800D03*
X-26600000Y18100000D03*
D16*
%TO.N,+VCC_USBCPD*%
X-17200000Y-8550000D03*
D15*
X-9709620Y-8909620D03*
X-9850000Y-12450000D03*
D16*
X-17000000Y-13584000D03*
%TO.N,+VCC_USBC*%
X-17653000Y2667000D03*
X-17145000Y-2032000D03*
%TO.N,+3V3*%
X10668000Y20828000D03*
X-11800000Y23050000D03*
D15*
X-200000Y4050000D03*
D16*
X25400000Y16900000D03*
D15*
X-8850000Y-11550000D03*
X-8250000Y22000000D03*
X6731000Y0D03*
D16*
%TO.N,+VCC*%
X14960600Y-4445000D03*
X4000000Y-7380000D03*
X20100000Y15400000D03*
X12700000Y-11350000D03*
X-26035000Y8026400D03*
X13589000Y-4419600D03*
D15*
%TO.N,ENK_Vgmr*%
X-9700000Y2807254D03*
X-2700000Y3000000D03*
%TO.N,CC1*%
X-12650000Y-17100000D03*
X-12100000Y-13650000D03*
%TO.N,PWM_LA*%
X-3400000Y11330000D03*
X11244740Y4161897D03*
%TO.N,Net-(IC1-SOC)*%
X-6807200Y7162800D03*
X6807200Y-939800D03*
%TO.N,PWM_LC*%
X-8330000Y13150000D03*
X8332510Y3252955D03*
%TO.N,Net-(IC1-SOB)*%
X6858000Y-1828800D03*
X-7354623Y6382600D03*
%TO.N,PWM_HB*%
X10650000Y3594099D03*
X-4250000Y11340000D03*
%TO.N,PWM_LB*%
X9850132Y3608754D03*
X-5100000Y11330000D03*
%TO.N,CTR_nSLEEP*%
X14046200Y3657600D03*
X8585200Y15087600D03*
%TO.N,CTR_nFAULT*%
X14909800Y3505200D03*
X8636000Y15976600D03*
%TO.N,Net-(IC1-SOA)*%
X7226255Y-2539006D03*
X-6726260Y5773554D03*
%TO.N,PWM_HC*%
X-5950000Y11340000D03*
X9050132Y3606540D03*
%TO.N,CTR_DRVOFF*%
X8686800Y16789400D03*
X15646400Y3073400D03*
%TO.N,PWM_HA*%
X12089754Y4178057D03*
X-2550000Y11350000D03*
%TO.N,MCURST*%
X-11240000Y-16340000D03*
X-11100000Y-700000D03*
%TO.N,SIN_N*%
X965200Y4343400D03*
X-8600000Y3300000D03*
%TO.N,SIN_P*%
X-7985816Y3860479D03*
X2209800Y4089400D03*
%TO.N,COS_P*%
X-7973230Y4660379D03*
X2641600Y-4191000D03*
%TO.N,COS_N*%
X1371600Y-4292600D03*
X-7264400Y5181600D03*
%TO.N,Net-(U2-FB)*%
X15300000Y15000000D03*
X18700000Y17800000D03*
%TO.N,MCUSDA*%
X-11900000Y2549600D03*
X-9300000Y-18500000D03*
%TO.N,MCUSCL*%
X-12000000Y1600000D03*
X-10300000Y-17900000D03*
%TO.N,Net-(Q1-G)*%
X-4750000Y-7650000D03*
X-3200000Y-5600000D03*
%TD*%
D17*
%TO.N,ENK_Vgmr*%
X-2700000Y3000000D02*
X-3051000Y2649000D01*
X-9541746Y2649000D02*
X-9700000Y2807254D01*
D18*
X-9700000Y2807254D02*
X-9591746Y2699000D01*
D17*
X-3051000Y2649000D02*
X-9541746Y2649000D01*
%TO.N,PWM_LA*%
X5276200Y10522600D02*
X11244740Y4554060D01*
X-3400000Y11330000D02*
X-3400000Y11274000D01*
X-3400000Y11279346D02*
X-2643254Y10522600D01*
X11244740Y4554060D02*
X11244740Y4161897D01*
X-3400000Y11330000D02*
X-3400000Y11279346D01*
X-2643254Y10522600D02*
X5276200Y10522600D01*
%TO.N,Net-(IC1-SOC)*%
X-5987400Y7982600D02*
X-6807200Y7162800D01*
X6807200Y-939800D02*
X6750146Y-939800D01*
X5862340Y5062340D02*
X2942080Y7982600D01*
X2942080Y7982600D02*
X-5987400Y7982600D01*
X6750146Y-939800D02*
X5862340Y-51994D01*
D18*
X-6807200Y7162800D02*
X-6756400Y7162800D01*
D17*
X5862340Y-51994D02*
X5862340Y5062340D01*
%TO.N,PWM_LC*%
X-8330000Y13150000D02*
X-8330000Y11727346D01*
X-8330000Y11727346D02*
X-5086254Y8483600D01*
X8332510Y3300690D02*
X8332510Y3252955D01*
X-5086254Y8483600D02*
X3149600Y8483600D01*
X3149600Y8483600D02*
X8332510Y3300690D01*
%TO.N,Net-(IC1-SOB)*%
X-6537546Y6511800D02*
X-7225423Y6511800D01*
X6858000Y-1828800D02*
X6628800Y-1828800D01*
X5200000Y-400000D02*
X5200000Y5016160D01*
X5200000Y5016160D02*
X2734560Y7481600D01*
X-7225423Y6511800D02*
X-7354623Y6382600D01*
X2734560Y7481600D02*
X-5567746Y7481600D01*
X6628800Y-1828800D02*
X5200000Y-400000D01*
X-5567746Y7481600D02*
X-6537546Y6511800D01*
D18*
X6846257Y-1828800D02*
X6858000Y-1828800D01*
D17*
%TO.N,PWM_HB*%
X-4250000Y11340000D02*
X-4250000Y11259346D01*
X10650000Y3853400D02*
X10650000Y3594099D01*
X4481800Y10021600D02*
X10650000Y3853400D01*
X-4250000Y11259346D02*
X-3012254Y10021600D01*
X-3012254Y10021600D02*
X4481800Y10021600D01*
%TO.N,PWM_LB*%
X-5100000Y11330000D02*
X-5100000Y11269346D01*
X-5100000Y11269346D02*
X-3351254Y9520600D01*
X-3351254Y9520600D02*
X4056726Y9520600D01*
X4056726Y9520600D02*
X9850132Y3727194D01*
X9850132Y3727194D02*
X9850132Y3608754D01*
%TO.N,CTR_nSLEEP*%
X8585200Y15087600D02*
X8585200Y9118600D01*
X8585200Y9118600D02*
X14046200Y3657600D01*
%TO.N,CTR_nFAULT*%
X9236200Y14750000D02*
X9086200Y14600000D01*
X9236200Y15376400D02*
X9236200Y14750000D01*
X8636000Y15976600D02*
X9236200Y15376400D01*
X9086200Y9538254D02*
X14909800Y3714654D01*
X9086200Y14600000D02*
X9086200Y9538254D01*
X14909800Y3714654D02*
X14909800Y3505200D01*
%TO.N,Net-(IC1-SOA)*%
X2527040Y6980600D02*
X-5360226Y6980600D01*
D18*
X-6726260Y5773554D02*
X-6537146Y5773554D01*
D17*
X4699000Y4808640D02*
X2527040Y6980600D01*
X-5360226Y6980600D02*
X-6567272Y5773554D01*
X-6567272Y5773554D02*
X-6726260Y5773554D01*
X7226255Y-2539006D02*
X7285461Y-2479800D01*
X4699000Y-607521D02*
X4699000Y4808640D01*
X7285461Y-2479800D02*
X6571279Y-2479800D01*
X6571279Y-2479800D02*
X4699000Y-607521D01*
%TO.N,PWM_HC*%
X-5950000Y11259346D02*
X-3707654Y9017000D01*
X-5950000Y11340000D02*
X-5950000Y11259346D01*
X-3707654Y9017000D02*
X3639672Y9017000D01*
X3639672Y9017000D02*
X9050132Y3606540D01*
%TO.N,CTR_DRVOFF*%
X9737200Y14350000D02*
X9737200Y15796054D01*
X9587200Y9812800D02*
X9587200Y14200000D01*
X9587200Y14200000D02*
X9737200Y14350000D01*
X15646400Y3073400D02*
X15646400Y3753600D01*
X15646400Y3753600D02*
X9587200Y9812800D01*
X8743854Y16789400D02*
X8686800Y16789400D01*
X9737200Y15796054D02*
X8743854Y16789400D01*
%TO.N,PWM_HA*%
X12089754Y4852046D02*
X12089754Y4178057D01*
X-2550000Y11236800D02*
X-2336800Y11023600D01*
X5918200Y11023600D02*
X12089754Y4852046D01*
X-2336800Y11023600D02*
X5918200Y11023600D01*
X-2550000Y11350000D02*
X-2550000Y11236800D01*
D18*
%TO.N,MCURST*%
X-11240000Y-16340000D02*
X-13991900Y-16340000D01*
X-12298000Y-1198000D02*
X-11800000Y-700000D01*
X-11800000Y-700000D02*
X-11100000Y-700000D01*
X-14498000Y-6432200D02*
X-12298000Y-4232200D01*
X-13991900Y-16340000D02*
X-14498000Y-15833900D01*
X-12298000Y-4232200D02*
X-12298000Y-1198000D01*
X-14498000Y-15833900D02*
X-14498000Y-6432200D01*
D17*
%TO.N,SIN_N*%
X-4384960Y4976600D02*
X-6152081Y3209479D01*
X332000Y4976600D02*
X-4384960Y4976600D01*
D18*
X965200Y4343400D02*
X1193800Y4343400D01*
D17*
X-8509479Y3209479D02*
X-8600000Y3300000D01*
X-6152081Y3209479D02*
X-8509479Y3209479D01*
X965200Y4343400D02*
X332000Y4976600D01*
D18*
X-8559479Y3259479D02*
X-8600000Y3300000D01*
D17*
%TO.N,SIN_P*%
X2209800Y4089400D02*
X2400000Y4279600D01*
X-6209601Y3860479D02*
X-7985816Y3860479D01*
X2400000Y4982080D02*
X1904480Y5477600D01*
X1904480Y5477600D02*
X-4592480Y5477600D01*
X-4592480Y5477600D02*
X-6209601Y3860479D01*
D18*
X-7944843Y3901452D02*
X-7985816Y3860479D01*
D17*
X2400000Y4279600D02*
X2400000Y4982080D01*
%TO.N,COS_P*%
X-6248000Y4530600D02*
X-7843451Y4530600D01*
X3697000Y4393600D02*
X2112000Y5978600D01*
X3697000Y-3503000D02*
X3697000Y4393600D01*
X-4800000Y5978600D02*
X-6248000Y4530600D01*
D18*
X-7893451Y4580600D02*
X-7973230Y4660379D01*
D17*
X2641600Y-4191000D02*
X3009000Y-4191000D01*
X-7843451Y4530600D02*
X-7973230Y4660379D01*
X3009000Y-4191000D02*
X3697000Y-3503000D01*
X2112000Y5978600D02*
X-4800000Y5978600D01*
%TO.N,COS_N*%
X-5200000Y6400000D02*
X-5200000Y6379160D01*
D18*
X-7264400Y5181600D02*
X-7255354Y5172554D01*
D17*
X-5120400Y6479600D02*
X-5200000Y6400000D01*
X1371600Y-4292600D02*
X2479000Y-5400000D01*
X3490000Y-5400000D02*
X3784600Y-5105400D01*
X-6456606Y5122554D02*
X-7205354Y5122554D01*
X2319520Y6479600D02*
X-5120400Y6479600D01*
X4198000Y4601120D02*
X2319520Y6479600D01*
X4198000Y-4692000D02*
X4198000Y4601120D01*
X3784600Y-5105400D02*
X4198000Y-4692000D01*
X-7205354Y5122554D02*
X-7264400Y5181600D01*
X2479000Y-5400000D02*
X3490000Y-5400000D01*
X-5200000Y6379160D02*
X-6456606Y5122554D01*
D18*
%TO.N,MCUSDA*%
X-11900000Y2549600D02*
X-13100000Y1349600D01*
X-13100000Y1349600D02*
X-13100000Y-3900000D01*
X-15300000Y-6100000D02*
X-15300000Y-16400000D01*
X-15300000Y-16400000D02*
X-13200000Y-18500000D01*
X-13200000Y-18500000D02*
X-9300000Y-18500000D01*
X-13100000Y-3900000D02*
X-15300000Y-6100000D01*
%TO.N,MCUSCL*%
X-12999000Y-17900000D02*
X-10300000Y-17900000D01*
X-12699000Y907368D02*
X-12699000Y-4066100D01*
X-12692632Y907368D02*
X-12000000Y1600000D01*
X-14899000Y-6266100D02*
X-14899000Y-16000000D01*
X-12699000Y907368D02*
X-12692632Y907368D01*
X-14899000Y-16000000D02*
X-12999000Y-17900000D01*
X-12699000Y-4066100D02*
X-14899000Y-6266100D01*
%TD*%
M02*
